M48
; DRILL file {KiCad 7.0.2-0} date 2024 January 15, Monday 07:51:15
; FORMAT={-:-/ absolute / metric / decimal}
; #@! TF.CreationDate,2024-01-15T07:51:15+01:00
; #@! TF.GenerationSoftware,Kicad,Pcbnew,7.0.2-0
; #@! TF.FileFunction,Plated,1,2,PTH
FMAT,2
METRIC
; #@! TA.AperFunction,Plated,PTH,ViaDrill
T1C0.400
; #@! TA.AperFunction,Plated,PTH,ComponentDrill
T2C1.000
%
G90
G05
T1
X46.0Y-92.01
X51.36Y-75.61
X56.8Y-83.95
X64.302Y-86.242
T2
X45.92Y-81.08
X45.92Y-84.73
X54.475Y-105.65
X54.5Y-111.425
X60.725Y-111.475
X68.8Y-56.65
X68.8Y-59.19
X68.8Y-61.73
X68.8Y-64.27
X68.8Y-66.81
X68.8Y-69.35
X68.8Y-71.89
X68.8Y-74.43
X68.8Y-76.97
X68.8Y-79.51
X68.8Y-82.05
X68.8Y-84.59
X68.8Y-87.13
X68.8Y-89.67
X68.8Y-92.21
X68.8Y-94.75
X68.8Y-97.29
X68.8Y-99.83
X68.8Y-102.37
X68.8Y-104.91
X71.34Y-56.65
X71.34Y-59.19
X71.34Y-61.73
X71.34Y-64.27
X71.34Y-66.81
X71.34Y-69.35
X71.34Y-71.89
X71.34Y-74.43
X71.34Y-76.97
X71.34Y-79.51
X71.34Y-82.05
X71.34Y-84.59
X71.34Y-87.13
X71.34Y-89.67
X71.34Y-92.21
X71.34Y-94.75
X71.34Y-97.29
X71.34Y-99.83
X71.34Y-102.37
X71.34Y-104.91
T0
M30
