%TF.GenerationSoftware,KiCad,Pcbnew,7.0.2-0*%
%TF.CreationDate,2024-01-15T07:51:27+01:00*%
%TF.ProjectId,dac,6461632e-6b69-4636-9164-5f7063625858,rev?*%
%TF.SameCoordinates,Original*%
%TF.FileFunction,Legend,Top*%
%TF.FilePolarity,Positive*%
%FSLAX46Y46*%
G04 Gerber Fmt 4.6, Leading zero omitted, Abs format (unit mm)*
G04 Created by KiCad (PCBNEW 7.0.2-0) date 2024-01-15 07:51:27*
%MOMM*%
%LPD*%
G01*
G04 APERTURE LIST*
%ADD10C,0.120000*%
G04 APERTURE END LIST*
D10*
%TO.C,U5*%
X52960000Y-69890000D02*
X54960000Y-69890000D01*
X53960000Y-67670000D02*
X54960000Y-67670000D01*
%TO.C,U2*%
X62826600Y-79967000D02*
X62426600Y-79967000D01*
X62826600Y-79967000D02*
X62826600Y-84767000D01*
X62426600Y-79967000D02*
X62426600Y-78567000D01*
X52026600Y-79967000D02*
X52026600Y-84767000D01*
%TO.C,R1*%
X63860000Y-92922936D02*
X63860000Y-93377064D01*
X62390000Y-92922936D02*
X62390000Y-93377064D01*
%TO.C,C4*%
X56865348Y-86707000D02*
X57387852Y-86707000D01*
X56865348Y-88177000D02*
X57387852Y-88177000D01*
%TO.C,C8*%
X55675000Y-67025000D02*
X56175000Y-67025000D01*
X55925000Y-66775000D02*
X55925000Y-67275000D01*
X56415000Y-67389437D02*
X56415000Y-67525000D01*
X56415000Y-67389437D02*
X57479437Y-66325000D01*
X56415000Y-69780563D02*
X56415000Y-69645000D01*
X56415000Y-69780563D02*
X57479437Y-70845000D01*
X57479437Y-66325000D02*
X60935000Y-66325000D01*
X57479437Y-70845000D02*
X60935000Y-70845000D01*
X60935000Y-66325000D02*
X60935000Y-67525000D01*
X60935000Y-70845000D02*
X60935000Y-69645000D01*
%TO.C,J7*%
X59395000Y-110145000D02*
X60725000Y-110145000D01*
X59395000Y-111475000D02*
X59395000Y-110145000D01*
X59395000Y-112745000D02*
X59395000Y-112805000D01*
X59395000Y-112745000D02*
X62055000Y-112745000D01*
X59395000Y-112805000D02*
X62055000Y-112805000D01*
X62055000Y-112745000D02*
X62055000Y-112805000D01*
%TO.C,J3*%
X44590000Y-79750000D02*
X45920000Y-79750000D01*
X44590000Y-81080000D02*
X44590000Y-79750000D01*
X44590000Y-82350000D02*
X44590000Y-82410000D01*
X44590000Y-82350000D02*
X47250000Y-82350000D01*
X44590000Y-82410000D02*
X47250000Y-82410000D01*
X47250000Y-82350000D02*
X47250000Y-82410000D01*
%TO.C,C3*%
X46480000Y-101260000D02*
X46480000Y-100760000D01*
X46230000Y-101010000D02*
X46730000Y-101010000D01*
X46844437Y-100520000D02*
X46980000Y-100520000D01*
X46844437Y-100520000D02*
X45780000Y-99455563D01*
X49235563Y-100520000D02*
X49100000Y-100520000D01*
X49235563Y-100520000D02*
X50300000Y-99455563D01*
X45780000Y-99455563D02*
X45780000Y-96000000D01*
X50300000Y-99455563D02*
X50300000Y-96000000D01*
X45780000Y-96000000D02*
X46980000Y-96000000D01*
X50300000Y-96000000D02*
X49100000Y-96000000D01*
%TO.C,C2*%
X49580000Y-87030000D02*
X49580000Y-87530000D01*
X49830000Y-87280000D02*
X49330000Y-87280000D01*
X49215563Y-87770000D02*
X49080000Y-87770000D01*
X49215563Y-87770000D02*
X50280000Y-88834437D01*
X46824437Y-87770000D02*
X46960000Y-87770000D01*
X46824437Y-87770000D02*
X45760000Y-88834437D01*
X50280000Y-88834437D02*
X50280000Y-92290000D01*
X45760000Y-88834437D02*
X45760000Y-92290000D01*
X50280000Y-92290000D02*
X49080000Y-92290000D01*
X45760000Y-92290000D02*
X46960000Y-92290000D01*
%TO.C,C9*%
X52250000Y-70145000D02*
X51750000Y-70145000D01*
X52000000Y-70395000D02*
X52000000Y-69895000D01*
X51510000Y-69780563D02*
X51510000Y-69645000D01*
X51510000Y-69780563D02*
X50445563Y-70845000D01*
X51510000Y-67389437D02*
X51510000Y-67525000D01*
X51510000Y-67389437D02*
X50445563Y-66325000D01*
X50445563Y-70845000D02*
X46990000Y-70845000D01*
X50445563Y-66325000D02*
X46990000Y-66325000D01*
X46990000Y-70845000D02*
X46990000Y-69645000D01*
X46990000Y-66325000D02*
X46990000Y-67525000D01*
%TO.C,C1*%
X60837852Y-88177000D02*
X60315348Y-88177000D01*
X60837852Y-86707000D02*
X60315348Y-86707000D01*
%TO.C,D1*%
X52990000Y-61735000D02*
X52990000Y-66035000D01*
X52990000Y-61735000D02*
X60650000Y-61735000D01*
X52990000Y-66035000D02*
X60650000Y-66035000D01*
%TO.C,C5*%
X53415348Y-86682000D02*
X53937852Y-86682000D01*
X53415348Y-88152000D02*
X53937852Y-88152000D01*
%TO.C,C6*%
X52191600Y-76828252D02*
X52191600Y-76305748D01*
X53661600Y-76828252D02*
X53661600Y-76305748D01*
%TO.C,J8*%
X53170000Y-110095000D02*
X54500000Y-110095000D01*
X53170000Y-111425000D02*
X53170000Y-110095000D01*
X53170000Y-112695000D02*
X53170000Y-112755000D01*
X53170000Y-112695000D02*
X55830000Y-112695000D01*
X53170000Y-112755000D02*
X55830000Y-112755000D01*
X55830000Y-112695000D02*
X55830000Y-112755000D01*
%TO.C,C7*%
X54191600Y-76828252D02*
X54191600Y-76305748D01*
X55661600Y-76828252D02*
X55661600Y-76305748D01*
%TO.C,J2*%
X44590000Y-83400000D02*
X45920000Y-83400000D01*
X44590000Y-84730000D02*
X44590000Y-83400000D01*
X44590000Y-86000000D02*
X44590000Y-86060000D01*
X44590000Y-86000000D02*
X47250000Y-86000000D01*
X44590000Y-86060000D02*
X47250000Y-86060000D01*
X47250000Y-86000000D02*
X47250000Y-86060000D01*
%TO.C,C10*%
X49061252Y-72745000D02*
X48538748Y-72745000D01*
X49061252Y-71275000D02*
X48538748Y-71275000D01*
%TO.C,J6*%
X53145000Y-104320000D02*
X54475000Y-104320000D01*
X53145000Y-105650000D02*
X53145000Y-104320000D01*
X53145000Y-106920000D02*
X53145000Y-106980000D01*
X53145000Y-106920000D02*
X55805000Y-106920000D01*
X53145000Y-106980000D02*
X55805000Y-106980000D01*
X55805000Y-106920000D02*
X55805000Y-106980000D01*
%TO.C,R2*%
X46725000Y-93922936D02*
X46725000Y-94377064D01*
X45255000Y-93922936D02*
X45255000Y-94377064D01*
%TO.C,U1*%
X54400000Y-97550000D02*
X54400000Y-97430000D01*
X59800000Y-97550000D02*
X54400000Y-97550000D01*
X59800000Y-97430000D02*
X59800000Y-97550000D01*
X61500000Y-97430000D02*
X59800000Y-97430000D01*
X54400000Y-95490000D02*
X54400000Y-92210000D01*
X59800000Y-95490000D02*
X61500000Y-95490000D01*
X59800000Y-92210000D02*
X59800000Y-95490000D01*
X54400000Y-90270000D02*
X54400000Y-90150000D01*
X54400000Y-90150000D02*
X59800000Y-90150000D01*
X59800000Y-90150000D02*
X59800000Y-90270000D01*
%TO.C,R3*%
X53747936Y-70300000D02*
X54202064Y-70300000D01*
X53747936Y-71770000D02*
X54202064Y-71770000D01*
%TO.C,NT1*%
X58550000Y-100350000D02*
X58550000Y-100950000D01*
X57850000Y-101650000D02*
X56450000Y-101650000D01*
X56450000Y-99650000D02*
X57850000Y-99650000D01*
X55750000Y-100950000D02*
X55750000Y-100350000D01*
X58550000Y-100350000D02*
G75*
G03*
X57850000Y-99650000I-699999J1D01*
G01*
X57850000Y-101650000D02*
G75*
G03*
X58550000Y-100950000I1J699999D01*
G01*
X56450000Y-99650000D02*
G75*
G03*
X55750000Y-100350000I0J-700000D01*
G01*
X55750000Y-100950000D02*
G75*
G03*
X56450000Y-101650000I700000J0D01*
G01*
%TD*%
M02*
