%TF.GenerationSoftware,KiCad,Pcbnew,7.0.2-0*%
%TF.CreationDate,2024-01-15T07:51:27+01:00*%
%TF.ProjectId,dac,6461632e-6b69-4636-9164-5f7063625858,rev?*%
%TF.SameCoordinates,Original*%
%TF.FileFunction,Copper,L1,Top*%
%TF.FilePolarity,Positive*%
%FSLAX46Y46*%
G04 Gerber Fmt 4.6, Leading zero omitted, Abs format (unit mm)*
G04 Created by KiCad (PCBNEW 7.0.2-0) date 2024-01-15 07:51:27*
%MOMM*%
%LPD*%
G01*
G04 APERTURE LIST*
G04 Aperture macros list*
%AMRoundRect*
0 Rectangle with rounded corners*
0 $1 Rounding radius*
0 $2 $3 $4 $5 $6 $7 $8 $9 X,Y pos of 4 corners*
0 Add a 4 corners polygon primitive as box body*
4,1,4,$2,$3,$4,$5,$6,$7,$8,$9,$2,$3,0*
0 Add four circle primitives for the rounded corners*
1,1,$1+$1,$2,$3*
1,1,$1+$1,$4,$5*
1,1,$1+$1,$6,$7*
1,1,$1+$1,$8,$9*
0 Add four rect primitives between the rounded corners*
20,1,$1+$1,$2,$3,$4,$5,0*
20,1,$1+$1,$4,$5,$6,$7,0*
20,1,$1+$1,$6,$7,$8,$9,0*
20,1,$1+$1,$8,$9,$2,$3,0*%
%AMOutline4P*
0 Free polygon, 4 corners , with rotation*
0 The origin of the aperture is its center*
0 number of corners: always 4*
0 $1 to $8 corner X, Y*
0 $9 Rotation angle, in degrees counterclockwise*
0 create outline with 4 corners*
4,1,4,$1,$2,$3,$4,$5,$6,$7,$8,$1,$2,$9*%
%AMFreePoly0*
4,1,19,0.500000,-0.750000,0.000000,-0.750000,0.000000,-0.744911,-0.071157,-0.744911,-0.207708,-0.704816,-0.327430,-0.627875,-0.420627,-0.520320,-0.479746,-0.390866,-0.500000,-0.250000,-0.500000,0.250000,-0.479746,0.390866,-0.420627,0.520320,-0.327430,0.627875,-0.207708,0.704816,-0.071157,0.744911,0.000000,0.744911,0.000000,0.750000,0.500000,0.750000,0.500000,-0.750000,0.500000,-0.750000,
$1*%
%AMFreePoly1*
4,1,19,0.000000,0.744911,0.071157,0.744911,0.207708,0.704816,0.327430,0.627875,0.420627,0.520320,0.479746,0.390866,0.500000,0.250000,0.500000,-0.250000,0.479746,-0.390866,0.420627,-0.520320,0.327430,-0.627875,0.207708,-0.704816,0.071157,-0.744911,0.000000,-0.744911,0.000000,-0.750000,-0.500000,-0.750000,-0.500000,0.750000,0.000000,0.750000,0.000000,0.744911,0.000000,0.744911,
$1*%
G04 Aperture macros list end*
%TA.AperFunction,ComponentPad*%
%ADD10R,1.700000X1.700000*%
%TD*%
%TA.AperFunction,ComponentPad*%
%ADD11O,1.700000X1.700000*%
%TD*%
%TA.AperFunction,SMDPad,CuDef*%
%ADD12RoundRect,0.093750X-0.093750X-0.106250X0.093750X-0.106250X0.093750X0.106250X-0.093750X0.106250X0*%
%TD*%
%TA.AperFunction,SMDPad,CuDef*%
%ADD13R,1.000000X1.600000*%
%TD*%
%TA.AperFunction,SMDPad,CuDef*%
%ADD14R,0.800000X1.300000*%
%TD*%
%TA.AperFunction,SMDPad,CuDef*%
%ADD15RoundRect,0.250000X-0.450000X0.262500X-0.450000X-0.262500X0.450000X-0.262500X0.450000X0.262500X0*%
%TD*%
%TA.AperFunction,SMDPad,CuDef*%
%ADD16RoundRect,0.250000X-0.250000X-0.475000X0.250000X-0.475000X0.250000X0.475000X-0.250000X0.475000X0*%
%TD*%
%TA.AperFunction,SMDPad,CuDef*%
%ADD17RoundRect,0.250000X-1.050000X-0.550000X1.050000X-0.550000X1.050000X0.550000X-1.050000X0.550000X0*%
%TD*%
%TA.AperFunction,SMDPad,CuDef*%
%ADD18RoundRect,0.250000X0.550000X-1.050000X0.550000X1.050000X-0.550000X1.050000X-0.550000X-1.050000X0*%
%TD*%
%TA.AperFunction,SMDPad,CuDef*%
%ADD19RoundRect,0.250000X-0.550000X1.050000X-0.550000X-1.050000X0.550000X-1.050000X0.550000X1.050000X0*%
%TD*%
%TA.AperFunction,SMDPad,CuDef*%
%ADD20RoundRect,0.250000X1.050000X0.550000X-1.050000X0.550000X-1.050000X-0.550000X1.050000X-0.550000X0*%
%TD*%
%TA.AperFunction,SMDPad,CuDef*%
%ADD21RoundRect,0.250000X0.250000X0.475000X-0.250000X0.475000X-0.250000X-0.475000X0.250000X-0.475000X0*%
%TD*%
%TA.AperFunction,SMDPad,CuDef*%
%ADD22Outline4P,-1.800000X-1.150000X1.800000X-0.550000X1.800000X0.550000X-1.800000X1.150000X0.000000*%
%TD*%
%TA.AperFunction,SMDPad,CuDef*%
%ADD23Outline4P,-1.800000X-1.150000X1.800000X-0.550000X1.800000X0.550000X-1.800000X1.150000X180.000000*%
%TD*%
%TA.AperFunction,SMDPad,CuDef*%
%ADD24RoundRect,0.250000X0.475000X-0.250000X0.475000X0.250000X-0.475000X0.250000X-0.475000X-0.250000X0*%
%TD*%
%TA.AperFunction,SMDPad,CuDef*%
%ADD25R,3.000000X1.540000*%
%TD*%
%TA.AperFunction,SMDPad,CuDef*%
%ADD26RoundRect,0.250000X-0.262500X-0.450000X0.262500X-0.450000X0.262500X0.450000X-0.262500X0.450000X0*%
%TD*%
%TA.AperFunction,SMDPad,CuDef*%
%ADD27FreePoly0,180.000000*%
%TD*%
%TA.AperFunction,SMDPad,CuDef*%
%ADD28FreePoly1,180.000000*%
%TD*%
%TA.AperFunction,ViaPad*%
%ADD29C,0.800000*%
%TD*%
%TA.AperFunction,Conductor*%
%ADD30C,0.250000*%
%TD*%
G04 APERTURE END LIST*
%TA.AperFunction,EtchedComponent*%
%TO.C,NT1*%
G36*
X57400000Y-100950000D02*
G01*
X56900000Y-100950000D01*
X56900000Y-100350000D01*
X57400000Y-100350000D01*
X57400000Y-100950000D01*
G37*
%TD.AperFunction*%
%TD*%
D10*
%TO.P,J1,1,3V3*%
%TO.N,unconnected-(J1-3V3-Pad1)*%
X68800000Y-56650000D03*
D11*
%TO.P,J1,2,5V*%
%TO.N,+5V*%
X71340000Y-56650000D03*
%TO.P,J1,3,SDA/GPIO2*%
%TO.N,/SDA*%
X68800000Y-59190000D03*
%TO.P,J1,4,5V*%
%TO.N,+5V*%
X71340000Y-59190000D03*
%TO.P,J1,5,SCL/GPIO3*%
%TO.N,/SCL*%
X68800000Y-61730000D03*
%TO.P,J1,6,GND*%
%TO.N,GND*%
X71340000Y-61730000D03*
%TO.P,J1,7,GCLK0/GPIO4*%
%TO.N,/GPIO4*%
X68800000Y-64270000D03*
%TO.P,J1,8,GPIO14/TXD*%
%TO.N,/UART_TX*%
X71340000Y-64270000D03*
%TO.P,J1,9,GND*%
%TO.N,GND*%
X68800000Y-66810000D03*
%TO.P,J1,10,GPIO15/RXD*%
%TO.N,/UART_RX*%
X71340000Y-66810000D03*
%TO.P,J1,11,GPIO17*%
%TO.N,/GPIO17*%
X68800000Y-69350000D03*
%TO.P,J1,12,GPIO18/PWM0*%
%TO.N,/GPIO18*%
X71340000Y-69350000D03*
%TO.P,J1,13,GPIO27*%
%TO.N,unconnected-(J1-GPIO27-Pad13)*%
X68800000Y-71890000D03*
%TO.P,J1,14,GND*%
%TO.N,GND*%
X71340000Y-71890000D03*
%TO.P,J1,15,GPIO22*%
%TO.N,/I2S_MCLK*%
X68800000Y-74430000D03*
%TO.P,J1,16,GPIO23*%
%TO.N,/U0TXD*%
X71340000Y-74430000D03*
%TO.P,J1,17,3V3*%
%TO.N,unconnected-(J1-3V3-Pad17)*%
X68800000Y-76970000D03*
%TO.P,J1,18,GPIO24*%
%TO.N,/U0RXD*%
X71340000Y-76970000D03*
%TO.P,J1,19,MOSI0/GPIO10*%
%TO.N,/SPI_MOSI*%
X68800000Y-79510000D03*
%TO.P,J1,20,GND*%
%TO.N,GND*%
X71340000Y-79510000D03*
%TO.P,J1,21,MISO0/GPIO9*%
%TO.N,/SPI_MISO*%
X68800000Y-82050000D03*
%TO.P,J1,22,GPIO25*%
%TO.N,/DTR*%
X71340000Y-82050000D03*
%TO.P,J1,23,SCLK0/GPIO11*%
%TO.N,/SPI_CLK*%
X68800000Y-84590000D03*
%TO.P,J1,24,~{CE0}/GPIO8*%
%TO.N,/SPI_CS*%
X71340000Y-84590000D03*
%TO.P,J1,25,GND*%
%TO.N,GND*%
X68800000Y-87130000D03*
%TO.P,J1,26,~{CE1}/GPIO7*%
%TO.N,/GPIO7*%
X71340000Y-87130000D03*
%TO.P,J1,27,ID_SD/GPIO0*%
%TO.N,/GPIO0*%
X68800000Y-89670000D03*
%TO.P,J1,28,ID_SC/GPIO1*%
%TO.N,/GPIO1*%
X71340000Y-89670000D03*
%TO.P,J1,29,GCLK1/GPIO5*%
%TO.N,/GPIO5*%
X68800000Y-92210000D03*
%TO.P,J1,30,GND*%
%TO.N,GND*%
X71340000Y-92210000D03*
%TO.P,J1,31,GCLK2/GPIO6*%
%TO.N,/GPIO6*%
X68800000Y-94750000D03*
%TO.P,J1,32,PWM0/GPIO12*%
%TO.N,/I2S_BCLK*%
X71340000Y-94750000D03*
%TO.P,J1,33,PWM1/GPIO13*%
%TO.N,/PWM1*%
X68800000Y-97290000D03*
%TO.P,J1,34,GND*%
%TO.N,GND*%
X71340000Y-97290000D03*
%TO.P,J1,35,GPIO19/MISO1*%
%TO.N,/I2S_LRCK*%
X68800000Y-99830000D03*
%TO.P,J1,36,GPIO16*%
%TO.N,/GPIO16*%
X71340000Y-99830000D03*
%TO.P,J1,37,GPIO26*%
%TO.N,/RTS*%
X68800000Y-102370000D03*
%TO.P,J1,38,GPIO20/MOSI1*%
%TO.N,/SPDIF*%
X71340000Y-102370000D03*
%TO.P,J1,39,GND*%
%TO.N,GND*%
X68800000Y-104910000D03*
%TO.P,J1,40,GPIO21/SCLK1*%
%TO.N,/I2S_DOUT*%
X71340000Y-104910000D03*
%TD*%
D12*
%TO.P,U5,1,OUT*%
%TO.N,+3V3*%
X53072500Y-68130000D03*
%TO.P,U5,2,NC*%
%TO.N,unconnected-(U5-NC-Pad2)*%
X53072500Y-68780000D03*
%TO.P,U5,3,PG*%
%TO.N,unconnected-(U5-PG-Pad3)*%
X53072500Y-69430000D03*
%TO.P,U5,4,EN*%
%TO.N,Net-(U5-EN)*%
X54847500Y-69430000D03*
%TO.P,U5,5,GND*%
%TO.N,GND*%
X54847500Y-68780000D03*
%TO.P,U5,6,IN*%
%TO.N,/VIN*%
X54847500Y-68130000D03*
D13*
%TO.P,U5,7,EP*%
%TO.N,GND*%
X53960000Y-68780000D03*
%TD*%
D14*
%TO.P,U2,1,BCK*%
%TO.N,/I2S_BCLK*%
X61876600Y-79217000D03*
%TO.P,U2,2,LRCK*%
%TO.N,/I2S_LRCK*%
X60596600Y-79217000D03*
%TO.P,U2,3,SDI*%
%TO.N,/I2S_DOUT*%
X59336600Y-79217000D03*
%TO.P,U2,4,DIF*%
%TO.N,GND*%
X58066600Y-79217000D03*
%TO.P,U2,5,AVCC*%
%TO.N,+3V3*%
X56786600Y-79217000D03*
%TO.P,U2,6,VREG*%
%TO.N,Net-(U2-VREG)*%
X55516600Y-79217000D03*
%TO.P,U2,7,AOUTL*%
%TO.N,/AUDIO_LEFT*%
X54256600Y-79217000D03*
%TO.P,U2,8,AOUTR*%
%TO.N,/AUDIO_RIGHT*%
X52976600Y-79217000D03*
%TO.P,U2,9,CP*%
%TO.N,Net-(U2-CP)*%
X52976600Y-85517000D03*
%TO.P,U2,10,CN*%
%TO.N,Net-(U2-CN)*%
X54256600Y-85517000D03*
%TO.P,U2,11,NEG*%
%TO.N,Net-(U2-NEG)*%
X55516600Y-85517000D03*
%TO.P,U2,12,AGND*%
%TO.N,GNDA*%
X56786600Y-85517000D03*
%TO.P,U2,13,MCLK*%
%TO.N,Net-(U1-OUT)*%
X58066600Y-85517000D03*
%TO.P,U2,14,DGND*%
%TO.N,GND*%
X59336600Y-85517000D03*
%TO.P,U2,15,MUTE_B*%
%TO.N,Net-(U2-MUTE_B)*%
X60596600Y-85517000D03*
%TO.P,U2,16,ZD*%
%TO.N,unconnected-(U2-ZD-Pad16)*%
X61876600Y-85517000D03*
%TD*%
D15*
%TO.P,R1,1*%
%TO.N,Net-(U2-MUTE_B)*%
X63125000Y-92237500D03*
%TO.P,R1,2*%
%TO.N,+3V3*%
X63125000Y-94062500D03*
%TD*%
D16*
%TO.P,C4,1*%
%TO.N,Net-(U2-NEG)*%
X56176600Y-87442000D03*
%TO.P,C4,2*%
%TO.N,GNDA*%
X58076600Y-87442000D03*
%TD*%
D17*
%TO.P,C8,1*%
%TO.N,/VIN*%
X56875000Y-68585000D03*
%TO.P,C8,2*%
%TO.N,GND*%
X60475000Y-68585000D03*
%TD*%
D10*
%TO.P,J7,1,1*%
%TO.N,GND*%
X60725000Y-111475000D03*
%TD*%
%TO.P,J3,1,1*%
%TO.N,/AUDIO_RIGHT*%
X45920000Y-81080000D03*
%TD*%
D18*
%TO.P,C3,1*%
%TO.N,Net-(U2-VREG)*%
X48040000Y-100060000D03*
%TO.P,C3,2*%
%TO.N,GNDA*%
X48040000Y-96460000D03*
%TD*%
D19*
%TO.P,C2,1*%
%TO.N,+3V3*%
X48020000Y-88230000D03*
%TO.P,C2,2*%
%TO.N,GNDA*%
X48020000Y-91830000D03*
%TD*%
D20*
%TO.P,C9,1*%
%TO.N,+3V3*%
X51050000Y-68585000D03*
%TO.P,C9,2*%
%TO.N,GND*%
X47450000Y-68585000D03*
%TD*%
D21*
%TO.P,C1,1*%
%TO.N,Net-(U2-MUTE_B)*%
X61526600Y-87442000D03*
%TO.P,C1,2*%
%TO.N,GND*%
X59626600Y-87442000D03*
%TD*%
D22*
%TO.P,D1,1,K*%
%TO.N,/VIN*%
X55050000Y-63885000D03*
D23*
%TO.P,D1,2,A*%
%TO.N,+5V*%
X60850000Y-63885000D03*
%TD*%
D16*
%TO.P,C5,1*%
%TO.N,Net-(U2-CP)*%
X52726600Y-87417000D03*
%TO.P,C5,2*%
%TO.N,Net-(U2-CN)*%
X54626600Y-87417000D03*
%TD*%
D24*
%TO.P,C6,1*%
%TO.N,/AUDIO_RIGHT*%
X52926600Y-77517000D03*
%TO.P,C6,2*%
%TO.N,GNDA*%
X52926600Y-75617000D03*
%TD*%
D10*
%TO.P,J8,1,1*%
%TO.N,GNDA*%
X54500000Y-111425000D03*
%TD*%
D24*
%TO.P,C7,1*%
%TO.N,/AUDIO_LEFT*%
X54926600Y-77517000D03*
%TO.P,C7,2*%
%TO.N,GNDA*%
X54926600Y-75617000D03*
%TD*%
D10*
%TO.P,J2,1,1*%
%TO.N,/AUDIO_LEFT*%
X45920000Y-84730000D03*
%TD*%
D21*
%TO.P,C10,1*%
%TO.N,+3V3*%
X49750000Y-72010000D03*
%TO.P,C10,2*%
%TO.N,GND*%
X47850000Y-72010000D03*
%TD*%
D10*
%TO.P,J6,1,1*%
%TO.N,+3V3*%
X54475000Y-105650000D03*
%TD*%
D15*
%TO.P,R2,1*%
%TO.N,GNDA*%
X45990000Y-93237500D03*
%TO.P,R2,2*%
%TO.N,Net-(U2-VREG)*%
X45990000Y-95062500D03*
%TD*%
D25*
%TO.P,U1,1,EN*%
%TO.N,unconnected-(U1-EN-Pad1)*%
X59800000Y-96460000D03*
%TO.P,U1,2,GND*%
%TO.N,GND*%
X59800000Y-91240000D03*
%TO.P,U1,3,OUT*%
%TO.N,Net-(U1-OUT)*%
X54400000Y-91240000D03*
%TO.P,U1,4,VDD*%
%TO.N,+3V3*%
X54400000Y-96460000D03*
%TD*%
D26*
%TO.P,R3,1*%
%TO.N,Net-(U5-EN)*%
X53062500Y-71035000D03*
%TO.P,R3,2*%
%TO.N,/VIN*%
X54887500Y-71035000D03*
%TD*%
D27*
%TO.P,NT1,1,1*%
%TO.N,GND*%
X57800000Y-100650000D03*
D28*
%TO.P,NT1,2,2*%
%TO.N,GNDA*%
X56500000Y-100650000D03*
%TD*%
D29*
%TO.N,GND*%
X64301600Y-86242000D03*
%TO.N,GNDA*%
X51360000Y-75610000D03*
X46000000Y-92010000D03*
X56800000Y-83950000D03*
%TD*%
D30*
%TO.N,GND*%
X47450000Y-68075380D02*
X53745380Y-61780000D01*
X53745380Y-61780000D02*
X55860000Y-61780000D01*
X55860000Y-61780000D02*
X60475000Y-66395000D01*
X60475000Y-66395000D02*
X60475000Y-68585000D01*
X60475000Y-68585000D02*
X58066600Y-70993400D01*
X58066600Y-70993400D02*
X58066600Y-79217000D01*
X71340000Y-79510000D02*
X70165000Y-78335000D01*
X70165000Y-73065000D02*
X71340000Y-71890000D01*
X70165000Y-78335000D02*
X70165000Y-73065000D01*
X68800000Y-66810000D02*
X69975000Y-67985000D01*
X69975000Y-67985000D02*
X69975000Y-70525000D01*
X69975000Y-70525000D02*
X71340000Y-71890000D01*
X71340000Y-97290000D02*
X72515000Y-98465000D01*
X72515000Y-105396701D02*
X71826701Y-106085000D01*
X72515000Y-98465000D02*
X72515000Y-105396701D01*
X71826701Y-106085000D02*
X69975000Y-106085000D01*
X69975000Y-106085000D02*
X68800000Y-104910000D01*
X71340000Y-92210000D02*
X72515000Y-93385000D01*
X72515000Y-93385000D02*
X72515000Y-96115000D01*
X72515000Y-96115000D02*
X71340000Y-97290000D01*
X71340000Y-92210000D02*
X72515000Y-91035000D01*
X72515000Y-91035000D02*
X72515000Y-80685000D01*
X72515000Y-80685000D02*
X71340000Y-79510000D01*
%TO.N,GNDA*%
X51360000Y-75610000D02*
X52919600Y-75610000D01*
X46000000Y-92010000D02*
X46000000Y-93227500D01*
X48040000Y-96460000D02*
X49165000Y-97585000D01*
X49165000Y-97585000D02*
X49165000Y-106090000D01*
X49165000Y-106090000D02*
X54500000Y-111425000D01*
%TO.N,GND*%
X60725000Y-111475000D02*
X62235000Y-111475000D01*
X62235000Y-111475000D02*
X68800000Y-104910000D01*
%TO.N,Net-(U2-VREG)*%
X55516600Y-79657000D02*
X48568600Y-86605000D01*
X48568600Y-86605000D02*
X47231827Y-86605000D01*
X47231827Y-86605000D02*
X44930000Y-88906827D01*
X44930000Y-94002500D02*
X45990000Y-95062500D01*
X44930000Y-88906827D02*
X44930000Y-94002500D01*
%TO.N,+3V3*%
X54400000Y-96460000D02*
X54400000Y-94610000D01*
X54400000Y-94610000D02*
X48020000Y-88230000D01*
%TO.N,Net-(U2-VREG)*%
X45990000Y-95062500D02*
X45990000Y-98010000D01*
X45990000Y-98010000D02*
X48040000Y-100060000D01*
%TO.N,GNDA*%
X45990000Y-93237500D02*
X46612500Y-93237500D01*
X46612500Y-93237500D02*
X48020000Y-91830000D01*
%TO.N,+3V3*%
X54475000Y-105650000D02*
X54475000Y-96535000D01*
%TO.N,Net-(U1-OUT)*%
X58066600Y-85517000D02*
X58066600Y-84191295D01*
X58066600Y-84191295D02*
X57065305Y-83190000D01*
X57065305Y-83190000D02*
X53750000Y-83190000D01*
X51840000Y-88680000D02*
X54400000Y-91240000D01*
X53750000Y-83190000D02*
X51840000Y-85100000D01*
X51840000Y-85100000D02*
X51840000Y-88680000D01*
%TO.N,Net-(U5-EN)*%
X54847500Y-69430000D02*
X54847500Y-69842500D01*
X54847500Y-69842500D02*
X54760000Y-69930000D01*
X54760000Y-69930000D02*
X54167500Y-69930000D01*
X54167500Y-69930000D02*
X53062500Y-71035000D01*
%TO.N,GND*%
X53960000Y-68230000D02*
X53960000Y-67876447D01*
X53960000Y-67876447D02*
X53543553Y-67460000D01*
X53543553Y-67460000D02*
X48575000Y-67460000D01*
X48575000Y-67460000D02*
X47450000Y-68585000D01*
X54847500Y-68780000D02*
X54510000Y-68780000D01*
X54510000Y-68780000D02*
X53960000Y-68230000D01*
%TO.N,/VIN*%
X54847500Y-68130000D02*
X56420000Y-68130000D01*
%TO.N,+3V3*%
X53072500Y-68130000D02*
X51505000Y-68130000D01*
%TO.N,Net-(U2-MUTE_B)*%
X61526600Y-87442000D02*
X63125000Y-89040400D01*
X60596600Y-86512000D02*
X61526600Y-87442000D01*
X63125000Y-89040400D02*
X63125000Y-92237500D01*
X60596600Y-85517000D02*
X60596600Y-86512000D01*
%TO.N,GND*%
X70165000Y-65445000D02*
X68800000Y-66810000D01*
X47450000Y-68585000D02*
X47450000Y-71610000D01*
X62601600Y-84542000D02*
X59644600Y-84542000D01*
X59336600Y-84850000D02*
X59336600Y-85517000D01*
X47450000Y-71610000D02*
X47850000Y-72010000D01*
X62250000Y-66810000D02*
X60475000Y-68585000D01*
X68800000Y-66810000D02*
X62250000Y-66810000D01*
X71340000Y-61730000D02*
X70165000Y-62905000D01*
X59336600Y-85517000D02*
X59336600Y-87152000D01*
X59336600Y-80737000D02*
X59336600Y-85517000D01*
X59800000Y-87615400D02*
X59800000Y-91240000D01*
X70165000Y-62905000D02*
X70165000Y-65445000D01*
X59644600Y-84542000D02*
X59336600Y-84850000D01*
X64301600Y-86242000D02*
X62601600Y-84542000D01*
X58066600Y-79467000D02*
X59336600Y-80737000D01*
%TO.N,+3V3*%
X51050000Y-68585000D02*
X49750000Y-69885000D01*
X49750000Y-69885000D02*
X49750000Y-72010000D01*
X56797500Y-94062500D02*
X54400000Y-96460000D01*
X56786600Y-75938827D02*
X53872773Y-73025000D01*
X63125000Y-94062500D02*
X56797500Y-94062500D01*
X48125000Y-88128600D02*
X56786600Y-79467000D01*
X56786600Y-79217000D02*
X56786600Y-75938827D01*
X50765000Y-73025000D02*
X49750000Y-72010000D01*
X53872773Y-73025000D02*
X50765000Y-73025000D01*
%TO.N,GNDA*%
X48150000Y-96270000D02*
X48150000Y-93145000D01*
X52926600Y-75617000D02*
X54926600Y-75617000D01*
X56786600Y-85517000D02*
X56786600Y-83963400D01*
X56786600Y-86152000D02*
X58076600Y-87442000D01*
X56786600Y-83963400D02*
X56800000Y-83950000D01*
X56786600Y-85517000D02*
X56786600Y-86152000D01*
%TO.N,Net-(U2-NEG)*%
X55516600Y-86782000D02*
X56176600Y-87442000D01*
X55516600Y-85517000D02*
X55516600Y-86782000D01*
%TO.N,Net-(U2-CP)*%
X52976600Y-85517000D02*
X52976600Y-87167000D01*
%TO.N,Net-(U2-CN)*%
X54256600Y-85517000D02*
X54256600Y-87047000D01*
%TO.N,/AUDIO_RIGHT*%
X52976600Y-79217000D02*
X47783000Y-79217000D01*
X47783000Y-79217000D02*
X45920000Y-81080000D01*
X52926600Y-77517000D02*
X52926600Y-79167000D01*
%TO.N,/AUDIO_LEFT*%
X54256600Y-78187000D02*
X54256600Y-79217000D01*
X45920000Y-84730000D02*
X49643600Y-84730000D01*
X54926600Y-77517000D02*
X54256600Y-78187000D01*
X54256600Y-80117000D02*
X54256600Y-79217000D01*
X49643600Y-84730000D02*
X54256600Y-80117000D01*
%TO.N,/VIN*%
X55050000Y-63885000D02*
X56875000Y-65710000D01*
X56875000Y-69047500D02*
X54887500Y-71035000D01*
X56875000Y-65710000D02*
X56875000Y-68585000D01*
%TO.N,+5V*%
X69975000Y-60555000D02*
X71340000Y-59190000D01*
X71340000Y-56650000D02*
X71340000Y-59190000D01*
X64180000Y-60555000D02*
X69975000Y-60555000D01*
X60850000Y-63885000D02*
X64180000Y-60555000D01*
%TO.N,/I2S_BCLK*%
X69975000Y-86643299D02*
X69975000Y-93385000D01*
X69286701Y-85955000D02*
X69975000Y-86643299D01*
X68364600Y-85955000D02*
X69286701Y-85955000D01*
X69975000Y-93385000D02*
X71340000Y-94750000D01*
X61876600Y-79467000D02*
X68364600Y-85955000D01*
%TO.N,/I2S_LRCK*%
X67625000Y-98655000D02*
X68800000Y-99830000D01*
X60596600Y-79637000D02*
X67625000Y-86665400D01*
X67625000Y-86665400D02*
X67625000Y-98655000D01*
%TO.N,/I2S_DOUT*%
X67175000Y-87495400D02*
X67175000Y-99866701D01*
X70165000Y-102073299D02*
X70165000Y-103735000D01*
X67175000Y-99866701D02*
X68483299Y-101175000D01*
X59336600Y-79657000D02*
X67175000Y-87495400D01*
X70165000Y-103735000D02*
X71340000Y-104910000D01*
X68483299Y-101175000D02*
X69266701Y-101175000D01*
X69266701Y-101175000D02*
X70165000Y-102073299D01*
%TD*%
%TA.AperFunction,Conductor*%
%TO.N,GNDA*%
G36*
X52049472Y-74525185D02*
G01*
X52095227Y-74577989D01*
X52105171Y-74647147D01*
X52076146Y-74710703D01*
X52047529Y-74735039D01*
X51983254Y-74774683D01*
X51859283Y-74898654D01*
X51767242Y-75047877D01*
X51712093Y-75214303D01*
X51701919Y-75313890D01*
X51701600Y-75320168D01*
X51701600Y-75367000D01*
X55052600Y-75367000D01*
X55119639Y-75386685D01*
X55165394Y-75439489D01*
X55176600Y-75491000D01*
X55176600Y-75743000D01*
X55156915Y-75810039D01*
X55104111Y-75855794D01*
X55052600Y-75867000D01*
X51701601Y-75867000D01*
X51701601Y-75913829D01*
X51701921Y-75920111D01*
X51712093Y-76019695D01*
X51767242Y-76186122D01*
X51859283Y-76335345D01*
X51983254Y-76459316D01*
X51986256Y-76461168D01*
X52032980Y-76513117D01*
X52044201Y-76582079D01*
X52016357Y-76646161D01*
X51986259Y-76672242D01*
X51982944Y-76674286D01*
X51858888Y-76798342D01*
X51766786Y-76947665D01*
X51711600Y-77114202D01*
X51701419Y-77213858D01*
X51701417Y-77213878D01*
X51701100Y-77216991D01*
X51701100Y-77220138D01*
X51701100Y-77220139D01*
X51701100Y-77813858D01*
X51701100Y-77813877D01*
X51701101Y-77817008D01*
X51701420Y-77820140D01*
X51701421Y-77820141D01*
X51711600Y-77919796D01*
X51766786Y-78086334D01*
X51858888Y-78235657D01*
X51982940Y-78359709D01*
X51982942Y-78359710D01*
X51982944Y-78359712D01*
X51986589Y-78361960D01*
X52033314Y-78413907D01*
X52044538Y-78482870D01*
X52016696Y-78546952D01*
X51958628Y-78585809D01*
X51921494Y-78591500D01*
X47865744Y-78591500D01*
X47845237Y-78589235D01*
X47775127Y-78591439D01*
X47771232Y-78591500D01*
X47743650Y-78591500D01*
X47739805Y-78591985D01*
X47739780Y-78591987D01*
X47739653Y-78592004D01*
X47728033Y-78592918D01*
X47684369Y-78594290D01*
X47665129Y-78599880D01*
X47646081Y-78603825D01*
X47626209Y-78606335D01*
X47585599Y-78622413D01*
X47574554Y-78626194D01*
X47532610Y-78638381D01*
X47515365Y-78648579D01*
X47497904Y-78657133D01*
X47479267Y-78664512D01*
X47443931Y-78690185D01*
X47434174Y-78696595D01*
X47396580Y-78718829D01*
X47382413Y-78732996D01*
X47367624Y-78745626D01*
X47351413Y-78757404D01*
X47323572Y-78791058D01*
X47315711Y-78799697D01*
X46422227Y-79693181D01*
X46360904Y-79726666D01*
X46334546Y-79729500D01*
X45025439Y-79729500D01*
X45025420Y-79729500D01*
X45022128Y-79729501D01*
X45018848Y-79729853D01*
X45018840Y-79729854D01*
X44962515Y-79735909D01*
X44827669Y-79786204D01*
X44712454Y-79872454D01*
X44626204Y-79987668D01*
X44601005Y-80055232D01*
X44575909Y-80122517D01*
X44569500Y-80182127D01*
X44569500Y-80185448D01*
X44569500Y-80185449D01*
X44569500Y-81974560D01*
X44569500Y-81974578D01*
X44569501Y-81977872D01*
X44569853Y-81981152D01*
X44569854Y-81981159D01*
X44575909Y-82037484D01*
X44598481Y-82098002D01*
X44626204Y-82172331D01*
X44712454Y-82287546D01*
X44827669Y-82373796D01*
X44962517Y-82424091D01*
X45022127Y-82430500D01*
X46817872Y-82430499D01*
X46877483Y-82424091D01*
X47012331Y-82373796D01*
X47127546Y-82287546D01*
X47213796Y-82172331D01*
X47264091Y-82037483D01*
X47270500Y-81977873D01*
X47270499Y-80665452D01*
X47290184Y-80598414D01*
X47306818Y-80577772D01*
X48005772Y-79878819D01*
X48067095Y-79845334D01*
X48093453Y-79842500D01*
X51956936Y-79842500D01*
X52023975Y-79862185D01*
X52069730Y-79914989D01*
X52080226Y-79953245D01*
X52082509Y-79974484D01*
X52087427Y-79987669D01*
X52132804Y-80109331D01*
X52219054Y-80224546D01*
X52334269Y-80310796D01*
X52469117Y-80361091D01*
X52528727Y-80367500D01*
X52822147Y-80367499D01*
X52889185Y-80387183D01*
X52934940Y-80439987D01*
X52944884Y-80509146D01*
X52915859Y-80572701D01*
X52909827Y-80579180D01*
X49420828Y-84068181D01*
X49359505Y-84101666D01*
X49333147Y-84104500D01*
X47394499Y-84104500D01*
X47327460Y-84084815D01*
X47281705Y-84032011D01*
X47270499Y-83980500D01*
X47270499Y-83835439D01*
X47270499Y-83835438D01*
X47270499Y-83832128D01*
X47264091Y-83772517D01*
X47213796Y-83637669D01*
X47127546Y-83522454D01*
X47012331Y-83436204D01*
X46877483Y-83385909D01*
X46817873Y-83379500D01*
X46814550Y-83379500D01*
X45025439Y-83379500D01*
X45025420Y-83379500D01*
X45022128Y-83379501D01*
X45018848Y-83379853D01*
X45018840Y-83379854D01*
X44962515Y-83385909D01*
X44827669Y-83436204D01*
X44712454Y-83522454D01*
X44626204Y-83637668D01*
X44575910Y-83772515D01*
X44575909Y-83772517D01*
X44569500Y-83832127D01*
X44569500Y-83835448D01*
X44569500Y-83835449D01*
X44569500Y-85624560D01*
X44569500Y-85624578D01*
X44569501Y-85627872D01*
X44569853Y-85631152D01*
X44569854Y-85631159D01*
X44575909Y-85687484D01*
X44578530Y-85694511D01*
X44626204Y-85822331D01*
X44712454Y-85937546D01*
X44827669Y-86023796D01*
X44962517Y-86074091D01*
X45022127Y-86080500D01*
X46572374Y-86080499D01*
X46639413Y-86100184D01*
X46685168Y-86152987D01*
X46695112Y-86222146D01*
X46666087Y-86285702D01*
X46660055Y-86292180D01*
X44546208Y-88406026D01*
X44530110Y-88418923D01*
X44482096Y-88470052D01*
X44479392Y-88472843D01*
X44462628Y-88489607D01*
X44462621Y-88489614D01*
X44459880Y-88492356D01*
X44457499Y-88495424D01*
X44457490Y-88495435D01*
X44457411Y-88495538D01*
X44449842Y-88504399D01*
X44419935Y-88536247D01*
X44410285Y-88553801D01*
X44399609Y-88570055D01*
X44387326Y-88585890D01*
X44369975Y-88625985D01*
X44364838Y-88636471D01*
X44343802Y-88674734D01*
X44338821Y-88694136D01*
X44332520Y-88712538D01*
X44324561Y-88730929D01*
X44317728Y-88774069D01*
X44315360Y-88785501D01*
X44304500Y-88827804D01*
X44304500Y-88847843D01*
X44302973Y-88867241D01*
X44299840Y-88887021D01*
X44303950Y-88930500D01*
X44304500Y-88942170D01*
X44304500Y-93919756D01*
X44302235Y-93940266D01*
X44304439Y-94010372D01*
X44304500Y-94014267D01*
X44304500Y-94041850D01*
X44304988Y-94045719D01*
X44304989Y-94045725D01*
X44305004Y-94045843D01*
X44305918Y-94057467D01*
X44307290Y-94101126D01*
X44312879Y-94120360D01*
X44316825Y-94139416D01*
X44319335Y-94159292D01*
X44335414Y-94199904D01*
X44339197Y-94210951D01*
X44351382Y-94252891D01*
X44361580Y-94270135D01*
X44370136Y-94287600D01*
X44377514Y-94306232D01*
X44377515Y-94306233D01*
X44403180Y-94341559D01*
X44409593Y-94351322D01*
X44431826Y-94388916D01*
X44431829Y-94388919D01*
X44431830Y-94388920D01*
X44445995Y-94403085D01*
X44458627Y-94417875D01*
X44470406Y-94434087D01*
X44504058Y-94461926D01*
X44512699Y-94469789D01*
X44753181Y-94710271D01*
X44786666Y-94771594D01*
X44789500Y-94797952D01*
X44789500Y-95371858D01*
X44789500Y-95371877D01*
X44789501Y-95375008D01*
X44789820Y-95378140D01*
X44789821Y-95378141D01*
X44800000Y-95477796D01*
X44855186Y-95644334D01*
X44947288Y-95793657D01*
X45071342Y-95917711D01*
X45099618Y-95935151D01*
X45220666Y-96009814D01*
X45279503Y-96029310D01*
X45336948Y-96069082D01*
X45363772Y-96133597D01*
X45364500Y-96147016D01*
X45364500Y-97927256D01*
X45362235Y-97947766D01*
X45364439Y-98017872D01*
X45364500Y-98021767D01*
X45364500Y-98049350D01*
X45364988Y-98053219D01*
X45364989Y-98053225D01*
X45365004Y-98053343D01*
X45365918Y-98064967D01*
X45367290Y-98108626D01*
X45372879Y-98127860D01*
X45376825Y-98146916D01*
X45379335Y-98166792D01*
X45395414Y-98207404D01*
X45399197Y-98218451D01*
X45411382Y-98260391D01*
X45421580Y-98277635D01*
X45430136Y-98295100D01*
X45437514Y-98313732D01*
X45437515Y-98313733D01*
X45463180Y-98349059D01*
X45469593Y-98358822D01*
X45491826Y-98396416D01*
X45491829Y-98396419D01*
X45491830Y-98396420D01*
X45505995Y-98410585D01*
X45518627Y-98425375D01*
X45530406Y-98441587D01*
X45564058Y-98469426D01*
X45572699Y-98477289D01*
X46703181Y-99607771D01*
X46736666Y-99669094D01*
X46739500Y-99695452D01*
X46739500Y-101156859D01*
X46739500Y-101156878D01*
X46739501Y-101160008D01*
X46739820Y-101163140D01*
X46739821Y-101163141D01*
X46750000Y-101262796D01*
X46805186Y-101429334D01*
X46897288Y-101578657D01*
X47021342Y-101702711D01*
X47045778Y-101717783D01*
X47170666Y-101794814D01*
X47282016Y-101831712D01*
X47337202Y-101849999D01*
X47436858Y-101860180D01*
X47436859Y-101860180D01*
X47439991Y-101860500D01*
X48640008Y-101860499D01*
X48742797Y-101849999D01*
X48909334Y-101794814D01*
X49058656Y-101702712D01*
X49182712Y-101578656D01*
X49274814Y-101429334D01*
X49329999Y-101262797D01*
X49340500Y-101160009D01*
X49340499Y-98959992D01*
X49329999Y-98857203D01*
X49274814Y-98690666D01*
X49182712Y-98541344D01*
X49182711Y-98541342D01*
X49058657Y-98417288D01*
X48974281Y-98365245D01*
X48927556Y-98313297D01*
X48916333Y-98244335D01*
X48944177Y-98180252D01*
X48974281Y-98154167D01*
X49058345Y-98102316D01*
X49182316Y-97978345D01*
X49274357Y-97829122D01*
X49329506Y-97662696D01*
X49339680Y-97563109D01*
X49340000Y-97556831D01*
X49340000Y-96710000D01*
X47914000Y-96710000D01*
X47846961Y-96690315D01*
X47801206Y-96637511D01*
X47790000Y-96586000D01*
X47790000Y-94660000D01*
X48290000Y-94660000D01*
X48290000Y-96210000D01*
X49339999Y-96210000D01*
X49339999Y-95363170D01*
X49339678Y-95356888D01*
X49329506Y-95257304D01*
X49274357Y-95090877D01*
X49182316Y-94941654D01*
X49058345Y-94817683D01*
X48909122Y-94725642D01*
X48742696Y-94670493D01*
X48643109Y-94660319D01*
X48636832Y-94660000D01*
X48290000Y-94660000D01*
X47790000Y-94660000D01*
X47443171Y-94660000D01*
X47436888Y-94660321D01*
X47337304Y-94670493D01*
X47320223Y-94676154D01*
X47250394Y-94678556D01*
X47190353Y-94642824D01*
X47163513Y-94597452D01*
X47147310Y-94548555D01*
X47124814Y-94480666D01*
X47068225Y-94388920D01*
X47032713Y-94331345D01*
X46988969Y-94287601D01*
X46938693Y-94237325D01*
X46905210Y-94176005D01*
X46910194Y-94106313D01*
X46938696Y-94061964D01*
X47032316Y-93968344D01*
X47124357Y-93819122D01*
X47164045Y-93699352D01*
X47203817Y-93641907D01*
X47268333Y-93615084D01*
X47303720Y-93618841D01*
X47303794Y-93618126D01*
X47416890Y-93629680D01*
X47423168Y-93629999D01*
X47769999Y-93629999D01*
X47770000Y-93629998D01*
X48269999Y-93629998D01*
X48270000Y-93629999D01*
X48616829Y-93629999D01*
X48623111Y-93629678D01*
X48722695Y-93619506D01*
X48889122Y-93564357D01*
X49038345Y-93472316D01*
X49162316Y-93348345D01*
X49254357Y-93199122D01*
X49309506Y-93032696D01*
X49319680Y-92933109D01*
X49320000Y-92926831D01*
X49320000Y-92080000D01*
X48270000Y-92080000D01*
X48269999Y-93629998D01*
X47770000Y-93629998D01*
X47770000Y-92080000D01*
X46720000Y-92080000D01*
X46720000Y-92111185D01*
X46700315Y-92178224D01*
X46647511Y-92223979D01*
X46583399Y-92234543D01*
X46493113Y-92225320D01*
X46486832Y-92225000D01*
X46240000Y-92225000D01*
X46240000Y-93363500D01*
X46220315Y-93430539D01*
X46167511Y-93476294D01*
X46116000Y-93487500D01*
X45864000Y-93487500D01*
X45796961Y-93467815D01*
X45751206Y-93415011D01*
X45740000Y-93363500D01*
X45740000Y-92225000D01*
X45679500Y-92225000D01*
X45612461Y-92205315D01*
X45566706Y-92152511D01*
X45555500Y-92101000D01*
X45555500Y-89217278D01*
X45575185Y-89150239D01*
X45591814Y-89129602D01*
X46507821Y-88213595D01*
X46569142Y-88180112D01*
X46638834Y-88185096D01*
X46694767Y-88226968D01*
X46719184Y-88292432D01*
X46719500Y-88301278D01*
X46719500Y-89326859D01*
X46719500Y-89326878D01*
X46719501Y-89330008D01*
X46719820Y-89333140D01*
X46719821Y-89333141D01*
X46730000Y-89432796D01*
X46785186Y-89599334D01*
X46877288Y-89748657D01*
X47001342Y-89872711D01*
X47085718Y-89924754D01*
X47132443Y-89976702D01*
X47143666Y-90045664D01*
X47115823Y-90109746D01*
X47085719Y-90135831D01*
X47001655Y-90187682D01*
X46877683Y-90311654D01*
X46785642Y-90460877D01*
X46730493Y-90627303D01*
X46720319Y-90726890D01*
X46720000Y-90733168D01*
X46720000Y-91580000D01*
X49319999Y-91580000D01*
X49319999Y-90733170D01*
X49319679Y-90726898D01*
X49319531Y-90725446D01*
X49319589Y-90725131D01*
X49319518Y-90723730D01*
X49319614Y-90724995D01*
X49332299Y-90656753D01*
X49380178Y-90605867D01*
X49447968Y-90588945D01*
X49514145Y-90611359D01*
X49530570Y-90625160D01*
X53738181Y-94832771D01*
X53771666Y-94894094D01*
X53774500Y-94920452D01*
X53774500Y-95065500D01*
X53754815Y-95132539D01*
X53702011Y-95178294D01*
X53650500Y-95189500D01*
X52855439Y-95189500D01*
X52855420Y-95189500D01*
X52852128Y-95189501D01*
X52848848Y-95189853D01*
X52848840Y-95189854D01*
X52792515Y-95195909D01*
X52657669Y-95246204D01*
X52542454Y-95332454D01*
X52456204Y-95447668D01*
X52405910Y-95582515D01*
X52405909Y-95582517D01*
X52399500Y-95642127D01*
X52399500Y-95645448D01*
X52399500Y-95645449D01*
X52399500Y-97274560D01*
X52399500Y-97274578D01*
X52399501Y-97277872D01*
X52399853Y-97281152D01*
X52399854Y-97281159D01*
X52401420Y-97295726D01*
X52405909Y-97337483D01*
X52456204Y-97472331D01*
X52542454Y-97587546D01*
X52657669Y-97673796D01*
X52792517Y-97724091D01*
X52852127Y-97730500D01*
X53725500Y-97730499D01*
X53792539Y-97750183D01*
X53838294Y-97802987D01*
X53849500Y-97854499D01*
X53849500Y-104175500D01*
X53829815Y-104242539D01*
X53777011Y-104288294D01*
X53725501Y-104299500D01*
X53580439Y-104299500D01*
X53580420Y-104299500D01*
X53577128Y-104299501D01*
X53573848Y-104299853D01*
X53573840Y-104299854D01*
X53517515Y-104305909D01*
X53382669Y-104356204D01*
X53267454Y-104442454D01*
X53181204Y-104557668D01*
X53130910Y-104692515D01*
X53130909Y-104692517D01*
X53124500Y-104752127D01*
X53124500Y-104755448D01*
X53124500Y-104755449D01*
X53124500Y-106544560D01*
X53124500Y-106544578D01*
X53124501Y-106547872D01*
X53130909Y-106607483D01*
X53181204Y-106742331D01*
X53267454Y-106857546D01*
X53382669Y-106943796D01*
X53517517Y-106994091D01*
X53577127Y-107000500D01*
X55372872Y-107000499D01*
X55432483Y-106994091D01*
X55567331Y-106943796D01*
X55682546Y-106857546D01*
X55768796Y-106742331D01*
X55819091Y-106607483D01*
X55825500Y-106547873D01*
X55825499Y-104752128D01*
X55819091Y-104692517D01*
X55768796Y-104557669D01*
X55682546Y-104442454D01*
X55567331Y-104356204D01*
X55432483Y-104305909D01*
X55372873Y-104299500D01*
X55369551Y-104299500D01*
X55224500Y-104299500D01*
X55157461Y-104279815D01*
X55111706Y-104227011D01*
X55100500Y-104175500D01*
X55100500Y-97854499D01*
X55120185Y-97787460D01*
X55172989Y-97741705D01*
X55224500Y-97730499D01*
X55944561Y-97730499D01*
X55947872Y-97730499D01*
X56007483Y-97724091D01*
X56142331Y-97673796D01*
X56257546Y-97587546D01*
X56343796Y-97472331D01*
X56394091Y-97337483D01*
X56400500Y-97277873D01*
X56400499Y-95642128D01*
X56394091Y-95582517D01*
X56358909Y-95488191D01*
X56353926Y-95418501D01*
X56387409Y-95357180D01*
X56859979Y-94884611D01*
X56921301Y-94851127D01*
X56990993Y-94856111D01*
X57046926Y-94897983D01*
X57071343Y-94963447D01*
X57060453Y-95023805D01*
X57034662Y-95080277D01*
X57015474Y-95145624D01*
X57014977Y-95147318D01*
X57014976Y-95147322D01*
X57014527Y-95150444D01*
X57014524Y-95150460D01*
X56994500Y-95289738D01*
X56994500Y-95695000D01*
X56994499Y-99442031D01*
X56974814Y-99509070D01*
X56964213Y-99523233D01*
X56874622Y-99626627D01*
X56814834Y-99757542D01*
X56794353Y-99900000D01*
X56794353Y-100935763D01*
X56794353Y-101400000D01*
X56794510Y-101402208D01*
X56794511Y-101402210D01*
X56799499Y-101471960D01*
X56816769Y-101530776D01*
X56840047Y-101610053D01*
X56858124Y-101638181D01*
X56917856Y-101731128D01*
X56951702Y-101760455D01*
X56989476Y-101819233D01*
X56994499Y-101854168D01*
X56994500Y-109778799D01*
X56994500Y-113227700D01*
X56974815Y-113294739D01*
X56922011Y-113340494D01*
X56870500Y-113351700D01*
X46459881Y-113351700D01*
X46452928Y-113351505D01*
X46340936Y-113345215D01*
X46127717Y-113332318D01*
X46114433Y-113330792D01*
X45967231Y-113305781D01*
X45792119Y-113273691D01*
X45780150Y-113270877D01*
X45630646Y-113227805D01*
X45628084Y-113227037D01*
X45596615Y-113217231D01*
X45465643Y-113176418D01*
X45455093Y-113172598D01*
X45308767Y-113111988D01*
X45305329Y-113110502D01*
X45152729Y-113041822D01*
X45143639Y-113037275D01*
X45003748Y-112959960D01*
X44999579Y-112957549D01*
X44857588Y-112871712D01*
X44849995Y-112866733D01*
X44719034Y-112773810D01*
X44714317Y-112770292D01*
X44584236Y-112668381D01*
X44578082Y-112663229D01*
X44543347Y-112632188D01*
X44458107Y-112556012D01*
X44453053Y-112551234D01*
X44336364Y-112434545D01*
X44331586Y-112429491D01*
X44288251Y-112380999D01*
X44233307Y-112319518D01*
X53150000Y-112319518D01*
X53150354Y-112326132D01*
X53156400Y-112382371D01*
X53206647Y-112517089D01*
X53292811Y-112632188D01*
X53407910Y-112718352D01*
X53542628Y-112768599D01*
X53598867Y-112774645D01*
X53605482Y-112775000D01*
X54250000Y-112775000D01*
X54250000Y-111860501D01*
X54357685Y-111909680D01*
X54464237Y-111925000D01*
X54535763Y-111925000D01*
X54642315Y-111909680D01*
X54750000Y-111860501D01*
X54750000Y-112775000D01*
X55394518Y-112775000D01*
X55401132Y-112774645D01*
X55457371Y-112768599D01*
X55592089Y-112718352D01*
X55707188Y-112632188D01*
X55793352Y-112517089D01*
X55843599Y-112382371D01*
X55849645Y-112326132D01*
X55850000Y-112319518D01*
X55850000Y-111675000D01*
X54933686Y-111675000D01*
X54959493Y-111634844D01*
X55000000Y-111496889D01*
X55000000Y-111353111D01*
X54959493Y-111215156D01*
X54933686Y-111175000D01*
X55850000Y-111175000D01*
X55850000Y-110530481D01*
X55849645Y-110523867D01*
X55843599Y-110467628D01*
X55793352Y-110332910D01*
X55707188Y-110217811D01*
X55592089Y-110131647D01*
X55457371Y-110081400D01*
X55401132Y-110075354D01*
X55394518Y-110075000D01*
X54750000Y-110075000D01*
X54750000Y-110989498D01*
X54642315Y-110940320D01*
X54535763Y-110925000D01*
X54464237Y-110925000D01*
X54357685Y-110940320D01*
X54250000Y-110989498D01*
X54250000Y-110075000D01*
X53605482Y-110075000D01*
X53598867Y-110075354D01*
X53542628Y-110081400D01*
X53407910Y-110131647D01*
X53292811Y-110217811D01*
X53206647Y-110332910D01*
X53156400Y-110467628D01*
X53150354Y-110523867D01*
X53150000Y-110530481D01*
X53150000Y-111175000D01*
X54066314Y-111175000D01*
X54040507Y-111215156D01*
X54000000Y-111353111D01*
X54000000Y-111496889D01*
X54040507Y-111634844D01*
X54066314Y-111675000D01*
X53150000Y-111675000D01*
X53150000Y-112319518D01*
X44233307Y-112319518D01*
X44224361Y-112309507D01*
X44219225Y-112303371D01*
X44167304Y-112237099D01*
X44117306Y-112173281D01*
X44113788Y-112168564D01*
X44079826Y-112120700D01*
X44020854Y-112037587D01*
X44015895Y-112030025D01*
X43930028Y-111887984D01*
X43927638Y-111883850D01*
X43908903Y-111849952D01*
X43850319Y-111743952D01*
X43845776Y-111734869D01*
X43777096Y-111582269D01*
X43775631Y-111578881D01*
X43714993Y-111432487D01*
X43711189Y-111421981D01*
X43660529Y-111259410D01*
X43659793Y-111256952D01*
X43646055Y-111209266D01*
X43616719Y-111107438D01*
X43613909Y-111095486D01*
X43581818Y-110920367D01*
X43556806Y-110773161D01*
X43555281Y-110759885D01*
X43542384Y-110546663D01*
X43541104Y-110523867D01*
X43536092Y-110434624D01*
X43535898Y-110427776D01*
X43535619Y-109778800D01*
X45460751Y-109778800D01*
X45474275Y-109950631D01*
X45480517Y-110029949D01*
X45539326Y-110274910D01*
X45572571Y-110355170D01*
X45635734Y-110507659D01*
X45767364Y-110722459D01*
X45930976Y-110914024D01*
X46122541Y-111077636D01*
X46337341Y-111209266D01*
X46570089Y-111305673D01*
X46815052Y-111364483D01*
X47003318Y-111379300D01*
X47005763Y-111379300D01*
X47126637Y-111379300D01*
X47129082Y-111379300D01*
X47317348Y-111364483D01*
X47562311Y-111305673D01*
X47795059Y-111209266D01*
X48009859Y-111077636D01*
X48201424Y-110914024D01*
X48365036Y-110722459D01*
X48496666Y-110507659D01*
X48593073Y-110274911D01*
X48651883Y-110029948D01*
X48671649Y-109778800D01*
X48651883Y-109527652D01*
X48593073Y-109282689D01*
X48496666Y-109049941D01*
X48365036Y-108835141D01*
X48201424Y-108643576D01*
X48009859Y-108479964D01*
X47795059Y-108348334D01*
X47678684Y-108300130D01*
X47562310Y-108251926D01*
X47317349Y-108193117D01*
X47131516Y-108178491D01*
X47131501Y-108178490D01*
X47129082Y-108178300D01*
X47003318Y-108178300D01*
X47000899Y-108178490D01*
X47000883Y-108178491D01*
X46815050Y-108193117D01*
X46570089Y-108251926D01*
X46337339Y-108348335D01*
X46122542Y-108479963D01*
X45930976Y-108643576D01*
X45767363Y-108835142D01*
X45635735Y-109049939D01*
X45539326Y-109282689D01*
X45480517Y-109527650D01*
X45480517Y-109527652D01*
X45460751Y-109778800D01*
X43535619Y-109778800D01*
X43521424Y-76732807D01*
X43520521Y-74629553D01*
X43540177Y-74562505D01*
X43592961Y-74516728D01*
X43644521Y-74505500D01*
X51982433Y-74505500D01*
X52049472Y-74525185D01*
G37*
%TD.AperFunction*%
%TA.AperFunction,Conductor*%
G36*
X58269639Y-87211685D02*
G01*
X58315394Y-87264489D01*
X58326600Y-87316000D01*
X58326600Y-88305614D01*
X58315394Y-88357126D01*
X58284662Y-88424417D01*
X58265474Y-88489764D01*
X58264977Y-88491458D01*
X58264976Y-88491462D01*
X58264527Y-88494584D01*
X58264524Y-88494600D01*
X58244500Y-88633878D01*
X58244499Y-89842676D01*
X58244500Y-89842694D01*
X58244500Y-89846000D01*
X58245627Y-89856488D01*
X58233221Y-89925245D01*
X58185610Y-89976382D01*
X58165672Y-89985921D01*
X58057669Y-90026204D01*
X57942454Y-90112454D01*
X57856204Y-90227668D01*
X57805910Y-90362515D01*
X57805909Y-90362517D01*
X57799500Y-90422127D01*
X57799500Y-90425448D01*
X57799500Y-90425449D01*
X57799500Y-92054560D01*
X57799500Y-92054578D01*
X57799501Y-92057872D01*
X57799853Y-92061152D01*
X57799854Y-92061159D01*
X57805909Y-92117484D01*
X57828564Y-92178224D01*
X57856204Y-92252331D01*
X57942454Y-92367546D01*
X58057669Y-92453796D01*
X58165955Y-92494184D01*
X58221889Y-92536055D01*
X58246306Y-92601520D01*
X58245361Y-92628005D01*
X58244500Y-92633996D01*
X58244500Y-93313000D01*
X58224815Y-93380039D01*
X58172011Y-93425794D01*
X58120500Y-93437000D01*
X56880244Y-93437000D01*
X56859737Y-93434735D01*
X56789627Y-93436939D01*
X56785732Y-93437000D01*
X56758150Y-93437000D01*
X56754305Y-93437485D01*
X56754280Y-93437487D01*
X56754153Y-93437504D01*
X56742533Y-93438418D01*
X56698869Y-93439790D01*
X56679629Y-93445380D01*
X56660581Y-93449325D01*
X56640709Y-93451835D01*
X56600099Y-93467913D01*
X56589054Y-93471694D01*
X56547110Y-93483881D01*
X56529865Y-93494079D01*
X56512404Y-93502633D01*
X56493767Y-93510012D01*
X56458431Y-93535685D01*
X56448674Y-93542095D01*
X56411080Y-93564329D01*
X56396913Y-93578496D01*
X56382124Y-93591126D01*
X56365913Y-93602904D01*
X56338072Y-93636558D01*
X56330211Y-93645197D01*
X55238775Y-94736633D01*
X55177452Y-94770118D01*
X55107760Y-94765134D01*
X55051827Y-94723262D01*
X55027410Y-94657798D01*
X55027155Y-94652846D01*
X55025561Y-94602112D01*
X55025500Y-94598218D01*
X55025500Y-94574541D01*
X55025500Y-94570650D01*
X55024998Y-94566683D01*
X55024081Y-94555027D01*
X55023878Y-94548555D01*
X55022710Y-94511373D01*
X55017118Y-94492126D01*
X55013174Y-94473085D01*
X55010664Y-94453208D01*
X54994579Y-94412583D01*
X54990808Y-94401568D01*
X54978618Y-94359610D01*
X54968414Y-94342355D01*
X54959861Y-94324895D01*
X54952486Y-94306269D01*
X54952486Y-94306268D01*
X54926808Y-94270925D01*
X54920401Y-94261171D01*
X54898169Y-94223579D01*
X54884006Y-94209416D01*
X54871367Y-94194617D01*
X54859595Y-94178413D01*
X54825941Y-94150573D01*
X54817299Y-94142709D01*
X53396771Y-92722180D01*
X53363286Y-92660857D01*
X53368270Y-92591165D01*
X53410142Y-92535232D01*
X53475606Y-92510815D01*
X53484452Y-92510499D01*
X55944561Y-92510499D01*
X55947872Y-92510499D01*
X56007483Y-92504091D01*
X56142331Y-92453796D01*
X56257546Y-92367546D01*
X56343796Y-92252331D01*
X56394091Y-92117483D01*
X56400500Y-92057873D01*
X56400499Y-90422128D01*
X56394091Y-90362517D01*
X56343796Y-90227669D01*
X56257546Y-90112454D01*
X56142331Y-90026204D01*
X56007483Y-89975909D01*
X55947873Y-89969500D01*
X55944551Y-89969500D01*
X54065452Y-89969500D01*
X53998413Y-89949815D01*
X53977771Y-89933181D01*
X52898771Y-88854180D01*
X52865286Y-88792857D01*
X52870270Y-88723165D01*
X52912142Y-88667232D01*
X52977606Y-88642815D01*
X52986452Y-88642499D01*
X53023459Y-88642499D01*
X53026608Y-88642499D01*
X53129397Y-88631999D01*
X53295934Y-88576814D01*
X53445256Y-88484712D01*
X53569312Y-88360656D01*
X53571060Y-88357821D01*
X53623008Y-88311096D01*
X53691971Y-88299873D01*
X53756053Y-88327716D01*
X53782139Y-88357821D01*
X53783888Y-88360657D01*
X53907942Y-88484711D01*
X53936961Y-88502610D01*
X54057266Y-88576814D01*
X54168617Y-88613712D01*
X54223802Y-88631999D01*
X54323458Y-88642180D01*
X54323459Y-88642180D01*
X54326591Y-88642500D01*
X54926608Y-88642499D01*
X55029397Y-88631999D01*
X55195934Y-88576814D01*
X55316239Y-88502609D01*
X55383630Y-88484170D01*
X55446430Y-88502610D01*
X55457943Y-88509711D01*
X55457944Y-88509712D01*
X55607266Y-88601814D01*
X55698358Y-88631999D01*
X55773802Y-88656999D01*
X55873458Y-88667180D01*
X55873459Y-88667180D01*
X55876591Y-88667500D01*
X56476608Y-88667499D01*
X56579397Y-88656999D01*
X56745934Y-88601814D01*
X56895256Y-88509712D01*
X57019312Y-88385656D01*
X57021352Y-88382347D01*
X57073295Y-88335622D01*
X57142257Y-88324395D01*
X57206341Y-88352235D01*
X57232431Y-88382343D01*
X57234282Y-88385344D01*
X57358254Y-88509316D01*
X57507477Y-88601357D01*
X57673903Y-88656506D01*
X57773491Y-88666680D01*
X57779767Y-88666999D01*
X57826598Y-88666999D01*
X57826599Y-88666998D01*
X57826600Y-87316000D01*
X57846285Y-87248960D01*
X57899089Y-87203206D01*
X57950600Y-87192000D01*
X58202600Y-87192000D01*
X58269639Y-87211685D01*
G37*
%TD.AperFunction*%
%TA.AperFunction,Conductor*%
G36*
X56821892Y-83835185D02*
G01*
X56842534Y-83851819D01*
X57146033Y-84155319D01*
X57179518Y-84216642D01*
X57174534Y-84286334D01*
X57132662Y-84342267D01*
X57067198Y-84366684D01*
X57058352Y-84367000D01*
X57036600Y-84367000D01*
X57036600Y-85643000D01*
X57016915Y-85710039D01*
X56964111Y-85755794D01*
X56912600Y-85767000D01*
X56660600Y-85767000D01*
X56593561Y-85747315D01*
X56547806Y-85694511D01*
X56536600Y-85643000D01*
X56536600Y-84367000D01*
X56342082Y-84367000D01*
X56335467Y-84367354D01*
X56279224Y-84373401D01*
X56195646Y-84404573D01*
X56125954Y-84409557D01*
X56108981Y-84404573D01*
X56024085Y-84372909D01*
X55967766Y-84366854D01*
X55967765Y-84366853D01*
X55964473Y-84366500D01*
X55961150Y-84366500D01*
X55072039Y-84366500D01*
X55072020Y-84366500D01*
X55068728Y-84366501D01*
X55065448Y-84366853D01*
X55065440Y-84366854D01*
X55009114Y-84372909D01*
X54929932Y-84402442D01*
X54860240Y-84407426D01*
X54843268Y-84402442D01*
X54764086Y-84372909D01*
X54707766Y-84366854D01*
X54707765Y-84366853D01*
X54704473Y-84366500D01*
X54701150Y-84366500D01*
X53812039Y-84366500D01*
X53812020Y-84366500D01*
X53808728Y-84366501D01*
X53805453Y-84366853D01*
X53805435Y-84366854D01*
X53765327Y-84371166D01*
X53696568Y-84358759D01*
X53645432Y-84311147D01*
X53628154Y-84243447D01*
X53650220Y-84177154D01*
X53664381Y-84160208D01*
X53972774Y-83851816D01*
X54034095Y-83818334D01*
X54060453Y-83815500D01*
X56754853Y-83815500D01*
X56821892Y-83835185D01*
G37*
%TD.AperFunction*%
%TD*%
%TA.AperFunction,Conductor*%
%TO.N,GND*%
G36*
X70154855Y-77636545D02*
G01*
X70171571Y-77655837D01*
X70301505Y-77841401D01*
X70468599Y-78008495D01*
X70654596Y-78138732D01*
X70698219Y-78193307D01*
X70705412Y-78262806D01*
X70673890Y-78325160D01*
X70654595Y-78341880D01*
X70468919Y-78471892D01*
X70301893Y-78638918D01*
X70171880Y-78824596D01*
X70117303Y-78868220D01*
X70047804Y-78875413D01*
X69985450Y-78843891D01*
X69968730Y-78824595D01*
X69838494Y-78638598D01*
X69671401Y-78471505D01*
X69654280Y-78459517D01*
X69485839Y-78341573D01*
X69442216Y-78286998D01*
X69435022Y-78217500D01*
X69466545Y-78155145D01*
X69485837Y-78138428D01*
X69671401Y-78008495D01*
X69838495Y-77841401D01*
X69968426Y-77655839D01*
X70023002Y-77612216D01*
X70092500Y-77605022D01*
X70154855Y-77636545D01*
G37*
%TD.AperFunction*%
%TA.AperFunction,Conductor*%
G36*
X70154854Y-75096545D02*
G01*
X70171572Y-75115838D01*
X70301505Y-75301401D01*
X70468599Y-75468495D01*
X70654160Y-75598426D01*
X70697783Y-75653002D01*
X70704976Y-75722501D01*
X70673454Y-75784855D01*
X70654158Y-75801575D01*
X70469408Y-75930939D01*
X70468595Y-75931508D01*
X70301505Y-76098598D01*
X70171575Y-76284159D01*
X70116998Y-76327784D01*
X70047500Y-76334978D01*
X69985145Y-76303455D01*
X69968425Y-76284159D01*
X69838494Y-76098598D01*
X69671401Y-75931505D01*
X69625660Y-75899477D01*
X69485839Y-75801573D01*
X69442216Y-75746998D01*
X69435022Y-75677500D01*
X69466545Y-75615145D01*
X69485837Y-75598428D01*
X69671401Y-75468495D01*
X69838495Y-75301401D01*
X69968427Y-75115838D01*
X70023001Y-75072216D01*
X70092499Y-75065022D01*
X70154854Y-75096545D01*
G37*
%TD.AperFunction*%
%TA.AperFunction,Conductor*%
G36*
X70155160Y-72556109D02*
G01*
X70171880Y-72575404D01*
X70301893Y-72761081D01*
X70468918Y-72928106D01*
X70654595Y-73058119D01*
X70698219Y-73112696D01*
X70705412Y-73182195D01*
X70673890Y-73244549D01*
X70654595Y-73261269D01*
X70468595Y-73391508D01*
X70301508Y-73558595D01*
X70171574Y-73744160D01*
X70116997Y-73787785D01*
X70047498Y-73794977D01*
X69985144Y-73763455D01*
X69968429Y-73744164D01*
X69838495Y-73558599D01*
X69671401Y-73391505D01*
X69485839Y-73261573D01*
X69442216Y-73206998D01*
X69435022Y-73137500D01*
X69466545Y-73075145D01*
X69485837Y-73058428D01*
X69671401Y-72928495D01*
X69838495Y-72761401D01*
X69968732Y-72575403D01*
X70023307Y-72531780D01*
X70092805Y-72524586D01*
X70155160Y-72556109D01*
G37*
%TD.AperFunction*%
%TA.AperFunction,Conductor*%
G36*
X70154855Y-70016545D02*
G01*
X70171571Y-70035837D01*
X70301505Y-70221401D01*
X70468599Y-70388495D01*
X70654596Y-70518732D01*
X70698219Y-70573307D01*
X70705412Y-70642806D01*
X70673890Y-70705160D01*
X70654595Y-70721880D01*
X70468919Y-70851892D01*
X70301893Y-71018918D01*
X70171880Y-71204596D01*
X70117303Y-71248220D01*
X70047804Y-71255413D01*
X69985450Y-71223891D01*
X69968730Y-71204595D01*
X69838495Y-71018599D01*
X69671401Y-70851505D01*
X69485839Y-70721573D01*
X69442216Y-70666998D01*
X69435022Y-70597500D01*
X69466545Y-70535145D01*
X69485837Y-70518428D01*
X69671401Y-70388495D01*
X69838495Y-70221401D01*
X69968426Y-70035839D01*
X70023002Y-69992216D01*
X70092500Y-69985022D01*
X70154855Y-70016545D01*
G37*
%TD.AperFunction*%
%TA.AperFunction,Conductor*%
G36*
X70154549Y-67476109D02*
G01*
X70171265Y-67495400D01*
X70301505Y-67681401D01*
X70468599Y-67848495D01*
X70654160Y-67978426D01*
X70697783Y-68033002D01*
X70704976Y-68102501D01*
X70673454Y-68164855D01*
X70654159Y-68181575D01*
X70468595Y-68311508D01*
X70301505Y-68478598D01*
X70171575Y-68664159D01*
X70116998Y-68707784D01*
X70047500Y-68714978D01*
X69985145Y-68683455D01*
X69968425Y-68664159D01*
X69878645Y-68535939D01*
X69838495Y-68478599D01*
X69671401Y-68311505D01*
X69485402Y-68181267D01*
X69441780Y-68126692D01*
X69434587Y-68057193D01*
X69466109Y-67994839D01*
X69485405Y-67978119D01*
X69671078Y-67848109D01*
X69838109Y-67681078D01*
X69968119Y-67495405D01*
X70022696Y-67451780D01*
X70092194Y-67444586D01*
X70154549Y-67476109D01*
G37*
%TD.AperFunction*%
%TA.AperFunction,Conductor*%
G36*
X70154855Y-64936545D02*
G01*
X70171571Y-64955837D01*
X70301505Y-65141401D01*
X70468599Y-65308495D01*
X70654160Y-65438426D01*
X70697783Y-65493002D01*
X70704976Y-65562501D01*
X70673454Y-65624855D01*
X70654159Y-65641575D01*
X70468595Y-65771508D01*
X70301508Y-65938595D01*
X70171269Y-66124596D01*
X70116692Y-66168220D01*
X70047193Y-66175413D01*
X69984839Y-66143891D01*
X69968119Y-66124595D01*
X69838109Y-65938921D01*
X69671081Y-65771893D01*
X69485404Y-65641880D01*
X69441780Y-65587303D01*
X69434587Y-65517804D01*
X69466109Y-65455450D01*
X69485399Y-65438734D01*
X69671401Y-65308495D01*
X69838495Y-65141401D01*
X69968426Y-64955839D01*
X70023002Y-64912216D01*
X70092500Y-64905022D01*
X70154855Y-64936545D01*
G37*
%TD.AperFunction*%
%TA.AperFunction,Conductor*%
G36*
X70155160Y-62396109D02*
G01*
X70171880Y-62415404D01*
X70301893Y-62601081D01*
X70468918Y-62768106D01*
X70654595Y-62898119D01*
X70698219Y-62952696D01*
X70705412Y-63022195D01*
X70673890Y-63084549D01*
X70654595Y-63101269D01*
X70468595Y-63231508D01*
X70301505Y-63398598D01*
X70171575Y-63584159D01*
X70116998Y-63627784D01*
X70047500Y-63634978D01*
X69985145Y-63603455D01*
X69968425Y-63584159D01*
X69838494Y-63398598D01*
X69671401Y-63231505D01*
X69623512Y-63197973D01*
X69485839Y-63101573D01*
X69442216Y-63046998D01*
X69435022Y-62977500D01*
X69466545Y-62915145D01*
X69485837Y-62898428D01*
X69671401Y-62768495D01*
X69838495Y-62601401D01*
X69968732Y-62415403D01*
X70023307Y-62371780D01*
X70092805Y-62364586D01*
X70155160Y-62396109D01*
G37*
%TD.AperFunction*%
%TA.AperFunction,Conductor*%
G36*
X70882901Y-48251527D02*
G01*
X71003671Y-48270655D01*
X71049881Y-48278506D01*
X71172272Y-48299301D01*
X71183582Y-48301771D01*
X71338829Y-48343370D01*
X71499120Y-48389549D01*
X71509178Y-48392922D01*
X71659959Y-48450801D01*
X71662950Y-48451995D01*
X71814219Y-48514652D01*
X71823013Y-48518706D01*
X71967831Y-48592494D01*
X71971406Y-48594392D01*
X72100594Y-48665792D01*
X72113889Y-48673140D01*
X72121442Y-48677672D01*
X72258119Y-48766431D01*
X72262339Y-48769297D01*
X72394636Y-48863167D01*
X72400908Y-48867923D01*
X72527803Y-48970681D01*
X72532368Y-48974566D01*
X72642799Y-49073253D01*
X72653161Y-49082513D01*
X72658215Y-49087291D01*
X72773707Y-49202783D01*
X72778485Y-49207837D01*
X72886422Y-49328618D01*
X72890324Y-49333203D01*
X72929567Y-49381664D01*
X72993068Y-49460081D01*
X72997831Y-49466362D01*
X73091701Y-49598659D01*
X73094567Y-49602879D01*
X73183326Y-49739556D01*
X73187858Y-49747109D01*
X73266588Y-49889559D01*
X73268528Y-49893212D01*
X73342282Y-50037964D01*
X73346353Y-50046795D01*
X73409003Y-50198048D01*
X73410206Y-50201062D01*
X73468066Y-50351792D01*
X73471456Y-50361902D01*
X73517632Y-50522181D01*
X73559228Y-50677420D01*
X73561697Y-50688726D01*
X73590344Y-50857326D01*
X73614684Y-51011005D01*
X73616015Y-51023444D01*
X73626912Y-51217470D01*
X73633730Y-51347557D01*
X73633900Y-51354046D01*
X73633900Y-110286700D01*
X73633565Y-110287839D01*
X73633873Y-110326345D01*
X73633756Y-110332818D01*
X73628008Y-110462683D01*
X73619251Y-110645019D01*
X73618011Y-110657540D01*
X73595430Y-110807450D01*
X73569354Y-110968229D01*
X73566951Y-110979625D01*
X73527639Y-111130562D01*
X73484561Y-111284071D01*
X73481225Y-111294241D01*
X73426130Y-111440583D01*
X73424940Y-111443622D01*
X73365892Y-111588759D01*
X73361848Y-111597674D01*
X73291345Y-111738081D01*
X73289399Y-111741799D01*
X73214749Y-111878705D01*
X73210235Y-111886323D01*
X73125122Y-112018928D01*
X73122262Y-112023186D01*
X73032929Y-112150460D01*
X73028172Y-112156797D01*
X72929490Y-112279855D01*
X72925583Y-112284490D01*
X72822566Y-112400815D01*
X72817785Y-112405917D01*
X72706683Y-112517957D01*
X72701621Y-112522781D01*
X72586161Y-112626776D01*
X72581561Y-112630721D01*
X72459375Y-112730405D01*
X72453076Y-112735217D01*
X72326423Y-112825711D01*
X72322191Y-112828604D01*
X72190491Y-112914710D01*
X72182909Y-112919290D01*
X72046359Y-112995240D01*
X72042659Y-112997216D01*
X71903152Y-113068743D01*
X71894271Y-113072862D01*
X71749127Y-113133339D01*
X71746099Y-113134554D01*
X71600772Y-113190668D01*
X71590612Y-113194094D01*
X71436611Y-113238710D01*
X71286901Y-113279049D01*
X71275538Y-113281544D01*
X71113340Y-113309253D01*
X70965275Y-113332831D01*
X70952771Y-113334176D01*
X70769035Y-113344549D01*
X70765248Y-113344763D01*
X70640922Y-113351314D01*
X70634406Y-113351486D01*
X67131901Y-113351700D01*
X57624000Y-113351700D01*
X57556961Y-113332015D01*
X57511206Y-113279211D01*
X57500000Y-113227700D01*
X57500000Y-112369518D01*
X59375000Y-112369518D01*
X59375354Y-112376132D01*
X59381400Y-112432371D01*
X59431647Y-112567089D01*
X59517811Y-112682188D01*
X59632910Y-112768352D01*
X59767628Y-112818599D01*
X59823867Y-112824645D01*
X59830482Y-112825000D01*
X60475000Y-112825000D01*
X60475000Y-111910501D01*
X60582685Y-111959680D01*
X60689237Y-111975000D01*
X60760763Y-111975000D01*
X60867315Y-111959680D01*
X60975000Y-111910501D01*
X60975000Y-112825000D01*
X61619518Y-112825000D01*
X61626132Y-112824645D01*
X61682371Y-112818599D01*
X61817089Y-112768352D01*
X61932188Y-112682188D01*
X62018352Y-112567089D01*
X62068599Y-112432371D01*
X62074645Y-112376132D01*
X62075000Y-112369518D01*
X62075000Y-111725000D01*
X61158686Y-111725000D01*
X61184493Y-111684844D01*
X61225000Y-111546889D01*
X61225000Y-111403111D01*
X61184493Y-111265156D01*
X61158686Y-111225000D01*
X62075000Y-111225000D01*
X62075000Y-110580481D01*
X62074645Y-110573867D01*
X62068599Y-110517628D01*
X62018352Y-110382910D01*
X61932188Y-110267811D01*
X61817089Y-110181647D01*
X61682371Y-110131400D01*
X61626132Y-110125354D01*
X61619518Y-110125000D01*
X60975000Y-110125000D01*
X60975000Y-111039498D01*
X60867315Y-110990320D01*
X60760763Y-110975000D01*
X60689237Y-110975000D01*
X60582685Y-110990320D01*
X60475000Y-111039498D01*
X60475000Y-110125000D01*
X59830482Y-110125000D01*
X59823867Y-110125354D01*
X59767628Y-110131400D01*
X59632910Y-110181647D01*
X59517811Y-110267811D01*
X59431647Y-110382910D01*
X59381400Y-110517628D01*
X59375354Y-110573867D01*
X59375000Y-110580481D01*
X59375000Y-111225000D01*
X60291314Y-111225000D01*
X60265507Y-111265156D01*
X60225000Y-111403111D01*
X60225000Y-111546889D01*
X60265507Y-111684844D01*
X60291314Y-111725000D01*
X59375000Y-111725000D01*
X59375000Y-112369518D01*
X57500000Y-112369518D01*
X57500000Y-109778800D01*
X68473151Y-109778800D01*
X68492917Y-110029949D01*
X68551726Y-110274910D01*
X68596461Y-110382910D01*
X68648134Y-110507659D01*
X68779764Y-110722459D01*
X68943376Y-110914024D01*
X69134941Y-111077636D01*
X69349741Y-111209266D01*
X69582489Y-111305673D01*
X69827452Y-111364483D01*
X70015718Y-111379300D01*
X70018163Y-111379300D01*
X70139037Y-111379300D01*
X70141482Y-111379300D01*
X70329748Y-111364483D01*
X70574711Y-111305673D01*
X70807459Y-111209266D01*
X71022259Y-111077636D01*
X71213824Y-110914024D01*
X71377436Y-110722459D01*
X71509066Y-110507659D01*
X71605473Y-110274911D01*
X71664283Y-110029948D01*
X71684049Y-109778800D01*
X71664283Y-109527652D01*
X71605473Y-109282689D01*
X71509066Y-109049941D01*
X71377436Y-108835141D01*
X71213824Y-108643576D01*
X71022259Y-108479964D01*
X70807459Y-108348334D01*
X70691085Y-108300130D01*
X70574710Y-108251926D01*
X70329749Y-108193117D01*
X70143916Y-108178491D01*
X70143901Y-108178490D01*
X70141482Y-108178300D01*
X70015718Y-108178300D01*
X70013299Y-108178490D01*
X70013283Y-108178491D01*
X69827450Y-108193117D01*
X69582489Y-108251926D01*
X69349739Y-108348335D01*
X69134942Y-108479963D01*
X68943376Y-108643576D01*
X68779763Y-108835142D01*
X68648135Y-109049939D01*
X68551726Y-109282689D01*
X68492917Y-109527650D01*
X68473151Y-109778800D01*
X57500000Y-109778800D01*
X57500000Y-101448145D01*
X57501262Y-101430498D01*
X57505647Y-101399999D01*
X57505647Y-99902215D01*
X57505647Y-99902214D01*
X57505647Y-99900000D01*
X57500500Y-99828039D01*
X57500316Y-99825466D01*
X57500000Y-99816620D01*
X57500000Y-97274578D01*
X57799500Y-97274578D01*
X57799501Y-97277872D01*
X57799853Y-97281152D01*
X57799854Y-97281159D01*
X57805600Y-97334610D01*
X57805909Y-97337483D01*
X57856204Y-97472331D01*
X57942454Y-97587546D01*
X58057669Y-97673796D01*
X58192517Y-97724091D01*
X58252127Y-97730500D01*
X61347872Y-97730499D01*
X61407483Y-97724091D01*
X61542331Y-97673796D01*
X61657546Y-97587546D01*
X61743796Y-97472331D01*
X61794091Y-97337483D01*
X61800500Y-97277873D01*
X61800499Y-95642128D01*
X61794091Y-95582517D01*
X61743796Y-95447669D01*
X61657546Y-95332454D01*
X61542331Y-95246204D01*
X61407483Y-95195909D01*
X61347873Y-95189500D01*
X61344550Y-95189500D01*
X58255439Y-95189500D01*
X58255420Y-95189500D01*
X58252128Y-95189501D01*
X58248848Y-95189853D01*
X58248840Y-95189854D01*
X58192515Y-95195909D01*
X58057669Y-95246204D01*
X57942454Y-95332454D01*
X57856204Y-95447668D01*
X57805910Y-95582515D01*
X57805909Y-95582517D01*
X57799500Y-95642127D01*
X57799500Y-95645448D01*
X57799500Y-95645449D01*
X57799500Y-97274560D01*
X57799500Y-97274578D01*
X57500000Y-97274578D01*
X57500000Y-95289738D01*
X57519685Y-95222699D01*
X57523097Y-95217664D01*
X57864339Y-94739926D01*
X57919323Y-94696816D01*
X57965242Y-94688000D01*
X61947912Y-94688000D01*
X62014951Y-94707685D01*
X62053451Y-94746904D01*
X62082288Y-94793657D01*
X62206342Y-94917711D01*
X62206344Y-94917712D01*
X62355666Y-95009814D01*
X62467016Y-95046712D01*
X62522202Y-95064999D01*
X62621858Y-95075180D01*
X62621859Y-95075180D01*
X62624991Y-95075500D01*
X63625008Y-95075499D01*
X63727797Y-95064999D01*
X63894334Y-95009814D01*
X64043656Y-94917712D01*
X64167712Y-94793656D01*
X64259814Y-94644334D01*
X64314999Y-94477797D01*
X64325500Y-94375009D01*
X64325499Y-93749992D01*
X64314999Y-93647203D01*
X64259814Y-93480666D01*
X64196549Y-93378096D01*
X64167713Y-93331345D01*
X64149368Y-93313000D01*
X64074047Y-93237679D01*
X64040564Y-93176359D01*
X64045548Y-93106667D01*
X64074047Y-93062320D01*
X64167712Y-92968656D01*
X64259814Y-92819334D01*
X64314999Y-92652797D01*
X64325500Y-92550009D01*
X64325499Y-91924992D01*
X64314999Y-91822203D01*
X64259814Y-91655666D01*
X64167712Y-91506344D01*
X64167711Y-91506342D01*
X64043657Y-91382288D01*
X63894334Y-91290186D01*
X63835496Y-91270689D01*
X63778051Y-91230916D01*
X63751228Y-91166400D01*
X63750500Y-91152983D01*
X63750500Y-89123143D01*
X63752764Y-89102639D01*
X63750561Y-89032526D01*
X63750500Y-89028631D01*
X63750500Y-89004940D01*
X63750500Y-89001050D01*
X63749998Y-88997077D01*
X63749080Y-88985418D01*
X63749027Y-88983732D01*
X63747709Y-88941773D01*
X63742120Y-88922540D01*
X63738174Y-88903482D01*
X63735664Y-88883606D01*
X63719588Y-88843004D01*
X63715804Y-88831953D01*
X63706113Y-88798598D01*
X63703618Y-88790010D01*
X63693414Y-88772755D01*
X63684861Y-88755295D01*
X63677486Y-88736669D01*
X63677486Y-88736668D01*
X63651808Y-88701325D01*
X63645401Y-88691571D01*
X63635444Y-88674735D01*
X63623170Y-88653980D01*
X63609006Y-88639816D01*
X63596367Y-88625017D01*
X63584595Y-88608813D01*
X63550941Y-88580973D01*
X63542299Y-88573109D01*
X62563418Y-87594227D01*
X62529933Y-87532904D01*
X62527099Y-87506546D01*
X62527099Y-86920140D01*
X62527099Y-86916992D01*
X62516599Y-86814203D01*
X62491143Y-86737382D01*
X62488741Y-86667554D01*
X62524473Y-86607512D01*
X62534529Y-86599119D01*
X62634146Y-86524546D01*
X62720396Y-86409331D01*
X62770691Y-86274483D01*
X62777100Y-86214873D01*
X62777099Y-84819128D01*
X62770691Y-84759517D01*
X62720396Y-84624669D01*
X62634146Y-84509454D01*
X62518931Y-84423204D01*
X62384083Y-84372909D01*
X62332416Y-84367354D01*
X62327766Y-84366854D01*
X62327765Y-84366853D01*
X62324473Y-84366500D01*
X62321150Y-84366500D01*
X61432039Y-84366500D01*
X61432020Y-84366500D01*
X61428728Y-84366501D01*
X61425448Y-84366853D01*
X61425440Y-84366854D01*
X61369114Y-84372909D01*
X61279932Y-84406172D01*
X61210241Y-84411156D01*
X61193267Y-84406172D01*
X61104084Y-84372909D01*
X61047766Y-84366854D01*
X61047765Y-84366853D01*
X61044473Y-84366500D01*
X61041150Y-84366500D01*
X60152039Y-84366500D01*
X60152020Y-84366500D01*
X60148728Y-84366501D01*
X60145448Y-84366853D01*
X60145440Y-84366854D01*
X60089116Y-84372909D01*
X60009216Y-84402709D01*
X59939525Y-84407692D01*
X59922553Y-84402708D01*
X59843975Y-84373401D01*
X59787732Y-84367354D01*
X59781118Y-84367000D01*
X59586600Y-84367000D01*
X59586600Y-85643000D01*
X59566915Y-85710039D01*
X59514111Y-85755794D01*
X59462600Y-85767000D01*
X59210600Y-85767000D01*
X59143561Y-85747315D01*
X59097806Y-85694511D01*
X59086600Y-85643000D01*
X59086600Y-84367000D01*
X58892082Y-84367000D01*
X58882150Y-84367532D01*
X58887080Y-84367135D01*
X58818480Y-84354750D01*
X58767349Y-84307132D01*
X58750000Y-84243876D01*
X58750000Y-83250000D01*
X56808280Y-82036425D01*
X56761864Y-81984201D01*
X56750000Y-81931273D01*
X56750000Y-80491499D01*
X56769685Y-80424460D01*
X56822489Y-80378705D01*
X56874000Y-80367499D01*
X57231161Y-80367499D01*
X57234472Y-80367499D01*
X57294083Y-80361091D01*
X57383982Y-80327560D01*
X57453670Y-80322576D01*
X57470647Y-80327560D01*
X57559223Y-80360597D01*
X57615485Y-80366646D01*
X57622082Y-80367000D01*
X57816600Y-80367000D01*
X58316600Y-80367000D01*
X58511118Y-80367000D01*
X58517714Y-80366646D01*
X58573978Y-80360597D01*
X58657550Y-80329426D01*
X58727242Y-80324440D01*
X58744219Y-80329426D01*
X58829112Y-80361090D01*
X58829115Y-80361090D01*
X58829117Y-80361091D01*
X58888727Y-80367500D01*
X59111146Y-80367499D01*
X59178186Y-80387183D01*
X59198827Y-80403818D01*
X66513182Y-87718172D01*
X66546666Y-87779493D01*
X66549500Y-87805851D01*
X66549500Y-99783957D01*
X66547235Y-99804467D01*
X66549439Y-99874573D01*
X66549500Y-99878468D01*
X66549500Y-99906051D01*
X66549988Y-99909920D01*
X66549989Y-99909926D01*
X66550004Y-99910044D01*
X66550918Y-99921668D01*
X66552290Y-99965327D01*
X66557879Y-99984561D01*
X66561825Y-100003617D01*
X66564335Y-100023493D01*
X66580414Y-100064105D01*
X66584197Y-100075152D01*
X66596382Y-100117092D01*
X66606580Y-100134336D01*
X66615136Y-100151801D01*
X66622514Y-100170433D01*
X66622515Y-100170434D01*
X66648180Y-100205760D01*
X66654593Y-100215523D01*
X66676826Y-100253117D01*
X66676829Y-100253120D01*
X66676830Y-100253121D01*
X66690995Y-100267286D01*
X66703627Y-100282076D01*
X66715406Y-100298288D01*
X66749058Y-100326127D01*
X66757699Y-100333990D01*
X67754224Y-101330515D01*
X67787709Y-101391838D01*
X67782725Y-101461530D01*
X67765612Y-101488231D01*
X67767727Y-101489712D01*
X67625965Y-101692170D01*
X67526097Y-101906336D01*
X67464936Y-102134592D01*
X67444340Y-102369999D01*
X67464936Y-102605407D01*
X67509709Y-102772502D01*
X67526097Y-102833663D01*
X67625965Y-103047830D01*
X67761505Y-103241401D01*
X67928599Y-103408495D01*
X68114596Y-103538732D01*
X68158219Y-103593307D01*
X68165412Y-103662806D01*
X68133890Y-103725160D01*
X68114595Y-103741880D01*
X67928919Y-103871892D01*
X67761890Y-104038921D01*
X67626400Y-104232421D01*
X67526569Y-104446507D01*
X67469364Y-104659999D01*
X67469364Y-104660000D01*
X68366314Y-104660000D01*
X68340507Y-104700156D01*
X68300000Y-104838111D01*
X68300000Y-104981889D01*
X68340507Y-105119844D01*
X68366314Y-105160000D01*
X67469364Y-105160000D01*
X67526569Y-105373492D01*
X67626399Y-105587576D01*
X67761893Y-105781081D01*
X67928918Y-105948106D01*
X68122423Y-106083600D01*
X68336509Y-106183430D01*
X68550000Y-106240634D01*
X68550000Y-105345501D01*
X68657685Y-105394680D01*
X68764237Y-105410000D01*
X68835763Y-105410000D01*
X68942315Y-105394680D01*
X69050000Y-105345501D01*
X69050000Y-106240633D01*
X69263490Y-106183430D01*
X69477576Y-106083600D01*
X69671081Y-105948106D01*
X69838109Y-105781078D01*
X69968119Y-105595405D01*
X70022696Y-105551780D01*
X70092194Y-105544586D01*
X70154549Y-105576109D01*
X70171265Y-105595400D01*
X70301505Y-105781401D01*
X70468599Y-105948495D01*
X70662170Y-106084035D01*
X70876337Y-106183903D01*
X71088059Y-106240633D01*
X71104592Y-106245063D01*
X71339999Y-106265659D01*
X71339999Y-106265658D01*
X71340000Y-106265659D01*
X71575408Y-106245063D01*
X71803663Y-106183903D01*
X72017830Y-106084035D01*
X72211401Y-105948495D01*
X72378495Y-105781401D01*
X72514035Y-105587830D01*
X72613903Y-105373663D01*
X72675063Y-105145408D01*
X72695659Y-104910000D01*
X72675063Y-104674592D01*
X72613903Y-104446337D01*
X72514035Y-104232171D01*
X72378495Y-104038599D01*
X72211401Y-103871505D01*
X72025839Y-103741573D01*
X71982216Y-103686998D01*
X71975022Y-103617500D01*
X72006545Y-103555145D01*
X72025837Y-103538428D01*
X72211401Y-103408495D01*
X72378495Y-103241401D01*
X72514035Y-103047830D01*
X72613903Y-102833663D01*
X72675063Y-102605408D01*
X72695659Y-102370000D01*
X72675063Y-102134592D01*
X72613903Y-101906337D01*
X72514035Y-101692171D01*
X72378495Y-101498599D01*
X72211401Y-101331505D01*
X72025839Y-101201573D01*
X71982216Y-101146998D01*
X71975022Y-101077500D01*
X72006545Y-101015145D01*
X72025837Y-100998428D01*
X72211401Y-100868495D01*
X72378495Y-100701401D01*
X72514035Y-100507830D01*
X72613903Y-100293663D01*
X72675063Y-100065408D01*
X72695659Y-99830000D01*
X72675063Y-99594592D01*
X72613903Y-99366337D01*
X72514035Y-99152171D01*
X72378495Y-98958599D01*
X72211401Y-98791505D01*
X72025402Y-98661267D01*
X71981780Y-98606692D01*
X71974587Y-98537193D01*
X72006109Y-98474839D01*
X72025405Y-98458119D01*
X72211078Y-98328109D01*
X72378106Y-98161081D01*
X72513600Y-97967576D01*
X72613430Y-97753492D01*
X72670636Y-97540000D01*
X71773686Y-97540000D01*
X71799493Y-97499844D01*
X71840000Y-97361889D01*
X71840000Y-97218111D01*
X71799493Y-97080156D01*
X71773686Y-97040000D01*
X72670636Y-97040000D01*
X72670635Y-97039999D01*
X72613430Y-96826507D01*
X72513599Y-96612421D01*
X72378109Y-96418921D01*
X72211081Y-96251893D01*
X72025404Y-96121880D01*
X71981780Y-96067303D01*
X71974587Y-95997804D01*
X72006109Y-95935450D01*
X72025399Y-95918734D01*
X72211401Y-95788495D01*
X72378495Y-95621401D01*
X72514035Y-95427830D01*
X72613903Y-95213663D01*
X72675063Y-94985408D01*
X72695659Y-94750000D01*
X72675063Y-94514592D01*
X72613903Y-94286337D01*
X72514035Y-94072171D01*
X72378495Y-93878599D01*
X72211401Y-93711505D01*
X72025402Y-93581267D01*
X71981780Y-93526692D01*
X71974587Y-93457193D01*
X72006109Y-93394839D01*
X72025405Y-93378119D01*
X72211078Y-93248109D01*
X72378106Y-93081081D01*
X72513600Y-92887576D01*
X72613430Y-92673492D01*
X72670636Y-92460000D01*
X71773686Y-92460000D01*
X71799493Y-92419844D01*
X71840000Y-92281889D01*
X71840000Y-92138111D01*
X71799493Y-92000156D01*
X71773686Y-91960000D01*
X72670636Y-91960000D01*
X72670635Y-91959999D01*
X72613430Y-91746507D01*
X72513599Y-91532421D01*
X72378109Y-91338921D01*
X72211081Y-91171893D01*
X72025404Y-91041880D01*
X71981780Y-90987303D01*
X71974587Y-90917804D01*
X72006109Y-90855450D01*
X72025399Y-90838734D01*
X72211401Y-90708495D01*
X72378495Y-90541401D01*
X72514035Y-90347830D01*
X72613903Y-90133663D01*
X72675063Y-89905408D01*
X72695659Y-89670000D01*
X72675063Y-89434592D01*
X72613903Y-89206337D01*
X72514035Y-88992171D01*
X72378495Y-88798599D01*
X72211401Y-88631505D01*
X72025839Y-88501573D01*
X71982216Y-88446998D01*
X71975022Y-88377500D01*
X72006545Y-88315145D01*
X72025837Y-88298428D01*
X72211401Y-88168495D01*
X72378495Y-88001401D01*
X72514035Y-87807830D01*
X72613903Y-87593663D01*
X72675063Y-87365408D01*
X72695659Y-87130000D01*
X72675063Y-86894592D01*
X72613903Y-86666337D01*
X72514035Y-86452171D01*
X72378495Y-86258599D01*
X72211401Y-86091505D01*
X72025839Y-85961573D01*
X71982216Y-85906998D01*
X71975022Y-85837500D01*
X72006545Y-85775145D01*
X72025837Y-85758428D01*
X72211401Y-85628495D01*
X72378495Y-85461401D01*
X72514035Y-85267830D01*
X72613903Y-85053663D01*
X72675063Y-84825408D01*
X72695659Y-84590000D01*
X72675063Y-84354592D01*
X72613903Y-84126337D01*
X72514035Y-83912171D01*
X72378495Y-83718599D01*
X72211401Y-83551505D01*
X72025839Y-83421573D01*
X71982216Y-83366998D01*
X71975022Y-83297500D01*
X72006545Y-83235145D01*
X72025837Y-83218428D01*
X72211401Y-83088495D01*
X72378495Y-82921401D01*
X72514035Y-82727830D01*
X72613903Y-82513663D01*
X72675063Y-82285408D01*
X72695659Y-82050000D01*
X72689348Y-81977872D01*
X72675063Y-81814592D01*
X72675062Y-81814592D01*
X72613903Y-81586337D01*
X72514035Y-81372171D01*
X72378495Y-81178599D01*
X72211401Y-81011505D01*
X72025402Y-80881267D01*
X71981780Y-80826692D01*
X71974587Y-80757193D01*
X72006109Y-80694839D01*
X72025405Y-80678119D01*
X72211078Y-80548109D01*
X72378106Y-80381081D01*
X72513600Y-80187576D01*
X72613430Y-79973492D01*
X72670636Y-79760000D01*
X71773686Y-79760000D01*
X71799493Y-79719844D01*
X71840000Y-79581889D01*
X71840000Y-79438111D01*
X71799493Y-79300156D01*
X71773686Y-79260000D01*
X72670636Y-79260000D01*
X72670635Y-79259999D01*
X72613430Y-79046507D01*
X72513599Y-78832421D01*
X72378109Y-78638921D01*
X72211081Y-78471893D01*
X72025404Y-78341880D01*
X71981780Y-78287303D01*
X71974587Y-78217804D01*
X72006109Y-78155450D01*
X72025399Y-78138734D01*
X72211401Y-78008495D01*
X72378495Y-77841401D01*
X72514035Y-77647830D01*
X72613903Y-77433663D01*
X72675063Y-77205408D01*
X72695659Y-76970000D01*
X72675063Y-76734592D01*
X72613903Y-76506337D01*
X72514035Y-76292171D01*
X72378495Y-76098599D01*
X72211401Y-75931505D01*
X72025839Y-75801573D01*
X71982216Y-75746998D01*
X71975022Y-75677500D01*
X72006545Y-75615145D01*
X72025837Y-75598428D01*
X72211401Y-75468495D01*
X72378495Y-75301401D01*
X72514035Y-75107830D01*
X72613903Y-74893663D01*
X72675063Y-74665408D01*
X72695659Y-74430000D01*
X72675063Y-74194592D01*
X72613903Y-73966337D01*
X72514035Y-73752171D01*
X72378495Y-73558599D01*
X72211401Y-73391505D01*
X72025402Y-73261267D01*
X71981780Y-73206692D01*
X71974587Y-73137193D01*
X72006109Y-73074839D01*
X72025405Y-73058119D01*
X72211078Y-72928109D01*
X72378106Y-72761081D01*
X72513600Y-72567576D01*
X72613430Y-72353492D01*
X72670636Y-72140000D01*
X71773686Y-72140000D01*
X71799493Y-72099844D01*
X71840000Y-71961889D01*
X71840000Y-71818111D01*
X71799493Y-71680156D01*
X71773686Y-71640000D01*
X72670636Y-71640000D01*
X72670635Y-71639999D01*
X72613430Y-71426507D01*
X72513599Y-71212421D01*
X72378109Y-71018921D01*
X72211081Y-70851893D01*
X72025404Y-70721880D01*
X71981780Y-70667303D01*
X71974587Y-70597804D01*
X72006109Y-70535450D01*
X72025399Y-70518734D01*
X72211401Y-70388495D01*
X72378495Y-70221401D01*
X72514035Y-70027830D01*
X72613903Y-69813663D01*
X72675063Y-69585408D01*
X72695659Y-69350000D01*
X72675063Y-69114592D01*
X72613903Y-68886337D01*
X72514035Y-68672171D01*
X72378495Y-68478599D01*
X72211401Y-68311505D01*
X72025839Y-68181573D01*
X71982216Y-68126998D01*
X71975022Y-68057500D01*
X72006545Y-67995145D01*
X72025837Y-67978428D01*
X72211401Y-67848495D01*
X72378495Y-67681401D01*
X72514035Y-67487830D01*
X72613903Y-67273663D01*
X72675063Y-67045408D01*
X72695659Y-66810000D01*
X72675063Y-66574592D01*
X72613903Y-66346337D01*
X72514035Y-66132171D01*
X72378495Y-65938599D01*
X72211401Y-65771505D01*
X72025839Y-65641573D01*
X71982217Y-65586998D01*
X71975024Y-65517499D01*
X72006546Y-65455145D01*
X72025837Y-65438428D01*
X72211401Y-65308495D01*
X72378495Y-65141401D01*
X72514035Y-64947830D01*
X72613903Y-64733663D01*
X72675063Y-64505408D01*
X72695659Y-64270000D01*
X72675063Y-64034592D01*
X72613903Y-63806337D01*
X72514035Y-63592171D01*
X72378495Y-63398599D01*
X72211401Y-63231505D01*
X72025402Y-63101267D01*
X71981780Y-63046692D01*
X71974587Y-62977193D01*
X72006109Y-62914839D01*
X72025405Y-62898119D01*
X72211078Y-62768109D01*
X72378106Y-62601081D01*
X72513600Y-62407576D01*
X72613430Y-62193492D01*
X72670636Y-61980000D01*
X71773686Y-61980000D01*
X71799493Y-61939844D01*
X71840000Y-61801889D01*
X71840000Y-61658111D01*
X71799493Y-61520156D01*
X71773686Y-61480000D01*
X72670636Y-61480000D01*
X72670635Y-61479999D01*
X72613430Y-61266507D01*
X72513599Y-61052421D01*
X72378109Y-60858921D01*
X72211081Y-60691893D01*
X72025404Y-60561880D01*
X71981780Y-60507303D01*
X71974587Y-60437804D01*
X72006109Y-60375450D01*
X72025399Y-60358734D01*
X72211401Y-60228495D01*
X72378495Y-60061401D01*
X72514035Y-59867830D01*
X72613903Y-59653663D01*
X72675063Y-59425408D01*
X72695659Y-59190000D01*
X72675063Y-58954592D01*
X72613903Y-58726337D01*
X72514035Y-58512171D01*
X72378495Y-58318599D01*
X72211401Y-58151505D01*
X72025839Y-58021573D01*
X71982217Y-57966998D01*
X71975024Y-57897499D01*
X72006546Y-57835145D01*
X72025837Y-57818428D01*
X72211401Y-57688495D01*
X72378495Y-57521401D01*
X72514035Y-57327830D01*
X72613903Y-57113663D01*
X72675063Y-56885408D01*
X72695659Y-56650000D01*
X72675063Y-56414592D01*
X72613903Y-56186337D01*
X72514035Y-55972171D01*
X72378495Y-55778599D01*
X72211401Y-55611505D01*
X72017830Y-55475965D01*
X71803663Y-55376097D01*
X71742501Y-55359709D01*
X71575407Y-55314936D01*
X71340000Y-55294340D01*
X71104592Y-55314936D01*
X70876336Y-55376097D01*
X70662170Y-55475965D01*
X70468601Y-55611503D01*
X70346673Y-55733431D01*
X70285350Y-55766915D01*
X70215658Y-55761931D01*
X70159725Y-55720059D01*
X70142810Y-55689082D01*
X70135658Y-55669907D01*
X70093796Y-55557669D01*
X70007546Y-55442454D01*
X69892331Y-55356204D01*
X69757483Y-55305909D01*
X69697873Y-55299500D01*
X69694550Y-55299500D01*
X67905439Y-55299500D01*
X67905420Y-55299500D01*
X67902128Y-55299501D01*
X67898848Y-55299853D01*
X67898840Y-55299854D01*
X67842515Y-55305909D01*
X67707669Y-55356204D01*
X67592454Y-55442454D01*
X67506204Y-55557668D01*
X67506203Y-55557669D01*
X67506204Y-55557669D01*
X67455909Y-55692517D01*
X67449500Y-55752127D01*
X67449500Y-55755448D01*
X67449500Y-55755449D01*
X67449500Y-57544560D01*
X67449500Y-57544578D01*
X67449501Y-57547872D01*
X67449853Y-57551152D01*
X67449854Y-57551159D01*
X67455909Y-57607484D01*
X67481056Y-57674906D01*
X67506204Y-57742331D01*
X67592454Y-57857546D01*
X67707669Y-57943796D01*
X67819907Y-57985658D01*
X67839082Y-57992810D01*
X67895016Y-58034681D01*
X67919433Y-58100146D01*
X67904581Y-58168419D01*
X67883431Y-58196673D01*
X67761503Y-58318601D01*
X67625965Y-58512170D01*
X67526097Y-58726336D01*
X67464936Y-58954592D01*
X67444340Y-59190000D01*
X67464936Y-59425407D01*
X67526097Y-59653662D01*
X67572463Y-59753095D01*
X67582955Y-59822173D01*
X67554435Y-59885957D01*
X67495959Y-59924196D01*
X67460081Y-59929500D01*
X64262741Y-59929500D01*
X64242237Y-59927236D01*
X64172145Y-59929439D01*
X64168251Y-59929500D01*
X64140650Y-59929500D01*
X64136799Y-59929986D01*
X64136768Y-59929988D01*
X64136640Y-59930005D01*
X64125028Y-59930918D01*
X64081368Y-59932290D01*
X64062128Y-59937880D01*
X64043081Y-59941825D01*
X64023209Y-59944335D01*
X63982599Y-59960413D01*
X63971554Y-59964194D01*
X63929611Y-59976380D01*
X63912369Y-59986578D01*
X63894897Y-59995138D01*
X63876266Y-60002514D01*
X63840938Y-60028181D01*
X63831180Y-60034591D01*
X63793579Y-60056829D01*
X63779410Y-60070998D01*
X63764622Y-60083628D01*
X63748413Y-60095405D01*
X63720572Y-60129058D01*
X63712711Y-60137696D01*
X61445474Y-62404933D01*
X61384151Y-62438418D01*
X61378179Y-62439565D01*
X58935140Y-62846738D01*
X58935130Y-62846740D01*
X58930950Y-62847437D01*
X58926896Y-62848701D01*
X58926894Y-62848702D01*
X58834819Y-62877423D01*
X58714620Y-62956581D01*
X58621593Y-63066397D01*
X58563273Y-63197973D01*
X58550083Y-63293496D01*
X58550082Y-63293509D01*
X58549500Y-63297725D01*
X58549499Y-63301970D01*
X58549499Y-63301985D01*
X58549499Y-64034592D01*
X58549499Y-64472276D01*
X58550080Y-64476486D01*
X58550081Y-64476495D01*
X58563273Y-64572024D01*
X58621595Y-64703605D01*
X58714619Y-64813416D01*
X58714621Y-64813417D01*
X58714622Y-64813418D01*
X58834820Y-64892577D01*
X58930949Y-64922562D01*
X62633534Y-65539660D01*
X62644350Y-65540615D01*
X62644350Y-65540614D01*
X62644351Y-65540615D01*
X62715688Y-65531170D01*
X62787027Y-65521726D01*
X62918603Y-65463406D01*
X63028419Y-65370378D01*
X63107577Y-65250180D01*
X63149665Y-65112549D01*
X63150500Y-65101724D01*
X63150500Y-62668277D01*
X63149665Y-62657451D01*
X63149665Y-62657449D01*
X63127539Y-62585097D01*
X63126758Y-62515231D01*
X63158437Y-62461153D01*
X64402772Y-61216819D01*
X64464095Y-61183334D01*
X64490453Y-61180500D01*
X67387497Y-61180500D01*
X67454536Y-61200185D01*
X67500291Y-61252989D01*
X67510235Y-61322147D01*
X67507272Y-61336593D01*
X67464936Y-61494592D01*
X67444340Y-61730000D01*
X67464936Y-61965407D01*
X67490496Y-62060798D01*
X67526097Y-62193663D01*
X67625965Y-62407830D01*
X67761505Y-62601401D01*
X67928599Y-62768495D01*
X68114160Y-62898426D01*
X68157783Y-62953002D01*
X68164976Y-63022501D01*
X68133454Y-63084855D01*
X68114159Y-63101575D01*
X67928595Y-63231508D01*
X67761505Y-63398598D01*
X67625965Y-63592170D01*
X67526097Y-63806336D01*
X67464936Y-64034592D01*
X67444340Y-64269999D01*
X67464936Y-64505407D01*
X67482786Y-64572024D01*
X67526097Y-64733663D01*
X67625965Y-64947830D01*
X67761505Y-65141401D01*
X67928599Y-65308495D01*
X68114596Y-65438732D01*
X68158219Y-65493307D01*
X68165412Y-65562806D01*
X68133890Y-65625160D01*
X68114595Y-65641880D01*
X67928919Y-65771892D01*
X67761890Y-65938921D01*
X67626400Y-66132421D01*
X67526569Y-66346507D01*
X67469364Y-66559999D01*
X67469364Y-66560000D01*
X68366314Y-66560000D01*
X68340507Y-66600156D01*
X68300000Y-66738111D01*
X68300000Y-66881889D01*
X68340507Y-67019844D01*
X68366314Y-67060000D01*
X67469364Y-67060000D01*
X67526569Y-67273492D01*
X67626399Y-67487576D01*
X67761893Y-67681081D01*
X67928918Y-67848106D01*
X68114595Y-67978119D01*
X68158219Y-68032696D01*
X68165412Y-68102195D01*
X68133890Y-68164549D01*
X68114595Y-68181269D01*
X67928595Y-68311508D01*
X67761505Y-68478598D01*
X67625965Y-68672170D01*
X67526097Y-68886336D01*
X67464936Y-69114592D01*
X67444340Y-69349999D01*
X67464936Y-69585407D01*
X67503067Y-69727712D01*
X67526097Y-69813663D01*
X67625965Y-70027830D01*
X67761505Y-70221401D01*
X67928599Y-70388495D01*
X68114160Y-70518426D01*
X68157783Y-70573002D01*
X68164976Y-70642501D01*
X68133454Y-70704855D01*
X68114158Y-70721575D01*
X67929832Y-70850642D01*
X67928595Y-70851508D01*
X67761505Y-71018598D01*
X67625965Y-71212170D01*
X67526097Y-71426336D01*
X67464936Y-71654592D01*
X67444340Y-71890000D01*
X67464936Y-72125407D01*
X67500425Y-72257853D01*
X67526097Y-72353663D01*
X67625965Y-72567830D01*
X67761505Y-72761401D01*
X67928599Y-72928495D01*
X68114160Y-73058426D01*
X68157783Y-73113002D01*
X68164976Y-73182501D01*
X68133454Y-73244855D01*
X68114159Y-73261575D01*
X67928595Y-73391508D01*
X67761505Y-73558598D01*
X67625965Y-73752170D01*
X67526097Y-73966336D01*
X67464936Y-74194592D01*
X67444340Y-74430000D01*
X67464936Y-74665407D01*
X67509208Y-74830632D01*
X67526097Y-74893663D01*
X67625965Y-75107830D01*
X67761505Y-75301401D01*
X67928599Y-75468495D01*
X68114160Y-75598426D01*
X68157783Y-75653002D01*
X68164976Y-75722501D01*
X68133454Y-75784855D01*
X68114158Y-75801575D01*
X67929408Y-75930939D01*
X67928595Y-75931508D01*
X67761505Y-76098598D01*
X67625965Y-76292170D01*
X67526097Y-76506336D01*
X67464936Y-76734592D01*
X67444340Y-76969999D01*
X67464936Y-77205407D01*
X67509709Y-77372501D01*
X67526097Y-77433663D01*
X67625965Y-77647830D01*
X67761505Y-77841401D01*
X67928599Y-78008495D01*
X68114160Y-78138426D01*
X68157783Y-78193002D01*
X68164976Y-78262501D01*
X68133454Y-78324855D01*
X68114159Y-78341575D01*
X67928595Y-78471508D01*
X67761505Y-78638598D01*
X67625965Y-78832170D01*
X67526097Y-79046336D01*
X67464936Y-79274592D01*
X67444340Y-79509999D01*
X67464936Y-79745407D01*
X67475868Y-79786204D01*
X67526097Y-79973663D01*
X67625965Y-80187830D01*
X67761505Y-80381401D01*
X67928599Y-80548495D01*
X68114160Y-80678426D01*
X68157783Y-80733002D01*
X68164976Y-80802501D01*
X68133454Y-80864855D01*
X68114159Y-80881575D01*
X67928595Y-81011508D01*
X67761505Y-81178598D01*
X67625965Y-81372170D01*
X67526097Y-81586336D01*
X67464936Y-81814592D01*
X67444340Y-82050000D01*
X67464936Y-82285407D01*
X67503814Y-82430500D01*
X67526097Y-82513663D01*
X67625965Y-82727830D01*
X67761505Y-82921401D01*
X67928599Y-83088495D01*
X68114160Y-83218426D01*
X68157783Y-83273002D01*
X68164976Y-83342501D01*
X68133454Y-83404855D01*
X68114158Y-83421575D01*
X67970089Y-83522454D01*
X67928595Y-83551508D01*
X67761505Y-83718598D01*
X67625966Y-83912168D01*
X67567365Y-84037837D01*
X67521192Y-84090276D01*
X67453998Y-84109427D01*
X67387117Y-84089211D01*
X67367302Y-84073112D01*
X65108782Y-81814592D01*
X62813418Y-79519227D01*
X62779933Y-79457904D01*
X62777099Y-79431546D01*
X62777099Y-79010000D01*
X62777099Y-78519128D01*
X62770691Y-78459517D01*
X62720396Y-78324669D01*
X62634146Y-78209454D01*
X62518931Y-78123204D01*
X62384083Y-78072909D01*
X62332407Y-78067353D01*
X62327766Y-78066854D01*
X62327765Y-78066853D01*
X62324473Y-78066500D01*
X62321150Y-78066500D01*
X61432039Y-78066500D01*
X61432020Y-78066500D01*
X61428728Y-78066501D01*
X61425448Y-78066853D01*
X61425440Y-78066854D01*
X61369114Y-78072909D01*
X61279932Y-78106172D01*
X61210241Y-78111156D01*
X61193267Y-78106172D01*
X61104084Y-78072909D01*
X61047766Y-78066854D01*
X61047765Y-78066853D01*
X61044473Y-78066500D01*
X61041150Y-78066500D01*
X60152039Y-78066500D01*
X60152020Y-78066500D01*
X60148728Y-78066501D01*
X60145448Y-78066853D01*
X60145440Y-78066854D01*
X60089114Y-78072909D01*
X60009932Y-78102442D01*
X59940240Y-78107426D01*
X59923268Y-78102442D01*
X59844086Y-78072909D01*
X59787766Y-78066854D01*
X59787765Y-78066853D01*
X59784473Y-78066500D01*
X59781150Y-78066500D01*
X58892039Y-78066500D01*
X58892020Y-78066500D01*
X58888728Y-78066501D01*
X58885448Y-78066853D01*
X58885440Y-78066854D01*
X58839979Y-78071741D01*
X58829117Y-78072909D01*
X58824951Y-78074463D01*
X58744217Y-78104574D01*
X58674525Y-78109557D01*
X58657553Y-78104573D01*
X58573975Y-78073401D01*
X58517732Y-78067354D01*
X58511118Y-78067000D01*
X58316600Y-78067000D01*
X58316600Y-80367000D01*
X57816600Y-80367000D01*
X57816600Y-78067000D01*
X57622082Y-78067000D01*
X57615485Y-78067353D01*
X57549355Y-78074463D01*
X57480595Y-78062057D01*
X57429458Y-78014446D01*
X57412100Y-77951173D01*
X57412100Y-77114203D01*
X57412100Y-76021560D01*
X57414364Y-76001064D01*
X57413648Y-75978284D01*
X57412161Y-75930939D01*
X57412100Y-75927045D01*
X57412100Y-75903368D01*
X57412100Y-75899477D01*
X57411598Y-75895510D01*
X57410681Y-75883854D01*
X57409310Y-75840200D01*
X57403718Y-75820953D01*
X57399774Y-75801912D01*
X57397264Y-75782035D01*
X57381179Y-75741410D01*
X57377408Y-75730395D01*
X57365218Y-75688437D01*
X57355014Y-75671182D01*
X57346461Y-75653722D01*
X57339086Y-75635096D01*
X57339086Y-75635095D01*
X57313408Y-75599752D01*
X57307001Y-75589998D01*
X57284769Y-75552406D01*
X57270606Y-75538243D01*
X57257967Y-75523444D01*
X57246195Y-75507240D01*
X57212541Y-75479400D01*
X57203899Y-75471536D01*
X56786318Y-75053955D01*
X56752833Y-74992632D01*
X56750000Y-74966283D01*
X56750000Y-74000000D01*
X55783726Y-74000000D01*
X55716687Y-73980315D01*
X55696045Y-73963681D01*
X54373575Y-72641211D01*
X54360679Y-72625113D01*
X54309548Y-72577098D01*
X54306751Y-72574387D01*
X54290000Y-72557636D01*
X54287244Y-72554880D01*
X54284063Y-72552412D01*
X54275195Y-72544837D01*
X54243355Y-72514938D01*
X54225797Y-72505285D01*
X54209537Y-72494604D01*
X54193709Y-72482327D01*
X54153624Y-72464980D01*
X54143134Y-72459841D01*
X54104864Y-72438802D01*
X54085464Y-72433821D01*
X54067057Y-72427519D01*
X54048670Y-72419562D01*
X54005531Y-72412729D01*
X53994097Y-72410361D01*
X53951792Y-72399500D01*
X53931757Y-72399500D01*
X53912359Y-72397973D01*
X53904935Y-72396797D01*
X53892578Y-72394840D01*
X53892577Y-72394840D01*
X53859524Y-72397964D01*
X53849098Y-72398950D01*
X53837429Y-72399500D01*
X53709191Y-72399500D01*
X53642152Y-72379815D01*
X53596397Y-72327011D01*
X53586453Y-72257853D01*
X53615478Y-72194297D01*
X53644095Y-72169961D01*
X53644332Y-72169814D01*
X53644334Y-72169814D01*
X53793656Y-72077712D01*
X53887320Y-71984047D01*
X53948641Y-71950564D01*
X54018333Y-71955548D01*
X54062679Y-71984047D01*
X54146143Y-72067511D01*
X54156345Y-72077713D01*
X54192226Y-72099844D01*
X54305666Y-72169814D01*
X54379551Y-72194297D01*
X54472202Y-72224999D01*
X54571858Y-72235180D01*
X54571859Y-72235180D01*
X54574991Y-72235500D01*
X55200008Y-72235499D01*
X55302797Y-72224999D01*
X55469334Y-72169814D01*
X55618656Y-72077712D01*
X55742712Y-71953656D01*
X55834814Y-71804334D01*
X55889999Y-71637797D01*
X55900500Y-71535009D01*
X55900499Y-70957950D01*
X55920183Y-70890912D01*
X55936813Y-70870275D01*
X56885271Y-69921818D01*
X56946595Y-69888333D01*
X56972953Y-69885499D01*
X57971859Y-69885499D01*
X57975008Y-69885499D01*
X58077797Y-69874999D01*
X58244334Y-69819814D01*
X58393656Y-69727712D01*
X58517712Y-69603656D01*
X58569755Y-69519279D01*
X58621701Y-69472556D01*
X58690663Y-69461333D01*
X58754746Y-69489176D01*
X58780832Y-69519280D01*
X58832684Y-69603346D01*
X58956654Y-69727316D01*
X59105877Y-69819357D01*
X59272303Y-69874506D01*
X59371890Y-69884680D01*
X59378168Y-69884999D01*
X60224999Y-69884999D01*
X60225000Y-69884998D01*
X60225000Y-68835000D01*
X60725000Y-68835000D01*
X60725000Y-69884999D01*
X61571829Y-69884999D01*
X61578111Y-69884678D01*
X61677695Y-69874506D01*
X61844122Y-69819357D01*
X61993345Y-69727316D01*
X62117316Y-69603345D01*
X62209357Y-69454122D01*
X62264506Y-69287696D01*
X62274680Y-69188109D01*
X62275000Y-69181831D01*
X62275000Y-68835000D01*
X60725000Y-68835000D01*
X60225000Y-68835000D01*
X60225000Y-67285000D01*
X60725000Y-67285000D01*
X60725000Y-68335000D01*
X62274999Y-68335000D01*
X62274999Y-67988170D01*
X62274678Y-67981888D01*
X62264506Y-67882304D01*
X62209357Y-67715877D01*
X62117316Y-67566654D01*
X61993345Y-67442683D01*
X61844122Y-67350642D01*
X61677696Y-67295493D01*
X61578109Y-67285319D01*
X61571832Y-67285000D01*
X60725000Y-67285000D01*
X60225000Y-67285000D01*
X59378171Y-67285000D01*
X59371888Y-67285321D01*
X59272304Y-67295493D01*
X59105877Y-67350642D01*
X58956654Y-67442683D01*
X58832682Y-67566655D01*
X58780831Y-67650719D01*
X58728883Y-67697444D01*
X58659921Y-67708665D01*
X58595839Y-67680822D01*
X58569754Y-67650718D01*
X58517711Y-67566342D01*
X58393657Y-67442288D01*
X58244334Y-67350186D01*
X58077797Y-67295000D01*
X57978141Y-67284819D01*
X57978122Y-67284818D01*
X57975009Y-67284500D01*
X57971860Y-67284500D01*
X57624500Y-67284500D01*
X57557461Y-67264815D01*
X57511706Y-67212011D01*
X57500500Y-67160500D01*
X57500500Y-65792743D01*
X57502764Y-65772239D01*
X57500561Y-65702112D01*
X57500500Y-65698218D01*
X57500500Y-65674541D01*
X57500500Y-65670650D01*
X57499998Y-65666683D01*
X57499081Y-65655027D01*
X57498668Y-65641880D01*
X57497710Y-65611373D01*
X57492118Y-65592126D01*
X57488174Y-65573085D01*
X57485664Y-65553208D01*
X57469579Y-65512583D01*
X57465808Y-65501568D01*
X57453618Y-65459610D01*
X57443414Y-65442355D01*
X57434861Y-65424895D01*
X57427486Y-65406269D01*
X57427486Y-65406268D01*
X57401808Y-65370925D01*
X57395401Y-65361171D01*
X57373169Y-65323579D01*
X57359006Y-65309416D01*
X57346367Y-65294617D01*
X57334595Y-65278413D01*
X57300941Y-65250573D01*
X57292299Y-65242709D01*
X57098581Y-65048991D01*
X57065096Y-64987668D01*
X57070080Y-64917976D01*
X57111952Y-64862043D01*
X57118035Y-64857768D01*
X57185378Y-64813419D01*
X57278406Y-64703603D01*
X57336726Y-64572027D01*
X57350500Y-64472275D01*
X57350501Y-63297724D01*
X57336726Y-63197973D01*
X57278406Y-63066397D01*
X57278404Y-63066395D01*
X57278404Y-63066394D01*
X57185380Y-62956583D01*
X57146310Y-62930853D01*
X57065180Y-62877423D01*
X57035680Y-62868221D01*
X56973115Y-62848705D01*
X56973106Y-62848702D01*
X56969051Y-62847438D01*
X56964861Y-62846739D01*
X56964850Y-62846737D01*
X53268813Y-62230731D01*
X53268808Y-62230730D01*
X53266466Y-62230340D01*
X53264095Y-62230130D01*
X53264090Y-62230130D01*
X53255648Y-62229384D01*
X53112973Y-62248273D01*
X52981397Y-62306593D01*
X52871581Y-62399620D01*
X52792423Y-62519819D01*
X52750334Y-62657455D01*
X52749683Y-62665893D01*
X52749683Y-62665905D01*
X52749500Y-62668276D01*
X52749500Y-65101723D01*
X52749681Y-65104071D01*
X52749682Y-65104094D01*
X52750335Y-65112552D01*
X52792421Y-65250177D01*
X52871583Y-65370380D01*
X52981394Y-65463404D01*
X52981395Y-65463404D01*
X52981397Y-65463406D01*
X53048169Y-65493002D01*
X53112975Y-65521727D01*
X53255647Y-65540615D01*
X53255648Y-65540614D01*
X53255650Y-65540615D01*
X53266468Y-65539659D01*
X55392326Y-65185349D01*
X55461688Y-65193745D01*
X55500391Y-65219981D01*
X56213180Y-65932770D01*
X56246665Y-65994093D01*
X56249499Y-66020451D01*
X56249499Y-67160500D01*
X56229814Y-67227539D01*
X56177010Y-67273294D01*
X56125499Y-67284500D01*
X55778141Y-67284500D01*
X55778121Y-67284500D01*
X55774992Y-67284501D01*
X55771860Y-67284820D01*
X55771858Y-67284821D01*
X55672203Y-67295000D01*
X55505665Y-67350186D01*
X55356342Y-67442288D01*
X55337016Y-67461615D01*
X55275693Y-67495100D01*
X55206001Y-67490116D01*
X55201883Y-67488495D01*
X55096380Y-67444795D01*
X54984221Y-67430029D01*
X54984219Y-67430028D01*
X54980202Y-67429500D01*
X54714798Y-67429500D01*
X54710781Y-67430028D01*
X54710778Y-67430029D01*
X54598620Y-67444795D01*
X54536411Y-67470562D01*
X54488960Y-67480000D01*
X54209999Y-67480000D01*
X54209999Y-67758962D01*
X54200561Y-67806413D01*
X54183131Y-67848494D01*
X54174795Y-67868620D01*
X54159500Y-67984798D01*
X54159500Y-68275202D01*
X54160028Y-68279219D01*
X54160029Y-68279221D01*
X54174794Y-68391377D01*
X54200561Y-68453584D01*
X54209999Y-68501033D01*
X54209999Y-68529999D01*
X54227058Y-68547058D01*
X54236005Y-68549685D01*
X54267340Y-68578511D01*
X54310531Y-68634798D01*
X54329926Y-68660074D01*
X54358011Y-68681625D01*
X54399213Y-68738053D01*
X54403367Y-68807799D01*
X54369154Y-68868719D01*
X54358011Y-68878375D01*
X54329926Y-68899925D01*
X54325265Y-68906000D01*
X54267340Y-68981487D01*
X54210914Y-69022689D01*
X54168966Y-69030000D01*
X53884500Y-69030000D01*
X53817461Y-69010315D01*
X53771706Y-68957511D01*
X53760500Y-68906000D01*
X53760500Y-68638851D01*
X53760500Y-68634798D01*
X53745205Y-68518620D01*
X53738507Y-68502452D01*
X53731039Y-68432984D01*
X53738508Y-68407547D01*
X53745205Y-68391379D01*
X53745205Y-68391377D01*
X53760500Y-68275202D01*
X53760500Y-67984798D01*
X53745205Y-67868620D01*
X53719439Y-67806414D01*
X53710000Y-67758962D01*
X53710000Y-67480000D01*
X53431038Y-67480000D01*
X53383586Y-67470561D01*
X53321380Y-67444795D01*
X53209221Y-67430029D01*
X53209219Y-67430028D01*
X53205202Y-67429500D01*
X52939798Y-67429500D01*
X52935781Y-67430028D01*
X52935778Y-67430029D01*
X52863484Y-67439546D01*
X52823620Y-67444795D01*
X52806757Y-67451780D01*
X52721651Y-67487031D01*
X52652182Y-67494499D01*
X52589703Y-67463223D01*
X52586519Y-67460150D01*
X52568657Y-67442288D01*
X52419334Y-67350186D01*
X52252797Y-67295000D01*
X52153141Y-67284819D01*
X52153122Y-67284818D01*
X52150009Y-67284500D01*
X52146860Y-67284500D01*
X49953140Y-67284500D01*
X49953120Y-67284500D01*
X49949992Y-67284501D01*
X49946860Y-67284820D01*
X49946858Y-67284821D01*
X49847203Y-67295000D01*
X49680665Y-67350186D01*
X49531342Y-67442288D01*
X49407289Y-67566341D01*
X49355245Y-67650719D01*
X49303297Y-67697443D01*
X49234334Y-67708666D01*
X49170252Y-67680822D01*
X49144167Y-67650718D01*
X49092316Y-67566654D01*
X48968345Y-67442683D01*
X48819122Y-67350642D01*
X48652696Y-67295493D01*
X48553109Y-67285319D01*
X48546832Y-67285000D01*
X47699999Y-67285000D01*
X47700000Y-68335000D01*
X47699999Y-69884998D01*
X47700000Y-69884999D01*
X48546829Y-69884999D01*
X48553111Y-69884678D01*
X48652695Y-69874506D01*
X48819119Y-69819358D01*
X48930635Y-69750575D01*
X48998027Y-69732135D01*
X49064691Y-69753057D01*
X49109461Y-69806699D01*
X49114956Y-69849923D01*
X49118366Y-69849601D01*
X49123950Y-69908673D01*
X49124500Y-69920343D01*
X49124500Y-70815621D01*
X49104815Y-70882660D01*
X49065598Y-70921159D01*
X49031342Y-70942288D01*
X48907286Y-71066344D01*
X48905242Y-71069659D01*
X48853292Y-71116382D01*
X48784329Y-71127601D01*
X48720248Y-71099755D01*
X48694168Y-71069656D01*
X48692316Y-71066654D01*
X48568345Y-70942683D01*
X48419122Y-70850642D01*
X48252696Y-70795493D01*
X48153109Y-70785319D01*
X48146832Y-70785000D01*
X48100000Y-70785000D01*
X48100000Y-73234999D01*
X48146829Y-73234999D01*
X48153111Y-73234678D01*
X48252695Y-73224506D01*
X48419122Y-73169357D01*
X48568345Y-73077316D01*
X48692313Y-72953348D01*
X48694164Y-72950348D01*
X48746110Y-72903621D01*
X48815072Y-72892396D01*
X48879156Y-72920236D01*
X48905246Y-72950345D01*
X48907290Y-72953659D01*
X49031342Y-73077711D01*
X49031344Y-73077712D01*
X49180666Y-73169814D01*
X49291956Y-73206692D01*
X49347202Y-73224999D01*
X49446858Y-73235180D01*
X49446859Y-73235180D01*
X49449991Y-73235500D01*
X50039547Y-73235499D01*
X50106586Y-73255183D01*
X50127228Y-73271818D01*
X50264197Y-73408787D01*
X50277098Y-73424889D01*
X50279212Y-73426874D01*
X50279214Y-73426877D01*
X50326561Y-73471339D01*
X50328240Y-73472916D01*
X50331036Y-73475626D01*
X50350530Y-73495120D01*
X50353615Y-73497513D01*
X50353701Y-73497580D01*
X50362573Y-73505158D01*
X50394418Y-73535062D01*
X50411974Y-73544714D01*
X50428231Y-73555392D01*
X50444064Y-73567674D01*
X50460185Y-73574649D01*
X50484156Y-73585023D01*
X50494643Y-73590160D01*
X50532908Y-73611197D01*
X50552316Y-73616180D01*
X50570710Y-73622478D01*
X50589105Y-73630438D01*
X50632254Y-73637271D01*
X50643680Y-73639638D01*
X50659222Y-73643629D01*
X50685980Y-73650500D01*
X50685981Y-73650500D01*
X50706016Y-73650500D01*
X50725413Y-73652026D01*
X50745196Y-73655160D01*
X50788674Y-73651050D01*
X50800344Y-73650500D01*
X53562321Y-73650500D01*
X53629360Y-73670185D01*
X53650002Y-73686819D01*
X53751502Y-73788319D01*
X53784987Y-73849642D01*
X53780003Y-73919334D01*
X53738131Y-73975267D01*
X53672667Y-73999684D01*
X53663821Y-74000000D01*
X43644198Y-74000000D01*
X43577159Y-73980315D01*
X43531404Y-73927511D01*
X43520198Y-73876053D01*
X43519504Y-72260000D01*
X46850001Y-72260000D01*
X46850001Y-72531829D01*
X46850321Y-72538111D01*
X46860493Y-72637695D01*
X46915642Y-72804122D01*
X47007683Y-72953345D01*
X47131654Y-73077316D01*
X47280877Y-73169357D01*
X47447303Y-73224506D01*
X47546891Y-73234680D01*
X47553167Y-73234999D01*
X47599999Y-73234999D01*
X47600000Y-73234998D01*
X47600000Y-72260000D01*
X46850001Y-72260000D01*
X43519504Y-72260000D01*
X43519289Y-71760000D01*
X46850000Y-71760000D01*
X47600000Y-71760000D01*
X47600000Y-70785000D01*
X47553171Y-70785000D01*
X47546888Y-70785321D01*
X47447304Y-70795493D01*
X47280877Y-70850642D01*
X47131654Y-70942683D01*
X47007683Y-71066654D01*
X46915642Y-71215877D01*
X46860493Y-71382303D01*
X46850319Y-71481890D01*
X46850000Y-71488168D01*
X46850000Y-71760000D01*
X43519289Y-71760000D01*
X43518033Y-68835000D01*
X45650001Y-68835000D01*
X45650001Y-69181829D01*
X45650321Y-69188111D01*
X45660493Y-69287695D01*
X45715642Y-69454122D01*
X45807683Y-69603345D01*
X45931654Y-69727316D01*
X46080877Y-69819357D01*
X46247303Y-69874506D01*
X46346890Y-69884680D01*
X46353168Y-69884999D01*
X47199999Y-69884999D01*
X47200000Y-69884998D01*
X47200000Y-68835000D01*
X45650001Y-68835000D01*
X43518033Y-68835000D01*
X43517818Y-68335000D01*
X45650000Y-68335000D01*
X47200000Y-68335000D01*
X47200000Y-67285000D01*
X46353171Y-67285000D01*
X46346888Y-67285321D01*
X46247304Y-67295493D01*
X46080877Y-67350642D01*
X45931654Y-67442683D01*
X45807683Y-67566654D01*
X45715642Y-67715877D01*
X45660493Y-67882303D01*
X45650319Y-67981890D01*
X45650000Y-67988168D01*
X45650000Y-68335000D01*
X43517818Y-68335000D01*
X43515348Y-62585097D01*
X43510699Y-51765199D01*
X45460751Y-51765199D01*
X45480517Y-52016349D01*
X45539326Y-52261310D01*
X45549848Y-52286711D01*
X45635734Y-52494059D01*
X45767364Y-52708859D01*
X45930976Y-52900424D01*
X46122541Y-53064036D01*
X46337341Y-53195666D01*
X46570089Y-53292073D01*
X46815052Y-53350883D01*
X47003318Y-53365700D01*
X47005763Y-53365700D01*
X47126637Y-53365700D01*
X47129082Y-53365700D01*
X47317348Y-53350883D01*
X47562311Y-53292073D01*
X47795059Y-53195666D01*
X48009859Y-53064036D01*
X48201424Y-52900424D01*
X48365036Y-52708859D01*
X48496666Y-52494059D01*
X48593073Y-52261311D01*
X48651883Y-52016348D01*
X48669650Y-51790600D01*
X68473151Y-51790600D01*
X68492917Y-52041749D01*
X68551726Y-52286710D01*
X68599930Y-52403084D01*
X68648134Y-52519459D01*
X68779764Y-52734259D01*
X68943376Y-52925824D01*
X69134941Y-53089436D01*
X69349741Y-53221066D01*
X69582489Y-53317473D01*
X69827452Y-53376283D01*
X70015718Y-53391100D01*
X70018163Y-53391100D01*
X70139037Y-53391100D01*
X70141482Y-53391100D01*
X70329748Y-53376283D01*
X70574711Y-53317473D01*
X70807459Y-53221066D01*
X71022259Y-53089436D01*
X71213824Y-52925824D01*
X71377436Y-52734259D01*
X71509066Y-52519459D01*
X71605473Y-52286711D01*
X71664283Y-52041748D01*
X71684049Y-51790600D01*
X71664283Y-51539452D01*
X71605473Y-51294489D01*
X71509066Y-51061741D01*
X71377436Y-50846941D01*
X71213824Y-50655376D01*
X71022259Y-50491764D01*
X70807459Y-50360134D01*
X70691085Y-50311930D01*
X70574710Y-50263726D01*
X70329749Y-50204917D01*
X70143916Y-50190291D01*
X70143901Y-50190290D01*
X70141482Y-50190100D01*
X70015718Y-50190100D01*
X70013299Y-50190290D01*
X70013283Y-50190291D01*
X69827450Y-50204917D01*
X69582489Y-50263726D01*
X69411062Y-50334734D01*
X69369881Y-50351792D01*
X69349739Y-50360135D01*
X69134942Y-50491763D01*
X68943376Y-50655376D01*
X68779763Y-50846942D01*
X68648135Y-51061739D01*
X68551726Y-51294489D01*
X68492917Y-51539450D01*
X68473151Y-51790600D01*
X48669650Y-51790600D01*
X48671649Y-51765200D01*
X48651883Y-51514052D01*
X48593073Y-51269089D01*
X48496666Y-51036341D01*
X48365036Y-50821541D01*
X48201424Y-50629976D01*
X48009859Y-50466364D01*
X47795059Y-50334734D01*
X47678684Y-50286530D01*
X47562310Y-50238326D01*
X47317349Y-50179517D01*
X47131516Y-50164891D01*
X47131501Y-50164890D01*
X47129082Y-50164700D01*
X47003318Y-50164700D01*
X47000899Y-50164890D01*
X47000883Y-50164891D01*
X46815050Y-50179517D01*
X46570089Y-50238326D01*
X46379554Y-50317249D01*
X46355231Y-50327324D01*
X46337339Y-50334735D01*
X46122542Y-50466363D01*
X45930976Y-50629976D01*
X45767363Y-50821542D01*
X45635735Y-51036339D01*
X45539326Y-51269089D01*
X45480517Y-51514050D01*
X45460751Y-51765199D01*
X43510699Y-51765199D01*
X43510501Y-51303254D01*
X43510671Y-51296728D01*
X43517490Y-51166615D01*
X43528076Y-50978121D01*
X43529401Y-50965741D01*
X43553462Y-50813826D01*
X43581494Y-50648840D01*
X43583953Y-50637581D01*
X43624991Y-50484427D01*
X43670252Y-50327324D01*
X43673624Y-50317268D01*
X43730675Y-50168645D01*
X43731856Y-50165688D01*
X43793299Y-50017351D01*
X43797352Y-50008558D01*
X43870047Y-49865887D01*
X43871936Y-49862328D01*
X43949214Y-49722505D01*
X43953701Y-49715027D01*
X44041186Y-49580313D01*
X44043953Y-49576237D01*
X44136127Y-49446330D01*
X44140857Y-49440094D01*
X44242071Y-49315105D01*
X44245918Y-49310583D01*
X44351890Y-49192001D01*
X44356618Y-49187000D01*
X44470400Y-49073218D01*
X44475401Y-49068490D01*
X44593983Y-48962518D01*
X44598505Y-48958671D01*
X44723494Y-48857457D01*
X44729730Y-48852727D01*
X44859637Y-48760553D01*
X44863713Y-48757786D01*
X44998427Y-48670301D01*
X45005905Y-48665814D01*
X45145728Y-48588536D01*
X45149287Y-48586647D01*
X45291958Y-48513952D01*
X45300751Y-48509899D01*
X45449120Y-48448442D01*
X45452043Y-48447276D01*
X45600661Y-48390227D01*
X45610739Y-48386848D01*
X45767838Y-48341588D01*
X45920995Y-48300550D01*
X45932238Y-48298095D01*
X46097187Y-48270068D01*
X46214275Y-48251523D01*
X46233646Y-48250000D01*
X70863503Y-48250000D01*
X70882901Y-48251527D01*
G37*
%TD.AperFunction*%
%TA.AperFunction,Conductor*%
G36*
X59819639Y-87211685D02*
G01*
X59865394Y-87264489D01*
X59876600Y-87316000D01*
X59876599Y-88666998D01*
X59876600Y-88666999D01*
X59923429Y-88666999D01*
X59929711Y-88666678D01*
X60029295Y-88656506D01*
X60195722Y-88601357D01*
X60344945Y-88509316D01*
X60468913Y-88385348D01*
X60470764Y-88382348D01*
X60522710Y-88335621D01*
X60591672Y-88324396D01*
X60655756Y-88352236D01*
X60681846Y-88382345D01*
X60683890Y-88385659D01*
X60807942Y-88509711D01*
X60807944Y-88509712D01*
X60957266Y-88601814D01*
X61054029Y-88633878D01*
X61123802Y-88656999D01*
X61223458Y-88667180D01*
X61223459Y-88667180D01*
X61226591Y-88667500D01*
X61816146Y-88667499D01*
X61883185Y-88687183D01*
X61903827Y-88703818D01*
X62463180Y-89263171D01*
X62496665Y-89324494D01*
X62499499Y-89350852D01*
X62499499Y-91152983D01*
X62479814Y-91220022D01*
X62427010Y-91265777D01*
X62414504Y-91270688D01*
X62355666Y-91290186D01*
X62355664Y-91290186D01*
X62355664Y-91290187D01*
X62206342Y-91382288D01*
X62082288Y-91506342D01*
X62029539Y-91591864D01*
X61977591Y-91638589D01*
X61908629Y-91649812D01*
X61844547Y-91621969D01*
X61805690Y-91563900D01*
X61800000Y-91526768D01*
X61800000Y-91490000D01*
X60050000Y-91490000D01*
X60049999Y-92509999D01*
X60050000Y-92510000D01*
X61344518Y-92510000D01*
X61351132Y-92509645D01*
X61407371Y-92503599D01*
X61542089Y-92453352D01*
X61657187Y-92367189D01*
X61701232Y-92308353D01*
X61757166Y-92266482D01*
X61826857Y-92261497D01*
X61888181Y-92294981D01*
X61921666Y-92356304D01*
X61924500Y-92382662D01*
X61924500Y-92546858D01*
X61924500Y-92546877D01*
X61924501Y-92550008D01*
X61924820Y-92553140D01*
X61924821Y-92553141D01*
X61935000Y-92652796D01*
X61990186Y-92819334D01*
X62082287Y-92968655D01*
X62175950Y-93062319D01*
X62209434Y-93123642D01*
X62204450Y-93193334D01*
X62175950Y-93237681D01*
X62082287Y-93331344D01*
X62053451Y-93378096D01*
X62001503Y-93424821D01*
X61947912Y-93437000D01*
X58874000Y-93437000D01*
X58806961Y-93417315D01*
X58761206Y-93364511D01*
X58750000Y-93313000D01*
X58750000Y-92634000D01*
X58769685Y-92566961D01*
X58822489Y-92521206D01*
X58874000Y-92510000D01*
X59550000Y-92510000D01*
X59550000Y-90989999D01*
X60049999Y-90989999D01*
X60050000Y-90990000D01*
X61799999Y-90990000D01*
X61800000Y-90425481D01*
X61799645Y-90418867D01*
X61793599Y-90362628D01*
X61743352Y-90227910D01*
X61657188Y-90112811D01*
X61542089Y-90026647D01*
X61407371Y-89976400D01*
X61351132Y-89970354D01*
X61344518Y-89970000D01*
X60050000Y-89970000D01*
X60049999Y-90989999D01*
X59550000Y-90989999D01*
X59550000Y-89970000D01*
X58874000Y-89970000D01*
X58806961Y-89950315D01*
X58761206Y-89897511D01*
X58750000Y-89846000D01*
X58750000Y-88633878D01*
X58769685Y-88566839D01*
X58822489Y-88521084D01*
X58891647Y-88511140D01*
X58939097Y-88528339D01*
X59057480Y-88601358D01*
X59223903Y-88656506D01*
X59323491Y-88666680D01*
X59329767Y-88666999D01*
X59376599Y-88666999D01*
X59376599Y-88666998D01*
X59376600Y-87316000D01*
X59396285Y-87248961D01*
X59449089Y-87203206D01*
X59500600Y-87192000D01*
X59752600Y-87192000D01*
X59819639Y-87211685D01*
G37*
%TD.AperFunction*%
%TD*%
M02*
