%TF.GenerationSoftware,KiCad,Pcbnew,7.0.2-0*%
%TF.CreationDate,2024-01-15T07:51:27+01:00*%
%TF.ProjectId,dac,6461632e-6b69-4636-9164-5f7063625858,rev?*%
%TF.SameCoordinates,Original*%
%TF.FileFunction,Paste,Top*%
%TF.FilePolarity,Positive*%
%FSLAX46Y46*%
G04 Gerber Fmt 4.6, Leading zero omitted, Abs format (unit mm)*
G04 Created by KiCad (PCBNEW 7.0.2-0) date 2024-01-15 07:51:27*
%MOMM*%
%LPD*%
G01*
G04 APERTURE LIST*
G04 Aperture macros list*
%AMRoundRect*
0 Rectangle with rounded corners*
0 $1 Rounding radius*
0 $2 $3 $4 $5 $6 $7 $8 $9 X,Y pos of 4 corners*
0 Add a 4 corners polygon primitive as box body*
4,1,4,$2,$3,$4,$5,$6,$7,$8,$9,$2,$3,0*
0 Add four circle primitives for the rounded corners*
1,1,$1+$1,$2,$3*
1,1,$1+$1,$4,$5*
1,1,$1+$1,$6,$7*
1,1,$1+$1,$8,$9*
0 Add four rect primitives between the rounded corners*
20,1,$1+$1,$2,$3,$4,$5,0*
20,1,$1+$1,$4,$5,$6,$7,0*
20,1,$1+$1,$6,$7,$8,$9,0*
20,1,$1+$1,$8,$9,$2,$3,0*%
%AMOutline4P*
0 Free polygon, 4 corners , with rotation*
0 The origin of the aperture is its center*
0 number of corners: always 4*
0 $1 to $8 corner X, Y*
0 $9 Rotation angle, in degrees counterclockwise*
0 create outline with 4 corners*
4,1,4,$1,$2,$3,$4,$5,$6,$7,$8,$1,$2,$9*%
G04 Aperture macros list end*
%ADD10RoundRect,0.160000X-0.245000X-0.160000X0.245000X-0.160000X0.245000X0.160000X-0.245000X0.160000X0*%
%ADD11RoundRect,0.093750X-0.093750X-0.106250X0.093750X-0.106250X0.093750X0.106250X-0.093750X0.106250X0*%
%ADD12R,0.800000X1.300000*%
%ADD13RoundRect,0.250000X-0.450000X0.262500X-0.450000X-0.262500X0.450000X-0.262500X0.450000X0.262500X0*%
%ADD14RoundRect,0.250000X-0.250000X-0.475000X0.250000X-0.475000X0.250000X0.475000X-0.250000X0.475000X0*%
%ADD15RoundRect,0.250000X-1.050000X-0.550000X1.050000X-0.550000X1.050000X0.550000X-1.050000X0.550000X0*%
%ADD16RoundRect,0.250000X0.550000X-1.050000X0.550000X1.050000X-0.550000X1.050000X-0.550000X-1.050000X0*%
%ADD17RoundRect,0.250000X-0.550000X1.050000X-0.550000X-1.050000X0.550000X-1.050000X0.550000X1.050000X0*%
%ADD18RoundRect,0.250000X1.050000X0.550000X-1.050000X0.550000X-1.050000X-0.550000X1.050000X-0.550000X0*%
%ADD19RoundRect,0.250000X0.250000X0.475000X-0.250000X0.475000X-0.250000X-0.475000X0.250000X-0.475000X0*%
%ADD20Outline4P,-1.800000X-1.150000X1.800000X-0.550000X1.800000X0.550000X-1.800000X1.150000X0.000000*%
%ADD21Outline4P,-1.800000X-1.150000X1.800000X-0.550000X1.800000X0.550000X-1.800000X1.150000X180.000000*%
%ADD22RoundRect,0.250000X0.475000X-0.250000X0.475000X0.250000X-0.475000X0.250000X-0.475000X-0.250000X0*%
%ADD23R,3.000000X1.540000*%
%ADD24RoundRect,0.250000X-0.262500X-0.450000X0.262500X-0.450000X0.262500X0.450000X-0.262500X0.450000X0*%
G04 APERTURE END LIST*
D10*
%TO.C,U5*%
X53960000Y-68380000D03*
X53960000Y-69180000D03*
D11*
X53072500Y-68130000D03*
X53072500Y-68780000D03*
X53072500Y-69430000D03*
X54847500Y-69430000D03*
X54847500Y-68780000D03*
X54847500Y-68130000D03*
%TD*%
D12*
%TO.C,U2*%
X61876600Y-79217000D03*
X60596600Y-79217000D03*
X59336600Y-79217000D03*
X58066600Y-79217000D03*
X56786600Y-79217000D03*
X55516600Y-79217000D03*
X54256600Y-79217000D03*
X52976600Y-79217000D03*
X52976600Y-85517000D03*
X54256600Y-85517000D03*
X55516600Y-85517000D03*
X56786600Y-85517000D03*
X58066600Y-85517000D03*
X59336600Y-85517000D03*
X60596600Y-85517000D03*
X61876600Y-85517000D03*
%TD*%
D13*
%TO.C,R1*%
X63125000Y-92237500D03*
X63125000Y-94062500D03*
%TD*%
D14*
%TO.C,C4*%
X56176600Y-87442000D03*
X58076600Y-87442000D03*
%TD*%
D15*
%TO.C,C8*%
X56875000Y-68585000D03*
X60475000Y-68585000D03*
%TD*%
D16*
%TO.C,C3*%
X48040000Y-100060000D03*
X48040000Y-96460000D03*
%TD*%
D17*
%TO.C,C2*%
X48020000Y-88230000D03*
X48020000Y-91830000D03*
%TD*%
D18*
%TO.C,C9*%
X51050000Y-68585000D03*
X47450000Y-68585000D03*
%TD*%
D19*
%TO.C,C1*%
X61526600Y-87442000D03*
X59626600Y-87442000D03*
%TD*%
D20*
%TO.C,D1*%
X55050000Y-63885000D03*
D21*
X60850000Y-63885000D03*
%TD*%
D14*
%TO.C,C5*%
X52726600Y-87417000D03*
X54626600Y-87417000D03*
%TD*%
D22*
%TO.C,C6*%
X52926600Y-77517000D03*
X52926600Y-75617000D03*
%TD*%
%TO.C,C7*%
X54926600Y-77517000D03*
X54926600Y-75617000D03*
%TD*%
D19*
%TO.C,C10*%
X49750000Y-72010000D03*
X47850000Y-72010000D03*
%TD*%
D13*
%TO.C,R2*%
X45990000Y-93237500D03*
X45990000Y-95062500D03*
%TD*%
D23*
%TO.C,U1*%
X59800000Y-96460000D03*
X59800000Y-91240000D03*
X54400000Y-91240000D03*
X54400000Y-96460000D03*
%TD*%
D24*
%TO.C,R3*%
X53062500Y-71035000D03*
X54887500Y-71035000D03*
%TD*%
M02*
