G04 #@! TF.GenerationSoftware,KiCad,Pcbnew,7.0.2-0*
G04 #@! TF.CreationDate,2024-06-02T16:01:14+02:00*
G04 #@! TF.ProjectId,network_player,6e657477-6f72-46b5-9f70-6c617965722e,rev?*
G04 #@! TF.SameCoordinates,Original*
G04 #@! TF.FileFunction,Copper,L3,Inr*
G04 #@! TF.FilePolarity,Positive*
%FSLAX46Y46*%
G04 Gerber Fmt 4.6, Leading zero omitted, Abs format (unit mm)*
G04 Created by KiCad (PCBNEW 7.0.2-0) date 2024-06-02 16:01:14*
%MOMM*%
%LPD*%
G01*
G04 APERTURE LIST*
G04 #@! TA.AperFunction,ComponentPad*
%ADD10R,1.700000X1.700000*%
G04 #@! TD*
G04 #@! TA.AperFunction,ComponentPad*
%ADD11O,1.700000X1.700000*%
G04 #@! TD*
G04 #@! TA.AperFunction,ComponentPad*
%ADD12O,1.600000X1.000000*%
G04 #@! TD*
G04 #@! TA.AperFunction,ComponentPad*
%ADD13O,2.100000X0.900000*%
G04 #@! TD*
G04 #@! TA.AperFunction,ComponentPad*
%ADD14C,0.650000*%
G04 #@! TD*
G04 #@! TA.AperFunction,ViaPad*
%ADD15C,0.685800*%
G04 #@! TD*
G04 #@! TA.AperFunction,Conductor*
%ADD16C,0.127000*%
G04 #@! TD*
G04 APERTURE END LIST*
D10*
X130720000Y-52210000D03*
D11*
X133260000Y-52210000D03*
X130720000Y-54750000D03*
X133260000Y-54750000D03*
X130720000Y-57290000D03*
X133260000Y-57290000D03*
X130720000Y-59830000D03*
X133260000Y-59830000D03*
X130720000Y-62370000D03*
X133260000Y-62370000D03*
X130720000Y-64910000D03*
X133260000Y-64910000D03*
X130720000Y-67450000D03*
X133260000Y-67450000D03*
X130720000Y-69990000D03*
X133260000Y-69990000D03*
X130720000Y-72530000D03*
X133260000Y-72530000D03*
X130720000Y-75070000D03*
X133260000Y-75070000D03*
X130720000Y-77610000D03*
X133260000Y-77610000D03*
X130720000Y-80150000D03*
X133260000Y-80150000D03*
X130720000Y-82690000D03*
X133260000Y-82690000D03*
X130720000Y-85230000D03*
X133260000Y-85230000D03*
X130720000Y-87770000D03*
X133260000Y-87770000D03*
X130720000Y-90310000D03*
X133260000Y-90310000D03*
X130720000Y-92850000D03*
X133260000Y-92850000D03*
X130720000Y-95390000D03*
X133260000Y-95390000D03*
X130720000Y-97930000D03*
X133260000Y-97930000D03*
X130720000Y-100470000D03*
X133260000Y-100470000D03*
D12*
X108670000Y-71900000D03*
D13*
X112850000Y-71900000D03*
D12*
X108670000Y-63260000D03*
D13*
X112850000Y-63260000D03*
D14*
X112350000Y-70470000D03*
X112350000Y-64690000D03*
D15*
X119400000Y-101850000D03*
X119660000Y-107830000D03*
X117610000Y-107820000D03*
X116830000Y-90810000D03*
X118310000Y-85050000D03*
X115830600Y-85869400D03*
X122252164Y-98238528D03*
X124840000Y-59610000D03*
X118340000Y-91320000D03*
X112025000Y-65575000D03*
X112025000Y-69725000D03*
X125925000Y-60000000D03*
X124950000Y-65875000D03*
X120025000Y-60475000D03*
X124741932Y-62491932D03*
X107425000Y-90850000D03*
X126875000Y-74300000D03*
X116080000Y-87140000D03*
X118450000Y-71100000D03*
X113639600Y-79375000D03*
X107880000Y-77220000D03*
X124158535Y-91255100D03*
X118390000Y-89550000D03*
X114450000Y-84000000D03*
X116636800Y-79700000D03*
X123399500Y-68550000D03*
X106590000Y-75800000D03*
X117640000Y-59740000D03*
X120775000Y-90775000D03*
X127630000Y-87070000D03*
X118050000Y-61449900D03*
X115925000Y-51275000D03*
X112425000Y-55625000D03*
X117691418Y-87997782D03*
X124531885Y-77053917D03*
X112302100Y-83455700D03*
X127810000Y-72530000D03*
X109067600Y-76911200D03*
X114850000Y-89275000D03*
X122748600Y-89570000D03*
X124150000Y-94925000D03*
X115734198Y-76240802D03*
X116179932Y-73350000D03*
X124510800Y-80848200D03*
X116225500Y-70625000D03*
X116687600Y-82092800D03*
X114750000Y-61900000D03*
X110884082Y-75609082D03*
X108675000Y-98475800D03*
X113625000Y-78325000D03*
X124212226Y-74731126D03*
X123400000Y-74720000D03*
X125946600Y-67538747D03*
X126075000Y-65925000D03*
X117825000Y-66900000D03*
X123399500Y-66875000D03*
X123399500Y-69362303D03*
X128325000Y-82950000D03*
X114270000Y-74320000D03*
X116547852Y-77055162D03*
X128010000Y-100010000D03*
X110660000Y-85419402D03*
X133858500Y-86510000D03*
X133767600Y-81380000D03*
X109487365Y-78084600D03*
X127827190Y-78553775D03*
X116340000Y-52870000D03*
X115930000Y-53670000D03*
X111880000Y-50470000D03*
X126610000Y-85320000D03*
X126770000Y-77180000D03*
X119260000Y-57510000D03*
X124425000Y-84825000D03*
X120850000Y-57525000D03*
X129162694Y-78000000D03*
X122962618Y-57337382D03*
X127680353Y-77180353D03*
X119656986Y-59750844D03*
X127429400Y-79705200D03*
X125510000Y-74230000D03*
X125500000Y-75080000D03*
X119152297Y-84992602D03*
X128850000Y-53690000D03*
X119964593Y-84989402D03*
X121200000Y-87000000D03*
X119700000Y-95000000D03*
X114480793Y-76280364D03*
X112027383Y-68150665D03*
X113816253Y-76944904D03*
X112027383Y-67210865D03*
X118541800Y-93319600D03*
X126089082Y-94052718D03*
X128538868Y-93816600D03*
X122504200Y-85013800D03*
X120688941Y-74568906D03*
X120453487Y-87328351D03*
X131900000Y-89390000D03*
X131940000Y-92080000D03*
X129511818Y-79571818D03*
X112148553Y-79991447D03*
X118631365Y-74185626D03*
X109340000Y-86080000D03*
X118450000Y-76956600D03*
X128892600Y-86094623D03*
X119600000Y-76956600D03*
X119870774Y-74617191D03*
X121110176Y-75265107D03*
X121150000Y-76956600D03*
X121405401Y-74186126D03*
X120776896Y-84989402D03*
D16*
X122252164Y-95232164D02*
X122252164Y-98238528D01*
X118340000Y-91320000D02*
X122252164Y-95232164D01*
X133260000Y-87770000D02*
X134300500Y-88810500D01*
X129640000Y-97538510D02*
X129640000Y-99390000D01*
X130289010Y-96889500D02*
X129640000Y-97538510D01*
X131760500Y-61329500D02*
X131760500Y-58789500D01*
X132219500Y-95820990D02*
X131150990Y-96889500D01*
X127630000Y-87070000D02*
X125800000Y-88900000D01*
X116311800Y-79375000D02*
X116636800Y-79700000D01*
X131760500Y-63410500D02*
X130720000Y-62370000D01*
X131760500Y-58789500D02*
X133260000Y-57290000D01*
X133260000Y-67450000D02*
X131760500Y-65950500D01*
X134300500Y-91809500D02*
X133260000Y-92850000D01*
X133260000Y-75070000D02*
X134300500Y-74029500D01*
X130720000Y-82690000D02*
X131760500Y-83730500D01*
X130720000Y-62370000D02*
X131760500Y-61329500D01*
X131760500Y-83730500D02*
X131760500Y-86270500D01*
X131760500Y-86270500D02*
X133260000Y-87770000D01*
X131760500Y-65950500D02*
X131760500Y-63410500D01*
X133260000Y-92850000D02*
X132219500Y-93890500D01*
X113639600Y-79375000D02*
X116311800Y-79375000D01*
X129640000Y-99390000D02*
X130720000Y-100470000D01*
X131150990Y-96889500D02*
X130289010Y-96889500D01*
X134300500Y-68490500D02*
X133260000Y-67450000D01*
X132219500Y-93890500D02*
X132219500Y-95820990D01*
X134300500Y-74029500D02*
X134300500Y-68490500D01*
X134300500Y-88810500D02*
X134300500Y-91809500D01*
X113670236Y-77497822D02*
X116105192Y-77497822D01*
X116105192Y-77497822D02*
X116547852Y-77055162D01*
X114499342Y-74320000D02*
X115100000Y-74920658D01*
X114270000Y-74320000D02*
X114499342Y-74320000D01*
X113055400Y-78112658D02*
X113670236Y-77497822D01*
X113055400Y-85055400D02*
X113055400Y-78112658D01*
X128010000Y-100010000D02*
X113055400Y-85055400D01*
X115725820Y-77055162D02*
X116547852Y-77055162D01*
X115100000Y-74920658D02*
X115100000Y-76429342D01*
X115100000Y-76429342D02*
X115725820Y-77055162D01*
X125500000Y-78556776D02*
X125500000Y-75080000D01*
X130720000Y-95390000D02*
X129679500Y-94349500D01*
X129679500Y-94349500D02*
X129679500Y-82736276D01*
X129679500Y-82736276D02*
X125500000Y-78556776D01*
X134554500Y-95566990D02*
X133690990Y-96430500D01*
X115647032Y-56552690D02*
X109394342Y-50300000D01*
X118340000Y-78092968D02*
X115647032Y-75400000D01*
X133690990Y-96430500D02*
X132829010Y-96430500D01*
X134554500Y-78904500D02*
X134554500Y-95566990D01*
X107690000Y-50300000D02*
X107660000Y-50330000D01*
X133260000Y-77610000D02*
X134554500Y-78904500D01*
X131760500Y-97499010D02*
X131760500Y-100900990D01*
X131150990Y-101510500D02*
X130289010Y-101510500D01*
X115647032Y-75400000D02*
X115647032Y-56552690D01*
X131760500Y-100900990D02*
X131150990Y-101510500D01*
X124691935Y-92816935D02*
X116103900Y-84228900D01*
X109394342Y-50300000D02*
X107690000Y-50300000D01*
X107660000Y-50330000D02*
X107660000Y-50307100D01*
X118340001Y-81940001D02*
X118340000Y-78092968D01*
X116916600Y-80516600D02*
X118340001Y-81940001D01*
X130289010Y-101510500D02*
X124691935Y-95913425D01*
X116416358Y-80516600D02*
X116916600Y-80516600D01*
X116103900Y-84228900D02*
X116103900Y-80829058D01*
X116103900Y-80829058D02*
X116416358Y-80516600D01*
X132829010Y-96430500D02*
X131760500Y-97499010D01*
X124691935Y-95913425D02*
X124691935Y-92816935D01*
X132219500Y-71489500D02*
X132219500Y-67019010D01*
X133260000Y-72530000D02*
X132219500Y-71489500D01*
X128850000Y-64511490D02*
X128850000Y-53690000D01*
X131150990Y-65950500D02*
X130289010Y-65950500D01*
X130289010Y-65950500D02*
X128850000Y-64511490D01*
X132219500Y-67019010D02*
X131150990Y-65950500D01*
X133188220Y-79009710D02*
X132219500Y-78040990D01*
X132219500Y-78040990D02*
X132219500Y-77179010D01*
X132014500Y-78904500D02*
X132014500Y-82955290D01*
X132014500Y-100244010D02*
X132014500Y-101006200D01*
X132898510Y-99360000D02*
X132014500Y-100244010D01*
X132829010Y-76569500D02*
X133690990Y-76569500D01*
X132014500Y-101006200D02*
X131256200Y-101764500D01*
X134300500Y-83579990D02*
X134300500Y-79009710D01*
X133301490Y-99360000D02*
X132898510Y-99360000D01*
X133248710Y-84189500D02*
X133690990Y-84189500D01*
X134808500Y-77687010D02*
X134808500Y-97852990D01*
X133690990Y-76569500D02*
X134808500Y-77687010D01*
X134808500Y-97852990D02*
X133301490Y-99360000D01*
X132014500Y-82955290D02*
X133248710Y-84189500D01*
X125024500Y-101764500D02*
X109340000Y-86080000D01*
X130720000Y-77610000D02*
X132014500Y-78904500D01*
X133690990Y-84189500D02*
X134300500Y-83579990D01*
X132219500Y-77179010D02*
X132829010Y-76569500D01*
X131256200Y-101764500D02*
X125024500Y-101764500D01*
X134300500Y-79009710D02*
X133188220Y-79009710D01*
X130232237Y-81400000D02*
X128629794Y-79797557D01*
X131760500Y-82259010D02*
X130901490Y-81400000D01*
X131760500Y-83060500D02*
X131760500Y-82259010D01*
X120835239Y-73652726D02*
X119870774Y-74617191D01*
X130901490Y-81400000D02*
X130232237Y-81400000D01*
X128629794Y-79797557D02*
X128629794Y-74950927D01*
X133260000Y-84560000D02*
X131760500Y-83060500D01*
X128629794Y-74950927D02*
X127331593Y-73652726D01*
X127331593Y-73652726D02*
X120835239Y-73652726D01*
X131760500Y-93890500D02*
X131760500Y-95820990D01*
X130720000Y-92850000D02*
X131760500Y-93890500D01*
X122511858Y-90119200D02*
X121712300Y-89319642D01*
X121750000Y-74530725D02*
X121405401Y-74186126D01*
X123977710Y-90119200D02*
X122511858Y-90119200D01*
X121712300Y-89319642D02*
X121712300Y-88794790D01*
X121750000Y-88757090D02*
X121750000Y-74530725D01*
X121712300Y-88794790D02*
X121750000Y-88757090D01*
X131150990Y-96430500D02*
X130289010Y-96430500D01*
X130289010Y-96430500D02*
X123977710Y-90119200D01*
X131760500Y-95820990D02*
X131150990Y-96430500D01*
G04 #@! TA.AperFunction,Conductor*
G36*
X114129984Y-42828752D02*
G01*
X114196994Y-42848536D01*
X114242671Y-42901408D01*
X114253800Y-42952752D01*
X114253799Y-48067999D01*
X114253800Y-48068000D01*
X127453799Y-48068000D01*
X127453800Y-48068000D01*
X127453800Y-47320199D01*
X130372951Y-47320199D01*
X130392717Y-47571349D01*
X130451526Y-47816310D01*
X130462048Y-47841711D01*
X130547934Y-48049059D01*
X130679564Y-48263859D01*
X130843176Y-48455424D01*
X131034741Y-48619036D01*
X131249541Y-48750666D01*
X131482289Y-48847073D01*
X131727252Y-48905883D01*
X131915518Y-48920700D01*
X131917963Y-48920700D01*
X132038837Y-48920700D01*
X132041282Y-48920700D01*
X132229548Y-48905883D01*
X132474511Y-48847073D01*
X132707259Y-48750666D01*
X132922059Y-48619036D01*
X133113624Y-48455424D01*
X133277236Y-48263859D01*
X133408866Y-48049059D01*
X133505273Y-47816311D01*
X133564083Y-47571348D01*
X133583849Y-47320200D01*
X133564083Y-47069052D01*
X133505273Y-46824089D01*
X133408866Y-46591341D01*
X133277236Y-46376541D01*
X133113624Y-46184976D01*
X132922059Y-46021364D01*
X132707259Y-45889734D01*
X132555513Y-45826879D01*
X132474510Y-45793326D01*
X132229549Y-45734517D01*
X132043716Y-45719891D01*
X132043701Y-45719890D01*
X132041282Y-45719700D01*
X131915518Y-45719700D01*
X131913099Y-45719890D01*
X131913083Y-45719891D01*
X131727250Y-45734517D01*
X131482289Y-45793326D01*
X131249539Y-45889735D01*
X131034742Y-46021363D01*
X130843176Y-46184976D01*
X130679563Y-46376542D01*
X130547935Y-46591339D01*
X130451526Y-46824089D01*
X130392717Y-47069050D01*
X130372951Y-47320199D01*
X127453800Y-47320199D01*
X127453799Y-42972704D01*
X127473484Y-42905666D01*
X127526288Y-42859911D01*
X127577981Y-42848705D01*
X128433084Y-42849974D01*
X128500094Y-42869758D01*
X128545771Y-42922630D01*
X128556900Y-42973974D01*
X128556900Y-43836160D01*
X128564590Y-43862353D01*
X128568347Y-43879626D01*
X128572235Y-43906655D01*
X128572235Y-43906657D01*
X128583573Y-43931483D01*
X128589754Y-43948057D01*
X128597445Y-43974249D01*
X128597446Y-43974251D01*
X128597447Y-43974253D01*
X128612210Y-43997225D01*
X128620683Y-44012743D01*
X128632022Y-44037572D01*
X128649895Y-44058198D01*
X128660497Y-44072362D01*
X128675255Y-44095327D01*
X128695887Y-44113205D01*
X128708392Y-44125710D01*
X128726272Y-44146343D01*
X128749236Y-44161101D01*
X128763402Y-44171705D01*
X128784025Y-44189576D01*
X128784026Y-44189576D01*
X128784027Y-44189577D01*
X128808855Y-44200915D01*
X128824377Y-44209392D01*
X128847344Y-44224152D01*
X128873535Y-44231842D01*
X128890113Y-44238026D01*
X128910591Y-44247377D01*
X128914943Y-44249365D01*
X128941970Y-44253251D01*
X128959249Y-44257010D01*
X128985439Y-44264700D01*
X129021601Y-44264700D01*
X132547508Y-44264700D01*
X132609649Y-44264700D01*
X132617136Y-44264926D01*
X132897674Y-44281895D01*
X132912536Y-44283700D01*
X132990117Y-44297917D01*
X133185292Y-44333684D01*
X133199825Y-44337266D01*
X133464564Y-44419762D01*
X133478552Y-44425067D01*
X133731421Y-44538875D01*
X133744675Y-44545831D01*
X133758003Y-44553888D01*
X133981988Y-44689291D01*
X133994299Y-44697789D01*
X134212586Y-44868806D01*
X134223794Y-44878736D01*
X134419863Y-45074805D01*
X134429793Y-45086013D01*
X134600806Y-45304294D01*
X134609312Y-45316617D01*
X134752768Y-45553924D01*
X134759726Y-45567182D01*
X134861506Y-45793327D01*
X134873527Y-45820035D01*
X134878837Y-45834037D01*
X134961332Y-46098772D01*
X134964916Y-46113311D01*
X135014899Y-46386063D01*
X135016704Y-46400927D01*
X135033674Y-46681463D01*
X135033900Y-46688950D01*
X135033900Y-46767004D01*
X135033934Y-46767272D01*
X135046847Y-76828325D01*
X135027191Y-76895373D01*
X134974407Y-76941150D01*
X134905253Y-76951123D01*
X134841685Y-76922126D01*
X134835166Y-76916059D01*
X134166828Y-76247721D01*
X134133343Y-76186398D01*
X134138327Y-76116706D01*
X134166828Y-76072358D01*
X134298109Y-75941077D01*
X134433600Y-75747576D01*
X134533430Y-75533492D01*
X134590636Y-75320000D01*
X133693686Y-75320000D01*
X133719493Y-75279844D01*
X133760000Y-75141889D01*
X133760000Y-74998111D01*
X133719493Y-74860156D01*
X133693686Y-74820000D01*
X134590636Y-74820000D01*
X134590635Y-74819999D01*
X134533430Y-74606507D01*
X134433599Y-74392421D01*
X134298109Y-74198921D01*
X134131081Y-74031893D01*
X133945404Y-73901880D01*
X133901780Y-73847303D01*
X133894587Y-73777804D01*
X133926109Y-73715450D01*
X133945399Y-73698734D01*
X134131401Y-73568495D01*
X134298495Y-73401401D01*
X134434035Y-73207830D01*
X134533903Y-72993663D01*
X134595063Y-72765408D01*
X134615659Y-72530000D01*
X134595063Y-72294592D01*
X134533903Y-72066337D01*
X134434035Y-71852171D01*
X134298495Y-71658599D01*
X134131401Y-71491505D01*
X133945839Y-71361573D01*
X133902216Y-71306998D01*
X133895022Y-71237500D01*
X133926545Y-71175145D01*
X133945837Y-71158428D01*
X134131401Y-71028495D01*
X134298495Y-70861401D01*
X134434035Y-70667830D01*
X134533903Y-70453663D01*
X134595063Y-70225408D01*
X134615659Y-69990000D01*
X134595063Y-69754592D01*
X134533903Y-69526337D01*
X134434035Y-69312171D01*
X134298495Y-69118599D01*
X134131401Y-68951505D01*
X133945402Y-68821267D01*
X133901780Y-68766692D01*
X133894587Y-68697193D01*
X133926109Y-68634839D01*
X133945405Y-68618119D01*
X134131078Y-68488109D01*
X134298106Y-68321081D01*
X134433600Y-68127576D01*
X134533430Y-67913492D01*
X134590636Y-67700000D01*
X133693686Y-67700000D01*
X133719493Y-67659844D01*
X133760000Y-67521889D01*
X133760000Y-67378111D01*
X133719493Y-67240156D01*
X133693686Y-67200000D01*
X134590636Y-67200000D01*
X134590635Y-67199999D01*
X134533430Y-66986507D01*
X134433599Y-66772421D01*
X134298109Y-66578921D01*
X134131081Y-66411893D01*
X133945404Y-66281880D01*
X133901780Y-66227303D01*
X133894587Y-66157804D01*
X133926109Y-66095450D01*
X133945399Y-66078734D01*
X134131401Y-65948495D01*
X134298495Y-65781401D01*
X134434035Y-65587830D01*
X134533903Y-65373663D01*
X134595063Y-65145408D01*
X134615659Y-64910000D01*
X134608164Y-64824339D01*
X134595063Y-64674592D01*
X134590811Y-64658724D01*
X134533903Y-64446337D01*
X134434035Y-64232171D01*
X134298495Y-64038599D01*
X134131401Y-63871505D01*
X133945839Y-63741573D01*
X133902216Y-63686998D01*
X133895022Y-63617500D01*
X133926545Y-63555145D01*
X133945837Y-63538428D01*
X134131401Y-63408495D01*
X134298495Y-63241401D01*
X134434035Y-63047830D01*
X134533903Y-62833663D01*
X134595063Y-62605408D01*
X134615659Y-62370000D01*
X134595063Y-62134592D01*
X134533903Y-61906337D01*
X134434035Y-61692171D01*
X134298495Y-61498599D01*
X134131401Y-61331505D01*
X133945839Y-61201573D01*
X133902216Y-61146998D01*
X133895022Y-61077500D01*
X133926545Y-61015145D01*
X133945837Y-60998428D01*
X134131401Y-60868495D01*
X134298495Y-60701401D01*
X134434035Y-60507830D01*
X134533903Y-60293663D01*
X134595063Y-60065408D01*
X134615659Y-59830000D01*
X134595063Y-59594592D01*
X134533903Y-59366337D01*
X134434035Y-59152171D01*
X134298495Y-58958599D01*
X134131401Y-58791505D01*
X133945402Y-58661267D01*
X133901780Y-58606692D01*
X133894587Y-58537193D01*
X133926109Y-58474839D01*
X133945405Y-58458119D01*
X134131078Y-58328109D01*
X134298106Y-58161081D01*
X134433600Y-57967576D01*
X134533430Y-57753492D01*
X134590636Y-57540000D01*
X133693686Y-57540000D01*
X133719493Y-57499844D01*
X133760000Y-57361889D01*
X133760000Y-57218111D01*
X133719493Y-57080156D01*
X133693686Y-57040000D01*
X134590636Y-57040000D01*
X134590635Y-57039999D01*
X134533430Y-56826507D01*
X134433599Y-56612421D01*
X134298109Y-56418921D01*
X134131081Y-56251893D01*
X133945404Y-56121880D01*
X133901780Y-56067303D01*
X133894587Y-55997804D01*
X133926109Y-55935450D01*
X133945399Y-55918734D01*
X134131401Y-55788495D01*
X134298495Y-55621401D01*
X134434035Y-55427830D01*
X134533903Y-55213663D01*
X134595063Y-54985408D01*
X134615659Y-54750000D01*
X134595063Y-54514592D01*
X134533903Y-54286337D01*
X134434035Y-54072171D01*
X134298495Y-53878599D01*
X134131401Y-53711505D01*
X133945839Y-53581573D01*
X133902216Y-53526998D01*
X133895022Y-53457500D01*
X133926545Y-53395145D01*
X133945837Y-53378428D01*
X134131401Y-53248495D01*
X134298495Y-53081401D01*
X134434035Y-52887830D01*
X134533903Y-52673663D01*
X134595063Y-52445408D01*
X134615659Y-52210000D01*
X134595063Y-51974592D01*
X134533903Y-51746337D01*
X134434035Y-51532171D01*
X134298495Y-51338599D01*
X134131401Y-51171505D01*
X133937830Y-51035965D01*
X133723663Y-50936097D01*
X133662501Y-50919709D01*
X133495407Y-50874936D01*
X133259999Y-50854340D01*
X133024592Y-50874936D01*
X132796336Y-50936097D01*
X132582170Y-51035965D01*
X132388601Y-51171503D01*
X132266673Y-51293431D01*
X132205350Y-51326915D01*
X132135658Y-51321931D01*
X132079725Y-51280059D01*
X132062810Y-51249082D01*
X132035232Y-51175143D01*
X132013796Y-51117669D01*
X131927546Y-51002454D01*
X131812331Y-50916204D01*
X131677483Y-50865909D01*
X131677483Y-50865908D01*
X131621166Y-50859854D01*
X131621165Y-50859853D01*
X131617873Y-50859500D01*
X131614550Y-50859500D01*
X129825439Y-50859500D01*
X129825420Y-50859500D01*
X129822128Y-50859501D01*
X129818848Y-50859853D01*
X129818840Y-50859854D01*
X129762515Y-50865909D01*
X129627669Y-50916204D01*
X129512454Y-51002454D01*
X129426204Y-51117668D01*
X129393845Y-51204429D01*
X129375909Y-51252517D01*
X129369500Y-51312127D01*
X129369500Y-51315448D01*
X129369500Y-51315449D01*
X129369500Y-52807135D01*
X129349815Y-52874174D01*
X129297011Y-52919929D01*
X129227853Y-52929873D01*
X129195065Y-52920415D01*
X129112058Y-52883458D01*
X128938648Y-52846600D01*
X128938645Y-52846600D01*
X128761355Y-52846600D01*
X128761352Y-52846600D01*
X128587939Y-52883459D01*
X128425976Y-52955570D01*
X128282546Y-53059777D01*
X128163915Y-53191530D01*
X128075270Y-53345069D01*
X128020487Y-53513677D01*
X128020486Y-53513681D01*
X128001954Y-53690000D01*
X128020486Y-53866319D01*
X128020487Y-53866322D01*
X128075270Y-54034930D01*
X128163915Y-54188469D01*
X128254150Y-54288684D01*
X128284380Y-54351675D01*
X128286000Y-54371656D01*
X128286000Y-64466394D01*
X128284939Y-64482579D01*
X128281132Y-64511489D01*
X128286000Y-64548457D01*
X128300517Y-64658724D01*
X128357347Y-64795923D01*
X128447749Y-64913739D01*
X128470887Y-64931493D01*
X128483083Y-64942189D01*
X129812817Y-66271923D01*
X129846302Y-66333246D01*
X129841318Y-66402938D01*
X129812818Y-66447285D01*
X129681503Y-66578601D01*
X129545965Y-66772170D01*
X129446097Y-66986336D01*
X129384936Y-67214592D01*
X129364340Y-67450000D01*
X129384936Y-67685407D01*
X129417178Y-67805734D01*
X129446097Y-67913663D01*
X129545965Y-68127830D01*
X129681505Y-68321401D01*
X129848599Y-68488495D01*
X130034160Y-68618426D01*
X130077783Y-68673002D01*
X130084976Y-68742501D01*
X130053454Y-68804855D01*
X130034159Y-68821575D01*
X129848595Y-68951508D01*
X129681505Y-69118598D01*
X129545965Y-69312170D01*
X129446097Y-69526336D01*
X129384936Y-69754592D01*
X129364340Y-69990000D01*
X129384936Y-70225407D01*
X129419720Y-70355221D01*
X129446097Y-70453663D01*
X129545965Y-70667830D01*
X129681505Y-70861401D01*
X129848599Y-71028495D01*
X130034160Y-71158426D01*
X130077783Y-71213002D01*
X130084976Y-71282501D01*
X130053454Y-71344855D01*
X130034158Y-71361575D01*
X129851463Y-71489500D01*
X129848595Y-71491508D01*
X129681505Y-71658598D01*
X129545965Y-71852170D01*
X129446097Y-72066336D01*
X129384936Y-72294592D01*
X129364340Y-72529999D01*
X129384936Y-72765407D01*
X129420915Y-72899682D01*
X129446097Y-72993663D01*
X129545965Y-73207830D01*
X129681505Y-73401401D01*
X129848599Y-73568495D01*
X130034160Y-73698426D01*
X130077783Y-73753002D01*
X130084976Y-73822501D01*
X130053454Y-73884855D01*
X130034158Y-73901575D01*
X129921841Y-73980221D01*
X129848595Y-74031508D01*
X129681505Y-74198598D01*
X129545965Y-74392170D01*
X129446097Y-74606335D01*
X129403726Y-74764466D01*
X129367361Y-74824126D01*
X129304513Y-74854655D01*
X129235138Y-74846360D01*
X129181260Y-74801875D01*
X129169390Y-74779824D01*
X129163028Y-74764466D01*
X129122447Y-74666494D01*
X129105991Y-74645048D01*
X129032044Y-74548676D01*
X129008905Y-74530921D01*
X128996711Y-74520227D01*
X128019921Y-73543437D01*
X127986436Y-73482114D01*
X127991420Y-73412422D01*
X128033292Y-73356489D01*
X128061064Y-73343886D01*
X128060154Y-73341842D01*
X128234023Y-73264429D01*
X128377453Y-73160222D01*
X128446212Y-73083858D01*
X128496084Y-73028469D01*
X128584729Y-72874931D01*
X128639514Y-72706319D01*
X128658046Y-72530000D01*
X128639514Y-72353681D01*
X128584729Y-72185069D01*
X128524206Y-72080240D01*
X128496084Y-72031530D01*
X128377453Y-71899777D01*
X128234023Y-71795570D01*
X128072060Y-71723459D01*
X127898648Y-71686600D01*
X127898645Y-71686600D01*
X127721355Y-71686600D01*
X127721352Y-71686600D01*
X127547939Y-71723459D01*
X127385976Y-71795570D01*
X127242546Y-71899777D01*
X127123915Y-72031530D01*
X127035270Y-72185069D01*
X126999685Y-72294592D01*
X126980486Y-72353681D01*
X126961954Y-72530000D01*
X126980486Y-72706319D01*
X126980487Y-72706322D01*
X127035270Y-72874930D01*
X127051318Y-72902726D01*
X127067791Y-72970626D01*
X127044938Y-73036653D01*
X126990017Y-73079844D01*
X126943931Y-73088726D01*
X120880332Y-73088726D01*
X120864146Y-73087665D01*
X120835236Y-73083858D01*
X120798298Y-73088721D01*
X120798272Y-73088726D01*
X120798271Y-73088726D01*
X120743137Y-73095984D01*
X120688004Y-73103243D01*
X120550805Y-73160073D01*
X120432988Y-73250475D01*
X120415230Y-73273618D01*
X120404537Y-73285810D01*
X119952876Y-73737472D01*
X119891553Y-73770957D01*
X119865195Y-73773791D01*
X119782126Y-73773791D01*
X119608715Y-73810649D01*
X119535725Y-73843147D01*
X119466475Y-73852431D01*
X119403199Y-73822802D01*
X119377904Y-73791868D01*
X119328633Y-73706528D01*
X119317448Y-73687155D01*
X119198818Y-73555403D01*
X119055388Y-73451196D01*
X118893425Y-73379085D01*
X118720013Y-73342226D01*
X118720010Y-73342226D01*
X118542720Y-73342226D01*
X118542717Y-73342226D01*
X118369304Y-73379085D01*
X118207341Y-73451196D01*
X118063911Y-73555403D01*
X117945280Y-73687156D01*
X117856635Y-73840695D01*
X117811301Y-73980222D01*
X117801851Y-74009307D01*
X117783319Y-74185626D01*
X117801851Y-74361945D01*
X117801852Y-74361948D01*
X117856635Y-74530556D01*
X117945280Y-74684095D01*
X118063911Y-74815848D01*
X118207341Y-74920055D01*
X118369304Y-74992166D01*
X118542717Y-75029026D01*
X118542720Y-75029026D01*
X118720013Y-75029026D01*
X118893422Y-74992167D01*
X118893422Y-74992166D01*
X118893426Y-74992166D01*
X118966412Y-74959669D01*
X119035661Y-74950384D01*
X119098938Y-74980012D01*
X119124235Y-75010949D01*
X119184689Y-75115660D01*
X119303320Y-75247413D01*
X119446750Y-75351620D01*
X119608713Y-75423731D01*
X119782126Y-75460591D01*
X119782129Y-75460591D01*
X119959422Y-75460591D01*
X120145585Y-75421022D01*
X120145900Y-75422506D01*
X120200386Y-75415196D01*
X120263665Y-75444819D01*
X120299513Y-75499444D01*
X120335446Y-75610038D01*
X120424091Y-75763576D01*
X120542722Y-75895329D01*
X120686151Y-75999535D01*
X120704635Y-76007765D01*
X120757873Y-76053014D01*
X120778195Y-76119863D01*
X120759151Y-76187087D01*
X120727087Y-76221363D01*
X120582544Y-76326379D01*
X120467150Y-76454538D01*
X120407663Y-76491187D01*
X120337806Y-76489856D01*
X120282850Y-76454538D01*
X120167453Y-76326377D01*
X120024023Y-76222170D01*
X119862060Y-76150059D01*
X119688648Y-76113200D01*
X119688645Y-76113200D01*
X119511355Y-76113200D01*
X119511352Y-76113200D01*
X119337939Y-76150059D01*
X119175976Y-76222170D01*
X119097883Y-76278907D01*
X119032076Y-76302386D01*
X118964023Y-76286560D01*
X118952114Y-76278906D01*
X118874023Y-76222170D01*
X118712060Y-76150059D01*
X118538648Y-76113200D01*
X118538645Y-76113200D01*
X118361355Y-76113200D01*
X118361352Y-76113200D01*
X118187939Y-76150059D01*
X118025976Y-76222170D01*
X117882546Y-76326377D01*
X117763913Y-76458132D01*
X117749132Y-76483735D01*
X117698565Y-76531950D01*
X117629958Y-76545172D01*
X117565093Y-76519204D01*
X117554065Y-76509415D01*
X116247351Y-75202701D01*
X116213866Y-75141378D01*
X116211032Y-75115020D01*
X116211032Y-74306045D01*
X116230717Y-74239006D01*
X116283521Y-74193251D01*
X116309252Y-74184755D01*
X116406026Y-74164184D01*
X116441993Y-74156540D01*
X116603955Y-74084429D01*
X116676265Y-74031893D01*
X116747385Y-73980222D01*
X116817925Y-73901880D01*
X116866016Y-73848469D01*
X116954661Y-73694931D01*
X117009446Y-73526319D01*
X117027978Y-73350000D01*
X117009446Y-73173681D01*
X116954661Y-73005069D01*
X116948075Y-72993662D01*
X116866016Y-72851530D01*
X116747385Y-72719777D01*
X116603955Y-72615570D01*
X116441992Y-72543459D01*
X116309251Y-72515244D01*
X116247769Y-72482052D01*
X116213993Y-72420888D01*
X116211032Y-72393954D01*
X116211032Y-71590730D01*
X116230717Y-71523691D01*
X116283521Y-71477936D01*
X116309252Y-71469439D01*
X116314140Y-71468400D01*
X116314145Y-71468400D01*
X116487561Y-71431540D01*
X116487562Y-71431539D01*
X116487564Y-71431539D01*
X116649523Y-71359429D01*
X116792953Y-71255222D01*
X116806745Y-71239905D01*
X116911584Y-71123469D01*
X117000229Y-70969931D01*
X117055014Y-70801319D01*
X117073546Y-70625000D01*
X117055014Y-70448681D01*
X117000229Y-70280069D01*
X116911584Y-70126530D01*
X116792953Y-69994777D01*
X116649523Y-69890570D01*
X116487560Y-69818459D01*
X116309251Y-69780559D01*
X116247769Y-69747367D01*
X116213993Y-69686204D01*
X116211032Y-69659269D01*
X116211032Y-69362303D01*
X122551454Y-69362303D01*
X122569986Y-69538622D01*
X122569987Y-69538625D01*
X122624770Y-69707233D01*
X122713415Y-69860772D01*
X122832046Y-69992525D01*
X122975476Y-70096732D01*
X123137439Y-70168843D01*
X123310852Y-70205703D01*
X123310855Y-70205703D01*
X123488148Y-70205703D01*
X123618206Y-70178057D01*
X123661561Y-70168843D01*
X123823523Y-70096732D01*
X123862794Y-70068200D01*
X123966953Y-69992525D01*
X123969228Y-69989999D01*
X124085584Y-69860772D01*
X124174229Y-69707234D01*
X124229014Y-69538622D01*
X124247546Y-69362303D01*
X124229014Y-69185984D01*
X124174229Y-69017372D01*
X124173208Y-69015604D01*
X124085584Y-68863833D01*
X123966953Y-68732080D01*
X123823523Y-68627873D01*
X123661560Y-68555762D01*
X123488148Y-68518903D01*
X123488145Y-68518903D01*
X123310855Y-68518903D01*
X123310852Y-68518903D01*
X123137439Y-68555762D01*
X122975476Y-68627873D01*
X122832046Y-68732080D01*
X122713415Y-68863833D01*
X122624770Y-69017372D01*
X122569987Y-69185980D01*
X122569986Y-69185984D01*
X122551454Y-69362303D01*
X116211032Y-69362303D01*
X116211032Y-66900000D01*
X116976954Y-66900000D01*
X116995486Y-67076319D01*
X116995487Y-67076322D01*
X117050270Y-67244930D01*
X117138915Y-67398469D01*
X117257546Y-67530222D01*
X117400976Y-67634429D01*
X117562939Y-67706540D01*
X117736352Y-67743400D01*
X117736355Y-67743400D01*
X117913648Y-67743400D01*
X118046934Y-67715069D01*
X118087061Y-67706540D01*
X118249023Y-67634429D01*
X118380719Y-67538747D01*
X118392453Y-67530222D01*
X118511084Y-67398469D01*
X118531892Y-67362428D01*
X118599729Y-67244931D01*
X118654514Y-67076319D01*
X118673046Y-66900000D01*
X118670418Y-66875000D01*
X122551454Y-66875000D01*
X122569986Y-67051319D01*
X122569987Y-67051322D01*
X122624770Y-67219930D01*
X122713415Y-67373469D01*
X122832046Y-67505222D01*
X122975476Y-67609429D01*
X123137439Y-67681540D01*
X123310852Y-67718400D01*
X123310855Y-67718400D01*
X123488148Y-67718400D01*
X123618206Y-67690755D01*
X123661561Y-67681540D01*
X123823523Y-67609429D01*
X123823523Y-67609428D01*
X123966953Y-67505222D01*
X124085584Y-67373469D01*
X124174229Y-67219931D01*
X124229014Y-67051319D01*
X124247546Y-66875000D01*
X124229014Y-66698681D01*
X124217216Y-66662373D01*
X124215222Y-66592534D01*
X124251302Y-66532701D01*
X124314003Y-66501873D01*
X124383417Y-66509838D01*
X124408033Y-66523739D01*
X124525976Y-66609429D01*
X124687939Y-66681540D01*
X124861352Y-66718400D01*
X124861355Y-66718400D01*
X125038648Y-66718400D01*
X125212059Y-66681541D01*
X125326992Y-66630369D01*
X125372682Y-66610025D01*
X125441932Y-66600741D01*
X125505208Y-66630369D01*
X125542422Y-66689503D01*
X125541757Y-66759370D01*
X125503426Y-66817786D01*
X125496004Y-66823623D01*
X125379145Y-66908526D01*
X125260515Y-67040277D01*
X125171870Y-67193816D01*
X125117087Y-67362424D01*
X125117086Y-67362428D01*
X125098554Y-67538747D01*
X125117086Y-67715066D01*
X125117087Y-67715069D01*
X125171870Y-67883677D01*
X125260515Y-68037216D01*
X125379146Y-68168969D01*
X125522576Y-68273176D01*
X125684539Y-68345287D01*
X125857952Y-68382147D01*
X125857955Y-68382147D01*
X126035248Y-68382147D01*
X126165306Y-68354501D01*
X126208661Y-68345287D01*
X126370623Y-68273176D01*
X126514054Y-68168968D01*
X126632684Y-68037216D01*
X126721329Y-67883678D01*
X126776114Y-67715066D01*
X126794646Y-67538747D01*
X126776114Y-67362428D01*
X126721329Y-67193816D01*
X126653494Y-67076322D01*
X126632684Y-67040277D01*
X126514053Y-66908524D01*
X126469518Y-66876168D01*
X126426852Y-66820838D01*
X126420873Y-66751225D01*
X126453479Y-66689430D01*
X126491969Y-66662569D01*
X126499023Y-66659429D01*
X126539021Y-66630369D01*
X126642453Y-66555222D01*
X126670801Y-66523739D01*
X126761084Y-66423469D01*
X126849729Y-66269931D01*
X126904514Y-66101319D01*
X126923046Y-65925000D01*
X126904514Y-65748681D01*
X126849729Y-65580069D01*
X126820862Y-65530069D01*
X126761084Y-65426530D01*
X126642453Y-65294777D01*
X126499023Y-65190570D01*
X126337060Y-65118459D01*
X126163648Y-65081600D01*
X126163645Y-65081600D01*
X125986355Y-65081600D01*
X125986352Y-65081600D01*
X125812939Y-65118458D01*
X125650978Y-65190569D01*
X125619792Y-65213227D01*
X125553985Y-65236705D01*
X125485932Y-65220878D01*
X125474024Y-65213225D01*
X125374023Y-65140570D01*
X125212060Y-65068459D01*
X125038648Y-65031600D01*
X125038645Y-65031600D01*
X124861355Y-65031600D01*
X124861352Y-65031600D01*
X124687939Y-65068459D01*
X124525976Y-65140570D01*
X124382546Y-65244777D01*
X124263915Y-65376530D01*
X124175270Y-65530069D01*
X124120487Y-65698677D01*
X124120486Y-65698681D01*
X124101954Y-65875000D01*
X124120486Y-66051319D01*
X124120487Y-66051322D01*
X124132282Y-66087625D01*
X124134277Y-66157466D01*
X124098196Y-66217299D01*
X124035494Y-66248126D01*
X123966080Y-66240161D01*
X123941466Y-66226260D01*
X123823523Y-66140570D01*
X123661560Y-66068459D01*
X123488148Y-66031600D01*
X123488145Y-66031600D01*
X123310855Y-66031600D01*
X123310852Y-66031600D01*
X123137439Y-66068459D01*
X122975476Y-66140570D01*
X122832046Y-66244777D01*
X122713415Y-66376530D01*
X122624770Y-66530069D01*
X122572968Y-66689503D01*
X122569986Y-66698681D01*
X122551454Y-66875000D01*
X118670418Y-66875000D01*
X118654514Y-66723681D01*
X118599729Y-66555069D01*
X118570949Y-66505221D01*
X118511084Y-66401530D01*
X118392453Y-66269777D01*
X118249023Y-66165570D01*
X118087060Y-66093459D01*
X117913648Y-66056600D01*
X117913645Y-66056600D01*
X117736355Y-66056600D01*
X117736352Y-66056600D01*
X117562939Y-66093459D01*
X117400976Y-66165570D01*
X117257546Y-66269777D01*
X117138915Y-66401530D01*
X117050270Y-66555069D01*
X116998788Y-66713518D01*
X116995486Y-66723681D01*
X116976954Y-66900000D01*
X116211032Y-66900000D01*
X116211032Y-62491932D01*
X123893886Y-62491932D01*
X123912418Y-62668251D01*
X123912419Y-62668254D01*
X123967202Y-62836862D01*
X124055847Y-62990401D01*
X124174478Y-63122154D01*
X124317908Y-63226361D01*
X124479871Y-63298472D01*
X124653284Y-63335332D01*
X124653287Y-63335332D01*
X124830580Y-63335332D01*
X124960638Y-63307686D01*
X125003993Y-63298472D01*
X125165955Y-63226361D01*
X125223258Y-63184728D01*
X125309385Y-63122154D01*
X125428016Y-62990401D01*
X125497529Y-62870000D01*
X125516661Y-62836863D01*
X125571446Y-62668251D01*
X125589978Y-62491932D01*
X125571446Y-62315613D01*
X125516661Y-62147001D01*
X125475853Y-62076319D01*
X125428016Y-61993462D01*
X125309385Y-61861709D01*
X125165955Y-61757502D01*
X125003992Y-61685391D01*
X124830580Y-61648532D01*
X124830577Y-61648532D01*
X124653287Y-61648532D01*
X124653284Y-61648532D01*
X124479871Y-61685391D01*
X124317908Y-61757502D01*
X124174478Y-61861709D01*
X124055847Y-61993462D01*
X123967202Y-62147001D01*
X123912419Y-62315609D01*
X123912418Y-62315613D01*
X123893886Y-62491932D01*
X116211032Y-62491932D01*
X116211032Y-59750844D01*
X118808940Y-59750844D01*
X118827472Y-59927163D01*
X118827473Y-59927166D01*
X118882256Y-60095774D01*
X118970901Y-60249313D01*
X119089531Y-60381064D01*
X119089532Y-60381065D01*
X119128826Y-60409614D01*
X119171492Y-60464942D01*
X119179263Y-60496970D01*
X119195486Y-60651322D01*
X119250270Y-60819930D01*
X119338915Y-60973469D01*
X119457546Y-61105222D01*
X119600976Y-61209429D01*
X119762939Y-61281540D01*
X119936352Y-61318400D01*
X119936355Y-61318400D01*
X120113648Y-61318400D01*
X120243706Y-61290754D01*
X120287061Y-61281540D01*
X120449023Y-61209429D01*
X120482427Y-61185160D01*
X120592453Y-61105222D01*
X120603045Y-61093459D01*
X120711084Y-60973469D01*
X120799729Y-60819931D01*
X120854514Y-60651319D01*
X120873046Y-60475000D01*
X120854514Y-60298681D01*
X120799729Y-60130069D01*
X120787258Y-60108469D01*
X120711084Y-59976530D01*
X120592455Y-59844779D01*
X120553157Y-59816228D01*
X120510492Y-59760898D01*
X120502723Y-59728876D01*
X120490229Y-59610000D01*
X123991954Y-59610000D01*
X124010486Y-59786319D01*
X124010487Y-59786322D01*
X124065270Y-59954930D01*
X124153915Y-60108469D01*
X124272546Y-60240222D01*
X124415976Y-60344429D01*
X124577939Y-60416540D01*
X124751352Y-60453400D01*
X124751355Y-60453400D01*
X124928647Y-60453400D01*
X125093703Y-60418317D01*
X125163371Y-60423633D01*
X125219104Y-60465770D01*
X125226871Y-60477608D01*
X125238914Y-60498467D01*
X125357546Y-60630222D01*
X125500976Y-60734429D01*
X125662939Y-60806540D01*
X125836352Y-60843400D01*
X125836355Y-60843400D01*
X126013648Y-60843400D01*
X126143707Y-60815754D01*
X126187061Y-60806540D01*
X126349023Y-60734429D01*
X126394481Y-60701402D01*
X126492453Y-60630222D01*
X126611084Y-60498469D01*
X126629963Y-60465770D01*
X126699729Y-60344931D01*
X126754514Y-60176319D01*
X126773046Y-60000000D01*
X126754514Y-59823681D01*
X126699729Y-59655069D01*
X126699728Y-59655068D01*
X126611084Y-59501530D01*
X126492453Y-59369777D01*
X126349023Y-59265570D01*
X126187060Y-59193459D01*
X126013648Y-59156600D01*
X126013645Y-59156600D01*
X125836355Y-59156600D01*
X125805144Y-59163233D01*
X125671295Y-59191683D01*
X125601628Y-59186366D01*
X125545894Y-59144228D01*
X125538127Y-59132390D01*
X125526084Y-59111530D01*
X125407453Y-58979777D01*
X125264023Y-58875570D01*
X125102060Y-58803459D01*
X124928648Y-58766600D01*
X124928645Y-58766600D01*
X124751355Y-58766600D01*
X124751352Y-58766600D01*
X124577939Y-58803459D01*
X124415976Y-58875570D01*
X124272546Y-58979777D01*
X124153915Y-59111530D01*
X124065270Y-59265069D01*
X124019508Y-59405913D01*
X124010486Y-59433681D01*
X123991954Y-59610000D01*
X120490229Y-59610000D01*
X120486500Y-59574525D01*
X120431715Y-59405913D01*
X120408865Y-59366336D01*
X120343070Y-59252374D01*
X120224439Y-59120621D01*
X120081009Y-59016414D01*
X119919046Y-58944303D01*
X119745634Y-58907444D01*
X119745631Y-58907444D01*
X119568341Y-58907444D01*
X119568338Y-58907444D01*
X119394925Y-58944303D01*
X119232962Y-59016414D01*
X119089532Y-59120621D01*
X118970901Y-59252374D01*
X118882256Y-59405913D01*
X118827473Y-59574521D01*
X118827472Y-59574525D01*
X118808940Y-59750844D01*
X116211032Y-59750844D01*
X116211032Y-57510000D01*
X118411954Y-57510000D01*
X118430486Y-57686319D01*
X118430487Y-57686322D01*
X118485270Y-57854930D01*
X118573915Y-58008469D01*
X118692546Y-58140222D01*
X118835976Y-58244429D01*
X118997939Y-58316540D01*
X119171352Y-58353400D01*
X119171355Y-58353400D01*
X119348648Y-58353400D01*
X119478706Y-58325754D01*
X119522061Y-58316540D01*
X119684023Y-58244429D01*
X119798302Y-58161401D01*
X119827453Y-58140222D01*
X119954805Y-57998784D01*
X119956721Y-58000509D01*
X119993833Y-57965114D01*
X120062438Y-57951881D01*
X120127307Y-57977839D01*
X120158055Y-58013319D01*
X120163915Y-58023468D01*
X120282546Y-58155222D01*
X120425976Y-58259429D01*
X120587939Y-58331540D01*
X120761352Y-58368400D01*
X120761355Y-58368400D01*
X120938648Y-58368400D01*
X121068707Y-58340754D01*
X121112061Y-58331540D01*
X121274023Y-58259429D01*
X121408948Y-58161401D01*
X121417453Y-58155222D01*
X121536084Y-58023469D01*
X121568207Y-57967830D01*
X121624729Y-57869931D01*
X121679514Y-57701319D01*
X121698046Y-57525000D01*
X121679514Y-57348681D01*
X121675843Y-57337382D01*
X122114572Y-57337382D01*
X122133104Y-57513701D01*
X122133105Y-57513704D01*
X122187888Y-57682312D01*
X122276533Y-57835851D01*
X122395164Y-57967604D01*
X122538594Y-58071811D01*
X122700557Y-58143922D01*
X122873970Y-58180782D01*
X122873973Y-58180782D01*
X123051266Y-58180782D01*
X123181325Y-58153137D01*
X123224679Y-58143922D01*
X123386641Y-58071811D01*
X123467149Y-58013319D01*
X123530071Y-57967604D01*
X123648702Y-57835851D01*
X123696252Y-57753492D01*
X123737347Y-57682313D01*
X123792132Y-57513701D01*
X123810664Y-57337382D01*
X123792132Y-57161063D01*
X123737347Y-56992451D01*
X123710601Y-56946126D01*
X123648702Y-56838912D01*
X123530071Y-56707159D01*
X123386641Y-56602952D01*
X123224678Y-56530841D01*
X123051266Y-56493982D01*
X123051263Y-56493982D01*
X122873973Y-56493982D01*
X122873970Y-56493982D01*
X122700557Y-56530841D01*
X122538594Y-56602952D01*
X122395164Y-56707159D01*
X122276533Y-56838912D01*
X122187888Y-56992451D01*
X122133105Y-57161059D01*
X122133104Y-57161063D01*
X122114572Y-57337382D01*
X121675843Y-57337382D01*
X121624729Y-57180069D01*
X121576747Y-57096961D01*
X121536084Y-57026530D01*
X121417453Y-56894777D01*
X121274023Y-56790570D01*
X121112060Y-56718459D01*
X120938648Y-56681600D01*
X120938645Y-56681600D01*
X120761355Y-56681600D01*
X120761352Y-56681600D01*
X120587939Y-56718459D01*
X120425976Y-56790570D01*
X120282546Y-56894777D01*
X120155195Y-57036216D01*
X120153279Y-57034491D01*
X120116146Y-57069896D01*
X120047538Y-57083116D01*
X119982675Y-57057146D01*
X119951943Y-57021678D01*
X119946084Y-57011531D01*
X119827453Y-56879777D01*
X119684023Y-56775570D01*
X119522060Y-56703459D01*
X119348648Y-56666600D01*
X119348645Y-56666600D01*
X119171355Y-56666600D01*
X119171352Y-56666600D01*
X118997939Y-56703459D01*
X118835976Y-56775570D01*
X118692546Y-56879777D01*
X118573915Y-57011530D01*
X118485270Y-57165069D01*
X118430487Y-57333677D01*
X118430486Y-57333681D01*
X118411954Y-57510000D01*
X116211032Y-57510000D01*
X116211032Y-56597784D01*
X116212093Y-56581598D01*
X116215899Y-56552689D01*
X116211873Y-56522108D01*
X116196515Y-56405456D01*
X116139685Y-56268257D01*
X116071981Y-56180022D01*
X116071980Y-56180021D01*
X116049282Y-56150440D01*
X116026146Y-56132687D01*
X116013951Y-56121992D01*
X111255101Y-51363142D01*
X111221616Y-51301819D01*
X111226600Y-51232127D01*
X111268472Y-51176194D01*
X111333936Y-51151777D01*
X111402209Y-51166629D01*
X111415668Y-51175143D01*
X111455977Y-51204429D01*
X111455978Y-51204429D01*
X111455979Y-51204430D01*
X111617939Y-51276540D01*
X111791352Y-51313400D01*
X111791355Y-51313400D01*
X111968648Y-51313400D01*
X112098707Y-51285754D01*
X112142061Y-51276540D01*
X112145520Y-51275000D01*
X115076954Y-51275000D01*
X115095486Y-51451319D01*
X115095487Y-51451322D01*
X115150270Y-51619930D01*
X115238915Y-51773469D01*
X115357546Y-51905222D01*
X115500976Y-52009429D01*
X115662935Y-52081539D01*
X115662938Y-52081539D01*
X115662939Y-52081540D01*
X115664445Y-52081860D01*
X115668155Y-52083863D01*
X115674846Y-52086842D01*
X115674618Y-52087352D01*
X115725928Y-52115052D01*
X115759705Y-52176215D01*
X115755053Y-52245929D01*
X115730816Y-52286123D01*
X115653915Y-52371530D01*
X115565270Y-52525069D01*
X115516990Y-52673663D01*
X115510486Y-52693681D01*
X115493566Y-52854664D01*
X115490592Y-52882961D01*
X115489372Y-52882832D01*
X115479295Y-52937921D01*
X115441433Y-52982463D01*
X115362550Y-53039775D01*
X115362547Y-53039778D01*
X115362546Y-53039779D01*
X115356655Y-53046322D01*
X115243913Y-53171533D01*
X115155270Y-53325069D01*
X115104931Y-53480000D01*
X115100486Y-53493681D01*
X115081954Y-53670000D01*
X115100486Y-53846319D01*
X115100487Y-53846322D01*
X115155270Y-54014930D01*
X115243915Y-54168469D01*
X115362546Y-54300222D01*
X115505976Y-54404429D01*
X115667939Y-54476540D01*
X115841352Y-54513400D01*
X115841355Y-54513400D01*
X116018648Y-54513400D01*
X116148707Y-54485754D01*
X116192061Y-54476540D01*
X116354023Y-54404429D01*
X116354023Y-54404428D01*
X116497453Y-54300222D01*
X116616084Y-54168469D01*
X116651120Y-54107784D01*
X116704729Y-54014931D01*
X116759514Y-53846319D01*
X116778046Y-53670000D01*
X116778045Y-53669997D01*
X116779408Y-53657038D01*
X116780628Y-53657166D01*
X116790699Y-53602087D01*
X116828568Y-53557534D01*
X116835070Y-53552810D01*
X116907454Y-53500221D01*
X117026084Y-53368469D01*
X117114729Y-53214931D01*
X117169514Y-53046319D01*
X117188046Y-52870000D01*
X117169514Y-52693681D01*
X117114729Y-52525069D01*
X117068737Y-52445408D01*
X117026084Y-52371530D01*
X116907453Y-52239777D01*
X116764023Y-52135570D01*
X116602058Y-52063458D01*
X116600547Y-52063137D01*
X116596833Y-52061131D01*
X116590154Y-52058158D01*
X116590381Y-52057648D01*
X116539067Y-52029942D01*
X116505293Y-51968778D01*
X116509948Y-51899063D01*
X116534180Y-51858878D01*
X116611084Y-51773469D01*
X116699729Y-51619931D01*
X116754514Y-51451319D01*
X116773046Y-51275000D01*
X116754514Y-51098681D01*
X116699729Y-50930069D01*
X116667034Y-50873439D01*
X116611084Y-50776530D01*
X116492453Y-50644777D01*
X116349023Y-50540570D01*
X116187060Y-50468459D01*
X116013648Y-50431600D01*
X116013645Y-50431600D01*
X115836355Y-50431600D01*
X115836352Y-50431600D01*
X115662939Y-50468459D01*
X115500976Y-50540570D01*
X115357546Y-50644777D01*
X115238915Y-50776530D01*
X115150270Y-50930069D01*
X115095487Y-51098677D01*
X115095486Y-51098681D01*
X115076954Y-51275000D01*
X112145520Y-51275000D01*
X112304023Y-51204429D01*
X112304022Y-51204428D01*
X112447453Y-51100222D01*
X112566084Y-50968469D01*
X112605430Y-50900319D01*
X112654729Y-50814931D01*
X112709514Y-50646319D01*
X112728046Y-50470000D01*
X112709514Y-50293681D01*
X112654729Y-50125069D01*
X112654729Y-50125068D01*
X112566084Y-49971530D01*
X112447453Y-49839777D01*
X112304023Y-49735570D01*
X112142060Y-49663459D01*
X111968648Y-49626600D01*
X111968645Y-49626600D01*
X111791355Y-49626600D01*
X111791352Y-49626600D01*
X111617939Y-49663459D01*
X111455976Y-49735570D01*
X111312546Y-49839777D01*
X111193915Y-49971530D01*
X111105270Y-50125069D01*
X111050697Y-50293031D01*
X111050486Y-50293681D01*
X111031954Y-50470000D01*
X111050486Y-50646319D01*
X111050487Y-50646322D01*
X111105270Y-50814930D01*
X111178532Y-50941824D01*
X111195005Y-51009724D01*
X111172152Y-51075751D01*
X111117231Y-51118942D01*
X111047678Y-51125583D01*
X110985575Y-51093567D01*
X110983464Y-51091505D01*
X109825038Y-49933079D01*
X109814342Y-49920883D01*
X109796591Y-49897749D01*
X109725347Y-49843083D01*
X109721041Y-49839779D01*
X109678775Y-49807347D01*
X109541576Y-49750517D01*
X109524446Y-49748261D01*
X109394342Y-49731132D01*
X109368861Y-49734487D01*
X109365431Y-49734939D01*
X109349248Y-49736000D01*
X107735093Y-49736000D01*
X107718907Y-49734939D01*
X107689997Y-49731132D01*
X107653055Y-49735995D01*
X107653032Y-49736000D01*
X107538552Y-49751071D01*
X107515438Y-49757264D01*
X107512768Y-49757615D01*
X107375566Y-49814447D01*
X107257749Y-49904849D01*
X107167347Y-50022666D01*
X107167347Y-50022667D01*
X107110517Y-50159866D01*
X107096000Y-50270132D01*
X107096000Y-50274185D01*
X107096000Y-50284904D01*
X107094939Y-50301089D01*
X107091132Y-50329999D01*
X107096000Y-50366967D01*
X107110517Y-50477234D01*
X107167347Y-50614433D01*
X107257749Y-50732250D01*
X107315457Y-50776530D01*
X107375566Y-50822653D01*
X107501791Y-50874937D01*
X107512766Y-50879483D01*
X107640615Y-50896314D01*
X107659999Y-50898867D01*
X107659999Y-50898866D01*
X107660000Y-50898867D01*
X107807234Y-50879483D01*
X107821825Y-50873438D01*
X107869278Y-50864000D01*
X109109363Y-50864000D01*
X109176402Y-50883685D01*
X109197044Y-50900319D01*
X112985689Y-54688964D01*
X113019174Y-54750287D01*
X113014190Y-54819979D01*
X112972318Y-54875912D01*
X112906854Y-54900329D01*
X112847572Y-54889924D01*
X112687060Y-54818459D01*
X112513648Y-54781600D01*
X112513645Y-54781600D01*
X112336355Y-54781600D01*
X112336352Y-54781600D01*
X112162939Y-54818459D01*
X112000976Y-54890570D01*
X111857546Y-54994777D01*
X111738915Y-55126530D01*
X111650270Y-55280069D01*
X111599658Y-55435840D01*
X111595486Y-55448681D01*
X111576954Y-55625000D01*
X111595486Y-55801319D01*
X111595487Y-55801322D01*
X111650270Y-55969930D01*
X111738915Y-56123469D01*
X111857546Y-56255222D01*
X112000976Y-56359429D01*
X112162939Y-56431540D01*
X112336352Y-56468400D01*
X112336355Y-56468400D01*
X112513648Y-56468400D01*
X112658790Y-56437549D01*
X112687061Y-56431540D01*
X112849023Y-56359429D01*
X112849022Y-56359428D01*
X112992453Y-56255222D01*
X112995451Y-56251893D01*
X113111084Y-56123469D01*
X113199729Y-55969931D01*
X113254514Y-55801319D01*
X113273046Y-55625000D01*
X113254514Y-55448681D01*
X113199729Y-55280069D01*
X113155585Y-55203609D01*
X113139112Y-55135709D01*
X113161964Y-55069682D01*
X113216886Y-55026491D01*
X113286439Y-55019850D01*
X113348542Y-55051866D01*
X113350653Y-55053928D01*
X115046712Y-56749987D01*
X115080197Y-56811310D01*
X115083031Y-56837668D01*
X115083031Y-60955418D01*
X115063346Y-61022457D01*
X115010542Y-61068212D01*
X114941384Y-61078156D01*
X114933251Y-61076708D01*
X114838648Y-61056600D01*
X114838645Y-61056600D01*
X114661355Y-61056600D01*
X114661352Y-61056600D01*
X114487939Y-61093459D01*
X114325976Y-61165570D01*
X114182546Y-61269777D01*
X114063915Y-61401530D01*
X113975270Y-61555069D01*
X113930724Y-61692170D01*
X113920486Y-61723681D01*
X113901954Y-61900000D01*
X113920486Y-62076319D01*
X113920487Y-62076322D01*
X113968791Y-62224990D01*
X113970786Y-62294831D01*
X113934705Y-62354663D01*
X113872004Y-62385491D01*
X113802590Y-62377526D01*
X113801960Y-62377258D01*
X113735863Y-62348893D01*
X113546605Y-62310000D01*
X113100000Y-62310000D01*
X113100000Y-63010000D01*
X112599999Y-63010000D01*
X112600000Y-62310000D01*
X112204967Y-62310000D01*
X112198701Y-62310317D01*
X112057777Y-62324648D01*
X111873430Y-62382488D01*
X111704496Y-62476253D01*
X111557895Y-62602105D01*
X111439631Y-62754890D01*
X111354541Y-62928358D01*
X111333403Y-63010000D01*
X112225376Y-63010000D01*
X112152455Y-63024505D01*
X112069760Y-63079760D01*
X112014505Y-63162455D01*
X111995102Y-63260000D01*
X112014505Y-63357545D01*
X112069760Y-63440240D01*
X112152455Y-63495495D01*
X112225376Y-63510000D01*
X111329529Y-63510000D01*
X111392685Y-63680530D01*
X111494890Y-63844501D01*
X111628004Y-63984536D01*
X111664101Y-64009661D01*
X111707879Y-64064115D01*
X111715267Y-64133593D01*
X111685418Y-64194401D01*
X111678479Y-64202107D01*
X111652247Y-64247542D01*
X111647495Y-64255126D01*
X111616359Y-64301049D01*
X111608553Y-64320639D01*
X111600752Y-64336732D01*
X111591714Y-64352387D01*
X111574442Y-64405546D01*
X111571706Y-64413120D01*
X111550481Y-64466394D01*
X111549899Y-64467854D01*
X111547044Y-64485267D01*
X111542610Y-64503517D01*
X111538091Y-64517424D01*
X111531890Y-64576414D01*
X111530937Y-64583507D01*
X111520849Y-64645047D01*
X111521617Y-64659219D01*
X111521121Y-64678880D01*
X111519952Y-64690001D01*
X111526511Y-64752410D01*
X111527008Y-64758655D01*
X111530432Y-64821796D01*
X111514406Y-64889803D01*
X111479502Y-64928826D01*
X111457550Y-64944776D01*
X111457546Y-64944779D01*
X111395866Y-65013281D01*
X111338913Y-65076533D01*
X111250270Y-65230069D01*
X111195487Y-65398677D01*
X111195486Y-65398681D01*
X111176954Y-65575000D01*
X111195486Y-65751319D01*
X111195487Y-65751322D01*
X111250270Y-65919930D01*
X111338915Y-66073469D01*
X111457546Y-66205222D01*
X111579023Y-66293480D01*
X111621689Y-66348810D01*
X111627668Y-66418423D01*
X111595062Y-66480218D01*
X111579024Y-66494116D01*
X111459927Y-66580644D01*
X111341298Y-66712395D01*
X111252653Y-66865934D01*
X111202917Y-67019010D01*
X111197869Y-67034546D01*
X111179337Y-67210865D01*
X111197869Y-67387184D01*
X111197870Y-67387187D01*
X111252652Y-67555794D01*
X111289009Y-67618766D01*
X111305481Y-67686666D01*
X111289009Y-67742764D01*
X111252652Y-67805735D01*
X111210757Y-67934680D01*
X111197869Y-67974346D01*
X111179337Y-68150665D01*
X111197869Y-68326984D01*
X111197870Y-68326987D01*
X111252653Y-68495595D01*
X111341298Y-68649134D01*
X111459926Y-68780884D01*
X111459929Y-68780886D01*
X111536680Y-68836648D01*
X111579345Y-68891977D01*
X111585324Y-68961590D01*
X111552719Y-69023386D01*
X111536680Y-69037284D01*
X111457545Y-69094779D01*
X111338915Y-69226530D01*
X111250270Y-69380069D01*
X111202746Y-69526336D01*
X111195486Y-69548681D01*
X111176954Y-69725000D01*
X111195486Y-69901319D01*
X111195487Y-69901322D01*
X111250270Y-70069930D01*
X111338915Y-70223469D01*
X111457545Y-70355220D01*
X111468813Y-70363407D01*
X111511480Y-70418737D01*
X111516645Y-70457247D01*
X111518591Y-70457043D01*
X111526511Y-70532410D01*
X111527008Y-70538653D01*
X111530570Y-70604338D01*
X111533446Y-70614695D01*
X111537284Y-70634895D01*
X111538092Y-70642576D01*
X111538092Y-70642578D01*
X111538093Y-70642580D01*
X111558540Y-70705511D01*
X111560083Y-70710634D01*
X111567770Y-70738321D01*
X111578606Y-70777350D01*
X111578607Y-70777351D01*
X111582021Y-70783790D01*
X111590395Y-70803551D01*
X111591715Y-70807614D01*
X111626527Y-70867910D01*
X111628695Y-70871827D01*
X111662712Y-70935990D01*
X111665195Y-70938913D01*
X111678070Y-70957183D01*
X111678477Y-70957889D01*
X111685289Y-70965454D01*
X111715519Y-71028446D01*
X111706894Y-71097781D01*
X111673909Y-71142512D01*
X111557895Y-71242105D01*
X111439631Y-71394890D01*
X111354541Y-71568358D01*
X111333403Y-71650000D01*
X112225376Y-71650000D01*
X112152455Y-71664505D01*
X112069760Y-71719760D01*
X112014505Y-71802455D01*
X111995102Y-71900000D01*
X112014505Y-71997545D01*
X112069760Y-72080240D01*
X112152455Y-72135495D01*
X112225376Y-72150000D01*
X111329529Y-72150000D01*
X111392685Y-72320530D01*
X111494890Y-72484501D01*
X111628003Y-72624535D01*
X111786585Y-72734912D01*
X111964137Y-72811106D01*
X112153395Y-72850000D01*
X112599999Y-72850000D01*
X112600000Y-72150000D01*
X113100000Y-72150000D01*
X113100000Y-72850000D01*
X113495033Y-72850000D01*
X113501298Y-72849682D01*
X113642222Y-72835351D01*
X113826569Y-72777511D01*
X113995503Y-72683746D01*
X114142104Y-72557894D01*
X114260368Y-72405109D01*
X114345458Y-72231641D01*
X114366597Y-72150000D01*
X113474624Y-72150000D01*
X113547545Y-72135495D01*
X113630240Y-72080240D01*
X113685495Y-71997545D01*
X113704898Y-71900000D01*
X113685495Y-71802455D01*
X113630240Y-71719760D01*
X113547545Y-71664505D01*
X113474624Y-71650000D01*
X114370471Y-71650000D01*
X114370471Y-71649999D01*
X114307314Y-71479469D01*
X114205109Y-71315498D01*
X114071996Y-71175464D01*
X113913414Y-71065087D01*
X113735862Y-70988893D01*
X113546605Y-70950000D01*
X113232692Y-70950000D01*
X113165653Y-70930315D01*
X113119898Y-70877511D01*
X113109954Y-70808353D01*
X113114760Y-70787685D01*
X113125557Y-70754452D01*
X113128297Y-70746867D01*
X113150101Y-70692146D01*
X113152954Y-70674740D01*
X113157392Y-70656472D01*
X113161908Y-70642576D01*
X113168111Y-70583551D01*
X113169057Y-70576512D01*
X113179150Y-70514955D01*
X113178381Y-70500778D01*
X113178878Y-70481113D01*
X113180047Y-70470000D01*
X113173483Y-70407555D01*
X113172991Y-70401363D01*
X113169429Y-70335661D01*
X113166553Y-70325304D01*
X113162714Y-70305101D01*
X113161908Y-70297424D01*
X113141459Y-70234489D01*
X113139911Y-70229349D01*
X113138817Y-70225407D01*
X113121393Y-70162649D01*
X113117979Y-70156210D01*
X113109605Y-70136447D01*
X113108286Y-70132389D01*
X113104903Y-70126530D01*
X113073467Y-70072084D01*
X113071318Y-70068200D01*
X113037288Y-70004011D01*
X113037286Y-70004009D01*
X113037286Y-70004008D01*
X113034804Y-70001087D01*
X113021928Y-69982814D01*
X113021522Y-69982111D01*
X112972649Y-69927832D01*
X112970299Y-69925144D01*
X112921045Y-69867157D01*
X112920746Y-69866930D01*
X112903655Y-69851205D01*
X112901323Y-69848616D01*
X112871082Y-69785630D01*
X112870138Y-69752662D01*
X112873046Y-69725000D01*
X112871179Y-69707234D01*
X112854514Y-69548681D01*
X112799729Y-69380069D01*
X112760528Y-69312170D01*
X112711084Y-69226530D01*
X112592453Y-69094777D01*
X112515703Y-69039016D01*
X112473037Y-68983687D01*
X112467058Y-68914073D01*
X112499663Y-68852278D01*
X112515697Y-68838384D01*
X112594837Y-68780886D01*
X112607618Y-68766692D01*
X112713467Y-68649134D01*
X112731373Y-68618119D01*
X112802112Y-68495596D01*
X112856897Y-68326984D01*
X112875429Y-68150665D01*
X112856897Y-67974346D01*
X112819473Y-67859167D01*
X112802112Y-67805733D01*
X112765757Y-67742766D01*
X112749283Y-67674866D01*
X112765757Y-67618764D01*
X112802112Y-67555796D01*
X112802113Y-67555794D01*
X112856897Y-67387184D01*
X112875429Y-67210865D01*
X112856897Y-67034546D01*
X112802112Y-66865934D01*
X112766538Y-66804318D01*
X112713467Y-66712395D01*
X112594838Y-66580644D01*
X112473358Y-66492384D01*
X112430693Y-66437054D01*
X112424714Y-66367441D01*
X112457320Y-66305646D01*
X112473351Y-66291753D01*
X112592454Y-66205221D01*
X112594629Y-66202806D01*
X112711084Y-66073469D01*
X112713976Y-66068460D01*
X112799729Y-65919931D01*
X112854514Y-65751319D01*
X112873046Y-65575000D01*
X112856640Y-65418912D01*
X112869209Y-65350185D01*
X112897323Y-65317108D01*
X112896686Y-65316534D01*
X112905408Y-65306846D01*
X112905410Y-65306845D01*
X112938234Y-65270389D01*
X112945064Y-65263384D01*
X112982875Y-65227569D01*
X112996649Y-65207252D01*
X113007127Y-65193875D01*
X113021522Y-65177889D01*
X113047755Y-65132449D01*
X113052490Y-65124891D01*
X113083640Y-65078951D01*
X113091442Y-65059366D01*
X113099251Y-65043259D01*
X113108286Y-65027611D01*
X113125557Y-64974452D01*
X113128297Y-64966867D01*
X113137099Y-64944779D01*
X113150101Y-64912147D01*
X113152954Y-64894736D01*
X113157392Y-64876472D01*
X113161908Y-64862576D01*
X113168111Y-64803551D01*
X113169057Y-64796512D01*
X113179150Y-64734955D01*
X113178381Y-64720778D01*
X113178878Y-64701113D01*
X113180047Y-64690000D01*
X113173483Y-64627555D01*
X113172991Y-64621363D01*
X113169429Y-64555661D01*
X113166553Y-64545304D01*
X113162714Y-64525101D01*
X113161908Y-64517424D01*
X113141459Y-64454489D01*
X113139911Y-64449349D01*
X113139074Y-64446336D01*
X113121393Y-64382649D01*
X113121392Y-64382648D01*
X113117785Y-64369654D01*
X113121588Y-64368598D01*
X113112384Y-64323637D01*
X113137602Y-64258477D01*
X113194045Y-64217295D01*
X113235950Y-64210000D01*
X113495033Y-64210000D01*
X113501298Y-64209682D01*
X113642222Y-64195351D01*
X113826569Y-64137511D01*
X113995503Y-64043746D01*
X114142104Y-63917894D01*
X114260368Y-63765109D01*
X114345458Y-63591641D01*
X114366597Y-63510000D01*
X113474624Y-63510000D01*
X113547545Y-63495495D01*
X113630240Y-63440240D01*
X113685495Y-63357545D01*
X113704898Y-63260000D01*
X113685495Y-63162455D01*
X113630240Y-63079760D01*
X113547545Y-63024505D01*
X113474624Y-63010000D01*
X114370471Y-63010000D01*
X114314952Y-62860094D01*
X114310128Y-62790391D01*
X114343754Y-62729145D01*
X114405154Y-62695801D01*
X114474834Y-62700946D01*
X114481669Y-62703749D01*
X114487939Y-62706541D01*
X114661352Y-62743400D01*
X114661355Y-62743400D01*
X114838648Y-62743400D01*
X114933251Y-62723292D01*
X115002918Y-62728608D01*
X115058651Y-62770745D01*
X115082756Y-62836325D01*
X115083031Y-62844582D01*
X115083031Y-73639489D01*
X115063346Y-73706528D01*
X115010542Y-73752283D01*
X114941384Y-73762227D01*
X114877828Y-73733202D01*
X114866881Y-73722461D01*
X114837453Y-73689777D01*
X114694023Y-73585570D01*
X114532060Y-73513459D01*
X114358648Y-73476600D01*
X114358645Y-73476600D01*
X114181355Y-73476600D01*
X114181352Y-73476600D01*
X114007939Y-73513459D01*
X113845976Y-73585570D01*
X113702546Y-73689777D01*
X113583915Y-73821530D01*
X113495270Y-73975069D01*
X113456968Y-74092954D01*
X113440486Y-74143681D01*
X113421954Y-74320000D01*
X113440486Y-74496319D01*
X113440487Y-74496322D01*
X113495270Y-74664930D01*
X113583915Y-74818469D01*
X113702546Y-74950222D01*
X113845976Y-75054429D01*
X114007939Y-75126540D01*
X114181352Y-75163400D01*
X114181355Y-75163400D01*
X114358645Y-75163400D01*
X114386218Y-75157539D01*
X114455885Y-75162855D01*
X114511619Y-75204991D01*
X114535725Y-75270571D01*
X114536000Y-75278829D01*
X114536000Y-75312964D01*
X114516315Y-75380003D01*
X114463511Y-75425758D01*
X114412000Y-75436964D01*
X114392145Y-75436964D01*
X114218732Y-75473823D01*
X114056769Y-75545934D01*
X113913339Y-75650141D01*
X113794708Y-75781894D01*
X113706063Y-75935432D01*
X113668626Y-76050655D01*
X113629189Y-76108330D01*
X113576478Y-76133626D01*
X113576219Y-76133682D01*
X113554192Y-76138364D01*
X113392227Y-76210475D01*
X113248799Y-76314681D01*
X113130168Y-76446434D01*
X113041523Y-76599973D01*
X112997691Y-76734877D01*
X112986739Y-76768585D01*
X112971239Y-76916059D01*
X112968207Y-76944904D01*
X112986739Y-77121224D01*
X113027627Y-77247064D01*
X113029622Y-77316906D01*
X112997377Y-77373063D01*
X112688481Y-77681958D01*
X112676289Y-77692651D01*
X112653149Y-77710407D01*
X112617998Y-77756216D01*
X112617988Y-77756231D01*
X112562747Y-77828224D01*
X112505917Y-77965424D01*
X112486532Y-78112657D01*
X112490339Y-78141566D01*
X112491400Y-78157752D01*
X112491400Y-79048951D01*
X112471715Y-79115990D01*
X112418911Y-79161745D01*
X112349753Y-79171689D01*
X112341620Y-79170242D01*
X112301643Y-79161745D01*
X112237198Y-79148047D01*
X112059908Y-79148047D01*
X112059905Y-79148047D01*
X111886492Y-79184906D01*
X111724529Y-79257017D01*
X111581099Y-79361224D01*
X111462468Y-79492977D01*
X111373823Y-79646516D01*
X111319040Y-79815124D01*
X111319039Y-79815128D01*
X111300507Y-79991447D01*
X111319039Y-80167766D01*
X111319040Y-80167769D01*
X111373823Y-80336377D01*
X111462468Y-80489916D01*
X111581099Y-80621669D01*
X111724529Y-80725876D01*
X111886492Y-80797987D01*
X112059905Y-80834847D01*
X112059908Y-80834847D01*
X112237200Y-80834847D01*
X112341619Y-80812652D01*
X112411286Y-80817968D01*
X112467020Y-80860105D01*
X112491125Y-80925685D01*
X112491400Y-80933942D01*
X112491400Y-82488300D01*
X112471715Y-82555339D01*
X112418911Y-82601094D01*
X112367400Y-82612300D01*
X112213452Y-82612300D01*
X112040039Y-82649159D01*
X111878076Y-82721270D01*
X111734646Y-82825477D01*
X111616015Y-82957230D01*
X111527370Y-83110769D01*
X111472587Y-83279377D01*
X111472586Y-83279381D01*
X111454054Y-83455700D01*
X111472586Y-83632019D01*
X111472587Y-83632022D01*
X111527370Y-83800630D01*
X111616015Y-83954169D01*
X111734646Y-84085922D01*
X111878076Y-84190129D01*
X112040039Y-84262240D01*
X112213452Y-84299100D01*
X112367400Y-84299100D01*
X112434439Y-84318785D01*
X112480194Y-84371589D01*
X112491400Y-84423100D01*
X112491400Y-85010304D01*
X112490339Y-85026489D01*
X112486532Y-85055399D01*
X112503364Y-85183248D01*
X112505917Y-85202634D01*
X112562747Y-85339833D01*
X112623801Y-85419402D01*
X112653150Y-85457650D01*
X112676284Y-85475401D01*
X112688479Y-85486096D01*
X115253772Y-88051389D01*
X117746013Y-90543629D01*
X117779498Y-90604952D01*
X117774514Y-90674644D01*
X117750482Y-90714282D01*
X117653915Y-90821530D01*
X117565270Y-90975069D01*
X117510487Y-91143677D01*
X117510486Y-91143681D01*
X117491954Y-91320000D01*
X117510486Y-91496319D01*
X117510487Y-91496322D01*
X117565270Y-91664930D01*
X117653915Y-91818469D01*
X117772546Y-91950222D01*
X117915976Y-92054429D01*
X118077939Y-92126540D01*
X118251352Y-92163400D01*
X118251355Y-92163400D01*
X118334421Y-92163400D01*
X118401460Y-92183085D01*
X118422102Y-92199719D01*
X118494071Y-92271688D01*
X118527556Y-92333011D01*
X118522572Y-92402703D01*
X118480700Y-92458636D01*
X118432171Y-92480659D01*
X118279739Y-92513059D01*
X118117776Y-92585170D01*
X117974346Y-92689377D01*
X117855715Y-92821130D01*
X117767070Y-92974669D01*
X117712287Y-93143277D01*
X117712286Y-93143281D01*
X117701471Y-93246177D01*
X117693754Y-93319600D01*
X117694329Y-93325067D01*
X117681760Y-93393797D01*
X117634028Y-93444821D01*
X117566287Y-93461939D01*
X117500046Y-93439717D01*
X117483327Y-93425710D01*
X114227508Y-90169891D01*
X114194023Y-90108568D01*
X114199007Y-90038876D01*
X114240879Y-89982943D01*
X114306343Y-89958526D01*
X114374616Y-89973378D01*
X114388074Y-89981892D01*
X114425976Y-90009429D01*
X114587939Y-90081540D01*
X114761352Y-90118400D01*
X114761355Y-90118400D01*
X114938648Y-90118400D01*
X115068706Y-90090755D01*
X115112061Y-90081540D01*
X115274023Y-90009429D01*
X115323643Y-89973378D01*
X115417453Y-89905222D01*
X115536084Y-89773469D01*
X115620909Y-89626547D01*
X115624729Y-89619931D01*
X115679514Y-89451319D01*
X115698046Y-89275000D01*
X115679514Y-89098681D01*
X115624729Y-88930069D01*
X115577612Y-88848459D01*
X115536084Y-88776530D01*
X115417453Y-88644777D01*
X115274023Y-88540570D01*
X115112060Y-88468459D01*
X114938648Y-88431600D01*
X114938645Y-88431600D01*
X114761355Y-88431600D01*
X114761352Y-88431600D01*
X114587939Y-88468459D01*
X114425976Y-88540570D01*
X114282546Y-88644777D01*
X114163915Y-88776530D01*
X114075270Y-88930069D01*
X114024436Y-89086523D01*
X114020486Y-89098681D01*
X114001954Y-89275000D01*
X114020486Y-89451319D01*
X114020487Y-89451322D01*
X114075270Y-89619930D01*
X114147633Y-89745267D01*
X114164106Y-89813167D01*
X114141253Y-89879194D01*
X114086332Y-89922385D01*
X114016779Y-89929026D01*
X113954676Y-89897010D01*
X113952565Y-89894948D01*
X110532100Y-86474483D01*
X110498615Y-86413160D01*
X110503599Y-86343468D01*
X110545471Y-86287535D01*
X110610935Y-86263118D01*
X110619781Y-86262802D01*
X110748648Y-86262802D01*
X110878706Y-86235156D01*
X110922061Y-86225942D01*
X111084023Y-86153831D01*
X111156187Y-86101401D01*
X111227453Y-86049624D01*
X111262572Y-86010621D01*
X111346084Y-85917871D01*
X111434729Y-85764333D01*
X111489514Y-85595721D01*
X111508046Y-85419402D01*
X111489514Y-85243083D01*
X111434729Y-85074471D01*
X111407027Y-85026489D01*
X111346084Y-84920932D01*
X111227453Y-84789179D01*
X111084023Y-84684972D01*
X110922060Y-84612861D01*
X110748648Y-84576002D01*
X110748645Y-84576002D01*
X110571355Y-84576002D01*
X110571352Y-84576002D01*
X110397939Y-84612861D01*
X110235976Y-84684972D01*
X110092546Y-84789179D01*
X109973915Y-84920932D01*
X109885270Y-85074470D01*
X109835551Y-85227493D01*
X109796114Y-85285168D01*
X109731755Y-85312367D01*
X109667185Y-85302455D01*
X109602057Y-85273458D01*
X109428648Y-85236600D01*
X109428645Y-85236600D01*
X109251355Y-85236600D01*
X109251352Y-85236600D01*
X109077939Y-85273459D01*
X108915976Y-85345570D01*
X108772546Y-85449777D01*
X108653915Y-85581530D01*
X108565270Y-85735069D01*
X108510487Y-85903677D01*
X108510486Y-85903681D01*
X108491954Y-86080000D01*
X108510486Y-86256319D01*
X108510487Y-86256322D01*
X108565270Y-86424930D01*
X108653915Y-86578469D01*
X108772546Y-86710222D01*
X108915976Y-86814429D01*
X109077939Y-86886540D01*
X109251352Y-86923400D01*
X109251355Y-86923400D01*
X109334421Y-86923400D01*
X109401460Y-86943085D01*
X109422102Y-86959719D01*
X124593802Y-102131419D01*
X124604497Y-102143614D01*
X124622249Y-102166749D01*
X124651830Y-102189447D01*
X124651839Y-102189455D01*
X124740067Y-102257154D01*
X124877266Y-102313983D01*
X125024500Y-102333368D01*
X125053416Y-102329560D01*
X125069602Y-102328500D01*
X131211106Y-102328500D01*
X131227289Y-102329560D01*
X131256200Y-102333367D01*
X131403434Y-102313983D01*
X131540633Y-102257153D01*
X131628868Y-102189449D01*
X131628868Y-102189448D01*
X131628870Y-102189447D01*
X131634926Y-102184799D01*
X131658450Y-102166750D01*
X131676204Y-102143610D01*
X131686890Y-102131425D01*
X132268693Y-101549622D01*
X132330014Y-101516139D01*
X132399706Y-101521123D01*
X132427490Y-101535726D01*
X132582170Y-101644035D01*
X132796337Y-101743903D01*
X133024592Y-101805063D01*
X133260000Y-101825659D01*
X133495408Y-101805063D01*
X133723663Y-101743903D01*
X133937830Y-101644035D01*
X134131401Y-101508495D01*
X134298495Y-101341401D01*
X134434035Y-101147830D01*
X134533903Y-100933663D01*
X134595063Y-100705408D01*
X134615659Y-100470000D01*
X134595063Y-100234592D01*
X134533903Y-100006337D01*
X134434035Y-99792171D01*
X134298495Y-99598599D01*
X134167182Y-99467285D01*
X134133697Y-99405963D01*
X134138681Y-99336271D01*
X134167182Y-99291924D01*
X134490615Y-98968491D01*
X134844564Y-98614541D01*
X134905885Y-98581058D01*
X134975576Y-98586042D01*
X135031510Y-98627913D01*
X135055927Y-98693378D01*
X135056243Y-98702171D01*
X135059298Y-105812893D01*
X135059103Y-105819899D01*
X135043512Y-106097521D01*
X135041955Y-106111339D01*
X134995958Y-106382056D01*
X134992864Y-106395613D01*
X134916843Y-106659486D01*
X134912250Y-106672610D01*
X134807168Y-106926303D01*
X134801135Y-106938832D01*
X134668305Y-107179169D01*
X134660907Y-107190943D01*
X134502004Y-107414896D01*
X134493334Y-107425768D01*
X134310355Y-107630522D01*
X134300522Y-107640355D01*
X134095768Y-107823334D01*
X134084896Y-107832004D01*
X133860943Y-107990907D01*
X133849169Y-107998305D01*
X133608832Y-108131135D01*
X133596303Y-108137168D01*
X133342610Y-108242250D01*
X133329486Y-108246843D01*
X133065613Y-108322864D01*
X133052056Y-108325958D01*
X132781339Y-108371955D01*
X132767521Y-108373512D01*
X132489872Y-108389105D01*
X132482919Y-108389300D01*
X120525738Y-108389300D01*
X120458699Y-108369615D01*
X120412944Y-108316811D01*
X120403000Y-108247653D01*
X120418350Y-108203301D01*
X120434730Y-108174929D01*
X120450594Y-108126104D01*
X120489514Y-108006319D01*
X120508046Y-107830000D01*
X120489514Y-107653681D01*
X120434729Y-107485069D01*
X120383169Y-107395764D01*
X120346084Y-107331530D01*
X120227453Y-107199777D01*
X120084023Y-107095570D01*
X119922060Y-107023459D01*
X119748648Y-106986600D01*
X119748645Y-106986600D01*
X119571355Y-106986600D01*
X119571352Y-106986600D01*
X119397939Y-107023459D01*
X119235976Y-107095570D01*
X119092546Y-107199777D01*
X118973915Y-107331530D01*
X118885270Y-107485069D01*
X118833736Y-107643677D01*
X118830486Y-107653681D01*
X118811954Y-107830000D01*
X118830486Y-108006319D01*
X118830487Y-108006322D01*
X118885269Y-108174929D01*
X118901650Y-108203301D01*
X118918122Y-108271201D01*
X118895269Y-108337228D01*
X118840347Y-108380418D01*
X118794262Y-108389300D01*
X118469964Y-108389300D01*
X118402925Y-108369615D01*
X118357170Y-108316811D01*
X118347226Y-108247653D01*
X118362577Y-108203300D01*
X118370169Y-108190148D01*
X118384729Y-108164931D01*
X118439514Y-107996319D01*
X118458046Y-107820000D01*
X118439514Y-107643681D01*
X118384729Y-107475069D01*
X118349988Y-107414896D01*
X118296084Y-107321530D01*
X118177453Y-107189777D01*
X118034023Y-107085570D01*
X117872060Y-107013459D01*
X117698648Y-106976600D01*
X117698645Y-106976600D01*
X117521355Y-106976600D01*
X117521352Y-106976600D01*
X117347939Y-107013459D01*
X117185976Y-107085570D01*
X117042546Y-107189777D01*
X116923915Y-107321530D01*
X116835270Y-107475069D01*
X116780487Y-107643677D01*
X116780486Y-107643681D01*
X116761954Y-107820000D01*
X116780486Y-107996319D01*
X116780487Y-107996322D01*
X116835270Y-108164930D01*
X116857423Y-108203300D01*
X116873896Y-108271200D01*
X116851044Y-108337227D01*
X116796122Y-108380418D01*
X116750036Y-108389300D01*
X108563081Y-108389300D01*
X108556128Y-108389105D01*
X108272791Y-108373193D01*
X108258973Y-108371636D01*
X107982637Y-108324684D01*
X107969081Y-108321590D01*
X107699738Y-108243994D01*
X107686612Y-108239401D01*
X107427653Y-108132137D01*
X107415125Y-108126104D01*
X107169796Y-107990515D01*
X107158031Y-107983122D01*
X106929420Y-107820914D01*
X106918563Y-107812256D01*
X106741117Y-107653681D01*
X106709554Y-107625474D01*
X106699723Y-107615643D01*
X106583035Y-107485069D01*
X106512938Y-107406630D01*
X106504287Y-107395781D01*
X106342074Y-107167164D01*
X106334684Y-107155403D01*
X106301616Y-107095571D01*
X106199091Y-106910067D01*
X106193065Y-106897553D01*
X106085797Y-106638586D01*
X106081205Y-106625461D01*
X106003607Y-106356112D01*
X106000515Y-106342562D01*
X105992960Y-106298095D01*
X105953562Y-106066218D01*
X105952006Y-106052407D01*
X105948612Y-105991974D01*
X105936095Y-105769071D01*
X105935900Y-105762119D01*
X105935900Y-105333800D01*
X107385951Y-105333800D01*
X107405717Y-105584949D01*
X107464526Y-105829910D01*
X107473713Y-105852088D01*
X107560934Y-106062659D01*
X107692564Y-106277459D01*
X107856176Y-106469024D01*
X108047741Y-106632636D01*
X108262541Y-106764266D01*
X108495289Y-106860673D01*
X108740252Y-106919483D01*
X108928518Y-106934300D01*
X108930963Y-106934300D01*
X109051837Y-106934300D01*
X109054282Y-106934300D01*
X109242548Y-106919483D01*
X109487511Y-106860673D01*
X109720259Y-106764266D01*
X109935059Y-106632636D01*
X110126624Y-106469024D01*
X110290236Y-106277459D01*
X110421866Y-106062659D01*
X110518273Y-105829911D01*
X110577083Y-105584948D01*
X110596849Y-105333800D01*
X110596849Y-105333799D01*
X130398351Y-105333799D01*
X130418117Y-105584949D01*
X130476926Y-105829910D01*
X130486113Y-105852088D01*
X130573334Y-106062659D01*
X130704964Y-106277459D01*
X130868576Y-106469024D01*
X131060141Y-106632636D01*
X131274941Y-106764266D01*
X131507689Y-106860673D01*
X131752652Y-106919483D01*
X131940918Y-106934300D01*
X131943363Y-106934300D01*
X132064237Y-106934300D01*
X132066682Y-106934300D01*
X132254948Y-106919483D01*
X132499911Y-106860673D01*
X132732659Y-106764266D01*
X132947459Y-106632636D01*
X133139024Y-106469024D01*
X133302636Y-106277459D01*
X133434266Y-106062659D01*
X133530673Y-105829911D01*
X133589483Y-105584948D01*
X133609249Y-105333800D01*
X133589483Y-105082652D01*
X133530673Y-104837689D01*
X133434266Y-104604941D01*
X133302636Y-104390141D01*
X133139024Y-104198576D01*
X132947459Y-104034964D01*
X132732659Y-103903334D01*
X132616284Y-103855130D01*
X132499910Y-103806926D01*
X132254949Y-103748117D01*
X132069116Y-103733491D01*
X132069101Y-103733490D01*
X132066682Y-103733300D01*
X131940918Y-103733300D01*
X131938499Y-103733490D01*
X131938483Y-103733491D01*
X131752650Y-103748117D01*
X131507689Y-103806926D01*
X131274939Y-103903335D01*
X131060142Y-104034963D01*
X130868576Y-104198576D01*
X130704963Y-104390142D01*
X130573335Y-104604939D01*
X130476926Y-104837689D01*
X130418117Y-105082650D01*
X130398351Y-105333799D01*
X110596849Y-105333799D01*
X110577083Y-105082652D01*
X110518273Y-104837689D01*
X110421866Y-104604941D01*
X110290236Y-104390141D01*
X110126624Y-104198576D01*
X109935059Y-104034964D01*
X109720259Y-103903334D01*
X109603884Y-103855130D01*
X109487510Y-103806926D01*
X109242549Y-103748117D01*
X109056716Y-103733491D01*
X109056701Y-103733490D01*
X109054282Y-103733300D01*
X108928518Y-103733300D01*
X108926099Y-103733490D01*
X108926083Y-103733491D01*
X108740250Y-103748117D01*
X108495289Y-103806926D01*
X108262539Y-103903335D01*
X108047742Y-104034963D01*
X107856176Y-104198576D01*
X107692563Y-104390142D01*
X107560935Y-104604939D01*
X107464526Y-104837689D01*
X107405717Y-105082650D01*
X107385951Y-105333800D01*
X105935900Y-105333800D01*
X105935900Y-101850000D01*
X118551954Y-101850000D01*
X118570486Y-102026319D01*
X118570487Y-102026322D01*
X118625270Y-102194930D01*
X118713915Y-102348469D01*
X118832546Y-102480222D01*
X118975976Y-102584429D01*
X119137939Y-102656540D01*
X119311352Y-102693400D01*
X119311355Y-102693400D01*
X119488648Y-102693400D01*
X119618706Y-102665755D01*
X119662061Y-102656540D01*
X119824023Y-102584429D01*
X119967454Y-102480221D01*
X120086084Y-102348469D01*
X120174729Y-102194931D01*
X120229514Y-102026319D01*
X120248046Y-101850000D01*
X120229514Y-101673681D01*
X120174729Y-101505069D01*
X120153966Y-101469106D01*
X120086084Y-101351530D01*
X119967453Y-101219777D01*
X119824023Y-101115570D01*
X119662060Y-101043459D01*
X119488648Y-101006600D01*
X119488645Y-101006600D01*
X119311355Y-101006600D01*
X119311352Y-101006600D01*
X119137939Y-101043459D01*
X118975976Y-101115570D01*
X118832546Y-101219777D01*
X118713915Y-101351530D01*
X118625270Y-101505069D01*
X118570487Y-101673677D01*
X118570486Y-101673681D01*
X118551954Y-101850000D01*
X105935900Y-101850000D01*
X105935900Y-98475800D01*
X107826954Y-98475800D01*
X107845486Y-98652119D01*
X107845487Y-98652122D01*
X107900270Y-98820730D01*
X107988915Y-98974269D01*
X108107546Y-99106022D01*
X108250976Y-99210229D01*
X108412939Y-99282340D01*
X108586352Y-99319200D01*
X108586355Y-99319200D01*
X108763648Y-99319200D01*
X108893707Y-99291555D01*
X108937061Y-99282340D01*
X109099023Y-99210229D01*
X109177370Y-99153307D01*
X109242453Y-99106022D01*
X109361084Y-98974269D01*
X109442060Y-98834014D01*
X109449729Y-98820731D01*
X109504514Y-98652119D01*
X109523046Y-98475800D01*
X109504514Y-98299481D01*
X109449729Y-98130869D01*
X109410086Y-98062205D01*
X109361084Y-97977330D01*
X109242453Y-97845577D01*
X109099023Y-97741370D01*
X108937060Y-97669259D01*
X108763648Y-97632400D01*
X108763645Y-97632400D01*
X108586355Y-97632400D01*
X108586352Y-97632400D01*
X108412939Y-97669259D01*
X108250976Y-97741370D01*
X108107546Y-97845577D01*
X107988915Y-97977330D01*
X107900270Y-98130869D01*
X107845487Y-98299477D01*
X107845486Y-98299481D01*
X107826954Y-98475800D01*
X105935900Y-98475800D01*
X105935900Y-90850000D01*
X106576954Y-90850000D01*
X106595486Y-91026319D01*
X106595487Y-91026322D01*
X106650270Y-91194930D01*
X106738915Y-91348469D01*
X106857546Y-91480222D01*
X107000976Y-91584429D01*
X107162939Y-91656540D01*
X107336352Y-91693400D01*
X107336355Y-91693400D01*
X107513648Y-91693400D01*
X107647588Y-91664930D01*
X107687061Y-91656540D01*
X107849023Y-91584429D01*
X107970297Y-91496319D01*
X107992453Y-91480222D01*
X108111084Y-91348469D01*
X108112757Y-91345571D01*
X108199729Y-91194931D01*
X108254514Y-91026319D01*
X108273046Y-90850000D01*
X108254514Y-90673681D01*
X108199729Y-90505069D01*
X108199728Y-90505068D01*
X108111084Y-90351530D01*
X107992453Y-90219777D01*
X107849023Y-90115570D01*
X107687060Y-90043459D01*
X107513648Y-90006600D01*
X107513645Y-90006600D01*
X107336355Y-90006600D01*
X107336352Y-90006600D01*
X107162939Y-90043459D01*
X107000976Y-90115570D01*
X106857546Y-90219777D01*
X106738915Y-90351530D01*
X106650270Y-90505069D01*
X106595487Y-90673677D01*
X106595486Y-90673681D01*
X106576954Y-90850000D01*
X105935900Y-90850000D01*
X105935900Y-76911200D01*
X108219554Y-76911200D01*
X108238086Y-77087519D01*
X108238087Y-77087522D01*
X108292870Y-77256130D01*
X108381515Y-77409669D01*
X108500146Y-77541422D01*
X108651280Y-77651227D01*
X108693946Y-77706557D01*
X108699925Y-77776170D01*
X108696326Y-77789862D01*
X108660869Y-77898992D01*
X108657851Y-77908281D01*
X108639319Y-78084600D01*
X108657851Y-78260919D01*
X108657852Y-78260922D01*
X108712635Y-78429530D01*
X108801280Y-78583069D01*
X108919911Y-78714822D01*
X109063341Y-78819029D01*
X109225304Y-78891140D01*
X109398717Y-78928000D01*
X109398720Y-78928000D01*
X109576013Y-78928000D01*
X109713830Y-78898706D01*
X109749426Y-78891140D01*
X109911388Y-78819029D01*
X109911388Y-78819028D01*
X110054818Y-78714822D01*
X110173449Y-78583069D01*
X110214665Y-78511680D01*
X110262094Y-78429531D01*
X110316879Y-78260919D01*
X110335411Y-78084600D01*
X110316879Y-77908281D01*
X110262094Y-77739669D01*
X110242977Y-77706557D01*
X110173449Y-77586130D01*
X110054821Y-77454380D01*
X110006750Y-77419455D01*
X109911388Y-77350171D01*
X109911384Y-77350169D01*
X109903683Y-77344574D01*
X109861017Y-77289244D01*
X109855038Y-77219630D01*
X109858633Y-77205951D01*
X109897114Y-77087519D01*
X109915646Y-76911200D01*
X109897114Y-76734881D01*
X109842329Y-76566269D01*
X109815156Y-76519204D01*
X109753684Y-76412730D01*
X109635053Y-76280977D01*
X109491623Y-76176770D01*
X109329660Y-76104659D01*
X109156248Y-76067800D01*
X109156245Y-76067800D01*
X108978955Y-76067800D01*
X108978952Y-76067800D01*
X108805539Y-76104659D01*
X108643576Y-76176770D01*
X108500146Y-76280977D01*
X108381515Y-76412730D01*
X108292870Y-76566269D01*
X108238087Y-76734877D01*
X108238086Y-76734881D01*
X108219554Y-76911200D01*
X105935900Y-76911200D01*
X105935900Y-75609082D01*
X110036036Y-75609082D01*
X110054568Y-75785401D01*
X110054569Y-75785404D01*
X110109352Y-75954012D01*
X110197997Y-76107551D01*
X110316628Y-76239304D01*
X110460058Y-76343511D01*
X110622021Y-76415622D01*
X110795434Y-76452482D01*
X110795437Y-76452482D01*
X110972730Y-76452482D01*
X111108166Y-76423694D01*
X111146143Y-76415622D01*
X111308105Y-76343511D01*
X111341170Y-76319488D01*
X111451535Y-76239304D01*
X111452327Y-76238425D01*
X111570166Y-76107551D01*
X111658811Y-75954013D01*
X111713596Y-75785401D01*
X111732128Y-75609082D01*
X111713596Y-75432763D01*
X111658811Y-75264151D01*
X111632437Y-75218469D01*
X111570166Y-75110612D01*
X111451535Y-74978859D01*
X111308105Y-74874652D01*
X111146142Y-74802541D01*
X110972730Y-74765682D01*
X110972727Y-74765682D01*
X110795437Y-74765682D01*
X110795434Y-74765682D01*
X110622021Y-74802541D01*
X110460058Y-74874652D01*
X110316628Y-74978859D01*
X110197997Y-75110612D01*
X110109352Y-75264151D01*
X110056844Y-75425758D01*
X110054568Y-75432763D01*
X110036036Y-75609082D01*
X105935900Y-75609082D01*
X105935900Y-72150000D01*
X107396634Y-72150000D01*
X107396932Y-72151948D01*
X107467564Y-72342663D01*
X107575145Y-72515263D01*
X107715266Y-72662669D01*
X107882194Y-72778855D01*
X108069092Y-72859059D01*
X108268311Y-72900000D01*
X108420000Y-72900000D01*
X108420000Y-72200000D01*
X108920000Y-72200000D01*
X108919999Y-72899999D01*
X108920000Y-72900000D01*
X109017570Y-72900000D01*
X109023835Y-72899682D01*
X109172339Y-72884580D01*
X109366389Y-72823696D01*
X109544214Y-72724996D01*
X109698531Y-72592520D01*
X109823021Y-72431692D01*
X109912589Y-72249094D01*
X109938246Y-72150000D01*
X109136111Y-72150000D01*
X109175610Y-72125543D01*
X109243201Y-72036038D01*
X109273895Y-71928160D01*
X109263546Y-71816479D01*
X109213552Y-71716078D01*
X109141069Y-71650000D01*
X109943366Y-71650000D01*
X109943067Y-71648051D01*
X109872435Y-71457336D01*
X109764854Y-71284736D01*
X109624733Y-71137330D01*
X109457805Y-71021144D01*
X109270907Y-70940940D01*
X109071689Y-70900000D01*
X108920000Y-70900000D01*
X108919999Y-71600000D01*
X108420000Y-71600000D01*
X108420000Y-70900000D01*
X108322430Y-70900000D01*
X108316164Y-70900317D01*
X108167660Y-70915419D01*
X107973610Y-70976303D01*
X107795785Y-71075003D01*
X107641468Y-71207479D01*
X107516978Y-71368307D01*
X107427410Y-71550905D01*
X107401753Y-71649999D01*
X107401753Y-71650000D01*
X108203889Y-71650000D01*
X108164390Y-71674457D01*
X108096799Y-71763962D01*
X108066105Y-71871840D01*
X108076454Y-71983521D01*
X108126448Y-72083922D01*
X108198931Y-72150000D01*
X107396634Y-72150000D01*
X105935900Y-72150000D01*
X105935900Y-63510000D01*
X107396634Y-63510000D01*
X107396932Y-63511948D01*
X107467564Y-63702663D01*
X107575145Y-63875263D01*
X107715266Y-64022669D01*
X107882194Y-64138855D01*
X108069092Y-64219059D01*
X108268311Y-64260000D01*
X108420000Y-64260000D01*
X108420000Y-63560000D01*
X108920000Y-63560000D01*
X108919999Y-64259999D01*
X108920000Y-64260000D01*
X109017570Y-64260000D01*
X109023835Y-64259682D01*
X109172339Y-64244580D01*
X109366389Y-64183696D01*
X109544214Y-64084996D01*
X109698531Y-63952520D01*
X109823021Y-63791692D01*
X109912589Y-63609094D01*
X109938246Y-63510000D01*
X109136111Y-63510000D01*
X109175610Y-63485543D01*
X109243201Y-63396038D01*
X109273895Y-63288160D01*
X109263546Y-63176479D01*
X109213552Y-63076078D01*
X109141069Y-63010000D01*
X109943366Y-63010000D01*
X109943067Y-63008051D01*
X109872435Y-62817336D01*
X109764854Y-62644736D01*
X109624733Y-62497330D01*
X109457805Y-62381144D01*
X109270907Y-62300940D01*
X109071689Y-62260000D01*
X108920000Y-62260000D01*
X108919999Y-62960000D01*
X108420000Y-62960000D01*
X108420000Y-62260000D01*
X108322430Y-62260000D01*
X108316164Y-62260317D01*
X108167660Y-62275419D01*
X107973610Y-62336303D01*
X107795785Y-62435003D01*
X107641468Y-62567479D01*
X107516978Y-62728307D01*
X107427410Y-62910905D01*
X107401753Y-63009999D01*
X107401753Y-63010000D01*
X108203889Y-63010000D01*
X108164390Y-63034457D01*
X108096799Y-63123962D01*
X108066105Y-63231840D01*
X108076454Y-63343521D01*
X108126448Y-63443922D01*
X108198931Y-63510000D01*
X107396634Y-63510000D01*
X105935900Y-63510000D01*
X105935900Y-47345599D01*
X107385951Y-47345599D01*
X107405717Y-47596749D01*
X107464526Y-47841710D01*
X107512730Y-47958084D01*
X107560934Y-48074459D01*
X107692564Y-48289259D01*
X107856176Y-48480824D01*
X108047741Y-48644436D01*
X108262541Y-48776066D01*
X108495289Y-48872473D01*
X108740252Y-48931283D01*
X108928518Y-48946100D01*
X108930963Y-48946100D01*
X109051837Y-48946100D01*
X109054282Y-48946100D01*
X109242548Y-48931283D01*
X109487511Y-48872473D01*
X109720259Y-48776066D01*
X109935059Y-48644436D01*
X110126624Y-48480824D01*
X110290236Y-48289259D01*
X110421866Y-48074459D01*
X110518273Y-47841711D01*
X110577083Y-47596748D01*
X110596849Y-47345600D01*
X110577083Y-47094452D01*
X110518273Y-46849489D01*
X110421866Y-46616741D01*
X110290236Y-46401941D01*
X110126624Y-46210376D01*
X109935059Y-46046764D01*
X109720259Y-45915134D01*
X109569870Y-45852841D01*
X109487510Y-45818726D01*
X109242549Y-45759917D01*
X109056716Y-45745291D01*
X109056701Y-45745290D01*
X109054282Y-45745100D01*
X108928518Y-45745100D01*
X108926099Y-45745290D01*
X108926083Y-45745291D01*
X108740250Y-45759917D01*
X108495289Y-45818726D01*
X108262539Y-45915135D01*
X108047742Y-46046763D01*
X107856176Y-46210376D01*
X107692563Y-46401942D01*
X107560935Y-46616739D01*
X107464526Y-46849489D01*
X107405717Y-47094450D01*
X107385951Y-47345599D01*
X105935900Y-47345599D01*
X105935900Y-46866354D01*
X105936544Y-46861297D01*
X105936436Y-46848485D01*
X105936437Y-46848482D01*
X105935913Y-46786339D01*
X105936078Y-46778861D01*
X105951343Y-46487430D01*
X105953041Y-46472478D01*
X105965604Y-46400927D01*
X106002852Y-46188778D01*
X106006347Y-46174152D01*
X106090172Y-45898576D01*
X106095412Y-45884485D01*
X106212007Y-45621107D01*
X106218923Y-45607743D01*
X106264657Y-45531141D01*
X106366580Y-45360426D01*
X106375055Y-45348012D01*
X106551597Y-45120407D01*
X106561510Y-45109115D01*
X106764343Y-44904568D01*
X106775539Y-44894571D01*
X107001652Y-44716121D01*
X107014002Y-44707536D01*
X107260073Y-44557801D01*
X107273371Y-44550778D01*
X107535757Y-44431973D01*
X107549816Y-44426611D01*
X107824668Y-44340475D01*
X107839267Y-44336856D01*
X108122537Y-44284660D01*
X108137471Y-44282837D01*
X108428403Y-44265142D01*
X108435931Y-44264914D01*
X108518482Y-44264914D01*
X108518514Y-44264907D01*
X111940814Y-44264700D01*
X112009761Y-44264700D01*
X112009762Y-44264700D01*
X112035966Y-44257005D01*
X112053254Y-44253244D01*
X112080287Y-44249356D01*
X112105093Y-44238025D01*
X112121679Y-44231837D01*
X112147853Y-44224153D01*
X112170836Y-44209381D01*
X112186353Y-44200907D01*
X112211199Y-44189560D01*
X112231820Y-44171688D01*
X112245966Y-44161098D01*
X112268928Y-44146343D01*
X112286813Y-44125700D01*
X112299322Y-44113191D01*
X112319963Y-44095305D01*
X112334710Y-44072353D01*
X112345313Y-44058188D01*
X112363177Y-44037573D01*
X112374526Y-44012720D01*
X112382993Y-43997214D01*
X112397766Y-43974225D01*
X112405452Y-43948038D01*
X112411632Y-43931470D01*
X112422965Y-43906657D01*
X112426852Y-43879615D01*
X112430608Y-43862344D01*
X112438304Y-43836130D01*
X112438300Y-43763119D01*
X112438300Y-42950422D01*
X112457983Y-42883387D01*
X112510787Y-42837632D01*
X112562481Y-42826426D01*
X114129984Y-42828752D01*
G37*
G04 #@! TD.AperFunction*
G04 #@! TA.AperFunction,Conductor*
G36*
X117174775Y-77731775D02*
G01*
X117201482Y-77752067D01*
X117739681Y-78290266D01*
X117773166Y-78351589D01*
X117776000Y-78377947D01*
X117776000Y-80279021D01*
X117756315Y-80346060D01*
X117703511Y-80391815D01*
X117634353Y-80401759D01*
X117570797Y-80372734D01*
X117564319Y-80366702D01*
X117347296Y-80149679D01*
X117336600Y-80137483D01*
X117318849Y-80114349D01*
X117201033Y-80023947D01*
X117063834Y-79967117D01*
X117063834Y-79967116D01*
X116953568Y-79952600D01*
X116916600Y-79947733D01*
X116887689Y-79951539D01*
X116871506Y-79952600D01*
X116461452Y-79952600D01*
X116445268Y-79951539D01*
X116416358Y-79947733D01*
X116416357Y-79947733D01*
X116397873Y-79950166D01*
X116379390Y-79952600D01*
X116324256Y-79959858D01*
X116269123Y-79967117D01*
X116131924Y-80023947D01*
X116014107Y-80114349D01*
X115996349Y-80137492D01*
X115985656Y-80149684D01*
X115736981Y-80398358D01*
X115724789Y-80409051D01*
X115701649Y-80426807D01*
X115666498Y-80472616D01*
X115666488Y-80472631D01*
X115611247Y-80544624D01*
X115554417Y-80681824D01*
X115535032Y-80829057D01*
X115538839Y-80857966D01*
X115539900Y-80874152D01*
X115539900Y-84183804D01*
X115538839Y-84199989D01*
X115535032Y-84228899D01*
X115537418Y-84247015D01*
X115539900Y-84265868D01*
X115546444Y-84315571D01*
X115554417Y-84376134D01*
X115611247Y-84513333D01*
X115687616Y-84612861D01*
X115701650Y-84631150D01*
X115724497Y-84648681D01*
X115724783Y-84648900D01*
X115736979Y-84659596D01*
X115891702Y-84814319D01*
X115925187Y-84875642D01*
X115920203Y-84945334D01*
X115878331Y-85001267D01*
X115812867Y-85025684D01*
X115804021Y-85026000D01*
X115741952Y-85026000D01*
X115568539Y-85062859D01*
X115406576Y-85134970D01*
X115263146Y-85239177D01*
X115144515Y-85370930D01*
X115055870Y-85524469D01*
X115010232Y-85664931D01*
X115001086Y-85693081D01*
X114987673Y-85820697D01*
X114982554Y-85869400D01*
X114983011Y-85873753D01*
X114970440Y-85942482D01*
X114922707Y-85993505D01*
X114854966Y-86010621D01*
X114788725Y-85988397D01*
X114772009Y-85974392D01*
X113655718Y-84858101D01*
X113622233Y-84796778D01*
X113619399Y-84770420D01*
X113619399Y-82007543D01*
X113619399Y-79288841D01*
X113639084Y-79221806D01*
X113691888Y-79176051D01*
X113717607Y-79167557D01*
X113887061Y-79131540D01*
X114049023Y-79059429D01*
X114155202Y-78982286D01*
X114192453Y-78955222D01*
X114311084Y-78823469D01*
X114333851Y-78784035D01*
X114399729Y-78669931D01*
X114454514Y-78501319D01*
X114473046Y-78325000D01*
X114459779Y-78198780D01*
X114472348Y-78130054D01*
X114520080Y-78079030D01*
X114583100Y-78061822D01*
X116060098Y-78061822D01*
X116076281Y-78062882D01*
X116105192Y-78066689D01*
X116252426Y-78047305D01*
X116389625Y-77990475D01*
X116476015Y-77924186D01*
X116541185Y-77898992D01*
X116551502Y-77898562D01*
X116636500Y-77898562D01*
X116783035Y-77867415D01*
X116809913Y-77861702D01*
X116874903Y-77832766D01*
X116971872Y-77789593D01*
X116971875Y-77789591D01*
X117040917Y-77739429D01*
X117106721Y-77715950D01*
X117174775Y-77731775D01*
G37*
G04 #@! TD.AperFunction*
G04 #@! TA.AperFunction,Conductor*
G36*
X116887975Y-85810592D02*
G01*
X118057686Y-86980303D01*
X118091171Y-87041626D01*
X118086187Y-87111318D01*
X118044315Y-87167251D01*
X117978851Y-87191668D01*
X117944225Y-87189274D01*
X117780066Y-87154382D01*
X117780063Y-87154382D01*
X117602773Y-87154382D01*
X117602770Y-87154382D01*
X117429357Y-87191241D01*
X117267394Y-87263352D01*
X117123964Y-87367559D01*
X117005333Y-87499312D01*
X116916688Y-87652850D01*
X116864884Y-87812292D01*
X116825447Y-87869967D01*
X116761089Y-87897166D01*
X116692242Y-87885252D01*
X116659272Y-87861655D01*
X115722098Y-86924481D01*
X115688613Y-86863158D01*
X115693597Y-86793466D01*
X115735469Y-86737533D01*
X115800933Y-86713116D01*
X115809779Y-86712800D01*
X115919248Y-86712800D01*
X116049306Y-86685155D01*
X116092661Y-86675940D01*
X116254623Y-86603829D01*
X116332845Y-86546998D01*
X116398053Y-86499622D01*
X116474117Y-86415145D01*
X116516684Y-86367869D01*
X116605329Y-86214331D01*
X116660114Y-86045719D01*
X116676973Y-85885308D01*
X116703558Y-85820697D01*
X116760855Y-85780712D01*
X116830674Y-85778052D01*
X116887975Y-85810592D01*
G37*
G04 #@! TD.AperFunction*
G04 #@! TA.AperFunction,Conductor*
G36*
X118664847Y-87600337D02*
G01*
X118704258Y-87626875D01*
X124091616Y-93014233D01*
X124125101Y-93075556D01*
X124127935Y-93101914D01*
X124127935Y-93967034D01*
X124108250Y-94034073D01*
X124055446Y-94079828D01*
X124029716Y-94088324D01*
X123887939Y-94118459D01*
X123725976Y-94190570D01*
X123582546Y-94294777D01*
X123463913Y-94426533D01*
X123456950Y-94438593D01*
X123406381Y-94486806D01*
X123337774Y-94500026D01*
X123272910Y-94474055D01*
X123261885Y-94464269D01*
X117825051Y-89027434D01*
X117791566Y-88966111D01*
X117796550Y-88896419D01*
X117838422Y-88840486D01*
X117886952Y-88818463D01*
X117934214Y-88808416D01*
X117953479Y-88804322D01*
X118115441Y-88732211D01*
X118132091Y-88720114D01*
X118258871Y-88628004D01*
X118377502Y-88496251D01*
X118414828Y-88431600D01*
X118466147Y-88342713D01*
X118520932Y-88174101D01*
X118539464Y-87997782D01*
X118520932Y-87821463D01*
X118498645Y-87752873D01*
X118496651Y-87683033D01*
X118532732Y-87623200D01*
X118595433Y-87592372D01*
X118664847Y-87600337D01*
G37*
G04 #@! TD.AperFunction*
G04 #@! TA.AperFunction,Conductor*
G36*
X127137740Y-94076847D02*
G01*
X129812817Y-96751924D01*
X129846302Y-96813247D01*
X129841318Y-96882939D01*
X129812818Y-96927286D01*
X129681503Y-97058601D01*
X129545965Y-97252170D01*
X129446097Y-97466336D01*
X129384936Y-97694592D01*
X129364340Y-97930000D01*
X129384936Y-98165407D01*
X129404529Y-98238527D01*
X129446097Y-98393663D01*
X129545965Y-98607830D01*
X129681505Y-98801401D01*
X129848599Y-98968495D01*
X130034596Y-99098732D01*
X130078219Y-99153307D01*
X130085412Y-99222806D01*
X130053890Y-99285160D01*
X130034595Y-99301880D01*
X129848919Y-99431892D01*
X129681889Y-99598922D01*
X129557914Y-99775976D01*
X129503337Y-99819601D01*
X129433839Y-99826793D01*
X129371484Y-99795271D01*
X129368659Y-99792533D01*
X127875607Y-98299481D01*
X125292254Y-95716127D01*
X125258769Y-95654804D01*
X125255935Y-95628446D01*
X125255935Y-94710888D01*
X125275620Y-94643849D01*
X125328424Y-94598094D01*
X125397582Y-94588150D01*
X125461138Y-94617175D01*
X125472085Y-94627916D01*
X125521628Y-94682940D01*
X125665058Y-94787147D01*
X125827021Y-94859258D01*
X126000434Y-94896118D01*
X126000437Y-94896118D01*
X126177730Y-94896118D01*
X126307788Y-94868472D01*
X126351143Y-94859258D01*
X126513105Y-94787147D01*
X126617459Y-94711330D01*
X126656535Y-94682940D01*
X126775166Y-94551187D01*
X126825348Y-94464269D01*
X126863811Y-94397649D01*
X126918596Y-94229037D01*
X126926738Y-94151564D01*
X126953323Y-94086952D01*
X127010620Y-94046967D01*
X127080439Y-94044307D01*
X127137740Y-94076847D01*
G37*
G04 #@! TD.AperFunction*
G04 #@! TA.AperFunction,Conductor*
G36*
X123759770Y-90702885D02*
G01*
X123780412Y-90719519D01*
X126061431Y-93000538D01*
X126094916Y-93061861D01*
X126089932Y-93131553D01*
X126048060Y-93187486D01*
X125999531Y-93209509D01*
X125827021Y-93246177D01*
X125665058Y-93318288D01*
X125521627Y-93422496D01*
X125472083Y-93477520D01*
X125412596Y-93514168D01*
X125342739Y-93512837D01*
X125284691Y-93473949D01*
X125256882Y-93409852D01*
X125255935Y-93394563D01*
X125255935Y-92862035D01*
X125256996Y-92845850D01*
X125257192Y-92844359D01*
X125260803Y-92816935D01*
X125241418Y-92669702D01*
X125184589Y-92532502D01*
X125116890Y-92444274D01*
X125116882Y-92444265D01*
X125102137Y-92425048D01*
X125094185Y-92414685D01*
X125071049Y-92396932D01*
X125058854Y-92386237D01*
X123567498Y-90894881D01*
X123534013Y-90833558D01*
X123538997Y-90763866D01*
X123580869Y-90707933D01*
X123646333Y-90683516D01*
X123655179Y-90683200D01*
X123692731Y-90683200D01*
X123759770Y-90702885D01*
G37*
G04 #@! TD.AperFunction*
G04 #@! TA.AperFunction,Conductor*
G36*
X122573087Y-74236411D02*
G01*
X122618842Y-74289215D01*
X122628786Y-74358373D01*
X122623979Y-74379043D01*
X122574632Y-74530921D01*
X122570486Y-74543681D01*
X122563901Y-74606335D01*
X122561321Y-74630884D01*
X122534736Y-74695498D01*
X122500125Y-74719651D01*
X122519203Y-74728364D01*
X122556977Y-74787142D01*
X122561319Y-74809108D01*
X122570486Y-74896319D01*
X122570487Y-74896322D01*
X122625270Y-75064930D01*
X122713915Y-75218469D01*
X122832546Y-75350222D01*
X122975976Y-75454429D01*
X123137939Y-75526540D01*
X123311352Y-75563400D01*
X123311355Y-75563400D01*
X123488648Y-75563400D01*
X123662057Y-75526541D01*
X123662057Y-75526540D01*
X123662061Y-75526540D01*
X123743182Y-75490421D01*
X123812431Y-75481136D01*
X123844054Y-75490422D01*
X123950166Y-75537667D01*
X124123578Y-75574526D01*
X124123581Y-75574526D01*
X124300874Y-75574526D01*
X124474283Y-75537667D01*
X124474283Y-75537666D01*
X124474287Y-75537666D01*
X124623728Y-75471129D01*
X124692975Y-75461844D01*
X124756252Y-75491472D01*
X124781549Y-75522409D01*
X124813915Y-75578468D01*
X124904150Y-75678684D01*
X124934380Y-75741675D01*
X124936000Y-75761656D01*
X124936000Y-76124444D01*
X124916315Y-76191483D01*
X124863511Y-76237238D01*
X124794353Y-76247182D01*
X124786220Y-76245734D01*
X124620533Y-76210517D01*
X124620530Y-76210517D01*
X124443240Y-76210517D01*
X124443237Y-76210517D01*
X124269824Y-76247376D01*
X124107861Y-76319487D01*
X123964431Y-76423694D01*
X123845800Y-76555447D01*
X123757155Y-76708986D01*
X123702372Y-76877594D01*
X123702371Y-76877598D01*
X123683839Y-77053917D01*
X123702371Y-77230236D01*
X123702372Y-77230239D01*
X123757155Y-77398847D01*
X123845800Y-77552386D01*
X123964431Y-77684139D01*
X124107861Y-77788346D01*
X124269824Y-77860457D01*
X124443237Y-77897317D01*
X124443240Y-77897317D01*
X124620532Y-77897317D01*
X124706629Y-77879016D01*
X124786220Y-77862099D01*
X124855886Y-77867415D01*
X124911620Y-77909552D01*
X124935725Y-77975132D01*
X124936000Y-77983389D01*
X124936000Y-78511680D01*
X124934939Y-78527865D01*
X124931132Y-78556775D01*
X124940802Y-78630221D01*
X124950517Y-78704010D01*
X125007347Y-78841209D01*
X125045660Y-78891140D01*
X125057229Y-78906218D01*
X125097749Y-78959025D01*
X125120883Y-78976776D01*
X125133079Y-78987472D01*
X128091827Y-81946220D01*
X128125312Y-82007543D01*
X128120328Y-82077235D01*
X128078456Y-82133168D01*
X128054582Y-82147180D01*
X127900976Y-82215570D01*
X127757546Y-82319777D01*
X127638915Y-82451530D01*
X127550270Y-82605069D01*
X127499317Y-82761889D01*
X127495486Y-82773681D01*
X127476954Y-82950000D01*
X127495486Y-83126319D01*
X127495487Y-83126322D01*
X127550270Y-83294930D01*
X127638915Y-83448469D01*
X127757546Y-83580222D01*
X127900976Y-83684429D01*
X128062939Y-83756540D01*
X128236352Y-83793400D01*
X128236355Y-83793400D01*
X128413648Y-83793400D01*
X128543706Y-83765755D01*
X128587061Y-83756540D01*
X128749023Y-83684429D01*
X128821160Y-83632019D01*
X128892452Y-83580223D01*
X128899349Y-83572563D01*
X128958835Y-83535914D01*
X129028692Y-83537243D01*
X129086741Y-83576129D01*
X129114551Y-83640225D01*
X129115500Y-83655534D01*
X129115500Y-85127223D01*
X129095815Y-85194262D01*
X129043011Y-85240017D01*
X128991500Y-85251223D01*
X128803952Y-85251223D01*
X128630539Y-85288082D01*
X128468576Y-85360193D01*
X128325146Y-85464400D01*
X128206515Y-85596153D01*
X128117870Y-85749692D01*
X128063087Y-85918300D01*
X128063086Y-85918304D01*
X128044554Y-86094623D01*
X128063086Y-86270942D01*
X128063087Y-86270945D01*
X128117870Y-86439553D01*
X128206515Y-86593092D01*
X128325146Y-86724845D01*
X128468576Y-86829052D01*
X128630539Y-86901163D01*
X128803952Y-86938023D01*
X128991500Y-86938023D01*
X129058539Y-86957708D01*
X129104294Y-87010512D01*
X129115500Y-87062023D01*
X129115499Y-92959172D01*
X129095814Y-93026211D01*
X129043010Y-93071966D01*
X128973852Y-93081910D01*
X128941064Y-93072452D01*
X128800925Y-93010058D01*
X128627516Y-92973200D01*
X128627513Y-92973200D01*
X128450223Y-92973200D01*
X128450220Y-92973200D01*
X128276807Y-93010059D01*
X128114844Y-93082170D01*
X127982430Y-93178374D01*
X127916623Y-93201854D01*
X127848570Y-93186028D01*
X127821864Y-93165737D01*
X124408406Y-89752279D01*
X124397710Y-89740083D01*
X124379959Y-89716949D01*
X124262143Y-89626547D01*
X124124944Y-89569717D01*
X124124944Y-89569716D01*
X124014678Y-89555200D01*
X123977710Y-89550333D01*
X123948799Y-89554139D01*
X123932616Y-89555200D01*
X123706740Y-89555200D01*
X123639701Y-89535515D01*
X123593946Y-89482711D01*
X123583419Y-89444164D01*
X123578114Y-89393681D01*
X123539552Y-89275000D01*
X123523329Y-89225069D01*
X123434684Y-89071530D01*
X123316053Y-88939777D01*
X123172623Y-88835570D01*
X123010660Y-88763459D01*
X122837248Y-88726600D01*
X122837245Y-88726600D01*
X122659955Y-88726600D01*
X122659952Y-88726600D01*
X122473790Y-88766169D01*
X122473461Y-88764623D01*
X122419178Y-88771898D01*
X122355903Y-88742266D01*
X122318694Y-88683128D01*
X122314000Y-88649335D01*
X122314000Y-85981200D01*
X122333685Y-85914161D01*
X122386489Y-85868406D01*
X122438000Y-85857200D01*
X122592848Y-85857200D01*
X122722906Y-85829555D01*
X122766261Y-85820340D01*
X122928223Y-85748229D01*
X123071654Y-85644021D01*
X123190284Y-85512269D01*
X123278929Y-85358731D01*
X123333714Y-85190119D01*
X123351709Y-85018900D01*
X123378294Y-84954289D01*
X123420205Y-84925040D01*
X123401087Y-84913758D01*
X123508992Y-84913758D01*
X123565584Y-84947154D01*
X123592961Y-84993547D01*
X123595485Y-85001318D01*
X123595486Y-85001319D01*
X123599541Y-85013800D01*
X123650270Y-85169931D01*
X123738915Y-85323469D01*
X123857546Y-85455222D01*
X124000976Y-85559429D01*
X124162939Y-85631540D01*
X124336352Y-85668400D01*
X124336355Y-85668400D01*
X124513648Y-85668400D01*
X124643706Y-85640755D01*
X124687061Y-85631540D01*
X124849023Y-85559429D01*
X124949958Y-85486096D01*
X124992453Y-85455222D01*
X125024706Y-85419402D01*
X125111084Y-85323469D01*
X125113087Y-85320000D01*
X125761954Y-85320000D01*
X125780486Y-85496319D01*
X125780487Y-85496322D01*
X125835270Y-85664930D01*
X125923915Y-85818469D01*
X126042546Y-85950222D01*
X126185976Y-86054429D01*
X126347939Y-86126540D01*
X126521352Y-86163400D01*
X126521355Y-86163400D01*
X126698648Y-86163400D01*
X126828707Y-86135755D01*
X126872061Y-86126540D01*
X127034023Y-86054429D01*
X127094320Y-86010621D01*
X127177453Y-85950222D01*
X127209923Y-85914161D01*
X127296084Y-85818469D01*
X127384729Y-85664931D01*
X127439514Y-85496319D01*
X127458046Y-85320000D01*
X127439514Y-85143681D01*
X127384729Y-84975069D01*
X127349331Y-84913758D01*
X127296084Y-84821530D01*
X127177453Y-84689777D01*
X127034023Y-84585570D01*
X126872060Y-84513459D01*
X126698648Y-84476600D01*
X126698645Y-84476600D01*
X126521355Y-84476600D01*
X126521352Y-84476600D01*
X126347939Y-84513459D01*
X126185976Y-84585570D01*
X126042546Y-84689777D01*
X125923915Y-84821530D01*
X125835270Y-84975069D01*
X125785833Y-85127223D01*
X125780486Y-85143681D01*
X125761954Y-85320000D01*
X125113087Y-85320000D01*
X125199729Y-85169931D01*
X125254514Y-85001319D01*
X125273046Y-84825000D01*
X125254514Y-84648681D01*
X125199729Y-84480069D01*
X125166838Y-84423100D01*
X125111084Y-84326530D01*
X124992453Y-84194777D01*
X124849023Y-84090570D01*
X124687060Y-84018459D01*
X124513648Y-83981600D01*
X124513645Y-83981600D01*
X124336355Y-83981600D01*
X124336352Y-83981600D01*
X124162939Y-84018459D01*
X124000976Y-84090570D01*
X123857546Y-84194777D01*
X123738915Y-84326530D01*
X123650270Y-84480069D01*
X123595486Y-84648677D01*
X123577490Y-84819896D01*
X123550905Y-84884511D01*
X123508992Y-84913758D01*
X123401087Y-84913758D01*
X123363615Y-84891645D01*
X123336238Y-84845251D01*
X123333714Y-84837483D01*
X123333714Y-84837481D01*
X123278929Y-84668869D01*
X123267400Y-84648900D01*
X123190284Y-84515330D01*
X123071653Y-84383577D01*
X122928223Y-84279370D01*
X122766260Y-84207259D01*
X122592848Y-84170400D01*
X122592845Y-84170400D01*
X122438000Y-84170400D01*
X122370961Y-84150715D01*
X122325206Y-84097911D01*
X122314000Y-84046400D01*
X122314000Y-80848200D01*
X123662754Y-80848200D01*
X123681286Y-81024519D01*
X123681287Y-81024522D01*
X123736070Y-81193130D01*
X123824715Y-81346669D01*
X123943346Y-81478422D01*
X124086776Y-81582629D01*
X124248739Y-81654740D01*
X124422152Y-81691600D01*
X124422155Y-81691600D01*
X124599448Y-81691600D01*
X124729507Y-81663955D01*
X124772861Y-81654740D01*
X124934823Y-81582629D01*
X124934822Y-81582629D01*
X125078253Y-81478422D01*
X125196884Y-81346669D01*
X125209952Y-81324035D01*
X125285529Y-81193131D01*
X125340314Y-81024519D01*
X125358846Y-80848200D01*
X125340314Y-80671881D01*
X125285529Y-80503269D01*
X125267832Y-80472616D01*
X125196884Y-80349730D01*
X125078253Y-80217977D01*
X124934823Y-80113770D01*
X124772860Y-80041659D01*
X124599448Y-80004800D01*
X124599445Y-80004800D01*
X124422155Y-80004800D01*
X124422152Y-80004800D01*
X124248739Y-80041659D01*
X124086776Y-80113770D01*
X123943346Y-80217977D01*
X123824715Y-80349730D01*
X123736070Y-80503269D01*
X123681287Y-80671877D01*
X123681286Y-80671881D01*
X123662754Y-80848200D01*
X122314000Y-80848200D01*
X122314000Y-74822077D01*
X122333685Y-74755038D01*
X122375236Y-74719033D01*
X122347446Y-74702633D01*
X122316023Y-74640229D01*
X122314000Y-74617922D01*
X122314000Y-74575826D01*
X122315061Y-74559640D01*
X122316504Y-74548677D01*
X122318868Y-74530725D01*
X122301735Y-74400598D01*
X122299483Y-74383491D01*
X122297352Y-74367304D01*
X122299155Y-74367066D01*
X122293956Y-74318712D01*
X122325229Y-74256232D01*
X122385318Y-74220578D01*
X122415986Y-74216726D01*
X122506048Y-74216726D01*
X122573087Y-74236411D01*
G37*
G04 #@! TD.AperFunction*
G04 #@! TA.AperFunction,Conductor*
G36*
X132074855Y-85896545D02*
G01*
X132091571Y-85915837D01*
X132221505Y-86101401D01*
X132388599Y-86268495D01*
X132574596Y-86398732D01*
X132618219Y-86453307D01*
X132625412Y-86522806D01*
X132593890Y-86585160D01*
X132574595Y-86601880D01*
X132388919Y-86731892D01*
X132221893Y-86898918D01*
X132091880Y-87084596D01*
X132037303Y-87128220D01*
X131967804Y-87135413D01*
X131905450Y-87103891D01*
X131888730Y-87084595D01*
X131817887Y-86983420D01*
X131758495Y-86898599D01*
X131591401Y-86731505D01*
X131405839Y-86601573D01*
X131362216Y-86546998D01*
X131355022Y-86477500D01*
X131386545Y-86415145D01*
X131405837Y-86398428D01*
X131591401Y-86268495D01*
X131758495Y-86101401D01*
X131888426Y-85915839D01*
X131943002Y-85872216D01*
X132012500Y-85865022D01*
X132074855Y-85896545D01*
G37*
G04 #@! TD.AperFunction*
G04 #@! TA.AperFunction,Conductor*
G36*
X131663002Y-83766239D02*
G01*
X131687833Y-83785450D01*
X132164189Y-84261806D01*
X132197674Y-84323129D01*
X132192690Y-84392821D01*
X132178083Y-84420610D01*
X132091574Y-84544159D01*
X132036998Y-84587784D01*
X131967499Y-84594978D01*
X131905144Y-84563455D01*
X131888429Y-84544164D01*
X131758495Y-84358599D01*
X131591401Y-84191505D01*
X131405402Y-84061267D01*
X131361780Y-84006692D01*
X131354587Y-83937193D01*
X131386109Y-83874839D01*
X131405404Y-83858119D01*
X131529028Y-83771556D01*
X131595234Y-83749229D01*
X131663002Y-83766239D01*
G37*
G04 #@! TD.AperFunction*
G04 #@! TA.AperFunction,Conductor*
G36*
X127113653Y-74236411D02*
G01*
X127134295Y-74253045D01*
X128029475Y-75148224D01*
X128062960Y-75209547D01*
X128065794Y-75235905D01*
X128065794Y-76246910D01*
X128046109Y-76313949D01*
X127993305Y-76359704D01*
X127924147Y-76369648D01*
X127916014Y-76368201D01*
X127829103Y-76349728D01*
X127768998Y-76336953D01*
X127591708Y-76336953D01*
X127591705Y-76336953D01*
X127418295Y-76373811D01*
X127276008Y-76437162D01*
X127206758Y-76446446D01*
X127175138Y-76437162D01*
X127032057Y-76373458D01*
X126858648Y-76336600D01*
X126858645Y-76336600D01*
X126681355Y-76336600D01*
X126681352Y-76336600D01*
X126507939Y-76373459D01*
X126345976Y-76445570D01*
X126260883Y-76507393D01*
X126195077Y-76530872D01*
X126127023Y-76515046D01*
X126078329Y-76464940D01*
X126064000Y-76407078D01*
X126064000Y-75761655D01*
X126083685Y-75694616D01*
X126095850Y-75678684D01*
X126186084Y-75578469D01*
X126194784Y-75563400D01*
X126274729Y-75424931D01*
X126329514Y-75256319D01*
X126348046Y-75080000D01*
X126329514Y-74903681D01*
X126274729Y-74735069D01*
X126269296Y-74725660D01*
X126252824Y-74657761D01*
X126269297Y-74601659D01*
X126284729Y-74574931D01*
X126339514Y-74406319D01*
X126347770Y-74327762D01*
X126374355Y-74263150D01*
X126431652Y-74223165D01*
X126471091Y-74216726D01*
X127046614Y-74216726D01*
X127113653Y-74236411D01*
G37*
G04 #@! TD.AperFunction*
G04 #@! TA.AperFunction,Conductor*
G36*
X132074856Y-65576545D02*
G01*
X132091571Y-65595837D01*
X132221505Y-65781401D01*
X132388599Y-65948495D01*
X132574596Y-66078732D01*
X132618219Y-66133307D01*
X132625412Y-66202806D01*
X132593890Y-66265160D01*
X132574595Y-66281880D01*
X132486549Y-66343531D01*
X132420343Y-66365858D01*
X132352575Y-66348848D01*
X132327744Y-66329637D01*
X131840721Y-65842615D01*
X131807236Y-65781292D01*
X131812220Y-65711601D01*
X131826826Y-65683813D01*
X131888426Y-65595839D01*
X131943003Y-65552215D01*
X132012501Y-65545023D01*
X132074856Y-65576545D01*
G37*
G04 #@! TD.AperFunction*
G04 #@! TA.AperFunction,Conductor*
G36*
X132074549Y-63036109D02*
G01*
X132091265Y-63055400D01*
X132221505Y-63241401D01*
X132388599Y-63408495D01*
X132574160Y-63538426D01*
X132617783Y-63593002D01*
X132624976Y-63662501D01*
X132593454Y-63724855D01*
X132574159Y-63741575D01*
X132388595Y-63871508D01*
X132221505Y-64038598D01*
X132091575Y-64224159D01*
X132036998Y-64267784D01*
X131967500Y-64274978D01*
X131905145Y-64243455D01*
X131888425Y-64224159D01*
X131800426Y-64098483D01*
X131758495Y-64038599D01*
X131591401Y-63871505D01*
X131405402Y-63741267D01*
X131361780Y-63686692D01*
X131354587Y-63617193D01*
X131386109Y-63554839D01*
X131405405Y-63538119D01*
X131591078Y-63408109D01*
X131758109Y-63241078D01*
X131888119Y-63055405D01*
X131942696Y-63011780D01*
X132012194Y-63004586D01*
X132074549Y-63036109D01*
G37*
G04 #@! TD.AperFunction*
G04 #@! TA.AperFunction,Conductor*
G36*
X132074854Y-60496545D02*
G01*
X132091572Y-60515838D01*
X132221505Y-60701401D01*
X132388599Y-60868495D01*
X132574160Y-60998426D01*
X132617783Y-61053002D01*
X132624976Y-61122501D01*
X132593454Y-61184855D01*
X132574159Y-61201575D01*
X132388595Y-61331508D01*
X132221508Y-61498595D01*
X132221505Y-61498598D01*
X132221505Y-61498599D01*
X132178963Y-61559356D01*
X132091269Y-61684596D01*
X132036692Y-61728220D01*
X131967193Y-61735413D01*
X131904839Y-61703891D01*
X131888119Y-61684595D01*
X131758109Y-61498921D01*
X131591081Y-61331893D01*
X131405404Y-61201880D01*
X131361780Y-61147303D01*
X131354587Y-61077804D01*
X131386109Y-61015450D01*
X131405399Y-60998734D01*
X131591401Y-60868495D01*
X131758495Y-60701401D01*
X131888427Y-60515838D01*
X131943001Y-60472216D01*
X132012499Y-60465022D01*
X132074854Y-60496545D01*
G37*
G04 #@! TD.AperFunction*
G04 #@! TA.AperFunction,Conductor*
G36*
X132075160Y-57956109D02*
G01*
X132091880Y-57975404D01*
X132221893Y-58161081D01*
X132388918Y-58328106D01*
X132574595Y-58458119D01*
X132618219Y-58512696D01*
X132625412Y-58582195D01*
X132593890Y-58644549D01*
X132574595Y-58661269D01*
X132388595Y-58791508D01*
X132221505Y-58958598D01*
X132091575Y-59144159D01*
X132036998Y-59187784D01*
X131967500Y-59194978D01*
X131905145Y-59163455D01*
X131888425Y-59144159D01*
X131758494Y-58958598D01*
X131591401Y-58791505D01*
X131555833Y-58766600D01*
X131405839Y-58661573D01*
X131362216Y-58606998D01*
X131355022Y-58537500D01*
X131386545Y-58475145D01*
X131405837Y-58458428D01*
X131591401Y-58328495D01*
X131758495Y-58161401D01*
X131888732Y-57975403D01*
X131943307Y-57931780D01*
X132012805Y-57924586D01*
X132075160Y-57956109D01*
G37*
G04 #@! TD.AperFunction*
M02*
