G04 #@! TF.GenerationSoftware,KiCad,Pcbnew,7.0.2-0*
G04 #@! TF.CreationDate,2024-01-15T23:03:40+01:00*
G04 #@! TF.ProjectId,network_player,6e657477-6f72-46b5-9f70-6c617965722e,rev?*
G04 #@! TF.SameCoordinates,Original*
G04 #@! TF.FileFunction,Copper,L2,Inr*
G04 #@! TF.FilePolarity,Positive*
%FSLAX46Y46*%
G04 Gerber Fmt 4.6, Leading zero omitted, Abs format (unit mm)*
G04 Created by KiCad (PCBNEW 7.0.2-0) date 2024-01-15 23:03:40*
%MOMM*%
%LPD*%
G01*
G04 APERTURE LIST*
G04 #@! TA.AperFunction,ComponentPad*
%ADD10R,1.700000X1.700000*%
G04 #@! TD*
G04 #@! TA.AperFunction,ComponentPad*
%ADD11O,1.700000X1.700000*%
G04 #@! TD*
G04 #@! TA.AperFunction,ComponentPad*
%ADD12C,0.650000*%
G04 #@! TD*
G04 #@! TA.AperFunction,ComponentPad*
%ADD13O,2.100000X0.900000*%
G04 #@! TD*
G04 #@! TA.AperFunction,ComponentPad*
%ADD14O,1.600000X1.000000*%
G04 #@! TD*
G04 #@! TA.AperFunction,ViaPad*
%ADD15C,0.685800*%
G04 #@! TD*
G04 #@! TA.AperFunction,Conductor*
%ADD16C,0.127000*%
G04 #@! TD*
G04 APERTURE END LIST*
D10*
X130720000Y-52210000D03*
D11*
X133260000Y-52210000D03*
X130720000Y-54750000D03*
X133260000Y-54750000D03*
X130720000Y-57290000D03*
X133260000Y-57290000D03*
X130720000Y-59830000D03*
X133260000Y-59830000D03*
X130720000Y-62370000D03*
X133260000Y-62370000D03*
X130720000Y-64910000D03*
X133260000Y-64910000D03*
X130720000Y-67450000D03*
X133260000Y-67450000D03*
X130720000Y-69990000D03*
X133260000Y-69990000D03*
X130720000Y-72530000D03*
X133260000Y-72530000D03*
X130720000Y-75070000D03*
X133260000Y-75070000D03*
X130720000Y-77610000D03*
X133260000Y-77610000D03*
X130720000Y-80150000D03*
X133260000Y-80150000D03*
X130720000Y-82690000D03*
X133260000Y-82690000D03*
X130720000Y-85230000D03*
X133260000Y-85230000D03*
X130720000Y-87770000D03*
X133260000Y-87770000D03*
X130720000Y-90310000D03*
X133260000Y-90310000D03*
X130720000Y-92850000D03*
X133260000Y-92850000D03*
X130720000Y-95390000D03*
X133260000Y-95390000D03*
X130720000Y-97930000D03*
X133260000Y-97930000D03*
X130720000Y-100470000D03*
X133260000Y-100470000D03*
D12*
X112350000Y-64690000D03*
X112350000Y-70470000D03*
D13*
X112850000Y-63260000D03*
D14*
X108670000Y-63260000D03*
D13*
X112850000Y-71900000D03*
D14*
X108670000Y-71900000D03*
D15*
X112025000Y-65575000D03*
X112025000Y-69725000D03*
X125925000Y-60000000D03*
X124950000Y-65875000D03*
X120025000Y-60475000D03*
X124741932Y-62491932D03*
X107425000Y-90850000D03*
X126875000Y-74300000D03*
X116080000Y-87140000D03*
X118450000Y-71100000D03*
X113639600Y-79375000D03*
X107880000Y-77220000D03*
X124158535Y-91255100D03*
X118390000Y-89550000D03*
X114450000Y-84000000D03*
X116636800Y-79700000D03*
X123399500Y-68550000D03*
X106590000Y-75800000D03*
X117640000Y-59740000D03*
X120775000Y-90775000D03*
X127630000Y-87070000D03*
X118050000Y-61449900D03*
X115925000Y-51275000D03*
X112425000Y-55625000D03*
X117691418Y-87997782D03*
X124531885Y-77053917D03*
X112302100Y-83455700D03*
X127810000Y-72530000D03*
X109067600Y-76911200D03*
X114850000Y-89275000D03*
X122748600Y-89570000D03*
X124150000Y-94925000D03*
X115734198Y-76240802D03*
X116179932Y-73350000D03*
X124510800Y-80848200D03*
X116225500Y-70625000D03*
X116687600Y-82092800D03*
X114750000Y-61900000D03*
X110884082Y-75609082D03*
X108675000Y-98475800D03*
X113625000Y-78325000D03*
X124212226Y-74731126D03*
X123400000Y-74720000D03*
X125946600Y-67538747D03*
X126075000Y-65925000D03*
X117825000Y-66900000D03*
X123399500Y-66875000D03*
X123399500Y-69362303D03*
X128325000Y-82950000D03*
X114270000Y-74320000D03*
X116547852Y-77055162D03*
X128010000Y-100010000D03*
X118631365Y-74185626D03*
X118450000Y-76956600D03*
X126660000Y-82940000D03*
X116730000Y-52870000D03*
X115930000Y-53670000D03*
X126610000Y-85320000D03*
X124675220Y-83920960D03*
X119250000Y-57450000D03*
X124425000Y-84825000D03*
X120850000Y-57525000D03*
X122440000Y-59930000D03*
X124630000Y-82500000D03*
X123251732Y-59899560D03*
X126620000Y-84010000D03*
X119450000Y-92550000D03*
X107189500Y-53206865D03*
X127429400Y-79705200D03*
X125510000Y-74230000D03*
X125500000Y-75080000D03*
X107660000Y-50307100D03*
X118340001Y-84989402D03*
X124841000Y-59969400D03*
X119325000Y-101775000D03*
X119475000Y-107825000D03*
X112050000Y-51900000D03*
X119152297Y-84992602D03*
X128850000Y-53690000D03*
X119964593Y-84989402D03*
X121200000Y-87000000D03*
X119700000Y-95000000D03*
X114480793Y-76280364D03*
X112027383Y-68150665D03*
X113816253Y-76944904D03*
X112027383Y-67210865D03*
X110290000Y-51950000D03*
X108850000Y-50840000D03*
X107852213Y-56307787D03*
X108336865Y-52059500D03*
X110630000Y-54690000D03*
X111400000Y-57670000D03*
X118541800Y-93319600D03*
X126089082Y-94052718D03*
X128538868Y-93816600D03*
X122504200Y-85013800D03*
X120688941Y-74568906D03*
X120453487Y-87328351D03*
X116637300Y-81050000D03*
X128036780Y-76794657D03*
X127401412Y-78080844D03*
X128892600Y-86094623D03*
X119600000Y-76956600D03*
X119870774Y-74617191D03*
X121110176Y-75265107D03*
X121150000Y-76956600D03*
X121405401Y-74186126D03*
X120776896Y-84989402D03*
D16*
X116080000Y-87140000D02*
X118390000Y-89450000D01*
X118390000Y-89450000D02*
X118390000Y-89550000D01*
X119150000Y-95800000D02*
X123275000Y-95800000D01*
X122748600Y-89570000D02*
X122748600Y-93523600D01*
X117691418Y-87997782D02*
X118923400Y-89229764D01*
X123275000Y-95800000D02*
X124150000Y-94925000D01*
X118008400Y-93098658D02*
X118008400Y-94658400D01*
X118923400Y-92183658D02*
X118008400Y-93098658D01*
X118008400Y-94658400D02*
X119150000Y-95800000D01*
X118923400Y-89229764D02*
X118923400Y-92183658D01*
X122748600Y-93523600D02*
X124150000Y-94925000D01*
X108675000Y-78058142D02*
X114750000Y-71983142D01*
X108675000Y-98475800D02*
X108675000Y-78058142D01*
X114750000Y-71983142D02*
X114750000Y-61900000D01*
X133690990Y-65950500D02*
X134300500Y-65340990D01*
X130452852Y-68490500D02*
X131150990Y-68490500D01*
X132219500Y-66560010D02*
X132829010Y-65950500D01*
X124212226Y-74731126D02*
X130452852Y-68490500D01*
X132219500Y-67421990D02*
X132219500Y-66560010D01*
X134300500Y-65340990D02*
X134300500Y-60870500D01*
X131150990Y-68490500D02*
X132219500Y-67421990D01*
X132829010Y-65950500D02*
X133690990Y-65950500D01*
X134300500Y-60870500D02*
X133260000Y-59830000D01*
X131150990Y-65950500D02*
X132219500Y-64881990D01*
X132219500Y-63410500D02*
X133260000Y-62370000D01*
X123400000Y-73200000D02*
X130649500Y-65950500D01*
X123400000Y-74720000D02*
X123400000Y-73200000D01*
X132219500Y-64881990D02*
X132219500Y-63410500D01*
X130649500Y-65950500D02*
X131150990Y-65950500D01*
X122866600Y-69895203D02*
X122866600Y-77491600D01*
X122866600Y-77491600D02*
X128325000Y-82950000D01*
X123399500Y-69362303D02*
X122866600Y-69895203D01*
X118631365Y-74185626D02*
X118631365Y-76775235D01*
X118631365Y-76775235D02*
X118450000Y-76956600D01*
X124632551Y-86330000D02*
X126354342Y-86330000D01*
X116150942Y-53136600D02*
X115709058Y-53136600D01*
X117012400Y-53152400D02*
X117012400Y-53998058D01*
X115709058Y-53136600D02*
X115396600Y-53449058D01*
X126354342Y-86330000D02*
X127153400Y-85530942D01*
X115396600Y-75724058D02*
X115116600Y-76004058D01*
X127153400Y-83433400D02*
X126660000Y-82940000D01*
X115116600Y-76004058D02*
X115116600Y-76814049D01*
X115396600Y-53449058D02*
X115396600Y-75724058D01*
X115116600Y-76814049D02*
X124632551Y-86330000D01*
X127153400Y-85530942D02*
X127153400Y-83433400D01*
X116730000Y-52870000D02*
X117012400Y-53152400D01*
X117012400Y-53998058D02*
X116150942Y-53136600D01*
X115930000Y-53670000D02*
X116758400Y-54498400D01*
X115930000Y-76918672D02*
X115930000Y-77268239D01*
X125880000Y-86050000D02*
X126610000Y-85320000D01*
X116758400Y-54498400D02*
X116758400Y-76090272D01*
X115930000Y-77268239D02*
X124711761Y-86050000D01*
X116758400Y-76090272D02*
X115930000Y-76918672D01*
X124711761Y-86050000D02*
X125880000Y-86050000D01*
X124425000Y-84825000D02*
X117081252Y-77481252D01*
X117081252Y-61293748D02*
X120850000Y-57525000D01*
X117081252Y-77481252D02*
X117081252Y-61293748D01*
X124630000Y-82500000D02*
X122358600Y-80228600D01*
X122358600Y-80228600D02*
X122358600Y-60011400D01*
X122358600Y-60011400D02*
X122440000Y-59930000D01*
X126620000Y-83735658D02*
X122612600Y-79728258D01*
X126620000Y-84010000D02*
X126620000Y-83735658D01*
X122612600Y-79728258D02*
X122612600Y-60538692D01*
X122612600Y-60538692D02*
X123251732Y-59899560D01*
X117208200Y-52336600D02*
X124841000Y-59969400D01*
X112458600Y-52308600D02*
X112050000Y-51900000D01*
X112458600Y-52336600D02*
X112458600Y-52308600D01*
X112458600Y-52336600D02*
X117208200Y-52336600D01*
X121433400Y-93266600D02*
X121433400Y-87233400D01*
X121433400Y-87233400D02*
X121200000Y-87000000D01*
X119700000Y-95000000D02*
X121433400Y-93266600D01*
X119166600Y-94779058D02*
X120232545Y-93713113D01*
X120232545Y-93713113D02*
X120232545Y-87861751D01*
X127850942Y-87603400D02*
X122023858Y-87603400D01*
X133796200Y-83984500D02*
X130224710Y-83984500D01*
X119920942Y-95533400D02*
X119479058Y-95533400D01*
X122013696Y-85013800D02*
X122504200Y-85013800D01*
X119479058Y-95533400D02*
X119166600Y-95220942D01*
X130720000Y-57290000D02*
X131760500Y-58330500D01*
X131760500Y-59498800D02*
X132723800Y-58535500D01*
X119920087Y-87549293D02*
X119920087Y-87107409D01*
X132723800Y-58535500D02*
X133796200Y-58535500D01*
X128163400Y-86045810D02*
X128163400Y-87290942D01*
X134808500Y-59547800D02*
X134808500Y-82972200D01*
X134808500Y-82972200D02*
X133796200Y-83984500D01*
X120232545Y-87861751D02*
X119920087Y-87549293D01*
X133796200Y-58535500D02*
X134808500Y-59547800D01*
X119166600Y-95220942D02*
X119166600Y-94779058D01*
X122023858Y-87603400D02*
X122023858Y-93430484D01*
X131760500Y-58330500D02*
X131760500Y-59498800D01*
X128163400Y-87290942D02*
X127850942Y-87603400D01*
X119920087Y-87107409D02*
X122013696Y-85013800D01*
X122023858Y-93430484D02*
X119920942Y-95533400D01*
X130224710Y-83984500D02*
X128163400Y-86045810D01*
X125011514Y-60905000D02*
X123472674Y-59366160D01*
X120688941Y-60926717D02*
X120688941Y-74568906D01*
X122249498Y-59366160D02*
X120688941Y-60926717D01*
X123472674Y-59366160D02*
X122249498Y-59366160D01*
X130720000Y-59830000D02*
X129645000Y-60905000D01*
X129645000Y-60905000D02*
X125011514Y-60905000D01*
X133690990Y-78650500D02*
X132829010Y-78650500D01*
X132219500Y-59399010D02*
X132219500Y-60260990D01*
X127266000Y-86584000D02*
X130119500Y-83730500D01*
X134554500Y-59653010D02*
X133690990Y-58789500D01*
X132829010Y-78650500D02*
X131760500Y-77581990D01*
X133690990Y-58789500D02*
X132829010Y-58789500D01*
X121342328Y-86103330D02*
X124046671Y-86103330D01*
X134554500Y-66765010D02*
X134554500Y-59653010D01*
X131760500Y-77581990D02*
X131760500Y-69248800D01*
X132518800Y-68490500D02*
X133690990Y-68490500D01*
X134300500Y-67880990D02*
X134300500Y-67019010D01*
X120453487Y-86992171D02*
X121342328Y-86103330D01*
X133690990Y-83730500D02*
X134300500Y-83120990D01*
X124527341Y-86584000D02*
X127266000Y-86584000D01*
X129679500Y-63869500D02*
X130720000Y-64910000D01*
X133690990Y-68490500D02*
X134300500Y-67880990D01*
X131760500Y-69248800D02*
X132518800Y-68490500D01*
X134300500Y-83120990D02*
X134300500Y-79260010D01*
X131150990Y-61329500D02*
X130289010Y-61329500D01*
X132829010Y-58789500D02*
X132219500Y-59399010D01*
X130119500Y-83730500D02*
X133690990Y-83730500D01*
X134300500Y-67019010D02*
X134554500Y-66765010D01*
X134300500Y-79260010D02*
X133690990Y-78650500D01*
X129679500Y-61939010D02*
X129679500Y-63869500D01*
X132219500Y-60260990D02*
X131150990Y-61329500D01*
X130289010Y-61329500D02*
X129679500Y-61939010D01*
X124046671Y-86103330D02*
X124527341Y-86584000D01*
X120453487Y-87328351D02*
X120453487Y-86992171D01*
G04 #@! TA.AperFunction,Conductor*
G36*
X114129984Y-42828752D02*
G01*
X114196994Y-42848536D01*
X114242671Y-42901408D01*
X114253800Y-42952752D01*
X114253799Y-48067999D01*
X114253800Y-48068000D01*
X127453799Y-48068000D01*
X127453800Y-48068000D01*
X127453800Y-47320199D01*
X130372951Y-47320199D01*
X130392717Y-47571349D01*
X130451526Y-47816310D01*
X130462048Y-47841711D01*
X130547934Y-48049059D01*
X130679564Y-48263859D01*
X130843176Y-48455424D01*
X131034741Y-48619036D01*
X131249541Y-48750666D01*
X131482289Y-48847073D01*
X131727252Y-48905883D01*
X131915518Y-48920700D01*
X131917963Y-48920700D01*
X132038837Y-48920700D01*
X132041282Y-48920700D01*
X132229548Y-48905883D01*
X132474511Y-48847073D01*
X132707259Y-48750666D01*
X132922059Y-48619036D01*
X133113624Y-48455424D01*
X133277236Y-48263859D01*
X133408866Y-48049059D01*
X133505273Y-47816311D01*
X133564083Y-47571348D01*
X133583849Y-47320200D01*
X133564083Y-47069052D01*
X133505273Y-46824089D01*
X133408866Y-46591341D01*
X133277236Y-46376541D01*
X133113624Y-46184976D01*
X132922059Y-46021364D01*
X132707259Y-45889734D01*
X132555513Y-45826879D01*
X132474510Y-45793326D01*
X132229549Y-45734517D01*
X132043716Y-45719891D01*
X132043701Y-45719890D01*
X132041282Y-45719700D01*
X131915518Y-45719700D01*
X131913099Y-45719890D01*
X131913083Y-45719891D01*
X131727250Y-45734517D01*
X131482289Y-45793326D01*
X131249539Y-45889735D01*
X131034742Y-46021363D01*
X130843176Y-46184976D01*
X130679563Y-46376542D01*
X130547935Y-46591339D01*
X130451526Y-46824089D01*
X130392717Y-47069050D01*
X130372951Y-47320199D01*
X127453800Y-47320199D01*
X127453799Y-42972704D01*
X127473484Y-42905666D01*
X127526288Y-42859911D01*
X127577981Y-42848705D01*
X128433084Y-42849974D01*
X128500094Y-42869758D01*
X128545771Y-42922630D01*
X128556900Y-42973974D01*
X128556900Y-43836160D01*
X128564590Y-43862353D01*
X128568347Y-43879626D01*
X128572235Y-43906655D01*
X128572235Y-43906657D01*
X128583573Y-43931483D01*
X128589754Y-43948057D01*
X128597445Y-43974249D01*
X128597446Y-43974251D01*
X128597447Y-43974253D01*
X128612210Y-43997225D01*
X128620683Y-44012743D01*
X128632022Y-44037572D01*
X128649895Y-44058198D01*
X128660497Y-44072362D01*
X128675255Y-44095327D01*
X128695887Y-44113205D01*
X128708392Y-44125710D01*
X128726272Y-44146343D01*
X128749236Y-44161101D01*
X128763402Y-44171705D01*
X128784025Y-44189576D01*
X128784026Y-44189576D01*
X128784027Y-44189577D01*
X128808855Y-44200915D01*
X128824377Y-44209392D01*
X128847344Y-44224152D01*
X128873535Y-44231842D01*
X128890113Y-44238026D01*
X128910591Y-44247377D01*
X128914943Y-44249365D01*
X128941970Y-44253251D01*
X128959249Y-44257010D01*
X128985439Y-44264700D01*
X129021601Y-44264700D01*
X132547508Y-44264700D01*
X132609649Y-44264700D01*
X132617136Y-44264926D01*
X132897674Y-44281895D01*
X132912536Y-44283700D01*
X132990117Y-44297917D01*
X133185292Y-44333684D01*
X133199825Y-44337266D01*
X133464564Y-44419762D01*
X133478552Y-44425067D01*
X133731421Y-44538875D01*
X133744675Y-44545831D01*
X133758003Y-44553888D01*
X133981988Y-44689291D01*
X133994299Y-44697789D01*
X134212586Y-44868806D01*
X134223794Y-44878736D01*
X134419863Y-45074805D01*
X134429793Y-45086013D01*
X134600806Y-45304294D01*
X134609312Y-45316617D01*
X134752768Y-45553924D01*
X134759726Y-45567182D01*
X134861506Y-45793327D01*
X134873527Y-45820035D01*
X134878837Y-45834037D01*
X134961332Y-46098772D01*
X134964916Y-46113311D01*
X135014899Y-46386063D01*
X135016704Y-46400927D01*
X135033674Y-46681463D01*
X135033900Y-46688950D01*
X135033900Y-46767004D01*
X135033934Y-46767272D01*
X135039052Y-58681321D01*
X135019396Y-58748369D01*
X134966612Y-58794146D01*
X134897458Y-58804119D01*
X134833890Y-58775122D01*
X134827371Y-58769055D01*
X134618622Y-58560306D01*
X134339265Y-58280948D01*
X134305780Y-58219625D01*
X134310764Y-58149933D01*
X134325372Y-58122143D01*
X134433598Y-57967580D01*
X134533430Y-57753492D01*
X134590636Y-57540000D01*
X133693686Y-57540000D01*
X133719493Y-57499844D01*
X133760000Y-57361889D01*
X133760000Y-57218111D01*
X133719493Y-57080156D01*
X133693686Y-57040000D01*
X134590636Y-57040000D01*
X134590635Y-57039999D01*
X134533430Y-56826507D01*
X134433599Y-56612421D01*
X134298109Y-56418921D01*
X134131081Y-56251893D01*
X133945404Y-56121880D01*
X133901780Y-56067303D01*
X133894587Y-55997804D01*
X133926109Y-55935450D01*
X133945399Y-55918734D01*
X134131401Y-55788495D01*
X134298495Y-55621401D01*
X134434035Y-55427830D01*
X134533903Y-55213663D01*
X134595063Y-54985408D01*
X134615659Y-54750000D01*
X134610409Y-54689999D01*
X134595063Y-54514592D01*
X134564441Y-54400308D01*
X134533903Y-54286337D01*
X134434035Y-54072171D01*
X134298495Y-53878599D01*
X134131401Y-53711505D01*
X133945839Y-53581573D01*
X133902216Y-53526998D01*
X133895022Y-53457500D01*
X133926545Y-53395145D01*
X133945837Y-53378428D01*
X134131401Y-53248495D01*
X134298495Y-53081401D01*
X134434035Y-52887830D01*
X134533903Y-52673663D01*
X134595063Y-52445408D01*
X134615659Y-52210000D01*
X134595063Y-51974592D01*
X134533903Y-51746337D01*
X134434035Y-51532171D01*
X134298495Y-51338599D01*
X134131401Y-51171505D01*
X133937830Y-51035965D01*
X133723663Y-50936097D01*
X133662501Y-50919709D01*
X133495407Y-50874936D01*
X133259999Y-50854340D01*
X133024592Y-50874936D01*
X132796336Y-50936097D01*
X132582170Y-51035965D01*
X132388601Y-51171503D01*
X132266673Y-51293431D01*
X132205350Y-51326915D01*
X132135658Y-51321931D01*
X132079725Y-51280059D01*
X132062810Y-51249082D01*
X132050310Y-51215569D01*
X132013796Y-51117669D01*
X131927546Y-51002454D01*
X131812331Y-50916204D01*
X131677483Y-50865909D01*
X131617873Y-50859500D01*
X131614550Y-50859500D01*
X129825439Y-50859500D01*
X129825420Y-50859500D01*
X129822128Y-50859501D01*
X129818848Y-50859853D01*
X129818840Y-50859854D01*
X129762515Y-50865909D01*
X129627669Y-50916204D01*
X129512454Y-51002454D01*
X129426204Y-51117668D01*
X129384247Y-51230162D01*
X129375909Y-51252517D01*
X129369500Y-51312127D01*
X129369500Y-51315448D01*
X129369500Y-51315449D01*
X129369500Y-52807135D01*
X129349815Y-52874174D01*
X129297011Y-52919929D01*
X129227853Y-52929873D01*
X129195065Y-52920415D01*
X129112058Y-52883458D01*
X128938648Y-52846600D01*
X128938645Y-52846600D01*
X128761355Y-52846600D01*
X128761352Y-52846600D01*
X128587939Y-52883459D01*
X128425976Y-52955570D01*
X128282546Y-53059777D01*
X128163915Y-53191530D01*
X128075270Y-53345069D01*
X128020487Y-53513677D01*
X128020486Y-53513681D01*
X128001954Y-53690000D01*
X128020486Y-53866319D01*
X128020487Y-53866322D01*
X128075270Y-54034930D01*
X128163915Y-54188469D01*
X128282546Y-54320222D01*
X128425976Y-54424429D01*
X128587939Y-54496540D01*
X128761352Y-54533400D01*
X128761355Y-54533400D01*
X128938648Y-54533400D01*
X129112057Y-54496541D01*
X129112057Y-54496540D01*
X129112061Y-54496540D01*
X129205329Y-54455013D01*
X129274577Y-54445728D01*
X129337854Y-54475356D01*
X129375068Y-54534491D01*
X129379292Y-54579100D01*
X129364340Y-54749999D01*
X129384936Y-54985407D01*
X129398206Y-55034930D01*
X129446097Y-55213663D01*
X129545965Y-55427830D01*
X129681505Y-55621401D01*
X129848599Y-55788495D01*
X130034160Y-55918426D01*
X130077783Y-55973002D01*
X130084976Y-56042501D01*
X130053454Y-56104855D01*
X130034159Y-56121575D01*
X129848595Y-56251508D01*
X129681505Y-56418598D01*
X129545965Y-56612170D01*
X129446097Y-56826336D01*
X129384936Y-57054592D01*
X129364340Y-57290000D01*
X129384936Y-57525407D01*
X129411976Y-57626322D01*
X129446097Y-57753663D01*
X129545965Y-57967830D01*
X129681505Y-58161401D01*
X129848599Y-58328495D01*
X130034160Y-58458426D01*
X130077783Y-58513002D01*
X130084976Y-58582501D01*
X130053454Y-58644855D01*
X130034158Y-58661575D01*
X129871997Y-58775122D01*
X129848595Y-58791508D01*
X129681505Y-58958598D01*
X129545965Y-59152170D01*
X129446097Y-59366336D01*
X129384936Y-59594592D01*
X129364340Y-59829999D01*
X129384936Y-60065407D01*
X129416956Y-60184907D01*
X129415293Y-60254757D01*
X129376130Y-60312619D01*
X129311902Y-60340123D01*
X129297181Y-60341000D01*
X126871677Y-60341000D01*
X126804638Y-60321315D01*
X126758883Y-60268511D01*
X126748939Y-60199353D01*
X126753746Y-60178683D01*
X126753819Y-60178456D01*
X126754514Y-60176319D01*
X126773046Y-60000000D01*
X126754514Y-59823681D01*
X126699729Y-59655069D01*
X126664813Y-59594592D01*
X126611084Y-59501530D01*
X126492453Y-59369777D01*
X126349023Y-59265570D01*
X126187060Y-59193459D01*
X126013648Y-59156600D01*
X126013645Y-59156600D01*
X125836355Y-59156600D01*
X125836352Y-59156600D01*
X125662939Y-59193458D01*
X125500978Y-59265569D01*
X125476941Y-59283033D01*
X125411134Y-59306511D01*
X125343080Y-59290684D01*
X125331172Y-59283031D01*
X125307140Y-59265571D01*
X125265023Y-59234971D01*
X125265022Y-59234970D01*
X125265020Y-59234969D01*
X125103060Y-59162859D01*
X124929648Y-59126000D01*
X124929645Y-59126000D01*
X124846578Y-59126000D01*
X124779539Y-59106315D01*
X124758897Y-59089681D01*
X121202616Y-55533400D01*
X117638896Y-51969679D01*
X117628200Y-51957483D01*
X117622458Y-51950000D01*
X117610450Y-51934350D01*
X117568183Y-51901918D01*
X117492633Y-51843947D01*
X117355434Y-51787117D01*
X117338304Y-51784861D01*
X117208200Y-51767732D01*
X117182719Y-51771087D01*
X117179289Y-51771539D01*
X117163106Y-51772600D01*
X116820795Y-51772600D01*
X116753756Y-51752915D01*
X116708001Y-51700111D01*
X116698057Y-51630953D01*
X116702864Y-51610282D01*
X116712298Y-51581246D01*
X116754514Y-51451319D01*
X116773046Y-51275000D01*
X116754514Y-51098681D01*
X116699729Y-50930069D01*
X116667898Y-50874936D01*
X116611084Y-50776530D01*
X116492453Y-50644777D01*
X116349023Y-50540570D01*
X116187060Y-50468459D01*
X116013648Y-50431600D01*
X116013645Y-50431600D01*
X115836355Y-50431600D01*
X115836352Y-50431600D01*
X115662939Y-50468459D01*
X115500976Y-50540570D01*
X115357546Y-50644777D01*
X115238915Y-50776530D01*
X115150270Y-50930069D01*
X115097182Y-51093460D01*
X115095486Y-51098681D01*
X115083200Y-51215571D01*
X115079271Y-51252960D01*
X115076954Y-51275000D01*
X115081887Y-51321931D01*
X115095486Y-51451320D01*
X115147136Y-51610282D01*
X115149131Y-51680123D01*
X115113050Y-51739956D01*
X115050349Y-51770784D01*
X115029205Y-51772600D01*
X112985500Y-51772600D01*
X112918461Y-51752915D01*
X112872706Y-51700111D01*
X112867569Y-51686918D01*
X112824729Y-51555068D01*
X112736084Y-51401530D01*
X112617453Y-51269777D01*
X112474023Y-51165570D01*
X112312060Y-51093459D01*
X112138648Y-51056600D01*
X112138645Y-51056600D01*
X111961355Y-51056600D01*
X111961352Y-51056600D01*
X111787939Y-51093459D01*
X111625976Y-51165570D01*
X111482546Y-51269777D01*
X111363915Y-51401530D01*
X111275271Y-51555066D01*
X111275120Y-51555534D01*
X111274362Y-51556641D01*
X111268754Y-51566356D01*
X111268012Y-51565927D01*
X111235681Y-51613209D01*
X111171322Y-51640406D01*
X111102476Y-51628491D01*
X111051001Y-51581246D01*
X111049802Y-51579214D01*
X110976084Y-51451530D01*
X110857453Y-51319777D01*
X110714023Y-51215570D01*
X110552060Y-51143459D01*
X110378648Y-51106600D01*
X110378645Y-51106600D01*
X110201355Y-51106600D01*
X110201352Y-51106600D01*
X110027939Y-51143459D01*
X109865977Y-51215569D01*
X109845892Y-51230162D01*
X109780085Y-51253640D01*
X109712032Y-51237813D01*
X109663338Y-51187706D01*
X109649464Y-51119228D01*
X109655077Y-51091528D01*
X109679514Y-51016319D01*
X109698046Y-50840000D01*
X109679514Y-50663681D01*
X109624729Y-50495069D01*
X109588085Y-50431600D01*
X109536084Y-50341530D01*
X109417453Y-50209777D01*
X109274023Y-50105570D01*
X109112060Y-50033459D01*
X108938648Y-49996600D01*
X108938645Y-49996600D01*
X108761355Y-49996600D01*
X108761352Y-49996600D01*
X108575503Y-50036102D01*
X108505836Y-50030786D01*
X108450103Y-49988648D01*
X108442036Y-49972999D01*
X108441246Y-49973456D01*
X108346084Y-49808630D01*
X108227453Y-49676877D01*
X108084023Y-49572670D01*
X107922060Y-49500559D01*
X107748648Y-49463700D01*
X107748645Y-49463700D01*
X107571355Y-49463700D01*
X107571352Y-49463700D01*
X107397939Y-49500559D01*
X107235976Y-49572670D01*
X107092546Y-49676877D01*
X106973915Y-49808630D01*
X106885270Y-49962169D01*
X106845672Y-50084043D01*
X106830486Y-50130781D01*
X106811954Y-50307100D01*
X106830486Y-50483419D01*
X106830487Y-50483422D01*
X106885270Y-50652030D01*
X106973915Y-50805569D01*
X107092546Y-50937322D01*
X107235976Y-51041529D01*
X107397939Y-51113640D01*
X107571352Y-51150500D01*
X107571355Y-51150500D01*
X107748642Y-51150500D01*
X107748645Y-51150500D01*
X107749754Y-51150264D01*
X107752847Y-51150500D01*
X107761678Y-51150500D01*
X107761678Y-51151173D01*
X107819419Y-51155577D01*
X107875155Y-51197711D01*
X107899263Y-51263289D01*
X107884090Y-51331492D01*
X107848425Y-51371871D01*
X107769410Y-51429279D01*
X107650780Y-51561030D01*
X107562135Y-51714569D01*
X107507352Y-51883177D01*
X107507351Y-51883181D01*
X107488819Y-52059499D01*
X107488819Y-52059500D01*
X107508471Y-52246478D01*
X107495901Y-52315208D01*
X107448169Y-52366231D01*
X107380429Y-52383349D01*
X107359369Y-52380729D01*
X107278147Y-52363465D01*
X107278145Y-52363465D01*
X107100855Y-52363465D01*
X107100852Y-52363465D01*
X106927439Y-52400324D01*
X106765476Y-52472435D01*
X106622046Y-52576642D01*
X106503415Y-52708395D01*
X106414770Y-52861934D01*
X106359987Y-53030542D01*
X106359986Y-53030546D01*
X106341454Y-53206865D01*
X106359986Y-53383184D01*
X106359987Y-53383187D01*
X106414770Y-53551795D01*
X106503415Y-53705334D01*
X106622046Y-53837087D01*
X106765476Y-53941294D01*
X106927439Y-54013405D01*
X107100852Y-54050265D01*
X107100855Y-54050265D01*
X107278148Y-54050265D01*
X107408207Y-54022620D01*
X107451561Y-54013405D01*
X107613523Y-53941294D01*
X107756954Y-53837086D01*
X107875584Y-53705334D01*
X107964229Y-53551796D01*
X108019014Y-53383184D01*
X108037546Y-53206865D01*
X108019014Y-53030546D01*
X108019012Y-53030542D01*
X108017893Y-53019887D01*
X108030462Y-52951157D01*
X108078194Y-52900133D01*
X108145934Y-52883015D01*
X108166988Y-52885634D01*
X108248220Y-52902900D01*
X108425513Y-52902900D01*
X108560658Y-52874174D01*
X108598926Y-52866040D01*
X108760888Y-52793929D01*
X108795167Y-52769024D01*
X108904318Y-52689722D01*
X108918779Y-52673662D01*
X109022949Y-52557969D01*
X109111594Y-52404431D01*
X109166379Y-52235819D01*
X109184911Y-52059500D01*
X109166379Y-51883181D01*
X109126843Y-51761503D01*
X109124849Y-51691662D01*
X109160930Y-51631830D01*
X109194337Y-51609907D01*
X109274023Y-51574429D01*
X109294103Y-51559839D01*
X109359909Y-51536359D01*
X109427963Y-51552184D01*
X109476659Y-51602289D01*
X109490535Y-51670767D01*
X109484922Y-51698474D01*
X109476732Y-51723681D01*
X109460486Y-51773681D01*
X109441954Y-51950000D01*
X109460486Y-52126319D01*
X109460487Y-52126322D01*
X109515270Y-52294930D01*
X109603915Y-52448469D01*
X109722546Y-52580222D01*
X109865976Y-52684429D01*
X110027939Y-52756540D01*
X110201352Y-52793400D01*
X110201355Y-52793400D01*
X110378648Y-52793400D01*
X110508707Y-52765754D01*
X110552061Y-52756540D01*
X110714023Y-52684429D01*
X110857454Y-52580221D01*
X110976084Y-52448469D01*
X111064729Y-52294931D01*
X111064877Y-52294473D01*
X111065622Y-52293383D01*
X111071246Y-52283644D01*
X111071988Y-52284072D01*
X111104309Y-52236798D01*
X111168665Y-52209594D01*
X111237512Y-52221503D01*
X111288992Y-52268743D01*
X111290197Y-52270785D01*
X111363915Y-52398469D01*
X111482546Y-52530222D01*
X111625976Y-52634429D01*
X111787939Y-52706540D01*
X111961352Y-52743400D01*
X111961355Y-52743400D01*
X112020188Y-52743400D01*
X112087227Y-52763085D01*
X112095661Y-52769014D01*
X112174166Y-52829253D01*
X112311366Y-52886083D01*
X112429691Y-52901661D01*
X112458599Y-52905467D01*
X112458599Y-52905466D01*
X112458600Y-52905467D01*
X112487510Y-52901660D01*
X112503694Y-52900600D01*
X114855093Y-52900600D01*
X114922132Y-52920285D01*
X114967887Y-52973089D01*
X114977831Y-53042247D01*
X114953469Y-53100085D01*
X114947494Y-53107873D01*
X114903947Y-53164624D01*
X114847117Y-53301824D01*
X114827732Y-53449057D01*
X114831539Y-53477966D01*
X114832600Y-53494152D01*
X114832600Y-60932600D01*
X114812915Y-60999639D01*
X114760111Y-61045394D01*
X114708600Y-61056600D01*
X114661352Y-61056600D01*
X114487939Y-61093459D01*
X114325976Y-61165570D01*
X114182546Y-61269777D01*
X114063915Y-61401530D01*
X113975270Y-61555069D01*
X113930724Y-61692171D01*
X113920486Y-61723681D01*
X113901954Y-61900000D01*
X113920486Y-62076319D01*
X113920487Y-62076322D01*
X113968791Y-62224990D01*
X113970786Y-62294831D01*
X113934705Y-62354663D01*
X113872004Y-62385491D01*
X113802590Y-62377526D01*
X113801960Y-62377258D01*
X113735863Y-62348893D01*
X113546605Y-62310000D01*
X113100000Y-62310000D01*
X113100000Y-63010000D01*
X112599999Y-63010000D01*
X112600000Y-62310000D01*
X112204967Y-62310000D01*
X112198701Y-62310317D01*
X112057777Y-62324648D01*
X111873430Y-62382488D01*
X111704496Y-62476253D01*
X111557895Y-62602105D01*
X111439631Y-62754890D01*
X111354541Y-62928358D01*
X111333403Y-63010000D01*
X112225376Y-63010000D01*
X112152455Y-63024505D01*
X112069760Y-63079760D01*
X112014505Y-63162455D01*
X111995102Y-63260000D01*
X112014505Y-63357545D01*
X112069760Y-63440240D01*
X112152455Y-63495495D01*
X112225376Y-63510000D01*
X111329529Y-63510000D01*
X111392685Y-63680530D01*
X111494890Y-63844501D01*
X111628004Y-63984536D01*
X111664101Y-64009661D01*
X111707879Y-64064115D01*
X111715267Y-64133593D01*
X111685418Y-64194401D01*
X111678479Y-64202107D01*
X111652247Y-64247542D01*
X111647495Y-64255126D01*
X111616359Y-64301049D01*
X111608553Y-64320639D01*
X111600752Y-64336732D01*
X111591714Y-64352387D01*
X111574442Y-64405546D01*
X111571706Y-64413120D01*
X111558176Y-64447081D01*
X111549899Y-64467854D01*
X111547044Y-64485267D01*
X111542610Y-64503517D01*
X111538091Y-64517424D01*
X111531890Y-64576414D01*
X111530937Y-64583507D01*
X111520849Y-64645047D01*
X111521617Y-64659219D01*
X111521121Y-64678880D01*
X111519952Y-64690001D01*
X111526511Y-64752410D01*
X111527008Y-64758655D01*
X111530432Y-64821796D01*
X111514406Y-64889803D01*
X111479502Y-64928826D01*
X111457550Y-64944776D01*
X111457546Y-64944779D01*
X111395866Y-65013281D01*
X111338913Y-65076533D01*
X111250270Y-65230069D01*
X111202683Y-65376530D01*
X111195486Y-65398681D01*
X111176954Y-65575000D01*
X111195486Y-65751319D01*
X111195487Y-65751322D01*
X111250270Y-65919930D01*
X111338915Y-66073469D01*
X111457546Y-66205222D01*
X111579023Y-66293480D01*
X111621689Y-66348810D01*
X111627668Y-66418423D01*
X111595062Y-66480218D01*
X111579024Y-66494116D01*
X111459927Y-66580644D01*
X111341298Y-66712395D01*
X111252653Y-66865934D01*
X111202917Y-67019010D01*
X111197869Y-67034546D01*
X111179337Y-67210865D01*
X111197869Y-67387184D01*
X111197870Y-67387187D01*
X111252652Y-67555794D01*
X111289009Y-67618766D01*
X111305481Y-67686666D01*
X111289009Y-67742764D01*
X111252652Y-67805735D01*
X111205779Y-67950000D01*
X111197869Y-67974346D01*
X111179337Y-68150665D01*
X111197869Y-68326984D01*
X111197870Y-68326987D01*
X111252653Y-68495595D01*
X111341298Y-68649134D01*
X111459926Y-68780884D01*
X111459929Y-68780886D01*
X111536680Y-68836648D01*
X111579345Y-68891977D01*
X111585324Y-68961590D01*
X111552719Y-69023386D01*
X111536680Y-69037284D01*
X111457545Y-69094779D01*
X111338915Y-69226530D01*
X111250270Y-69380069D01*
X111198754Y-69538622D01*
X111195486Y-69548681D01*
X111176954Y-69725000D01*
X111195486Y-69901319D01*
X111195487Y-69901322D01*
X111250270Y-70069930D01*
X111338915Y-70223469D01*
X111457545Y-70355220D01*
X111468813Y-70363407D01*
X111511480Y-70418737D01*
X111516645Y-70457247D01*
X111518591Y-70457043D01*
X111526511Y-70532410D01*
X111527008Y-70538653D01*
X111530570Y-70604338D01*
X111533446Y-70614695D01*
X111537284Y-70634895D01*
X111538092Y-70642576D01*
X111538092Y-70642578D01*
X111538093Y-70642580D01*
X111558540Y-70705511D01*
X111560083Y-70710634D01*
X111567770Y-70738321D01*
X111578606Y-70777350D01*
X111578607Y-70777351D01*
X111582021Y-70783790D01*
X111590395Y-70803551D01*
X111591715Y-70807614D01*
X111626527Y-70867910D01*
X111628695Y-70871827D01*
X111662712Y-70935990D01*
X111665195Y-70938913D01*
X111678070Y-70957183D01*
X111678477Y-70957889D01*
X111685289Y-70965454D01*
X111715519Y-71028446D01*
X111706894Y-71097781D01*
X111673909Y-71142512D01*
X111557895Y-71242105D01*
X111439631Y-71394890D01*
X111354541Y-71568358D01*
X111333403Y-71650000D01*
X112225376Y-71650000D01*
X112152455Y-71664505D01*
X112069760Y-71719760D01*
X112014505Y-71802455D01*
X111995102Y-71900000D01*
X112014505Y-71997545D01*
X112069760Y-72080240D01*
X112152455Y-72135495D01*
X112225376Y-72150000D01*
X111329529Y-72150000D01*
X111392685Y-72320530D01*
X111494890Y-72484501D01*
X111628003Y-72624535D01*
X111786585Y-72734912D01*
X111964137Y-72811106D01*
X112153395Y-72850000D01*
X112599999Y-72850000D01*
X112600000Y-72150000D01*
X113100000Y-72150000D01*
X113100000Y-72784162D01*
X113080315Y-72851201D01*
X113063681Y-72871843D01*
X111182896Y-74752628D01*
X111121573Y-74786113D01*
X111069434Y-74786237D01*
X110972729Y-74765682D01*
X110972727Y-74765682D01*
X110795437Y-74765682D01*
X110795434Y-74765682D01*
X110622021Y-74802541D01*
X110460058Y-74874652D01*
X110316628Y-74978859D01*
X110197997Y-75110612D01*
X110109352Y-75264151D01*
X110054569Y-75432759D01*
X110054568Y-75432763D01*
X110036036Y-75609082D01*
X110054568Y-75785401D01*
X110054569Y-75785404D01*
X110055931Y-75798361D01*
X110054899Y-75798469D01*
X110056513Y-75855103D01*
X110024270Y-75911253D01*
X109721230Y-76214293D01*
X109659907Y-76247778D01*
X109590215Y-76242794D01*
X109560665Y-76226931D01*
X109491623Y-76176770D01*
X109329660Y-76104659D01*
X109156248Y-76067800D01*
X109156245Y-76067800D01*
X108978955Y-76067800D01*
X108978952Y-76067800D01*
X108805539Y-76104659D01*
X108643576Y-76176770D01*
X108500146Y-76280977D01*
X108381515Y-76412730D01*
X108292870Y-76566269D01*
X108238087Y-76734877D01*
X108238086Y-76734881D01*
X108219554Y-76911200D01*
X108238086Y-77087519D01*
X108238087Y-77087522D01*
X108292870Y-77256130D01*
X108386773Y-77418775D01*
X108403246Y-77486675D01*
X108380393Y-77552702D01*
X108367067Y-77568456D01*
X108308080Y-77627443D01*
X108295888Y-77638136D01*
X108272749Y-77655892D01*
X108237598Y-77701700D01*
X108237588Y-77701715D01*
X108182347Y-77773708D01*
X108125517Y-77910908D01*
X108106132Y-78058144D01*
X108109938Y-78087053D01*
X108110999Y-78103236D01*
X108111000Y-90062543D01*
X108091315Y-90129582D01*
X108038511Y-90175337D01*
X107969353Y-90185281D01*
X107914116Y-90162862D01*
X107849023Y-90115570D01*
X107687060Y-90043459D01*
X107513648Y-90006600D01*
X107513645Y-90006600D01*
X107336355Y-90006600D01*
X107336352Y-90006600D01*
X107162939Y-90043459D01*
X107000976Y-90115570D01*
X106857546Y-90219777D01*
X106738915Y-90351530D01*
X106650270Y-90505069D01*
X106595487Y-90673677D01*
X106595486Y-90673681D01*
X106576954Y-90850000D01*
X106595486Y-91026319D01*
X106595487Y-91026322D01*
X106650270Y-91194930D01*
X106738915Y-91348469D01*
X106857546Y-91480222D01*
X107000976Y-91584429D01*
X107162939Y-91656540D01*
X107336352Y-91693400D01*
X107336355Y-91693400D01*
X107513648Y-91693400D01*
X107647941Y-91664855D01*
X107687061Y-91656540D01*
X107849023Y-91584429D01*
X107855685Y-91579589D01*
X107914115Y-91537138D01*
X107979921Y-91513658D01*
X108047975Y-91529484D01*
X108096670Y-91579589D01*
X108111000Y-91637456D01*
X108111000Y-97794143D01*
X108091315Y-97861182D01*
X108079150Y-97877115D01*
X107988915Y-97977330D01*
X107900270Y-98130869D01*
X107845487Y-98299477D01*
X107845486Y-98299481D01*
X107826954Y-98475800D01*
X107845486Y-98652119D01*
X107845487Y-98652122D01*
X107900270Y-98820730D01*
X107988915Y-98974269D01*
X108107546Y-99106022D01*
X108250976Y-99210229D01*
X108412939Y-99282340D01*
X108586352Y-99319200D01*
X108586355Y-99319200D01*
X108763648Y-99319200D01*
X108893707Y-99291555D01*
X108937061Y-99282340D01*
X109099023Y-99210229D01*
X109113102Y-99200000D01*
X109242453Y-99106022D01*
X109361084Y-98974269D01*
X109364420Y-98968491D01*
X109449729Y-98820731D01*
X109504514Y-98652119D01*
X109523046Y-98475800D01*
X109504514Y-98299481D01*
X109449729Y-98130869D01*
X109449729Y-98130868D01*
X109361084Y-97977330D01*
X109270850Y-97877115D01*
X109240620Y-97814123D01*
X109239000Y-97794143D01*
X109239000Y-89275000D01*
X114001954Y-89275000D01*
X114020486Y-89451319D01*
X114020487Y-89451322D01*
X114075270Y-89619930D01*
X114163915Y-89773469D01*
X114282546Y-89905222D01*
X114425976Y-90009429D01*
X114587939Y-90081540D01*
X114761352Y-90118400D01*
X114761355Y-90118400D01*
X114938648Y-90118400D01*
X115068706Y-90090755D01*
X115112061Y-90081540D01*
X115274023Y-90009429D01*
X115277917Y-90006600D01*
X115417453Y-89905222D01*
X115536084Y-89773469D01*
X115551759Y-89746319D01*
X115624729Y-89619931D01*
X115679514Y-89451319D01*
X115698046Y-89275000D01*
X115679514Y-89098681D01*
X115624729Y-88930069D01*
X115594379Y-88877501D01*
X115536084Y-88776530D01*
X115417453Y-88644777D01*
X115274023Y-88540570D01*
X115112060Y-88468459D01*
X114938648Y-88431600D01*
X114938645Y-88431600D01*
X114761355Y-88431600D01*
X114761352Y-88431600D01*
X114587939Y-88468459D01*
X114425976Y-88540570D01*
X114282546Y-88644777D01*
X114163915Y-88776530D01*
X114075270Y-88930069D01*
X114024381Y-89086692D01*
X114020486Y-89098681D01*
X114001954Y-89275000D01*
X109239000Y-89275000D01*
X109239000Y-83455700D01*
X111454054Y-83455700D01*
X111472586Y-83632019D01*
X111472587Y-83632022D01*
X111527370Y-83800630D01*
X111616015Y-83954169D01*
X111734646Y-84085922D01*
X111878076Y-84190129D01*
X112040039Y-84262240D01*
X112213452Y-84299100D01*
X112213455Y-84299100D01*
X112390748Y-84299100D01*
X112520807Y-84271454D01*
X112564161Y-84262240D01*
X112726123Y-84190129D01*
X112869554Y-84085921D01*
X112988184Y-83954169D01*
X113076829Y-83800631D01*
X113131614Y-83632019D01*
X113150146Y-83455700D01*
X113131614Y-83279381D01*
X113076829Y-83110769D01*
X113029238Y-83028338D01*
X112988184Y-82957230D01*
X112869553Y-82825477D01*
X112726123Y-82721270D01*
X112564160Y-82649159D01*
X112390748Y-82612300D01*
X112390745Y-82612300D01*
X112213455Y-82612300D01*
X112213452Y-82612300D01*
X112040039Y-82649159D01*
X111878076Y-82721270D01*
X111734646Y-82825477D01*
X111616015Y-82957230D01*
X111527370Y-83110769D01*
X111472587Y-83279377D01*
X111472586Y-83279381D01*
X111454054Y-83455700D01*
X109239000Y-83455700D01*
X109239000Y-81050000D01*
X115789254Y-81050000D01*
X115807786Y-81226319D01*
X115807787Y-81226322D01*
X115862570Y-81394930D01*
X115953809Y-81552961D01*
X115970282Y-81620861D01*
X115953809Y-81676961D01*
X115912870Y-81747869D01*
X115858087Y-81916477D01*
X115858086Y-81916481D01*
X115848825Y-82004595D01*
X115840173Y-82086915D01*
X115839554Y-82092800D01*
X115858086Y-82269119D01*
X115858087Y-82269122D01*
X115912870Y-82437730D01*
X116001515Y-82591269D01*
X116120146Y-82723022D01*
X116263576Y-82827229D01*
X116425539Y-82899340D01*
X116598952Y-82936200D01*
X116598955Y-82936200D01*
X116776248Y-82936200D01*
X116906307Y-82908555D01*
X116949661Y-82899340D01*
X117111623Y-82827229D01*
X117114034Y-82825477D01*
X117255053Y-82723022D01*
X117373684Y-82591269D01*
X117389428Y-82564000D01*
X117462329Y-82437731D01*
X117517114Y-82269119D01*
X117535646Y-82092800D01*
X117517114Y-81916481D01*
X117462329Y-81747869D01*
X117373684Y-81594331D01*
X117371090Y-81589838D01*
X117354617Y-81521938D01*
X117371091Y-81465837D01*
X117412029Y-81394931D01*
X117436887Y-81318425D01*
X117466814Y-81226319D01*
X117485346Y-81050000D01*
X117466814Y-80873681D01*
X117412029Y-80705069D01*
X117385602Y-80659296D01*
X117323384Y-80551530D01*
X117204753Y-80419777D01*
X117061323Y-80315570D01*
X116899360Y-80243459D01*
X116725948Y-80206600D01*
X116725945Y-80206600D01*
X116548655Y-80206600D01*
X116548652Y-80206600D01*
X116375239Y-80243459D01*
X116213276Y-80315570D01*
X116069846Y-80419777D01*
X115951215Y-80551530D01*
X115862570Y-80705069D01*
X115816065Y-80848200D01*
X115807786Y-80873681D01*
X115789254Y-81050000D01*
X109239000Y-81050000D01*
X109239000Y-78343120D01*
X109258685Y-78276081D01*
X109275319Y-78255439D01*
X110177201Y-77353557D01*
X111080795Y-76449962D01*
X111142116Y-76416479D01*
X111142458Y-76416405D01*
X111146143Y-76415622D01*
X111146147Y-76415620D01*
X111146148Y-76415620D01*
X111308105Y-76343511D01*
X111451535Y-76239304D01*
X111452327Y-76238425D01*
X111570166Y-76107551D01*
X111658811Y-75954013D01*
X111689109Y-75860761D01*
X111719358Y-75811399D01*
X113218042Y-74312714D01*
X113279363Y-74279231D01*
X113349055Y-74284215D01*
X113404988Y-74326087D01*
X113429041Y-74387434D01*
X113440486Y-74496319D01*
X113440487Y-74496322D01*
X113495270Y-74664930D01*
X113583915Y-74818469D01*
X113702546Y-74950222D01*
X113845976Y-75054429D01*
X114007939Y-75126540D01*
X114181352Y-75163400D01*
X114181355Y-75163400D01*
X114358648Y-75163400D01*
X114532059Y-75126541D01*
X114658164Y-75070395D01*
X114727414Y-75061110D01*
X114790691Y-75090738D01*
X114827904Y-75149873D01*
X114832600Y-75183674D01*
X114832600Y-75339772D01*
X114812915Y-75406811D01*
X114760111Y-75452566D01*
X114690953Y-75462510D01*
X114682820Y-75461063D01*
X114590430Y-75441426D01*
X114569438Y-75436964D01*
X114392148Y-75436964D01*
X114392145Y-75436964D01*
X114218732Y-75473823D01*
X114056769Y-75545934D01*
X113913339Y-75650141D01*
X113794708Y-75781894D01*
X113706063Y-75935432D01*
X113668626Y-76050655D01*
X113629189Y-76108330D01*
X113576478Y-76133626D01*
X113554192Y-76138364D01*
X113392227Y-76210475D01*
X113248799Y-76314681D01*
X113130168Y-76446434D01*
X113041523Y-76599973D01*
X112997691Y-76734877D01*
X112986739Y-76768585D01*
X112968207Y-76944904D01*
X112986739Y-77121223D01*
X112986740Y-77121226D01*
X113041523Y-77289834D01*
X113130168Y-77443373D01*
X113146144Y-77461116D01*
X113176373Y-77524107D01*
X113167747Y-77593443D01*
X113126879Y-77644405D01*
X113057545Y-77694779D01*
X112938915Y-77826530D01*
X112850270Y-77980069D01*
X112795487Y-78148677D01*
X112795486Y-78148681D01*
X112776954Y-78325000D01*
X112795486Y-78501319D01*
X112795487Y-78501322D01*
X112850270Y-78669930D01*
X112938915Y-78823469D01*
X113057546Y-78955222D01*
X113200976Y-79059429D01*
X113362939Y-79131540D01*
X113536352Y-79168400D01*
X113536355Y-79168400D01*
X113713648Y-79168400D01*
X113843706Y-79140755D01*
X113887061Y-79131540D01*
X114049023Y-79059429D01*
X114145123Y-78989609D01*
X114192453Y-78955222D01*
X114311084Y-78823469D01*
X114338583Y-78775839D01*
X114399729Y-78669931D01*
X114454514Y-78501319D01*
X114473046Y-78325000D01*
X114454514Y-78148681D01*
X114399729Y-77980069D01*
X114356113Y-77904523D01*
X114311084Y-77826530D01*
X114295109Y-77808788D01*
X114264879Y-77745796D01*
X114273505Y-77676461D01*
X114314372Y-77625499D01*
X114383707Y-77575125D01*
X114502337Y-77443373D01*
X114584774Y-77300586D01*
X114635339Y-77252373D01*
X114703946Y-77239149D01*
X114768811Y-77265117D01*
X114779841Y-77274907D01*
X121807920Y-84302986D01*
X121841405Y-84364309D01*
X121836421Y-84434001D01*
X121794549Y-84489934D01*
X121767694Y-84505227D01*
X121729263Y-84521146D01*
X121668993Y-84567392D01*
X121603823Y-84592585D01*
X121535379Y-84578546D01*
X121486121Y-84531015D01*
X121462980Y-84490933D01*
X121398598Y-84419429D01*
X121344349Y-84359179D01*
X121200919Y-84254972D01*
X121038956Y-84182861D01*
X120865544Y-84146002D01*
X120865541Y-84146002D01*
X120688251Y-84146002D01*
X120688248Y-84146002D01*
X120514835Y-84182861D01*
X120421178Y-84224559D01*
X120351928Y-84233843D01*
X120320309Y-84224559D01*
X120226651Y-84182860D01*
X120053241Y-84146002D01*
X120053238Y-84146002D01*
X119875948Y-84146002D01*
X119875945Y-84146002D01*
X119702532Y-84182861D01*
X119605284Y-84226158D01*
X119536034Y-84235442D01*
X119504415Y-84226158D01*
X119414354Y-84186060D01*
X119240945Y-84149202D01*
X119240942Y-84149202D01*
X119063652Y-84149202D01*
X119063649Y-84149202D01*
X118890236Y-84186061D01*
X118800175Y-84226158D01*
X118730925Y-84235442D01*
X118699305Y-84226158D01*
X118695714Y-84224559D01*
X118602062Y-84182862D01*
X118602059Y-84182861D01*
X118602056Y-84182860D01*
X118428649Y-84146002D01*
X118428646Y-84146002D01*
X118251356Y-84146002D01*
X118251353Y-84146002D01*
X118077940Y-84182861D01*
X117915977Y-84254972D01*
X117772547Y-84359179D01*
X117653916Y-84490932D01*
X117565271Y-84644471D01*
X117510488Y-84813079D01*
X117510487Y-84813083D01*
X117491955Y-84989402D01*
X117510487Y-85165721D01*
X117510488Y-85165724D01*
X117565271Y-85334332D01*
X117653916Y-85487871D01*
X117772547Y-85619624D01*
X117915977Y-85723831D01*
X118077940Y-85795942D01*
X118251353Y-85832802D01*
X118251356Y-85832802D01*
X118428649Y-85832802D01*
X118602058Y-85795943D01*
X118602058Y-85795942D01*
X118602062Y-85795942D01*
X118692119Y-85755844D01*
X118761368Y-85746559D01*
X118792989Y-85755844D01*
X118890236Y-85799142D01*
X118890237Y-85799142D01*
X118890239Y-85799143D01*
X119063649Y-85836002D01*
X119063652Y-85836002D01*
X119240945Y-85836002D01*
X119414355Y-85799143D01*
X119414356Y-85799142D01*
X119414358Y-85799142D01*
X119511602Y-85755844D01*
X119580851Y-85746559D01*
X119612472Y-85755844D01*
X119702532Y-85795942D01*
X119702533Y-85795942D01*
X119702535Y-85795943D01*
X119875945Y-85832802D01*
X119875948Y-85832802D01*
X120053237Y-85832802D01*
X120053238Y-85832802D01*
X120080420Y-85827024D01*
X120150085Y-85832339D01*
X120205820Y-85874475D01*
X120229926Y-85940055D01*
X120214750Y-86008257D01*
X120193882Y-86035995D01*
X119553167Y-86676710D01*
X119540975Y-86687403D01*
X119517836Y-86705159D01*
X119482685Y-86750967D01*
X119482675Y-86750982D01*
X119427434Y-86822975D01*
X119370604Y-86960175D01*
X119351219Y-87107410D01*
X119355025Y-87136325D01*
X119356085Y-87152505D01*
X119356085Y-87504195D01*
X119355025Y-87520374D01*
X119351219Y-87549289D01*
X119362172Y-87632500D01*
X119362178Y-87632530D01*
X119364854Y-87652851D01*
X119370604Y-87696527D01*
X119427434Y-87833725D01*
X119427434Y-87833726D01*
X119517836Y-87951543D01*
X119540968Y-87969292D01*
X119553163Y-87979987D01*
X119632225Y-88059049D01*
X119665710Y-88120372D01*
X119668544Y-88146730D01*
X119668545Y-88931508D01*
X119648861Y-88998547D01*
X119596057Y-89044302D01*
X119526898Y-89054246D01*
X119463342Y-89025221D01*
X119429984Y-88978960D01*
X119416055Y-88945333D01*
X119416054Y-88945332D01*
X119416054Y-88945331D01*
X119348355Y-88857103D01*
X119348347Y-88857094D01*
X119336138Y-88841182D01*
X119325650Y-88827514D01*
X119302514Y-88809761D01*
X119290319Y-88799066D01*
X118576436Y-88085183D01*
X118542951Y-88023860D01*
X118540796Y-88010463D01*
X118539463Y-87997785D01*
X118539464Y-87997782D01*
X118520932Y-87821463D01*
X118479254Y-87693192D01*
X118466147Y-87652851D01*
X118377502Y-87499312D01*
X118258871Y-87367559D01*
X118115441Y-87263352D01*
X117953478Y-87191241D01*
X117780066Y-87154382D01*
X117780063Y-87154382D01*
X117602773Y-87154382D01*
X117602770Y-87154382D01*
X117429357Y-87191241D01*
X117267394Y-87263352D01*
X117123964Y-87367559D01*
X117005333Y-87499312D01*
X116916688Y-87652851D01*
X116894337Y-87721643D01*
X116861904Y-87821463D01*
X116843372Y-87997782D01*
X116861904Y-88174101D01*
X116861905Y-88174104D01*
X116916688Y-88342712D01*
X117005333Y-88496251D01*
X117123964Y-88628004D01*
X117267394Y-88732211D01*
X117429357Y-88804322D01*
X117602770Y-88841182D01*
X117602773Y-88841182D01*
X117685839Y-88841182D01*
X117752878Y-88860867D01*
X117773520Y-88877501D01*
X118323080Y-89427061D01*
X118356565Y-89488384D01*
X118359399Y-89514742D01*
X118359400Y-91898678D01*
X118339715Y-91965717D01*
X118323081Y-91986359D01*
X117641480Y-92667959D01*
X117629288Y-92678652D01*
X117606149Y-92696408D01*
X117570998Y-92742216D01*
X117570988Y-92742231D01*
X117515747Y-92814224D01*
X117458917Y-92951424D01*
X117439532Y-93098657D01*
X117443339Y-93127566D01*
X117444400Y-93143752D01*
X117444400Y-94613304D01*
X117443339Y-94629489D01*
X117439532Y-94658399D01*
X117444400Y-94695367D01*
X117458917Y-94805634D01*
X117515747Y-94942833D01*
X117606147Y-95060647D01*
X117606148Y-95060648D01*
X117606150Y-95060650D01*
X117629294Y-95078409D01*
X117641480Y-95089097D01*
X118719299Y-96166915D01*
X118729994Y-96179110D01*
X118747749Y-96202250D01*
X118824838Y-96261401D01*
X118835126Y-96269295D01*
X118865567Y-96292653D01*
X119002766Y-96349483D01*
X119132870Y-96366611D01*
X119149999Y-96368867D01*
X119149999Y-96368866D01*
X119150000Y-96368867D01*
X119178910Y-96365060D01*
X119195094Y-96364000D01*
X123229906Y-96364000D01*
X123246089Y-96365060D01*
X123275000Y-96368867D01*
X123422234Y-96349483D01*
X123559433Y-96292653D01*
X123647668Y-96224949D01*
X123647668Y-96224948D01*
X123657061Y-96217740D01*
X123677250Y-96202250D01*
X123695005Y-96179110D01*
X123705690Y-96166925D01*
X124067897Y-95804719D01*
X124129221Y-95771234D01*
X124155579Y-95768400D01*
X124238648Y-95768400D01*
X124368707Y-95740755D01*
X124412061Y-95731540D01*
X124574023Y-95659429D01*
X124717454Y-95555221D01*
X124836084Y-95423469D01*
X124924729Y-95269931D01*
X124979514Y-95101319D01*
X124998046Y-94925000D01*
X124979514Y-94748681D01*
X124924729Y-94580069D01*
X124907963Y-94551029D01*
X124836084Y-94426530D01*
X124717453Y-94294777D01*
X124574023Y-94190570D01*
X124412060Y-94118459D01*
X124238648Y-94081600D01*
X124238645Y-94081600D01*
X124155579Y-94081600D01*
X124088540Y-94061915D01*
X124077127Y-94052718D01*
X125241036Y-94052718D01*
X125259568Y-94229037D01*
X125259569Y-94229040D01*
X125314352Y-94397648D01*
X125402997Y-94551187D01*
X125521628Y-94682940D01*
X125665058Y-94787147D01*
X125827021Y-94859258D01*
X126000434Y-94896118D01*
X126000437Y-94896118D01*
X126177730Y-94896118D01*
X126307788Y-94868472D01*
X126351143Y-94859258D01*
X126513105Y-94787147D01*
X126600770Y-94723455D01*
X126656535Y-94682940D01*
X126775166Y-94551187D01*
X126835421Y-94446822D01*
X126863811Y-94397649D01*
X126918596Y-94229037D01*
X126937128Y-94052718D01*
X126918596Y-93876399D01*
X126863811Y-93707787D01*
X126838837Y-93664531D01*
X126775166Y-93554248D01*
X126656535Y-93422495D01*
X126513105Y-93318288D01*
X126351142Y-93246177D01*
X126177730Y-93209318D01*
X126177727Y-93209318D01*
X126000437Y-93209318D01*
X126000434Y-93209318D01*
X125827021Y-93246177D01*
X125665058Y-93318288D01*
X125521628Y-93422495D01*
X125402997Y-93554248D01*
X125314352Y-93707787D01*
X125278520Y-93818069D01*
X125259568Y-93876399D01*
X125241036Y-94052718D01*
X124077127Y-94052718D01*
X124067898Y-94045281D01*
X123348919Y-93326302D01*
X123315434Y-93264979D01*
X123312600Y-93238621D01*
X123312600Y-90251656D01*
X123332285Y-90184617D01*
X123344450Y-90168684D01*
X123434684Y-90068469D01*
X123449123Y-90043459D01*
X123523329Y-89914931D01*
X123578114Y-89746319D01*
X123596646Y-89570000D01*
X123578114Y-89393681D01*
X123523329Y-89225069D01*
X123443614Y-89086998D01*
X123434684Y-89071530D01*
X123316053Y-88939777D01*
X123172623Y-88835570D01*
X123010660Y-88763459D01*
X122837248Y-88726600D01*
X122837245Y-88726600D01*
X122711858Y-88726600D01*
X122644819Y-88706915D01*
X122599064Y-88654111D01*
X122587858Y-88602600D01*
X122587858Y-88291400D01*
X122607543Y-88224361D01*
X122660347Y-88178606D01*
X122711858Y-88167400D01*
X127805848Y-88167400D01*
X127822031Y-88168460D01*
X127850942Y-88172267D01*
X127998176Y-88152883D01*
X128135375Y-88096053D01*
X128223610Y-88028349D01*
X128223610Y-88028348D01*
X128234490Y-88020000D01*
X128253192Y-88005650D01*
X128270946Y-87982510D01*
X128281633Y-87970324D01*
X128530321Y-87721635D01*
X128542500Y-87710953D01*
X128565650Y-87693192D01*
X128656053Y-87575375D01*
X128712883Y-87438176D01*
X128727400Y-87327910D01*
X128727399Y-87327910D01*
X128732267Y-87290942D01*
X128728460Y-87262028D01*
X128727399Y-87245842D01*
X128727400Y-87062022D01*
X128747085Y-86994983D01*
X128799889Y-86949228D01*
X128851400Y-86938023D01*
X128981248Y-86938023D01*
X129111306Y-86910378D01*
X129154661Y-86901163D01*
X129316623Y-86829052D01*
X129446432Y-86734741D01*
X129460053Y-86724845D01*
X129482443Y-86699979D01*
X129578684Y-86593092D01*
X129667329Y-86439554D01*
X129694420Y-86356173D01*
X129733858Y-86298497D01*
X129798216Y-86271298D01*
X129867063Y-86283212D01*
X129883465Y-86292908D01*
X130034160Y-86398426D01*
X130077784Y-86453002D01*
X130084976Y-86522501D01*
X130053454Y-86584855D01*
X130034158Y-86601575D01*
X129911584Y-86687403D01*
X129848595Y-86731508D01*
X129681505Y-86898598D01*
X129545965Y-87092170D01*
X129446097Y-87306336D01*
X129384936Y-87534592D01*
X129364340Y-87770000D01*
X129384936Y-88005407D01*
X129410496Y-88100798D01*
X129446097Y-88233663D01*
X129545965Y-88447830D01*
X129681505Y-88641401D01*
X129848599Y-88808495D01*
X130034160Y-88938426D01*
X130077783Y-88993002D01*
X130084976Y-89062501D01*
X130053454Y-89124855D01*
X130034158Y-89141575D01*
X129855409Y-89266737D01*
X129848595Y-89271508D01*
X129681505Y-89438598D01*
X129545965Y-89632170D01*
X129446097Y-89846336D01*
X129384936Y-90074592D01*
X129364340Y-90310000D01*
X129384936Y-90545407D01*
X129419306Y-90673677D01*
X129446097Y-90773663D01*
X129545965Y-90987830D01*
X129681505Y-91181401D01*
X129848599Y-91348495D01*
X130034160Y-91478426D01*
X130077783Y-91533002D01*
X130084976Y-91602501D01*
X130053454Y-91664855D01*
X130034159Y-91681575D01*
X129848595Y-91811508D01*
X129681505Y-91978598D01*
X129545965Y-92172170D01*
X129446097Y-92386336D01*
X129384936Y-92614592D01*
X129364340Y-92850000D01*
X129384936Y-93085408D01*
X129407813Y-93170787D01*
X129406150Y-93240637D01*
X129366987Y-93298499D01*
X129302758Y-93326003D01*
X129233856Y-93314416D01*
X129195888Y-93285852D01*
X129106321Y-93186377D01*
X128962891Y-93082170D01*
X128800928Y-93010059D01*
X128627516Y-92973200D01*
X128627513Y-92973200D01*
X128450223Y-92973200D01*
X128450220Y-92973200D01*
X128276807Y-93010059D01*
X128114844Y-93082170D01*
X127971414Y-93186377D01*
X127852783Y-93318130D01*
X127764138Y-93471669D01*
X127716698Y-93617677D01*
X127709354Y-93640281D01*
X127690822Y-93816600D01*
X127709354Y-93992919D01*
X127709355Y-93992922D01*
X127764138Y-94161530D01*
X127852783Y-94315069D01*
X127971414Y-94446822D01*
X128114844Y-94551029D01*
X128276807Y-94623140D01*
X128450220Y-94660000D01*
X128450223Y-94660000D01*
X128627516Y-94660000D01*
X128757575Y-94632354D01*
X128800929Y-94623140D01*
X128962891Y-94551029D01*
X129106322Y-94446821D01*
X129224952Y-94315069D01*
X129313597Y-94161531D01*
X129368382Y-93992919D01*
X129386914Y-93816600D01*
X129373229Y-93686403D01*
X129385798Y-93617677D01*
X129433530Y-93566653D01*
X129501270Y-93549535D01*
X129567512Y-93571757D01*
X129598122Y-93602318D01*
X129681505Y-93721401D01*
X129848599Y-93888495D01*
X130034160Y-94018426D01*
X130077783Y-94073002D01*
X130084976Y-94142501D01*
X130053454Y-94204855D01*
X130034158Y-94221575D01*
X129929613Y-94294779D01*
X129848595Y-94351508D01*
X129681505Y-94518598D01*
X129545965Y-94712170D01*
X129446097Y-94926336D01*
X129384936Y-95154592D01*
X129364340Y-95389999D01*
X129384936Y-95625407D01*
X129423251Y-95768400D01*
X129446097Y-95853663D01*
X129545965Y-96067830D01*
X129681505Y-96261401D01*
X129848599Y-96428495D01*
X130034160Y-96558426D01*
X130077783Y-96613002D01*
X130084976Y-96682501D01*
X130053454Y-96744855D01*
X130034159Y-96761575D01*
X129848595Y-96891508D01*
X129681505Y-97058598D01*
X129545965Y-97252170D01*
X129446097Y-97466336D01*
X129384936Y-97694592D01*
X129364340Y-97930000D01*
X129384936Y-98165407D01*
X129420860Y-98299477D01*
X129446097Y-98393663D01*
X129545965Y-98607830D01*
X129681505Y-98801401D01*
X129848599Y-98968495D01*
X130034596Y-99098732D01*
X130078219Y-99153307D01*
X130085412Y-99222806D01*
X130053890Y-99285160D01*
X130034595Y-99301880D01*
X129848919Y-99431892D01*
X129681890Y-99598921D01*
X129546400Y-99792421D01*
X129446569Y-100006507D01*
X129389364Y-100219999D01*
X129389364Y-100220000D01*
X130286314Y-100220000D01*
X130260507Y-100260156D01*
X130220000Y-100398111D01*
X130220000Y-100541889D01*
X130260507Y-100679844D01*
X130286314Y-100720000D01*
X129389364Y-100720000D01*
X129446569Y-100933492D01*
X129546399Y-101147576D01*
X129681893Y-101341081D01*
X129848918Y-101508106D01*
X130042423Y-101643600D01*
X130256509Y-101743430D01*
X130470000Y-101800634D01*
X130470000Y-100905501D01*
X130577685Y-100954680D01*
X130684237Y-100970000D01*
X130755763Y-100970000D01*
X130862315Y-100954680D01*
X130970000Y-100905501D01*
X130970000Y-101800633D01*
X131183490Y-101743430D01*
X131397576Y-101643600D01*
X131591081Y-101508106D01*
X131758109Y-101341078D01*
X131888119Y-101155405D01*
X131942696Y-101111780D01*
X132012194Y-101104586D01*
X132074549Y-101136109D01*
X132091265Y-101155400D01*
X132221505Y-101341401D01*
X132388599Y-101508495D01*
X132582170Y-101644035D01*
X132796337Y-101743903D01*
X133024592Y-101805063D01*
X133260000Y-101825659D01*
X133495408Y-101805063D01*
X133723663Y-101743903D01*
X133937830Y-101644035D01*
X134131401Y-101508495D01*
X134298495Y-101341401D01*
X134434035Y-101147830D01*
X134533903Y-100933663D01*
X134595063Y-100705408D01*
X134615659Y-100470000D01*
X134595063Y-100234592D01*
X134533903Y-100006337D01*
X134434035Y-99792171D01*
X134298495Y-99598599D01*
X134131401Y-99431505D01*
X133945839Y-99301573D01*
X133902216Y-99246998D01*
X133895022Y-99177500D01*
X133926545Y-99115145D01*
X133945837Y-99098428D01*
X134131401Y-98968495D01*
X134298495Y-98801401D01*
X134434035Y-98607830D01*
X134533903Y-98393663D01*
X134595063Y-98165408D01*
X134615659Y-97930000D01*
X134595063Y-97694592D01*
X134533903Y-97466337D01*
X134434035Y-97252171D01*
X134298495Y-97058599D01*
X134131401Y-96891505D01*
X133945839Y-96761573D01*
X133902216Y-96706998D01*
X133895022Y-96637500D01*
X133926545Y-96575145D01*
X133945837Y-96558428D01*
X134131401Y-96428495D01*
X134298495Y-96261401D01*
X134434035Y-96067830D01*
X134533903Y-95853663D01*
X134595063Y-95625408D01*
X134615659Y-95390000D01*
X134601937Y-95233166D01*
X134595063Y-95154592D01*
X134595063Y-95154591D01*
X134533903Y-94926337D01*
X134434035Y-94712171D01*
X134298495Y-94518599D01*
X134131401Y-94351505D01*
X133945402Y-94221267D01*
X133901780Y-94166692D01*
X133894587Y-94097193D01*
X133926109Y-94034839D01*
X133945405Y-94018119D01*
X134131078Y-93888109D01*
X134298106Y-93721081D01*
X134433600Y-93527576D01*
X134533430Y-93313492D01*
X134590636Y-93100000D01*
X133693686Y-93100000D01*
X133719493Y-93059844D01*
X133760000Y-92921889D01*
X133760000Y-92778111D01*
X133719493Y-92640156D01*
X133693686Y-92600000D01*
X134590636Y-92600000D01*
X134590635Y-92599999D01*
X134533430Y-92386507D01*
X134433599Y-92172421D01*
X134298109Y-91978921D01*
X134131081Y-91811893D01*
X133945404Y-91681880D01*
X133901780Y-91627303D01*
X133894587Y-91557804D01*
X133926109Y-91495450D01*
X133945399Y-91478734D01*
X134131401Y-91348495D01*
X134298495Y-91181401D01*
X134434035Y-90987830D01*
X134533903Y-90773663D01*
X134595063Y-90545408D01*
X134615659Y-90310000D01*
X134610554Y-90251656D01*
X134595063Y-90074592D01*
X134593422Y-90068469D01*
X134533903Y-89846337D01*
X134434035Y-89632171D01*
X134298495Y-89438599D01*
X134131401Y-89271505D01*
X133945402Y-89141267D01*
X133901780Y-89086692D01*
X133894587Y-89017193D01*
X133926109Y-88954839D01*
X133945405Y-88938119D01*
X134131078Y-88808109D01*
X134298106Y-88641081D01*
X134433600Y-88447576D01*
X134533430Y-88233492D01*
X134590636Y-88020000D01*
X133693686Y-88020000D01*
X133719493Y-87979844D01*
X133760000Y-87841889D01*
X133760000Y-87698111D01*
X133719493Y-87560156D01*
X133693686Y-87520000D01*
X134590636Y-87520000D01*
X134590635Y-87519999D01*
X134533430Y-87306507D01*
X134433599Y-87092421D01*
X134298109Y-86898921D01*
X134131081Y-86731893D01*
X133945404Y-86601880D01*
X133901780Y-86547303D01*
X133894587Y-86477804D01*
X133926109Y-86415450D01*
X133945399Y-86398734D01*
X134131401Y-86268495D01*
X134298495Y-86101401D01*
X134434035Y-85907830D01*
X134533903Y-85693663D01*
X134595063Y-85465408D01*
X134615659Y-85230000D01*
X134595063Y-84994592D01*
X134533903Y-84766337D01*
X134434035Y-84552171D01*
X134325729Y-84397494D01*
X134303403Y-84331289D01*
X134320413Y-84263522D01*
X134339620Y-84238695D01*
X134838175Y-83740140D01*
X134899496Y-83706657D01*
X134969188Y-83711641D01*
X135025121Y-83753513D01*
X135049538Y-83818977D01*
X135049854Y-83827770D01*
X135059298Y-105812893D01*
X135059103Y-105819899D01*
X135043512Y-106097521D01*
X135041955Y-106111339D01*
X134995958Y-106382056D01*
X134992864Y-106395613D01*
X134916843Y-106659486D01*
X134912250Y-106672610D01*
X134807168Y-106926303D01*
X134801135Y-106938832D01*
X134668305Y-107179169D01*
X134660907Y-107190943D01*
X134502004Y-107414896D01*
X134493334Y-107425768D01*
X134310355Y-107630522D01*
X134300522Y-107640355D01*
X134095768Y-107823334D01*
X134084896Y-107832004D01*
X133860943Y-107990907D01*
X133849169Y-107998305D01*
X133608832Y-108131135D01*
X133596303Y-108137168D01*
X133342610Y-108242250D01*
X133329486Y-108246843D01*
X133065613Y-108322864D01*
X133052056Y-108325958D01*
X132781339Y-108371955D01*
X132767521Y-108373512D01*
X132489872Y-108389105D01*
X132482919Y-108389300D01*
X120337851Y-108389300D01*
X120270812Y-108369615D01*
X120225057Y-108316811D01*
X120215113Y-108247653D01*
X120230464Y-108203300D01*
X120239918Y-108186922D01*
X120249729Y-108169931D01*
X120304514Y-108001319D01*
X120323046Y-107825000D01*
X120304514Y-107648681D01*
X120249729Y-107480069D01*
X120249728Y-107480068D01*
X120161084Y-107326530D01*
X120042453Y-107194777D01*
X119899023Y-107090570D01*
X119737060Y-107018459D01*
X119563648Y-106981600D01*
X119563645Y-106981600D01*
X119386355Y-106981600D01*
X119386352Y-106981600D01*
X119212939Y-107018459D01*
X119050976Y-107090570D01*
X118907546Y-107194777D01*
X118788915Y-107326530D01*
X118700270Y-107480069D01*
X118649699Y-107635715D01*
X118645486Y-107648681D01*
X118626954Y-107825000D01*
X118645486Y-108001319D01*
X118645487Y-108001322D01*
X118700270Y-108169930D01*
X118719536Y-108203300D01*
X118736009Y-108271200D01*
X118713156Y-108337227D01*
X118658235Y-108380418D01*
X118612149Y-108389300D01*
X108563081Y-108389300D01*
X108556128Y-108389105D01*
X108272791Y-108373193D01*
X108258973Y-108371636D01*
X107982637Y-108324684D01*
X107969081Y-108321590D01*
X107699738Y-108243994D01*
X107686612Y-108239401D01*
X107427653Y-108132137D01*
X107415125Y-108126104D01*
X107169796Y-107990515D01*
X107158031Y-107983122D01*
X106929420Y-107820914D01*
X106918563Y-107812256D01*
X106735522Y-107648681D01*
X106709554Y-107625474D01*
X106699723Y-107615643D01*
X106578567Y-107480069D01*
X106512938Y-107406630D01*
X106504287Y-107395781D01*
X106342074Y-107167164D01*
X106334684Y-107155403D01*
X106258998Y-107018460D01*
X106199091Y-106910067D01*
X106193065Y-106897553D01*
X106085797Y-106638586D01*
X106081205Y-106625461D01*
X106003607Y-106356112D01*
X106000515Y-106342562D01*
X105992960Y-106298095D01*
X105953562Y-106066218D01*
X105952006Y-106052407D01*
X105948612Y-105991974D01*
X105936095Y-105769071D01*
X105935900Y-105762119D01*
X105935900Y-105333800D01*
X107385951Y-105333800D01*
X107405717Y-105584949D01*
X107464526Y-105829910D01*
X107473713Y-105852088D01*
X107560934Y-106062659D01*
X107692564Y-106277459D01*
X107856176Y-106469024D01*
X108047741Y-106632636D01*
X108262541Y-106764266D01*
X108495289Y-106860673D01*
X108740252Y-106919483D01*
X108928518Y-106934300D01*
X108930963Y-106934300D01*
X109051837Y-106934300D01*
X109054282Y-106934300D01*
X109242548Y-106919483D01*
X109487511Y-106860673D01*
X109720259Y-106764266D01*
X109935059Y-106632636D01*
X110126624Y-106469024D01*
X110290236Y-106277459D01*
X110421866Y-106062659D01*
X110518273Y-105829911D01*
X110577083Y-105584948D01*
X110596849Y-105333800D01*
X110596849Y-105333799D01*
X130398351Y-105333799D01*
X130418117Y-105584949D01*
X130476926Y-105829910D01*
X130486113Y-105852088D01*
X130573334Y-106062659D01*
X130704964Y-106277459D01*
X130868576Y-106469024D01*
X131060141Y-106632636D01*
X131274941Y-106764266D01*
X131507689Y-106860673D01*
X131752652Y-106919483D01*
X131940918Y-106934300D01*
X131943363Y-106934300D01*
X132064237Y-106934300D01*
X132066682Y-106934300D01*
X132254948Y-106919483D01*
X132499911Y-106860673D01*
X132732659Y-106764266D01*
X132947459Y-106632636D01*
X133139024Y-106469024D01*
X133302636Y-106277459D01*
X133434266Y-106062659D01*
X133530673Y-105829911D01*
X133589483Y-105584948D01*
X133609249Y-105333800D01*
X133589483Y-105082652D01*
X133530673Y-104837689D01*
X133434266Y-104604941D01*
X133302636Y-104390141D01*
X133139024Y-104198576D01*
X132947459Y-104034964D01*
X132732659Y-103903334D01*
X132616284Y-103855130D01*
X132499910Y-103806926D01*
X132254949Y-103748117D01*
X132069116Y-103733491D01*
X132069101Y-103733490D01*
X132066682Y-103733300D01*
X131940918Y-103733300D01*
X131938499Y-103733490D01*
X131938483Y-103733491D01*
X131752650Y-103748117D01*
X131507689Y-103806926D01*
X131274939Y-103903335D01*
X131060142Y-104034963D01*
X130868576Y-104198576D01*
X130704963Y-104390142D01*
X130573335Y-104604939D01*
X130476926Y-104837689D01*
X130418117Y-105082650D01*
X130398351Y-105333799D01*
X110596849Y-105333799D01*
X110577083Y-105082652D01*
X110518273Y-104837689D01*
X110421866Y-104604941D01*
X110290236Y-104390141D01*
X110126624Y-104198576D01*
X109935059Y-104034964D01*
X109720259Y-103903334D01*
X109603884Y-103855130D01*
X109487510Y-103806926D01*
X109242549Y-103748117D01*
X109056716Y-103733491D01*
X109056701Y-103733490D01*
X109054282Y-103733300D01*
X108928518Y-103733300D01*
X108926099Y-103733490D01*
X108926083Y-103733491D01*
X108740250Y-103748117D01*
X108495289Y-103806926D01*
X108262539Y-103903335D01*
X108047742Y-104034963D01*
X107856176Y-104198576D01*
X107692563Y-104390142D01*
X107560935Y-104604939D01*
X107464526Y-104837689D01*
X107405717Y-105082650D01*
X107385951Y-105333800D01*
X105935900Y-105333800D01*
X105935900Y-101775000D01*
X118476954Y-101775000D01*
X118495486Y-101951319D01*
X118495487Y-101951322D01*
X118550270Y-102119930D01*
X118638915Y-102273469D01*
X118757546Y-102405222D01*
X118900976Y-102509429D01*
X119062939Y-102581540D01*
X119236352Y-102618400D01*
X119236355Y-102618400D01*
X119413648Y-102618400D01*
X119543706Y-102590755D01*
X119587061Y-102581540D01*
X119749023Y-102509429D01*
X119892454Y-102405221D01*
X120011084Y-102273469D01*
X120099729Y-102119931D01*
X120154514Y-101951319D01*
X120173046Y-101775000D01*
X120154514Y-101598681D01*
X120099729Y-101430069D01*
X120099729Y-101430068D01*
X120011084Y-101276530D01*
X119892453Y-101144777D01*
X119749023Y-101040570D01*
X119587060Y-100968459D01*
X119413648Y-100931600D01*
X119413645Y-100931600D01*
X119236355Y-100931600D01*
X119236352Y-100931600D01*
X119062939Y-100968459D01*
X118900976Y-101040570D01*
X118757546Y-101144777D01*
X118638915Y-101276530D01*
X118550270Y-101430069D01*
X118495487Y-101598677D01*
X118495486Y-101598681D01*
X118476954Y-101775000D01*
X105935900Y-101775000D01*
X105935900Y-100010000D01*
X127161954Y-100010000D01*
X127180486Y-100186319D01*
X127180487Y-100186322D01*
X127235270Y-100354930D01*
X127323915Y-100508469D01*
X127442546Y-100640222D01*
X127585976Y-100744429D01*
X127747939Y-100816540D01*
X127921352Y-100853400D01*
X127921355Y-100853400D01*
X128098648Y-100853400D01*
X128228707Y-100825755D01*
X128272061Y-100816540D01*
X128434023Y-100744429D01*
X128577454Y-100640221D01*
X128696084Y-100508469D01*
X128784729Y-100354931D01*
X128839514Y-100186319D01*
X128858046Y-100010000D01*
X128839514Y-99833681D01*
X128784729Y-99665069D01*
X128746352Y-99598598D01*
X128696084Y-99511530D01*
X128577453Y-99379777D01*
X128434023Y-99275570D01*
X128272060Y-99203459D01*
X128098648Y-99166600D01*
X128098645Y-99166600D01*
X127921355Y-99166600D01*
X127921352Y-99166600D01*
X127747939Y-99203459D01*
X127585976Y-99275570D01*
X127442546Y-99379777D01*
X127323915Y-99511530D01*
X127235270Y-99665069D01*
X127193973Y-99792171D01*
X127180486Y-99833681D01*
X127161954Y-100010000D01*
X105935900Y-100010000D01*
X105935900Y-72150000D01*
X107396634Y-72150000D01*
X107396932Y-72151948D01*
X107467564Y-72342663D01*
X107575145Y-72515263D01*
X107715266Y-72662669D01*
X107882194Y-72778855D01*
X108069092Y-72859059D01*
X108268311Y-72900000D01*
X108420000Y-72900000D01*
X108420000Y-72200000D01*
X108920000Y-72200000D01*
X108919999Y-72899999D01*
X108920000Y-72900000D01*
X109017570Y-72900000D01*
X109023835Y-72899682D01*
X109172339Y-72884580D01*
X109366389Y-72823696D01*
X109544214Y-72724996D01*
X109698531Y-72592520D01*
X109823021Y-72431692D01*
X109912589Y-72249094D01*
X109938246Y-72150000D01*
X109136111Y-72150000D01*
X109175610Y-72125543D01*
X109243201Y-72036038D01*
X109273895Y-71928160D01*
X109263546Y-71816479D01*
X109213552Y-71716078D01*
X109141069Y-71650000D01*
X109943366Y-71650000D01*
X109943067Y-71648051D01*
X109872435Y-71457336D01*
X109764854Y-71284736D01*
X109624733Y-71137330D01*
X109457805Y-71021144D01*
X109270907Y-70940940D01*
X109071689Y-70900000D01*
X108920000Y-70900000D01*
X108919999Y-71600000D01*
X108420000Y-71600000D01*
X108420000Y-70900000D01*
X108322430Y-70900000D01*
X108316164Y-70900317D01*
X108167660Y-70915419D01*
X107973610Y-70976303D01*
X107795785Y-71075003D01*
X107641468Y-71207479D01*
X107516978Y-71368307D01*
X107427410Y-71550905D01*
X107401753Y-71649999D01*
X107401753Y-71650000D01*
X108203889Y-71650000D01*
X108164390Y-71674457D01*
X108096799Y-71763962D01*
X108066105Y-71871840D01*
X108076454Y-71983521D01*
X108126448Y-72083922D01*
X108198931Y-72150000D01*
X107396634Y-72150000D01*
X105935900Y-72150000D01*
X105935900Y-63510000D01*
X107396634Y-63510000D01*
X107396932Y-63511948D01*
X107467564Y-63702663D01*
X107575145Y-63875263D01*
X107715266Y-64022669D01*
X107882194Y-64138855D01*
X108069092Y-64219059D01*
X108268311Y-64260000D01*
X108420000Y-64260000D01*
X108420000Y-63560000D01*
X108920000Y-63560000D01*
X108919999Y-64259999D01*
X108920000Y-64260000D01*
X109017570Y-64260000D01*
X109023835Y-64259682D01*
X109172339Y-64244580D01*
X109366389Y-64183696D01*
X109544214Y-64084996D01*
X109698531Y-63952520D01*
X109823021Y-63791692D01*
X109912589Y-63609094D01*
X109938246Y-63510000D01*
X109136111Y-63510000D01*
X109175610Y-63485543D01*
X109243201Y-63396038D01*
X109273895Y-63288160D01*
X109263546Y-63176479D01*
X109213552Y-63076078D01*
X109141069Y-63010000D01*
X109943366Y-63010000D01*
X109943067Y-63008051D01*
X109872435Y-62817336D01*
X109764854Y-62644736D01*
X109624733Y-62497330D01*
X109457805Y-62381144D01*
X109270907Y-62300940D01*
X109071689Y-62260000D01*
X108920000Y-62260000D01*
X108919999Y-62960000D01*
X108420000Y-62960000D01*
X108420000Y-62260000D01*
X108322430Y-62260000D01*
X108316164Y-62260317D01*
X108167660Y-62275419D01*
X107973610Y-62336303D01*
X107795785Y-62435003D01*
X107641468Y-62567479D01*
X107516978Y-62728307D01*
X107427410Y-62910905D01*
X107401753Y-63009999D01*
X107401753Y-63010000D01*
X108203889Y-63010000D01*
X108164390Y-63034457D01*
X108096799Y-63123962D01*
X108066105Y-63231840D01*
X108076454Y-63343521D01*
X108126448Y-63443922D01*
X108198931Y-63510000D01*
X107396634Y-63510000D01*
X105935900Y-63510000D01*
X105935900Y-57670000D01*
X110551954Y-57670000D01*
X110570486Y-57846319D01*
X110570487Y-57846322D01*
X110625270Y-58014930D01*
X110713915Y-58168469D01*
X110832546Y-58300222D01*
X110975976Y-58404429D01*
X111137939Y-58476540D01*
X111311352Y-58513400D01*
X111311355Y-58513400D01*
X111488648Y-58513400D01*
X111618706Y-58485754D01*
X111662061Y-58476540D01*
X111824023Y-58404429D01*
X111928538Y-58328495D01*
X111967453Y-58300222D01*
X112006785Y-58256540D01*
X112086084Y-58168469D01*
X112174729Y-58014931D01*
X112229514Y-57846319D01*
X112248046Y-57670000D01*
X112229514Y-57493681D01*
X112174729Y-57325069D01*
X112112977Y-57218111D01*
X112086084Y-57171530D01*
X111967453Y-57039777D01*
X111824023Y-56935570D01*
X111662060Y-56863459D01*
X111488648Y-56826600D01*
X111488645Y-56826600D01*
X111311355Y-56826600D01*
X111311352Y-56826600D01*
X111137939Y-56863459D01*
X110975976Y-56935570D01*
X110832546Y-57039777D01*
X110713915Y-57171530D01*
X110625270Y-57325069D01*
X110578989Y-57467511D01*
X110570486Y-57493681D01*
X110551954Y-57670000D01*
X105935900Y-57670000D01*
X105935900Y-56307787D01*
X107004167Y-56307787D01*
X107022699Y-56484106D01*
X107022700Y-56484109D01*
X107077483Y-56652717D01*
X107166128Y-56806256D01*
X107284759Y-56938009D01*
X107428189Y-57042216D01*
X107590152Y-57114327D01*
X107763565Y-57151187D01*
X107763568Y-57151187D01*
X107940861Y-57151187D01*
X108070919Y-57123542D01*
X108114274Y-57114327D01*
X108276236Y-57042216D01*
X108401054Y-56951531D01*
X108419666Y-56938009D01*
X108458591Y-56894779D01*
X108538297Y-56806256D01*
X108626942Y-56652718D01*
X108681727Y-56484106D01*
X108700259Y-56307787D01*
X108681727Y-56131468D01*
X108626942Y-55962856D01*
X108601290Y-55918425D01*
X108538297Y-55809317D01*
X108419666Y-55677564D01*
X108347317Y-55625000D01*
X111576954Y-55625000D01*
X111595486Y-55801319D01*
X111595487Y-55801322D01*
X111650270Y-55969930D01*
X111738915Y-56123469D01*
X111857546Y-56255222D01*
X112000976Y-56359429D01*
X112162939Y-56431540D01*
X112336352Y-56468400D01*
X112336355Y-56468400D01*
X112513648Y-56468400D01*
X112643706Y-56440754D01*
X112687061Y-56431540D01*
X112849023Y-56359429D01*
X112992454Y-56255221D01*
X113111084Y-56123469D01*
X113199729Y-55969931D01*
X113254514Y-55801319D01*
X113273046Y-55625000D01*
X113254514Y-55448681D01*
X113199729Y-55280069D01*
X113199729Y-55280068D01*
X113111084Y-55126530D01*
X112992453Y-54994777D01*
X112849023Y-54890570D01*
X112687060Y-54818459D01*
X112513648Y-54781600D01*
X112513645Y-54781600D01*
X112336355Y-54781600D01*
X112336352Y-54781600D01*
X112162939Y-54818459D01*
X112000976Y-54890570D01*
X111857546Y-54994777D01*
X111738915Y-55126530D01*
X111650270Y-55280069D01*
X111599658Y-55435840D01*
X111595486Y-55448681D01*
X111576954Y-55625000D01*
X108347317Y-55625000D01*
X108276236Y-55573357D01*
X108114273Y-55501246D01*
X107940861Y-55464387D01*
X107940858Y-55464387D01*
X107763568Y-55464387D01*
X107763565Y-55464387D01*
X107590152Y-55501246D01*
X107428189Y-55573357D01*
X107284759Y-55677564D01*
X107166128Y-55809317D01*
X107077483Y-55962856D01*
X107027736Y-56115965D01*
X107022699Y-56131468D01*
X107004167Y-56307787D01*
X105935900Y-56307787D01*
X105935900Y-54690000D01*
X109781954Y-54690000D01*
X109800486Y-54866319D01*
X109800487Y-54866322D01*
X109855270Y-55034930D01*
X109943915Y-55188469D01*
X110062546Y-55320222D01*
X110205976Y-55424429D01*
X110367939Y-55496540D01*
X110541352Y-55533400D01*
X110541355Y-55533400D01*
X110718648Y-55533400D01*
X110848707Y-55505754D01*
X110892061Y-55496540D01*
X111054023Y-55424429D01*
X111098361Y-55392216D01*
X111197453Y-55320222D01*
X111316084Y-55188469D01*
X111351844Y-55126530D01*
X111404729Y-55034931D01*
X111459514Y-54866319D01*
X111478046Y-54690000D01*
X111459514Y-54513681D01*
X111404729Y-54345069D01*
X111390383Y-54320221D01*
X111316084Y-54191530D01*
X111197453Y-54059777D01*
X111054023Y-53955570D01*
X110892060Y-53883459D01*
X110718648Y-53846600D01*
X110718645Y-53846600D01*
X110541355Y-53846600D01*
X110541352Y-53846600D01*
X110367939Y-53883459D01*
X110205976Y-53955570D01*
X110062546Y-54059777D01*
X109943915Y-54191530D01*
X109855270Y-54345069D01*
X109812938Y-54475356D01*
X109800486Y-54513681D01*
X109781954Y-54690000D01*
X105935900Y-54690000D01*
X105935900Y-47345599D01*
X107385951Y-47345599D01*
X107405717Y-47596749D01*
X107464526Y-47841710D01*
X107512730Y-47958084D01*
X107560934Y-48074459D01*
X107692564Y-48289259D01*
X107856176Y-48480824D01*
X108047741Y-48644436D01*
X108262541Y-48776066D01*
X108495289Y-48872473D01*
X108740252Y-48931283D01*
X108928518Y-48946100D01*
X108930963Y-48946100D01*
X109051837Y-48946100D01*
X109054282Y-48946100D01*
X109242548Y-48931283D01*
X109487511Y-48872473D01*
X109720259Y-48776066D01*
X109935059Y-48644436D01*
X110126624Y-48480824D01*
X110290236Y-48289259D01*
X110421866Y-48074459D01*
X110518273Y-47841711D01*
X110577083Y-47596748D01*
X110596849Y-47345600D01*
X110577083Y-47094452D01*
X110518273Y-46849489D01*
X110421866Y-46616741D01*
X110290236Y-46401941D01*
X110126624Y-46210376D01*
X109935059Y-46046764D01*
X109720259Y-45915134D01*
X109569870Y-45852841D01*
X109487510Y-45818726D01*
X109242549Y-45759917D01*
X109056716Y-45745291D01*
X109056701Y-45745290D01*
X109054282Y-45745100D01*
X108928518Y-45745100D01*
X108926099Y-45745290D01*
X108926083Y-45745291D01*
X108740250Y-45759917D01*
X108495289Y-45818726D01*
X108262539Y-45915135D01*
X108047742Y-46046763D01*
X107856176Y-46210376D01*
X107692563Y-46401942D01*
X107560935Y-46616739D01*
X107464526Y-46849489D01*
X107405717Y-47094450D01*
X107385951Y-47345599D01*
X105935900Y-47345599D01*
X105935900Y-46866354D01*
X105936544Y-46861297D01*
X105936436Y-46848485D01*
X105936437Y-46848482D01*
X105935913Y-46786339D01*
X105936078Y-46778861D01*
X105951343Y-46487430D01*
X105953041Y-46472478D01*
X105965604Y-46400927D01*
X106002852Y-46188778D01*
X106006347Y-46174152D01*
X106090172Y-45898576D01*
X106095412Y-45884485D01*
X106212007Y-45621107D01*
X106218923Y-45607743D01*
X106264657Y-45531141D01*
X106366580Y-45360426D01*
X106375055Y-45348012D01*
X106551597Y-45120407D01*
X106561510Y-45109115D01*
X106764343Y-44904568D01*
X106775539Y-44894571D01*
X107001652Y-44716121D01*
X107014002Y-44707536D01*
X107260073Y-44557801D01*
X107273371Y-44550778D01*
X107535757Y-44431973D01*
X107549816Y-44426611D01*
X107824668Y-44340475D01*
X107839267Y-44336856D01*
X108122537Y-44284660D01*
X108137471Y-44282837D01*
X108428403Y-44265142D01*
X108435931Y-44264914D01*
X108518482Y-44264914D01*
X108518514Y-44264907D01*
X111940814Y-44264700D01*
X112009761Y-44264700D01*
X112009762Y-44264700D01*
X112035966Y-44257005D01*
X112053254Y-44253244D01*
X112080287Y-44249356D01*
X112105093Y-44238025D01*
X112121679Y-44231837D01*
X112147853Y-44224153D01*
X112170836Y-44209381D01*
X112186353Y-44200907D01*
X112211199Y-44189560D01*
X112231820Y-44171688D01*
X112245966Y-44161098D01*
X112268928Y-44146343D01*
X112286813Y-44125700D01*
X112299322Y-44113191D01*
X112319963Y-44095305D01*
X112334710Y-44072353D01*
X112345313Y-44058188D01*
X112363177Y-44037573D01*
X112374526Y-44012720D01*
X112382993Y-43997214D01*
X112397766Y-43974225D01*
X112405452Y-43948038D01*
X112411632Y-43931470D01*
X112422965Y-43906657D01*
X112426852Y-43879615D01*
X112430608Y-43862344D01*
X112438304Y-43836130D01*
X112438300Y-43763119D01*
X112438300Y-42950422D01*
X112457983Y-42883387D01*
X112510787Y-42837632D01*
X112562481Y-42826426D01*
X114129984Y-42828752D01*
G37*
G04 #@! TD.AperFunction*
G04 #@! TA.AperFunction,Conductor*
G36*
X119116663Y-60158467D02*
G01*
X119172596Y-60200339D01*
X119197013Y-60265803D01*
X119196650Y-60287611D01*
X119195486Y-60298678D01*
X119195486Y-60298681D01*
X119176954Y-60475000D01*
X119195486Y-60651319D01*
X119195487Y-60651322D01*
X119250270Y-60819930D01*
X119338915Y-60973469D01*
X119457546Y-61105222D01*
X119600976Y-61209429D01*
X119762939Y-61281540D01*
X119936352Y-61318400D01*
X120000941Y-61318400D01*
X120067980Y-61338085D01*
X120113735Y-61390889D01*
X120124941Y-61442400D01*
X120124941Y-73655846D01*
X120105256Y-73722885D01*
X120052452Y-73768640D01*
X119983294Y-73778584D01*
X119975162Y-73777137D01*
X119959419Y-73773791D01*
X119782129Y-73773791D01*
X119782126Y-73773791D01*
X119608715Y-73810649D01*
X119535725Y-73843147D01*
X119466475Y-73852431D01*
X119403199Y-73822802D01*
X119377904Y-73791868D01*
X119329379Y-73707821D01*
X119317448Y-73687155D01*
X119198818Y-73555403D01*
X119055388Y-73451196D01*
X118893425Y-73379085D01*
X118720013Y-73342226D01*
X118720010Y-73342226D01*
X118542720Y-73342226D01*
X118542717Y-73342226D01*
X118369304Y-73379085D01*
X118207341Y-73451196D01*
X118063911Y-73555403D01*
X117945280Y-73687157D01*
X117876639Y-73806047D01*
X117826072Y-73854263D01*
X117757465Y-73867485D01*
X117692600Y-73841517D01*
X117652072Y-73784603D01*
X117645252Y-73744047D01*
X117645252Y-67867400D01*
X117664937Y-67800361D01*
X117717741Y-67754606D01*
X117769252Y-67743400D01*
X117913648Y-67743400D01*
X118046934Y-67715069D01*
X118087061Y-67706540D01*
X118249023Y-67634429D01*
X118380719Y-67538747D01*
X118392453Y-67530222D01*
X118511084Y-67398469D01*
X118531892Y-67362428D01*
X118599729Y-67244931D01*
X118654514Y-67076319D01*
X118673046Y-66900000D01*
X118654514Y-66723681D01*
X118599729Y-66555069D01*
X118581641Y-66523739D01*
X118511084Y-66401530D01*
X118392453Y-66269777D01*
X118249023Y-66165570D01*
X118087060Y-66093459D01*
X117913648Y-66056600D01*
X117913645Y-66056600D01*
X117769252Y-66056600D01*
X117702213Y-66036915D01*
X117656458Y-65984111D01*
X117645252Y-65932600D01*
X117645252Y-61578726D01*
X117664937Y-61511687D01*
X117681566Y-61491050D01*
X118985650Y-60186966D01*
X119046971Y-60153483D01*
X119116663Y-60158467D01*
G37*
G04 #@! TD.AperFunction*
G04 #@! TA.AperFunction,Conductor*
G36*
X123878657Y-60576173D02*
G01*
X123905363Y-60596465D01*
X124580813Y-61271915D01*
X124591508Y-61284110D01*
X124609263Y-61307250D01*
X124649449Y-61338085D01*
X124727081Y-61397653D01*
X124754517Y-61409017D01*
X124756819Y-61409971D01*
X124811222Y-61453812D01*
X124833287Y-61520106D01*
X124816008Y-61587805D01*
X124764871Y-61635416D01*
X124709366Y-61648532D01*
X124653284Y-61648532D01*
X124479871Y-61685391D01*
X124317908Y-61757502D01*
X124174478Y-61861709D01*
X124055847Y-61993462D01*
X123967202Y-62147001D01*
X123912419Y-62315609D01*
X123912418Y-62315613D01*
X123893886Y-62491932D01*
X123912418Y-62668251D01*
X123912419Y-62668254D01*
X123967202Y-62836862D01*
X124055847Y-62990401D01*
X124174478Y-63122154D01*
X124317908Y-63226361D01*
X124479871Y-63298472D01*
X124653284Y-63335332D01*
X124653287Y-63335332D01*
X124830580Y-63335332D01*
X124960638Y-63307686D01*
X125003993Y-63298472D01*
X125165955Y-63226361D01*
X125309386Y-63122153D01*
X125428016Y-62990401D01*
X125516661Y-62836863D01*
X125571446Y-62668251D01*
X125589978Y-62491932D01*
X125571446Y-62315613D01*
X125516661Y-62147001D01*
X125475853Y-62076319D01*
X125428016Y-61993462D01*
X125309385Y-61861709D01*
X125165955Y-61757502D01*
X125050907Y-61706279D01*
X124997670Y-61661029D01*
X124977349Y-61594180D01*
X124996394Y-61526956D01*
X125048760Y-61480701D01*
X125101343Y-61469000D01*
X129078136Y-61469000D01*
X129145175Y-61488685D01*
X129190930Y-61541489D01*
X129200874Y-61610647D01*
X129192697Y-61640453D01*
X129130017Y-61791775D01*
X129110632Y-61939009D01*
X129114439Y-61967918D01*
X129115500Y-61984104D01*
X129115500Y-63824404D01*
X129114439Y-63840589D01*
X129110632Y-63869499D01*
X129115500Y-63906467D01*
X129130017Y-64016734D01*
X129186847Y-64153933D01*
X129277247Y-64271747D01*
X129277248Y-64271748D01*
X129277250Y-64271750D01*
X129300394Y-64289509D01*
X129312580Y-64300197D01*
X129398141Y-64385758D01*
X129431626Y-64447081D01*
X129430235Y-64505532D01*
X129384936Y-64674592D01*
X129364340Y-64909999D01*
X129384936Y-65145407D01*
X129418432Y-65270416D01*
X129446097Y-65373663D01*
X129545965Y-65587830D01*
X129681505Y-65781401D01*
X129681508Y-65781403D01*
X129681508Y-65781404D01*
X129763562Y-65863458D01*
X129797047Y-65924781D01*
X129792063Y-65994473D01*
X129763562Y-66038820D01*
X123642281Y-72160102D01*
X123580958Y-72193587D01*
X123511266Y-72188603D01*
X123455333Y-72146731D01*
X123430916Y-72081267D01*
X123430600Y-72072421D01*
X123430600Y-70318348D01*
X123450285Y-70251309D01*
X123503089Y-70205554D01*
X123528820Y-70197058D01*
X123625594Y-70176487D01*
X123661561Y-70168843D01*
X123823523Y-70096732D01*
X123862794Y-70068200D01*
X123966953Y-69992525D01*
X123975701Y-69982810D01*
X124085584Y-69860772D01*
X124174229Y-69707234D01*
X124229014Y-69538622D01*
X124247546Y-69362303D01*
X124229014Y-69185984D01*
X124174229Y-69017372D01*
X124174228Y-69017371D01*
X124085584Y-68863833D01*
X123966953Y-68732080D01*
X123823523Y-68627873D01*
X123661560Y-68555762D01*
X123488148Y-68518903D01*
X123488145Y-68518903D01*
X123310855Y-68518903D01*
X123300600Y-68518903D01*
X123233561Y-68499218D01*
X123187806Y-68446414D01*
X123176600Y-68394903D01*
X123176600Y-67842400D01*
X123196285Y-67775361D01*
X123249089Y-67729606D01*
X123300600Y-67718400D01*
X123488148Y-67718400D01*
X123622404Y-67689863D01*
X123661561Y-67681540D01*
X123823523Y-67609429D01*
X123920809Y-67538747D01*
X123966953Y-67505222D01*
X124041896Y-67421990D01*
X124085584Y-67373469D01*
X124174229Y-67219931D01*
X124229014Y-67051319D01*
X124247546Y-66875000D01*
X124229014Y-66698681D01*
X124217216Y-66662373D01*
X124215222Y-66592534D01*
X124251302Y-66532701D01*
X124314003Y-66501873D01*
X124383417Y-66509838D01*
X124408033Y-66523739D01*
X124525976Y-66609429D01*
X124687939Y-66681540D01*
X124861352Y-66718400D01*
X124861355Y-66718400D01*
X125038648Y-66718400D01*
X125212059Y-66681541D01*
X125326992Y-66630369D01*
X125372682Y-66610025D01*
X125441932Y-66600741D01*
X125505208Y-66630369D01*
X125542422Y-66689503D01*
X125541757Y-66759370D01*
X125503426Y-66817786D01*
X125496004Y-66823623D01*
X125379145Y-66908526D01*
X125260515Y-67040277D01*
X125171870Y-67193816D01*
X125117087Y-67362424D01*
X125117086Y-67362428D01*
X125098554Y-67538747D01*
X125117086Y-67715066D01*
X125117087Y-67715069D01*
X125171870Y-67883677D01*
X125260515Y-68037216D01*
X125379146Y-68168969D01*
X125522576Y-68273176D01*
X125684539Y-68345287D01*
X125857952Y-68382147D01*
X125857955Y-68382147D01*
X126035248Y-68382147D01*
X126165306Y-68354501D01*
X126208661Y-68345287D01*
X126370623Y-68273176D01*
X126514054Y-68168968D01*
X126632684Y-68037216D01*
X126721329Y-67883678D01*
X126776114Y-67715066D01*
X126794646Y-67538747D01*
X126776114Y-67362428D01*
X126721329Y-67193816D01*
X126653494Y-67076322D01*
X126632684Y-67040277D01*
X126514053Y-66908524D01*
X126469518Y-66876168D01*
X126426852Y-66820838D01*
X126420873Y-66751225D01*
X126453479Y-66689430D01*
X126491969Y-66662569D01*
X126499023Y-66659429D01*
X126539021Y-66630369D01*
X126642453Y-66555222D01*
X126670801Y-66523739D01*
X126761084Y-66423469D01*
X126849729Y-66269931D01*
X126904514Y-66101319D01*
X126923046Y-65925000D01*
X126904514Y-65748681D01*
X126849729Y-65580069D01*
X126820862Y-65530069D01*
X126761084Y-65426530D01*
X126642453Y-65294777D01*
X126499023Y-65190570D01*
X126337060Y-65118459D01*
X126163648Y-65081600D01*
X126163645Y-65081600D01*
X125986355Y-65081600D01*
X125986352Y-65081600D01*
X125812939Y-65118458D01*
X125650978Y-65190569D01*
X125619792Y-65213227D01*
X125553985Y-65236705D01*
X125485932Y-65220878D01*
X125474024Y-65213225D01*
X125374023Y-65140570D01*
X125212060Y-65068459D01*
X125038648Y-65031600D01*
X125038645Y-65031600D01*
X124861355Y-65031600D01*
X124861352Y-65031600D01*
X124687939Y-65068459D01*
X124525976Y-65140570D01*
X124382546Y-65244777D01*
X124263915Y-65376530D01*
X124175270Y-65530069D01*
X124156504Y-65587827D01*
X124120486Y-65698681D01*
X124101954Y-65875000D01*
X124120486Y-66051319D01*
X124120487Y-66051322D01*
X124132282Y-66087625D01*
X124134277Y-66157466D01*
X124098196Y-66217299D01*
X124035494Y-66248126D01*
X123966080Y-66240161D01*
X123941466Y-66226260D01*
X123823523Y-66140570D01*
X123661560Y-66068459D01*
X123488148Y-66031600D01*
X123488145Y-66031600D01*
X123310855Y-66031600D01*
X123300600Y-66031600D01*
X123233561Y-66011915D01*
X123187806Y-65959111D01*
X123176600Y-65907600D01*
X123176600Y-60866960D01*
X123196285Y-60799921D01*
X123249089Y-60754166D01*
X123300600Y-60742960D01*
X123340380Y-60742960D01*
X123470439Y-60715314D01*
X123513793Y-60706100D01*
X123675755Y-60633989D01*
X123675754Y-60633989D01*
X123744797Y-60583828D01*
X123810603Y-60560348D01*
X123878657Y-60576173D01*
G37*
G04 #@! TD.AperFunction*
G04 #@! TA.AperFunction,Conductor*
G36*
X129401392Y-70442089D02*
G01*
X129457325Y-70483961D01*
X129470438Y-70505863D01*
X129545965Y-70667830D01*
X129681505Y-70861401D01*
X129848599Y-71028495D01*
X130034160Y-71158426D01*
X130077783Y-71213002D01*
X130084976Y-71282501D01*
X130053454Y-71344855D01*
X130034158Y-71361575D01*
X129881597Y-71468400D01*
X129848595Y-71491508D01*
X129681505Y-71658598D01*
X129545965Y-71852170D01*
X129446097Y-72066336D01*
X129384936Y-72294592D01*
X129364340Y-72529999D01*
X129384936Y-72765407D01*
X129419736Y-72895280D01*
X129446097Y-72993663D01*
X129545965Y-73207830D01*
X129681505Y-73401401D01*
X129848599Y-73568495D01*
X130034160Y-73698426D01*
X130077783Y-73753002D01*
X130084976Y-73822501D01*
X130053454Y-73884855D01*
X130034159Y-73901575D01*
X129848595Y-74031508D01*
X129681505Y-74198598D01*
X129545965Y-74392170D01*
X129446097Y-74606336D01*
X129384936Y-74834592D01*
X129364340Y-75070000D01*
X129384936Y-75305407D01*
X129424367Y-75452566D01*
X129446097Y-75533663D01*
X129545965Y-75747830D01*
X129681505Y-75941401D01*
X129848599Y-76108495D01*
X130034160Y-76238426D01*
X130077783Y-76293002D01*
X130084976Y-76362501D01*
X130053454Y-76424855D01*
X130034158Y-76441575D01*
X129871533Y-76555447D01*
X129848595Y-76571508D01*
X129681505Y-76738598D01*
X129545965Y-76932170D01*
X129446097Y-77146336D01*
X129384936Y-77374592D01*
X129364340Y-77609999D01*
X129384936Y-77845407D01*
X129400777Y-77904525D01*
X129446097Y-78073663D01*
X129545965Y-78287830D01*
X129681505Y-78481401D01*
X129848599Y-78648495D01*
X130034160Y-78778426D01*
X130077783Y-78833002D01*
X130084976Y-78902501D01*
X130053454Y-78964855D01*
X130034159Y-78981575D01*
X129848595Y-79111508D01*
X129681505Y-79278598D01*
X129545965Y-79472170D01*
X129446097Y-79686336D01*
X129384936Y-79914592D01*
X129364340Y-80150000D01*
X129384936Y-80385407D01*
X129425450Y-80536607D01*
X129446097Y-80613663D01*
X129545965Y-80827830D01*
X129681505Y-81021401D01*
X129848599Y-81188495D01*
X130034596Y-81318732D01*
X130078219Y-81373307D01*
X130085412Y-81442806D01*
X130053890Y-81505160D01*
X130034595Y-81521880D01*
X129848919Y-81651892D01*
X129681890Y-81818921D01*
X129546400Y-82012421D01*
X129446569Y-82226507D01*
X129389364Y-82439999D01*
X129389364Y-82440000D01*
X130286314Y-82440000D01*
X130260507Y-82480156D01*
X130220000Y-82618111D01*
X130220000Y-82761889D01*
X130260507Y-82899844D01*
X130286314Y-82940000D01*
X129389363Y-82940000D01*
X129387389Y-82942573D01*
X129372884Y-82953163D01*
X129378685Y-82956587D01*
X129407907Y-83009205D01*
X129446569Y-83153492D01*
X129550985Y-83377411D01*
X129548687Y-83378482D01*
X129566047Y-83429951D01*
X129549040Y-83497719D01*
X129529826Y-83522555D01*
X127929081Y-85123301D01*
X127867758Y-85156786D01*
X127798066Y-85151802D01*
X127742133Y-85109930D01*
X127717716Y-85044466D01*
X127717400Y-85035620D01*
X127717400Y-83793639D01*
X127737085Y-83726600D01*
X127789889Y-83680845D01*
X127859047Y-83670901D01*
X127891836Y-83680360D01*
X128062939Y-83756540D01*
X128236352Y-83793400D01*
X128236355Y-83793400D01*
X128413648Y-83793400D01*
X128543706Y-83765755D01*
X128587061Y-83756540D01*
X128749023Y-83684429D01*
X128834476Y-83622344D01*
X128892453Y-83580222D01*
X129011084Y-83448469D01*
X129026082Y-83422491D01*
X129099729Y-83294931D01*
X129154514Y-83126319D01*
X129164812Y-83028333D01*
X129191395Y-82963723D01*
X129203309Y-82955408D01*
X129200294Y-82953715D01*
X129167542Y-82891998D01*
X129165694Y-82880058D01*
X129154514Y-82773681D01*
X129099729Y-82605069D01*
X129015792Y-82459685D01*
X129011084Y-82451530D01*
X128892453Y-82319777D01*
X128749023Y-82215570D01*
X128587060Y-82143459D01*
X128413648Y-82106600D01*
X128413645Y-82106600D01*
X128330578Y-82106600D01*
X128263539Y-82086915D01*
X128242897Y-82070281D01*
X124265173Y-78092556D01*
X124258778Y-78080844D01*
X126553366Y-78080844D01*
X126571898Y-78257163D01*
X126571899Y-78257166D01*
X126626682Y-78425774D01*
X126715327Y-78579313D01*
X126833958Y-78711066D01*
X126960317Y-78802871D01*
X127002983Y-78858201D01*
X127008962Y-78927814D01*
X126976356Y-78989609D01*
X126960318Y-79003507D01*
X126861945Y-79074979D01*
X126743315Y-79206730D01*
X126654670Y-79360269D01*
X126604403Y-79514978D01*
X126599886Y-79528881D01*
X126581354Y-79705200D01*
X126599886Y-79881519D01*
X126599887Y-79881522D01*
X126654670Y-80050130D01*
X126743315Y-80203669D01*
X126861946Y-80335422D01*
X127005376Y-80439629D01*
X127167339Y-80511740D01*
X127340752Y-80548600D01*
X127340755Y-80548600D01*
X127518048Y-80548600D01*
X127648107Y-80520955D01*
X127691461Y-80511740D01*
X127853423Y-80439629D01*
X127880747Y-80419777D01*
X127996853Y-80335422D01*
X128115484Y-80203669D01*
X128146470Y-80150000D01*
X128204129Y-80050131D01*
X128258914Y-79881519D01*
X128277446Y-79705200D01*
X128258914Y-79528881D01*
X128204129Y-79360269D01*
X128156977Y-79278599D01*
X128115484Y-79206730D01*
X127996855Y-79074979D01*
X127870493Y-78983172D01*
X127827828Y-78927842D01*
X127821849Y-78858229D01*
X127854455Y-78796434D01*
X127870487Y-78782540D01*
X127968866Y-78711065D01*
X128087496Y-78579313D01*
X128176141Y-78425775D01*
X128230926Y-78257163D01*
X128249458Y-78080844D01*
X128230926Y-77904525D01*
X128185680Y-77765271D01*
X128183685Y-77695429D01*
X128219766Y-77635597D01*
X128277830Y-77605662D01*
X128298841Y-77601197D01*
X128298842Y-77601196D01*
X128298844Y-77601196D01*
X128460803Y-77529086D01*
X128604233Y-77424879D01*
X128606815Y-77422012D01*
X128722864Y-77293126D01*
X128811509Y-77139588D01*
X128866294Y-76970976D01*
X128884826Y-76794657D01*
X128866294Y-76618338D01*
X128811509Y-76449726D01*
X128796481Y-76423696D01*
X128722864Y-76296187D01*
X128604233Y-76164434D01*
X128460803Y-76060227D01*
X128298840Y-75988116D01*
X128125428Y-75951257D01*
X128125425Y-75951257D01*
X127948135Y-75951257D01*
X127948132Y-75951257D01*
X127774719Y-75988116D01*
X127612756Y-76060227D01*
X127469326Y-76164434D01*
X127350695Y-76296187D01*
X127262050Y-76449726D01*
X127213233Y-76599973D01*
X127207266Y-76618338D01*
X127188734Y-76794657D01*
X127207266Y-76970976D01*
X127207267Y-76970979D01*
X127252511Y-77110230D01*
X127254506Y-77180071D01*
X127218425Y-77239904D01*
X127160363Y-77269837D01*
X127139350Y-77274303D01*
X126977388Y-77346414D01*
X126833958Y-77450621D01*
X126715327Y-77582374D01*
X126626682Y-77735913D01*
X126574240Y-77897317D01*
X126571898Y-77904525D01*
X126553366Y-78080844D01*
X124258778Y-78080844D01*
X124231688Y-78031233D01*
X124236672Y-77961541D01*
X124278544Y-77905608D01*
X124344008Y-77881191D01*
X124378635Y-77883585D01*
X124443239Y-77897317D01*
X124443240Y-77897317D01*
X124620533Y-77897317D01*
X124750592Y-77869672D01*
X124793946Y-77860457D01*
X124955908Y-77788346D01*
X124990601Y-77763140D01*
X125099338Y-77684139D01*
X125115526Y-77666161D01*
X125217969Y-77552386D01*
X125306614Y-77398848D01*
X125361399Y-77230236D01*
X125379931Y-77053917D01*
X125361399Y-76877598D01*
X125306614Y-76708986D01*
X125264247Y-76635604D01*
X125217969Y-76555447D01*
X125099338Y-76423694D01*
X124955908Y-76319487D01*
X124793945Y-76247376D01*
X124620533Y-76210517D01*
X124620530Y-76210517D01*
X124443240Y-76210517D01*
X124443237Y-76210517D01*
X124269824Y-76247376D01*
X124107861Y-76319487D01*
X123964431Y-76423694D01*
X123845800Y-76555447D01*
X123757155Y-76708986D01*
X123702372Y-76877594D01*
X123702371Y-76877598D01*
X123683839Y-77053917D01*
X123697098Y-77180071D01*
X123700947Y-77216685D01*
X123688378Y-77285415D01*
X123640646Y-77336439D01*
X123572905Y-77353557D01*
X123506664Y-77331335D01*
X123489945Y-77317328D01*
X123466919Y-77294302D01*
X123433434Y-77232979D01*
X123430600Y-77206621D01*
X123430600Y-75676151D01*
X123450285Y-75609112D01*
X123503089Y-75563357D01*
X123528820Y-75554861D01*
X123662057Y-75526541D01*
X123662057Y-75526540D01*
X123662061Y-75526540D01*
X123743182Y-75490421D01*
X123812431Y-75481136D01*
X123844054Y-75490422D01*
X123950166Y-75537667D01*
X124123578Y-75574526D01*
X124123581Y-75574526D01*
X124300874Y-75574526D01*
X124474283Y-75537667D01*
X124474283Y-75537666D01*
X124474287Y-75537666D01*
X124623728Y-75471129D01*
X124692975Y-75461844D01*
X124756252Y-75491472D01*
X124781549Y-75522409D01*
X124813915Y-75578468D01*
X124932546Y-75710222D01*
X125075976Y-75814429D01*
X125237939Y-75886540D01*
X125411352Y-75923400D01*
X125411355Y-75923400D01*
X125588648Y-75923400D01*
X125720716Y-75895328D01*
X125762061Y-75886540D01*
X125924023Y-75814429D01*
X125994017Y-75763576D01*
X126067453Y-75710222D01*
X126186084Y-75578469D01*
X126199714Y-75554861D01*
X126274729Y-75424931D01*
X126329514Y-75256319D01*
X126348046Y-75080000D01*
X126329514Y-74903681D01*
X126274729Y-74735069D01*
X126269296Y-74725660D01*
X126252824Y-74657761D01*
X126269297Y-74601659D01*
X126284729Y-74574931D01*
X126339514Y-74406319D01*
X126358046Y-74230000D01*
X126339514Y-74053681D01*
X126284729Y-73885069D01*
X126266943Y-73854263D01*
X126196086Y-73731534D01*
X126196085Y-73731533D01*
X126196084Y-73731531D01*
X126186388Y-73720763D01*
X126156159Y-73657775D01*
X126164782Y-73588440D01*
X126190854Y-73550113D01*
X126859060Y-72881907D01*
X126920381Y-72848424D01*
X126990073Y-72853408D01*
X127046006Y-72895280D01*
X127054126Y-72907590D01*
X127123915Y-73028469D01*
X127242546Y-73160222D01*
X127385976Y-73264429D01*
X127547939Y-73336540D01*
X127721352Y-73373400D01*
X127721355Y-73373400D01*
X127898648Y-73373400D01*
X128028707Y-73345755D01*
X128072061Y-73336540D01*
X128234023Y-73264429D01*
X128296928Y-73218726D01*
X128377453Y-73160222D01*
X128496084Y-73028469D01*
X128519060Y-72988673D01*
X128584729Y-72874931D01*
X128639514Y-72706319D01*
X128658046Y-72530000D01*
X128639514Y-72353681D01*
X128584729Y-72185069D01*
X128519692Y-72072421D01*
X128496084Y-72031530D01*
X128377453Y-71899777D01*
X128234025Y-71795571D01*
X128199136Y-71780038D01*
X128145899Y-71734788D01*
X128125577Y-71667939D01*
X128144622Y-71600715D01*
X128161886Y-71579081D01*
X129270379Y-70470588D01*
X129331700Y-70437105D01*
X129401392Y-70442089D01*
G37*
G04 #@! TD.AperFunction*
G04 #@! TA.AperFunction,Conductor*
G36*
X117781603Y-53708065D02*
G01*
X117788081Y-53714097D01*
X120601865Y-56527881D01*
X120635350Y-56589204D01*
X120630366Y-56658896D01*
X120588494Y-56714829D01*
X120564620Y-56728841D01*
X120425976Y-56790570D01*
X120282549Y-56894776D01*
X120165681Y-57024570D01*
X120106194Y-57061218D01*
X120036337Y-57059887D01*
X119978289Y-57021000D01*
X119966146Y-57003601D01*
X119936084Y-56951531D01*
X119912452Y-56925284D01*
X119817453Y-56819777D01*
X119674023Y-56715570D01*
X119512060Y-56643459D01*
X119338648Y-56606600D01*
X119338645Y-56606600D01*
X119161355Y-56606600D01*
X119161352Y-56606600D01*
X118987939Y-56643459D01*
X118825976Y-56715570D01*
X118682546Y-56819777D01*
X118563915Y-56951530D01*
X118475270Y-57105069D01*
X118420487Y-57273677D01*
X118420486Y-57273681D01*
X118401954Y-57450000D01*
X118420486Y-57626319D01*
X118420487Y-57626322D01*
X118475270Y-57794930D01*
X118563915Y-57948469D01*
X118682546Y-58080222D01*
X118825976Y-58184429D01*
X118934526Y-58232758D01*
X118987939Y-58256540D01*
X119039097Y-58267413D01*
X119100578Y-58300606D01*
X119134355Y-58361768D01*
X119129703Y-58431483D01*
X119100997Y-58476385D01*
X117534081Y-60043302D01*
X117472758Y-60076787D01*
X117403066Y-60071803D01*
X117347133Y-60029931D01*
X117322716Y-59964467D01*
X117322400Y-59955621D01*
X117322400Y-57273677D01*
X117322399Y-54543485D01*
X117323458Y-54527331D01*
X117325110Y-54514786D01*
X117353377Y-54450894D01*
X117372557Y-54432606D01*
X117414650Y-54400308D01*
X117505054Y-54282491D01*
X117561883Y-54145292D01*
X117581268Y-53998058D01*
X117577461Y-53969142D01*
X117576400Y-53952956D01*
X117576400Y-53801778D01*
X117596085Y-53734739D01*
X117648889Y-53688984D01*
X117718047Y-53679040D01*
X117781603Y-53708065D01*
G37*
G04 #@! TD.AperFunction*
M02*
