G04 #@! TF.GenerationSoftware,KiCad,Pcbnew,7.0.2-0*
G04 #@! TF.CreationDate,2024-06-02T16:01:14+02:00*
G04 #@! TF.ProjectId,network_player,6e657477-6f72-46b5-9f70-6c617965722e,rev?*
G04 #@! TF.SameCoordinates,Original*
G04 #@! TF.FileFunction,Legend,Top*
G04 #@! TF.FilePolarity,Positive*
%FSLAX46Y46*%
G04 Gerber Fmt 4.6, Leading zero omitted, Abs format (unit mm)*
G04 Created by KiCad (PCBNEW 7.0.2-0) date 2024-06-02 16:01:14*
%MOMM*%
%LPD*%
G01*
G04 APERTURE LIST*
G04 Aperture macros list*
%AMRoundRect*
0 Rectangle with rounded corners*
0 $1 Rounding radius*
0 $2 $3 $4 $5 $6 $7 $8 $9 X,Y pos of 4 corners*
0 Add a 4 corners polygon primitive as box body*
4,1,4,$2,$3,$4,$5,$6,$7,$8,$9,$2,$3,0*
0 Add four circle primitives for the rounded corners*
1,1,$1+$1,$2,$3*
1,1,$1+$1,$4,$5*
1,1,$1+$1,$6,$7*
1,1,$1+$1,$8,$9*
0 Add four rect primitives between the rounded corners*
20,1,$1+$1,$2,$3,$4,$5,0*
20,1,$1+$1,$4,$5,$6,$7,0*
20,1,$1+$1,$6,$7,$8,$9,0*
20,1,$1+$1,$8,$9,$2,$3,0*%
%AMFreePoly0*
4,1,6,0.725000,-0.725000,-0.725000,-0.725000,-0.725000,0.125000,-0.125000,0.725000,0.725000,0.725000,0.725000,-0.725000,0.725000,-0.725000,$1*%
G04 Aperture macros list end*
%ADD10C,0.152400*%
%ADD11C,0.150000*%
%ADD12C,0.120000*%
%ADD13R,0.750000X1.000000*%
%ADD14RoundRect,0.135000X0.135000X0.185000X-0.135000X0.185000X-0.135000X-0.185000X0.135000X-0.185000X0*%
%ADD15C,2.700000*%
%ADD16RoundRect,0.135000X-0.185000X0.135000X-0.185000X-0.135000X0.185000X-0.135000X0.185000X0.135000X0*%
%ADD17RoundRect,0.140000X0.170000X-0.140000X0.170000X0.140000X-0.170000X0.140000X-0.170000X-0.140000X0*%
%ADD18RoundRect,0.135000X-0.135000X-0.185000X0.135000X-0.185000X0.135000X0.185000X-0.135000X0.185000X0*%
%ADD19RoundRect,0.140000X-0.140000X-0.170000X0.140000X-0.170000X0.140000X0.170000X-0.140000X0.170000X0*%
%ADD20RoundRect,0.150000X-0.587500X-0.150000X0.587500X-0.150000X0.587500X0.150000X-0.587500X0.150000X0*%
%ADD21C,1.000000*%
%ADD22RoundRect,0.140000X-0.170000X0.140000X-0.170000X-0.140000X0.170000X-0.140000X0.170000X0.140000X0*%
%ADD23RoundRect,0.140000X0.140000X0.170000X-0.140000X0.170000X-0.140000X-0.170000X0.140000X-0.170000X0*%
%ADD24RoundRect,0.250000X0.250000X0.475000X-0.250000X0.475000X-0.250000X-0.475000X0.250000X-0.475000X0*%
%ADD25RoundRect,0.135000X0.185000X-0.135000X0.185000X0.135000X-0.185000X0.135000X-0.185000X-0.135000X0*%
%ADD26R,4.300000X3.400000*%
%ADD27RoundRect,0.125000X0.125000X-0.200000X0.125000X0.200000X-0.125000X0.200000X-0.125000X-0.200000X0*%
%ADD28R,1.650000X1.650000*%
%ADD29RoundRect,0.050000X-0.050000X-0.375000X0.050000X-0.375000X0.050000X0.375000X-0.050000X0.375000X0*%
%ADD30RoundRect,0.050000X-0.375000X-0.050000X0.375000X-0.050000X0.375000X0.050000X-0.375000X0.050000X0*%
%ADD31RoundRect,0.218750X-0.381250X0.218750X-0.381250X-0.218750X0.381250X-0.218750X0.381250X0.218750X0*%
%ADD32R,1.400000X1.150000*%
%ADD33O,0.200000X0.800000*%
%ADD34O,0.800000X0.200000*%
%ADD35R,6.840000X6.840000*%
%ADD36R,1.700000X1.700000*%
%ADD37O,1.700000X1.700000*%
%ADD38O,1.600000X1.000000*%
%ADD39O,2.100000X0.900000*%
%ADD40R,1.750000X0.300000*%
%ADD41C,0.650000*%
%ADD42RoundRect,0.218750X0.256250X-0.218750X0.256250X0.218750X-0.256250X0.218750X-0.256250X-0.218750X0*%
%ADD43R,0.800000X0.400000*%
%ADD44R,0.400000X0.800000*%
%ADD45FreePoly0,0.000000*%
%ADD46R,1.450000X1.450000*%
%ADD47R,0.700000X0.700000*%
G04 APERTURE END LIST*
D10*
X125767980Y-101280528D02*
X125497047Y-100893481D01*
X125303523Y-101280528D02*
X125303523Y-100467728D01*
X125303523Y-100467728D02*
X125613161Y-100467728D01*
X125613161Y-100467728D02*
X125690571Y-100506433D01*
X125690571Y-100506433D02*
X125729276Y-100545138D01*
X125729276Y-100545138D02*
X125767980Y-100622547D01*
X125767980Y-100622547D02*
X125767980Y-100738662D01*
X125767980Y-100738662D02*
X125729276Y-100816071D01*
X125729276Y-100816071D02*
X125690571Y-100854776D01*
X125690571Y-100854776D02*
X125613161Y-100893481D01*
X125613161Y-100893481D02*
X125303523Y-100893481D01*
X126077619Y-101241824D02*
X126193733Y-101280528D01*
X126193733Y-101280528D02*
X126387257Y-101280528D01*
X126387257Y-101280528D02*
X126464666Y-101241824D01*
X126464666Y-101241824D02*
X126503371Y-101203119D01*
X126503371Y-101203119D02*
X126542076Y-101125709D01*
X126542076Y-101125709D02*
X126542076Y-101048300D01*
X126542076Y-101048300D02*
X126503371Y-100970890D01*
X126503371Y-100970890D02*
X126464666Y-100932185D01*
X126464666Y-100932185D02*
X126387257Y-100893481D01*
X126387257Y-100893481D02*
X126232438Y-100854776D01*
X126232438Y-100854776D02*
X126155028Y-100816071D01*
X126155028Y-100816071D02*
X126116323Y-100777366D01*
X126116323Y-100777366D02*
X126077619Y-100699957D01*
X126077619Y-100699957D02*
X126077619Y-100622547D01*
X126077619Y-100622547D02*
X126116323Y-100545138D01*
X126116323Y-100545138D02*
X126155028Y-100506433D01*
X126155028Y-100506433D02*
X126232438Y-100467728D01*
X126232438Y-100467728D02*
X126425961Y-100467728D01*
X126425961Y-100467728D02*
X126542076Y-100506433D01*
X126774304Y-100467728D02*
X127238761Y-100467728D01*
X127006533Y-101280528D02*
X127006533Y-100467728D01*
X120604457Y-100994776D02*
X120720571Y-101033481D01*
X120720571Y-101033481D02*
X120759276Y-101072185D01*
X120759276Y-101072185D02*
X120797980Y-101149595D01*
X120797980Y-101149595D02*
X120797980Y-101265709D01*
X120797980Y-101265709D02*
X120759276Y-101343119D01*
X120759276Y-101343119D02*
X120720571Y-101381824D01*
X120720571Y-101381824D02*
X120643161Y-101420528D01*
X120643161Y-101420528D02*
X120333523Y-101420528D01*
X120333523Y-101420528D02*
X120333523Y-100607728D01*
X120333523Y-100607728D02*
X120604457Y-100607728D01*
X120604457Y-100607728D02*
X120681866Y-100646433D01*
X120681866Y-100646433D02*
X120720571Y-100685138D01*
X120720571Y-100685138D02*
X120759276Y-100762547D01*
X120759276Y-100762547D02*
X120759276Y-100839957D01*
X120759276Y-100839957D02*
X120720571Y-100917366D01*
X120720571Y-100917366D02*
X120681866Y-100956071D01*
X120681866Y-100956071D02*
X120604457Y-100994776D01*
X120604457Y-100994776D02*
X120333523Y-100994776D01*
X121107619Y-101381824D02*
X121223733Y-101420528D01*
X121223733Y-101420528D02*
X121417257Y-101420528D01*
X121417257Y-101420528D02*
X121494666Y-101381824D01*
X121494666Y-101381824D02*
X121533371Y-101343119D01*
X121533371Y-101343119D02*
X121572076Y-101265709D01*
X121572076Y-101265709D02*
X121572076Y-101188300D01*
X121572076Y-101188300D02*
X121533371Y-101110890D01*
X121533371Y-101110890D02*
X121494666Y-101072185D01*
X121494666Y-101072185D02*
X121417257Y-101033481D01*
X121417257Y-101033481D02*
X121262438Y-100994776D01*
X121262438Y-100994776D02*
X121185028Y-100956071D01*
X121185028Y-100956071D02*
X121146323Y-100917366D01*
X121146323Y-100917366D02*
X121107619Y-100839957D01*
X121107619Y-100839957D02*
X121107619Y-100762547D01*
X121107619Y-100762547D02*
X121146323Y-100685138D01*
X121146323Y-100685138D02*
X121185028Y-100646433D01*
X121185028Y-100646433D02*
X121262438Y-100607728D01*
X121262438Y-100607728D02*
X121455961Y-100607728D01*
X121455961Y-100607728D02*
X121572076Y-100646433D01*
X112133523Y-100474776D02*
X112404457Y-100474776D01*
X112520571Y-100900528D02*
X112133523Y-100900528D01*
X112133523Y-100900528D02*
X112133523Y-100087728D01*
X112133523Y-100087728D02*
X112520571Y-100087728D01*
X112830209Y-100861824D02*
X112946323Y-100900528D01*
X112946323Y-100900528D02*
X113139847Y-100900528D01*
X113139847Y-100900528D02*
X113217256Y-100861824D01*
X113217256Y-100861824D02*
X113255961Y-100823119D01*
X113255961Y-100823119D02*
X113294666Y-100745709D01*
X113294666Y-100745709D02*
X113294666Y-100668300D01*
X113294666Y-100668300D02*
X113255961Y-100590890D01*
X113255961Y-100590890D02*
X113217256Y-100552185D01*
X113217256Y-100552185D02*
X113139847Y-100513481D01*
X113139847Y-100513481D02*
X112985028Y-100474776D01*
X112985028Y-100474776D02*
X112907618Y-100436071D01*
X112907618Y-100436071D02*
X112868913Y-100397366D01*
X112868913Y-100397366D02*
X112830209Y-100319957D01*
X112830209Y-100319957D02*
X112830209Y-100242547D01*
X112830209Y-100242547D02*
X112868913Y-100165138D01*
X112868913Y-100165138D02*
X112907618Y-100126433D01*
X112907618Y-100126433D02*
X112985028Y-100087728D01*
X112985028Y-100087728D02*
X113178551Y-100087728D01*
X113178551Y-100087728D02*
X113294666Y-100126433D01*
X113643008Y-100900528D02*
X113643008Y-100087728D01*
X113643008Y-100087728D02*
X113952646Y-100087728D01*
X113952646Y-100087728D02*
X114030056Y-100126433D01*
X114030056Y-100126433D02*
X114068761Y-100165138D01*
X114068761Y-100165138D02*
X114107465Y-100242547D01*
X114107465Y-100242547D02*
X114107465Y-100358662D01*
X114107465Y-100358662D02*
X114068761Y-100436071D01*
X114068761Y-100436071D02*
X114030056Y-100474776D01*
X114030056Y-100474776D02*
X113952646Y-100513481D01*
X113952646Y-100513481D02*
X113643008Y-100513481D01*
X114262285Y-100977938D02*
X114881561Y-100977938D01*
X115539541Y-100900528D02*
X115268608Y-100513481D01*
X115075084Y-100900528D02*
X115075084Y-100087728D01*
X115075084Y-100087728D02*
X115384722Y-100087728D01*
X115384722Y-100087728D02*
X115462132Y-100126433D01*
X115462132Y-100126433D02*
X115500837Y-100165138D01*
X115500837Y-100165138D02*
X115539541Y-100242547D01*
X115539541Y-100242547D02*
X115539541Y-100358662D01*
X115539541Y-100358662D02*
X115500837Y-100436071D01*
X115500837Y-100436071D02*
X115462132Y-100474776D01*
X115462132Y-100474776D02*
X115384722Y-100513481D01*
X115384722Y-100513481D02*
X115075084Y-100513481D01*
X115849180Y-100861824D02*
X115965294Y-100900528D01*
X115965294Y-100900528D02*
X116158818Y-100900528D01*
X116158818Y-100900528D02*
X116236227Y-100861824D01*
X116236227Y-100861824D02*
X116274932Y-100823119D01*
X116274932Y-100823119D02*
X116313637Y-100745709D01*
X116313637Y-100745709D02*
X116313637Y-100668300D01*
X116313637Y-100668300D02*
X116274932Y-100590890D01*
X116274932Y-100590890D02*
X116236227Y-100552185D01*
X116236227Y-100552185D02*
X116158818Y-100513481D01*
X116158818Y-100513481D02*
X116003999Y-100474776D01*
X116003999Y-100474776D02*
X115926589Y-100436071D01*
X115926589Y-100436071D02*
X115887884Y-100397366D01*
X115887884Y-100397366D02*
X115849180Y-100319957D01*
X115849180Y-100319957D02*
X115849180Y-100242547D01*
X115849180Y-100242547D02*
X115887884Y-100165138D01*
X115887884Y-100165138D02*
X115926589Y-100126433D01*
X115926589Y-100126433D02*
X116003999Y-100087728D01*
X116003999Y-100087728D02*
X116197522Y-100087728D01*
X116197522Y-100087728D02*
X116313637Y-100126433D01*
X116545865Y-100087728D02*
X117010322Y-100087728D01*
X116778094Y-100900528D02*
X116778094Y-100087728D01*
D11*
X109128571Y-98937619D02*
X108557143Y-98937619D01*
X108842857Y-98937619D02*
X108842857Y-97937619D01*
X108842857Y-97937619D02*
X108747619Y-98080476D01*
X108747619Y-98080476D02*
X108652381Y-98175714D01*
X108652381Y-98175714D02*
X108557143Y-98223333D01*
X109461905Y-98270952D02*
X109700000Y-98937619D01*
X109700000Y-98937619D02*
X109938095Y-98270952D01*
X110842857Y-98937619D02*
X110271429Y-98937619D01*
X110557143Y-98937619D02*
X110557143Y-97937619D01*
X110557143Y-97937619D02*
X110461905Y-98080476D01*
X110461905Y-98080476D02*
X110366667Y-98175714D01*
X110366667Y-98175714D02*
X110271429Y-98223333D01*
X108607143Y-93997857D02*
X108654762Y-93950238D01*
X108654762Y-93950238D02*
X108750000Y-93902619D01*
X108750000Y-93902619D02*
X108988095Y-93902619D01*
X108988095Y-93902619D02*
X109083333Y-93950238D01*
X109083333Y-93950238D02*
X109130952Y-93997857D01*
X109130952Y-93997857D02*
X109178571Y-94093095D01*
X109178571Y-94093095D02*
X109178571Y-94188333D01*
X109178571Y-94188333D02*
X109130952Y-94331190D01*
X109130952Y-94331190D02*
X108559524Y-94902619D01*
X108559524Y-94902619D02*
X109178571Y-94902619D01*
X109511905Y-94235952D02*
X109750000Y-94902619D01*
X109750000Y-94902619D02*
X109988095Y-94235952D01*
X110845238Y-93902619D02*
X110369048Y-93902619D01*
X110369048Y-93902619D02*
X110321429Y-94378809D01*
X110321429Y-94378809D02*
X110369048Y-94331190D01*
X110369048Y-94331190D02*
X110464286Y-94283571D01*
X110464286Y-94283571D02*
X110702381Y-94283571D01*
X110702381Y-94283571D02*
X110797619Y-94331190D01*
X110797619Y-94331190D02*
X110845238Y-94378809D01*
X110845238Y-94378809D02*
X110892857Y-94474047D01*
X110892857Y-94474047D02*
X110892857Y-94712142D01*
X110892857Y-94712142D02*
X110845238Y-94807380D01*
X110845238Y-94807380D02*
X110797619Y-94855000D01*
X110797619Y-94855000D02*
X110702381Y-94902619D01*
X110702381Y-94902619D02*
X110464286Y-94902619D01*
X110464286Y-94902619D02*
X110369048Y-94855000D01*
X110369048Y-94855000D02*
X110321429Y-94807380D01*
X114877380Y-85802857D02*
X114925000Y-85850476D01*
X114925000Y-85850476D02*
X114972619Y-85993333D01*
X114972619Y-85993333D02*
X114972619Y-86088571D01*
X114972619Y-86088571D02*
X114925000Y-86231428D01*
X114925000Y-86231428D02*
X114829761Y-86326666D01*
X114829761Y-86326666D02*
X114734523Y-86374285D01*
X114734523Y-86374285D02*
X114544047Y-86421904D01*
X114544047Y-86421904D02*
X114401190Y-86421904D01*
X114401190Y-86421904D02*
X114210714Y-86374285D01*
X114210714Y-86374285D02*
X114115476Y-86326666D01*
X114115476Y-86326666D02*
X114020238Y-86231428D01*
X114020238Y-86231428D02*
X113972619Y-86088571D01*
X113972619Y-86088571D02*
X113972619Y-85993333D01*
X113972619Y-85993333D02*
X114020238Y-85850476D01*
X114020238Y-85850476D02*
X114067857Y-85802857D01*
X114972619Y-84850476D02*
X114972619Y-85421904D01*
X114972619Y-85136190D02*
X113972619Y-85136190D01*
X113972619Y-85136190D02*
X114115476Y-85231428D01*
X114115476Y-85231428D02*
X114210714Y-85326666D01*
X114210714Y-85326666D02*
X114258333Y-85421904D01*
X114305952Y-83993333D02*
X114972619Y-83993333D01*
X113925000Y-84231428D02*
X114639285Y-84469523D01*
X114639285Y-84469523D02*
X114639285Y-83850476D01*
X109130952Y-91802619D02*
X108654762Y-91802619D01*
X108654762Y-91802619D02*
X108607143Y-92278809D01*
X108607143Y-92278809D02*
X108654762Y-92231190D01*
X108654762Y-92231190D02*
X108750000Y-92183571D01*
X108750000Y-92183571D02*
X108988095Y-92183571D01*
X108988095Y-92183571D02*
X109083333Y-92231190D01*
X109083333Y-92231190D02*
X109130952Y-92278809D01*
X109130952Y-92278809D02*
X109178571Y-92374047D01*
X109178571Y-92374047D02*
X109178571Y-92612142D01*
X109178571Y-92612142D02*
X109130952Y-92707380D01*
X109130952Y-92707380D02*
X109083333Y-92755000D01*
X109083333Y-92755000D02*
X108988095Y-92802619D01*
X108988095Y-92802619D02*
X108750000Y-92802619D01*
X108750000Y-92802619D02*
X108654762Y-92755000D01*
X108654762Y-92755000D02*
X108607143Y-92707380D01*
X109511905Y-92135952D02*
X109750000Y-92802619D01*
X109750000Y-92802619D02*
X109988095Y-92135952D01*
X110892857Y-92802619D02*
X110321429Y-92802619D01*
X110607143Y-92802619D02*
X110607143Y-91802619D01*
X110607143Y-91802619D02*
X110511905Y-91945476D01*
X110511905Y-91945476D02*
X110416667Y-92040714D01*
X110416667Y-92040714D02*
X110321429Y-92088333D01*
X127262619Y-97313094D02*
X126262619Y-97313094D01*
X126262619Y-97313094D02*
X126262619Y-97074999D01*
X126262619Y-97074999D02*
X126310238Y-96932142D01*
X126310238Y-96932142D02*
X126405476Y-96836904D01*
X126405476Y-96836904D02*
X126500714Y-96789285D01*
X126500714Y-96789285D02*
X126691190Y-96741666D01*
X126691190Y-96741666D02*
X126834047Y-96741666D01*
X126834047Y-96741666D02*
X127024523Y-96789285D01*
X127024523Y-96789285D02*
X127119761Y-96836904D01*
X127119761Y-96836904D02*
X127215000Y-96932142D01*
X127215000Y-96932142D02*
X127262619Y-97074999D01*
X127262619Y-97074999D02*
X127262619Y-97313094D01*
X127262619Y-95789285D02*
X127262619Y-96360713D01*
X127262619Y-96074999D02*
X126262619Y-96074999D01*
X126262619Y-96074999D02*
X126405476Y-96170237D01*
X126405476Y-96170237D02*
X126500714Y-96265475D01*
X126500714Y-96265475D02*
X126548333Y-96360713D01*
X108559524Y-95841019D02*
X109178571Y-95841019D01*
X109178571Y-95841019D02*
X108845238Y-96221971D01*
X108845238Y-96221971D02*
X108988095Y-96221971D01*
X108988095Y-96221971D02*
X109083333Y-96269590D01*
X109083333Y-96269590D02*
X109130952Y-96317209D01*
X109130952Y-96317209D02*
X109178571Y-96412447D01*
X109178571Y-96412447D02*
X109178571Y-96650542D01*
X109178571Y-96650542D02*
X109130952Y-96745780D01*
X109130952Y-96745780D02*
X109083333Y-96793400D01*
X109083333Y-96793400D02*
X108988095Y-96841019D01*
X108988095Y-96841019D02*
X108702381Y-96841019D01*
X108702381Y-96841019D02*
X108607143Y-96793400D01*
X108607143Y-96793400D02*
X108559524Y-96745780D01*
X109511905Y-96174352D02*
X109750000Y-96841019D01*
X109750000Y-96841019D02*
X109988095Y-96174352D01*
X110273810Y-95841019D02*
X110892857Y-95841019D01*
X110892857Y-95841019D02*
X110559524Y-96221971D01*
X110559524Y-96221971D02*
X110702381Y-96221971D01*
X110702381Y-96221971D02*
X110797619Y-96269590D01*
X110797619Y-96269590D02*
X110845238Y-96317209D01*
X110845238Y-96317209D02*
X110892857Y-96412447D01*
X110892857Y-96412447D02*
X110892857Y-96650542D01*
X110892857Y-96650542D02*
X110845238Y-96745780D01*
X110845238Y-96745780D02*
X110797619Y-96793400D01*
X110797619Y-96793400D02*
X110702381Y-96841019D01*
X110702381Y-96841019D02*
X110416667Y-96841019D01*
X110416667Y-96841019D02*
X110321429Y-96793400D01*
X110321429Y-96793400D02*
X110273810Y-96745780D01*
D12*
X119425000Y-107550000D02*
X121425000Y-107550000D01*
X118125000Y-106550000D02*
X117675000Y-106100000D01*
X122725000Y-106550000D02*
X123175000Y-106100000D01*
X117675000Y-106100000D02*
X117675000Y-103500000D01*
X123175000Y-106100000D02*
X123175000Y-103500000D01*
X118125000Y-103050000D02*
X117675000Y-103500000D01*
X122725000Y-103050000D02*
X123175000Y-103500000D01*
X119425000Y-102050000D02*
X121425000Y-102050000D01*
X125075000Y-107550000D02*
X127075000Y-107550000D01*
X123775000Y-106550000D02*
X123325000Y-106100000D01*
X128375000Y-106550000D02*
X128825000Y-106100000D01*
X123325000Y-106100000D02*
X123325000Y-103500000D01*
X128825000Y-106100000D02*
X128825000Y-103500000D01*
X123775000Y-103050000D02*
X123325000Y-103500000D01*
X128375000Y-103050000D02*
X128825000Y-103500000D01*
X125075000Y-102050000D02*
X127075000Y-102050000D01*
X113805000Y-107550000D02*
X115805000Y-107550000D01*
X112505000Y-106550000D02*
X112055000Y-106100000D01*
X117105000Y-106550000D02*
X117555000Y-106100000D01*
X112055000Y-106100000D02*
X112055000Y-103500000D01*
X117555000Y-106100000D02*
X117555000Y-103500000D01*
X112505000Y-103050000D02*
X112055000Y-103500000D01*
X117105000Y-103050000D02*
X117555000Y-103500000D01*
X113805000Y-102050000D02*
X115805000Y-102050000D01*
X119293641Y-100330000D02*
X118986359Y-100330000D01*
X119293641Y-99570000D02*
X118986359Y-99570000D01*
X127330000Y-71006359D02*
X127330000Y-71313641D01*
X126570000Y-71006359D02*
X126570000Y-71313641D01*
X114194000Y-80831636D02*
X114194000Y-80615964D01*
X114914000Y-80831636D02*
X114914000Y-80615964D01*
X115121359Y-60495000D02*
X115428641Y-60495000D01*
X115121359Y-61255000D02*
X115428641Y-61255000D01*
X125087164Y-86765000D02*
X125302836Y-86765000D01*
X125087164Y-87485000D02*
X125302836Y-87485000D01*
X120640000Y-95255000D02*
X118965000Y-95255000D01*
X120640000Y-95255000D02*
X121290000Y-95255000D01*
X120640000Y-98375000D02*
X119990000Y-98375000D01*
X120640000Y-98375000D02*
X121290000Y-98375000D01*
X108110000Y-98475800D02*
G75*
G03*
X108110000Y-98475800I-700000J0D01*
G01*
X110768159Y-76455000D02*
X111075441Y-76455000D01*
X110768159Y-77215000D02*
X111075441Y-77215000D01*
X113847200Y-53689964D02*
X113847200Y-53905636D01*
X113127200Y-53689964D02*
X113127200Y-53905636D01*
X116373964Y-89175000D02*
X116589636Y-89175000D01*
X116373964Y-89895000D02*
X116589636Y-89895000D01*
X127600000Y-69057836D02*
X127600000Y-68842164D01*
X128320000Y-69057836D02*
X128320000Y-68842164D01*
X117980000Y-70761359D02*
X117980000Y-71068641D01*
X117220000Y-70761359D02*
X117220000Y-71068641D01*
X119447836Y-61777500D02*
X119232164Y-61777500D01*
X119447836Y-61057500D02*
X119232164Y-61057500D01*
X120811252Y-90305000D02*
X120288748Y-90305000D01*
X120811252Y-88835000D02*
X120288748Y-88835000D01*
X123446359Y-96895000D02*
X123753641Y-96895000D01*
X123446359Y-97655000D02*
X123753641Y-97655000D01*
X114935000Y-78712164D02*
X114935000Y-78927836D01*
X114215000Y-78712164D02*
X114215000Y-78927836D01*
X108150000Y-94400000D02*
G75*
G03*
X108150000Y-94400000I-700000J0D01*
G01*
X113107200Y-51641441D02*
X113107200Y-51334159D01*
X113867200Y-51641441D02*
X113867200Y-51334159D01*
X106440000Y-83250000D02*
X106440000Y-79250000D01*
X112660000Y-87250000D02*
X112660000Y-79250000D01*
X124900000Y-65757500D02*
X124900000Y-65307500D01*
X124900000Y-62537500D02*
X124900000Y-62987500D01*
X124450000Y-65757500D02*
X124900000Y-65757500D01*
X124450000Y-62537500D02*
X124900000Y-62537500D01*
X122130000Y-65757500D02*
X121680000Y-65757500D01*
X122130000Y-62537500D02*
X121680000Y-62537500D01*
X121680000Y-65757500D02*
X121680000Y-65307500D01*
X126290000Y-80327836D02*
X126290000Y-80112164D01*
X127010000Y-80327836D02*
X127010000Y-80112164D01*
X125120000Y-67660378D02*
X125120000Y-68459622D01*
X124000000Y-67660378D02*
X124000000Y-68459622D01*
X117500000Y-68960336D02*
X117500000Y-68744664D01*
X118220000Y-68960336D02*
X118220000Y-68744664D01*
X120880000Y-69016141D02*
X120880000Y-68708859D01*
X121640000Y-69016141D02*
X121640000Y-68708859D01*
X119206359Y-66992500D02*
X119513641Y-66992500D01*
X119206359Y-67752500D02*
X119513641Y-67752500D01*
X117400000Y-64825336D02*
X117400000Y-64609664D01*
X118120000Y-64825336D02*
X118120000Y-64609664D01*
X118480000Y-69036141D02*
X118480000Y-68728859D01*
X119240000Y-69036141D02*
X119240000Y-68728859D01*
X127296359Y-67080000D02*
X127603641Y-67080000D01*
X127296359Y-67840000D02*
X127603641Y-67840000D01*
X125600000Y-69047836D02*
X125600000Y-68832164D01*
X126320000Y-69047836D02*
X126320000Y-68832164D01*
X124750764Y-61132100D02*
X124966436Y-61132100D01*
X124750764Y-61852100D02*
X124966436Y-61852100D01*
X116920000Y-67535378D02*
X116920000Y-68334622D01*
X115800000Y-67535378D02*
X115800000Y-68334622D01*
X114860000Y-82492164D02*
X114860000Y-82707836D01*
X114140000Y-82492164D02*
X114140000Y-82707836D01*
X124242400Y-73850600D02*
X124242400Y-70700600D01*
X124242400Y-70700600D02*
X120242400Y-70700600D01*
X119457836Y-63007500D02*
X119242164Y-63007500D01*
X119457836Y-62287500D02*
X119242164Y-62287500D01*
X117432836Y-87485000D02*
X117217164Y-87485000D01*
X117432836Y-86765000D02*
X117217164Y-86765000D01*
X115843641Y-74710000D02*
X115536359Y-74710000D01*
X115843641Y-73950000D02*
X115536359Y-73950000D01*
X108160000Y-92350000D02*
G75*
G03*
X108160000Y-92350000I-700000J0D01*
G01*
X122847836Y-88450000D02*
X122632164Y-88450000D01*
X122847836Y-87730000D02*
X122632164Y-87730000D01*
X113867200Y-55609964D02*
X113867200Y-55825636D01*
X113147200Y-55609964D02*
X113147200Y-55825636D01*
X113183641Y-50140000D02*
X112876359Y-50140000D01*
X113183641Y-49380000D02*
X112876359Y-49380000D01*
X116920000Y-63460378D02*
X116920000Y-64259622D01*
X115800000Y-63460378D02*
X115800000Y-64259622D01*
X116000000Y-86250000D02*
X115450000Y-86250000D01*
X125750000Y-86250000D02*
X125200000Y-86250000D01*
X115450000Y-85700000D02*
X115450000Y-86250000D01*
X125750000Y-85700000D02*
X125750000Y-86250000D01*
X115450000Y-76500000D02*
X115450000Y-75950000D01*
X125750000Y-76500000D02*
X125750000Y-75950000D01*
X115450000Y-75950000D02*
X116000000Y-75950000D01*
X125750000Y-75950000D02*
X125200000Y-75950000D01*
D11*
X116900000Y-85100000D02*
G75*
G03*
X116900000Y-85100000I-300000J0D01*
G01*
D12*
X119500000Y-68980336D02*
X119500000Y-68764664D01*
X120220000Y-68980336D02*
X120220000Y-68764664D01*
X129390000Y-50880000D02*
X130720000Y-50880000D01*
X129390000Y-52210000D02*
X129390000Y-50880000D01*
X129390000Y-53480000D02*
X129390000Y-101800000D01*
X129390000Y-53480000D02*
X131990000Y-53480000D01*
X129390000Y-101800000D02*
X134590000Y-101800000D01*
X131990000Y-50880000D02*
X134590000Y-50880000D01*
X131990000Y-53480000D02*
X131990000Y-50880000D01*
X134590000Y-50880000D02*
X134590000Y-101800000D01*
X125785000Y-71642164D02*
X125785000Y-71857836D01*
X125065000Y-71642164D02*
X125065000Y-71857836D01*
X121930000Y-69001141D02*
X121930000Y-68693859D01*
X122690000Y-69001141D02*
X122690000Y-68693859D01*
X108163641Y-62400000D02*
X107856359Y-62400000D01*
X108163641Y-61640000D02*
X107856359Y-61640000D01*
X108373641Y-73530000D02*
X108066359Y-73530000D01*
X108373641Y-72770000D02*
X108066359Y-72770000D01*
X119216359Y-63497500D02*
X119523641Y-63497500D01*
X119216359Y-64257500D02*
X119523641Y-64257500D01*
X109240000Y-55602164D02*
X109240000Y-55817836D01*
X108520000Y-55602164D02*
X108520000Y-55817836D01*
X119520000Y-65555336D02*
X119520000Y-65339664D01*
X120240000Y-65555336D02*
X120240000Y-65339664D01*
X126580000Y-69103641D02*
X126580000Y-68796359D01*
X127340000Y-69103641D02*
X127340000Y-68796359D01*
D11*
X105890000Y-72180000D02*
X107840000Y-72180000D01*
X105890000Y-72180000D02*
X105890000Y-62980000D01*
X109490000Y-72180000D02*
X111790000Y-72180000D01*
X105890000Y-62980000D02*
X107840000Y-62980000D01*
X109490000Y-62980000D02*
X111790000Y-62980000D01*
D12*
X119968600Y-71365164D02*
X119968600Y-71580836D01*
X119248600Y-71365164D02*
X119248600Y-71580836D01*
X113167200Y-57725636D02*
X113167200Y-57509964D01*
X113887200Y-57725636D02*
X113887200Y-57509964D01*
X118470000Y-65521141D02*
X118470000Y-65213859D01*
X119230000Y-65521141D02*
X119230000Y-65213859D01*
X122617164Y-61165000D02*
X122832836Y-61165000D01*
X122617164Y-61885000D02*
X122832836Y-61885000D01*
X123481359Y-95470000D02*
X123788641Y-95470000D01*
X123481359Y-96230000D02*
X123788641Y-96230000D01*
X124615000Y-98120000D02*
X126085000Y-98120000D01*
X126085000Y-98120000D02*
X126085000Y-95835000D01*
X124615000Y-95835000D02*
X124615000Y-98120000D01*
X114053800Y-58668000D02*
X114053800Y-59468000D01*
X114053800Y-59468000D02*
X114853800Y-59468000D01*
X114253800Y-42668000D02*
X127453800Y-42668000D01*
X114253800Y-48068000D02*
X127453800Y-48068000D01*
X114253800Y-59268000D02*
X114253800Y-42668000D01*
X114928800Y-42468000D02*
X114078800Y-42468000D01*
X126903800Y-42468000D02*
X127653800Y-42468000D01*
X127453800Y-42668000D02*
X127453800Y-59268000D01*
X127453800Y-59268000D02*
X114253800Y-59268000D01*
X127653800Y-42468000D02*
X127653800Y-43068000D01*
X127653800Y-58668000D02*
X127653800Y-59468000D01*
X127653800Y-59468000D02*
X126853800Y-59468000D01*
X119274000Y-73463036D02*
X119274000Y-73247364D01*
X119994000Y-73463036D02*
X119994000Y-73247364D01*
X123202836Y-87485000D02*
X122987164Y-87485000D01*
X123202836Y-86765000D02*
X122987164Y-86765000D01*
X108125000Y-96418400D02*
G75*
G03*
X108125000Y-96418400I-700000J0D01*
G01*
X123023641Y-60690000D02*
X122716359Y-60690000D01*
X123023641Y-59930000D02*
X122716359Y-59930000D01*
X126970964Y-81351800D02*
X127186636Y-81351800D01*
X126970964Y-82071800D02*
X127186636Y-82071800D01*
X126250000Y-87677836D02*
X126250000Y-87462164D01*
X126970000Y-87677836D02*
X126970000Y-87462164D01*
%LPC*%
D13*
X118550000Y-107800000D03*
X118550000Y-101800000D03*
X122300000Y-107800000D03*
X122300000Y-101800000D03*
X124200000Y-107800000D03*
X124200000Y-101800000D03*
X127950000Y-107800000D03*
X127950000Y-101800000D03*
X112930000Y-107800000D03*
X112930000Y-101800000D03*
X116680000Y-107800000D03*
X116680000Y-101800000D03*
D14*
X119650000Y-99950000D03*
X118630000Y-99950000D03*
D15*
X132003800Y-105333800D03*
D16*
X126950000Y-70650000D03*
X126950000Y-71670000D03*
D17*
X114554000Y-81203800D03*
X114554000Y-80243800D03*
D18*
X114765000Y-60875000D03*
X115785000Y-60875000D03*
D19*
X124715000Y-87125000D03*
X125675000Y-87125000D03*
D20*
X119702500Y-95865000D03*
X119702500Y-97765000D03*
X121577500Y-96815000D03*
D21*
X107410000Y-98475800D03*
D18*
X110411800Y-76835000D03*
X111431800Y-76835000D03*
D22*
X113487200Y-53317800D03*
X113487200Y-54277800D03*
D19*
X116001800Y-89535000D03*
X116961800Y-89535000D03*
D17*
X127960000Y-69430000D03*
X127960000Y-68470000D03*
D16*
X117600000Y-70405000D03*
X117600000Y-71425000D03*
D23*
X119820000Y-61417500D03*
X118860000Y-61417500D03*
D24*
X121500000Y-89570000D03*
X119600000Y-89570000D03*
D18*
X123090000Y-97275000D03*
X124110000Y-97275000D03*
D22*
X114575000Y-78340000D03*
X114575000Y-79300000D03*
D21*
X107450000Y-94400000D03*
D25*
X113487200Y-51997800D03*
X113487200Y-50977800D03*
D26*
X109550000Y-83250000D03*
D27*
X107645000Y-79500000D03*
X108915000Y-79500000D03*
X110185000Y-79500000D03*
X111455000Y-79500000D03*
X111455000Y-87000000D03*
X110185000Y-87000000D03*
X108915000Y-87000000D03*
X107645000Y-87000000D03*
D28*
X123290000Y-64147500D03*
D29*
X122490000Y-62697500D03*
X122890000Y-62697500D03*
X123290000Y-62697500D03*
X123690000Y-62697500D03*
X124090000Y-62697500D03*
D30*
X124740000Y-63347500D03*
X124740000Y-63747500D03*
X124740000Y-64147500D03*
X124740000Y-64547500D03*
X124740000Y-64947500D03*
D29*
X124090000Y-65597500D03*
X123690000Y-65597500D03*
X123290000Y-65597500D03*
X122890000Y-65597500D03*
X122490000Y-65597500D03*
D30*
X121840000Y-64947500D03*
X121840000Y-64547500D03*
X121840000Y-64147500D03*
X121840000Y-63747500D03*
X121840000Y-63347500D03*
D17*
X126650000Y-80700000D03*
X126650000Y-79740000D03*
D31*
X124560000Y-66997500D03*
X124560000Y-69122500D03*
D17*
X117860000Y-69332500D03*
X117860000Y-68372500D03*
D25*
X121260000Y-69372500D03*
X121260000Y-68352500D03*
D18*
X118850000Y-67372500D03*
X119870000Y-67372500D03*
D17*
X117760000Y-65197500D03*
X117760000Y-64237500D03*
D25*
X118860000Y-69392500D03*
X118860000Y-68372500D03*
D18*
X126940000Y-67460000D03*
X127960000Y-67460000D03*
D17*
X125960000Y-69420000D03*
X125960000Y-68460000D03*
D19*
X124378600Y-61492100D03*
X125338600Y-61492100D03*
D31*
X116360000Y-66872500D03*
X116360000Y-68997500D03*
D22*
X114500000Y-82120000D03*
X114500000Y-83080000D03*
D32*
X123342400Y-71475600D03*
X121142400Y-71475600D03*
X121142400Y-73075600D03*
X123342400Y-73075600D03*
D23*
X119830000Y-62647500D03*
X118870000Y-62647500D03*
X117805000Y-87125000D03*
X116845000Y-87125000D03*
D14*
X116200000Y-74330000D03*
X115180000Y-74330000D03*
D15*
X108991400Y-105333800D03*
D21*
X107460000Y-92350000D03*
D23*
X123220000Y-88090000D03*
X122260000Y-88090000D03*
D22*
X113507200Y-55237800D03*
X113507200Y-56197800D03*
D14*
X113540000Y-49760000D03*
X112520000Y-49760000D03*
D15*
X131978400Y-47320200D03*
D31*
X116360000Y-62797500D03*
X116360000Y-64922500D03*
D33*
X116400000Y-86000000D03*
X116800000Y-86000000D03*
X117200000Y-86000000D03*
X117600000Y-86000000D03*
X118000000Y-86000000D03*
X118400000Y-86000000D03*
X118800000Y-86000000D03*
X119200000Y-86000000D03*
X119600000Y-86000000D03*
X120000000Y-86000000D03*
X120400000Y-86000000D03*
X120800000Y-86000000D03*
X121200000Y-86000000D03*
X121600000Y-86000000D03*
X122000000Y-86000000D03*
X122400000Y-86000000D03*
X122800000Y-86000000D03*
X123200000Y-86000000D03*
X123600000Y-86000000D03*
X124000000Y-86000000D03*
X124400000Y-86000000D03*
X124800000Y-86000000D03*
D34*
X125500000Y-85300000D03*
X125500000Y-84900000D03*
X125500000Y-84500000D03*
X125500000Y-84100000D03*
X125500000Y-83700000D03*
X125500000Y-83300000D03*
X125500000Y-82900000D03*
X125500000Y-82500000D03*
X125500000Y-82100000D03*
X125500000Y-81700000D03*
X125500000Y-81300000D03*
X125500000Y-80900000D03*
X125500000Y-80500000D03*
X125500000Y-80100000D03*
X125500000Y-79700000D03*
X125500000Y-79300000D03*
X125500000Y-78900000D03*
X125500000Y-78500000D03*
X125500000Y-78100000D03*
X125500000Y-77700000D03*
X125500000Y-77300000D03*
X125500000Y-76900000D03*
D33*
X124800000Y-76200000D03*
X124400000Y-76200000D03*
X124000000Y-76200000D03*
X123600000Y-76200000D03*
X123200000Y-76200000D03*
X122800000Y-76200000D03*
X122400000Y-76200000D03*
X122000000Y-76200000D03*
X121600000Y-76200000D03*
X121200000Y-76200000D03*
X120800000Y-76200000D03*
X120400000Y-76200000D03*
X120000000Y-76200000D03*
X119600000Y-76200000D03*
X119200000Y-76200000D03*
X118800000Y-76200000D03*
X118400000Y-76200000D03*
X118000000Y-76200000D03*
X117600000Y-76200000D03*
X117200000Y-76200000D03*
X116800000Y-76200000D03*
X116400000Y-76200000D03*
D34*
X115700000Y-76900000D03*
X115700000Y-77300000D03*
X115700000Y-77700000D03*
X115700000Y-78100000D03*
X115700000Y-78500000D03*
X115700000Y-78900000D03*
X115700000Y-79300000D03*
X115700000Y-79700000D03*
X115700000Y-80100000D03*
X115700000Y-80500000D03*
X115700000Y-80900000D03*
X115700000Y-81300000D03*
X115700000Y-81700000D03*
X115700000Y-82100000D03*
X115700000Y-82500000D03*
X115700000Y-82900000D03*
X115700000Y-83300000D03*
X115700000Y-83700000D03*
X115700000Y-84100000D03*
X115700000Y-84500000D03*
X115700000Y-84900000D03*
X115700000Y-85300000D03*
D35*
X120600000Y-81100000D03*
D17*
X119860000Y-69352500D03*
X119860000Y-68392500D03*
D36*
X130720000Y-52210000D03*
D37*
X133260000Y-52210000D03*
X130720000Y-54750000D03*
X133260000Y-54750000D03*
X130720000Y-57290000D03*
X133260000Y-57290000D03*
X130720000Y-59830000D03*
X133260000Y-59830000D03*
X130720000Y-62370000D03*
X133260000Y-62370000D03*
X130720000Y-64910000D03*
X133260000Y-64910000D03*
X130720000Y-67450000D03*
X133260000Y-67450000D03*
X130720000Y-69990000D03*
X133260000Y-69990000D03*
X130720000Y-72530000D03*
X133260000Y-72530000D03*
X130720000Y-75070000D03*
X133260000Y-75070000D03*
X130720000Y-77610000D03*
X133260000Y-77610000D03*
X130720000Y-80150000D03*
X133260000Y-80150000D03*
X130720000Y-82690000D03*
X133260000Y-82690000D03*
X130720000Y-85230000D03*
X133260000Y-85230000D03*
X130720000Y-87770000D03*
X133260000Y-87770000D03*
X130720000Y-90310000D03*
X133260000Y-90310000D03*
X130720000Y-92850000D03*
X133260000Y-92850000D03*
X130720000Y-95390000D03*
X133260000Y-95390000D03*
X130720000Y-97930000D03*
X133260000Y-97930000D03*
X130720000Y-100470000D03*
X133260000Y-100470000D03*
D22*
X125425000Y-71270000D03*
X125425000Y-72230000D03*
D25*
X122310000Y-69357500D03*
X122310000Y-68337500D03*
D15*
X108991400Y-47345600D03*
D14*
X108520000Y-62020000D03*
X107500000Y-62020000D03*
X108730000Y-73150000D03*
X107710000Y-73150000D03*
D18*
X118860000Y-63877500D03*
X119880000Y-63877500D03*
D22*
X108880000Y-55230000D03*
X108880000Y-56190000D03*
D17*
X119880000Y-65927500D03*
X119880000Y-64967500D03*
D25*
X126960000Y-69460000D03*
X126960000Y-68440000D03*
D38*
X108670000Y-71900000D03*
D39*
X112850000Y-71900000D03*
D38*
X108670000Y-63260000D03*
D39*
X112850000Y-63260000D03*
D40*
X113690000Y-64530000D03*
X113690000Y-65330000D03*
X113690000Y-65830000D03*
X113690000Y-66830000D03*
X113690000Y-68330000D03*
X113690000Y-69330000D03*
X113690000Y-69830000D03*
X113690000Y-70630000D03*
X113690000Y-70930000D03*
X113690000Y-70130000D03*
X113690000Y-68830000D03*
X113690000Y-67830000D03*
X113690000Y-67330000D03*
X113690000Y-66330000D03*
X113690000Y-65030000D03*
X113690000Y-64230000D03*
D41*
X112350000Y-70470000D03*
X112350000Y-64690000D03*
D22*
X119608600Y-70993000D03*
X119608600Y-71953000D03*
D17*
X113527200Y-58097800D03*
X113527200Y-57137800D03*
D25*
X118850000Y-65877500D03*
X118850000Y-64857500D03*
D19*
X122245000Y-61525000D03*
X123205000Y-61525000D03*
D18*
X123125000Y-95850000D03*
X124145000Y-95850000D03*
D42*
X125350000Y-97422500D03*
X125350000Y-95847500D03*
D43*
X114953800Y-49668000D03*
X114953800Y-50468000D03*
X114953800Y-51268000D03*
X114953800Y-52068000D03*
X114953800Y-52868000D03*
X114953800Y-53668000D03*
X114953800Y-54468000D03*
X114953800Y-55268000D03*
X114953800Y-56068000D03*
X114953800Y-56868000D03*
X114953800Y-57668000D03*
D44*
X116053800Y-58568000D03*
X116853800Y-58568000D03*
X117653800Y-58568000D03*
X118453800Y-58568000D03*
X119253800Y-58568000D03*
X120053800Y-58568000D03*
X120853800Y-58568000D03*
X121653800Y-58568000D03*
X122453800Y-58568000D03*
X123253800Y-58568000D03*
X124053800Y-58568000D03*
X124853800Y-58568000D03*
X125653800Y-58568000D03*
D43*
X126753800Y-57668000D03*
X126753800Y-56868000D03*
X126753800Y-56068000D03*
X126753800Y-55268000D03*
X126753800Y-54468000D03*
X126753800Y-53668000D03*
X126753800Y-52868000D03*
X126753800Y-52068000D03*
X126753800Y-51268000D03*
X126753800Y-50468000D03*
X126753800Y-49668000D03*
D44*
X125653800Y-48768000D03*
X124853800Y-48768000D03*
X124053800Y-48768000D03*
X123253800Y-48768000D03*
X122453800Y-48768000D03*
X121653800Y-48768000D03*
X120853800Y-48768000D03*
X120053800Y-48768000D03*
X119253800Y-48768000D03*
X118453800Y-48768000D03*
X117653800Y-48768000D03*
X116853800Y-48768000D03*
X116053800Y-48768000D03*
D45*
X118878800Y-51693000D03*
D46*
X118878800Y-53668000D03*
X118878800Y-55643000D03*
X120853800Y-51693000D03*
X120853800Y-53668000D03*
X120853800Y-55643000D03*
X122828800Y-51693000D03*
X122828800Y-53668000D03*
X122828800Y-55643000D03*
D47*
X126803800Y-48718000D03*
X126803800Y-58618000D03*
X114903800Y-58618000D03*
X114903800Y-48718000D03*
D17*
X119634000Y-73835200D03*
X119634000Y-72875200D03*
D23*
X123575000Y-87125000D03*
X122615000Y-87125000D03*
D21*
X107425000Y-96418400D03*
D14*
X123380000Y-60310000D03*
X122360000Y-60310000D03*
D19*
X126598800Y-81711800D03*
X127558800Y-81711800D03*
D17*
X126610000Y-88050000D03*
X126610000Y-87090000D03*
%LPD*%
M02*
