G04 #@! TF.GenerationSoftware,KiCad,Pcbnew,7.0.2-0*
G04 #@! TF.CreationDate,2024-01-15T08:52:18+01:00*
G04 #@! TF.ProjectId,network_player,6e657477-6f72-46b5-9f70-6c617965722e,rev?*
G04 #@! TF.SameCoordinates,Original*
G04 #@! TF.FileFunction,Copper,L1,Top*
G04 #@! TF.FilePolarity,Positive*
%FSLAX46Y46*%
G04 Gerber Fmt 4.6, Leading zero omitted, Abs format (unit mm)*
G04 Created by KiCad (PCBNEW 7.0.2-0) date 2024-01-15 08:52:18*
%MOMM*%
%LPD*%
G01*
G04 APERTURE LIST*
G04 Aperture macros list*
%AMRoundRect*
0 Rectangle with rounded corners*
0 $1 Rounding radius*
0 $2 $3 $4 $5 $6 $7 $8 $9 X,Y pos of 4 corners*
0 Add a 4 corners polygon primitive as box body*
4,1,4,$2,$3,$4,$5,$6,$7,$8,$9,$2,$3,0*
0 Add four circle primitives for the rounded corners*
1,1,$1+$1,$2,$3*
1,1,$1+$1,$4,$5*
1,1,$1+$1,$6,$7*
1,1,$1+$1,$8,$9*
0 Add four rect primitives between the rounded corners*
20,1,$1+$1,$2,$3,$4,$5,0*
20,1,$1+$1,$4,$5,$6,$7,0*
20,1,$1+$1,$6,$7,$8,$9,0*
20,1,$1+$1,$8,$9,$2,$3,0*%
%AMFreePoly0*
4,1,6,0.725000,-0.725000,-0.725000,-0.725000,-0.725000,0.125000,-0.125000,0.725000,0.725000,0.725000,0.725000,-0.725000,0.725000,-0.725000,$1*%
G04 Aperture macros list end*
G04 #@! TA.AperFunction,SMDPad,CuDef*
%ADD10RoundRect,0.050000X-0.375000X-0.050000X0.375000X-0.050000X0.375000X0.050000X-0.375000X0.050000X0*%
G04 #@! TD*
G04 #@! TA.AperFunction,SMDPad,CuDef*
%ADD11RoundRect,0.050000X-0.050000X-0.375000X0.050000X-0.375000X0.050000X0.375000X-0.050000X0.375000X0*%
G04 #@! TD*
G04 #@! TA.AperFunction,SMDPad,CuDef*
%ADD12R,1.650000X1.650000*%
G04 #@! TD*
G04 #@! TA.AperFunction,SMDPad,CuDef*
%ADD13RoundRect,0.135000X-0.185000X0.135000X-0.185000X-0.135000X0.185000X-0.135000X0.185000X0.135000X0*%
G04 #@! TD*
G04 #@! TA.AperFunction,SMDPad,CuDef*
%ADD14RoundRect,0.140000X0.170000X-0.140000X0.170000X0.140000X-0.170000X0.140000X-0.170000X-0.140000X0*%
G04 #@! TD*
G04 #@! TA.AperFunction,SMDPad,CuDef*
%ADD15RoundRect,0.135000X-0.135000X-0.185000X0.135000X-0.185000X0.135000X0.185000X-0.135000X0.185000X0*%
G04 #@! TD*
G04 #@! TA.AperFunction,SMDPad,CuDef*
%ADD16RoundRect,0.140000X-0.140000X-0.170000X0.140000X-0.170000X0.140000X0.170000X-0.140000X0.170000X0*%
G04 #@! TD*
G04 #@! TA.AperFunction,SMDPad,CuDef*
%ADD17RoundRect,0.150000X-0.587500X-0.150000X0.587500X-0.150000X0.587500X0.150000X-0.587500X0.150000X0*%
G04 #@! TD*
G04 #@! TA.AperFunction,SMDPad,CuDef*
%ADD18C,1.000000*%
G04 #@! TD*
G04 #@! TA.AperFunction,SMDPad,CuDef*
%ADD19RoundRect,0.140000X-0.170000X0.140000X-0.170000X-0.140000X0.170000X-0.140000X0.170000X0.140000X0*%
G04 #@! TD*
G04 #@! TA.AperFunction,SMDPad,CuDef*
%ADD20RoundRect,0.150000X0.150000X-0.587500X0.150000X0.587500X-0.150000X0.587500X-0.150000X-0.587500X0*%
G04 #@! TD*
G04 #@! TA.AperFunction,SMDPad,CuDef*
%ADD21RoundRect,0.140000X0.140000X0.170000X-0.140000X0.170000X-0.140000X-0.170000X0.140000X-0.170000X0*%
G04 #@! TD*
G04 #@! TA.AperFunction,SMDPad,CuDef*
%ADD22RoundRect,0.250000X0.250000X0.475000X-0.250000X0.475000X-0.250000X-0.475000X0.250000X-0.475000X0*%
G04 #@! TD*
G04 #@! TA.AperFunction,SMDPad,CuDef*
%ADD23RoundRect,0.135000X0.185000X-0.135000X0.185000X0.135000X-0.185000X0.135000X-0.185000X-0.135000X0*%
G04 #@! TD*
G04 #@! TA.AperFunction,SMDPad,CuDef*
%ADD24RoundRect,0.125000X0.125000X-0.200000X0.125000X0.200000X-0.125000X0.200000X-0.125000X-0.200000X0*%
G04 #@! TD*
G04 #@! TA.AperFunction,SMDPad,CuDef*
%ADD25R,4.300000X3.400000*%
G04 #@! TD*
G04 #@! TA.AperFunction,SMDPad,CuDef*
%ADD26RoundRect,0.218750X-0.381250X0.218750X-0.381250X-0.218750X0.381250X-0.218750X0.381250X0.218750X0*%
G04 #@! TD*
G04 #@! TA.AperFunction,SMDPad,CuDef*
%ADD27R,1.400000X1.150000*%
G04 #@! TD*
G04 #@! TA.AperFunction,SMDPad,CuDef*
%ADD28RoundRect,0.135000X0.135000X0.185000X-0.135000X0.185000X-0.135000X-0.185000X0.135000X-0.185000X0*%
G04 #@! TD*
G04 #@! TA.AperFunction,SMDPad,CuDef*
%ADD29R,0.750000X1.000000*%
G04 #@! TD*
G04 #@! TA.AperFunction,SMDPad,CuDef*
%ADD30O,0.200000X0.800000*%
G04 #@! TD*
G04 #@! TA.AperFunction,SMDPad,CuDef*
%ADD31O,0.800000X0.200000*%
G04 #@! TD*
G04 #@! TA.AperFunction,SMDPad,CuDef*
%ADD32R,6.840000X6.840000*%
G04 #@! TD*
G04 #@! TA.AperFunction,ComponentPad*
%ADD33R,1.700000X1.700000*%
G04 #@! TD*
G04 #@! TA.AperFunction,ComponentPad*
%ADD34O,1.700000X1.700000*%
G04 #@! TD*
G04 #@! TA.AperFunction,ComponentPad*
%ADD35C,0.650000*%
G04 #@! TD*
G04 #@! TA.AperFunction,SMDPad,CuDef*
%ADD36R,1.750000X0.300000*%
G04 #@! TD*
G04 #@! TA.AperFunction,ComponentPad*
%ADD37O,2.100000X0.900000*%
G04 #@! TD*
G04 #@! TA.AperFunction,ComponentPad*
%ADD38O,1.600000X1.000000*%
G04 #@! TD*
G04 #@! TA.AperFunction,SMDPad,CuDef*
%ADD39RoundRect,0.218750X0.256250X-0.218750X0.256250X0.218750X-0.256250X0.218750X-0.256250X-0.218750X0*%
G04 #@! TD*
G04 #@! TA.AperFunction,SMDPad,CuDef*
%ADD40R,0.800000X0.400000*%
G04 #@! TD*
G04 #@! TA.AperFunction,SMDPad,CuDef*
%ADD41R,0.400000X0.800000*%
G04 #@! TD*
G04 #@! TA.AperFunction,SMDPad,CuDef*
%ADD42FreePoly0,0.000000*%
G04 #@! TD*
G04 #@! TA.AperFunction,SMDPad,CuDef*
%ADD43R,1.450000X1.450000*%
G04 #@! TD*
G04 #@! TA.AperFunction,SMDPad,CuDef*
%ADD44R,0.700000X0.700000*%
G04 #@! TD*
G04 #@! TA.AperFunction,ViaPad*
%ADD45C,0.685800*%
G04 #@! TD*
G04 #@! TA.AperFunction,Conductor*
%ADD46C,0.127000*%
G04 #@! TD*
G04 #@! TA.AperFunction,Conductor*
%ADD47C,0.152400*%
G04 #@! TD*
G04 APERTURE END LIST*
D10*
X121840000Y-63347500D03*
X121840000Y-63747500D03*
X121840000Y-64147500D03*
X121840000Y-64547500D03*
X121840000Y-64947500D03*
D11*
X122490000Y-65597500D03*
X122890000Y-65597500D03*
X123290000Y-65597500D03*
X123690000Y-65597500D03*
X124090000Y-65597500D03*
D10*
X124740000Y-64947500D03*
X124740000Y-64547500D03*
X124740000Y-64147500D03*
X124740000Y-63747500D03*
X124740000Y-63347500D03*
D11*
X124090000Y-62697500D03*
X123690000Y-62697500D03*
X123290000Y-62697500D03*
X122890000Y-62697500D03*
X122490000Y-62697500D03*
D12*
X123290000Y-64147500D03*
D13*
X126950000Y-70650000D03*
X126950000Y-71670000D03*
D14*
X114554000Y-81203800D03*
X114554000Y-80243800D03*
D15*
X114765000Y-60875000D03*
X115785000Y-60875000D03*
D16*
X124715000Y-87125000D03*
X125675000Y-87125000D03*
D17*
X119702500Y-95865000D03*
X119702500Y-97765000D03*
X121577500Y-96815000D03*
D18*
X107410000Y-98475800D03*
D15*
X110411800Y-76835000D03*
X111431800Y-76835000D03*
D19*
X113487200Y-53317800D03*
X113487200Y-54277800D03*
D16*
X116001800Y-89535000D03*
X116961800Y-89535000D03*
D14*
X127960000Y-69430000D03*
X127960000Y-68470000D03*
D20*
X110310000Y-57610000D03*
X112210000Y-57610000D03*
X111260000Y-55735000D03*
D13*
X117600000Y-70405000D03*
X117600000Y-71425000D03*
D21*
X119820000Y-61417500D03*
X118860000Y-61417500D03*
D22*
X121500000Y-89570000D03*
X119600000Y-89570000D03*
D15*
X123090000Y-97275000D03*
X124110000Y-97275000D03*
D19*
X114575000Y-78340000D03*
X114575000Y-79300000D03*
D18*
X107450000Y-94400000D03*
D23*
X113487200Y-51997800D03*
X113487200Y-50977800D03*
D24*
X107645000Y-87000000D03*
X108915000Y-87000000D03*
X110185000Y-87000000D03*
X111455000Y-87000000D03*
X111455000Y-79500000D03*
X110185000Y-79500000D03*
X108915000Y-79500000D03*
X107645000Y-79500000D03*
D25*
X109550000Y-83250000D03*
D14*
X126650000Y-80700000D03*
X126650000Y-79740000D03*
D26*
X124560000Y-66997500D03*
X124560000Y-69122500D03*
D14*
X117860000Y-69332500D03*
X117860000Y-68372500D03*
D23*
X121260000Y-69372500D03*
X121260000Y-68352500D03*
D15*
X118850000Y-67372500D03*
X119870000Y-67372500D03*
D14*
X117760000Y-65197500D03*
X117760000Y-64237500D03*
D23*
X118860000Y-69392500D03*
X118860000Y-68372500D03*
D15*
X126940000Y-67460000D03*
X127960000Y-67460000D03*
D14*
X125960000Y-69420000D03*
X125960000Y-68460000D03*
D20*
X110280000Y-53457500D03*
X112180000Y-53457500D03*
X111230000Y-51582500D03*
D16*
X124378600Y-61492100D03*
X125338600Y-61492100D03*
D26*
X116360000Y-66872500D03*
X116360000Y-68997500D03*
D19*
X114500000Y-82120000D03*
X114500000Y-83080000D03*
D27*
X123342400Y-71475600D03*
X121142400Y-71475600D03*
X121142400Y-73075600D03*
X123342400Y-73075600D03*
D21*
X119830000Y-62647500D03*
X118870000Y-62647500D03*
X117805000Y-87125000D03*
X116845000Y-87125000D03*
D28*
X116200000Y-74330000D03*
X115180000Y-74330000D03*
D18*
X107460000Y-92350000D03*
D21*
X123220000Y-88090000D03*
X122260000Y-88090000D03*
D19*
X113507200Y-55237800D03*
X113507200Y-56197800D03*
D28*
X107670000Y-51510000D03*
X106650000Y-51510000D03*
D29*
X118550000Y-107800000D03*
X118550000Y-101800000D03*
X122300000Y-107800000D03*
X122300000Y-101800000D03*
D26*
X116360000Y-62797500D03*
X116360000Y-64922500D03*
D30*
X116400000Y-86000000D03*
X116800000Y-86000000D03*
X117200000Y-86000000D03*
X117600000Y-86000000D03*
X118000000Y-86000000D03*
X118400000Y-86000000D03*
X118800000Y-86000000D03*
X119200000Y-86000000D03*
X119600000Y-86000000D03*
X120000000Y-86000000D03*
X120400000Y-86000000D03*
X120800000Y-86000000D03*
X121200000Y-86000000D03*
X121600000Y-86000000D03*
X122000000Y-86000000D03*
X122400000Y-86000000D03*
X122800000Y-86000000D03*
X123200000Y-86000000D03*
X123600000Y-86000000D03*
X124000000Y-86000000D03*
X124400000Y-86000000D03*
X124800000Y-86000000D03*
D31*
X125500000Y-85300000D03*
X125500000Y-84900000D03*
X125500000Y-84500000D03*
X125500000Y-84100000D03*
X125500000Y-83700000D03*
X125500000Y-83300000D03*
X125500000Y-82900000D03*
X125500000Y-82500000D03*
X125500000Y-82100000D03*
X125500000Y-81700000D03*
X125500000Y-81300000D03*
X125500000Y-80900000D03*
X125500000Y-80500000D03*
X125500000Y-80100000D03*
X125500000Y-79700000D03*
X125500000Y-79300000D03*
X125500000Y-78900000D03*
X125500000Y-78500000D03*
X125500000Y-78100000D03*
X125500000Y-77700000D03*
X125500000Y-77300000D03*
X125500000Y-76900000D03*
D30*
X124800000Y-76200000D03*
X124400000Y-76200000D03*
X124000000Y-76200000D03*
X123600000Y-76200000D03*
X123200000Y-76200000D03*
X122800000Y-76200000D03*
X122400000Y-76200000D03*
X122000000Y-76200000D03*
X121600000Y-76200000D03*
X121200000Y-76200000D03*
X120800000Y-76200000D03*
X120400000Y-76200000D03*
X120000000Y-76200000D03*
X119600000Y-76200000D03*
X119200000Y-76200000D03*
X118800000Y-76200000D03*
X118400000Y-76200000D03*
X118000000Y-76200000D03*
X117600000Y-76200000D03*
X117200000Y-76200000D03*
X116800000Y-76200000D03*
X116400000Y-76200000D03*
D31*
X115700000Y-76900000D03*
X115700000Y-77300000D03*
X115700000Y-77700000D03*
X115700000Y-78100000D03*
X115700000Y-78500000D03*
X115700000Y-78900000D03*
X115700000Y-79300000D03*
X115700000Y-79700000D03*
X115700000Y-80100000D03*
X115700000Y-80500000D03*
X115700000Y-80900000D03*
X115700000Y-81300000D03*
X115700000Y-81700000D03*
X115700000Y-82100000D03*
X115700000Y-82500000D03*
X115700000Y-82900000D03*
X115700000Y-83300000D03*
X115700000Y-83700000D03*
X115700000Y-84100000D03*
X115700000Y-84500000D03*
X115700000Y-84900000D03*
X115700000Y-85300000D03*
D32*
X120600000Y-81100000D03*
D29*
X124200000Y-107800000D03*
X124200000Y-101800000D03*
X127950000Y-107800000D03*
X127950000Y-101800000D03*
D14*
X119860000Y-69352500D03*
X119860000Y-68392500D03*
D33*
X130720000Y-52210000D03*
D34*
X133260000Y-52210000D03*
X130720000Y-54750000D03*
X133260000Y-54750000D03*
X130720000Y-57290000D03*
X133260000Y-57290000D03*
X130720000Y-59830000D03*
X133260000Y-59830000D03*
X130720000Y-62370000D03*
X133260000Y-62370000D03*
X130720000Y-64910000D03*
X133260000Y-64910000D03*
X130720000Y-67450000D03*
X133260000Y-67450000D03*
X130720000Y-69990000D03*
X133260000Y-69990000D03*
X130720000Y-72530000D03*
X133260000Y-72530000D03*
X130720000Y-75070000D03*
X133260000Y-75070000D03*
X130720000Y-77610000D03*
X133260000Y-77610000D03*
X130720000Y-80150000D03*
X133260000Y-80150000D03*
X130720000Y-82690000D03*
X133260000Y-82690000D03*
X130720000Y-85230000D03*
X133260000Y-85230000D03*
X130720000Y-87770000D03*
X133260000Y-87770000D03*
X130720000Y-90310000D03*
X133260000Y-90310000D03*
X130720000Y-92850000D03*
X133260000Y-92850000D03*
X130720000Y-95390000D03*
X133260000Y-95390000D03*
X130720000Y-97930000D03*
X133260000Y-97930000D03*
X130720000Y-100470000D03*
X133260000Y-100470000D03*
D19*
X125425000Y-71270000D03*
X125425000Y-72230000D03*
D23*
X122310000Y-69357500D03*
X122310000Y-68337500D03*
D28*
X108520000Y-62020000D03*
X107500000Y-62020000D03*
D29*
X112930000Y-107800000D03*
X112930000Y-101800000D03*
X116680000Y-107800000D03*
X116680000Y-101800000D03*
D28*
X108730000Y-73150000D03*
X107710000Y-73150000D03*
D13*
X108970000Y-57370000D03*
X108970000Y-58390000D03*
D15*
X118860000Y-63877500D03*
X119880000Y-63877500D03*
D19*
X108880000Y-55230000D03*
X108880000Y-56190000D03*
D15*
X106650000Y-52500000D03*
X107670000Y-52500000D03*
D14*
X119880000Y-65927500D03*
X119880000Y-64967500D03*
D23*
X126960000Y-69460000D03*
X126960000Y-68440000D03*
D35*
X112350000Y-64690000D03*
X112350000Y-70470000D03*
D36*
X113690000Y-64230000D03*
X113690000Y-65030000D03*
X113690000Y-66330000D03*
X113690000Y-67330000D03*
X113690000Y-67830000D03*
X113690000Y-68830000D03*
X113690000Y-70130000D03*
X113690000Y-70930000D03*
X113690000Y-70630000D03*
X113690000Y-69830000D03*
X113690000Y-69330000D03*
X113690000Y-68330000D03*
X113690000Y-66830000D03*
X113690000Y-65830000D03*
X113690000Y-65330000D03*
X113690000Y-64530000D03*
D37*
X112850000Y-63260000D03*
D38*
X108670000Y-63260000D03*
D37*
X112850000Y-71900000D03*
D38*
X108670000Y-71900000D03*
D19*
X119608600Y-70993000D03*
X119608600Y-71953000D03*
D14*
X113527200Y-58097800D03*
X113527200Y-57137800D03*
D23*
X118850000Y-65877500D03*
X118850000Y-64857500D03*
D16*
X122245000Y-61525000D03*
X123205000Y-61525000D03*
D15*
X123125000Y-95850000D03*
X124145000Y-95850000D03*
D39*
X125350000Y-97422500D03*
X125350000Y-95847500D03*
D23*
X108910000Y-54040000D03*
X108910000Y-53020000D03*
D40*
X114953800Y-49668000D03*
X114953800Y-50468000D03*
X114953800Y-51268000D03*
X114953800Y-52068000D03*
X114953800Y-52868000D03*
X114953800Y-53668000D03*
X114953800Y-54468000D03*
X114953800Y-55268000D03*
X114953800Y-56068000D03*
X114953800Y-56868000D03*
X114953800Y-57668000D03*
D41*
X116053800Y-58568000D03*
X116853800Y-58568000D03*
X117653800Y-58568000D03*
X118453800Y-58568000D03*
X119253800Y-58568000D03*
X120053800Y-58568000D03*
X120853800Y-58568000D03*
X121653800Y-58568000D03*
X122453800Y-58568000D03*
X123253800Y-58568000D03*
X124053800Y-58568000D03*
X124853800Y-58568000D03*
X125653800Y-58568000D03*
D40*
X126753800Y-57668000D03*
X126753800Y-56868000D03*
X126753800Y-56068000D03*
X126753800Y-55268000D03*
X126753800Y-54468000D03*
X126753800Y-53668000D03*
X126753800Y-52868000D03*
X126753800Y-52068000D03*
X126753800Y-51268000D03*
X126753800Y-50468000D03*
X126753800Y-49668000D03*
D41*
X125653800Y-48768000D03*
X124853800Y-48768000D03*
X124053800Y-48768000D03*
X123253800Y-48768000D03*
X122453800Y-48768000D03*
X121653800Y-48768000D03*
X120853800Y-48768000D03*
X120053800Y-48768000D03*
X119253800Y-48768000D03*
X118453800Y-48768000D03*
X117653800Y-48768000D03*
X116853800Y-48768000D03*
X116053800Y-48768000D03*
D42*
X118878800Y-51693000D03*
D43*
X118878800Y-53668000D03*
X118878800Y-55643000D03*
X120853800Y-51693000D03*
X120853800Y-53668000D03*
X120853800Y-55643000D03*
X122828800Y-51693000D03*
X122828800Y-53668000D03*
X122828800Y-55643000D03*
D44*
X126803800Y-48718000D03*
X126803800Y-58618000D03*
X114903800Y-58618000D03*
X114903800Y-48718000D03*
D14*
X119634000Y-73835200D03*
X119634000Y-72875200D03*
D21*
X123575000Y-87125000D03*
X122615000Y-87125000D03*
D18*
X107425000Y-96418400D03*
D16*
X126598800Y-81711800D03*
X127558800Y-81711800D03*
D14*
X126610000Y-88050000D03*
X126610000Y-87090000D03*
D45*
X112025000Y-65575000D03*
X112025000Y-69725000D03*
X125925000Y-60000000D03*
X124950000Y-65875000D03*
X120025000Y-60475000D03*
X124741932Y-62491932D03*
X107425000Y-90850000D03*
X126875000Y-74300000D03*
X116080000Y-87140000D03*
X118450000Y-71100000D03*
X113639600Y-79375000D03*
X107880000Y-77220000D03*
X124158535Y-91255100D03*
X118390000Y-89550000D03*
X114450000Y-84000000D03*
X116636800Y-79700000D03*
X123399500Y-68550000D03*
X106590000Y-75800000D03*
X117640000Y-59740000D03*
X120775000Y-90775000D03*
X127630000Y-87070000D03*
X118050000Y-61449900D03*
X115925000Y-51275000D03*
X112425000Y-55625000D03*
X117691418Y-87997782D03*
X124531885Y-77053917D03*
X112302100Y-83455700D03*
X127810000Y-72530000D03*
X109067600Y-76911200D03*
X114850000Y-89275000D03*
X122748600Y-89570000D03*
X124150000Y-94925000D03*
X115734198Y-76240802D03*
X116179932Y-73350000D03*
X124510800Y-80848200D03*
X116225500Y-70625000D03*
X116687600Y-82092800D03*
X114750000Y-61900000D03*
X110884082Y-75609082D03*
X108675000Y-98475800D03*
X113625000Y-78325000D03*
X124212226Y-74731126D03*
X123400000Y-74720000D03*
X125946600Y-67538747D03*
X126075000Y-65925000D03*
X117825000Y-66900000D03*
X123399500Y-66875000D03*
X123399500Y-69362303D03*
X128325000Y-82950000D03*
X114270000Y-74320000D03*
X116547852Y-77055162D03*
X128010000Y-100010000D03*
X118631365Y-74185626D03*
X118450000Y-76956600D03*
X126660000Y-82940000D03*
X116730000Y-52870000D03*
X115930000Y-53670000D03*
X126610000Y-85320000D03*
X124675220Y-83920960D03*
X119250000Y-57450000D03*
X124425000Y-84825000D03*
X120850000Y-57525000D03*
X122440000Y-59930000D03*
X124630000Y-82500000D03*
X123251732Y-59899560D03*
X126620000Y-84010000D03*
X119450000Y-92550000D03*
X107189500Y-53206865D03*
X127429400Y-79705200D03*
X125510000Y-74230000D03*
X125500000Y-75080000D03*
X107660000Y-50307100D03*
X118340001Y-84989402D03*
X124841000Y-59969400D03*
X119325000Y-101775000D03*
X119475000Y-107825000D03*
X112050000Y-51900000D03*
X119152297Y-84992602D03*
X128850000Y-53690000D03*
X119964593Y-84989402D03*
X121200000Y-87000000D03*
X119700000Y-95000000D03*
X114480793Y-76280364D03*
X112027383Y-68150665D03*
X113816253Y-76944904D03*
X112027383Y-67210865D03*
X110290000Y-51950000D03*
X108850000Y-50840000D03*
X107852213Y-56307787D03*
X108336865Y-52059500D03*
X110630000Y-54690000D03*
X111400000Y-57670000D03*
X118541800Y-93319600D03*
X126089082Y-94052718D03*
X128538868Y-93816600D03*
X122504200Y-85013800D03*
X120688941Y-74568906D03*
X120453487Y-87328351D03*
X116637300Y-81050000D03*
X128036780Y-76794657D03*
X127401412Y-78080844D03*
X128892600Y-86094623D03*
X119600000Y-76956600D03*
X119870774Y-74617191D03*
X121110176Y-75265107D03*
X121150000Y-76956600D03*
X121405401Y-74186126D03*
X120776896Y-84989402D03*
D46*
X119880000Y-63877500D02*
X120779092Y-63877500D01*
X120779092Y-63877500D02*
X121309092Y-63347500D01*
X121309092Y-63347500D02*
X121840000Y-63347500D01*
X121840000Y-63747500D02*
X121323602Y-63747500D01*
X121323602Y-63747500D02*
X120380500Y-64690602D01*
X120380500Y-64690602D02*
X120380500Y-65244398D01*
X120380500Y-65244398D02*
X120186898Y-65438000D01*
X120186898Y-65438000D02*
X119430500Y-65438000D01*
X119430500Y-65438000D02*
X118850000Y-64857500D01*
X121840000Y-63347500D02*
X122490000Y-63347500D01*
X122490000Y-63347500D02*
X123290000Y-64147500D01*
X124740000Y-64547500D02*
X124340000Y-64147500D01*
X124340000Y-64147500D02*
X123290000Y-64147500D01*
X118850000Y-67372500D02*
X119360500Y-66862000D01*
X119360500Y-66862000D02*
X119848000Y-66862000D01*
X119848000Y-66862000D02*
X121224500Y-65485500D01*
X121224500Y-65485500D02*
X121224500Y-64397882D01*
X121224500Y-64397882D02*
X121474882Y-64147500D01*
X121474882Y-64147500D02*
X121840000Y-64147500D01*
X124740000Y-63347500D02*
X124090000Y-63347500D01*
X124090000Y-63347500D02*
X123290000Y-64147500D01*
X123690000Y-62697500D02*
X123690000Y-63747500D01*
X123205000Y-61525000D02*
X123690000Y-62010000D01*
X123690000Y-62010000D02*
X123690000Y-62697500D01*
X124740000Y-63347500D02*
X125338600Y-62748900D01*
X125338600Y-62748900D02*
X125338600Y-61492100D01*
X124090000Y-65597500D02*
X124672500Y-65597500D01*
X124672500Y-65597500D02*
X124950000Y-65875000D01*
X122890000Y-65597500D02*
X122890000Y-66003408D01*
X122890000Y-66003408D02*
X123228192Y-66341600D01*
X123228192Y-66341600D02*
X124483400Y-66341600D01*
X124483400Y-66341600D02*
X124950000Y-65875000D01*
X123399500Y-66875000D02*
X123399500Y-66872118D01*
X123399500Y-66872118D02*
X122490000Y-65962618D01*
X122490000Y-65962618D02*
X122490000Y-65597500D01*
X107460000Y-92350000D02*
X107460000Y-90885000D01*
X113690000Y-65330000D02*
X112270000Y-65330000D01*
X124432900Y-61492100D02*
X125925000Y-60000000D01*
X122245000Y-61525000D02*
X122840000Y-62120000D01*
X124190000Y-62697500D02*
X124536364Y-62697500D01*
X124378600Y-62508900D02*
X124378600Y-61492100D01*
X112560000Y-69725000D02*
X112025000Y-69725000D01*
X124536364Y-62697500D02*
X124741932Y-62491932D01*
X124190000Y-62697500D02*
X124378600Y-62508900D01*
X133260000Y-52210000D02*
X133260000Y-54750000D01*
X120025000Y-60475000D02*
X120025000Y-61212500D01*
X112270000Y-65330000D02*
X112025000Y-65575000D01*
X119820000Y-61417500D02*
X122137500Y-61417500D01*
X122245000Y-61525000D02*
X122745500Y-61024500D01*
X122745500Y-61024500D02*
X123911000Y-61024500D01*
X112965000Y-70130000D02*
X112560000Y-69725000D01*
X122840000Y-62120000D02*
X122840000Y-62697500D01*
X123911000Y-61024500D02*
X124378600Y-61492100D01*
X107460000Y-90885000D02*
X107425000Y-90850000D01*
X119820000Y-61417500D02*
X119820000Y-62637500D01*
X113527200Y-57137800D02*
X114057400Y-57668000D01*
X107900684Y-87515500D02*
X107389316Y-87515500D01*
X127960000Y-67460000D02*
X127960000Y-68470000D01*
X119374202Y-70450000D02*
X123975000Y-70450000D01*
X117370500Y-102490500D02*
X121609500Y-102490500D01*
X111518400Y-66108400D02*
X108670000Y-63260000D01*
X123975000Y-70450000D02*
X124232900Y-70707900D01*
X124182298Y-91255100D02*
X124158535Y-91255100D01*
X116680000Y-101800000D02*
X117370500Y-102490500D01*
X117653800Y-58568000D02*
X117653800Y-56868000D01*
X112720000Y-71900000D02*
X108670000Y-71900000D01*
X120853800Y-51693000D02*
X120853800Y-53668000D01*
X129726600Y-99476600D02*
X130720000Y-100470000D01*
X107500000Y-62020000D02*
X108010500Y-61509500D01*
X108220500Y-73660500D02*
X109864500Y-73660500D01*
X123300000Y-67877000D02*
X124493267Y-67877000D01*
X112524342Y-65830000D02*
X112245942Y-66108400D01*
X120853800Y-53668000D02*
X122828800Y-53668000D01*
X119608600Y-71953000D02*
X119108100Y-71452500D01*
X124200000Y-107800000D02*
X122300000Y-107800000D01*
X116731658Y-71885500D02*
X115315500Y-70469342D01*
X120775000Y-90745000D02*
X120775000Y-90775000D01*
X126875000Y-74300000D02*
X126875000Y-73497398D01*
X114692000Y-70630000D02*
X114755500Y-70566500D01*
X121609500Y-107109500D02*
X122300000Y-107800000D01*
X124487800Y-73075600D02*
X124866400Y-73454200D01*
X124200000Y-101800000D02*
X126523400Y-99476600D01*
X120853800Y-51693000D02*
X120853800Y-48768000D01*
X121799500Y-68067673D02*
X121990173Y-67877000D01*
X119880000Y-63877500D02*
X119880000Y-64967500D01*
X119600000Y-89570000D02*
X122045000Y-87125000D01*
X117653800Y-56868000D02*
X118878800Y-55643000D01*
X121840000Y-65047500D02*
X121840000Y-64597500D01*
X127575000Y-87125000D02*
X127630000Y-87070000D01*
X126875000Y-73497398D02*
X124232900Y-70855298D01*
X115700000Y-79700000D02*
X119200000Y-79700000D01*
X122473660Y-69974167D02*
X122340827Y-70107000D01*
X113714600Y-79300000D02*
X113639600Y-79375000D01*
X116680000Y-107800000D02*
X117370500Y-107109500D01*
X118755600Y-71100000D02*
X119608600Y-71953000D01*
X124232900Y-70855298D02*
X124232900Y-69974167D01*
X118450000Y-71100000D02*
X118755600Y-71100000D01*
X114554000Y-80243800D02*
X114554000Y-79321000D01*
X106950500Y-87076684D02*
X106950500Y-78149500D01*
X124579400Y-73075600D02*
X123342400Y-73075600D01*
X122300000Y-101800000D02*
X122300000Y-107800000D01*
X114500000Y-83080000D02*
X114500000Y-83950000D01*
X111099500Y-61509500D02*
X112850000Y-63260000D01*
X125338600Y-61492100D02*
X126803800Y-60026900D01*
X126803800Y-58618000D02*
X123828800Y-55643000D01*
X130720000Y-62370000D02*
X127960000Y-65130000D01*
X111455000Y-87000000D02*
X109550000Y-85095000D01*
X116680000Y-107800000D02*
X116680000Y-101800000D01*
X127630000Y-87807398D02*
X124182298Y-91255100D01*
X114500000Y-83950000D02*
X114450000Y-84000000D01*
X119600000Y-89570000D02*
X120775000Y-90745000D01*
X114057400Y-57668000D02*
X114953800Y-57668000D01*
X113690000Y-70630000D02*
X114692000Y-70630000D01*
X126523400Y-99476600D02*
X129726600Y-99476600D01*
X119698327Y-70107000D02*
X117919827Y-71885500D01*
X118860000Y-61417500D02*
X118082400Y-61417500D01*
X121260000Y-68352500D02*
X121672500Y-68352500D01*
X119860000Y-68392500D02*
X119860000Y-67382500D01*
X122340827Y-70107000D02*
X119698327Y-70107000D01*
X123300000Y-67877000D02*
X123300000Y-68450500D01*
X126610000Y-87090000D02*
X125710000Y-87090000D01*
X129741800Y-81711800D02*
X130720000Y-82690000D01*
X121990173Y-67877000D02*
X123300000Y-67877000D01*
X114755500Y-70566500D02*
X114755500Y-68989500D01*
X114755500Y-68989500D02*
X114596000Y-68830000D01*
X127630000Y-87070000D02*
X127630000Y-87807398D01*
X118878800Y-53668000D02*
X118878800Y-51693000D01*
X122615000Y-87735000D02*
X122260000Y-88090000D01*
X121840000Y-64597500D02*
X122840000Y-64597500D01*
X125565767Y-68949500D02*
X127480500Y-68949500D01*
X120853800Y-53668000D02*
X120853800Y-55643000D01*
X114450000Y-85510000D02*
X114450000Y-84000000D01*
X119702500Y-97765000D02*
X116680000Y-100787500D01*
X126610000Y-87090000D02*
X127610000Y-87090000D01*
X123342400Y-73075600D02*
X124487800Y-73075600D01*
X112432000Y-48718000D02*
X114903800Y-48718000D01*
X108621290Y-57830500D02*
X106840000Y-56049210D01*
X119860000Y-68392500D02*
X121220000Y-68392500D01*
X127610000Y-87090000D02*
X127630000Y-87070000D01*
X113527200Y-56207200D02*
X113527200Y-57137800D01*
X116095000Y-87125000D02*
X116080000Y-87140000D01*
X116080000Y-87140000D02*
X114450000Y-85510000D01*
X108085500Y-87330684D02*
X107900684Y-87515500D01*
X115527500Y-54077500D02*
X115653400Y-54203400D01*
X113690000Y-71060000D02*
X112850000Y-71900000D01*
X114903800Y-48718000D02*
X114903800Y-50418000D01*
X121799500Y-68225500D02*
X121799500Y-68067673D01*
X118878800Y-55643000D02*
X118878800Y-53668000D01*
X122828800Y-51693000D02*
X120853800Y-51693000D01*
X113690000Y-70930000D02*
X112720000Y-71900000D01*
X108880000Y-56190000D02*
X109480500Y-56790500D01*
X113690000Y-64100000D02*
X112850000Y-63260000D01*
X109289827Y-57830500D02*
X108621290Y-57830500D01*
X115653400Y-54203400D02*
X118343400Y-54203400D01*
X118390000Y-89550000D02*
X119580000Y-89550000D01*
X106840000Y-54310000D02*
X112432000Y-48718000D01*
X112245942Y-66108400D02*
X111518400Y-66108400D01*
X124232900Y-70707900D02*
X124232900Y-72185100D01*
X109480500Y-56790500D02*
X109480500Y-57639827D01*
X117640000Y-59740000D02*
X117640000Y-58581800D01*
X119108100Y-71452500D02*
X119108100Y-70716102D01*
X109864500Y-73660500D02*
X111625000Y-71900000D01*
X117919827Y-71885500D02*
X116731658Y-71885500D01*
X121840000Y-64597500D02*
X121840000Y-65402500D01*
X127480500Y-68949500D02*
X127960000Y-68470000D01*
X121672500Y-68352500D02*
X121799500Y-68225500D01*
X118870000Y-62647500D02*
X118870000Y-61427500D01*
X113690000Y-64530000D02*
X113690000Y-64100000D01*
X125675000Y-87125000D02*
X127575000Y-87125000D01*
X114953800Y-57668000D02*
X114953800Y-58568000D01*
X114575000Y-79300000D02*
X113714600Y-79300000D01*
X124200000Y-101800000D02*
X124200000Y-107800000D01*
X122615000Y-87125000D02*
X122045000Y-87125000D01*
X127558800Y-81711800D02*
X129741800Y-81711800D01*
X121609500Y-102490500D02*
X122300000Y-101800000D01*
X125425000Y-72230000D02*
X124579400Y-73075600D01*
X107710000Y-73150000D02*
X108220500Y-73660500D01*
X124232900Y-72185100D02*
X123342400Y-73075600D01*
X113690000Y-70930000D02*
X113690000Y-71060000D01*
X116139673Y-59740000D02*
X117640000Y-59740000D01*
X118800000Y-82900000D02*
X115700000Y-82900000D01*
X123300000Y-68450500D02*
X123399500Y-68550000D01*
X116845000Y-87125000D02*
X116095000Y-87125000D01*
X124232900Y-69974167D02*
X122473660Y-69974167D01*
X106840000Y-56049210D02*
X106840000Y-54310000D01*
X113687500Y-54077500D02*
X115527500Y-54077500D01*
X118082400Y-61417500D02*
X118050000Y-61449900D01*
X121840000Y-65402500D02*
X119870000Y-67372500D01*
X111625000Y-71900000D02*
X112850000Y-71900000D01*
X120853800Y-55643000D02*
X118878800Y-55643000D01*
X108085500Y-84714500D02*
X108085500Y-87330684D01*
X116680000Y-100787500D02*
X116680000Y-101800000D01*
X117640000Y-59740000D02*
X116025800Y-59740000D01*
X109480500Y-57639827D02*
X109289827Y-57830500D01*
X122300000Y-101800000D02*
X124200000Y-101800000D01*
X127558800Y-80648800D02*
X127558800Y-81711800D01*
X122828800Y-55643000D02*
X122828800Y-53668000D01*
X127960000Y-65130000D02*
X127960000Y-67460000D01*
X119608600Y-71953000D02*
X119608600Y-72849800D01*
X114903800Y-48718000D02*
X126803800Y-48718000D01*
X117370500Y-107109500D02*
X121609500Y-107109500D01*
X115700000Y-82900000D02*
X114680000Y-82900000D01*
X109550000Y-85095000D02*
X109550000Y-83250000D01*
X114596000Y-68830000D02*
X113690000Y-68830000D01*
X126803800Y-60026900D02*
X126803800Y-58618000D01*
X124493267Y-67877000D02*
X125565767Y-68949500D01*
X115315500Y-60564173D02*
X116139673Y-59740000D01*
X106950500Y-78149500D02*
X107880000Y-77220000D01*
X126650000Y-79740000D02*
X127558800Y-80648800D01*
X123828800Y-55643000D02*
X122828800Y-55643000D01*
X113690000Y-65830000D02*
X112524342Y-65830000D01*
X122615000Y-87125000D02*
X122615000Y-87735000D01*
X119108100Y-70716102D02*
X119374202Y-70450000D01*
X115315500Y-70469342D02*
X115315500Y-60564173D01*
X108010500Y-61509500D02*
X111099500Y-61509500D01*
X122828800Y-51693000D02*
X122828800Y-53668000D01*
X116025800Y-59740000D02*
X114903800Y-58618000D01*
X107389316Y-87515500D02*
X106950500Y-87076684D01*
X122800000Y-76527000D02*
X123326917Y-77053917D01*
X132829010Y-55790500D02*
X132219500Y-56400010D01*
X112302100Y-83455700D02*
X114554000Y-81203800D01*
X113527200Y-58097800D02*
X113026700Y-57597300D01*
X110185000Y-87000000D02*
X110700500Y-87515500D01*
X125444082Y-70402282D02*
X125682282Y-70402282D01*
X126950000Y-71670000D02*
X127810000Y-72530000D01*
X133690990Y-51169500D02*
X134300500Y-51779010D01*
X115173000Y-79300000D02*
X115700000Y-79300000D01*
X130720000Y-52210000D02*
X131760500Y-51169500D01*
X107425000Y-96418400D02*
X106759500Y-95752900D01*
X123220000Y-88090000D02*
X123220000Y-87480000D01*
X125425000Y-70421364D02*
X125444082Y-70402282D01*
X112425000Y-56175000D02*
X112425000Y-55625000D01*
X124150000Y-94925000D02*
X124150000Y-95845000D01*
X114953800Y-51268000D02*
X114217000Y-51268000D01*
X124000000Y-86700000D02*
X124000000Y-86000000D01*
X116001800Y-89535000D02*
X115110000Y-89535000D01*
X113026700Y-57597300D02*
X113026700Y-56776700D01*
X132219500Y-71030500D02*
X130720000Y-72530000D01*
X117600000Y-86000000D02*
X117600000Y-86920000D01*
X123220000Y-87480000D02*
X123575000Y-87125000D01*
X110129300Y-80714300D02*
X114064500Y-80714300D01*
X127810000Y-72530000D02*
X130720000Y-72530000D01*
X115109500Y-79363500D02*
X115173000Y-79300000D01*
X116225000Y-73350000D02*
X113896800Y-73350000D01*
X116200000Y-74330000D02*
X116200000Y-73370068D01*
X124028200Y-88290400D02*
X124028200Y-87578200D01*
X121500000Y-89570000D02*
X122748600Y-89570000D01*
X115109500Y-80648300D02*
X115109500Y-79363500D01*
X118000000Y-86000000D02*
X117600000Y-86000000D01*
X107645000Y-79500000D02*
X108915000Y-79500000D01*
X113026700Y-56776700D02*
X112425000Y-56175000D01*
X114554000Y-81203800D02*
X115109500Y-80648300D01*
X116200000Y-73370068D02*
X116179932Y-73350000D01*
X114217000Y-51268000D02*
X113487200Y-51997800D01*
X113487200Y-53317800D02*
X113487200Y-51997800D01*
X115700000Y-76275000D02*
X115734198Y-76240802D01*
X106759500Y-95752900D02*
X106759500Y-90425500D01*
X112302100Y-86924084D02*
X112302100Y-83455700D01*
X123575000Y-87125000D02*
X124000000Y-86700000D01*
X116225000Y-73350000D02*
X116225000Y-74305000D01*
X133690990Y-55790500D02*
X132829010Y-55790500D01*
X123496600Y-88366600D02*
X123220000Y-88090000D01*
X124028200Y-88366600D02*
X124028200Y-88290400D01*
X111710684Y-87515500D02*
X112302100Y-86924084D01*
X122748600Y-89570000D02*
X124028200Y-88290400D01*
X125350000Y-95847500D02*
X124147500Y-95847500D01*
X115110000Y-89535000D02*
X114850000Y-89275000D01*
X134300500Y-55180990D02*
X133690990Y-55790500D01*
X115918000Y-51268000D02*
X115925000Y-51275000D01*
X106759500Y-90425500D02*
X110185000Y-87000000D01*
X108915000Y-79500000D02*
X110129300Y-80714300D01*
X131760500Y-51169500D02*
X133690990Y-51169500D01*
X109143800Y-76835000D02*
X109067600Y-76911200D01*
X125425000Y-71270000D02*
X125425000Y-70421364D01*
X124028200Y-88366600D02*
X123496600Y-88366600D01*
X125682282Y-70402282D02*
X126950000Y-71670000D01*
X123326917Y-77053917D02*
X124531885Y-77053917D01*
X117691418Y-87997782D02*
X117691418Y-87238582D01*
X114064500Y-80714300D02*
X114554000Y-81203800D01*
X112812200Y-55237800D02*
X112425000Y-55625000D01*
X114953800Y-51268000D02*
X115918000Y-51268000D01*
X132219500Y-56400010D02*
X132219500Y-71030500D01*
X110700500Y-87515500D02*
X111710684Y-87515500D01*
X118000000Y-86000000D02*
X118000000Y-86930000D01*
X113896800Y-73350000D02*
X110411800Y-76835000D01*
X124028200Y-87578200D02*
X123575000Y-87125000D01*
X113507200Y-55237800D02*
X112812200Y-55237800D01*
X115700000Y-76900000D02*
X115700000Y-76275000D01*
X134300500Y-51779010D02*
X134300500Y-55180990D01*
X110411800Y-76835000D02*
X109143800Y-76835000D01*
X126940000Y-65564704D02*
X126940000Y-67460000D01*
X125072796Y-63697500D02*
X126940000Y-65564704D01*
X126960000Y-68440000D02*
X126960000Y-67480000D01*
X126960000Y-68440000D02*
X125980000Y-68440000D01*
X124973000Y-81700000D02*
X125500000Y-81700000D01*
X118942658Y-69853000D02*
X121814500Y-69853000D01*
X125500000Y-80900000D02*
X124562600Y-80900000D01*
X121814500Y-69853000D02*
X122310000Y-69357500D01*
X117600000Y-71425000D02*
X117025500Y-71425000D01*
X126050000Y-80100000D02*
X126650000Y-80700000D01*
X114500000Y-82120000D02*
X115680000Y-82120000D01*
X107450000Y-94400000D02*
X112556100Y-89293900D01*
X125500000Y-82100000D02*
X125500000Y-82500000D01*
X116687600Y-82092800D02*
X115707200Y-82092800D01*
X117600000Y-71195658D02*
X118942658Y-69853000D01*
X117600000Y-71425000D02*
X117600000Y-71195658D01*
X112556100Y-84063900D02*
X114500000Y-82120000D01*
X125500000Y-81700000D02*
X125500000Y-82100000D01*
X124562600Y-80900000D02*
X124510800Y-80848200D01*
X125500000Y-80100000D02*
X126050000Y-80100000D01*
X124909500Y-81179671D02*
X124909500Y-81636500D01*
X112556100Y-89293900D02*
X112556100Y-84063900D01*
X125500000Y-81700000D02*
X126587000Y-81700000D01*
X125189171Y-80900000D02*
X124909500Y-81179671D01*
X126450000Y-80900000D02*
X125500000Y-80900000D01*
X124909500Y-81636500D02*
X124973000Y-81700000D01*
X117025500Y-71425000D02*
X116225500Y-70625000D01*
X118860000Y-68372500D02*
X117860000Y-68372500D01*
X118850000Y-67372500D02*
X118850000Y-68362500D01*
X124715000Y-86085000D02*
X124800000Y-86000000D01*
X120809500Y-91944842D02*
X122715158Y-91944842D01*
X107410000Y-98475800D02*
X108675000Y-98475800D01*
X124210500Y-77489500D02*
X116989500Y-77489500D01*
X125189171Y-80500000D02*
X124210500Y-79521329D01*
X122715158Y-91944842D02*
X126610000Y-88050000D01*
X125640000Y-88050000D02*
X126610000Y-88050000D01*
X116989500Y-77740329D02*
X116229829Y-78500000D01*
X114575000Y-78340000D02*
X113640000Y-78340000D01*
X108675000Y-98475800D02*
X114278542Y-98475800D01*
X113640000Y-78340000D02*
X113625000Y-78325000D01*
X114278542Y-98475800D02*
X120809500Y-91944842D01*
X124715000Y-87125000D02*
X124715000Y-86085000D01*
X114735000Y-78500000D02*
X115700000Y-78500000D01*
X116989500Y-77489500D02*
X116989500Y-77740329D01*
X114765000Y-61885000D02*
X114750000Y-61900000D01*
X124210500Y-79521329D02*
X124210500Y-77489500D01*
X124715000Y-87125000D02*
X125640000Y-88050000D01*
X116229829Y-78500000D02*
X115700000Y-78500000D01*
X114765000Y-60875000D02*
X114765000Y-61885000D01*
X118860000Y-63877500D02*
X118860000Y-64847500D01*
X118850000Y-64857500D02*
X118230000Y-64237500D01*
X118120000Y-63877500D02*
X117760000Y-64237500D01*
X118230000Y-64237500D02*
X117760000Y-64237500D01*
X118860000Y-63877500D02*
X118120000Y-63877500D01*
X121691800Y-73625000D02*
X121142400Y-73075600D01*
X122146000Y-75525000D02*
X122146000Y-73625000D01*
X122000000Y-75671000D02*
X122146000Y-75525000D01*
X119634000Y-73835200D02*
X120382800Y-73835200D01*
X122000000Y-76200000D02*
X122000000Y-75671000D01*
X120382800Y-73835200D02*
X121142400Y-73075600D01*
X122146000Y-73625000D02*
X121691800Y-73625000D01*
X122576900Y-70710100D02*
X123342400Y-71475600D01*
X119891500Y-70710100D02*
X122576900Y-70710100D01*
X122400000Y-72418000D02*
X122400000Y-76200000D01*
X119608600Y-70993000D02*
X119891500Y-70710100D01*
X123342400Y-71475600D02*
X122400000Y-72418000D01*
X123600000Y-76200000D02*
X123600000Y-75343352D01*
X123600000Y-75343352D02*
X124212226Y-74731126D01*
X123200000Y-76200000D02*
X123200000Y-74920000D01*
X123200000Y-74920000D02*
X123400000Y-74720000D01*
X125946600Y-67538747D02*
X125101247Y-67538747D01*
X124740000Y-65047500D02*
X125197500Y-65047500D01*
X125197500Y-65047500D02*
X126075000Y-65925000D01*
X125101247Y-67538747D02*
X124560000Y-66997500D01*
X117797500Y-66872500D02*
X117825000Y-66900000D01*
X116360000Y-66872500D02*
X117797500Y-66872500D01*
X121149382Y-63148000D02*
X121599882Y-62697500D01*
X116710500Y-63148000D02*
X121149382Y-63148000D01*
X121599882Y-62697500D02*
X122390000Y-62697500D01*
X122374697Y-68337500D02*
X123399500Y-69362303D01*
X126886300Y-81211300D02*
X127088300Y-81413300D01*
X125588700Y-81211300D02*
X126886300Y-81211300D01*
X122295000Y-68337500D02*
X121260000Y-69372500D01*
X127088300Y-81413300D02*
X127088300Y-82038300D01*
X128000000Y-82950000D02*
X128325000Y-82950000D01*
X127088300Y-82038300D02*
X128000000Y-82950000D01*
X125500000Y-81300000D02*
X125588700Y-81211300D01*
X116547852Y-77055162D02*
X116547852Y-77779148D01*
X127950000Y-100070000D02*
X128010000Y-100010000D01*
X116547852Y-77779148D02*
X116227000Y-78100000D01*
X115180000Y-74330000D02*
X114280000Y-74330000D01*
X114280000Y-74330000D02*
X114270000Y-74320000D01*
X127950000Y-101800000D02*
X127950000Y-100070000D01*
X116227000Y-78100000D02*
X115700000Y-78100000D01*
X127950000Y-101800000D02*
X127950000Y-107800000D01*
X110440684Y-80015500D02*
X110625500Y-79830684D01*
X107204500Y-79169316D02*
X107756316Y-78617500D01*
X111431800Y-76835000D02*
X111912400Y-76835000D01*
X109929316Y-80015500D02*
X110440684Y-80015500D01*
X109649300Y-79735484D02*
X109929316Y-80015500D01*
X107204500Y-86559500D02*
X107204500Y-79169316D01*
X111912400Y-76835000D02*
X113817400Y-74930000D01*
X113817400Y-74930000D02*
X117857000Y-74930000D01*
X107645000Y-87000000D02*
X107204500Y-86559500D01*
X107756316Y-78617500D02*
X109649300Y-78617500D01*
X117857000Y-74930000D02*
X118800000Y-75873000D01*
X110625500Y-77641300D02*
X111431800Y-76835000D01*
X109649300Y-78617500D02*
X109649300Y-79735484D01*
X110625500Y-79830684D02*
X110625500Y-77641300D01*
X108145500Y-87769500D02*
X107284106Y-87769500D01*
X106696500Y-87181894D02*
X106696500Y-77649158D01*
X106696500Y-77649158D02*
X111783058Y-72562600D01*
X118450000Y-76250000D02*
X118400000Y-76200000D01*
X118450000Y-76956600D02*
X118450000Y-76250000D01*
X107284106Y-87769500D02*
X106696500Y-87181894D01*
X108915000Y-87000000D02*
X108145500Y-87769500D01*
X111783058Y-72562600D02*
X117008339Y-72562600D01*
X117008339Y-72562600D02*
X118631365Y-74185626D01*
X111455000Y-78506265D02*
X114351765Y-75609500D01*
X114351765Y-75609500D02*
X117720329Y-75609500D01*
X111455000Y-79500000D02*
X111455000Y-78506265D01*
X117720329Y-75609500D02*
X118000000Y-75889171D01*
X110185000Y-78782942D02*
X108534200Y-77132142D01*
X108534200Y-77132142D02*
X108534200Y-76690258D01*
X119200000Y-75570658D02*
X119200000Y-76200000D01*
X116445942Y-72816600D02*
X119200000Y-75570658D01*
X112407858Y-72816600D02*
X116445942Y-72816600D01*
X110185000Y-79500000D02*
X110185000Y-78782942D01*
X108534200Y-76690258D02*
X112407858Y-72816600D01*
X125540000Y-82940000D02*
X125500000Y-82900000D01*
X116728000Y-52868000D02*
X116730000Y-52870000D01*
X126660000Y-82940000D02*
X125540000Y-82940000D01*
X114953800Y-52868000D02*
X116728000Y-52868000D01*
X114953800Y-53668000D02*
X115928000Y-53668000D01*
X115928000Y-53668000D02*
X115930000Y-53670000D01*
X126610000Y-85320000D02*
X126190000Y-84900000D01*
X126190000Y-84900000D02*
X125500000Y-84900000D01*
X111260000Y-55735000D02*
X112227700Y-54767300D01*
X108880000Y-55230000D02*
X110755000Y-55230000D01*
X112930000Y-101800000D02*
X109757685Y-101800000D01*
X112227700Y-54767300D02*
X113814098Y-54767300D01*
X110800500Y-56194500D02*
X111260000Y-55735000D01*
X109757685Y-101800000D02*
X106056600Y-98098915D01*
X114314798Y-55268000D02*
X114953800Y-55268000D01*
X106056600Y-61818400D02*
X108800000Y-59075000D01*
X112699800Y-54295200D02*
X112699800Y-51765200D01*
X111260000Y-55735000D02*
X112699800Y-54295200D01*
X110064040Y-59075000D02*
X110800500Y-58338540D01*
X112699800Y-51765200D02*
X113487200Y-50977800D01*
X110800500Y-58338540D02*
X110800500Y-56194500D01*
X108800000Y-59075000D02*
X110064040Y-59075000D01*
X106056600Y-98098915D02*
X106056600Y-61818400D01*
X110755000Y-55230000D02*
X111260000Y-55735000D01*
X113814098Y-54767300D02*
X114314798Y-55268000D01*
X112930000Y-107800000D02*
X112930000Y-101800000D01*
X124854260Y-84100000D02*
X124675220Y-83920960D01*
X119253800Y-57453800D02*
X119250000Y-57450000D01*
X119253800Y-58568000D02*
X119253800Y-57453800D01*
X125500000Y-84100000D02*
X124854260Y-84100000D01*
X125500000Y-85300000D02*
X124900000Y-85300000D01*
X124900000Y-85300000D02*
X124425000Y-84825000D01*
X120850000Y-57525000D02*
X120850000Y-58564200D01*
X122453800Y-59916200D02*
X122440000Y-59930000D01*
X124630000Y-82957000D02*
X124973000Y-83300000D01*
X124973000Y-83300000D02*
X125500000Y-83300000D01*
X124630000Y-82500000D02*
X124630000Y-82957000D01*
X122453800Y-58568000D02*
X122453800Y-59916200D01*
X123253800Y-58568000D02*
X123253800Y-59897492D01*
X126310000Y-83700000D02*
X125500000Y-83700000D01*
X126620000Y-84010000D02*
X126310000Y-83700000D01*
X123253800Y-59897492D02*
X123251732Y-59899560D01*
X117823182Y-89362476D02*
X117823182Y-90923182D01*
X119215500Y-86015500D02*
X119215500Y-88167842D01*
X118366742Y-89016600D02*
X118169058Y-89016600D01*
X107189500Y-53039500D02*
X106650000Y-52500000D01*
X118169058Y-89016600D02*
X117823182Y-89362476D01*
X117823182Y-90923182D02*
X119450000Y-92550000D01*
X107189500Y-53206865D02*
X107189500Y-53039500D01*
X119215500Y-88167842D02*
X118366742Y-89016600D01*
X108910000Y-53020000D02*
X109842500Y-53020000D01*
X109842500Y-53020000D02*
X110280000Y-53457500D01*
X126993700Y-79269500D02*
X126343102Y-79269500D01*
X126343102Y-79269500D02*
X125912602Y-79700000D01*
X127429400Y-79705200D02*
X126993700Y-79269500D01*
X125912602Y-79700000D02*
X125500000Y-79700000D01*
X124400000Y-75340000D02*
X125510000Y-74230000D01*
X124400000Y-76200000D02*
X124400000Y-75340000D01*
X129238763Y-74029500D02*
X131179500Y-74029500D01*
X133248710Y-76530200D02*
X133714215Y-76530200D01*
X134391400Y-77207385D02*
X134391400Y-99338600D01*
X131179500Y-74029500D02*
X132181600Y-75031600D01*
X132181600Y-75463090D02*
X133248710Y-76530200D01*
X133714215Y-76530200D02*
X134391400Y-77207385D01*
X127938960Y-75171869D02*
X128096394Y-75171869D01*
X125810829Y-77300000D02*
X127938960Y-75171869D01*
X132181600Y-75031600D02*
X132181600Y-75463090D01*
X128096394Y-75171869D02*
X129238763Y-74029500D01*
X134391400Y-99338600D02*
X133260000Y-100470000D01*
X124800000Y-75780000D02*
X125500000Y-75080000D01*
X124800000Y-76200000D02*
X124800000Y-75780000D01*
X118800000Y-86000000D02*
X118800000Y-85449401D01*
X118800000Y-85449401D02*
X118340001Y-84989402D01*
X107660000Y-50307100D02*
X107660000Y-51500000D01*
X124853800Y-59956600D02*
X124853800Y-58568000D01*
X119450000Y-107800000D02*
X119475000Y-107825000D01*
X118550000Y-107800000D02*
X119450000Y-107800000D01*
X119325000Y-101775000D02*
X118575000Y-101775000D01*
X124841000Y-59969400D02*
X124853800Y-59956600D01*
X112050000Y-51900000D02*
X112050000Y-53327500D01*
X134554500Y-51673800D02*
X133796200Y-50915500D01*
X133260000Y-69990000D02*
X134300500Y-68949500D01*
X134300500Y-68949500D02*
X134300500Y-56859010D01*
X134300500Y-56859010D02*
X134554500Y-56605010D01*
X130044500Y-50915500D02*
X128090000Y-52870000D01*
X134554500Y-56605010D02*
X134554500Y-51673800D01*
X126753800Y-52868000D02*
X128088000Y-52868000D01*
X133796200Y-50915500D02*
X130044500Y-50915500D01*
X119600000Y-85440305D02*
X119152297Y-84992602D01*
X119600000Y-86000000D02*
X119600000Y-85440305D01*
X128088000Y-52868000D02*
X128090000Y-52870000D01*
X126753800Y-53668000D02*
X128828000Y-53668000D01*
X120000000Y-86000000D02*
X120000000Y-85024809D01*
X120000000Y-85024809D02*
X119964593Y-84989402D01*
X128828000Y-53668000D02*
X128850000Y-53690000D01*
X113657600Y-66362400D02*
X110495886Y-66362400D01*
X107679500Y-63546014D02*
X107679500Y-62860500D01*
X110495886Y-66362400D02*
X107679500Y-63546014D01*
X107679500Y-62860500D02*
X108520000Y-62020000D01*
X107679500Y-72186014D02*
X108643486Y-73150000D01*
X107679500Y-71570500D02*
X107679500Y-72186014D01*
X110150000Y-69100000D02*
X107679500Y-71570500D01*
X112688000Y-69330000D02*
X112458000Y-69100000D01*
X113690000Y-69330000D02*
X112688000Y-69330000D01*
X112458000Y-69100000D02*
X110150000Y-69100000D01*
X131060890Y-94259400D02*
X132219500Y-95418010D01*
X129590800Y-87546458D02*
X129590800Y-93192290D01*
X129590800Y-93192290D02*
X130657910Y-94259400D01*
X132219500Y-96889500D02*
X133260000Y-97930000D01*
X126206800Y-84500000D02*
X126493400Y-84786600D01*
X126830942Y-84786600D02*
X129590800Y-87546458D01*
X125500000Y-84500000D02*
X126206800Y-84500000D01*
X130657910Y-94259400D02*
X131060890Y-94259400D01*
X132219500Y-95418010D02*
X132219500Y-96889500D01*
X126493400Y-84786600D02*
X126830942Y-84786600D01*
X119700000Y-95314210D02*
X119700000Y-95000000D01*
X121200000Y-87000000D02*
X121200000Y-86000000D01*
X119702500Y-95316710D02*
X119700000Y-95314210D01*
X119702500Y-95865000D02*
X119702500Y-95316710D01*
X119702500Y-95865000D02*
X123110000Y-95865000D01*
X112027383Y-68150665D02*
X112348048Y-67830000D01*
X112328048Y-67850000D02*
X112027383Y-68150665D01*
X114755500Y-66989500D02*
X114755500Y-67670500D01*
X113690000Y-66830000D02*
X114596000Y-66830000D01*
D47*
X115120057Y-77296799D02*
X114480793Y-76657535D01*
X115696799Y-77296799D02*
X115120057Y-77296799D01*
D46*
X114576000Y-67850000D02*
X112328048Y-67850000D01*
D47*
X114480793Y-76657535D02*
X114480793Y-76280364D01*
D46*
X114596000Y-66830000D02*
X114755500Y-66989500D01*
X114755500Y-67670500D02*
X114576000Y-67850000D01*
X112348048Y-67830000D02*
X113690000Y-67830000D01*
X113690000Y-68330000D02*
X112602390Y-68330000D01*
X113690000Y-67330000D02*
X112146518Y-67330000D01*
X112248325Y-68684065D02*
X111806441Y-68684065D01*
D47*
X114193424Y-76944904D02*
X113816253Y-76944904D01*
D46*
X112146518Y-67330000D02*
X112027383Y-67210865D01*
X111493983Y-68371607D02*
X111493983Y-67744265D01*
D47*
X115696799Y-77703201D02*
X114951721Y-77703201D01*
D46*
X111806441Y-68684065D02*
X111493983Y-68371607D01*
D47*
X114951721Y-77703201D02*
X114193424Y-76944904D01*
D46*
X111493983Y-67744265D02*
X112027383Y-67210865D01*
X112602390Y-68330000D02*
X112248325Y-68684065D01*
X110310000Y-57610000D02*
X109530000Y-58390000D01*
X109530000Y-58390000D02*
X108970000Y-58390000D01*
X107907787Y-56307787D02*
X108970000Y-57370000D01*
X110862500Y-51950000D02*
X111230000Y-51582500D01*
X107439058Y-49773700D02*
X107880942Y-49773700D01*
X107852213Y-56307787D02*
X107907787Y-56307787D01*
X106650000Y-50562758D02*
X107439058Y-49773700D01*
X107880942Y-49773700D02*
X108850000Y-50742758D01*
X108850000Y-50742758D02*
X108850000Y-50840000D01*
X106650000Y-51510000D02*
X106650000Y-50562758D01*
X110290000Y-51950000D02*
X110862500Y-51950000D01*
X107896365Y-52500000D02*
X108336865Y-52059500D01*
X109560000Y-54690000D02*
X110630000Y-54690000D01*
X108910000Y-54040000D02*
X109560000Y-54690000D01*
X107670000Y-52500000D02*
X107896365Y-52500000D01*
X111400000Y-57670000D02*
X112150000Y-57670000D01*
X122037500Y-97275000D02*
X121577500Y-96815000D01*
X123090000Y-97275000D02*
X122037500Y-97275000D01*
X125202500Y-97275000D02*
X124110000Y-97275000D01*
X126960000Y-69460000D02*
X126960000Y-70640000D01*
X124857500Y-69420000D02*
X125960000Y-69420000D01*
X125960000Y-69420000D02*
X126920000Y-69420000D01*
X127960000Y-69430000D02*
X126990000Y-69430000D01*
X117600000Y-69592500D02*
X117860000Y-69332500D01*
X119860000Y-69352500D02*
X118900000Y-69352500D01*
X117600000Y-70405000D02*
X117600000Y-69592500D01*
X117860000Y-69332500D02*
X118800000Y-69332500D01*
X116360000Y-68997500D02*
X117525000Y-68997500D01*
X117525000Y-68997500D02*
X117860000Y-69332500D01*
X119880000Y-65927500D02*
X118900000Y-65927500D01*
X115569500Y-64132000D02*
X116360000Y-64922500D01*
X118850000Y-65877500D02*
X118440000Y-65877500D01*
X115569500Y-61090500D02*
X115569500Y-64132000D01*
X118440000Y-65877500D02*
X117760000Y-65197500D01*
X116360000Y-64922500D02*
X117485000Y-64922500D01*
X115785000Y-60875000D02*
X115569500Y-61090500D01*
X117485000Y-64922500D02*
X117760000Y-65197500D01*
X118400000Y-86000000D02*
X118400000Y-86692602D01*
X118275000Y-88551448D02*
X117551200Y-89275248D01*
X118400000Y-86692602D02*
X118275000Y-86817602D01*
X126325200Y-93816600D02*
X128538868Y-93816600D01*
X126089082Y-94052718D02*
X126325200Y-93816600D01*
X117551200Y-89275248D02*
X117551200Y-92329000D01*
X117551200Y-92329000D02*
X118541800Y-93319600D01*
X118275000Y-86817602D02*
X118275000Y-88551448D01*
X122540800Y-85013800D02*
X122504200Y-85013800D01*
X123200000Y-85673000D02*
X122540800Y-85013800D01*
X120400000Y-76200000D02*
X120400000Y-74857847D01*
X120400000Y-74857847D02*
X120688941Y-74568906D01*
X120453487Y-86992171D02*
X120453487Y-87328351D01*
X120800000Y-86645658D02*
X120453487Y-86992171D01*
X120800000Y-86000000D02*
X120800000Y-86645658D01*
X116637300Y-81289700D02*
X116637300Y-81050000D01*
X115700000Y-81700000D02*
X116227000Y-81700000D01*
X116227000Y-81700000D02*
X116637300Y-81289700D01*
X127099500Y-76735500D02*
X127977623Y-76735500D01*
X126843889Y-77283111D02*
X126843889Y-76991111D01*
X126027000Y-78100000D02*
X126843889Y-77283111D01*
X125500000Y-78100000D02*
X126027000Y-78100000D01*
X126843889Y-76991111D02*
X127099500Y-76735500D01*
X127977623Y-76735500D02*
X128036780Y-76794657D01*
X126813338Y-78080844D02*
X127401412Y-78080844D01*
X125500000Y-78900000D02*
X125994182Y-78900000D01*
X125994182Y-78900000D02*
X126813338Y-78080844D01*
X126034972Y-78500000D02*
X127266072Y-77268900D01*
X127266072Y-77268900D02*
X127377289Y-77268900D01*
X125500000Y-78500000D02*
X126034972Y-78500000D01*
X127377289Y-77268900D02*
X130258389Y-80150000D01*
X127493417Y-75982373D02*
X128042374Y-75982373D01*
X131126900Y-76110500D02*
X132219500Y-77203100D01*
X126238000Y-77237790D02*
X127493417Y-75982373D01*
X132219500Y-77203100D02*
X132219500Y-79109500D01*
X125500000Y-77700000D02*
X126027000Y-77700000D01*
X132219500Y-79109500D02*
X133260000Y-80150000D01*
X126027000Y-77700000D02*
X126238000Y-77489000D01*
X128170501Y-76110500D02*
X131126900Y-76110500D01*
X126238000Y-77489000D02*
X126238000Y-77237790D01*
X128042374Y-75982373D02*
X128170501Y-76110500D01*
X126360326Y-78893066D02*
X127412845Y-78893066D01*
X127412845Y-78893066D02*
X129710279Y-81190500D01*
X131760500Y-81190500D02*
X133260000Y-82690000D01*
X125500000Y-79300000D02*
X125953392Y-79300000D01*
X125953392Y-79300000D02*
X126360326Y-78893066D01*
X129710279Y-81190500D02*
X131760500Y-81190500D01*
X128892600Y-86094623D02*
X129855377Y-86094623D01*
X119600000Y-76200000D02*
X119600000Y-76956600D01*
X129855377Y-86094623D02*
X130720000Y-85230000D01*
X120000000Y-74746417D02*
X119870774Y-74617191D01*
X120000000Y-76200000D02*
X120000000Y-74746417D01*
X120800000Y-75575283D02*
X121110176Y-75265107D01*
X120800000Y-76200000D02*
X120800000Y-75575283D01*
X121200000Y-76906600D02*
X121150000Y-76956600D01*
X121200000Y-76200000D02*
X121200000Y-76906600D01*
X121600000Y-75475000D02*
X121850000Y-75225000D01*
X121850000Y-74630725D02*
X121405401Y-74186126D01*
X121600000Y-76200000D02*
X121600000Y-75475000D01*
X121850000Y-75225000D02*
X121850000Y-74630725D01*
X120400000Y-86000000D02*
X120400000Y-85366298D01*
X120400000Y-85366298D02*
X120776896Y-84989402D01*
G04 #@! TA.AperFunction,Conductor*
G36*
X114693039Y-82920185D02*
G01*
X114738794Y-82972989D01*
X114750000Y-83024500D01*
X114750000Y-83858789D01*
X114770673Y-83877901D01*
X114806538Y-83937864D01*
X114809438Y-83985139D01*
X114794317Y-84099998D01*
X114805648Y-84186062D01*
X114814720Y-84254973D01*
X114817087Y-84272947D01*
X114815427Y-84273165D01*
X114820678Y-84322018D01*
X114815368Y-84340103D01*
X114794317Y-84499999D01*
X114817087Y-84672947D01*
X114815427Y-84673165D01*
X114820678Y-84722018D01*
X114815368Y-84740103D01*
X114794317Y-84899999D01*
X114817087Y-85072947D01*
X114815427Y-85073165D01*
X114820678Y-85122018D01*
X114815368Y-85140103D01*
X114794317Y-85299999D01*
X114814956Y-85456762D01*
X114875463Y-85602840D01*
X114971717Y-85728282D01*
X115097158Y-85824536D01*
X115097159Y-85824536D01*
X115243238Y-85885044D01*
X115360639Y-85900500D01*
X115675500Y-85900500D01*
X115742539Y-85920185D01*
X115788294Y-85972989D01*
X115799500Y-86024500D01*
X115799500Y-86339361D01*
X115800028Y-86343378D01*
X115800029Y-86343380D01*
X115814956Y-86456762D01*
X115875463Y-86602840D01*
X115971716Y-86728281D01*
X115982868Y-86736838D01*
X116018303Y-86764028D01*
X116059506Y-86820453D01*
X116066435Y-86872132D01*
X116066209Y-86874999D01*
X116066210Y-86875000D01*
X116194325Y-86875000D01*
X116241776Y-86884438D01*
X116243238Y-86885044D01*
X116400000Y-86905682D01*
X116556762Y-86885044D01*
X116556762Y-86885043D01*
X116572948Y-86882913D01*
X116573166Y-86884573D01*
X116622009Y-86879319D01*
X116640097Y-86884630D01*
X116643236Y-86885043D01*
X116643238Y-86885044D01*
X116743483Y-86898241D01*
X116799998Y-86905682D01*
X116799998Y-86905681D01*
X116800000Y-86905682D01*
X116884317Y-86894581D01*
X116953349Y-86905346D01*
X117005605Y-86951726D01*
X117024500Y-87017520D01*
X117024500Y-87251000D01*
X117004815Y-87318039D01*
X116952011Y-87363794D01*
X116900500Y-87375000D01*
X116066210Y-87375000D01*
X116067854Y-87395915D01*
X116112967Y-87551194D01*
X116195281Y-87690379D01*
X116309620Y-87804718D01*
X116448805Y-87887032D01*
X116604083Y-87932144D01*
X116637929Y-87934808D01*
X116642807Y-87934999D01*
X116725122Y-87934999D01*
X116792161Y-87954683D01*
X116837917Y-88007486D01*
X116848443Y-88046036D01*
X116861904Y-88174101D01*
X116861905Y-88174104D01*
X116916688Y-88342712D01*
X117005333Y-88496251D01*
X117123964Y-88628004D01*
X117160684Y-88654682D01*
X117203350Y-88710011D01*
X117211799Y-88755000D01*
X117211799Y-88763621D01*
X117192114Y-88830660D01*
X117163288Y-88861995D01*
X117148948Y-88872998D01*
X117113798Y-88918806D01*
X117113788Y-88918821D01*
X117058547Y-88990814D01*
X117001716Y-89128014D01*
X116997220Y-89162170D01*
X116968953Y-89226067D01*
X116910628Y-89264537D01*
X116840763Y-89265368D01*
X116781540Y-89228295D01*
X116755205Y-89180580D01*
X116749856Y-89162170D01*
X116734294Y-89108605D01*
X116729067Y-89099766D01*
X116711800Y-89036647D01*
X116711800Y-88730494D01*
X116711798Y-88730493D01*
X116565606Y-88772967D01*
X116545410Y-88784911D01*
X116477686Y-88802092D01*
X116419170Y-88784910D01*
X116398195Y-88772506D01*
X116398193Y-88772505D01*
X116398191Y-88772504D01*
X116242796Y-88727357D01*
X116208924Y-88724691D01*
X116208910Y-88724690D01*
X116206490Y-88724500D01*
X115797110Y-88724500D01*
X115794690Y-88724690D01*
X115794675Y-88724691D01*
X115760803Y-88727357D01*
X115622281Y-88767602D01*
X115552412Y-88767403D01*
X115495536Y-88731498D01*
X115491807Y-88727357D01*
X115456011Y-88687601D01*
X115417453Y-88644777D01*
X115274023Y-88540570D01*
X115112060Y-88468459D01*
X114938648Y-88431600D01*
X114938645Y-88431600D01*
X114761355Y-88431600D01*
X114761352Y-88431600D01*
X114587939Y-88468459D01*
X114425976Y-88540570D01*
X114282546Y-88644777D01*
X114163915Y-88776530D01*
X114075270Y-88930069D01*
X114020487Y-89098677D01*
X114020486Y-89098681D01*
X114001954Y-89275000D01*
X114020486Y-89451319D01*
X114020487Y-89451322D01*
X114075270Y-89619930D01*
X114163915Y-89773469D01*
X114282546Y-89905222D01*
X114425976Y-90009429D01*
X114587939Y-90081540D01*
X114761352Y-90118400D01*
X114761355Y-90118400D01*
X114938645Y-90118400D01*
X115025564Y-90099924D01*
X115067528Y-90098276D01*
X115110000Y-90103868D01*
X115138916Y-90100060D01*
X115155102Y-90099000D01*
X115298633Y-90099000D01*
X115365672Y-90118685D01*
X115386314Y-90135319D01*
X115466111Y-90215116D01*
X115605405Y-90297494D01*
X115760803Y-90342642D01*
X115760807Y-90342643D01*
X115797110Y-90345500D01*
X115799555Y-90345500D01*
X116204045Y-90345500D01*
X116206490Y-90345500D01*
X116242793Y-90342643D01*
X116398195Y-90297494D01*
X116419169Y-90285089D01*
X116486888Y-90267906D01*
X116545412Y-90285090D01*
X116565604Y-90297032D01*
X116720883Y-90342144D01*
X116754729Y-90344808D01*
X116759607Y-90344999D01*
X116863199Y-90344999D01*
X116930238Y-90364683D01*
X116975994Y-90417486D01*
X116987200Y-90468999D01*
X116987200Y-92283904D01*
X116986139Y-92300089D01*
X116982332Y-92328999D01*
X116994978Y-92425048D01*
X117001717Y-92476234D01*
X117058547Y-92613433D01*
X117116821Y-92689379D01*
X117148950Y-92731250D01*
X117172084Y-92749001D01*
X117184279Y-92759696D01*
X117656781Y-93232198D01*
X117690266Y-93293521D01*
X117692421Y-93306917D01*
X117693754Y-93319599D01*
X117693754Y-93319600D01*
X117712286Y-93495919D01*
X117712287Y-93495922D01*
X117767070Y-93664530D01*
X117855715Y-93818069D01*
X117911033Y-93879506D01*
X117941263Y-93942498D01*
X117932637Y-94011833D01*
X117906564Y-94050159D01*
X114081244Y-97875481D01*
X114019921Y-97908966D01*
X113993563Y-97911800D01*
X109357288Y-97911800D01*
X109290249Y-97892115D01*
X109265138Y-97870772D01*
X109242453Y-97845577D01*
X109099023Y-97741370D01*
X108937060Y-97669259D01*
X108763648Y-97632400D01*
X108763645Y-97632400D01*
X108586355Y-97632400D01*
X108586352Y-97632400D01*
X108412939Y-97669258D01*
X108250978Y-97741369D01*
X108244250Y-97746258D01*
X108178443Y-97769735D01*
X108110389Y-97753907D01*
X108092703Y-97741790D01*
X108035192Y-97694592D01*
X107968538Y-97639890D01*
X107917478Y-97612598D01*
X107819947Y-97560466D01*
X107770102Y-97511504D01*
X107754642Y-97443366D01*
X107778474Y-97377686D01*
X107819942Y-97341753D01*
X107983538Y-97254310D01*
X108135883Y-97129283D01*
X108260910Y-96976938D01*
X108353814Y-96803127D01*
X108411024Y-96614532D01*
X108430341Y-96418400D01*
X108411024Y-96222268D01*
X108353814Y-96033673D01*
X108260910Y-95859862D01*
X108135883Y-95707517D01*
X107983538Y-95582490D01*
X107876428Y-95525238D01*
X107826585Y-95476277D01*
X107811124Y-95408139D01*
X107834956Y-95342460D01*
X107876423Y-95306526D01*
X108008538Y-95235910D01*
X108160883Y-95110883D01*
X108285910Y-94958538D01*
X108378814Y-94784727D01*
X108436024Y-94596132D01*
X108455341Y-94400000D01*
X108442464Y-94269263D01*
X108455483Y-94200618D01*
X108478183Y-94169432D01*
X112923024Y-89724591D01*
X112935214Y-89713902D01*
X112958350Y-89696150D01*
X112996134Y-89646909D01*
X113048753Y-89578333D01*
X113105583Y-89441134D01*
X113124967Y-89293900D01*
X113121161Y-89264989D01*
X113120100Y-89248804D01*
X113120100Y-84348878D01*
X113139785Y-84281839D01*
X113156414Y-84261202D01*
X113723580Y-83694036D01*
X113784901Y-83660553D01*
X113854593Y-83665537D01*
X113898940Y-83694038D01*
X113934620Y-83729718D01*
X114073805Y-83812032D01*
X114229084Y-83857145D01*
X114249999Y-83858789D01*
X114250000Y-83218979D01*
X114269685Y-83151940D01*
X114286319Y-83131298D01*
X114480798Y-82936819D01*
X114542121Y-82903334D01*
X114568479Y-82900500D01*
X114626000Y-82900500D01*
X114693039Y-82920185D01*
G37*
G04 #@! TD.AperFunction*
G04 #@! TA.AperFunction,Conductor*
G36*
X125985341Y-85901134D02*
G01*
X126024641Y-85930335D01*
X126033311Y-85939964D01*
X126042547Y-85950222D01*
X126185972Y-86054427D01*
X126220978Y-86070012D01*
X126288123Y-86099907D01*
X126341359Y-86145158D01*
X126361680Y-86212007D01*
X126342635Y-86279231D01*
X126290269Y-86325486D01*
X126272281Y-86332263D01*
X126168763Y-86362338D01*
X126168376Y-86361009D01*
X126118662Y-86373619D01*
X126087106Y-86364349D01*
X126086238Y-86367338D01*
X125925000Y-86320493D01*
X125924999Y-86320494D01*
X125924999Y-86839999D01*
X125925001Y-86840000D01*
X127414504Y-86840000D01*
X127372031Y-86693803D01*
X127289718Y-86554620D01*
X127175379Y-86440281D01*
X127036197Y-86357969D01*
X126947718Y-86332264D01*
X126888833Y-86294657D01*
X126859626Y-86231185D01*
X126869372Y-86161998D01*
X126914976Y-86109064D01*
X126931873Y-86099909D01*
X127034023Y-86054429D01*
X127103065Y-86004267D01*
X127168869Y-85980788D01*
X127236923Y-85996613D01*
X127263630Y-86016905D01*
X128990480Y-87743755D01*
X129023965Y-87805078D01*
X129026799Y-87831436D01*
X129026799Y-92919680D01*
X129007114Y-92986719D01*
X128954310Y-93032474D01*
X128885152Y-93042418D01*
X128852364Y-93032960D01*
X128800926Y-93010058D01*
X128627516Y-92973200D01*
X128627513Y-92973200D01*
X128450223Y-92973200D01*
X128450220Y-92973200D01*
X128276807Y-93010059D01*
X128114844Y-93082170D01*
X127971414Y-93186377D01*
X127948730Y-93211572D01*
X127889244Y-93248221D01*
X127856580Y-93252600D01*
X126391925Y-93252600D01*
X126364348Y-93246739D01*
X126363892Y-93248887D01*
X126177730Y-93209318D01*
X126177727Y-93209318D01*
X126000437Y-93209318D01*
X126000434Y-93209318D01*
X125827021Y-93246177D01*
X125665058Y-93318288D01*
X125521628Y-93422495D01*
X125402997Y-93554248D01*
X125314352Y-93707787D01*
X125278520Y-93818069D01*
X125259568Y-93876399D01*
X125241036Y-94052718D01*
X125259568Y-94229037D01*
X125259569Y-94229040D01*
X125314352Y-94397648D01*
X125402997Y-94551187D01*
X125521629Y-94682941D01*
X125524715Y-94685183D01*
X125567381Y-94740513D01*
X125573359Y-94810127D01*
X125540752Y-94871921D01*
X125479913Y-94906278D01*
X125451829Y-94909500D01*
X125108066Y-94909500D01*
X125041027Y-94889815D01*
X124995272Y-94837011D01*
X124984746Y-94798466D01*
X124979514Y-94748681D01*
X124924729Y-94580069D01*
X124889241Y-94518601D01*
X124836084Y-94426530D01*
X124717453Y-94294777D01*
X124574023Y-94190570D01*
X124412060Y-94118459D01*
X124238648Y-94081600D01*
X124238645Y-94081600D01*
X124061355Y-94081600D01*
X124061352Y-94081600D01*
X123887939Y-94118459D01*
X123725976Y-94190570D01*
X123582546Y-94294777D01*
X123463915Y-94426530D01*
X123375270Y-94580069D01*
X123320486Y-94748677D01*
X123302641Y-94918462D01*
X123276056Y-94983077D01*
X123218758Y-95023061D01*
X123179320Y-95029500D01*
X122928243Y-95029500D01*
X122928217Y-95029500D01*
X122925820Y-95029501D01*
X122923429Y-95029689D01*
X122923406Y-95029690D01*
X122889794Y-95032335D01*
X122735607Y-95077130D01*
X122597403Y-95158864D01*
X122491585Y-95264682D01*
X122430262Y-95298166D01*
X122403904Y-95301000D01*
X120847308Y-95301000D01*
X120780269Y-95281315D01*
X120759627Y-95264681D01*
X120691865Y-95196919D01*
X120605497Y-95145841D01*
X120557813Y-95094772D01*
X120545297Y-95026148D01*
X120548046Y-95000000D01*
X120529514Y-94823681D01*
X120474729Y-94655069D01*
X120456295Y-94623140D01*
X120386084Y-94501530D01*
X120267453Y-94369777D01*
X120124023Y-94265570D01*
X119962060Y-94193459D01*
X119788648Y-94156600D01*
X119788645Y-94156600D01*
X119694720Y-94156600D01*
X119627681Y-94136915D01*
X119581926Y-94084111D01*
X119571982Y-94014953D01*
X119601007Y-93951397D01*
X119607039Y-93944919D01*
X121006797Y-92545161D01*
X121068120Y-92511676D01*
X121094478Y-92508842D01*
X122670064Y-92508842D01*
X122686247Y-92509902D01*
X122715158Y-92513709D01*
X122862392Y-92494325D01*
X122999591Y-92437495D01*
X123087826Y-92369791D01*
X123087826Y-92369790D01*
X123097219Y-92362582D01*
X123117408Y-92347092D01*
X123135161Y-92323954D01*
X123145848Y-92311767D01*
X126590797Y-88866818D01*
X126652120Y-88833334D01*
X126678478Y-88830500D01*
X126842245Y-88830500D01*
X126844690Y-88830500D01*
X126880993Y-88827643D01*
X127036395Y-88782494D01*
X127175687Y-88700117D01*
X127290117Y-88585687D01*
X127372494Y-88446395D01*
X127417643Y-88290993D01*
X127420500Y-88254690D01*
X127420500Y-87845310D01*
X127417643Y-87809007D01*
X127409237Y-87780075D01*
X127372494Y-87653605D01*
X127360089Y-87632629D01*
X127342906Y-87564905D01*
X127360091Y-87506383D01*
X127372032Y-87486193D01*
X127414504Y-87340000D01*
X127108353Y-87340000D01*
X127045232Y-87322732D01*
X127036394Y-87317505D01*
X126880996Y-87272357D01*
X126847124Y-87269691D01*
X126847110Y-87269690D01*
X126844690Y-87269500D01*
X126375310Y-87269500D01*
X126372890Y-87269690D01*
X126372875Y-87269691D01*
X126339003Y-87272357D01*
X126183608Y-87317504D01*
X126174768Y-87322732D01*
X126115585Y-87357732D01*
X126052466Y-87375000D01*
X125813979Y-87375000D01*
X125746940Y-87355315D01*
X125726298Y-87338681D01*
X125531819Y-87144202D01*
X125498334Y-87082879D01*
X125495500Y-87056521D01*
X125495500Y-86892755D01*
X125495500Y-86890310D01*
X125492643Y-86854007D01*
X125457165Y-86731892D01*
X125447495Y-86698606D01*
X125442268Y-86689768D01*
X125424999Y-86626645D01*
X125424999Y-86305739D01*
X125408255Y-86283304D01*
X125400500Y-86240139D01*
X125400500Y-86024500D01*
X125420185Y-85957461D01*
X125472989Y-85911706D01*
X125524500Y-85900500D01*
X125835308Y-85900500D01*
X125839361Y-85900500D01*
X125916309Y-85890369D01*
X125985341Y-85901134D01*
G37*
G04 #@! TD.AperFunction*
G04 #@! TA.AperFunction,Conductor*
G36*
X129533778Y-93942258D02*
G01*
X129566748Y-93965855D01*
X129812817Y-94211924D01*
X129846302Y-94273247D01*
X129841318Y-94342939D01*
X129812818Y-94387286D01*
X129681503Y-94518601D01*
X129545965Y-94712170D01*
X129446097Y-94926336D01*
X129384936Y-95154592D01*
X129364340Y-95389999D01*
X129384936Y-95625407D01*
X129429709Y-95792502D01*
X129446097Y-95853663D01*
X129545965Y-96067830D01*
X129681505Y-96261401D01*
X129848599Y-96428495D01*
X130034160Y-96558426D01*
X130077783Y-96613002D01*
X130084976Y-96682501D01*
X130053454Y-96744855D01*
X130034158Y-96761575D01*
X129851463Y-96889500D01*
X129848595Y-96891508D01*
X129681505Y-97058598D01*
X129545965Y-97252170D01*
X129446097Y-97466336D01*
X129384936Y-97694592D01*
X129364340Y-97930000D01*
X129384936Y-98165407D01*
X129425437Y-98316557D01*
X129446097Y-98393663D01*
X129545965Y-98607830D01*
X129681505Y-98801401D01*
X129848599Y-98968495D01*
X130034596Y-99098732D01*
X130078219Y-99153307D01*
X130085412Y-99222806D01*
X130053890Y-99285160D01*
X130034595Y-99301880D01*
X129848919Y-99431892D01*
X129681890Y-99598921D01*
X129546400Y-99792421D01*
X129446569Y-100006507D01*
X129389364Y-100219999D01*
X129389364Y-100220000D01*
X130286314Y-100220000D01*
X130260507Y-100260156D01*
X130220000Y-100398111D01*
X130220000Y-100541889D01*
X130260507Y-100679844D01*
X130286314Y-100720000D01*
X129389364Y-100720000D01*
X129446569Y-100933492D01*
X129546399Y-101147576D01*
X129681893Y-101341081D01*
X129848918Y-101508106D01*
X130042423Y-101643600D01*
X130256509Y-101743430D01*
X130470000Y-101800634D01*
X130470000Y-100905501D01*
X130577685Y-100954680D01*
X130684237Y-100970000D01*
X130755763Y-100970000D01*
X130862315Y-100954680D01*
X130970000Y-100905501D01*
X130970000Y-101800633D01*
X131183490Y-101743430D01*
X131397576Y-101643600D01*
X131591081Y-101508106D01*
X131758109Y-101341078D01*
X131888119Y-101155405D01*
X131942696Y-101111780D01*
X132012194Y-101104586D01*
X132074549Y-101136109D01*
X132091265Y-101155400D01*
X132221505Y-101341401D01*
X132388599Y-101508495D01*
X132582170Y-101644035D01*
X132796337Y-101743903D01*
X133024592Y-101805063D01*
X133260000Y-101825659D01*
X133495408Y-101805063D01*
X133723663Y-101743903D01*
X133937830Y-101644035D01*
X134131401Y-101508495D01*
X134298495Y-101341401D01*
X134434035Y-101147830D01*
X134533903Y-100933663D01*
X134595063Y-100705408D01*
X134615659Y-100470000D01*
X134595063Y-100234592D01*
X134549763Y-100065528D01*
X134551426Y-99995682D01*
X134581855Y-99945759D01*
X134758320Y-99769294D01*
X134770510Y-99758605D01*
X134793650Y-99740850D01*
X134834324Y-99687841D01*
X134890749Y-99646639D01*
X134960495Y-99642484D01*
X135021416Y-99676695D01*
X135054170Y-99738412D01*
X135056699Y-99763275D01*
X135059298Y-105812893D01*
X135059103Y-105819899D01*
X135043512Y-106097521D01*
X135041955Y-106111339D01*
X134995958Y-106382056D01*
X134992864Y-106395613D01*
X134916843Y-106659486D01*
X134912250Y-106672610D01*
X134807168Y-106926303D01*
X134801135Y-106938832D01*
X134668305Y-107179169D01*
X134660907Y-107190943D01*
X134502004Y-107414896D01*
X134493334Y-107425768D01*
X134310355Y-107630522D01*
X134300522Y-107640355D01*
X134095768Y-107823334D01*
X134084896Y-107832004D01*
X133860943Y-107990907D01*
X133849169Y-107998305D01*
X133608832Y-108131135D01*
X133596303Y-108137168D01*
X133342610Y-108242250D01*
X133329486Y-108246843D01*
X133065613Y-108322864D01*
X133052056Y-108325958D01*
X132781339Y-108371955D01*
X132767521Y-108373512D01*
X132489872Y-108389105D01*
X132482919Y-108389300D01*
X128949500Y-108389300D01*
X128882461Y-108369615D01*
X128836706Y-108316811D01*
X128825500Y-108265300D01*
X128825499Y-107255439D01*
X128825499Y-107252128D01*
X128819091Y-107192517D01*
X128768796Y-107057669D01*
X128682546Y-106942454D01*
X128669568Y-106932739D01*
X128563688Y-106853477D01*
X128521817Y-106797543D01*
X128514000Y-106754215D01*
X128514000Y-105333799D01*
X130398351Y-105333799D01*
X130418117Y-105584949D01*
X130476926Y-105829910D01*
X130486113Y-105852088D01*
X130573334Y-106062659D01*
X130704964Y-106277459D01*
X130868576Y-106469024D01*
X131060141Y-106632636D01*
X131274941Y-106764266D01*
X131507689Y-106860673D01*
X131752652Y-106919483D01*
X131940918Y-106934300D01*
X131943363Y-106934300D01*
X132064237Y-106934300D01*
X132066682Y-106934300D01*
X132254948Y-106919483D01*
X132499911Y-106860673D01*
X132732659Y-106764266D01*
X132947459Y-106632636D01*
X133139024Y-106469024D01*
X133302636Y-106277459D01*
X133434266Y-106062659D01*
X133530673Y-105829911D01*
X133589483Y-105584948D01*
X133609249Y-105333800D01*
X133589483Y-105082652D01*
X133530673Y-104837689D01*
X133434266Y-104604941D01*
X133302636Y-104390141D01*
X133139024Y-104198576D01*
X132947459Y-104034964D01*
X132732659Y-103903334D01*
X132616284Y-103855130D01*
X132499910Y-103806926D01*
X132254949Y-103748117D01*
X132069116Y-103733491D01*
X132069101Y-103733490D01*
X132066682Y-103733300D01*
X131940918Y-103733300D01*
X131938499Y-103733490D01*
X131938483Y-103733491D01*
X131752650Y-103748117D01*
X131507689Y-103806926D01*
X131274939Y-103903335D01*
X131060142Y-104034963D01*
X130868576Y-104198576D01*
X130704963Y-104390142D01*
X130573335Y-104604939D01*
X130476926Y-104837689D01*
X130418117Y-105082650D01*
X130398351Y-105333799D01*
X128514000Y-105333799D01*
X128514000Y-102845784D01*
X128533684Y-102778749D01*
X128563689Y-102746521D01*
X128567327Y-102743797D01*
X128567331Y-102743796D01*
X128682546Y-102657546D01*
X128768796Y-102542331D01*
X128819091Y-102407483D01*
X128825500Y-102347873D01*
X128825499Y-101252128D01*
X128819091Y-101192517D01*
X128768796Y-101057669D01*
X128682546Y-100942454D01*
X128682543Y-100942452D01*
X128563688Y-100853477D01*
X128521817Y-100797543D01*
X128514000Y-100754189D01*
X128513999Y-100749478D01*
X128533699Y-100682442D01*
X128565116Y-100649185D01*
X128566422Y-100648235D01*
X128577454Y-100640221D01*
X128696084Y-100508469D01*
X128784729Y-100354931D01*
X128839514Y-100186319D01*
X128858046Y-100010000D01*
X128839514Y-99833681D01*
X128784729Y-99665069D01*
X128696084Y-99511530D01*
X128577453Y-99379777D01*
X128434023Y-99275570D01*
X128272060Y-99203459D01*
X128098648Y-99166600D01*
X128098645Y-99166600D01*
X127921355Y-99166600D01*
X127921352Y-99166600D01*
X127747939Y-99203459D01*
X127585976Y-99275570D01*
X127442546Y-99379777D01*
X127323915Y-99511530D01*
X127235270Y-99665069D01*
X127193973Y-99792171D01*
X127180486Y-99833681D01*
X127161954Y-100010000D01*
X127180486Y-100186319D01*
X127180487Y-100186322D01*
X127235270Y-100354930D01*
X127323915Y-100508468D01*
X127354149Y-100542046D01*
X127384379Y-100605037D01*
X127386000Y-100625020D01*
X127385999Y-100754211D01*
X127366314Y-100821250D01*
X127336311Y-100853476D01*
X127217454Y-100942452D01*
X127131204Y-101057668D01*
X127080910Y-101192515D01*
X127080909Y-101192517D01*
X127074500Y-101252127D01*
X127074500Y-101255448D01*
X127074500Y-101255449D01*
X127074500Y-102344560D01*
X127074500Y-102344578D01*
X127074501Y-102347872D01*
X127074853Y-102351152D01*
X127074854Y-102351159D01*
X127080909Y-102407484D01*
X127094778Y-102444667D01*
X127131204Y-102542331D01*
X127217454Y-102657546D01*
X127332669Y-102743796D01*
X127332670Y-102743796D01*
X127336310Y-102746521D01*
X127378182Y-102802454D01*
X127386000Y-102845788D01*
X127386000Y-106754210D01*
X127366315Y-106821249D01*
X127336311Y-106853476D01*
X127217455Y-106942451D01*
X127131204Y-107057668D01*
X127080910Y-107192515D01*
X127080909Y-107192517D01*
X127074500Y-107252127D01*
X127074500Y-107255448D01*
X127074500Y-107255449D01*
X127074501Y-108265300D01*
X127054817Y-108332339D01*
X127002013Y-108378094D01*
X126950501Y-108389300D01*
X125199000Y-108389300D01*
X125131961Y-108369615D01*
X125086206Y-108316811D01*
X125075000Y-108265300D01*
X125075000Y-108050000D01*
X124074000Y-108050000D01*
X124006961Y-108030315D01*
X123961206Y-107977511D01*
X123950000Y-107926000D01*
X123950000Y-106800000D01*
X124450000Y-106800000D01*
X124450000Y-107550000D01*
X125075000Y-107550000D01*
X125075000Y-107255481D01*
X125074645Y-107248867D01*
X125068599Y-107192628D01*
X125018352Y-107057910D01*
X124932188Y-106942811D01*
X124817089Y-106856647D01*
X124682371Y-106806400D01*
X124626132Y-106800354D01*
X124619518Y-106800000D01*
X124450000Y-106800000D01*
X123950000Y-106800000D01*
X123780482Y-106800000D01*
X123773867Y-106800354D01*
X123717628Y-106806400D01*
X123582910Y-106856647D01*
X123467811Y-106942811D01*
X123381645Y-107057913D01*
X123366180Y-107099377D01*
X123324308Y-107155310D01*
X123258843Y-107179726D01*
X123190570Y-107164873D01*
X123141166Y-107115467D01*
X123133817Y-107099374D01*
X123118353Y-107057912D01*
X123032188Y-106942811D01*
X122917089Y-106856647D01*
X122782371Y-106806400D01*
X122726132Y-106800354D01*
X122719518Y-106800000D01*
X122550000Y-106800000D01*
X122550000Y-107926000D01*
X122530315Y-107993039D01*
X122477511Y-108038794D01*
X122426000Y-108050000D01*
X121425000Y-108050000D01*
X121425000Y-108265300D01*
X121405315Y-108332339D01*
X121352511Y-108378094D01*
X121301000Y-108389300D01*
X120337851Y-108389300D01*
X120270812Y-108369615D01*
X120225057Y-108316811D01*
X120215113Y-108247653D01*
X120230464Y-108203300D01*
X120239918Y-108186922D01*
X120249729Y-108169931D01*
X120304514Y-108001319D01*
X120323046Y-107825000D01*
X120304514Y-107648681D01*
X120272451Y-107550000D01*
X121425000Y-107550000D01*
X122050000Y-107550000D01*
X122050000Y-106800000D01*
X121880482Y-106800000D01*
X121873867Y-106800354D01*
X121817628Y-106806400D01*
X121682910Y-106856647D01*
X121567811Y-106942811D01*
X121481647Y-107057910D01*
X121431400Y-107192628D01*
X121425354Y-107248867D01*
X121425000Y-107255481D01*
X121425000Y-107550000D01*
X120272451Y-107550000D01*
X120249729Y-107480069D01*
X120249728Y-107480068D01*
X120161084Y-107326530D01*
X120042453Y-107194777D01*
X119899023Y-107090570D01*
X119737060Y-107018459D01*
X119563648Y-106981600D01*
X119563645Y-106981600D01*
X119386355Y-106981600D01*
X119373921Y-106981600D01*
X119306882Y-106961915D01*
X119297079Y-106952789D01*
X119296818Y-106953138D01*
X119167331Y-106856204D01*
X119032483Y-106805909D01*
X118976166Y-106799854D01*
X118976165Y-106799853D01*
X118972873Y-106799500D01*
X118969550Y-106799500D01*
X118130439Y-106799500D01*
X118130420Y-106799500D01*
X118127128Y-106799501D01*
X118123848Y-106799853D01*
X118123840Y-106799854D01*
X118067515Y-106805909D01*
X117932669Y-106856204D01*
X117817454Y-106942454D01*
X117731201Y-107057672D01*
X117730913Y-107058447D01*
X117689040Y-107114380D01*
X117623575Y-107138794D01*
X117555302Y-107123940D01*
X117505899Y-107074533D01*
X117498551Y-107058443D01*
X117498352Y-107057911D01*
X117412188Y-106942811D01*
X117297089Y-106856647D01*
X117162371Y-106806400D01*
X117106132Y-106800354D01*
X117099518Y-106800000D01*
X116930000Y-106800000D01*
X116930000Y-107926000D01*
X116910315Y-107993039D01*
X116857511Y-108038794D01*
X116806000Y-108050000D01*
X115805000Y-108050000D01*
X115805000Y-108265300D01*
X115785315Y-108332339D01*
X115732511Y-108378094D01*
X115681000Y-108389300D01*
X113929500Y-108389300D01*
X113862461Y-108369615D01*
X113816706Y-108316811D01*
X113805500Y-108265300D01*
X113805499Y-107550000D01*
X115805000Y-107550000D01*
X116430000Y-107550000D01*
X116430000Y-106800000D01*
X116260482Y-106800000D01*
X116253867Y-106800354D01*
X116197628Y-106806400D01*
X116062910Y-106856647D01*
X115947811Y-106942811D01*
X115861647Y-107057910D01*
X115811400Y-107192628D01*
X115805354Y-107248867D01*
X115805000Y-107255481D01*
X115805000Y-107550000D01*
X113805499Y-107550000D01*
X113805499Y-107255439D01*
X113805499Y-107252128D01*
X113799091Y-107192517D01*
X113748796Y-107057669D01*
X113662546Y-106942454D01*
X113662545Y-106942453D01*
X113662544Y-106942451D01*
X113543689Y-106853476D01*
X113501818Y-106797543D01*
X113494000Y-106754210D01*
X113494000Y-102845788D01*
X113513685Y-102778749D01*
X113543690Y-102746521D01*
X113547329Y-102743796D01*
X113547331Y-102743796D01*
X113662546Y-102657546D01*
X113748796Y-102542331D01*
X113799091Y-102407483D01*
X113805500Y-102347873D01*
X113805500Y-102050000D01*
X115805000Y-102050000D01*
X115805000Y-102344518D01*
X115805354Y-102351132D01*
X115811400Y-102407371D01*
X115861647Y-102542089D01*
X115947811Y-102657188D01*
X116062910Y-102743352D01*
X116197628Y-102793599D01*
X116253867Y-102799645D01*
X116260482Y-102800000D01*
X116430000Y-102800000D01*
X116930000Y-102800000D01*
X117099518Y-102800000D01*
X117106132Y-102799645D01*
X117162371Y-102793599D01*
X117297089Y-102743352D01*
X117412188Y-102657188D01*
X117498351Y-102542089D01*
X117498550Y-102541558D01*
X117540420Y-102485624D01*
X117605884Y-102461205D01*
X117674157Y-102476055D01*
X117723564Y-102525460D01*
X117730914Y-102541554D01*
X117731202Y-102542328D01*
X117731203Y-102542330D01*
X117731204Y-102542331D01*
X117817454Y-102657546D01*
X117932669Y-102743796D01*
X118067517Y-102794091D01*
X118127127Y-102800500D01*
X118972872Y-102800499D01*
X119032483Y-102794091D01*
X119167331Y-102743796D01*
X119282546Y-102657546D01*
X119282546Y-102657545D01*
X119296818Y-102646862D01*
X119299041Y-102649832D01*
X119330598Y-102626214D01*
X119373921Y-102618400D01*
X119413648Y-102618400D01*
X119543706Y-102590755D01*
X119587061Y-102581540D01*
X119749023Y-102509429D01*
X119871737Y-102420273D01*
X119892453Y-102405222D01*
X119929570Y-102364000D01*
X120011084Y-102273469D01*
X120099729Y-102119931D01*
X120122451Y-102050000D01*
X121425000Y-102050000D01*
X121425000Y-102344518D01*
X121425354Y-102351132D01*
X121431400Y-102407371D01*
X121481647Y-102542089D01*
X121567811Y-102657188D01*
X121682910Y-102743352D01*
X121817628Y-102793599D01*
X121873867Y-102799645D01*
X121880482Y-102800000D01*
X122050000Y-102800000D01*
X122050000Y-102050000D01*
X121425000Y-102050000D01*
X120122451Y-102050000D01*
X120154514Y-101951319D01*
X120173046Y-101775000D01*
X120154514Y-101598681D01*
X120138697Y-101550000D01*
X121425000Y-101550000D01*
X122050000Y-101550000D01*
X122050000Y-100800000D01*
X122550000Y-100800000D01*
X122550000Y-102800000D01*
X122719518Y-102800000D01*
X122726132Y-102799645D01*
X122782371Y-102793599D01*
X122917089Y-102743352D01*
X123032188Y-102657188D01*
X123118351Y-102542089D01*
X123133816Y-102500626D01*
X123175687Y-102444691D01*
X123241151Y-102420273D01*
X123309424Y-102435124D01*
X123358830Y-102484528D01*
X123366180Y-102500622D01*
X123381646Y-102542086D01*
X123467811Y-102657188D01*
X123582910Y-102743352D01*
X123717628Y-102793599D01*
X123773867Y-102799645D01*
X123780482Y-102800000D01*
X123950000Y-102800000D01*
X123950000Y-102050000D01*
X124450000Y-102050000D01*
X124450000Y-102800000D01*
X124619518Y-102800000D01*
X124626132Y-102799645D01*
X124682371Y-102793599D01*
X124817089Y-102743352D01*
X124932188Y-102657188D01*
X125018352Y-102542089D01*
X125068599Y-102407371D01*
X125074645Y-102351132D01*
X125075000Y-102344518D01*
X125075000Y-102050000D01*
X124450000Y-102050000D01*
X123950000Y-102050000D01*
X123950000Y-100800000D01*
X124450000Y-100800000D01*
X124450000Y-101550000D01*
X125075000Y-101550000D01*
X125075000Y-101255481D01*
X125074645Y-101248867D01*
X125068599Y-101192628D01*
X125018352Y-101057910D01*
X124932188Y-100942811D01*
X124817089Y-100856647D01*
X124682371Y-100806400D01*
X124626132Y-100800354D01*
X124619518Y-100800000D01*
X124450000Y-100800000D01*
X123950000Y-100800000D01*
X123780482Y-100800000D01*
X123773867Y-100800354D01*
X123717628Y-100806400D01*
X123582910Y-100856647D01*
X123467811Y-100942811D01*
X123381647Y-101057910D01*
X123366182Y-101099376D01*
X123324310Y-101155309D01*
X123258846Y-101179726D01*
X123190573Y-101164874D01*
X123141168Y-101115469D01*
X123133818Y-101099376D01*
X123118352Y-101057910D01*
X123032188Y-100942811D01*
X122917089Y-100856647D01*
X122782371Y-100806400D01*
X122726132Y-100800354D01*
X122719518Y-100800000D01*
X122550000Y-100800000D01*
X122050000Y-100800000D01*
X121880482Y-100800000D01*
X121873867Y-100800354D01*
X121817628Y-100806400D01*
X121682910Y-100856647D01*
X121567811Y-100942811D01*
X121481647Y-101057910D01*
X121431400Y-101192628D01*
X121425354Y-101248867D01*
X121425000Y-101255481D01*
X121425000Y-101550000D01*
X120138697Y-101550000D01*
X120099729Y-101430069D01*
X120099729Y-101430068D01*
X120011084Y-101276530D01*
X119892453Y-101144777D01*
X119749023Y-101040570D01*
X119587060Y-100968459D01*
X119413648Y-100931600D01*
X119413645Y-100931600D01*
X119309319Y-100931600D01*
X119242280Y-100911915D01*
X119235009Y-100906867D01*
X119167333Y-100856205D01*
X119167331Y-100856204D01*
X119032483Y-100805909D01*
X118980816Y-100800354D01*
X118976166Y-100799854D01*
X118976165Y-100799853D01*
X118972873Y-100799500D01*
X118969550Y-100799500D01*
X118130439Y-100799500D01*
X118130420Y-100799500D01*
X118127128Y-100799501D01*
X118123848Y-100799853D01*
X118123840Y-100799854D01*
X118067515Y-100805909D01*
X117932669Y-100856204D01*
X117817454Y-100942454D01*
X117731201Y-101057672D01*
X117730913Y-101058447D01*
X117689040Y-101114380D01*
X117623575Y-101138794D01*
X117555302Y-101123940D01*
X117505899Y-101074533D01*
X117498551Y-101058443D01*
X117498352Y-101057911D01*
X117412188Y-100942811D01*
X117297089Y-100856647D01*
X117162371Y-100806400D01*
X117106132Y-100800354D01*
X117099518Y-100800000D01*
X116930000Y-100800000D01*
X116930000Y-102800000D01*
X116430000Y-102800000D01*
X116430000Y-102050000D01*
X115805000Y-102050000D01*
X113805500Y-102050000D01*
X113805499Y-101550000D01*
X115805000Y-101550000D01*
X116430000Y-101550000D01*
X116430000Y-100800000D01*
X116260482Y-100800000D01*
X116253867Y-100800354D01*
X116197628Y-100806400D01*
X116062910Y-100856647D01*
X115947811Y-100942811D01*
X115861647Y-101057910D01*
X115811400Y-101192628D01*
X115805354Y-101248867D01*
X115805000Y-101255481D01*
X115805000Y-101550000D01*
X113805499Y-101550000D01*
X113805499Y-101252128D01*
X113799091Y-101192517D01*
X113748796Y-101057669D01*
X113662546Y-100942454D01*
X113547331Y-100856204D01*
X113412483Y-100805909D01*
X113360816Y-100800354D01*
X113356166Y-100799854D01*
X113356165Y-100799853D01*
X113352873Y-100799500D01*
X113349550Y-100799500D01*
X112510439Y-100799500D01*
X112510420Y-100799500D01*
X112507128Y-100799501D01*
X112503848Y-100799853D01*
X112503840Y-100799854D01*
X112447515Y-100805909D01*
X112319983Y-100853476D01*
X112312669Y-100856204D01*
X112197454Y-100942454D01*
X112111204Y-101057669D01*
X112077578Y-101147827D01*
X112074778Y-101155333D01*
X112032907Y-101211267D01*
X111967442Y-101235684D01*
X111958596Y-101236000D01*
X110042664Y-101236000D01*
X109975625Y-101216315D01*
X109954983Y-101199681D01*
X108209534Y-99454232D01*
X108176049Y-99392909D01*
X108181033Y-99323217D01*
X108222905Y-99267284D01*
X108288369Y-99242867D01*
X108347651Y-99253272D01*
X108412940Y-99282341D01*
X108586352Y-99319200D01*
X108586355Y-99319200D01*
X108763648Y-99319200D01*
X108893707Y-99291555D01*
X108937061Y-99282340D01*
X109099023Y-99210229D01*
X109131432Y-99186683D01*
X109242453Y-99106022D01*
X109249294Y-99098425D01*
X109265138Y-99080827D01*
X109324624Y-99044179D01*
X109357288Y-99039800D01*
X114233448Y-99039800D01*
X114249631Y-99040860D01*
X114278542Y-99044667D01*
X114425776Y-99025283D01*
X114562975Y-98968453D01*
X114651210Y-98900749D01*
X114651210Y-98900748D01*
X114660603Y-98893540D01*
X114680792Y-98878050D01*
X114698545Y-98854912D01*
X114709232Y-98842725D01*
X115536957Y-98015000D01*
X118467704Y-98015000D01*
X118467900Y-98017488D01*
X118513719Y-98175200D01*
X118597317Y-98316557D01*
X118713442Y-98432682D01*
X118854802Y-98516282D01*
X119012506Y-98562099D01*
X119046923Y-98564808D01*
X119051803Y-98565000D01*
X119452499Y-98565000D01*
X119452500Y-98015000D01*
X119952500Y-98015000D01*
X119952500Y-98565000D01*
X120353197Y-98565000D01*
X120358076Y-98564808D01*
X120392493Y-98562099D01*
X120550197Y-98516282D01*
X120691557Y-98432682D01*
X120807682Y-98316557D01*
X120891280Y-98175200D01*
X120937099Y-98017488D01*
X120937295Y-98015000D01*
X119952500Y-98015000D01*
X119452500Y-98015000D01*
X118467704Y-98015000D01*
X115536957Y-98015000D01*
X116036958Y-97514999D01*
X118467704Y-97514999D01*
X118467705Y-97515000D01*
X119452499Y-97515000D01*
X119452500Y-96965000D01*
X119051803Y-96965000D01*
X119046923Y-96965191D01*
X119012506Y-96967900D01*
X118854802Y-97013717D01*
X118713442Y-97097317D01*
X118597317Y-97213442D01*
X118513719Y-97354799D01*
X118467900Y-97512511D01*
X118467704Y-97514999D01*
X116036958Y-97514999D01*
X118639596Y-94912360D01*
X118700917Y-94878877D01*
X118770609Y-94883861D01*
X118826542Y-94925733D01*
X118850596Y-94987083D01*
X118854994Y-95028933D01*
X118842424Y-95097663D01*
X118794795Y-95148624D01*
X118713135Y-95196918D01*
X118596919Y-95313134D01*
X118513255Y-95454602D01*
X118467402Y-95612427D01*
X118464691Y-95646871D01*
X118464690Y-95646886D01*
X118464500Y-95649306D01*
X118464500Y-96080694D01*
X118464690Y-96083114D01*
X118464691Y-96083128D01*
X118467402Y-96117572D01*
X118513255Y-96275397D01*
X118570556Y-96372287D01*
X118596919Y-96416865D01*
X118713135Y-96533081D01*
X118812201Y-96591668D01*
X118854602Y-96616744D01*
X119012427Y-96662597D01*
X119012431Y-96662598D01*
X119049306Y-96665500D01*
X120215500Y-96665500D01*
X120282539Y-96685185D01*
X120328294Y-96737989D01*
X120339500Y-96789500D01*
X120339500Y-96841000D01*
X120319815Y-96908039D01*
X120267011Y-96953794D01*
X120215500Y-96965000D01*
X119952500Y-96965000D01*
X119952500Y-97515000D01*
X120608185Y-97515000D01*
X120671306Y-97532268D01*
X120729602Y-97566744D01*
X120887427Y-97612597D01*
X120887431Y-97612598D01*
X120924306Y-97615500D01*
X121526718Y-97615500D01*
X121593757Y-97635185D01*
X121625095Y-97664015D01*
X121635250Y-97677251D01*
X121718815Y-97741371D01*
X121749501Y-97764917D01*
X121753067Y-97767653D01*
X121890266Y-97824483D01*
X122020370Y-97841611D01*
X122037499Y-97843867D01*
X122037499Y-97843866D01*
X122037500Y-97843867D01*
X122066410Y-97840060D01*
X122082594Y-97839000D01*
X122383904Y-97839000D01*
X122450943Y-97858685D01*
X122471585Y-97875317D01*
X122562402Y-97966135D01*
X122700607Y-98047869D01*
X122854796Y-98092665D01*
X122890819Y-98095500D01*
X123289180Y-98095499D01*
X123325204Y-98092665D01*
X123479393Y-98047869D01*
X123536879Y-98013871D01*
X123604601Y-97996688D01*
X123663120Y-98013871D01*
X123665029Y-98015000D01*
X123720606Y-98047869D01*
X123803577Y-98071974D01*
X123874796Y-98092665D01*
X123910819Y-98095500D01*
X124309180Y-98095499D01*
X124345204Y-98092665D01*
X124416422Y-98071974D01*
X124486290Y-98072173D01*
X124538695Y-98103367D01*
X124644609Y-98209281D01*
X124787713Y-98297549D01*
X124845075Y-98316557D01*
X124947314Y-98350436D01*
X125042693Y-98360180D01*
X125042694Y-98360180D01*
X125045826Y-98360500D01*
X125048975Y-98360500D01*
X125651025Y-98360500D01*
X125654174Y-98360500D01*
X125752685Y-98350436D01*
X125912287Y-98297549D01*
X126055391Y-98209281D01*
X126174281Y-98090391D01*
X126262549Y-97947287D01*
X126315436Y-97787685D01*
X126325500Y-97689174D01*
X126325500Y-97155826D01*
X126315436Y-97057315D01*
X126262549Y-96897713D01*
X126174281Y-96754609D01*
X126174280Y-96754608D01*
X126174279Y-96754606D01*
X126142354Y-96722682D01*
X126108868Y-96661360D01*
X126113852Y-96591668D01*
X126142354Y-96547318D01*
X126174279Y-96515393D01*
X126174281Y-96515391D01*
X126262549Y-96372287D01*
X126315436Y-96212685D01*
X126325500Y-96114174D01*
X126325500Y-95580826D01*
X126315436Y-95482315D01*
X126313435Y-95476277D01*
X126283528Y-95386024D01*
X126262549Y-95322713D01*
X126174281Y-95179609D01*
X126174280Y-95179608D01*
X126174279Y-95179606D01*
X126102472Y-95107799D01*
X126068987Y-95046476D01*
X126073971Y-94976784D01*
X126115843Y-94920851D01*
X126165707Y-94902252D01*
X126164980Y-94898828D01*
X126302058Y-94869691D01*
X126351143Y-94859258D01*
X126513105Y-94787147D01*
X126577292Y-94740513D01*
X126656535Y-94682940D01*
X126775166Y-94551187D01*
X126837859Y-94442600D01*
X126888426Y-94394385D01*
X126945246Y-94380600D01*
X127856580Y-94380600D01*
X127923619Y-94400285D01*
X127948730Y-94421628D01*
X127971414Y-94446822D01*
X128114844Y-94551029D01*
X128276807Y-94623140D01*
X128450220Y-94660000D01*
X128450223Y-94660000D01*
X128627516Y-94660000D01*
X128757575Y-94632354D01*
X128800929Y-94623140D01*
X128962891Y-94551029D01*
X129056776Y-94482818D01*
X129106321Y-94446822D01*
X129150598Y-94397648D01*
X129224952Y-94315069D01*
X129313597Y-94161531D01*
X129361136Y-94015218D01*
X129400573Y-93957543D01*
X129464931Y-93930344D01*
X129533778Y-93942258D01*
G37*
G04 #@! TD.AperFunction*
G04 #@! TA.AperFunction,Conductor*
G36*
X121452907Y-87828609D02*
G01*
X121469803Y-87840000D01*
X122315500Y-87840000D01*
X122382539Y-87859685D01*
X122428294Y-87912489D01*
X122439500Y-87964000D01*
X122439500Y-88216000D01*
X122419815Y-88283039D01*
X122367011Y-88328794D01*
X122315500Y-88340000D01*
X121454794Y-88340000D01*
X121453881Y-88340546D01*
X121422820Y-88344500D01*
X121203141Y-88344500D01*
X121203121Y-88344500D01*
X121199992Y-88344501D01*
X121196860Y-88344820D01*
X121196858Y-88344821D01*
X121097203Y-88355000D01*
X120930665Y-88410186D01*
X120781342Y-88502288D01*
X120657286Y-88626344D01*
X120655242Y-88629659D01*
X120603292Y-88676382D01*
X120534329Y-88687601D01*
X120470248Y-88659755D01*
X120444168Y-88629656D01*
X120442316Y-88626654D01*
X120318345Y-88502683D01*
X120169122Y-88410642D01*
X120002696Y-88355493D01*
X119903112Y-88345320D01*
X119896108Y-88344963D01*
X119830158Y-88321891D01*
X119787151Y-88266825D01*
X119779483Y-88204938D01*
X119784366Y-88167846D01*
X119784367Y-88167842D01*
X119780820Y-88140908D01*
X119791585Y-88071875D01*
X119837964Y-88019618D01*
X119905232Y-88000732D01*
X119972033Y-88021211D01*
X119976644Y-88024405D01*
X120029463Y-88062780D01*
X120191426Y-88134891D01*
X120364839Y-88171751D01*
X120364842Y-88171751D01*
X120542135Y-88171751D01*
X120681326Y-88142165D01*
X120715548Y-88134891D01*
X120877510Y-88062780D01*
X121020941Y-87958572D01*
X121087700Y-87884427D01*
X121147186Y-87847780D01*
X121179850Y-87843400D01*
X121288645Y-87843400D01*
X121383241Y-87823293D01*
X121452907Y-87828609D01*
G37*
G04 #@! TD.AperFunction*
G04 #@! TA.AperFunction,Conductor*
G36*
X124797403Y-88005466D02*
G01*
X124803881Y-88011498D01*
X125209302Y-88416919D01*
X125219998Y-88429115D01*
X125246395Y-88463517D01*
X125271588Y-88528686D01*
X125257549Y-88597131D01*
X125235699Y-88626683D01*
X123535450Y-90326932D01*
X123490294Y-90351589D01*
X123478147Y-90382789D01*
X123467632Y-90394750D01*
X122517860Y-91344523D01*
X122456537Y-91378008D01*
X122430179Y-91380842D01*
X120854594Y-91380842D01*
X120838410Y-91379781D01*
X120809500Y-91375975D01*
X120809499Y-91375975D01*
X120794058Y-91378008D01*
X120772532Y-91380842D01*
X120717398Y-91388100D01*
X120662265Y-91395359D01*
X120525066Y-91452189D01*
X120407248Y-91542592D01*
X120389493Y-91565731D01*
X120378800Y-91577924D01*
X120103630Y-91853094D01*
X120042307Y-91886579D01*
X119972615Y-91881595D01*
X119943064Y-91865731D01*
X119874023Y-91815570D01*
X119712060Y-91743459D01*
X119538648Y-91706600D01*
X119538645Y-91706600D01*
X119455578Y-91706600D01*
X119388539Y-91686915D01*
X119367897Y-91670281D01*
X118423501Y-90725884D01*
X118390016Y-90664561D01*
X118387182Y-90638203D01*
X118387182Y-90292209D01*
X118406867Y-90225170D01*
X118459671Y-90179415D01*
X118528829Y-90169471D01*
X118592385Y-90198496D01*
X118628888Y-90253205D01*
X118665642Y-90364122D01*
X118757683Y-90513345D01*
X118881654Y-90637316D01*
X119030877Y-90729357D01*
X119197303Y-90784506D01*
X119296891Y-90794680D01*
X119303167Y-90794999D01*
X119349999Y-90794999D01*
X119350000Y-90794998D01*
X119350000Y-89444000D01*
X119369685Y-89376961D01*
X119422489Y-89331206D01*
X119474000Y-89320000D01*
X119726000Y-89320000D01*
X119793039Y-89339685D01*
X119838794Y-89392489D01*
X119850000Y-89444000D01*
X119850000Y-90794999D01*
X119896829Y-90794999D01*
X119903111Y-90794678D01*
X120002695Y-90784506D01*
X120169122Y-90729357D01*
X120318345Y-90637316D01*
X120442313Y-90513348D01*
X120444164Y-90510348D01*
X120496110Y-90463621D01*
X120565072Y-90452396D01*
X120629156Y-90480236D01*
X120655246Y-90510345D01*
X120657290Y-90513659D01*
X120781342Y-90637711D01*
X120781344Y-90637712D01*
X120930666Y-90729814D01*
X121042017Y-90766712D01*
X121097202Y-90784999D01*
X121196858Y-90795180D01*
X121196859Y-90795180D01*
X121199991Y-90795500D01*
X121800008Y-90795499D01*
X121902797Y-90784999D01*
X122069334Y-90729814D01*
X122218656Y-90637712D01*
X122342712Y-90513656D01*
X122388289Y-90439762D01*
X122440236Y-90393038D01*
X122509199Y-90381815D01*
X122519606Y-90383568D01*
X122548531Y-90389716D01*
X122659953Y-90413400D01*
X122659955Y-90413400D01*
X122837248Y-90413400D01*
X122967307Y-90385755D01*
X123010661Y-90376540D01*
X123172623Y-90304429D01*
X123307067Y-90206750D01*
X123335268Y-90196687D01*
X123338937Y-90179824D01*
X123355620Y-90156278D01*
X123358428Y-90153160D01*
X123434684Y-90068469D01*
X123523329Y-89914931D01*
X123578114Y-89746319D01*
X123596646Y-89570000D01*
X123596645Y-89569995D01*
X123597978Y-89557317D01*
X123624562Y-89492702D01*
X123633609Y-89482606D01*
X124200160Y-88916055D01*
X124240384Y-88889179D01*
X124312633Y-88859253D01*
X124430450Y-88768850D01*
X124449198Y-88744417D01*
X124520853Y-88651034D01*
X124577683Y-88513834D01*
X124597067Y-88366600D01*
X124594182Y-88344685D01*
X124594182Y-88312319D01*
X124597068Y-88290400D01*
X124593261Y-88261482D01*
X124592200Y-88245297D01*
X124592200Y-88099179D01*
X124611885Y-88032140D01*
X124664689Y-87986385D01*
X124733847Y-87976441D01*
X124797403Y-88005466D01*
G37*
G04 #@! TD.AperFunction*
G04 #@! TA.AperFunction,Conductor*
G36*
X109743039Y-83019685D02*
G01*
X109788794Y-83072489D01*
X109800000Y-83124000D01*
X109800000Y-85450000D01*
X111614100Y-85450000D01*
X111681139Y-85469685D01*
X111726894Y-85522489D01*
X111738100Y-85574000D01*
X111738099Y-86098662D01*
X111718414Y-86165702D01*
X111705000Y-86180130D01*
X111705000Y-86672204D01*
X111685315Y-86739243D01*
X111668682Y-86759884D01*
X111513384Y-86915182D01*
X111452063Y-86948666D01*
X111425705Y-86951500D01*
X111329000Y-86951500D01*
X111261961Y-86931815D01*
X111216206Y-86879011D01*
X111205000Y-86827500D01*
X111205000Y-86185472D01*
X111079810Y-86221844D01*
X110943887Y-86302228D01*
X110908033Y-86338083D01*
X110846710Y-86371567D01*
X110777018Y-86366582D01*
X110732671Y-86338081D01*
X110696420Y-86301830D01*
X110560389Y-86221381D01*
X110408629Y-86177291D01*
X110375597Y-86174691D01*
X110375582Y-86174690D01*
X110373163Y-86174500D01*
X110370717Y-86174500D01*
X109999261Y-86174500D01*
X109999235Y-86174500D01*
X109996838Y-86174501D01*
X109994429Y-86174690D01*
X109994416Y-86174691D01*
X109961371Y-86177290D01*
X109809610Y-86221381D01*
X109673578Y-86301830D01*
X109637681Y-86337728D01*
X109576358Y-86371213D01*
X109506666Y-86366229D01*
X109462319Y-86337728D01*
X109426421Y-86301830D01*
X109290389Y-86221381D01*
X109138629Y-86177291D01*
X109105597Y-86174691D01*
X109105582Y-86174690D01*
X109103163Y-86174500D01*
X109100717Y-86174500D01*
X108729261Y-86174500D01*
X108729235Y-86174500D01*
X108726838Y-86174501D01*
X108724429Y-86174690D01*
X108724416Y-86174691D01*
X108691371Y-86177290D01*
X108539610Y-86221381D01*
X108403578Y-86301830D01*
X108367681Y-86337728D01*
X108306358Y-86371213D01*
X108236666Y-86366229D01*
X108192319Y-86337728D01*
X108156421Y-86301830D01*
X108020389Y-86221381D01*
X107857905Y-86174175D01*
X107799019Y-86136569D01*
X107769813Y-86073096D01*
X107768500Y-86055099D01*
X107768500Y-85574000D01*
X107788185Y-85506961D01*
X107840989Y-85461206D01*
X107892500Y-85450000D01*
X109299999Y-85450000D01*
X109300000Y-83124000D01*
X109319685Y-83056961D01*
X109372489Y-83011206D01*
X109424000Y-83000000D01*
X109676000Y-83000000D01*
X109743039Y-83019685D01*
G37*
G04 #@! TD.AperFunction*
G04 #@! TA.AperFunction,Conductor*
G36*
X128080209Y-80364460D02*
G01*
X128106915Y-80384752D01*
X129279578Y-81557415D01*
X129290273Y-81569610D01*
X129308028Y-81592750D01*
X129388817Y-81654740D01*
X129411733Y-81672324D01*
X129425846Y-81683153D01*
X129555277Y-81736765D01*
X129609680Y-81780606D01*
X129631745Y-81846900D01*
X129614466Y-81914600D01*
X129609399Y-81922449D01*
X129546400Y-82012420D01*
X129446569Y-82226507D01*
X129389364Y-82439999D01*
X129389364Y-82440000D01*
X130286314Y-82440000D01*
X130260507Y-82480156D01*
X130220000Y-82618111D01*
X130220000Y-82761889D01*
X130260507Y-82899844D01*
X130286314Y-82940000D01*
X129389363Y-82940000D01*
X129387389Y-82942573D01*
X129372884Y-82953163D01*
X129378685Y-82956587D01*
X129407907Y-83009205D01*
X129446569Y-83153492D01*
X129546399Y-83367576D01*
X129681893Y-83561081D01*
X129848918Y-83728106D01*
X130034595Y-83858119D01*
X130078219Y-83912696D01*
X130085412Y-83982195D01*
X130053890Y-84044549D01*
X130034595Y-84061269D01*
X129979282Y-84100000D01*
X129856006Y-84186319D01*
X129848595Y-84191508D01*
X129681505Y-84358598D01*
X129545965Y-84552170D01*
X129446097Y-84766336D01*
X129384936Y-84994592D01*
X129366739Y-85202581D01*
X129341286Y-85267649D01*
X129284695Y-85308628D01*
X129214933Y-85312506D01*
X129192775Y-85305052D01*
X129154660Y-85288081D01*
X128981248Y-85251223D01*
X128981245Y-85251223D01*
X128803955Y-85251223D01*
X128803952Y-85251223D01*
X128630539Y-85288082D01*
X128468576Y-85360193D01*
X128399943Y-85410057D01*
X128334136Y-85433536D01*
X128266083Y-85417710D01*
X128239378Y-85397419D01*
X127389595Y-84547636D01*
X127356110Y-84486313D01*
X127361094Y-84416621D01*
X127369885Y-84397960D01*
X127394729Y-84354931D01*
X127449514Y-84186319D01*
X127468046Y-84010000D01*
X127449514Y-83833681D01*
X127394729Y-83665069D01*
X127345743Y-83580222D01*
X127340789Y-83571641D01*
X127324316Y-83503741D01*
X127340788Y-83447642D01*
X127382225Y-83375870D01*
X127432792Y-83327654D01*
X127501399Y-83314430D01*
X127566264Y-83340398D01*
X127597000Y-83375869D01*
X127638915Y-83448469D01*
X127757546Y-83580222D01*
X127900976Y-83684429D01*
X128062939Y-83756540D01*
X128236352Y-83793400D01*
X128236355Y-83793400D01*
X128413648Y-83793400D01*
X128543706Y-83765755D01*
X128587061Y-83756540D01*
X128749023Y-83684429D01*
X128892454Y-83580221D01*
X129011084Y-83448469D01*
X129099729Y-83294931D01*
X129154514Y-83126319D01*
X129164812Y-83028333D01*
X129191395Y-82963723D01*
X129203309Y-82955408D01*
X129200294Y-82953715D01*
X129167542Y-82891998D01*
X129165694Y-82880058D01*
X129154514Y-82773681D01*
X129099729Y-82605069D01*
X129067070Y-82548502D01*
X129011084Y-82451530D01*
X128892453Y-82319777D01*
X128749023Y-82215570D01*
X128587060Y-82143459D01*
X128434002Y-82110926D01*
X128372520Y-82077734D01*
X128338744Y-82016571D01*
X128336165Y-81979906D01*
X128337590Y-81961800D01*
X127860779Y-81961800D01*
X127793740Y-81942115D01*
X127773098Y-81925481D01*
X127688619Y-81841002D01*
X127655134Y-81779679D01*
X127652300Y-81753321D01*
X127652300Y-81585800D01*
X127671985Y-81518761D01*
X127724789Y-81473006D01*
X127776300Y-81461800D01*
X128337590Y-81461800D01*
X128335945Y-81440884D01*
X128290832Y-81285605D01*
X128208518Y-81146420D01*
X128094179Y-81032081D01*
X127954994Y-80949767D01*
X127808801Y-80907293D01*
X127808799Y-80907294D01*
X127808800Y-81060510D01*
X127789115Y-81127549D01*
X127736311Y-81173304D01*
X127667153Y-81183248D01*
X127603597Y-81154223D01*
X127586424Y-81135996D01*
X127560529Y-81102249D01*
X127484679Y-81003399D01*
X127459485Y-80938230D01*
X127459438Y-80918184D01*
X127460500Y-80904690D01*
X127460500Y-80661245D01*
X127480185Y-80594206D01*
X127532989Y-80548451D01*
X127558720Y-80539955D01*
X127655494Y-80519384D01*
X127691461Y-80511740D01*
X127853423Y-80439629D01*
X127946349Y-80372114D01*
X128012155Y-80348635D01*
X128080209Y-80364460D01*
G37*
G04 #@! TD.AperFunction*
G04 #@! TA.AperFunction,Conductor*
G36*
X107949120Y-77296666D02*
G01*
X108005054Y-77338537D01*
X108020347Y-77365395D01*
X108041547Y-77416575D01*
X108047918Y-77424878D01*
X108097503Y-77489500D01*
X108131949Y-77534391D01*
X108155084Y-77552143D01*
X108167279Y-77562838D01*
X108446260Y-77841819D01*
X108479745Y-77903142D01*
X108474761Y-77972834D01*
X108432889Y-78028767D01*
X108367425Y-78053184D01*
X108358579Y-78053500D01*
X107801417Y-78053500D01*
X107785231Y-78052439D01*
X107756316Y-78048632D01*
X107609080Y-78068017D01*
X107471883Y-78124845D01*
X107459985Y-78133975D01*
X107394816Y-78159168D01*
X107326371Y-78145129D01*
X107276382Y-78096314D01*
X107260500Y-78035598D01*
X107260500Y-77934136D01*
X107280185Y-77867097D01*
X107296819Y-77846455D01*
X107552703Y-77590571D01*
X107818108Y-77325165D01*
X107879429Y-77291682D01*
X107949120Y-77296666D01*
G37*
G04 #@! TD.AperFunction*
G04 #@! TA.AperFunction,Conductor*
G36*
X112700657Y-78160735D02*
G01*
X112756591Y-78202606D01*
X112781008Y-78268071D01*
X112780645Y-78289877D01*
X112776954Y-78324997D01*
X112776954Y-78325000D01*
X112795486Y-78501319D01*
X112795487Y-78501322D01*
X112850270Y-78669930D01*
X112938915Y-78823469D01*
X113057546Y-78955222D01*
X113200976Y-79059429D01*
X113362939Y-79131540D01*
X113536352Y-79168400D01*
X113536355Y-79168400D01*
X113713648Y-79168400D01*
X113887059Y-79131541D01*
X114034763Y-79065778D01*
X114104013Y-79056493D01*
X114148320Y-79072325D01*
X114148605Y-79072494D01*
X114226306Y-79095068D01*
X114304003Y-79117642D01*
X114304007Y-79117643D01*
X114340310Y-79120500D01*
X114431230Y-79120500D01*
X114498269Y-79140185D01*
X114544024Y-79192989D01*
X114554169Y-79260686D01*
X114540632Y-79363499D01*
X114544439Y-79392408D01*
X114545500Y-79408594D01*
X114545500Y-79492138D01*
X114525815Y-79559177D01*
X114473011Y-79604932D01*
X114403853Y-79614876D01*
X114340297Y-79585851D01*
X114333819Y-79579819D01*
X114304000Y-79550000D01*
X113770496Y-79550000D01*
X113817339Y-79711239D01*
X113815196Y-79711861D01*
X113827093Y-79758745D01*
X113809910Y-79817266D01*
X113791967Y-79847605D01*
X113746855Y-80002883D01*
X113744247Y-80036028D01*
X113719363Y-80101317D01*
X113663132Y-80142788D01*
X113620629Y-80150300D01*
X112257787Y-80150300D01*
X112190748Y-80130615D01*
X112144993Y-80077811D01*
X112135049Y-80008653D01*
X112151055Y-79963180D01*
X112158617Y-79950391D01*
X112158618Y-79950390D01*
X112202709Y-79798627D01*
X112205500Y-79763163D01*
X112205499Y-79236838D01*
X112202709Y-79201373D01*
X112202709Y-79201371D01*
X112158618Y-79049610D01*
X112078169Y-78913578D01*
X112055319Y-78890728D01*
X112021834Y-78829405D01*
X112019000Y-78803047D01*
X112019000Y-78791242D01*
X112038685Y-78724203D01*
X112055315Y-78703565D01*
X112569646Y-78189234D01*
X112630966Y-78155751D01*
X112700657Y-78160735D01*
G37*
G04 #@! TD.AperFunction*
G04 #@! TA.AperFunction,Conductor*
G36*
X106825803Y-62553285D02*
G01*
X106851332Y-62583878D01*
X106859263Y-62597289D01*
X106972709Y-62710735D01*
X107048955Y-62755827D01*
X107096639Y-62806896D01*
X107108773Y-62846373D01*
X107114439Y-62889408D01*
X107115500Y-62905594D01*
X107115500Y-63500918D01*
X107114439Y-63517103D01*
X107110632Y-63546013D01*
X107123281Y-63642083D01*
X107130017Y-63693248D01*
X107186847Y-63830447D01*
X107230227Y-63886982D01*
X107244228Y-63905229D01*
X107268129Y-63936378D01*
X107277250Y-63948264D01*
X107287991Y-63956506D01*
X107300383Y-63966014D01*
X107312579Y-63976710D01*
X110065185Y-66729315D01*
X110075880Y-66741510D01*
X110093635Y-66764650D01*
X110148802Y-66806980D01*
X110205214Y-66850266D01*
X110211453Y-66855053D01*
X110348652Y-66911883D01*
X110466977Y-66927461D01*
X110495885Y-66931267D01*
X110495885Y-66931266D01*
X110495886Y-66931267D01*
X110524796Y-66927460D01*
X110540980Y-66926400D01*
X111071520Y-66926400D01*
X111138559Y-66946085D01*
X111184314Y-66998889D01*
X111194840Y-67063359D01*
X111183128Y-67174796D01*
X111178004Y-67223546D01*
X111151419Y-67288161D01*
X111142364Y-67298265D01*
X111127063Y-67313566D01*
X111114871Y-67324259D01*
X111091732Y-67342015D01*
X111056581Y-67387823D01*
X111056571Y-67387838D01*
X111001330Y-67459831D01*
X110944500Y-67597031D01*
X110925115Y-67744263D01*
X110925548Y-67747549D01*
X110928882Y-67772879D01*
X110928922Y-67773179D01*
X110929982Y-67789361D01*
X110929982Y-68326509D01*
X110928922Y-68342690D01*
X110925115Y-68371607D01*
X110928303Y-68395813D01*
X110917538Y-68464849D01*
X110871158Y-68517105D01*
X110805364Y-68536000D01*
X110195101Y-68536000D01*
X110178915Y-68534939D01*
X110175459Y-68534484D01*
X110150000Y-68531132D01*
X110027581Y-68547250D01*
X110002764Y-68550517D01*
X109962580Y-68567161D01*
X109865569Y-68607344D01*
X109849069Y-68620005D01*
X109777332Y-68675051D01*
X109748068Y-68697506D01*
X109747749Y-68697751D01*
X109729993Y-68720890D01*
X109719301Y-68733080D01*
X107312580Y-71139801D01*
X107300388Y-71150494D01*
X107277249Y-71168250D01*
X107242098Y-71214058D01*
X107242088Y-71214073D01*
X107186847Y-71286066D01*
X107130017Y-71423266D01*
X107110632Y-71570499D01*
X107114439Y-71599408D01*
X107115500Y-71615594D01*
X107115500Y-72140918D01*
X107114439Y-72157103D01*
X107110632Y-72186013D01*
X107130017Y-72333249D01*
X107150652Y-72383067D01*
X107158121Y-72452536D01*
X107126845Y-72515015D01*
X107123774Y-72518198D01*
X107069265Y-72572709D01*
X106987593Y-72710807D01*
X106942833Y-72864872D01*
X106940069Y-72900000D01*
X107544507Y-72900000D01*
X107611546Y-72919685D01*
X107632188Y-72936319D01*
X107923181Y-73227312D01*
X107956666Y-73288635D01*
X107959500Y-73314992D01*
X107959500Y-73396757D01*
X107959500Y-73396781D01*
X107959501Y-73399180D01*
X107959690Y-73401587D01*
X107959787Y-73404039D01*
X107959677Y-73402172D01*
X107960000Y-73410393D01*
X107960000Y-73962843D01*
X108099193Y-73922405D01*
X108156386Y-73888581D01*
X108224110Y-73871398D01*
X108282629Y-73888581D01*
X108340607Y-73922869D01*
X108494796Y-73967665D01*
X108530819Y-73970500D01*
X108929180Y-73970499D01*
X108965204Y-73967665D01*
X109119393Y-73922869D01*
X109257598Y-73841135D01*
X109371135Y-73727598D01*
X109452869Y-73589393D01*
X109497665Y-73435204D01*
X109500500Y-73399181D01*
X109500499Y-72900820D01*
X109497665Y-72864796D01*
X109496725Y-72861560D01*
X109496748Y-72853153D01*
X109496668Y-72852129D01*
X109496751Y-72852122D01*
X109496921Y-72791697D01*
X109534860Y-72733025D01*
X109535031Y-72732878D01*
X109698532Y-72592519D01*
X109823021Y-72431692D01*
X109912589Y-72249094D01*
X109938246Y-72150000D01*
X109136111Y-72150000D01*
X109175610Y-72125543D01*
X109243201Y-72036038D01*
X109273895Y-71928160D01*
X109263546Y-71816479D01*
X109213552Y-71716078D01*
X109141069Y-71650000D01*
X109943366Y-71650000D01*
X109943067Y-71648051D01*
X109872435Y-71457336D01*
X109764854Y-71284736D01*
X109624733Y-71137330D01*
X109457805Y-71021144D01*
X109324213Y-70963815D01*
X109270369Y-70919288D01*
X109249146Y-70852719D01*
X109267281Y-70785245D01*
X109285426Y-70762189D01*
X110347297Y-69700319D01*
X110408621Y-69666834D01*
X110434979Y-69664000D01*
X111058893Y-69664000D01*
X111125932Y-69683685D01*
X111171687Y-69736489D01*
X111182212Y-69775033D01*
X111195486Y-69901319D01*
X111195487Y-69901322D01*
X111250270Y-70069930D01*
X111338915Y-70223469D01*
X111457545Y-70355220D01*
X111468813Y-70363407D01*
X111511480Y-70418737D01*
X111516645Y-70457247D01*
X111518591Y-70457043D01*
X111526511Y-70532410D01*
X111527008Y-70538653D01*
X111530570Y-70604338D01*
X111533446Y-70614695D01*
X111537284Y-70634895D01*
X111538092Y-70642576D01*
X111538092Y-70642578D01*
X111538093Y-70642580D01*
X111558540Y-70705511D01*
X111560083Y-70710634D01*
X111563738Y-70723796D01*
X111578606Y-70777350D01*
X111578607Y-70777351D01*
X111582021Y-70783790D01*
X111590395Y-70803551D01*
X111591715Y-70807614D01*
X111626527Y-70867910D01*
X111628695Y-70871827D01*
X111662712Y-70935990D01*
X111665195Y-70938913D01*
X111678070Y-70957183D01*
X111678477Y-70957889D01*
X111685289Y-70965454D01*
X111715519Y-71028446D01*
X111706894Y-71097781D01*
X111673909Y-71142512D01*
X111557895Y-71242105D01*
X111439631Y-71394890D01*
X111354541Y-71568358D01*
X111333403Y-71650000D01*
X112225376Y-71650000D01*
X112152455Y-71664505D01*
X112069760Y-71719760D01*
X112014505Y-71802455D01*
X111995102Y-71900000D01*
X112014505Y-71997545D01*
X112015210Y-71998600D01*
X111828152Y-71998600D01*
X111811968Y-71997539D01*
X111783058Y-71993733D01*
X111783057Y-71993733D01*
X111764573Y-71996166D01*
X111746090Y-71998600D01*
X111716513Y-72002494D01*
X111635823Y-72013117D01*
X111498624Y-72069947D01*
X111452155Y-72105604D01*
X111429499Y-72122989D01*
X111427691Y-72124376D01*
X111362522Y-72149570D01*
X111352205Y-72150000D01*
X111329529Y-72150000D01*
X111322805Y-72159659D01*
X111325262Y-72195158D01*
X111291838Y-72256201D01*
X106832281Y-76715759D01*
X106770958Y-76749244D01*
X106701266Y-76744260D01*
X106645333Y-76702388D01*
X106620916Y-76636924D01*
X106620600Y-76628078D01*
X106620600Y-73400000D01*
X106940069Y-73400000D01*
X106942833Y-73435127D01*
X106987593Y-73589192D01*
X107069264Y-73727290D01*
X107182709Y-73840735D01*
X107320804Y-73922404D01*
X107460000Y-73962844D01*
X107460000Y-73400000D01*
X106940069Y-73400000D01*
X106620600Y-73400000D01*
X106620600Y-62646998D01*
X106640285Y-62579959D01*
X106693089Y-62534204D01*
X106762247Y-62524260D01*
X106825803Y-62553285D01*
G37*
G04 #@! TD.AperFunction*
G04 #@! TA.AperFunction,Conductor*
G36*
X114129984Y-42828752D02*
G01*
X114196994Y-42848536D01*
X114242671Y-42901408D01*
X114253800Y-42952752D01*
X114253800Y-47905929D01*
X114234115Y-47972968D01*
X114204112Y-48005195D01*
X114196612Y-48010809D01*
X114110447Y-48125910D01*
X114060200Y-48260628D01*
X114054154Y-48316867D01*
X114053800Y-48323481D01*
X114053800Y-48468000D01*
X115669800Y-48468000D01*
X115736839Y-48487685D01*
X115782594Y-48540489D01*
X115787127Y-48561327D01*
X115793800Y-48568000D01*
X125913800Y-48568000D01*
X125923776Y-48558023D01*
X125933485Y-48524961D01*
X125986289Y-48479206D01*
X126037800Y-48468000D01*
X127653800Y-48468000D01*
X127653800Y-48323481D01*
X127653445Y-48316867D01*
X127647399Y-48260628D01*
X127597152Y-48125910D01*
X127510987Y-48010808D01*
X127503486Y-48005193D01*
X127461616Y-47949258D01*
X127453799Y-47905933D01*
X127453799Y-47320199D01*
X130372951Y-47320199D01*
X130392717Y-47571349D01*
X130451526Y-47816310D01*
X130462048Y-47841711D01*
X130547934Y-48049059D01*
X130679564Y-48263859D01*
X130843176Y-48455424D01*
X131034741Y-48619036D01*
X131249541Y-48750666D01*
X131482289Y-48847073D01*
X131727252Y-48905883D01*
X131915518Y-48920700D01*
X131917963Y-48920700D01*
X132038837Y-48920700D01*
X132041282Y-48920700D01*
X132229548Y-48905883D01*
X132474511Y-48847073D01*
X132707259Y-48750666D01*
X132922059Y-48619036D01*
X133113624Y-48455424D01*
X133277236Y-48263859D01*
X133408866Y-48049059D01*
X133505273Y-47816311D01*
X133564083Y-47571348D01*
X133583849Y-47320200D01*
X133564083Y-47069052D01*
X133505273Y-46824089D01*
X133408866Y-46591341D01*
X133277236Y-46376541D01*
X133113624Y-46184976D01*
X132922059Y-46021364D01*
X132707259Y-45889734D01*
X132555513Y-45826879D01*
X132474510Y-45793326D01*
X132229549Y-45734517D01*
X132043716Y-45719891D01*
X132043701Y-45719890D01*
X132041282Y-45719700D01*
X131915518Y-45719700D01*
X131913099Y-45719890D01*
X131913083Y-45719891D01*
X131727250Y-45734517D01*
X131482289Y-45793326D01*
X131249539Y-45889735D01*
X131034742Y-46021363D01*
X130843176Y-46184976D01*
X130679563Y-46376542D01*
X130547935Y-46591339D01*
X130451526Y-46824089D01*
X130392717Y-47069050D01*
X130372951Y-47320199D01*
X127453799Y-47320199D01*
X127453799Y-42972701D01*
X127473483Y-42905666D01*
X127526287Y-42859911D01*
X127577980Y-42848705D01*
X128433084Y-42849974D01*
X128500094Y-42869758D01*
X128545771Y-42922630D01*
X128556900Y-42973974D01*
X128556900Y-43836160D01*
X128564590Y-43862353D01*
X128568347Y-43879626D01*
X128572235Y-43906655D01*
X128572235Y-43906657D01*
X128583573Y-43931483D01*
X128589754Y-43948057D01*
X128597445Y-43974249D01*
X128597446Y-43974251D01*
X128597447Y-43974253D01*
X128612210Y-43997225D01*
X128620683Y-44012743D01*
X128632022Y-44037572D01*
X128649895Y-44058198D01*
X128660497Y-44072362D01*
X128675255Y-44095327D01*
X128695887Y-44113205D01*
X128708392Y-44125710D01*
X128726272Y-44146343D01*
X128749236Y-44161101D01*
X128763402Y-44171705D01*
X128784025Y-44189576D01*
X128784026Y-44189576D01*
X128784027Y-44189577D01*
X128808855Y-44200915D01*
X128824377Y-44209392D01*
X128847344Y-44224152D01*
X128873535Y-44231842D01*
X128890113Y-44238026D01*
X128910591Y-44247377D01*
X128914943Y-44249365D01*
X128941970Y-44253251D01*
X128959249Y-44257010D01*
X128985439Y-44264700D01*
X129021601Y-44264700D01*
X132547508Y-44264700D01*
X132609649Y-44264700D01*
X132617136Y-44264926D01*
X132897674Y-44281895D01*
X132912536Y-44283700D01*
X132990117Y-44297917D01*
X133185292Y-44333684D01*
X133199825Y-44337266D01*
X133464564Y-44419762D01*
X133478552Y-44425067D01*
X133731421Y-44538875D01*
X133744675Y-44545831D01*
X133758003Y-44553888D01*
X133981988Y-44689291D01*
X133994299Y-44697789D01*
X134212586Y-44868806D01*
X134223794Y-44878736D01*
X134419863Y-45074805D01*
X134429793Y-45086013D01*
X134600806Y-45304294D01*
X134609312Y-45316617D01*
X134752768Y-45553924D01*
X134759726Y-45567182D01*
X134861506Y-45793327D01*
X134873527Y-45820035D01*
X134878837Y-45834037D01*
X134961332Y-46098772D01*
X134964916Y-46113311D01*
X135014899Y-46386063D01*
X135016704Y-46400927D01*
X135033674Y-46681463D01*
X135033900Y-46688950D01*
X135033900Y-46767004D01*
X135033934Y-46767272D01*
X135035777Y-51058046D01*
X135016121Y-51125094D01*
X134963337Y-51170871D01*
X134894183Y-51180844D01*
X134830615Y-51151847D01*
X134824096Y-51145780D01*
X134572674Y-50894358D01*
X134226896Y-50548579D01*
X134216200Y-50536383D01*
X134198449Y-50513249D01*
X134126870Y-50458326D01*
X134126869Y-50458325D01*
X134080633Y-50422847D01*
X133943434Y-50366017D01*
X133926304Y-50363761D01*
X133796200Y-50346632D01*
X133770719Y-50349987D01*
X133767289Y-50350439D01*
X133751106Y-50351500D01*
X130089593Y-50351500D01*
X130073407Y-50350439D01*
X130044497Y-50346632D01*
X130007559Y-50351495D01*
X130007533Y-50351500D01*
X130007532Y-50351500D01*
X129952398Y-50358758D01*
X129897265Y-50366017D01*
X129760066Y-50422847D01*
X129642248Y-50513250D01*
X129624493Y-50536389D01*
X129613800Y-50548582D01*
X127894702Y-52267681D01*
X127833379Y-52301166D01*
X127807021Y-52304000D01*
X127778300Y-52304000D01*
X127711261Y-52284315D01*
X127665506Y-52231511D01*
X127654300Y-52180000D01*
X127654299Y-51823439D01*
X127654299Y-51820128D01*
X127647891Y-51760517D01*
X127629545Y-51711331D01*
X127624562Y-51641643D01*
X127629547Y-51624665D01*
X127647890Y-51575485D01*
X127647889Y-51575485D01*
X127647891Y-51575483D01*
X127654300Y-51515873D01*
X127654299Y-51020128D01*
X127647891Y-50960517D01*
X127629545Y-50911331D01*
X127624562Y-50841643D01*
X127629547Y-50824665D01*
X127647500Y-50776530D01*
X127647891Y-50775483D01*
X127654300Y-50715873D01*
X127654299Y-50220128D01*
X127647891Y-50160517D01*
X127629545Y-50111331D01*
X127624562Y-50041643D01*
X127629547Y-50024665D01*
X127640015Y-49996600D01*
X127647891Y-49975483D01*
X127654300Y-49915873D01*
X127654299Y-49420128D01*
X127647891Y-49360517D01*
X127629278Y-49310615D01*
X127624295Y-49240926D01*
X127629280Y-49223947D01*
X127647398Y-49175374D01*
X127653446Y-49119114D01*
X127653800Y-49112518D01*
X127653800Y-48968000D01*
X127210996Y-48968000D01*
X127204771Y-48967833D01*
X127201673Y-48967500D01*
X127198351Y-48967500D01*
X126309239Y-48967500D01*
X126309220Y-48967500D01*
X126305928Y-48967501D01*
X126302840Y-48967832D01*
X126296614Y-48968000D01*
X125853800Y-48968000D01*
X125853800Y-49410793D01*
X125853632Y-49417034D01*
X125853300Y-49420127D01*
X125853300Y-49423435D01*
X125853300Y-49423436D01*
X125853300Y-49912560D01*
X125853300Y-49912578D01*
X125853301Y-49915872D01*
X125859709Y-49975483D01*
X125878052Y-50024665D01*
X125878053Y-50024666D01*
X125883037Y-50094358D01*
X125878053Y-50111331D01*
X125859709Y-50160513D01*
X125854374Y-50210135D01*
X125853300Y-50220127D01*
X125853300Y-50223448D01*
X125853300Y-50223449D01*
X125853300Y-50712560D01*
X125853300Y-50712578D01*
X125853301Y-50715872D01*
X125859709Y-50775483D01*
X125878052Y-50824665D01*
X125878053Y-50824666D01*
X125883037Y-50894358D01*
X125878053Y-50911331D01*
X125859709Y-50960513D01*
X125853709Y-51016319D01*
X125853300Y-51020127D01*
X125853300Y-51023448D01*
X125853300Y-51023449D01*
X125853300Y-51512560D01*
X125853300Y-51512578D01*
X125853301Y-51515872D01*
X125859709Y-51575483D01*
X125878052Y-51624665D01*
X125878053Y-51624666D01*
X125883037Y-51694358D01*
X125878053Y-51711331D01*
X125859709Y-51760513D01*
X125853654Y-51816833D01*
X125853300Y-51820127D01*
X125853300Y-51823448D01*
X125853300Y-51823449D01*
X125853300Y-52312560D01*
X125853300Y-52312578D01*
X125853301Y-52315872D01*
X125853653Y-52319152D01*
X125853654Y-52319159D01*
X125859709Y-52375483D01*
X125878053Y-52424666D01*
X125883037Y-52494358D01*
X125878053Y-52511331D01*
X125859709Y-52560513D01*
X125859709Y-52560517D01*
X125853300Y-52620127D01*
X125853300Y-52623448D01*
X125853300Y-52623449D01*
X125853300Y-53112560D01*
X125853300Y-53112578D01*
X125853301Y-53115872D01*
X125853653Y-53119152D01*
X125853654Y-53119159D01*
X125859709Y-53175483D01*
X125878053Y-53224666D01*
X125883037Y-53294358D01*
X125878053Y-53311331D01*
X125859709Y-53360513D01*
X125857395Y-53382036D01*
X125853300Y-53420127D01*
X125853300Y-53423448D01*
X125853300Y-53423449D01*
X125853300Y-53912560D01*
X125853300Y-53912578D01*
X125853301Y-53915872D01*
X125853653Y-53919152D01*
X125853654Y-53919159D01*
X125858312Y-53962491D01*
X125859709Y-53975483D01*
X125874715Y-54015718D01*
X125878053Y-54024666D01*
X125883037Y-54094358D01*
X125878053Y-54111331D01*
X125859709Y-54160513D01*
X125855632Y-54198433D01*
X125853300Y-54220127D01*
X125853300Y-54223448D01*
X125853300Y-54223449D01*
X125853300Y-54712560D01*
X125853300Y-54712578D01*
X125853301Y-54715872D01*
X125853653Y-54719152D01*
X125853654Y-54719159D01*
X125856970Y-54750000D01*
X125859709Y-54775483D01*
X125878052Y-54824665D01*
X125878053Y-54824666D01*
X125883037Y-54894358D01*
X125878053Y-54911331D01*
X125859709Y-54960513D01*
X125859709Y-54960517D01*
X125853300Y-55020127D01*
X125853300Y-55023448D01*
X125853300Y-55023449D01*
X125853300Y-55512560D01*
X125853300Y-55512578D01*
X125853301Y-55515872D01*
X125859709Y-55575483D01*
X125878052Y-55624665D01*
X125878053Y-55624666D01*
X125883037Y-55694358D01*
X125878053Y-55711331D01*
X125859709Y-55760513D01*
X125853654Y-55816833D01*
X125853300Y-55820127D01*
X125853300Y-55823448D01*
X125853300Y-55823449D01*
X125853300Y-56312560D01*
X125853300Y-56312578D01*
X125853301Y-56315872D01*
X125853653Y-56319152D01*
X125853654Y-56319159D01*
X125858130Y-56360794D01*
X125859709Y-56375483D01*
X125878052Y-56424665D01*
X125878053Y-56424666D01*
X125883037Y-56494358D01*
X125878053Y-56511331D01*
X125859709Y-56560513D01*
X125854155Y-56612171D01*
X125853300Y-56620127D01*
X125853300Y-56623448D01*
X125853300Y-56623449D01*
X125853300Y-57112560D01*
X125853300Y-57112578D01*
X125853301Y-57115872D01*
X125853653Y-57119152D01*
X125853654Y-57119159D01*
X125857097Y-57151187D01*
X125859709Y-57175483D01*
X125878052Y-57224665D01*
X125878053Y-57224666D01*
X125883037Y-57294358D01*
X125878053Y-57311331D01*
X125859709Y-57360513D01*
X125853654Y-57416833D01*
X125853300Y-57420127D01*
X125853300Y-57423448D01*
X125853300Y-57423449D01*
X125853300Y-57543500D01*
X125833615Y-57610539D01*
X125780811Y-57656294D01*
X125729300Y-57667500D01*
X125409239Y-57667500D01*
X125409220Y-57667500D01*
X125405928Y-57667501D01*
X125402648Y-57667853D01*
X125402640Y-57667854D01*
X125346314Y-57673909D01*
X125297132Y-57692253D01*
X125227440Y-57697237D01*
X125210467Y-57692253D01*
X125161284Y-57673909D01*
X125104966Y-57667854D01*
X125104965Y-57667853D01*
X125101673Y-57667500D01*
X125098350Y-57667500D01*
X124609239Y-57667500D01*
X124609220Y-57667500D01*
X124605928Y-57667501D01*
X124602648Y-57667853D01*
X124602640Y-57667854D01*
X124546314Y-57673909D01*
X124497132Y-57692253D01*
X124427440Y-57697237D01*
X124410467Y-57692253D01*
X124361284Y-57673909D01*
X124304966Y-57667854D01*
X124304965Y-57667853D01*
X124301673Y-57667500D01*
X124298350Y-57667500D01*
X123809239Y-57667500D01*
X123809220Y-57667500D01*
X123805928Y-57667501D01*
X123802648Y-57667853D01*
X123802640Y-57667854D01*
X123746314Y-57673909D01*
X123697132Y-57692253D01*
X123627440Y-57697237D01*
X123610467Y-57692253D01*
X123561284Y-57673909D01*
X123504966Y-57667854D01*
X123504965Y-57667853D01*
X123501673Y-57667500D01*
X123498350Y-57667500D01*
X123009239Y-57667500D01*
X123009220Y-57667500D01*
X123005928Y-57667501D01*
X123002648Y-57667853D01*
X123002640Y-57667854D01*
X122946314Y-57673909D01*
X122897132Y-57692253D01*
X122827440Y-57697237D01*
X122810467Y-57692253D01*
X122761284Y-57673909D01*
X122704966Y-57667854D01*
X122704965Y-57667853D01*
X122701673Y-57667500D01*
X122698350Y-57667500D01*
X122209239Y-57667500D01*
X122209220Y-57667500D01*
X122205928Y-57667501D01*
X122202648Y-57667853D01*
X122202640Y-57667854D01*
X122146314Y-57673909D01*
X122097132Y-57692253D01*
X122027440Y-57697237D01*
X122010467Y-57692253D01*
X121961284Y-57673909D01*
X121904966Y-57667854D01*
X121904965Y-57667853D01*
X121901673Y-57667500D01*
X121898351Y-57667500D01*
X121820785Y-57667500D01*
X121753746Y-57647815D01*
X121707991Y-57595011D01*
X121697464Y-57530541D01*
X121698046Y-57525000D01*
X121695402Y-57499844D01*
X121679514Y-57348681D01*
X121624729Y-57180069D01*
X121574244Y-57092626D01*
X121536084Y-57026530D01*
X121417453Y-56894777D01*
X121274023Y-56790570D01*
X121112060Y-56718459D01*
X120938648Y-56681600D01*
X120938645Y-56681600D01*
X120761355Y-56681600D01*
X120761352Y-56681600D01*
X120587939Y-56718459D01*
X120425976Y-56790570D01*
X120282549Y-56894776D01*
X120282546Y-56894778D01*
X120282546Y-56894779D01*
X120276949Y-56900995D01*
X120165681Y-57024570D01*
X120106194Y-57061218D01*
X120036337Y-57059887D01*
X119978289Y-57021000D01*
X119966146Y-57003601D01*
X119936084Y-56951531D01*
X119886063Y-56895977D01*
X119817453Y-56819777D01*
X119674023Y-56715570D01*
X119512060Y-56643459D01*
X119338648Y-56606600D01*
X119338645Y-56606600D01*
X119161355Y-56606600D01*
X119161352Y-56606600D01*
X118987939Y-56643459D01*
X118825976Y-56715570D01*
X118682546Y-56819777D01*
X118563915Y-56951530D01*
X118475270Y-57105069D01*
X118430663Y-57242358D01*
X118420486Y-57273681D01*
X118407369Y-57398478D01*
X118401954Y-57450000D01*
X118410419Y-57530539D01*
X118397849Y-57599269D01*
X118350117Y-57650292D01*
X118287100Y-57667500D01*
X118209239Y-57667500D01*
X118209220Y-57667500D01*
X118205928Y-57667501D01*
X118202648Y-57667853D01*
X118202640Y-57667854D01*
X118146316Y-57673909D01*
X118096416Y-57692520D01*
X118026724Y-57697503D01*
X118009753Y-57692519D01*
X117961175Y-57674401D01*
X117904932Y-57668354D01*
X117898318Y-57668000D01*
X117853800Y-57668000D01*
X117853800Y-57825893D01*
X117834115Y-57892932D01*
X117829068Y-57900203D01*
X117810002Y-57925671D01*
X117769980Y-58032974D01*
X117728109Y-58088908D01*
X117662644Y-58113324D01*
X117594371Y-58098472D01*
X117544966Y-58049066D01*
X117537621Y-58032982D01*
X117497596Y-57925669D01*
X117478531Y-57900202D01*
X117454116Y-57834738D01*
X117453800Y-57825893D01*
X117453800Y-57668000D01*
X117409282Y-57668000D01*
X117402667Y-57668354D01*
X117346424Y-57674401D01*
X117297846Y-57692519D01*
X117228154Y-57697503D01*
X117211181Y-57692519D01*
X117161285Y-57673909D01*
X117104966Y-57667854D01*
X117104965Y-57667853D01*
X117101673Y-57667500D01*
X117098350Y-57667500D01*
X116609239Y-57667500D01*
X116609220Y-57667500D01*
X116605928Y-57667501D01*
X116602648Y-57667853D01*
X116602640Y-57667854D01*
X116546314Y-57673909D01*
X116497132Y-57692253D01*
X116427440Y-57697237D01*
X116410467Y-57692253D01*
X116361284Y-57673909D01*
X116304966Y-57667854D01*
X116304965Y-57667853D01*
X116301673Y-57667500D01*
X116298351Y-57667500D01*
X115977800Y-57667500D01*
X115910761Y-57647815D01*
X115865006Y-57595011D01*
X115853800Y-57543500D01*
X115853800Y-57423481D01*
X115853446Y-57416885D01*
X115847397Y-57360622D01*
X115829280Y-57312049D01*
X115824294Y-57242358D01*
X115829274Y-57225395D01*
X115847891Y-57175483D01*
X115854300Y-57115873D01*
X115854299Y-56620128D01*
X115847891Y-56560517D01*
X115829545Y-56511331D01*
X115824562Y-56441643D01*
X115829547Y-56424665D01*
X115831005Y-56420755D01*
X115847891Y-56375483D01*
X115854300Y-56315873D01*
X115854299Y-55820128D01*
X115847891Y-55760517D01*
X115829545Y-55711331D01*
X115824562Y-55641643D01*
X115829547Y-55624665D01*
X115847890Y-55575485D01*
X115847889Y-55575485D01*
X115847891Y-55575483D01*
X115854300Y-55515873D01*
X115854299Y-55020128D01*
X115847891Y-54960517D01*
X115829545Y-54911331D01*
X115824562Y-54841643D01*
X115829547Y-54824665D01*
X115847890Y-54775485D01*
X115847889Y-54775485D01*
X115847891Y-54775483D01*
X115854300Y-54715873D01*
X115854300Y-54637400D01*
X115873985Y-54570361D01*
X115926789Y-54524606D01*
X115978300Y-54513400D01*
X116018648Y-54513400D01*
X116148707Y-54485754D01*
X116192061Y-54476540D01*
X116354023Y-54404429D01*
X116469926Y-54320221D01*
X116497453Y-54300222D01*
X116507593Y-54288961D01*
X116616084Y-54168469D01*
X116704729Y-54014931D01*
X116759514Y-53846319D01*
X116763035Y-53812814D01*
X116789618Y-53748203D01*
X116846915Y-53708218D01*
X116860575Y-53704488D01*
X116940096Y-53687585D01*
X116992061Y-53676540D01*
X117154023Y-53604429D01*
X117208491Y-53564856D01*
X117297453Y-53500222D01*
X117416084Y-53368469D01*
X117420677Y-53360513D01*
X117504729Y-53214931D01*
X117559514Y-53046319D01*
X117578046Y-52870000D01*
X117559514Y-52693681D01*
X117504729Y-52525069D01*
X117460504Y-52448469D01*
X117416084Y-52371530D01*
X117297453Y-52239777D01*
X117154023Y-52135570D01*
X116992060Y-52063459D01*
X116818648Y-52026600D01*
X116818645Y-52026600D01*
X116661673Y-52026600D01*
X116594634Y-52006915D01*
X116548879Y-51954111D01*
X116538935Y-51884953D01*
X116567960Y-51821397D01*
X116569523Y-51819628D01*
X116611084Y-51773469D01*
X116645090Y-51714569D01*
X116699729Y-51619931D01*
X116754514Y-51451319D01*
X116773046Y-51275000D01*
X116754514Y-51098681D01*
X116699729Y-50930069D01*
X116677999Y-50892431D01*
X116611084Y-50776530D01*
X116492453Y-50644777D01*
X116349023Y-50540570D01*
X116187060Y-50468459D01*
X116013648Y-50431600D01*
X116013645Y-50431600D01*
X115977800Y-50431600D01*
X115910761Y-50411915D01*
X115865006Y-50359111D01*
X115853800Y-50307600D01*
X115853800Y-50223481D01*
X115853445Y-50216867D01*
X115847399Y-50160628D01*
X115829013Y-50111333D01*
X115824029Y-50041641D01*
X115829014Y-50024663D01*
X115847397Y-49975376D01*
X115853446Y-49919114D01*
X115853800Y-49912518D01*
X115853800Y-48968000D01*
X116253800Y-48968000D01*
X116253800Y-49668000D01*
X116298318Y-49668000D01*
X116304914Y-49667646D01*
X116361178Y-49661597D01*
X116410465Y-49643214D01*
X116480157Y-49638228D01*
X116497135Y-49643214D01*
X116546421Y-49661597D01*
X116602685Y-49667646D01*
X116609282Y-49668000D01*
X116653800Y-49668000D01*
X116653800Y-48968000D01*
X117053800Y-48968000D01*
X117053800Y-49668000D01*
X117098318Y-49668000D01*
X117104914Y-49667646D01*
X117161178Y-49661597D01*
X117210465Y-49643214D01*
X117280157Y-49638228D01*
X117297135Y-49643214D01*
X117346421Y-49661597D01*
X117402685Y-49667646D01*
X117409282Y-49668000D01*
X117453800Y-49668000D01*
X117453800Y-48968000D01*
X117853800Y-48968000D01*
X117853800Y-49668000D01*
X117898318Y-49668000D01*
X117904914Y-49667646D01*
X117961178Y-49661597D01*
X118010465Y-49643214D01*
X118080157Y-49638228D01*
X118097135Y-49643214D01*
X118146421Y-49661597D01*
X118202685Y-49667646D01*
X118209282Y-49668000D01*
X118253800Y-49668000D01*
X118253800Y-48968000D01*
X118653800Y-48968000D01*
X118653800Y-49668000D01*
X118698318Y-49668000D01*
X118704914Y-49667646D01*
X118761178Y-49661597D01*
X118810465Y-49643214D01*
X118880157Y-49638228D01*
X118897135Y-49643214D01*
X118946421Y-49661597D01*
X119002685Y-49667646D01*
X119009282Y-49668000D01*
X119053800Y-49668000D01*
X119053800Y-48968000D01*
X119453800Y-48968000D01*
X119453800Y-49668000D01*
X119498318Y-49668000D01*
X119504914Y-49667646D01*
X119561178Y-49661597D01*
X119610465Y-49643214D01*
X119680157Y-49638228D01*
X119697135Y-49643214D01*
X119746421Y-49661597D01*
X119802685Y-49667646D01*
X119809282Y-49668000D01*
X119853800Y-49668000D01*
X119853800Y-48968000D01*
X120253800Y-48968000D01*
X120253800Y-49668000D01*
X120298318Y-49668000D01*
X120304914Y-49667646D01*
X120361178Y-49661597D01*
X120410465Y-49643214D01*
X120480157Y-49638228D01*
X120497135Y-49643214D01*
X120546421Y-49661597D01*
X120602685Y-49667646D01*
X120609282Y-49668000D01*
X120653800Y-49668000D01*
X120653800Y-48968000D01*
X121053800Y-48968000D01*
X121053800Y-49668000D01*
X121098318Y-49668000D01*
X121104914Y-49667646D01*
X121161178Y-49661597D01*
X121210465Y-49643214D01*
X121280157Y-49638228D01*
X121297135Y-49643214D01*
X121346421Y-49661597D01*
X121402685Y-49667646D01*
X121409282Y-49668000D01*
X121453800Y-49668000D01*
X121453800Y-48968000D01*
X121853800Y-48968000D01*
X121853800Y-49668000D01*
X121898318Y-49668000D01*
X121904914Y-49667646D01*
X121961178Y-49661597D01*
X122010465Y-49643214D01*
X122080157Y-49638228D01*
X122097135Y-49643214D01*
X122146421Y-49661597D01*
X122202685Y-49667646D01*
X122209282Y-49668000D01*
X122253800Y-49668000D01*
X122253800Y-48968000D01*
X122653800Y-48968000D01*
X122653800Y-49668000D01*
X122698318Y-49668000D01*
X122704914Y-49667646D01*
X122761178Y-49661597D01*
X122810465Y-49643214D01*
X122880157Y-49638228D01*
X122897135Y-49643214D01*
X122946421Y-49661597D01*
X123002685Y-49667646D01*
X123009282Y-49668000D01*
X123053800Y-49668000D01*
X123053800Y-48968000D01*
X123453800Y-48968000D01*
X123453800Y-49668000D01*
X123498318Y-49668000D01*
X123504914Y-49667646D01*
X123561178Y-49661597D01*
X123610465Y-49643214D01*
X123680157Y-49638228D01*
X123697135Y-49643214D01*
X123746421Y-49661597D01*
X123802685Y-49667646D01*
X123809282Y-49668000D01*
X123853800Y-49668000D01*
X123853800Y-48968000D01*
X124253800Y-48968000D01*
X124253800Y-49668000D01*
X124298318Y-49668000D01*
X124304914Y-49667646D01*
X124361178Y-49661597D01*
X124410465Y-49643214D01*
X124480157Y-49638228D01*
X124497135Y-49643214D01*
X124546421Y-49661597D01*
X124602685Y-49667646D01*
X124609282Y-49668000D01*
X124653800Y-49668000D01*
X124653800Y-48968000D01*
X125053800Y-48968000D01*
X125053800Y-49668000D01*
X125098318Y-49668000D01*
X125104914Y-49667646D01*
X125161178Y-49661597D01*
X125210465Y-49643214D01*
X125280157Y-49638228D01*
X125297135Y-49643214D01*
X125346421Y-49661597D01*
X125402685Y-49667646D01*
X125409282Y-49668000D01*
X125453800Y-49668000D01*
X125453800Y-48968000D01*
X125053800Y-48968000D01*
X124653800Y-48968000D01*
X124253800Y-48968000D01*
X123853800Y-48968000D01*
X123453800Y-48968000D01*
X123053800Y-48968000D01*
X122653800Y-48968000D01*
X122253800Y-48968000D01*
X121853800Y-48968000D01*
X121453800Y-48968000D01*
X121053800Y-48968000D01*
X120653800Y-48968000D01*
X120253800Y-48968000D01*
X119853800Y-48968000D01*
X119453800Y-48968000D01*
X119053800Y-48968000D01*
X118653800Y-48968000D01*
X118253800Y-48968000D01*
X117853800Y-48968000D01*
X117453800Y-48968000D01*
X117053800Y-48968000D01*
X116653800Y-48968000D01*
X116253800Y-48968000D01*
X115853800Y-48968000D01*
X115153800Y-48968000D01*
X115153800Y-50443500D01*
X115134115Y-50510539D01*
X115081311Y-50556294D01*
X115029800Y-50567500D01*
X114877800Y-50567500D01*
X114810761Y-50547815D01*
X114765006Y-50495011D01*
X114753800Y-50443500D01*
X114753800Y-49868000D01*
X114053800Y-49868000D01*
X114053800Y-49912518D01*
X114054154Y-49919132D01*
X114060200Y-49975373D01*
X114078586Y-50024666D01*
X114083570Y-50094357D01*
X114078586Y-50111332D01*
X114055633Y-50172872D01*
X114013762Y-50228806D01*
X113948297Y-50253223D01*
X113904857Y-50248616D01*
X113836670Y-50228806D01*
X113772404Y-50210135D01*
X113768232Y-50209806D01*
X113738815Y-50207491D01*
X113738800Y-50207490D01*
X113736381Y-50207300D01*
X113733935Y-50207300D01*
X113240443Y-50207300D01*
X113240417Y-50207300D01*
X113238020Y-50207301D01*
X113235629Y-50207489D01*
X113235606Y-50207490D01*
X113201994Y-50210135D01*
X113047807Y-50254930D01*
X112909601Y-50336665D01*
X112796065Y-50450201D01*
X112714330Y-50588407D01*
X112669535Y-50742593D01*
X112666891Y-50776184D01*
X112666890Y-50776200D01*
X112666700Y-50778619D01*
X112666700Y-50781063D01*
X112666700Y-50781064D01*
X112666700Y-50949320D01*
X112647015Y-51016359D01*
X112630385Y-51036996D01*
X112575858Y-51091524D01*
X112553512Y-51113870D01*
X112492188Y-51147354D01*
X112422497Y-51142369D01*
X112415395Y-51139467D01*
X112312060Y-51093459D01*
X112128719Y-51054489D01*
X112067237Y-51021297D01*
X112033461Y-50960134D01*
X112030592Y-50934039D01*
X112030595Y-50934171D01*
X112030588Y-50934003D01*
X112030500Y-50933199D01*
X112030500Y-50931751D01*
X112030500Y-50931750D01*
X112030500Y-50929306D01*
X112027598Y-50892431D01*
X111984066Y-50742596D01*
X111981744Y-50734602D01*
X111968708Y-50712560D01*
X111898081Y-50593135D01*
X111781865Y-50476919D01*
X111736687Y-50450201D01*
X111640397Y-50393255D01*
X111482572Y-50347402D01*
X111448128Y-50344691D01*
X111448114Y-50344690D01*
X111445694Y-50344500D01*
X111014306Y-50344500D01*
X111011886Y-50344690D01*
X111011871Y-50344691D01*
X110977427Y-50347402D01*
X110819602Y-50393255D01*
X110678134Y-50476919D01*
X110561919Y-50593134D01*
X110478255Y-50734602D01*
X110432402Y-50892427D01*
X110429691Y-50926871D01*
X110429690Y-50926886D01*
X110429500Y-50929306D01*
X110429499Y-50931750D01*
X110429500Y-50931750D01*
X110429500Y-50982600D01*
X110409815Y-51049639D01*
X110357011Y-51095394D01*
X110305500Y-51106600D01*
X110201352Y-51106600D01*
X110027939Y-51143459D01*
X109865977Y-51215569D01*
X109845892Y-51230162D01*
X109780085Y-51253640D01*
X109712032Y-51237813D01*
X109663338Y-51187706D01*
X109649464Y-51119228D01*
X109655077Y-51091528D01*
X109679514Y-51016319D01*
X109698046Y-50840000D01*
X109679514Y-50663681D01*
X109624729Y-50495069D01*
X109609366Y-50468459D01*
X109536084Y-50341530D01*
X109417453Y-50209777D01*
X109274023Y-50105570D01*
X109112060Y-50033459D01*
X108927348Y-49994198D01*
X108865866Y-49961006D01*
X108865448Y-49960589D01*
X108311638Y-49406779D01*
X108300942Y-49394583D01*
X108283191Y-49371449D01*
X108165375Y-49281047D01*
X108028176Y-49224217D01*
X108011063Y-49221964D01*
X107917910Y-49209700D01*
X107880942Y-49204833D01*
X107852031Y-49208639D01*
X107835848Y-49209700D01*
X107484159Y-49209700D01*
X107467973Y-49208639D01*
X107439058Y-49204832D01*
X107439057Y-49204832D01*
X107308931Y-49221964D01*
X107291823Y-49224217D01*
X107288319Y-49225669D01*
X107154627Y-49281044D01*
X107137275Y-49294359D01*
X107066390Y-49348751D01*
X107036808Y-49371450D01*
X107036807Y-49371451D01*
X107019051Y-49394590D01*
X107008359Y-49406780D01*
X106283080Y-50132059D01*
X106270888Y-50142752D01*
X106247749Y-50160508D01*
X106212598Y-50206316D01*
X106212588Y-50206331D01*
X106158277Y-50277112D01*
X106101849Y-50318316D01*
X106032103Y-50322471D01*
X105971182Y-50288260D01*
X105938429Y-50226543D01*
X105935900Y-50201627D01*
X105935900Y-48968000D01*
X114053800Y-48968000D01*
X114053800Y-49112518D01*
X114054154Y-49119132D01*
X114060200Y-49175373D01*
X114078586Y-49224667D01*
X114083570Y-49294359D01*
X114078586Y-49311333D01*
X114060200Y-49360626D01*
X114054154Y-49416867D01*
X114053800Y-49423481D01*
X114053800Y-49468000D01*
X114653800Y-49468000D01*
X114653800Y-48968000D01*
X114053800Y-48968000D01*
X105935900Y-48968000D01*
X105935900Y-47345599D01*
X107385951Y-47345599D01*
X107405717Y-47596749D01*
X107464526Y-47841710D01*
X107491126Y-47905928D01*
X107560934Y-48074459D01*
X107692564Y-48289259D01*
X107856176Y-48480824D01*
X108047741Y-48644436D01*
X108262541Y-48776066D01*
X108495289Y-48872473D01*
X108740252Y-48931283D01*
X108928518Y-48946100D01*
X108930963Y-48946100D01*
X109051837Y-48946100D01*
X109054282Y-48946100D01*
X109242548Y-48931283D01*
X109487511Y-48872473D01*
X109720259Y-48776066D01*
X109935059Y-48644436D01*
X110126624Y-48480824D01*
X110290236Y-48289259D01*
X110421866Y-48074459D01*
X110518273Y-47841711D01*
X110577083Y-47596748D01*
X110596849Y-47345600D01*
X110577083Y-47094452D01*
X110518273Y-46849489D01*
X110421866Y-46616741D01*
X110290236Y-46401941D01*
X110126624Y-46210376D01*
X109935059Y-46046764D01*
X109720259Y-45915134D01*
X109569870Y-45852841D01*
X109487510Y-45818726D01*
X109242549Y-45759917D01*
X109056716Y-45745291D01*
X109056701Y-45745290D01*
X109054282Y-45745100D01*
X108928518Y-45745100D01*
X108926099Y-45745290D01*
X108926083Y-45745291D01*
X108740250Y-45759917D01*
X108495289Y-45818726D01*
X108262539Y-45915135D01*
X108047742Y-46046763D01*
X107856176Y-46210376D01*
X107692563Y-46401942D01*
X107560935Y-46616739D01*
X107464526Y-46849489D01*
X107405717Y-47094450D01*
X107385951Y-47345599D01*
X105935900Y-47345599D01*
X105935900Y-46866354D01*
X105936544Y-46861297D01*
X105936436Y-46848485D01*
X105936437Y-46848482D01*
X105935913Y-46786339D01*
X105936078Y-46778861D01*
X105951343Y-46487430D01*
X105953041Y-46472478D01*
X105965604Y-46400927D01*
X106002852Y-46188778D01*
X106006347Y-46174152D01*
X106090172Y-45898576D01*
X106095412Y-45884485D01*
X106212007Y-45621107D01*
X106218923Y-45607743D01*
X106264657Y-45531141D01*
X106366580Y-45360426D01*
X106375055Y-45348012D01*
X106551597Y-45120407D01*
X106561510Y-45109115D01*
X106764343Y-44904568D01*
X106775539Y-44894571D01*
X107001652Y-44716121D01*
X107014002Y-44707536D01*
X107260073Y-44557801D01*
X107273371Y-44550778D01*
X107535757Y-44431973D01*
X107549816Y-44426611D01*
X107824668Y-44340475D01*
X107839267Y-44336856D01*
X108122537Y-44284660D01*
X108137471Y-44282837D01*
X108428403Y-44265142D01*
X108435931Y-44264914D01*
X108518482Y-44264914D01*
X108518514Y-44264907D01*
X111940814Y-44264700D01*
X112009761Y-44264700D01*
X112009762Y-44264700D01*
X112035966Y-44257005D01*
X112053254Y-44253244D01*
X112080287Y-44249356D01*
X112105093Y-44238025D01*
X112121679Y-44231837D01*
X112147853Y-44224153D01*
X112170836Y-44209381D01*
X112186353Y-44200907D01*
X112211199Y-44189560D01*
X112231820Y-44171688D01*
X112245966Y-44161098D01*
X112268928Y-44146343D01*
X112286813Y-44125700D01*
X112299322Y-44113191D01*
X112319963Y-44095305D01*
X112334710Y-44072353D01*
X112345313Y-44058188D01*
X112363177Y-44037573D01*
X112374526Y-44012720D01*
X112382993Y-43997214D01*
X112397766Y-43974225D01*
X112405452Y-43948038D01*
X112411632Y-43931470D01*
X112422965Y-43906657D01*
X112426852Y-43879615D01*
X112430608Y-43862344D01*
X112438304Y-43836130D01*
X112438300Y-43763119D01*
X112438300Y-42950422D01*
X112457983Y-42883387D01*
X112510787Y-42837632D01*
X112562481Y-42826426D01*
X114129984Y-42828752D01*
G37*
G04 #@! TD.AperFunction*
G04 #@! TA.AperFunction,Conductor*
G36*
X128214942Y-54251685D02*
G01*
X128240053Y-54273028D01*
X128282546Y-54320222D01*
X128425976Y-54424429D01*
X128587939Y-54496540D01*
X128761352Y-54533400D01*
X128761355Y-54533400D01*
X128938648Y-54533400D01*
X129112057Y-54496541D01*
X129112057Y-54496540D01*
X129112061Y-54496540D01*
X129205329Y-54455013D01*
X129274577Y-54445728D01*
X129337854Y-54475356D01*
X129375068Y-54534491D01*
X129379292Y-54579100D01*
X129364340Y-54749999D01*
X129384936Y-54985407D01*
X129429709Y-55152501D01*
X129446097Y-55213663D01*
X129545965Y-55427830D01*
X129681505Y-55621401D01*
X129848599Y-55788495D01*
X130034160Y-55918426D01*
X130077783Y-55973002D01*
X130084976Y-56042501D01*
X130053454Y-56104855D01*
X130034158Y-56121575D01*
X129856603Y-56245901D01*
X129848595Y-56251508D01*
X129681505Y-56418598D01*
X129545965Y-56612170D01*
X129446097Y-56826336D01*
X129384936Y-57054592D01*
X129364340Y-57290000D01*
X129384936Y-57525407D01*
X129415906Y-57640988D01*
X129446097Y-57753663D01*
X129545965Y-57967830D01*
X129681505Y-58161401D01*
X129848599Y-58328495D01*
X130034160Y-58458426D01*
X130077783Y-58513002D01*
X130084976Y-58582501D01*
X130053454Y-58644855D01*
X130034158Y-58661575D01*
X129880399Y-58769239D01*
X129848595Y-58791508D01*
X129681505Y-58958598D01*
X129545965Y-59152170D01*
X129446097Y-59366336D01*
X129384936Y-59594592D01*
X129364340Y-59829999D01*
X129384936Y-60065407D01*
X129413888Y-60173457D01*
X129446097Y-60293663D01*
X129545965Y-60507830D01*
X129681505Y-60701401D01*
X129848599Y-60868495D01*
X130034596Y-60998732D01*
X130078219Y-61053307D01*
X130085412Y-61122806D01*
X130053890Y-61185160D01*
X130034595Y-61201880D01*
X129848919Y-61331892D01*
X129681890Y-61498921D01*
X129546400Y-61692421D01*
X129446569Y-61906507D01*
X129389364Y-62119999D01*
X129389364Y-62120000D01*
X130286314Y-62120000D01*
X130260507Y-62160156D01*
X130220000Y-62298111D01*
X130220000Y-62441889D01*
X130260507Y-62579844D01*
X130286314Y-62620000D01*
X129389364Y-62620000D01*
X129446569Y-62833492D01*
X129546399Y-63047576D01*
X129681893Y-63241081D01*
X129848918Y-63408106D01*
X130034595Y-63538119D01*
X130078219Y-63592696D01*
X130085412Y-63662195D01*
X130053890Y-63724549D01*
X130034595Y-63741269D01*
X129848595Y-63871508D01*
X129681505Y-64038598D01*
X129545965Y-64232170D01*
X129446097Y-64446336D01*
X129384936Y-64674592D01*
X129364340Y-64909999D01*
X129384936Y-65145407D01*
X129429709Y-65312502D01*
X129446097Y-65373663D01*
X129545965Y-65587830D01*
X129681505Y-65781401D01*
X129848599Y-65948495D01*
X130034160Y-66078426D01*
X130077783Y-66133002D01*
X130084976Y-66202501D01*
X130053454Y-66264855D01*
X130034159Y-66281575D01*
X129848595Y-66411508D01*
X129681505Y-66578598D01*
X129545965Y-66772170D01*
X129446097Y-66986336D01*
X129384936Y-67214592D01*
X129364340Y-67450000D01*
X129384936Y-67685407D01*
X129418369Y-67810180D01*
X129446097Y-67913663D01*
X129545965Y-68127830D01*
X129681505Y-68321401D01*
X129848599Y-68488495D01*
X130034160Y-68618426D01*
X130077783Y-68673002D01*
X130084976Y-68742501D01*
X130053454Y-68804855D01*
X130034158Y-68821575D01*
X129851463Y-68949500D01*
X129848595Y-68951508D01*
X129681505Y-69118598D01*
X129545965Y-69312170D01*
X129446097Y-69526336D01*
X129384936Y-69754592D01*
X129364340Y-69990000D01*
X129384936Y-70225407D01*
X129419720Y-70355221D01*
X129446097Y-70453663D01*
X129545965Y-70667830D01*
X129681505Y-70861401D01*
X129848599Y-71028495D01*
X130034160Y-71158426D01*
X130077783Y-71213002D01*
X130084976Y-71282501D01*
X130053454Y-71344855D01*
X130034158Y-71361575D01*
X129853484Y-71488085D01*
X129848595Y-71491508D01*
X129681505Y-71658598D01*
X129545965Y-71852170D01*
X129526271Y-71894405D01*
X129480098Y-71946844D01*
X129413889Y-71966000D01*
X128492288Y-71966000D01*
X128425249Y-71946315D01*
X128400138Y-71924972D01*
X128377453Y-71899777D01*
X128234023Y-71795570D01*
X128072060Y-71723459D01*
X127898648Y-71686600D01*
X127898645Y-71686600D01*
X127894499Y-71686600D01*
X127827460Y-71666915D01*
X127781705Y-71614111D01*
X127770499Y-71562600D01*
X127770499Y-71473242D01*
X127770499Y-71470820D01*
X127767665Y-71434796D01*
X127724478Y-71286144D01*
X127722869Y-71280606D01*
X127698418Y-71239263D01*
X127688871Y-71223120D01*
X127671688Y-71155399D01*
X127688872Y-71096878D01*
X127695490Y-71085689D01*
X127722869Y-71039393D01*
X127767665Y-70885204D01*
X127770500Y-70849181D01*
X127770499Y-70450820D01*
X127767665Y-70414796D01*
X127754387Y-70369092D01*
X127754587Y-70299225D01*
X127792530Y-70240555D01*
X127856168Y-70211712D01*
X127873464Y-70210500D01*
X128192245Y-70210500D01*
X128194690Y-70210500D01*
X128230993Y-70207643D01*
X128386395Y-70162494D01*
X128525687Y-70080117D01*
X128640117Y-69965687D01*
X128722494Y-69826395D01*
X128767643Y-69670993D01*
X128770500Y-69634690D01*
X128770500Y-69225310D01*
X128767643Y-69189007D01*
X128755166Y-69146063D01*
X128722494Y-69033605D01*
X128710089Y-69012629D01*
X128692906Y-68944905D01*
X128710091Y-68886383D01*
X128722032Y-68866193D01*
X128764504Y-68720000D01*
X128458353Y-68720000D01*
X128395232Y-68702732D01*
X128386394Y-68697505D01*
X128230996Y-68652357D01*
X128197124Y-68649691D01*
X128197110Y-68649690D01*
X128194690Y-68649500D01*
X128192245Y-68649500D01*
X127904500Y-68649500D01*
X127837461Y-68629815D01*
X127791706Y-68577011D01*
X127780500Y-68525500D01*
X127780499Y-68243243D01*
X127780499Y-68240820D01*
X127777665Y-68204796D01*
X127732869Y-68050607D01*
X127727267Y-68041134D01*
X127710000Y-67978015D01*
X127710000Y-67720409D01*
X127710323Y-67712178D01*
X127710213Y-67714045D01*
X127710307Y-67711624D01*
X127710435Y-67710000D01*
X128210000Y-67710000D01*
X128210000Y-68220000D01*
X128764504Y-68220000D01*
X128722031Y-68073803D01*
X128687916Y-68016118D01*
X128670733Y-67948394D01*
X128680549Y-67914966D01*
X128678036Y-67914236D01*
X128727166Y-67745127D01*
X128729931Y-67710000D01*
X128210000Y-67710000D01*
X127710435Y-67710000D01*
X127710500Y-67709181D01*
X127710499Y-67210820D01*
X127710434Y-67210000D01*
X128210000Y-67210000D01*
X128729931Y-67210000D01*
X128727166Y-67174872D01*
X128682406Y-67020807D01*
X128600735Y-66882709D01*
X128487290Y-66769264D01*
X128349192Y-66687593D01*
X128210001Y-66647153D01*
X128210000Y-66647154D01*
X128210000Y-67210000D01*
X127710434Y-67210000D01*
X127710308Y-67208403D01*
X127710213Y-67205962D01*
X127710323Y-67207834D01*
X127710000Y-67199607D01*
X127710000Y-66647154D01*
X127709998Y-66647153D01*
X127662594Y-66660926D01*
X127592725Y-66660727D01*
X127534055Y-66622785D01*
X127505211Y-66559147D01*
X127503999Y-66541850D01*
X127503999Y-66204606D01*
X127503999Y-65609782D01*
X127505058Y-65593632D01*
X127508867Y-65564704D01*
X127489483Y-65417470D01*
X127432653Y-65280271D01*
X127428903Y-65275384D01*
X127416539Y-65259270D01*
X127384284Y-65217235D01*
X127342250Y-65162454D01*
X127326689Y-65150514D01*
X127319104Y-65144693D01*
X127306912Y-65134000D01*
X125701309Y-63528396D01*
X125667824Y-63467073D01*
X125665250Y-63432778D01*
X125665000Y-63440560D01*
X125665000Y-63258140D01*
X125664559Y-63250776D01*
X125654385Y-63166051D01*
X125598921Y-63025406D01*
X125537597Y-62944537D01*
X125512774Y-62879226D01*
X125518470Y-62831294D01*
X125571446Y-62668251D01*
X125589978Y-62491932D01*
X125580852Y-62405113D01*
X125593421Y-62336388D01*
X125641152Y-62285364D01*
X125669579Y-62273078D01*
X125734797Y-62254130D01*
X125873979Y-62171818D01*
X125988318Y-62057479D01*
X126070632Y-61918294D01*
X126115744Y-61763017D01*
X126117390Y-61742100D01*
X125283100Y-61742100D01*
X125216061Y-61722415D01*
X125170306Y-61669611D01*
X125159100Y-61618100D01*
X125159100Y-61614879D01*
X125178785Y-61547840D01*
X125195419Y-61527198D01*
X125444198Y-61278419D01*
X125505521Y-61244934D01*
X125531879Y-61242100D01*
X126117390Y-61242100D01*
X126115745Y-61221184D01*
X126070632Y-61065905D01*
X126035216Y-61006020D01*
X126018033Y-60938297D01*
X126040193Y-60872034D01*
X126094659Y-60828270D01*
X126116168Y-60821609D01*
X126166416Y-60810927D01*
X126187061Y-60806540D01*
X126349023Y-60734429D01*
X126394478Y-60701404D01*
X126492453Y-60630222D01*
X126496418Y-60625819D01*
X126611084Y-60498469D01*
X126699729Y-60344931D01*
X126754514Y-60176319D01*
X126773046Y-60000000D01*
X126754514Y-59823681D01*
X126699729Y-59655069D01*
X126657859Y-59582548D01*
X126611084Y-59501530D01*
X126585650Y-59473283D01*
X126555420Y-59410292D01*
X126553800Y-59390311D01*
X126553800Y-58868000D01*
X127053800Y-58868000D01*
X127053800Y-59468000D01*
X127198318Y-59468000D01*
X127204932Y-59467645D01*
X127261171Y-59461599D01*
X127395889Y-59411352D01*
X127510988Y-59325188D01*
X127597152Y-59210089D01*
X127647399Y-59075371D01*
X127653445Y-59019132D01*
X127653800Y-59012518D01*
X127653800Y-58868000D01*
X127053800Y-58868000D01*
X126553800Y-58868000D01*
X126553800Y-58492499D01*
X126573485Y-58425460D01*
X126626289Y-58379705D01*
X126677800Y-58368499D01*
X127198360Y-58368499D01*
X127201672Y-58368499D01*
X127204759Y-58368167D01*
X127210986Y-58368000D01*
X127653800Y-58368000D01*
X127653800Y-58223481D01*
X127653446Y-58216885D01*
X127647397Y-58160622D01*
X127629280Y-58112049D01*
X127624294Y-58042358D01*
X127629274Y-58025395D01*
X127647891Y-57975483D01*
X127654300Y-57915873D01*
X127654299Y-57420128D01*
X127647891Y-57360517D01*
X127629545Y-57311331D01*
X127624562Y-57241643D01*
X127629547Y-57224665D01*
X127631158Y-57220345D01*
X127647891Y-57175483D01*
X127654300Y-57115873D01*
X127654299Y-56620128D01*
X127647891Y-56560517D01*
X127629545Y-56511331D01*
X127624562Y-56441643D01*
X127629547Y-56424665D01*
X127631005Y-56420755D01*
X127647891Y-56375483D01*
X127654300Y-56315873D01*
X127654299Y-55820128D01*
X127647891Y-55760517D01*
X127629545Y-55711331D01*
X127624562Y-55641643D01*
X127629547Y-55624665D01*
X127647890Y-55575485D01*
X127647889Y-55575485D01*
X127647891Y-55575483D01*
X127654300Y-55515873D01*
X127654299Y-55020128D01*
X127647891Y-54960517D01*
X127629545Y-54911331D01*
X127624562Y-54841643D01*
X127629547Y-54824665D01*
X127647890Y-54775485D01*
X127647889Y-54775485D01*
X127647891Y-54775483D01*
X127654300Y-54715873D01*
X127654299Y-54355999D01*
X127673983Y-54288961D01*
X127726787Y-54243206D01*
X127778299Y-54232000D01*
X128147903Y-54232000D01*
X128214942Y-54251685D01*
G37*
G04 #@! TD.AperFunction*
G04 #@! TA.AperFunction,Conductor*
G36*
X134982865Y-69146063D02*
G01*
X135030476Y-69197200D01*
X135043593Y-69252653D01*
X135046822Y-76769731D01*
X135027166Y-76836779D01*
X134974382Y-76882556D01*
X134905228Y-76892529D01*
X134841660Y-76863532D01*
X134824445Y-76845269D01*
X134802099Y-76816147D01*
X134793650Y-76805135D01*
X134770510Y-76787379D01*
X134758315Y-76776684D01*
X134198091Y-76216459D01*
X134164606Y-76155136D01*
X134169590Y-76085444D01*
X134198091Y-76041097D01*
X134298106Y-75941081D01*
X134433600Y-75747576D01*
X134533430Y-75533492D01*
X134590636Y-75320000D01*
X133693686Y-75320000D01*
X133719493Y-75279844D01*
X133760000Y-75141889D01*
X133760000Y-74998111D01*
X133719493Y-74860156D01*
X133693686Y-74820000D01*
X134590636Y-74820000D01*
X134590635Y-74819999D01*
X134533430Y-74606507D01*
X134433599Y-74392421D01*
X134298109Y-74198921D01*
X134131081Y-74031893D01*
X133945404Y-73901880D01*
X133901780Y-73847303D01*
X133894587Y-73777804D01*
X133926109Y-73715450D01*
X133945399Y-73698734D01*
X134131401Y-73568495D01*
X134298495Y-73401401D01*
X134434035Y-73207830D01*
X134533903Y-72993663D01*
X134595063Y-72765408D01*
X134615659Y-72530000D01*
X134614626Y-72518198D01*
X134595063Y-72294592D01*
X134582872Y-72249094D01*
X134533903Y-72066337D01*
X134434035Y-71852171D01*
X134298495Y-71658599D01*
X134131401Y-71491505D01*
X133945839Y-71361573D01*
X133902216Y-71306998D01*
X133895022Y-71237500D01*
X133926545Y-71175145D01*
X133945837Y-71158428D01*
X134131401Y-71028495D01*
X134298495Y-70861401D01*
X134434035Y-70667830D01*
X134533903Y-70453663D01*
X134595063Y-70225408D01*
X134615659Y-69990000D01*
X134595063Y-69754592D01*
X134549763Y-69585528D01*
X134551426Y-69515682D01*
X134581855Y-69465759D01*
X134667420Y-69380194D01*
X134679610Y-69369505D01*
X134702750Y-69351750D01*
X134793153Y-69233933D01*
X134805032Y-69205252D01*
X134848871Y-69150851D01*
X134915165Y-69128785D01*
X134982865Y-69146063D01*
G37*
G04 #@! TD.AperFunction*
G04 #@! TA.AperFunction,Conductor*
G36*
X115270694Y-69421565D02*
G01*
X115307204Y-69476279D01*
X115322448Y-69522283D01*
X115410720Y-69665393D01*
X115529606Y-69784279D01*
X115529608Y-69784280D01*
X115529609Y-69784281D01*
X115597886Y-69826395D01*
X115607520Y-69832337D01*
X115654244Y-69884285D01*
X115665466Y-69953248D01*
X115637623Y-70017330D01*
X115634573Y-70020848D01*
X115539415Y-70126530D01*
X115450770Y-70280069D01*
X115400270Y-70435495D01*
X115395986Y-70448681D01*
X115377454Y-70625000D01*
X115395986Y-70801319D01*
X115395987Y-70801322D01*
X115450770Y-70969930D01*
X115539415Y-71123469D01*
X115658046Y-71255222D01*
X115801476Y-71359429D01*
X115963439Y-71431540D01*
X116136852Y-71468400D01*
X116136855Y-71468400D01*
X116219921Y-71468400D01*
X116286960Y-71488085D01*
X116307602Y-71504719D01*
X116589802Y-71786919D01*
X116623287Y-71848242D01*
X116618303Y-71917934D01*
X116576431Y-71973867D01*
X116510967Y-71998284D01*
X116502121Y-71998600D01*
X113684790Y-71998600D01*
X113685495Y-71997545D01*
X113704898Y-71900000D01*
X113685495Y-71802455D01*
X113630240Y-71719760D01*
X113547545Y-71664505D01*
X113474624Y-71650000D01*
X114370471Y-71650000D01*
X114382191Y-71633162D01*
X114436645Y-71589384D01*
X114483965Y-71580000D01*
X114609518Y-71580000D01*
X114616132Y-71579645D01*
X114672371Y-71573599D01*
X114807089Y-71523352D01*
X114922188Y-71437188D01*
X115008352Y-71322089D01*
X115058599Y-71187371D01*
X115064645Y-71131132D01*
X115065000Y-71124518D01*
X115065000Y-71080000D01*
X113664000Y-71080000D01*
X113596961Y-71060315D01*
X113551206Y-71007511D01*
X113540000Y-70956000D01*
X113540000Y-70904499D01*
X113559685Y-70837460D01*
X113612489Y-70791705D01*
X113664000Y-70780499D01*
X114609561Y-70780499D01*
X114612872Y-70780499D01*
X114672483Y-70774091D01*
X114807331Y-70723796D01*
X114922546Y-70637546D01*
X115003287Y-70529689D01*
X115051108Y-70493891D01*
X115065000Y-70480000D01*
X115065000Y-70435495D01*
X115064644Y-70428865D01*
X115061068Y-70395602D01*
X115061068Y-70369094D01*
X115065500Y-70327873D01*
X115065499Y-70027880D01*
X115065500Y-70027873D01*
X115065499Y-69632128D01*
X115061320Y-69593254D01*
X115061320Y-69566747D01*
X115065500Y-69527873D01*
X115065499Y-69515290D01*
X115085178Y-69448253D01*
X115137979Y-69402494D01*
X115207136Y-69392545D01*
X115270694Y-69421565D01*
G37*
G04 #@! TD.AperFunction*
G04 #@! TA.AperFunction,Conductor*
G36*
X118717434Y-70978353D02*
G01*
X118773367Y-71020225D01*
X118797784Y-71085689D01*
X118798100Y-71094535D01*
X118798100Y-71197690D01*
X118798290Y-71200110D01*
X118798291Y-71200124D01*
X118800957Y-71233996D01*
X118846104Y-71389391D01*
X118846105Y-71389393D01*
X118846106Y-71389395D01*
X118858510Y-71410369D01*
X118875693Y-71478092D01*
X118858512Y-71536609D01*
X118846568Y-71556805D01*
X118804096Y-71703000D01*
X119110247Y-71703000D01*
X119173368Y-71720268D01*
X119182205Y-71725494D01*
X119337603Y-71770642D01*
X119337607Y-71770643D01*
X119373910Y-71773500D01*
X119376355Y-71773500D01*
X119734600Y-71773500D01*
X119801639Y-71793185D01*
X119847394Y-71845989D01*
X119858600Y-71897500D01*
X119858600Y-72064277D01*
X119881166Y-72105604D01*
X119884000Y-72131962D01*
X119884000Y-72930700D01*
X119864315Y-72997739D01*
X119811511Y-73043494D01*
X119760000Y-73054700D01*
X119399310Y-73054700D01*
X119396890Y-73054890D01*
X119396875Y-73054891D01*
X119363003Y-73057557D01*
X119207605Y-73102705D01*
X119198768Y-73107932D01*
X119135647Y-73125200D01*
X118829495Y-73125200D01*
X118846471Y-73183631D01*
X118846272Y-73253501D01*
X118808330Y-73312171D01*
X118744691Y-73341014D01*
X118727395Y-73342226D01*
X118636943Y-73342226D01*
X118569904Y-73322541D01*
X118549262Y-73305907D01*
X117650536Y-72407180D01*
X117617051Y-72345857D01*
X117622035Y-72276165D01*
X117663907Y-72220232D01*
X117710107Y-72203000D01*
X118804096Y-72203000D01*
X118846568Y-72349195D01*
X118861576Y-72374572D01*
X118878757Y-72442297D01*
X118873920Y-72472286D01*
X118829496Y-72625200D01*
X119358600Y-72625200D01*
X119358600Y-72203000D01*
X118804096Y-72203000D01*
X117710107Y-72203000D01*
X117729371Y-72195815D01*
X117738217Y-72195499D01*
X117846757Y-72195499D01*
X117849180Y-72195499D01*
X117885204Y-72192665D01*
X118039393Y-72147869D01*
X118177598Y-72066135D01*
X118291135Y-71952598D01*
X118372869Y-71814393D01*
X118417665Y-71660204D01*
X118420500Y-71624181D01*
X118420499Y-71225820D01*
X118420561Y-71228977D01*
X118437554Y-71161331D01*
X118456750Y-71136523D01*
X118586421Y-71006852D01*
X118647742Y-70973369D01*
X118717434Y-70978353D01*
G37*
G04 #@! TD.AperFunction*
G04 #@! TA.AperFunction,Conductor*
G36*
X125618038Y-72070185D02*
G01*
X125663793Y-72122989D01*
X125674999Y-72174500D01*
X125674999Y-73008790D01*
X125695915Y-73007145D01*
X125851194Y-72962032D01*
X125990379Y-72879718D01*
X126104718Y-72765379D01*
X126187032Y-72626194D01*
X126232144Y-72470916D01*
X126234798Y-72437197D01*
X126259681Y-72371909D01*
X126315912Y-72330437D01*
X126385637Y-72325950D01*
X126421535Y-72340192D01*
X126510607Y-72392869D01*
X126664796Y-72437665D01*
X126700819Y-72440500D01*
X126840897Y-72440499D01*
X126907936Y-72460183D01*
X126953691Y-72512987D01*
X126964217Y-72551534D01*
X126980486Y-72706319D01*
X126980487Y-72706322D01*
X127035270Y-72874930D01*
X127123915Y-73028469D01*
X127242546Y-73160222D01*
X127385976Y-73264429D01*
X127547939Y-73336540D01*
X127721352Y-73373400D01*
X127721355Y-73373400D01*
X127898648Y-73373400D01*
X128051012Y-73341014D01*
X128072061Y-73336540D01*
X128234023Y-73264429D01*
X128300899Y-73215841D01*
X128377453Y-73160222D01*
X128400138Y-73135028D01*
X128459624Y-73098379D01*
X128492288Y-73094000D01*
X129413889Y-73094000D01*
X129480928Y-73113685D01*
X129526270Y-73165595D01*
X129545965Y-73207830D01*
X129589761Y-73270378D01*
X129612088Y-73336583D01*
X129595078Y-73404350D01*
X129544130Y-73452163D01*
X129488186Y-73465500D01*
X129283864Y-73465500D01*
X129267678Y-73464439D01*
X129238763Y-73460632D01*
X129091527Y-73480017D01*
X128954332Y-73536844D01*
X128921021Y-73562404D01*
X128866095Y-73604551D01*
X128836513Y-73627250D01*
X128836512Y-73627251D01*
X128818756Y-73650390D01*
X128808064Y-73662580D01*
X127886594Y-74584050D01*
X127825271Y-74617535D01*
X127815102Y-74619308D01*
X127791724Y-74622386D01*
X127654527Y-74679214D01*
X127578010Y-74737928D01*
X127536709Y-74769618D01*
X127518954Y-74792757D01*
X127508261Y-74804949D01*
X126036667Y-76276543D01*
X125975344Y-76310028D01*
X125932802Y-76311801D01*
X125843383Y-76300029D01*
X125843375Y-76300028D01*
X125839361Y-76299500D01*
X125835308Y-76299500D01*
X125524500Y-76299500D01*
X125457461Y-76279815D01*
X125411706Y-76227011D01*
X125400500Y-76175500D01*
X125400500Y-76047400D01*
X125420185Y-75980361D01*
X125472989Y-75934606D01*
X125524500Y-75923400D01*
X125588648Y-75923400D01*
X125718706Y-75895755D01*
X125762061Y-75886540D01*
X125924023Y-75814429D01*
X126067454Y-75710221D01*
X126186084Y-75578469D01*
X126274729Y-75424931D01*
X126329514Y-75256319D01*
X126348046Y-75080000D01*
X126329514Y-74903681D01*
X126274729Y-74735069D01*
X126269296Y-74725660D01*
X126252824Y-74657761D01*
X126269297Y-74601659D01*
X126284729Y-74574931D01*
X126339514Y-74406319D01*
X126358046Y-74230000D01*
X126339514Y-74053681D01*
X126284729Y-73885069D01*
X126276836Y-73871398D01*
X126196084Y-73731530D01*
X126077453Y-73599777D01*
X125934023Y-73495570D01*
X125772060Y-73423459D01*
X125598648Y-73386600D01*
X125598645Y-73386600D01*
X125421355Y-73386600D01*
X125421352Y-73386600D01*
X125247939Y-73423459D01*
X125085976Y-73495570D01*
X124942546Y-73599777D01*
X124823915Y-73731531D01*
X124767012Y-73830090D01*
X124716445Y-73878306D01*
X124647838Y-73891528D01*
X124582973Y-73865560D01*
X124542445Y-73808646D01*
X124536336Y-73754834D01*
X124542045Y-73701730D01*
X124542400Y-73695118D01*
X124542400Y-73325600D01*
X123216400Y-73325600D01*
X123149361Y-73305915D01*
X123103606Y-73253111D01*
X123092400Y-73201600D01*
X123092400Y-72949600D01*
X123112085Y-72882561D01*
X123164889Y-72836806D01*
X123216400Y-72825600D01*
X124542400Y-72825600D01*
X124557473Y-72810526D01*
X124562085Y-72794821D01*
X124614889Y-72749066D01*
X124684047Y-72739122D01*
X124747603Y-72768147D01*
X124754081Y-72774179D01*
X124859620Y-72879718D01*
X124998805Y-72962032D01*
X125154084Y-73007145D01*
X125175000Y-73008790D01*
X125175000Y-72174500D01*
X125194685Y-72107461D01*
X125247489Y-72061706D01*
X125299000Y-72050500D01*
X125550999Y-72050500D01*
X125618038Y-72070185D01*
G37*
G04 #@! TD.AperFunction*
G04 #@! TA.AperFunction,Conductor*
G36*
X123993089Y-70037437D02*
G01*
X124032315Y-70050436D01*
X124088593Y-70056185D01*
X124127693Y-70060180D01*
X124127694Y-70060180D01*
X124130826Y-70060500D01*
X124133975Y-70060500D01*
X124778427Y-70060500D01*
X124845466Y-70080185D01*
X124891221Y-70132989D01*
X124901165Y-70202147D01*
X124892990Y-70231946D01*
X124878005Y-70268121D01*
X124875516Y-70274132D01*
X124856132Y-70421363D01*
X124859939Y-70450272D01*
X124861000Y-70466458D01*
X124861000Y-70566833D01*
X124841315Y-70633872D01*
X124824681Y-70654514D01*
X124744884Y-70734310D01*
X124735812Y-70749651D01*
X124684742Y-70797334D01*
X124616000Y-70809837D01*
X124551411Y-70783191D01*
X124512898Y-70729862D01*
X124486196Y-70658269D01*
X124399946Y-70543054D01*
X124284731Y-70456804D01*
X124149883Y-70406509D01*
X124090273Y-70400100D01*
X124086951Y-70400100D01*
X123725524Y-70400100D01*
X123658485Y-70380415D01*
X123612730Y-70327611D01*
X123602786Y-70258453D01*
X123631811Y-70194897D01*
X123675088Y-70162821D01*
X123774520Y-70118549D01*
X123823523Y-70096732D01*
X123881201Y-70054825D01*
X123947006Y-70031346D01*
X123993089Y-70037437D01*
G37*
G04 #@! TD.AperFunction*
G04 #@! TA.AperFunction,Conductor*
G36*
X106123016Y-53191498D02*
G01*
X106260607Y-53272869D01*
X106271141Y-53275929D01*
X106330025Y-53313534D01*
X106359232Y-53377007D01*
X106359865Y-53382036D01*
X106359985Y-53383182D01*
X106414770Y-53551795D01*
X106503415Y-53705334D01*
X106622046Y-53837087D01*
X106765476Y-53941294D01*
X106927439Y-54013405D01*
X107100852Y-54050265D01*
X107100855Y-54050265D01*
X107278148Y-54050265D01*
X107408207Y-54022620D01*
X107451561Y-54013405D01*
X107613523Y-53941294D01*
X107756953Y-53837087D01*
X107793777Y-53796190D01*
X107875584Y-53705334D01*
X107875584Y-53705332D01*
X107877244Y-53703490D01*
X107936730Y-53666841D01*
X108006587Y-53668171D01*
X108064636Y-53707058D01*
X108092446Y-53771155D01*
X108093012Y-53796190D01*
X108089691Y-53838381D01*
X108089690Y-53838402D01*
X108089500Y-53840819D01*
X108089500Y-53843263D01*
X108089500Y-53843264D01*
X108089500Y-54236756D01*
X108089500Y-54236781D01*
X108089501Y-54239180D01*
X108089689Y-54241571D01*
X108089690Y-54241593D01*
X108092335Y-54275205D01*
X108137130Y-54429392D01*
X108209939Y-54552505D01*
X108227122Y-54620229D01*
X108207020Y-54680335D01*
X108207857Y-54680830D01*
X108205551Y-54684728D01*
X108204962Y-54686491D01*
X108203417Y-54688337D01*
X108117505Y-54833606D01*
X108072357Y-54989003D01*
X108069691Y-55022875D01*
X108069690Y-55022890D01*
X108069500Y-55025310D01*
X108069500Y-55027755D01*
X108069500Y-55340387D01*
X108049815Y-55407426D01*
X107997011Y-55453181D01*
X107945500Y-55464387D01*
X107763565Y-55464387D01*
X107590152Y-55501246D01*
X107428189Y-55573357D01*
X107284759Y-55677564D01*
X107166128Y-55809317D01*
X107077483Y-55962856D01*
X107035916Y-56090789D01*
X107022699Y-56131468D01*
X107004167Y-56307787D01*
X107022699Y-56484106D01*
X107022700Y-56484109D01*
X107077483Y-56652717D01*
X107166128Y-56806256D01*
X107284759Y-56938009D01*
X107428189Y-57042216D01*
X107590152Y-57114327D01*
X107763565Y-57151187D01*
X107902208Y-57151187D01*
X107969247Y-57170872D01*
X107989889Y-57187506D01*
X108113181Y-57310798D01*
X108146666Y-57372121D01*
X108149500Y-57398478D01*
X108149500Y-57566757D01*
X108149500Y-57566782D01*
X108149501Y-57569180D01*
X108149689Y-57571571D01*
X108149690Y-57571593D01*
X108152335Y-57605205D01*
X108197130Y-57759392D01*
X108231128Y-57816881D01*
X108248309Y-57884605D01*
X108231128Y-57943119D01*
X108197130Y-58000607D01*
X108152335Y-58154793D01*
X108149691Y-58188384D01*
X108149690Y-58188400D01*
X108149500Y-58190819D01*
X108149500Y-58193263D01*
X108149500Y-58193264D01*
X108149500Y-58586756D01*
X108149500Y-58586781D01*
X108149501Y-58589180D01*
X108149689Y-58591571D01*
X108149690Y-58591593D01*
X108152335Y-58625205D01*
X108199377Y-58787124D01*
X108199178Y-58856994D01*
X108167982Y-58909400D01*
X106147581Y-60929802D01*
X106086258Y-60963287D01*
X106016566Y-60958303D01*
X105960633Y-60916431D01*
X105936216Y-60850967D01*
X105935900Y-60842121D01*
X105935900Y-53298232D01*
X105955585Y-53231193D01*
X106008389Y-53185438D01*
X106077547Y-53175494D01*
X106123016Y-53191498D01*
G37*
G04 #@! TD.AperFunction*
G04 #@! TA.AperFunction,Conductor*
G36*
X115096839Y-57588184D02*
G01*
X115142594Y-57640988D01*
X115153800Y-57692499D01*
X115153800Y-59468000D01*
X115298318Y-59468000D01*
X115304932Y-59467645D01*
X115361171Y-59461599D01*
X115509751Y-59406182D01*
X115579443Y-59401198D01*
X115596419Y-59406182D01*
X115611467Y-59411794D01*
X115611469Y-59411796D01*
X115746317Y-59462091D01*
X115805927Y-59468500D01*
X116301672Y-59468499D01*
X116361283Y-59462091D01*
X116410465Y-59443746D01*
X116480156Y-59438762D01*
X116497128Y-59443744D01*
X116546317Y-59462091D01*
X116605927Y-59468500D01*
X117101672Y-59468499D01*
X117161283Y-59462091D01*
X117211182Y-59443479D01*
X117280869Y-59438494D01*
X117297848Y-59443480D01*
X117346421Y-59461597D01*
X117402685Y-59467646D01*
X117409282Y-59468000D01*
X117453800Y-59468000D01*
X117453800Y-59310106D01*
X117473485Y-59243067D01*
X117478534Y-59235794D01*
X117479437Y-59234588D01*
X117497596Y-59210331D01*
X117537617Y-59103027D01*
X117579489Y-59047093D01*
X117644954Y-59022676D01*
X117713227Y-59037528D01*
X117762632Y-59086933D01*
X117769982Y-59103027D01*
X117810004Y-59210331D01*
X117829066Y-59235794D01*
X117853484Y-59301258D01*
X117853800Y-59310106D01*
X117853800Y-59468000D01*
X117898318Y-59468000D01*
X117904914Y-59467646D01*
X117961174Y-59461598D01*
X118009747Y-59443480D01*
X118079439Y-59438494D01*
X118096415Y-59443479D01*
X118107647Y-59447668D01*
X118144992Y-59461597D01*
X118146317Y-59462091D01*
X118205927Y-59468500D01*
X118701672Y-59468499D01*
X118761283Y-59462091D01*
X118810465Y-59443746D01*
X118880156Y-59438762D01*
X118897128Y-59443744D01*
X118946317Y-59462091D01*
X119005927Y-59468500D01*
X119501672Y-59468499D01*
X119561283Y-59462091D01*
X119610465Y-59443746D01*
X119680156Y-59438762D01*
X119697132Y-59443746D01*
X119723273Y-59453496D01*
X119779207Y-59495367D01*
X119803624Y-59560832D01*
X119788772Y-59629105D01*
X119739367Y-59678510D01*
X119730376Y-59682957D01*
X119600976Y-59740570D01*
X119457546Y-59844777D01*
X119338915Y-59976530D01*
X119250270Y-60130069D01*
X119195487Y-60298677D01*
X119195486Y-60298681D01*
X119190625Y-60344930D01*
X119176953Y-60475004D01*
X119178151Y-60486398D01*
X119165580Y-60555127D01*
X119129283Y-60598515D01*
X119109999Y-60612993D01*
X119109999Y-60919147D01*
X119092734Y-60982262D01*
X119087507Y-60991101D01*
X119042357Y-61146505D01*
X119039691Y-61180375D01*
X119039690Y-61180390D01*
X119039500Y-61182810D01*
X119039500Y-61652190D01*
X119039690Y-61654610D01*
X119039691Y-61654624D01*
X119042357Y-61688496D01*
X119087505Y-61843894D01*
X119102731Y-61869639D01*
X119120000Y-61932761D01*
X119120000Y-62149147D01*
X119102733Y-62212266D01*
X119097506Y-62221104D01*
X119052357Y-62376505D01*
X119049691Y-62410375D01*
X119049690Y-62410390D01*
X119049500Y-62412810D01*
X119049500Y-62415254D01*
X119049500Y-62415255D01*
X119049500Y-62460000D01*
X119029815Y-62527039D01*
X118977011Y-62572794D01*
X118925500Y-62584000D01*
X118744000Y-62584000D01*
X118676961Y-62564315D01*
X118631206Y-62511511D01*
X118620000Y-62460000D01*
X118619999Y-62245619D01*
X118612834Y-62232496D01*
X118610000Y-62206138D01*
X118610000Y-61667500D01*
X118081210Y-61667500D01*
X118082854Y-61688415D01*
X118127967Y-61843694D01*
X118207297Y-61977833D01*
X118224480Y-62045557D01*
X118207297Y-62104075D01*
X118137967Y-62221305D01*
X118092855Y-62376583D01*
X118090191Y-62410428D01*
X118090000Y-62415308D01*
X118090000Y-62460000D01*
X118070315Y-62527039D01*
X118017511Y-62572794D01*
X117966000Y-62584000D01*
X117577910Y-62584000D01*
X117510871Y-62564315D01*
X117465116Y-62511511D01*
X117454552Y-62472602D01*
X117450436Y-62432314D01*
X117416726Y-62330584D01*
X117397549Y-62272713D01*
X117309281Y-62129609D01*
X117309280Y-62129608D01*
X117309279Y-62129606D01*
X117190393Y-62010720D01*
X117047285Y-61922450D01*
X116887685Y-61869563D01*
X116792306Y-61859819D01*
X116792287Y-61859818D01*
X116789174Y-61859500D01*
X116786025Y-61859500D01*
X116269812Y-61859500D01*
X116202773Y-61839815D01*
X116157018Y-61787011D01*
X116147074Y-61717853D01*
X116176099Y-61654297D01*
X116206691Y-61628768D01*
X116312598Y-61566135D01*
X116426135Y-61452598D01*
X116507869Y-61314393D01*
X116550546Y-61167499D01*
X118081209Y-61167499D01*
X118081210Y-61167500D01*
X118609999Y-61167500D01*
X118609999Y-60612993D01*
X118463805Y-60655467D01*
X118324620Y-60737781D01*
X118210281Y-60852120D01*
X118127967Y-60991305D01*
X118082855Y-61146582D01*
X118081209Y-61167499D01*
X116550546Y-61167499D01*
X116552665Y-61160204D01*
X116555500Y-61124181D01*
X116555499Y-60625820D01*
X116552665Y-60589796D01*
X116507869Y-60435607D01*
X116426135Y-60297402D01*
X116312598Y-60183865D01*
X116312598Y-60183864D01*
X116174392Y-60102130D01*
X116020206Y-60057335D01*
X115986615Y-60054691D01*
X115986600Y-60054690D01*
X115984181Y-60054500D01*
X115981735Y-60054500D01*
X115588243Y-60054500D01*
X115588217Y-60054500D01*
X115585820Y-60054501D01*
X115583429Y-60054689D01*
X115583406Y-60054690D01*
X115549794Y-60057335D01*
X115395606Y-60102130D01*
X115338118Y-60136128D01*
X115270393Y-60153309D01*
X115211878Y-60136127D01*
X115154392Y-60102130D01*
X115000206Y-60057335D01*
X114966615Y-60054691D01*
X114966600Y-60054690D01*
X114964181Y-60054500D01*
X114961735Y-60054500D01*
X114568243Y-60054500D01*
X114568217Y-60054500D01*
X114565820Y-60054501D01*
X114563429Y-60054689D01*
X114563406Y-60054690D01*
X114529794Y-60057335D01*
X114375607Y-60102130D01*
X114237401Y-60183865D01*
X114123865Y-60297401D01*
X114042130Y-60435607D01*
X113997335Y-60589793D01*
X113994691Y-60623384D01*
X113994690Y-60623400D01*
X113994500Y-60625819D01*
X113994500Y-60628263D01*
X113994500Y-60628264D01*
X113994500Y-61121756D01*
X113994500Y-61121781D01*
X113994501Y-61124180D01*
X113994689Y-61126571D01*
X113994690Y-61126593D01*
X113997335Y-61160205D01*
X114046501Y-61329436D01*
X114045770Y-61329648D01*
X114058908Y-61381435D01*
X114042381Y-61438830D01*
X113975270Y-61555069D01*
X113920897Y-61722415D01*
X113920486Y-61723681D01*
X113901954Y-61900000D01*
X113920486Y-62076319D01*
X113920487Y-62076322D01*
X113968791Y-62224990D01*
X113970786Y-62294831D01*
X113934705Y-62354663D01*
X113872004Y-62385491D01*
X113802590Y-62377526D01*
X113801960Y-62377258D01*
X113735863Y-62348893D01*
X113546605Y-62310000D01*
X113100000Y-62310000D01*
X113100000Y-63010000D01*
X112599999Y-63010000D01*
X112600000Y-62310000D01*
X112204967Y-62310000D01*
X112198701Y-62310317D01*
X112057777Y-62324648D01*
X111873430Y-62382488D01*
X111704496Y-62476253D01*
X111557895Y-62602105D01*
X111439631Y-62754890D01*
X111354541Y-62928358D01*
X111333403Y-63010000D01*
X112225376Y-63010000D01*
X112152455Y-63024505D01*
X112069760Y-63079760D01*
X112014505Y-63162455D01*
X111995102Y-63260000D01*
X112014505Y-63357545D01*
X112069760Y-63440240D01*
X112152455Y-63495495D01*
X112225376Y-63510000D01*
X111329529Y-63510000D01*
X111392685Y-63680530D01*
X111494890Y-63844501D01*
X111628004Y-63984536D01*
X111664101Y-64009661D01*
X111707879Y-64064115D01*
X111715267Y-64133593D01*
X111685418Y-64194401D01*
X111678479Y-64202107D01*
X111652247Y-64247542D01*
X111647495Y-64255126D01*
X111616359Y-64301049D01*
X111608553Y-64320639D01*
X111600752Y-64336732D01*
X111591714Y-64352387D01*
X111574442Y-64405546D01*
X111571706Y-64413120D01*
X111549899Y-64467853D01*
X111549858Y-64468107D01*
X111547044Y-64485267D01*
X111542610Y-64503517D01*
X111538091Y-64517424D01*
X111531890Y-64576414D01*
X111530937Y-64583507D01*
X111520849Y-64645047D01*
X111521617Y-64659219D01*
X111521121Y-64678880D01*
X111519952Y-64690001D01*
X111526511Y-64752410D01*
X111527008Y-64758655D01*
X111530432Y-64821796D01*
X111514406Y-64889803D01*
X111479502Y-64928826D01*
X111457550Y-64944776D01*
X111457546Y-64944779D01*
X111395866Y-65013281D01*
X111338913Y-65076533D01*
X111250270Y-65230069D01*
X111195487Y-65398677D01*
X111195486Y-65398681D01*
X111176954Y-65575000D01*
X111186039Y-65661441D01*
X111173471Y-65730168D01*
X111125739Y-65781192D01*
X111062719Y-65798400D01*
X110780864Y-65798400D01*
X110713825Y-65778715D01*
X110693183Y-65762081D01*
X109488050Y-64556948D01*
X109319607Y-64388504D01*
X109286123Y-64327183D01*
X109291107Y-64257491D01*
X109332979Y-64201558D01*
X109355483Y-64190032D01*
X109355364Y-64189817D01*
X109544216Y-64084995D01*
X109698531Y-63952520D01*
X109823021Y-63791692D01*
X109912589Y-63609094D01*
X109938246Y-63510000D01*
X109136111Y-63510000D01*
X109175610Y-63485543D01*
X109243201Y-63396038D01*
X109273895Y-63288160D01*
X109263546Y-63176479D01*
X109213552Y-63076078D01*
X109141069Y-63010000D01*
X109943366Y-63010000D01*
X109943067Y-63008051D01*
X109872435Y-62817336D01*
X109764854Y-62644736D01*
X109624733Y-62497330D01*
X109457806Y-62381145D01*
X109365598Y-62341575D01*
X109311755Y-62297048D01*
X109290532Y-62230479D01*
X109290499Y-62227703D01*
X109290499Y-61770820D01*
X109287665Y-61734796D01*
X109242869Y-61580607D01*
X109161135Y-61442402D01*
X109047598Y-61328865D01*
X109023127Y-61314393D01*
X108909392Y-61247130D01*
X108755206Y-61202335D01*
X108721615Y-61199691D01*
X108721600Y-61199690D01*
X108719181Y-61199500D01*
X108716735Y-61199500D01*
X108323243Y-61199500D01*
X108323217Y-61199500D01*
X108320820Y-61199501D01*
X108318429Y-61199689D01*
X108318406Y-61199690D01*
X108284794Y-61202335D01*
X108130607Y-61247130D01*
X108072627Y-61281419D01*
X108004903Y-61298600D01*
X107946387Y-61281418D01*
X107889192Y-61247593D01*
X107730864Y-61201594D01*
X107671978Y-61163988D01*
X107642772Y-61100515D01*
X107652518Y-61031328D01*
X107677775Y-60994840D01*
X108997296Y-59675318D01*
X109058620Y-59641834D01*
X109084978Y-59639000D01*
X110018946Y-59639000D01*
X110035129Y-59640060D01*
X110064040Y-59643867D01*
X110211274Y-59624483D01*
X110348473Y-59567653D01*
X110436708Y-59499949D01*
X110436708Y-59499948D01*
X110444955Y-59493621D01*
X110459645Y-59482349D01*
X110459646Y-59482347D01*
X110466290Y-59477250D01*
X110484043Y-59454112D01*
X110494730Y-59441925D01*
X111167424Y-58769231D01*
X111179614Y-58758542D01*
X111193461Y-58747917D01*
X111202750Y-58740790D01*
X111225449Y-58711208D01*
X111293154Y-58622973D01*
X111306403Y-58590984D01*
X111350241Y-58536583D01*
X111416535Y-58514516D01*
X111484235Y-58531794D01*
X111527696Y-58575316D01*
X111541917Y-58599363D01*
X111541918Y-58599364D01*
X111541919Y-58599365D01*
X111658135Y-58715581D01*
X111739142Y-58763488D01*
X111799602Y-58799244D01*
X111957427Y-58845097D01*
X111957431Y-58845098D01*
X111994306Y-58848000D01*
X111996751Y-58848000D01*
X112423249Y-58848000D01*
X112425694Y-58848000D01*
X112462569Y-58845098D01*
X112620398Y-58799244D01*
X112719239Y-58740790D01*
X112775349Y-58707607D01*
X112776439Y-58709450D01*
X112819154Y-58686123D01*
X112888846Y-58691102D01*
X112933203Y-58719606D01*
X112961513Y-58747917D01*
X113100805Y-58830293D01*
X113100805Y-58830294D01*
X113256203Y-58875442D01*
X113256207Y-58875443D01*
X113292510Y-58878300D01*
X113294955Y-58878300D01*
X113759445Y-58878300D01*
X113761890Y-58878300D01*
X113798193Y-58875443D01*
X113895205Y-58847258D01*
X113965074Y-58847457D01*
X114023744Y-58885398D01*
X114052588Y-58949037D01*
X114053800Y-58966334D01*
X114053800Y-59012518D01*
X114054154Y-59019132D01*
X114060200Y-59075371D01*
X114110447Y-59210089D01*
X114196611Y-59325188D01*
X114311710Y-59411352D01*
X114446428Y-59461599D01*
X114502667Y-59467645D01*
X114509282Y-59468000D01*
X114653800Y-59468000D01*
X114653800Y-57852000D01*
X114673485Y-57784961D01*
X114726289Y-57739206D01*
X114747126Y-57734672D01*
X114753800Y-57727999D01*
X114753800Y-57692499D01*
X114773485Y-57625460D01*
X114826289Y-57579705D01*
X114877797Y-57568499D01*
X115029801Y-57568499D01*
X115096839Y-57588184D01*
G37*
G04 #@! TD.AperFunction*
G04 #@! TA.AperFunction,Conductor*
G36*
X115270701Y-65346570D02*
G01*
X115307204Y-65401279D01*
X115322448Y-65447283D01*
X115410720Y-65590393D01*
X115529608Y-65709281D01*
X115663653Y-65791962D01*
X115710378Y-65843910D01*
X115721599Y-65912872D01*
X115693756Y-65976954D01*
X115663653Y-66003038D01*
X115529608Y-66085718D01*
X115410720Y-66204606D01*
X115322450Y-66347714D01*
X115307205Y-66393722D01*
X115267432Y-66451167D01*
X115202916Y-66477990D01*
X115134141Y-66465675D01*
X115082941Y-66418132D01*
X115065499Y-66354718D01*
X115065499Y-66135439D01*
X115065499Y-66132128D01*
X115061067Y-66090898D01*
X115061068Y-66064393D01*
X115064644Y-66031132D01*
X115065000Y-66024505D01*
X115065000Y-65980000D01*
X115049388Y-65964388D01*
X115035516Y-65960315D01*
X115003291Y-65930314D01*
X114983826Y-65904314D01*
X114959406Y-65838851D01*
X114974255Y-65770578D01*
X114983826Y-65755686D01*
X115003291Y-65729686D01*
X115051105Y-65693894D01*
X115065000Y-65680000D01*
X115065000Y-65635495D01*
X115064644Y-65628865D01*
X115061068Y-65595602D01*
X115061068Y-65569094D01*
X115065500Y-65527873D01*
X115065499Y-65440282D01*
X115085183Y-65373246D01*
X115137986Y-65327490D01*
X115207145Y-65317546D01*
X115270701Y-65346570D01*
G37*
G04 #@! TD.AperFunction*
G04 #@! TA.AperFunction,Conductor*
G36*
X121854216Y-65823986D02*
G01*
X121886971Y-65885702D01*
X121889499Y-65910619D01*
X121889500Y-66015602D01*
X121889940Y-66019265D01*
X121900123Y-66104067D01*
X121939773Y-66204609D01*
X121955639Y-66244842D01*
X121983495Y-66281575D01*
X122047077Y-66365422D01*
X122084397Y-66393722D01*
X122167658Y-66456861D01*
X122175008Y-66459759D01*
X122217197Y-66487432D01*
X122376919Y-66647154D01*
X122514702Y-66784936D01*
X122548187Y-66846259D01*
X122549059Y-66862147D01*
X122550092Y-66862039D01*
X122551454Y-66874998D01*
X122551454Y-66875000D01*
X122569986Y-67051319D01*
X122569987Y-67051322D01*
X122624770Y-67219930D01*
X122719932Y-67384756D01*
X122715877Y-67387096D01*
X122734918Y-67426446D01*
X122726516Y-67495808D01*
X122681948Y-67549617D01*
X122615363Y-67570789D01*
X122602876Y-67570438D01*
X122561620Y-67567191D01*
X122561596Y-67567190D01*
X122559181Y-67567000D01*
X122556735Y-67567000D01*
X122063243Y-67567000D01*
X122063217Y-67567000D01*
X122060820Y-67567001D01*
X122058429Y-67567189D01*
X122058406Y-67567190D01*
X122024794Y-67569835D01*
X121870607Y-67614630D01*
X121834944Y-67635721D01*
X121767220Y-67652901D01*
X121708706Y-67635719D01*
X121699194Y-67630093D01*
X121545128Y-67585333D01*
X121510000Y-67582568D01*
X121510000Y-68023842D01*
X121505077Y-68058435D01*
X121492335Y-68102294D01*
X121489691Y-68135884D01*
X121489690Y-68135900D01*
X121489500Y-68138319D01*
X121489500Y-68140764D01*
X121489500Y-68294020D01*
X121469815Y-68361059D01*
X121453181Y-68381701D01*
X121269200Y-68565681D01*
X121207877Y-68599166D01*
X121181520Y-68602000D01*
X121013242Y-68602000D01*
X121013216Y-68602000D01*
X121010820Y-68602001D01*
X121008412Y-68602190D01*
X121005962Y-68602287D01*
X121007828Y-68602177D01*
X120999608Y-68602500D01*
X120710000Y-68602500D01*
X120706319Y-68606181D01*
X120644996Y-68639666D01*
X120618638Y-68642500D01*
X120358353Y-68642500D01*
X120295232Y-68625232D01*
X120286394Y-68620005D01*
X120130996Y-68574857D01*
X120097124Y-68572191D01*
X120097110Y-68572190D01*
X120094690Y-68572000D01*
X120092245Y-68572000D01*
X119804500Y-68572000D01*
X119737461Y-68552315D01*
X119691706Y-68499511D01*
X119680500Y-68448000D01*
X119680499Y-68175743D01*
X119680499Y-68173320D01*
X119678074Y-68142499D01*
X120119999Y-68142499D01*
X120120000Y-68142500D01*
X120400000Y-68142500D01*
X120403681Y-68138819D01*
X120465004Y-68105334D01*
X120491362Y-68102500D01*
X121009999Y-68102500D01*
X121009999Y-67582568D01*
X120974870Y-67585333D01*
X120820805Y-67630093D01*
X120794597Y-67645593D01*
X120726872Y-67662774D01*
X120660610Y-67640614D01*
X120640423Y-67623032D01*
X120639931Y-67622500D01*
X120120000Y-67622500D01*
X120119999Y-68142499D01*
X119678074Y-68142499D01*
X119677665Y-68137296D01*
X119632869Y-67983107D01*
X119627267Y-67973634D01*
X119610000Y-67910515D01*
X119610000Y-67701734D01*
X119614924Y-67667137D01*
X119615655Y-67664621D01*
X119617665Y-67657704D01*
X119620500Y-67621681D01*
X119620500Y-67550000D01*
X119640185Y-67482961D01*
X119692989Y-67437206D01*
X119744500Y-67426000D01*
X119802906Y-67426000D01*
X119819089Y-67427060D01*
X119848000Y-67430867D01*
X119995234Y-67411483D01*
X119995234Y-67411482D01*
X120011419Y-67409352D01*
X120011578Y-67410560D01*
X120027133Y-67408886D01*
X120061731Y-67383939D01*
X120068805Y-67381008D01*
X120132433Y-67354653D01*
X120220668Y-67286949D01*
X120220668Y-67286948D01*
X120230061Y-67279740D01*
X120250250Y-67264250D01*
X120268003Y-67241112D01*
X120278683Y-67228932D01*
X120348799Y-67158816D01*
X120410121Y-67125334D01*
X120436478Y-67122500D01*
X120639931Y-67122500D01*
X120637166Y-67087372D01*
X120608791Y-66989704D01*
X120608990Y-66919835D01*
X120640183Y-66867432D01*
X121591424Y-65916191D01*
X121603614Y-65905502D01*
X121605162Y-65904314D01*
X121626750Y-65887750D01*
X121647660Y-65860500D01*
X121656380Y-65849137D01*
X121667122Y-65835136D01*
X121723549Y-65793932D01*
X121793295Y-65789775D01*
X121854216Y-65823986D01*
G37*
G04 #@! TD.AperFunction*
G04 #@! TA.AperFunction,Conductor*
G36*
X115527348Y-67657021D02*
G01*
X115529606Y-67659279D01*
X115529608Y-67659280D01*
X115529609Y-67659281D01*
X115672713Y-67747549D01*
X115749154Y-67772879D01*
X115832314Y-67800436D01*
X115927693Y-67810180D01*
X115927694Y-67810180D01*
X115930826Y-67810500D01*
X115933975Y-67810500D01*
X116786025Y-67810500D01*
X116789174Y-67810500D01*
X116807674Y-67808610D01*
X116887687Y-67800436D01*
X116947073Y-67780756D01*
X116963594Y-67775281D01*
X117033422Y-67772879D01*
X117093464Y-67808610D01*
X117124657Y-67871130D01*
X117117098Y-67940589D01*
X117109332Y-67956106D01*
X117097506Y-67976102D01*
X117090219Y-68001185D01*
X117052611Y-68060070D01*
X116989138Y-68089275D01*
X116932140Y-68084294D01*
X116887687Y-68069563D01*
X116792306Y-68059819D01*
X116792287Y-68059818D01*
X116789174Y-68059500D01*
X115930826Y-68059500D01*
X115927713Y-68059817D01*
X115927693Y-68059819D01*
X115832314Y-68069563D01*
X115672714Y-68122450D01*
X115529606Y-68210720D01*
X115410720Y-68329606D01*
X115322449Y-68472716D01*
X115307204Y-68518721D01*
X115267431Y-68576165D01*
X115202914Y-68602987D01*
X115134139Y-68590671D01*
X115082940Y-68543127D01*
X115065499Y-68479718D01*
X115065499Y-68209478D01*
X115085184Y-68142440D01*
X115101816Y-68121800D01*
X115122416Y-68101199D01*
X115134612Y-68090503D01*
X115157750Y-68072750D01*
X115248153Y-67954933D01*
X115304983Y-67817734D01*
X115316729Y-67728514D01*
X115344994Y-67664621D01*
X115403318Y-67626149D01*
X115473183Y-67625317D01*
X115527348Y-67657021D01*
G37*
G04 #@! TD.AperFunction*
G04 #@! TA.AperFunction,Conductor*
G36*
X123171016Y-67688677D02*
G01*
X123310853Y-67718400D01*
X123310855Y-67718400D01*
X123488145Y-67718400D01*
X123567093Y-67701619D01*
X123636760Y-67706935D01*
X123680555Y-67735228D01*
X123729606Y-67784279D01*
X123729608Y-67784280D01*
X123729609Y-67784281D01*
X123872713Y-67872549D01*
X123952514Y-67898992D01*
X124032314Y-67925436D01*
X124127693Y-67935180D01*
X124127694Y-67935180D01*
X124130826Y-67935500D01*
X124649741Y-67935500D01*
X124716780Y-67955185D01*
X124725199Y-67961103D01*
X124726503Y-67962103D01*
X124767722Y-68018519D01*
X124771897Y-68088263D01*
X124737702Y-68149194D01*
X124675994Y-68181964D01*
X124651045Y-68184500D01*
X124130826Y-68184500D01*
X124127713Y-68184817D01*
X124127693Y-68184819D01*
X124032314Y-68194563D01*
X123872714Y-68247450D01*
X123729606Y-68335720D01*
X123610717Y-68454609D01*
X123607313Y-68460129D01*
X123555364Y-68506853D01*
X123501177Y-68515669D01*
X123501177Y-68518903D01*
X123405078Y-68518903D01*
X123338039Y-68499218D01*
X123317401Y-68482588D01*
X123166815Y-68332002D01*
X123133333Y-68270681D01*
X123130499Y-68244323D01*
X123130499Y-68140743D01*
X123130499Y-68138320D01*
X123127665Y-68102296D01*
X123082869Y-67948107D01*
X123038502Y-67873087D01*
X123021320Y-67805364D01*
X123043480Y-67739102D01*
X123097946Y-67695338D01*
X123167426Y-67687969D01*
X123171016Y-67688677D01*
G37*
G04 #@! TD.AperFunction*
G04 #@! TA.AperFunction,Conductor*
G36*
X120073039Y-63731685D02*
G01*
X120118794Y-63784489D01*
X120130000Y-63836000D01*
X120130000Y-64092121D01*
X120110315Y-64159160D01*
X120093681Y-64179802D01*
X120013580Y-64259903D01*
X120001388Y-64270596D01*
X119978249Y-64288352D01*
X119943098Y-64334160D01*
X119943088Y-64334175D01*
X119887847Y-64406168D01*
X119868561Y-64452729D01*
X119824720Y-64507132D01*
X119758426Y-64529197D01*
X119690726Y-64511918D01*
X119643116Y-64460780D01*
X119630000Y-64405276D01*
X119630000Y-64137909D01*
X119630323Y-64129678D01*
X119630213Y-64131545D01*
X119630307Y-64129124D01*
X119630500Y-64126681D01*
X119630499Y-63835998D01*
X119650183Y-63768961D01*
X119702987Y-63723206D01*
X119754499Y-63712000D01*
X120006000Y-63712000D01*
X120073039Y-63731685D01*
G37*
G04 #@! TD.AperFunction*
G04 #@! TA.AperFunction,Conductor*
G36*
X114474834Y-62700946D02*
G01*
X114481669Y-62703749D01*
X114487939Y-62706541D01*
X114661352Y-62743400D01*
X114661355Y-62743400D01*
X114838645Y-62743400D01*
X114855718Y-62739771D01*
X114925386Y-62745087D01*
X114981119Y-62787223D01*
X115005225Y-62852803D01*
X115005500Y-62861061D01*
X115005500Y-63537455D01*
X114985815Y-63604494D01*
X114933011Y-63650249D01*
X114863853Y-63660193D01*
X114807192Y-63636724D01*
X114807091Y-63636648D01*
X114672371Y-63586400D01*
X114616132Y-63580354D01*
X114609518Y-63580000D01*
X114481606Y-63580000D01*
X114414567Y-63560315D01*
X114383550Y-63531901D01*
X114366597Y-63510000D01*
X113474624Y-63510000D01*
X113547545Y-63495495D01*
X113630240Y-63440240D01*
X113685495Y-63357545D01*
X113704898Y-63260000D01*
X113685495Y-63162455D01*
X113630240Y-63079760D01*
X113547545Y-63024505D01*
X113474624Y-63010000D01*
X114370471Y-63010000D01*
X114314952Y-62860094D01*
X114310128Y-62790391D01*
X114343754Y-62729145D01*
X114405154Y-62695801D01*
X114474834Y-62700946D01*
G37*
G04 #@! TD.AperFunction*
G04 #@! TA.AperFunction,Conductor*
G36*
X110237383Y-55813685D02*
G01*
X110283138Y-55866489D01*
X110293082Y-55935647D01*
X110284905Y-55965453D01*
X110251017Y-56047265D01*
X110231632Y-56194499D01*
X110235439Y-56223408D01*
X110236500Y-56239594D01*
X110236500Y-56248000D01*
X110216815Y-56315039D01*
X110164011Y-56360794D01*
X110112500Y-56372000D01*
X110094306Y-56372000D01*
X110091886Y-56372190D01*
X110091871Y-56372191D01*
X110057427Y-56374902D01*
X109899600Y-56420755D01*
X109836236Y-56458229D01*
X109768512Y-56475412D01*
X109702250Y-56453252D01*
X109688517Y-56440000D01*
X108888979Y-56440000D01*
X108821940Y-56420315D01*
X108801298Y-56403681D01*
X108730704Y-56333087D01*
X108697219Y-56271764D01*
X108695064Y-56258368D01*
X108683407Y-56147458D01*
X108695976Y-56078732D01*
X108743708Y-56027708D01*
X108806728Y-56010500D01*
X109112245Y-56010500D01*
X109114690Y-56010500D01*
X109150993Y-56007643D01*
X109306395Y-55962494D01*
X109315231Y-55957268D01*
X109378353Y-55940000D01*
X109684505Y-55940000D01*
X109688213Y-55935061D01*
X109688363Y-55882725D01*
X109726306Y-55824055D01*
X109789944Y-55795212D01*
X109807240Y-55794000D01*
X110170344Y-55794000D01*
X110237383Y-55813685D01*
G37*
G04 #@! TD.AperFunction*
G04 #@! TA.AperFunction,Conductor*
G36*
X113700239Y-56037985D02*
G01*
X113745994Y-56090789D01*
X113757200Y-56142300D01*
X113757200Y-56331366D01*
X113774366Y-56362804D01*
X113777200Y-56389162D01*
X113777200Y-56491374D01*
X113757515Y-56558413D01*
X113704711Y-56604168D01*
X113635553Y-56614112D01*
X113571997Y-56585087D01*
X113538639Y-56538827D01*
X113519353Y-56492267D01*
X113513090Y-56484105D01*
X113500732Y-56468000D01*
X113489416Y-56453252D01*
X113428950Y-56374449D01*
X113405814Y-56356697D01*
X113393618Y-56346002D01*
X113293518Y-56245901D01*
X113260034Y-56184577D01*
X113257200Y-56158220D01*
X113257200Y-56142300D01*
X113276885Y-56075261D01*
X113329689Y-56029506D01*
X113381200Y-56018300D01*
X113633200Y-56018300D01*
X113700239Y-56037985D01*
G37*
G04 #@! TD.AperFunction*
G04 #@! TA.AperFunction,Conductor*
G36*
X109427963Y-51552184D02*
G01*
X109476659Y-51602289D01*
X109490535Y-51670767D01*
X109484922Y-51698474D01*
X109464765Y-51760513D01*
X109460486Y-51773681D01*
X109441954Y-51950000D01*
X109453879Y-52063460D01*
X109460487Y-52126324D01*
X109460982Y-52127847D01*
X109461106Y-52132217D01*
X109461849Y-52139280D01*
X109461309Y-52139336D01*
X109462975Y-52197688D01*
X109426892Y-52257520D01*
X109364190Y-52288346D01*
X109308454Y-52285237D01*
X109265110Y-52272644D01*
X109206225Y-52235037D01*
X109177019Y-52171564D01*
X109176385Y-52140616D01*
X109184911Y-52059500D01*
X109166379Y-51883181D01*
X109126843Y-51761503D01*
X109124849Y-51691662D01*
X109160930Y-51631830D01*
X109194337Y-51609907D01*
X109274023Y-51574429D01*
X109294103Y-51559839D01*
X109359909Y-51536359D01*
X109427963Y-51552184D01*
G37*
G04 #@! TD.AperFunction*
M02*
