G04 #@! TF.GenerationSoftware,KiCad,Pcbnew,7.0.2-0*
G04 #@! TF.CreationDate,2024-06-02T16:01:14+02:00*
G04 #@! TF.ProjectId,network_player,6e657477-6f72-46b5-9f70-6c617965722e,rev?*
G04 #@! TF.SameCoordinates,Original*
G04 #@! TF.FileFunction,Copper,L4,Bot*
G04 #@! TF.FilePolarity,Positive*
%FSLAX46Y46*%
G04 Gerber Fmt 4.6, Leading zero omitted, Abs format (unit mm)*
G04 Created by KiCad (PCBNEW 7.0.2-0) date 2024-06-02 16:01:14*
%MOMM*%
%LPD*%
G01*
G04 APERTURE LIST*
G04 #@! TA.AperFunction,ComponentPad*
%ADD10R,1.700000X1.700000*%
G04 #@! TD*
G04 #@! TA.AperFunction,ComponentPad*
%ADD11O,1.700000X1.700000*%
G04 #@! TD*
G04 #@! TA.AperFunction,ComponentPad*
%ADD12O,1.600000X1.000000*%
G04 #@! TD*
G04 #@! TA.AperFunction,ComponentPad*
%ADD13O,2.100000X0.900000*%
G04 #@! TD*
G04 #@! TA.AperFunction,ComponentPad*
%ADD14C,0.650000*%
G04 #@! TD*
G04 #@! TA.AperFunction,ViaPad*
%ADD15C,0.685800*%
G04 #@! TD*
G04 #@! TA.AperFunction,Conductor*
%ADD16C,0.127000*%
G04 #@! TD*
G04 #@! TA.AperFunction,Conductor*
%ADD17C,0.152400*%
G04 #@! TD*
G04 APERTURE END LIST*
D10*
X130720000Y-52210000D03*
D11*
X133260000Y-52210000D03*
X130720000Y-54750000D03*
X133260000Y-54750000D03*
X130720000Y-57290000D03*
X133260000Y-57290000D03*
X130720000Y-59830000D03*
X133260000Y-59830000D03*
X130720000Y-62370000D03*
X133260000Y-62370000D03*
X130720000Y-64910000D03*
X133260000Y-64910000D03*
X130720000Y-67450000D03*
X133260000Y-67450000D03*
X130720000Y-69990000D03*
X133260000Y-69990000D03*
X130720000Y-72530000D03*
X133260000Y-72530000D03*
X130720000Y-75070000D03*
X133260000Y-75070000D03*
X130720000Y-77610000D03*
X133260000Y-77610000D03*
X130720000Y-80150000D03*
X133260000Y-80150000D03*
X130720000Y-82690000D03*
X133260000Y-82690000D03*
X130720000Y-85230000D03*
X133260000Y-85230000D03*
X130720000Y-87770000D03*
X133260000Y-87770000D03*
X130720000Y-90310000D03*
X133260000Y-90310000D03*
X130720000Y-92850000D03*
X133260000Y-92850000D03*
X130720000Y-95390000D03*
X133260000Y-95390000D03*
X130720000Y-97930000D03*
X133260000Y-97930000D03*
X130720000Y-100470000D03*
X133260000Y-100470000D03*
D12*
X108670000Y-71900000D03*
D13*
X112850000Y-71900000D03*
D12*
X108670000Y-63260000D03*
D13*
X112850000Y-63260000D03*
D14*
X112350000Y-70470000D03*
X112350000Y-64690000D03*
D15*
X119400000Y-101850000D03*
X119660000Y-107830000D03*
X117610000Y-107820000D03*
X116830000Y-90810000D03*
X118310000Y-85050000D03*
X115830600Y-85869400D03*
X122252164Y-98238528D03*
X124840000Y-59610000D03*
X118340000Y-91320000D03*
X112025000Y-65575000D03*
X112025000Y-69725000D03*
X125925000Y-60000000D03*
X124950000Y-65875000D03*
X120025000Y-60475000D03*
X124741932Y-62491932D03*
X107425000Y-90850000D03*
X126875000Y-74300000D03*
X116080000Y-87140000D03*
X118450000Y-71100000D03*
X113639600Y-79375000D03*
X107880000Y-77220000D03*
X124158535Y-91255100D03*
X118390000Y-89550000D03*
X114450000Y-84000000D03*
X116636800Y-79700000D03*
X123399500Y-68550000D03*
X106590000Y-75800000D03*
X117640000Y-59740000D03*
X120775000Y-90775000D03*
X127630000Y-87070000D03*
X118050000Y-61449900D03*
X115925000Y-51275000D03*
X112425000Y-55625000D03*
X117691418Y-87997782D03*
X124531885Y-77053917D03*
X112302100Y-83455700D03*
X127810000Y-72530000D03*
X109067600Y-76911200D03*
X114850000Y-89275000D03*
X122748600Y-89570000D03*
X124150000Y-94925000D03*
X115734198Y-76240802D03*
X116179932Y-73350000D03*
X124510800Y-80848200D03*
X116225500Y-70625000D03*
X116687600Y-82092800D03*
X114750000Y-61900000D03*
X110884082Y-75609082D03*
X108675000Y-98475800D03*
X113625000Y-78325000D03*
X124212226Y-74731126D03*
X123400000Y-74720000D03*
X125946600Y-67538747D03*
X126075000Y-65925000D03*
X117825000Y-66900000D03*
X123399500Y-66875000D03*
X123399500Y-69362303D03*
X128325000Y-82950000D03*
X114270000Y-74320000D03*
X116547852Y-77055162D03*
X128010000Y-100010000D03*
X110660000Y-85419402D03*
X133858500Y-86510000D03*
X133767600Y-81380000D03*
X109487365Y-78084600D03*
X127827190Y-78553775D03*
X116340000Y-52870000D03*
X115930000Y-53670000D03*
X111880000Y-50470000D03*
X126610000Y-85320000D03*
X126770000Y-77180000D03*
X119260000Y-57510000D03*
X124425000Y-84825000D03*
X120850000Y-57525000D03*
X129162694Y-78000000D03*
X122962618Y-57337382D03*
X127680353Y-77180353D03*
X119656986Y-59750844D03*
X127429400Y-79705200D03*
X125510000Y-74230000D03*
X125500000Y-75080000D03*
X119152297Y-84992602D03*
X128850000Y-53690000D03*
X119964593Y-84989402D03*
X121200000Y-87000000D03*
X119700000Y-95000000D03*
X114480793Y-76280364D03*
X112027383Y-68150665D03*
X113816253Y-76944904D03*
X112027383Y-67210865D03*
X118541800Y-93319600D03*
X126089082Y-94052718D03*
X128538868Y-93816600D03*
X122504200Y-85013800D03*
X120688941Y-74568906D03*
X120453487Y-87328351D03*
X131900000Y-89390000D03*
X131940000Y-92080000D03*
X129511818Y-79571818D03*
X112148553Y-79991447D03*
X118631365Y-74185626D03*
X109340000Y-86080000D03*
X118450000Y-76956600D03*
X128892600Y-86094623D03*
X119600000Y-76956600D03*
X119870774Y-74617191D03*
X121110176Y-75265107D03*
X121150000Y-76956600D03*
X121405401Y-74186126D03*
X120776896Y-84989402D03*
D16*
X119660000Y-107830000D02*
X119660000Y-102110000D01*
X119660000Y-102110000D02*
X119400000Y-101850000D01*
X117130000Y-90810000D02*
X118390000Y-89550000D01*
X116830000Y-90810000D02*
X117130000Y-90810000D01*
X115830600Y-85869400D02*
X116650000Y-85050000D01*
X116650000Y-85050000D02*
X118310000Y-85050000D01*
X114925000Y-65575000D02*
X120025000Y-60475000D01*
X112025000Y-65575000D02*
X114925000Y-65575000D01*
X112560783Y-66110783D02*
X112025000Y-65575000D01*
X125925000Y-58073510D02*
X130748010Y-53250500D01*
X112025000Y-69725000D02*
X112560783Y-69189217D01*
X112560783Y-69189217D02*
X112560783Y-66110783D01*
X106056600Y-71543400D02*
X112025000Y-65575000D01*
X106056600Y-89481600D02*
X106056600Y-71543400D01*
X132219500Y-53250500D02*
X133260000Y-52210000D01*
X130748010Y-53250500D02*
X132219500Y-53250500D01*
X124741932Y-65666932D02*
X124950000Y-65875000D01*
X124741932Y-62491932D02*
X124741932Y-65666932D01*
X107425000Y-90850000D02*
X106056600Y-89481600D01*
X125925000Y-60000000D02*
X125925000Y-58073510D01*
X114450000Y-81539258D02*
X108710742Y-75800000D01*
X123678435Y-90775000D02*
X120775000Y-90775000D01*
X108710742Y-75800000D02*
X106590000Y-75800000D01*
X106590000Y-75930000D02*
X106590000Y-75800000D01*
X118050000Y-61449900D02*
X118050000Y-60150000D01*
X124158535Y-91255100D02*
X123678435Y-90775000D01*
X114450000Y-80185400D02*
X114450000Y-84000000D01*
X118050000Y-60150000D02*
X117640000Y-59740000D01*
X120849500Y-71100000D02*
X118450000Y-71100000D01*
X113639600Y-79375000D02*
X114450000Y-80185400D01*
X114450000Y-84000000D02*
X114450000Y-81539258D01*
X123399500Y-68550000D02*
X120849500Y-71100000D01*
X107880000Y-77220000D02*
X106700000Y-76040000D01*
X106700000Y-76040000D02*
X106590000Y-75930000D01*
X127810000Y-74119342D02*
X127810000Y-72530000D01*
X114833400Y-88341200D02*
X117348000Y-88341200D01*
X115734198Y-76240802D02*
X115734198Y-73795734D01*
X111480600Y-84988400D02*
X111480600Y-79324200D01*
X114833400Y-88341200D02*
X111480600Y-84988400D01*
X127810000Y-72530000D02*
X118884842Y-72530000D01*
X124531885Y-77053917D02*
X124875425Y-77053917D01*
X116446442Y-70091600D02*
X116004558Y-70091600D01*
X115692100Y-70404058D02*
X115692100Y-72862168D01*
X118884842Y-72530000D02*
X116446442Y-70091600D01*
X112425000Y-55625000D02*
X112425000Y-54775000D01*
X116004558Y-70091600D02*
X115692100Y-70404058D01*
X114850000Y-88357800D02*
X114833400Y-88341200D01*
X111480600Y-84277200D02*
X112302100Y-83455700D01*
X111480600Y-79324200D02*
X109067600Y-76911200D01*
X115925000Y-51275000D02*
X116860000Y-52210000D01*
X114850000Y-89275000D02*
X114850000Y-88357800D01*
X115692100Y-72862168D02*
X116179932Y-73350000D01*
X117348000Y-88341200D02*
X117691418Y-87997782D01*
X115734198Y-73795734D02*
X116179932Y-73350000D01*
X116860000Y-52210000D02*
X130720000Y-52210000D01*
X112425000Y-54775000D02*
X115925000Y-51275000D01*
X111480600Y-84988400D02*
X111480600Y-84277200D01*
X124875425Y-77053917D02*
X127810000Y-74119342D01*
X116225500Y-70625000D02*
X117170200Y-71569700D01*
X117170200Y-71569700D02*
X117170200Y-81610200D01*
X124510800Y-80848200D02*
X117932200Y-80848200D01*
X117932200Y-80848200D02*
X116687600Y-82092800D01*
X117170200Y-81610200D02*
X116687600Y-82092800D01*
X110909082Y-75609082D02*
X110884082Y-75609082D01*
X113625000Y-78325000D02*
X110909082Y-75609082D01*
X126075000Y-67410347D02*
X125946600Y-67538747D01*
X126075000Y-65925000D02*
X126075000Y-67410347D01*
X123374500Y-66900000D02*
X123399500Y-66875000D01*
X117825000Y-66900000D02*
X123374500Y-66900000D01*
X134300500Y-81912900D02*
X134300500Y-86068000D01*
X133767600Y-81380000D02*
X134300500Y-81912900D01*
X134300500Y-86068000D02*
X133858500Y-86510000D01*
X110660000Y-85419402D02*
X110660000Y-79257235D01*
X110660000Y-79257235D02*
X109487365Y-78084600D01*
X128851400Y-77529565D02*
X128851400Y-65241400D01*
X121668400Y-58058400D02*
X120629058Y-58058400D01*
X120629058Y-58058400D02*
X116463400Y-53892742D01*
X116463400Y-52993400D02*
X116340000Y-52870000D01*
X128851400Y-65241400D02*
X121668400Y-58058400D01*
X127827190Y-78553775D02*
X128851400Y-77529565D01*
X116463400Y-53892742D02*
X116463400Y-52993400D01*
X114125395Y-52715395D02*
X111891600Y-54949190D01*
X113441600Y-56158400D02*
X115930000Y-53670000D01*
X111891600Y-55845942D02*
X112204058Y-56158400D01*
X111880000Y-50470000D02*
X114125395Y-52715395D01*
X111891600Y-54949190D02*
X111891600Y-55845942D01*
X112204058Y-56158400D02*
X113441600Y-56158400D01*
X126349058Y-78823400D02*
X126036600Y-78510942D01*
X126790942Y-78823400D02*
X126349058Y-78823400D01*
X128309605Y-77304737D02*
X126790942Y-78823400D01*
X126036600Y-78510942D02*
X126036600Y-77913400D01*
X124410000Y-68016448D02*
X128597400Y-72203848D01*
X128597400Y-76621810D02*
X128309605Y-76909605D01*
X126036600Y-77913400D02*
X126770000Y-77180000D01*
X128309605Y-76909605D02*
X128309605Y-77304737D01*
X119260000Y-58596448D02*
X124410000Y-63746448D01*
X119260000Y-57510000D02*
X119260000Y-58596448D01*
X124410000Y-63746448D02*
X124410000Y-68016448D01*
X128597400Y-72203848D02*
X128597400Y-76621810D01*
X129105400Y-65136190D02*
X129105400Y-77942706D01*
X122962618Y-57337382D02*
X122962618Y-58993408D01*
X122962618Y-58993408D02*
X129105400Y-65136190D01*
X124156000Y-63851658D02*
X120055186Y-59750844D01*
X124156000Y-68121658D02*
X124156000Y-63851658D01*
X128343400Y-72309058D02*
X124156000Y-68121658D01*
X120055186Y-59750844D02*
X119656986Y-59750844D01*
X127680353Y-77180353D02*
X128343400Y-76517306D01*
X128343400Y-76517306D02*
X128343400Y-72309058D01*
X131775200Y-74194710D02*
X131150990Y-73570500D01*
X131150990Y-73570500D02*
X130212500Y-73570500D01*
X127429400Y-79705200D02*
X128484100Y-78650500D01*
X130212500Y-73570500D02*
X129679500Y-73037500D01*
X128484100Y-78650500D02*
X131150990Y-78650500D01*
X129679500Y-73037500D02*
X129679500Y-71030500D01*
X131775200Y-78026290D02*
X131775200Y-74194710D01*
X129679500Y-71030500D02*
X130720000Y-69990000D01*
X131150990Y-78650500D02*
X131775200Y-78026290D01*
X118331369Y-73652726D02*
X124932726Y-73652726D01*
X125446990Y-86508480D02*
X125446990Y-80928448D01*
X133260000Y-90310000D02*
X132219500Y-91350500D01*
X124932726Y-73652726D02*
X125510000Y-74230000D01*
X132219500Y-91350500D02*
X130289010Y-91350500D01*
X125446990Y-80928448D02*
X124731742Y-80213200D01*
X118983400Y-77177542D02*
X118983400Y-76058673D01*
X117675353Y-74750626D02*
X117675353Y-74308742D01*
X124731742Y-80213200D02*
X122019058Y-80213200D01*
X122019058Y-80213200D02*
X118983400Y-77177542D01*
X118983400Y-76058673D02*
X117675353Y-74750626D01*
X130289010Y-91350500D02*
X125446990Y-86508480D01*
X117675353Y-74308742D02*
X118331369Y-73652726D01*
X134823200Y-95657500D02*
X134823200Y-71553200D01*
X119152297Y-91288497D02*
X120159800Y-92296000D01*
X125445210Y-92296000D02*
X130098800Y-96949590D01*
X120159800Y-92296000D02*
X125445210Y-92296000D01*
X119152297Y-84992602D02*
X119152297Y-91288497D01*
X133591200Y-96889500D02*
X134823200Y-95657500D01*
X130098800Y-96949590D02*
X130158890Y-96889500D01*
X134823200Y-71553200D02*
X133260000Y-69990000D01*
X130158890Y-96889500D02*
X133591200Y-96889500D01*
X125570000Y-92042000D02*
X130163500Y-96635500D01*
X119406297Y-85547698D02*
X119406297Y-91183287D01*
X119963198Y-84989402D02*
X119938800Y-85013800D01*
X119964593Y-84989402D02*
X119406297Y-85547698D01*
X119406297Y-91183287D02*
X120265010Y-92042000D01*
X119964593Y-84989402D02*
X119963198Y-84989402D01*
X133485990Y-96635500D02*
X134569200Y-95552290D01*
X134569200Y-73839200D02*
X133260000Y-72530000D01*
X130163500Y-96635500D02*
X133485990Y-96635500D01*
X134569200Y-95552290D02*
X134569200Y-73839200D01*
X120265010Y-92042000D02*
X125570000Y-92042000D01*
X119938800Y-85013800D02*
X119968142Y-85013800D01*
D17*
X114480793Y-76280364D02*
X114103622Y-76280364D01*
X111760684Y-67883966D02*
X112027383Y-68150665D01*
X111428404Y-67883966D02*
X111760684Y-67883966D01*
X110978200Y-68334170D02*
X111428404Y-67883966D01*
X110978200Y-73154942D02*
X110978200Y-68334170D01*
X114103622Y-76280364D02*
X110978200Y-73154942D01*
X110571800Y-73323280D02*
X110571800Y-68165830D01*
X110571800Y-68165830D02*
X111260066Y-67477564D01*
X111760684Y-67477564D02*
X112027383Y-67210865D01*
X111260066Y-67477564D02*
X111760684Y-67477564D01*
X113816253Y-76567733D02*
X110571800Y-73323280D01*
X113816253Y-76944904D02*
X113816253Y-76567733D01*
D16*
X125355964Y-93319600D02*
X126089082Y-94052718D01*
X134300500Y-68339990D02*
X134300500Y-59399010D01*
X134300500Y-93739990D02*
X134300500Y-89879010D01*
X133690990Y-68949500D02*
X134300500Y-68339990D01*
X132829010Y-89269500D02*
X132219500Y-88659990D01*
X132829010Y-58330500D02*
X132219500Y-57720990D01*
X132219500Y-69559010D02*
X132829010Y-68949500D01*
X133690990Y-89269500D02*
X132829010Y-89269500D01*
X134300500Y-89879010D02*
X133690990Y-89269500D01*
X132219500Y-56249500D02*
X130720000Y-54750000D01*
X133944990Y-94095500D02*
X134300500Y-93739990D01*
X128538868Y-93816600D02*
X128817768Y-94095500D01*
X134300500Y-59399010D02*
X133231990Y-58330500D01*
X128817768Y-94095500D02*
X133944990Y-94095500D01*
X133231990Y-58330500D02*
X132829010Y-58330500D01*
X132219500Y-88659990D02*
X132219500Y-69559010D01*
X118541800Y-93319600D02*
X125355964Y-93319600D01*
X132829010Y-68949500D02*
X133690990Y-68949500D01*
X132219500Y-57720990D02*
X132219500Y-56249500D01*
X116304342Y-82900000D02*
X121479300Y-82900000D01*
X112148553Y-79991447D02*
X113916600Y-81759494D01*
X114670942Y-84533400D02*
X116304342Y-82900000D01*
X130183800Y-91604500D02*
X131464500Y-91604500D01*
X131150990Y-81649500D02*
X130748010Y-81649500D01*
X129511818Y-80413308D02*
X129511818Y-79571818D01*
X130748010Y-81649500D02*
X129511818Y-80413308D01*
X131900000Y-82398510D02*
X131150990Y-81649500D01*
X113916600Y-81759494D02*
X113916600Y-84220942D01*
X113916600Y-84220942D02*
X114229058Y-84533400D01*
X131464500Y-91604500D02*
X131940000Y-92080000D01*
X131900000Y-89390000D02*
X131900000Y-82398510D01*
X114229058Y-84533400D02*
X114670942Y-84533400D01*
X121479300Y-82900000D02*
X130183800Y-91604500D01*
X119600000Y-76956600D02*
X119600000Y-77034483D01*
X124836952Y-79959200D02*
X127700000Y-82822248D01*
X127700000Y-82822248D02*
X127700000Y-84902023D01*
X122524717Y-79959200D02*
X124836952Y-79959200D01*
X127700000Y-84902023D02*
X128892600Y-86094623D01*
X119600000Y-77034483D02*
X122524717Y-79959200D01*
X124794650Y-77632947D02*
X123478016Y-77632947D01*
X125089798Y-77928095D02*
X124794650Y-77632947D01*
X129679500Y-86729500D02*
X129679500Y-82740300D01*
X130720000Y-87770000D02*
X129679500Y-86729500D01*
X129679500Y-82740300D02*
X125089798Y-78150598D01*
X123478016Y-77632947D02*
X121110176Y-75265107D01*
X125089798Y-78150598D02*
X125089798Y-77928095D01*
X130720000Y-90310000D02*
X129425500Y-89015500D01*
X123187400Y-78994000D02*
X121150000Y-76956600D01*
X129425500Y-89015500D02*
X129425500Y-82867300D01*
X125552200Y-78994000D02*
X123187400Y-78994000D01*
X129425500Y-82867300D02*
X125552200Y-78994000D01*
X125675210Y-91788000D02*
X128236710Y-94349500D01*
X128236710Y-94349500D02*
X131150990Y-94349500D01*
X132191490Y-95390000D02*
X133260000Y-95390000D01*
X131150990Y-94349500D02*
X132191490Y-95390000D01*
X120776896Y-84989402D02*
X119660297Y-86106001D01*
X119660297Y-91059897D02*
X120388400Y-91788000D01*
X119660297Y-86106001D02*
X119660297Y-91059897D01*
X120388400Y-91788000D02*
X125675210Y-91788000D01*
G04 #@! TA.AperFunction,Conductor*
G36*
X114129984Y-42828752D02*
G01*
X114196994Y-42848536D01*
X114242671Y-42901408D01*
X114253800Y-42952752D01*
X114253799Y-48067999D01*
X114253800Y-48068000D01*
X127453799Y-48068000D01*
X127453800Y-48068000D01*
X127453800Y-47320199D01*
X130372951Y-47320199D01*
X130392717Y-47571349D01*
X130451526Y-47816310D01*
X130462048Y-47841711D01*
X130547934Y-48049059D01*
X130679564Y-48263859D01*
X130843176Y-48455424D01*
X131034741Y-48619036D01*
X131249541Y-48750666D01*
X131482289Y-48847073D01*
X131727252Y-48905883D01*
X131915518Y-48920700D01*
X131917963Y-48920700D01*
X132038837Y-48920700D01*
X132041282Y-48920700D01*
X132229548Y-48905883D01*
X132474511Y-48847073D01*
X132707259Y-48750666D01*
X132922059Y-48619036D01*
X133113624Y-48455424D01*
X133277236Y-48263859D01*
X133408866Y-48049059D01*
X133505273Y-47816311D01*
X133564083Y-47571348D01*
X133583849Y-47320200D01*
X133564083Y-47069052D01*
X133505273Y-46824089D01*
X133408866Y-46591341D01*
X133277236Y-46376541D01*
X133113624Y-46184976D01*
X132922059Y-46021364D01*
X132707259Y-45889734D01*
X132555513Y-45826879D01*
X132474510Y-45793326D01*
X132229549Y-45734517D01*
X132043716Y-45719891D01*
X132043701Y-45719890D01*
X132041282Y-45719700D01*
X131915518Y-45719700D01*
X131913099Y-45719890D01*
X131913083Y-45719891D01*
X131727250Y-45734517D01*
X131482289Y-45793326D01*
X131249539Y-45889735D01*
X131034742Y-46021363D01*
X130843176Y-46184976D01*
X130679563Y-46376542D01*
X130547935Y-46591339D01*
X130451526Y-46824089D01*
X130392717Y-47069050D01*
X130372951Y-47320199D01*
X127453800Y-47320199D01*
X127453799Y-42972704D01*
X127473484Y-42905666D01*
X127526288Y-42859911D01*
X127577981Y-42848705D01*
X128433084Y-42849974D01*
X128500094Y-42869758D01*
X128545771Y-42922630D01*
X128556900Y-42973974D01*
X128556900Y-43836160D01*
X128564590Y-43862353D01*
X128568347Y-43879626D01*
X128572235Y-43906655D01*
X128572235Y-43906657D01*
X128583573Y-43931483D01*
X128589754Y-43948057D01*
X128597445Y-43974249D01*
X128597446Y-43974251D01*
X128597447Y-43974253D01*
X128612210Y-43997225D01*
X128620683Y-44012743D01*
X128632022Y-44037572D01*
X128649895Y-44058198D01*
X128660497Y-44072362D01*
X128675255Y-44095327D01*
X128695887Y-44113205D01*
X128708392Y-44125710D01*
X128726272Y-44146343D01*
X128749236Y-44161101D01*
X128763402Y-44171705D01*
X128784025Y-44189576D01*
X128784026Y-44189576D01*
X128784027Y-44189577D01*
X128808855Y-44200915D01*
X128824377Y-44209392D01*
X128847344Y-44224152D01*
X128873535Y-44231842D01*
X128890113Y-44238026D01*
X128910591Y-44247377D01*
X128914943Y-44249365D01*
X128941970Y-44253251D01*
X128959249Y-44257010D01*
X128985439Y-44264700D01*
X129021601Y-44264700D01*
X132547508Y-44264700D01*
X132609649Y-44264700D01*
X132617136Y-44264926D01*
X132897674Y-44281895D01*
X132912536Y-44283700D01*
X132990117Y-44297917D01*
X133185292Y-44333684D01*
X133199825Y-44337266D01*
X133464564Y-44419762D01*
X133478552Y-44425067D01*
X133731421Y-44538875D01*
X133744675Y-44545831D01*
X133758003Y-44553888D01*
X133981988Y-44689291D01*
X133994299Y-44697789D01*
X134212586Y-44868806D01*
X134223794Y-44878736D01*
X134419863Y-45074805D01*
X134429793Y-45086013D01*
X134600806Y-45304294D01*
X134609312Y-45316617D01*
X134752768Y-45553924D01*
X134759726Y-45567182D01*
X134861506Y-45793327D01*
X134873527Y-45820035D01*
X134878837Y-45834037D01*
X134961332Y-46098772D01*
X134964916Y-46113311D01*
X135014899Y-46386063D01*
X135016704Y-46400927D01*
X135033674Y-46681463D01*
X135033900Y-46688950D01*
X135033900Y-46767004D01*
X135033934Y-46767272D01*
X135039226Y-59085206D01*
X135019570Y-59152254D01*
X134966786Y-59198031D01*
X134897632Y-59208004D01*
X134834064Y-59179007D01*
X134800665Y-59132712D01*
X134798784Y-59128171D01*
X134793153Y-59114577D01*
X134770645Y-59085244D01*
X134702750Y-58996760D01*
X134679611Y-58979004D01*
X134667417Y-58968310D01*
X134166828Y-58467721D01*
X134133343Y-58406398D01*
X134138327Y-58336706D01*
X134166828Y-58292358D01*
X134298109Y-58161077D01*
X134433600Y-57967576D01*
X134533430Y-57753492D01*
X134590636Y-57540000D01*
X133693686Y-57540000D01*
X133719493Y-57499844D01*
X133760000Y-57361889D01*
X133760000Y-57218111D01*
X133719493Y-57080156D01*
X133693686Y-57040000D01*
X134590636Y-57040000D01*
X134590635Y-57039999D01*
X134533430Y-56826507D01*
X134433599Y-56612421D01*
X134298109Y-56418921D01*
X134131081Y-56251893D01*
X133945404Y-56121880D01*
X133901780Y-56067303D01*
X133894587Y-55997804D01*
X133926109Y-55935450D01*
X133945399Y-55918734D01*
X134131401Y-55788495D01*
X134298495Y-55621401D01*
X134434035Y-55427830D01*
X134533903Y-55213663D01*
X134595063Y-54985408D01*
X134615659Y-54750000D01*
X134595063Y-54514592D01*
X134533903Y-54286337D01*
X134434035Y-54072171D01*
X134298495Y-53878599D01*
X134131401Y-53711505D01*
X133945839Y-53581573D01*
X133902216Y-53526998D01*
X133895022Y-53457500D01*
X133926545Y-53395145D01*
X133945837Y-53378428D01*
X134131401Y-53248495D01*
X134298495Y-53081401D01*
X134434035Y-52887830D01*
X134533903Y-52673663D01*
X134595063Y-52445408D01*
X134615659Y-52210000D01*
X134595063Y-51974592D01*
X134533903Y-51746337D01*
X134434035Y-51532171D01*
X134298495Y-51338599D01*
X134131401Y-51171505D01*
X133937830Y-51035965D01*
X133723663Y-50936097D01*
X133662501Y-50919709D01*
X133495407Y-50874936D01*
X133259999Y-50854340D01*
X133024592Y-50874936D01*
X132796336Y-50936097D01*
X132582170Y-51035965D01*
X132388601Y-51171503D01*
X132266673Y-51293431D01*
X132205350Y-51326915D01*
X132135658Y-51321931D01*
X132079725Y-51280059D01*
X132062810Y-51249082D01*
X132046155Y-51204429D01*
X132013796Y-51117669D01*
X131927546Y-51002454D01*
X131812331Y-50916204D01*
X131677483Y-50865909D01*
X131617873Y-50859500D01*
X131614550Y-50859500D01*
X129825439Y-50859500D01*
X129825420Y-50859500D01*
X129822128Y-50859501D01*
X129818848Y-50859853D01*
X129818840Y-50859854D01*
X129762515Y-50865909D01*
X129627669Y-50916204D01*
X129512454Y-51002454D01*
X129426204Y-51117668D01*
X129393845Y-51204429D01*
X129375909Y-51252517D01*
X129369500Y-51312127D01*
X129369500Y-51315448D01*
X129369500Y-51315449D01*
X129369500Y-51522000D01*
X129349815Y-51589039D01*
X129297011Y-51634794D01*
X129245500Y-51646000D01*
X117144979Y-51646000D01*
X117077940Y-51626315D01*
X117057298Y-51609681D01*
X116810018Y-51362401D01*
X116776533Y-51301078D01*
X116774378Y-51287681D01*
X116773045Y-51275003D01*
X116773046Y-51275000D01*
X116754514Y-51098681D01*
X116734136Y-51035965D01*
X116699729Y-50930069D01*
X116611084Y-50776530D01*
X116492453Y-50644777D01*
X116349023Y-50540570D01*
X116187060Y-50468459D01*
X116013648Y-50431600D01*
X116013645Y-50431600D01*
X115836355Y-50431600D01*
X115836352Y-50431600D01*
X115662939Y-50468459D01*
X115500976Y-50540570D01*
X115357546Y-50644777D01*
X115238915Y-50776530D01*
X115150270Y-50930069D01*
X115095487Y-51098677D01*
X115095486Y-51098681D01*
X115079678Y-51249082D01*
X115075621Y-51287682D01*
X115049036Y-51352297D01*
X115039981Y-51362401D01*
X114392681Y-52009702D01*
X114331358Y-52043187D01*
X114261667Y-52038203D01*
X114217319Y-52009702D01*
X112765018Y-50557401D01*
X112731533Y-50496078D01*
X112729378Y-50482681D01*
X112728045Y-50470003D01*
X112728046Y-50470000D01*
X112709514Y-50293681D01*
X112654729Y-50125069D01*
X112654729Y-50125068D01*
X112566084Y-49971530D01*
X112447453Y-49839777D01*
X112304023Y-49735570D01*
X112142060Y-49663459D01*
X111968648Y-49626600D01*
X111968645Y-49626600D01*
X111791355Y-49626600D01*
X111791352Y-49626600D01*
X111617939Y-49663459D01*
X111455976Y-49735570D01*
X111312546Y-49839777D01*
X111193915Y-49971530D01*
X111105270Y-50125069D01*
X111050487Y-50293677D01*
X111050486Y-50293681D01*
X111031954Y-50470000D01*
X111050486Y-50646319D01*
X111050487Y-50646322D01*
X111105270Y-50814930D01*
X111193915Y-50968469D01*
X111312546Y-51100222D01*
X111455976Y-51204429D01*
X111617939Y-51276540D01*
X111791352Y-51313400D01*
X111791355Y-51313400D01*
X111874421Y-51313400D01*
X111941460Y-51333085D01*
X111962102Y-51349719D01*
X113240096Y-52627713D01*
X113273581Y-52689036D01*
X113268597Y-52758728D01*
X113240096Y-52803075D01*
X111524680Y-54518491D01*
X111512488Y-54529184D01*
X111489349Y-54546940D01*
X111454198Y-54592748D01*
X111454188Y-54592763D01*
X111398947Y-54664756D01*
X111342117Y-54801956D01*
X111322732Y-54949189D01*
X111326539Y-54978098D01*
X111327600Y-54994284D01*
X111327600Y-55800846D01*
X111326539Y-55817031D01*
X111322732Y-55845941D01*
X111327600Y-55882909D01*
X111342117Y-55993176D01*
X111398947Y-56130375D01*
X111489347Y-56248189D01*
X111489348Y-56248190D01*
X111489350Y-56248192D01*
X111512494Y-56265951D01*
X111524680Y-56276639D01*
X111773358Y-56525316D01*
X111784053Y-56537510D01*
X111801808Y-56560650D01*
X111919625Y-56651053D01*
X112056824Y-56707883D01*
X112186928Y-56725011D01*
X112204057Y-56727267D01*
X112204057Y-56727266D01*
X112204058Y-56727267D01*
X112232968Y-56723460D01*
X112249152Y-56722400D01*
X113396506Y-56722400D01*
X113412689Y-56723460D01*
X113441600Y-56727267D01*
X113588834Y-56707883D01*
X113726033Y-56651053D01*
X113814268Y-56583349D01*
X113814268Y-56583348D01*
X113823661Y-56576140D01*
X113843850Y-56560650D01*
X113861603Y-56537512D01*
X113872290Y-56525325D01*
X115847897Y-54549719D01*
X115909221Y-54516234D01*
X115935579Y-54513400D01*
X116018645Y-54513400D01*
X116173645Y-54480454D01*
X116243309Y-54485770D01*
X116287104Y-54514063D01*
X118590517Y-56817476D01*
X118624002Y-56878799D01*
X118619018Y-56948491D01*
X118594988Y-56988127D01*
X118573915Y-57011531D01*
X118485270Y-57165069D01*
X118430487Y-57333677D01*
X118430486Y-57333681D01*
X118423960Y-57395772D01*
X118413742Y-57492993D01*
X118411954Y-57510000D01*
X118430486Y-57686319D01*
X118430487Y-57686322D01*
X118485270Y-57854930D01*
X118573915Y-58008469D01*
X118664150Y-58108684D01*
X118694380Y-58171675D01*
X118696000Y-58191656D01*
X118696000Y-58551352D01*
X118694939Y-58567537D01*
X118691132Y-58596447D01*
X118699331Y-58658719D01*
X118710517Y-58743682D01*
X118767347Y-58880881D01*
X118816011Y-58944304D01*
X118816012Y-58944304D01*
X118857749Y-58998697D01*
X118880883Y-59016448D01*
X118893079Y-59027144D01*
X118957576Y-59091641D01*
X118991061Y-59152964D01*
X118986077Y-59222656D01*
X118977282Y-59241321D01*
X118882256Y-59405911D01*
X118827473Y-59574521D01*
X118827472Y-59574525D01*
X118808940Y-59750844D01*
X118827472Y-59927163D01*
X118827473Y-59927166D01*
X118882256Y-60095774D01*
X118970901Y-60249313D01*
X119089530Y-60381063D01*
X119089532Y-60381065D01*
X119106322Y-60393263D01*
X119148988Y-60448591D01*
X119154969Y-60518204D01*
X119122364Y-60580000D01*
X119121119Y-60581263D01*
X114727702Y-64974681D01*
X114666379Y-65008166D01*
X114640021Y-65011000D01*
X113284024Y-65011000D01*
X113216985Y-64991315D01*
X113171230Y-64938511D01*
X113160703Y-64874041D01*
X113165926Y-64824339D01*
X113168110Y-64803555D01*
X113169057Y-64796512D01*
X113179150Y-64734955D01*
X113178381Y-64720778D01*
X113178878Y-64701113D01*
X113180047Y-64690000D01*
X113173483Y-64627555D01*
X113172991Y-64621363D01*
X113169429Y-64555661D01*
X113166553Y-64545304D01*
X113162714Y-64525101D01*
X113161908Y-64517424D01*
X113141459Y-64454489D01*
X113139911Y-64449349D01*
X113117785Y-64369654D01*
X113121588Y-64368598D01*
X113112384Y-64323637D01*
X113137602Y-64258477D01*
X113194045Y-64217295D01*
X113235950Y-64210000D01*
X113495033Y-64210000D01*
X113501298Y-64209682D01*
X113642222Y-64195351D01*
X113826569Y-64137511D01*
X113995503Y-64043746D01*
X114142104Y-63917894D01*
X114260368Y-63765109D01*
X114345458Y-63591641D01*
X114366597Y-63510000D01*
X113474624Y-63510000D01*
X113547545Y-63495495D01*
X113630240Y-63440240D01*
X113685495Y-63357545D01*
X113704898Y-63260000D01*
X113685495Y-63162455D01*
X113630240Y-63079760D01*
X113547545Y-63024505D01*
X113474624Y-63010000D01*
X114370471Y-63010000D01*
X114314952Y-62860094D01*
X114310128Y-62790391D01*
X114343754Y-62729145D01*
X114405154Y-62695801D01*
X114474834Y-62700946D01*
X114481669Y-62703749D01*
X114487939Y-62706541D01*
X114661352Y-62743400D01*
X114661355Y-62743400D01*
X114838648Y-62743400D01*
X114968707Y-62715754D01*
X115012061Y-62706540D01*
X115174023Y-62634429D01*
X115213967Y-62605408D01*
X115317453Y-62530222D01*
X115436084Y-62398469D01*
X115448330Y-62377258D01*
X115524729Y-62244931D01*
X115579514Y-62076319D01*
X115598046Y-61900000D01*
X115579514Y-61723681D01*
X115524729Y-61555069D01*
X115492124Y-61498595D01*
X115436084Y-61401530D01*
X115317453Y-61269777D01*
X115174023Y-61165570D01*
X115012060Y-61093459D01*
X114838648Y-61056600D01*
X114838645Y-61056600D01*
X114661355Y-61056600D01*
X114661352Y-61056600D01*
X114487939Y-61093459D01*
X114325976Y-61165570D01*
X114182546Y-61269777D01*
X114063915Y-61401530D01*
X113975270Y-61555069D01*
X113926916Y-61703891D01*
X113920486Y-61723681D01*
X113901954Y-61900000D01*
X113920486Y-62076319D01*
X113920487Y-62076322D01*
X113968791Y-62224990D01*
X113970786Y-62294831D01*
X113934705Y-62354663D01*
X113872004Y-62385491D01*
X113802590Y-62377526D01*
X113801960Y-62377258D01*
X113735863Y-62348893D01*
X113546605Y-62310000D01*
X113100000Y-62310000D01*
X113100000Y-63010000D01*
X112599999Y-63010000D01*
X112600000Y-62310000D01*
X112204967Y-62310000D01*
X112198701Y-62310317D01*
X112057777Y-62324648D01*
X111873430Y-62382488D01*
X111704496Y-62476253D01*
X111557895Y-62602105D01*
X111439631Y-62754890D01*
X111354541Y-62928358D01*
X111333403Y-63010000D01*
X112225376Y-63010000D01*
X112152455Y-63024505D01*
X112069760Y-63079760D01*
X112014505Y-63162455D01*
X111995102Y-63260000D01*
X112014505Y-63357545D01*
X112069760Y-63440240D01*
X112152455Y-63495495D01*
X112225376Y-63510000D01*
X111329529Y-63510000D01*
X111392685Y-63680530D01*
X111494890Y-63844501D01*
X111628004Y-63984536D01*
X111664101Y-64009661D01*
X111707879Y-64064115D01*
X111715267Y-64133593D01*
X111685418Y-64194401D01*
X111678479Y-64202107D01*
X111652247Y-64247542D01*
X111647495Y-64255126D01*
X111616359Y-64301049D01*
X111608553Y-64320639D01*
X111600752Y-64336732D01*
X111591714Y-64352387D01*
X111574442Y-64405546D01*
X111571705Y-64413124D01*
X111549899Y-64467854D01*
X111547044Y-64485267D01*
X111542610Y-64503517D01*
X111538091Y-64517424D01*
X111531890Y-64576414D01*
X111530937Y-64583507D01*
X111520849Y-64645047D01*
X111521617Y-64659219D01*
X111521121Y-64678880D01*
X111519952Y-64690001D01*
X111526511Y-64752410D01*
X111527008Y-64758655D01*
X111530432Y-64821796D01*
X111514406Y-64889803D01*
X111479502Y-64928826D01*
X111466173Y-64938511D01*
X111457546Y-64944779D01*
X111415645Y-64991315D01*
X111338913Y-65076533D01*
X111250270Y-65230069D01*
X111195487Y-65398677D01*
X111195486Y-65398681D01*
X111192559Y-65426530D01*
X111175621Y-65587682D01*
X111149036Y-65652297D01*
X111139981Y-65662401D01*
X106147581Y-70654801D01*
X106086258Y-70688286D01*
X106016566Y-70683302D01*
X105960633Y-70641430D01*
X105936216Y-70575966D01*
X105935900Y-70567120D01*
X105935900Y-63510000D01*
X107396634Y-63510000D01*
X107396932Y-63511948D01*
X107467564Y-63702663D01*
X107575145Y-63875263D01*
X107715266Y-64022669D01*
X107882194Y-64138855D01*
X108069092Y-64219059D01*
X108268311Y-64260000D01*
X108420000Y-64260000D01*
X108420000Y-63560000D01*
X108920000Y-63560000D01*
X108919999Y-64259999D01*
X108920000Y-64260000D01*
X109017570Y-64260000D01*
X109023835Y-64259682D01*
X109172339Y-64244580D01*
X109366389Y-64183696D01*
X109544214Y-64084996D01*
X109698531Y-63952520D01*
X109823021Y-63791692D01*
X109912589Y-63609094D01*
X109938246Y-63510000D01*
X109136111Y-63510000D01*
X109175610Y-63485543D01*
X109243201Y-63396038D01*
X109273895Y-63288160D01*
X109263546Y-63176479D01*
X109213552Y-63076078D01*
X109141069Y-63010000D01*
X109943366Y-63010000D01*
X109943067Y-63008051D01*
X109872435Y-62817336D01*
X109764854Y-62644736D01*
X109624733Y-62497330D01*
X109457805Y-62381144D01*
X109270907Y-62300940D01*
X109071689Y-62260000D01*
X108920000Y-62260000D01*
X108919999Y-62960000D01*
X108420000Y-62960000D01*
X108420000Y-62260000D01*
X108322430Y-62260000D01*
X108316164Y-62260317D01*
X108167660Y-62275419D01*
X107973610Y-62336303D01*
X107795785Y-62435003D01*
X107641468Y-62567479D01*
X107516978Y-62728307D01*
X107427410Y-62910905D01*
X107401753Y-63009999D01*
X107401753Y-63010000D01*
X108203889Y-63010000D01*
X108164390Y-63034457D01*
X108096799Y-63123962D01*
X108066105Y-63231840D01*
X108076454Y-63343521D01*
X108126448Y-63443922D01*
X108198931Y-63510000D01*
X107396634Y-63510000D01*
X105935900Y-63510000D01*
X105935900Y-47345599D01*
X107385951Y-47345599D01*
X107405717Y-47596749D01*
X107464526Y-47841710D01*
X107512730Y-47958084D01*
X107560934Y-48074459D01*
X107692564Y-48289259D01*
X107856176Y-48480824D01*
X108047741Y-48644436D01*
X108262541Y-48776066D01*
X108495289Y-48872473D01*
X108740252Y-48931283D01*
X108928518Y-48946100D01*
X108930963Y-48946100D01*
X109051837Y-48946100D01*
X109054282Y-48946100D01*
X109242548Y-48931283D01*
X109487511Y-48872473D01*
X109720259Y-48776066D01*
X109935059Y-48644436D01*
X110126624Y-48480824D01*
X110290236Y-48289259D01*
X110421866Y-48074459D01*
X110518273Y-47841711D01*
X110577083Y-47596748D01*
X110596849Y-47345600D01*
X110577083Y-47094452D01*
X110518273Y-46849489D01*
X110421866Y-46616741D01*
X110290236Y-46401941D01*
X110126624Y-46210376D01*
X109935059Y-46046764D01*
X109720259Y-45915134D01*
X109569870Y-45852841D01*
X109487510Y-45818726D01*
X109242549Y-45759917D01*
X109056716Y-45745291D01*
X109056701Y-45745290D01*
X109054282Y-45745100D01*
X108928518Y-45745100D01*
X108926099Y-45745290D01*
X108926083Y-45745291D01*
X108740250Y-45759917D01*
X108495289Y-45818726D01*
X108262539Y-45915135D01*
X108047742Y-46046763D01*
X107856176Y-46210376D01*
X107692563Y-46401942D01*
X107560935Y-46616739D01*
X107464526Y-46849489D01*
X107405717Y-47094450D01*
X107385951Y-47345599D01*
X105935900Y-47345599D01*
X105935900Y-46866354D01*
X105936544Y-46861297D01*
X105936436Y-46848485D01*
X105936437Y-46848482D01*
X105935913Y-46786339D01*
X105936078Y-46778861D01*
X105951343Y-46487430D01*
X105953041Y-46472478D01*
X105965604Y-46400927D01*
X106002852Y-46188778D01*
X106006347Y-46174152D01*
X106090172Y-45898576D01*
X106095412Y-45884485D01*
X106212007Y-45621107D01*
X106218923Y-45607743D01*
X106264657Y-45531141D01*
X106366580Y-45360426D01*
X106375055Y-45348012D01*
X106551597Y-45120407D01*
X106561510Y-45109115D01*
X106764343Y-44904568D01*
X106775539Y-44894571D01*
X107001652Y-44716121D01*
X107014002Y-44707536D01*
X107260073Y-44557801D01*
X107273371Y-44550778D01*
X107535757Y-44431973D01*
X107549816Y-44426611D01*
X107824668Y-44340475D01*
X107839267Y-44336856D01*
X108122537Y-44284660D01*
X108137471Y-44282837D01*
X108428403Y-44265142D01*
X108435931Y-44264914D01*
X108518482Y-44264914D01*
X108518514Y-44264907D01*
X111940814Y-44264700D01*
X112009761Y-44264700D01*
X112009762Y-44264700D01*
X112035966Y-44257005D01*
X112053254Y-44253244D01*
X112080287Y-44249356D01*
X112105093Y-44238025D01*
X112121679Y-44231837D01*
X112147853Y-44224153D01*
X112170836Y-44209381D01*
X112186353Y-44200907D01*
X112211199Y-44189560D01*
X112231820Y-44171688D01*
X112245966Y-44161098D01*
X112268928Y-44146343D01*
X112286813Y-44125700D01*
X112299322Y-44113191D01*
X112319963Y-44095305D01*
X112334710Y-44072353D01*
X112345313Y-44058188D01*
X112363177Y-44037573D01*
X112374526Y-44012720D01*
X112382993Y-43997214D01*
X112397766Y-43974225D01*
X112405452Y-43948038D01*
X112411632Y-43931470D01*
X112422965Y-43906657D01*
X112426852Y-43879615D01*
X112430608Y-43862344D01*
X112438304Y-43836130D01*
X112438300Y-43763119D01*
X112438300Y-42950422D01*
X112457983Y-42883387D01*
X112510787Y-42837632D01*
X112562481Y-42826426D01*
X114129984Y-42828752D01*
G37*
G04 #@! TD.AperFunction*
G04 #@! TA.AperFunction,Conductor*
G36*
X109914434Y-68585696D02*
G01*
X109970367Y-68627568D01*
X109994784Y-68693032D01*
X109995100Y-68701878D01*
X109995100Y-71220771D01*
X109975415Y-71287810D01*
X109922611Y-71333565D01*
X109853453Y-71343509D01*
X109789897Y-71314484D01*
X109765870Y-71286366D01*
X109764854Y-71284736D01*
X109624733Y-71137330D01*
X109457805Y-71021144D01*
X109270907Y-70940940D01*
X109071689Y-70900000D01*
X108920000Y-70900000D01*
X108920000Y-71600000D01*
X108420000Y-71600000D01*
X108420000Y-70900000D01*
X108322430Y-70900000D01*
X108316164Y-70900317D01*
X108167660Y-70915419D01*
X107973610Y-70976303D01*
X107795785Y-71075003D01*
X107641468Y-71207479D01*
X107516978Y-71368307D01*
X107427410Y-71550905D01*
X107401753Y-71649999D01*
X107401753Y-71650000D01*
X108203889Y-71650000D01*
X108164390Y-71674457D01*
X108096799Y-71763962D01*
X108066105Y-71871840D01*
X108076454Y-71983521D01*
X108126448Y-72083922D01*
X108198931Y-72150000D01*
X107396634Y-72150000D01*
X107396932Y-72151948D01*
X107467564Y-72342663D01*
X107575145Y-72515263D01*
X107715266Y-72662669D01*
X107882194Y-72778855D01*
X108069092Y-72859059D01*
X108268311Y-72900000D01*
X108420000Y-72900000D01*
X108420000Y-72200000D01*
X108920000Y-72200000D01*
X108920000Y-72900000D01*
X109017570Y-72900000D01*
X109023835Y-72899682D01*
X109172339Y-72884580D01*
X109366389Y-72823696D01*
X109544214Y-72724996D01*
X109698530Y-72592521D01*
X109773042Y-72496259D01*
X109829643Y-72455294D01*
X109899406Y-72451433D01*
X109960182Y-72485902D01*
X109992674Y-72547757D01*
X109995099Y-72572159D01*
X109995100Y-73277356D01*
X109994039Y-73293541D01*
X109990123Y-73323279D01*
X109999366Y-73393484D01*
X110009944Y-73473829D01*
X110068054Y-73614118D01*
X110137049Y-73704035D01*
X110160493Y-73734587D01*
X110184289Y-73752846D01*
X110196484Y-73763541D01*
X110986944Y-74554001D01*
X111020429Y-74615324D01*
X111015445Y-74685016D01*
X110973573Y-74740949D01*
X110908109Y-74765366D01*
X110899263Y-74765682D01*
X110795434Y-74765682D01*
X110622021Y-74802541D01*
X110460058Y-74874652D01*
X110316628Y-74978859D01*
X110197997Y-75110612D01*
X110109352Y-75264151D01*
X110054569Y-75432759D01*
X110054568Y-75432763D01*
X110036036Y-75609082D01*
X110054568Y-75785401D01*
X110054569Y-75785404D01*
X110109352Y-75954012D01*
X110197997Y-76107551D01*
X110316628Y-76239304D01*
X110460058Y-76343511D01*
X110622021Y-76415622D01*
X110795434Y-76452482D01*
X110795437Y-76452482D01*
X110903503Y-76452482D01*
X110970542Y-76472167D01*
X110991184Y-76488801D01*
X112739981Y-78237597D01*
X112773466Y-78298920D01*
X112775621Y-78312316D01*
X112776954Y-78324999D01*
X112776954Y-78325000D01*
X112795486Y-78501319D01*
X112795487Y-78501322D01*
X112850270Y-78669930D01*
X112938915Y-78823469D01*
X113057546Y-78955222D01*
X113200976Y-79059429D01*
X113362939Y-79131540D01*
X113536352Y-79168400D01*
X113536355Y-79168400D01*
X113713648Y-79168400D01*
X113843706Y-79140755D01*
X113887061Y-79131540D01*
X114049023Y-79059429D01*
X114192454Y-78955221D01*
X114311084Y-78823469D01*
X114399729Y-78669931D01*
X114454514Y-78501319D01*
X114473046Y-78325000D01*
X114454514Y-78148681D01*
X114399729Y-77980069D01*
X114311084Y-77826530D01*
X114295109Y-77808788D01*
X114264879Y-77745796D01*
X114273505Y-77676461D01*
X114314372Y-77625499D01*
X114383707Y-77575125D01*
X114502337Y-77443373D01*
X114590982Y-77289835D01*
X114628419Y-77174613D01*
X114667856Y-77116938D01*
X114720570Y-77091640D01*
X114742854Y-77086904D01*
X114742855Y-77086903D01*
X114742857Y-77086903D01*
X114831713Y-77047341D01*
X114904816Y-77014793D01*
X115048247Y-76910585D01*
X115048249Y-76910581D01*
X115058790Y-76902924D01*
X115060942Y-76905886D01*
X115101406Y-76880950D01*
X115171264Y-76882272D01*
X115206969Y-76900249D01*
X115310174Y-76975231D01*
X115472133Y-77047341D01*
X115472136Y-77047341D01*
X115472137Y-77047342D01*
X115616046Y-77077930D01*
X115677526Y-77111122D01*
X115711303Y-77172285D01*
X115713584Y-77186251D01*
X115718338Y-77231481D01*
X115718339Y-77231484D01*
X115773122Y-77400092D01*
X115861767Y-77553631D01*
X115980398Y-77685384D01*
X116123828Y-77789591D01*
X116285791Y-77861702D01*
X116459204Y-77898562D01*
X116459207Y-77898562D01*
X116482200Y-77898562D01*
X116549239Y-77918247D01*
X116594994Y-77971051D01*
X116606200Y-78022562D01*
X116606200Y-81147446D01*
X116586515Y-81214485D01*
X116533711Y-81260240D01*
X116507981Y-81268736D01*
X116425539Y-81286259D01*
X116263576Y-81358370D01*
X116120146Y-81462577D01*
X116001515Y-81594330D01*
X115912870Y-81747869D01*
X115858087Y-81916477D01*
X115858086Y-81916481D01*
X115844633Y-82044473D01*
X115839554Y-82092799D01*
X115858086Y-82269120D01*
X115903153Y-82407822D01*
X115905148Y-82477664D01*
X115872903Y-82533821D01*
X114692281Y-83714444D01*
X114630958Y-83747929D01*
X114561266Y-83742945D01*
X114505333Y-83701073D01*
X114480916Y-83635609D01*
X114480600Y-83626763D01*
X114480600Y-81804588D01*
X114481661Y-81788402D01*
X114485467Y-81759493D01*
X114483211Y-81742364D01*
X114466083Y-81612260D01*
X114409253Y-81475061D01*
X114341549Y-81386826D01*
X114341548Y-81386825D01*
X114318850Y-81357244D01*
X114295714Y-81339491D01*
X114283519Y-81328796D01*
X113033571Y-80078848D01*
X113000086Y-80017525D01*
X112997931Y-80004128D01*
X112996598Y-79991450D01*
X112996599Y-79991447D01*
X112978067Y-79815128D01*
X112956301Y-79748140D01*
X112923282Y-79646516D01*
X112834637Y-79492977D01*
X112716006Y-79361224D01*
X112572576Y-79257017D01*
X112410613Y-79184906D01*
X112237201Y-79148047D01*
X112237198Y-79148047D01*
X112100958Y-79148047D01*
X112033919Y-79128362D01*
X111988164Y-79075558D01*
X111986397Y-79071500D01*
X111981397Y-79059429D01*
X111973253Y-79039767D01*
X111960494Y-79023138D01*
X111958098Y-79020015D01*
X111882849Y-78921948D01*
X111859705Y-78904189D01*
X111847511Y-78893495D01*
X109952618Y-76998601D01*
X109919133Y-76937278D01*
X109916978Y-76923881D01*
X109915645Y-76911203D01*
X109915646Y-76911200D01*
X109897114Y-76734881D01*
X109888700Y-76708986D01*
X109842329Y-76566269D01*
X109753684Y-76412730D01*
X109635053Y-76280977D01*
X109491623Y-76176770D01*
X109329660Y-76104659D01*
X109156248Y-76067800D01*
X109156245Y-76067800D01*
X108978955Y-76067800D01*
X108978952Y-76067800D01*
X108805539Y-76104659D01*
X108643576Y-76176770D01*
X108500146Y-76280977D01*
X108381515Y-76412730D01*
X108292870Y-76566269D01*
X108238087Y-76734877D01*
X108238086Y-76734881D01*
X108219554Y-76911200D01*
X108238086Y-77087519D01*
X108238087Y-77087522D01*
X108292870Y-77256130D01*
X108381515Y-77409669D01*
X108500146Y-77541422D01*
X108651280Y-77651227D01*
X108693946Y-77706557D01*
X108699925Y-77776170D01*
X108696326Y-77789862D01*
X108657852Y-77908277D01*
X108657851Y-77908281D01*
X108639319Y-78084600D01*
X108657851Y-78260919D01*
X108657852Y-78260922D01*
X108712635Y-78429530D01*
X108801280Y-78583069D01*
X108919911Y-78714822D01*
X109063341Y-78819029D01*
X109225304Y-78891140D01*
X109398717Y-78928000D01*
X109398720Y-78928000D01*
X109481786Y-78928000D01*
X109548825Y-78947685D01*
X109569467Y-78964319D01*
X110059681Y-79454532D01*
X110093166Y-79515855D01*
X110096000Y-79542213D01*
X110096000Y-84737745D01*
X110076315Y-84804784D01*
X110064150Y-84820717D01*
X109973915Y-84920932D01*
X109885270Y-85074470D01*
X109835551Y-85227493D01*
X109796114Y-85285168D01*
X109731755Y-85312367D01*
X109667185Y-85302455D01*
X109602057Y-85273458D01*
X109428648Y-85236600D01*
X109428645Y-85236600D01*
X109251355Y-85236600D01*
X109251352Y-85236600D01*
X109077939Y-85273459D01*
X108915976Y-85345570D01*
X108772546Y-85449777D01*
X108653915Y-85581530D01*
X108565270Y-85735069D01*
X108521624Y-85869400D01*
X108510486Y-85903681D01*
X108491954Y-86080000D01*
X108510486Y-86256319D01*
X108510487Y-86256322D01*
X108565270Y-86424930D01*
X108653915Y-86578469D01*
X108772546Y-86710222D01*
X108915976Y-86814429D01*
X109077939Y-86886540D01*
X109251352Y-86923400D01*
X109251355Y-86923400D01*
X109428648Y-86923400D01*
X109558706Y-86895755D01*
X109602061Y-86886540D01*
X109764023Y-86814429D01*
X109887327Y-86724844D01*
X109907453Y-86710222D01*
X110026084Y-86578469D01*
X110062829Y-86514824D01*
X110114729Y-86424931D01*
X110164449Y-86271907D01*
X110203885Y-86214233D01*
X110268243Y-86187034D01*
X110332815Y-86196947D01*
X110397940Y-86225943D01*
X110571352Y-86262802D01*
X110571355Y-86262802D01*
X110748648Y-86262802D01*
X110878706Y-86235156D01*
X110922061Y-86225942D01*
X111084023Y-86153831D01*
X111157532Y-86100424D01*
X111227453Y-86049624D01*
X111231864Y-86044725D01*
X111346084Y-85917871D01*
X111362782Y-85888949D01*
X111413346Y-85840734D01*
X111481953Y-85827509D01*
X111546818Y-85853476D01*
X111557850Y-85863267D01*
X114226259Y-88531675D01*
X114259744Y-88592998D01*
X114254760Y-88662690D01*
X114230728Y-88702328D01*
X114163915Y-88776530D01*
X114075270Y-88930069D01*
X114020487Y-89098677D01*
X114020486Y-89098681D01*
X114001954Y-89275000D01*
X114020486Y-89451319D01*
X114020487Y-89451322D01*
X114075270Y-89619930D01*
X114163915Y-89773469D01*
X114282546Y-89905222D01*
X114425976Y-90009429D01*
X114587939Y-90081540D01*
X114761352Y-90118400D01*
X114761355Y-90118400D01*
X114938648Y-90118400D01*
X115068706Y-90090755D01*
X115112061Y-90081540D01*
X115274023Y-90009429D01*
X115327906Y-89970281D01*
X115417453Y-89905222D01*
X115536084Y-89773469D01*
X115551759Y-89746319D01*
X115624729Y-89619931D01*
X115679514Y-89451319D01*
X115698046Y-89275000D01*
X115679514Y-89098681D01*
X115669387Y-89067515D01*
X115667393Y-88997677D01*
X115703473Y-88937844D01*
X115766174Y-88907016D01*
X115787319Y-88905200D01*
X117302906Y-88905200D01*
X117319089Y-88906260D01*
X117348000Y-88910067D01*
X117495234Y-88890683D01*
X117591951Y-88850620D01*
X117639404Y-88841182D01*
X117780066Y-88841182D01*
X117910125Y-88813537D01*
X117953479Y-88804322D01*
X118115441Y-88732211D01*
X118258872Y-88628003D01*
X118372150Y-88502194D01*
X118431632Y-88465550D01*
X118501489Y-88466879D01*
X118559537Y-88505766D01*
X118587347Y-88569862D01*
X118588296Y-88585170D01*
X118588297Y-90357407D01*
X118568612Y-90424446D01*
X118515809Y-90470201D01*
X118446650Y-90480145D01*
X118438520Y-90478698D01*
X118428648Y-90476600D01*
X118428645Y-90476600D01*
X118251355Y-90476600D01*
X118251352Y-90476600D01*
X118077939Y-90513459D01*
X117915976Y-90585570D01*
X117772546Y-90689777D01*
X117653915Y-90821530D01*
X117565270Y-90975069D01*
X117510487Y-91143677D01*
X117510486Y-91143681D01*
X117491954Y-91320000D01*
X117510486Y-91496319D01*
X117510487Y-91496322D01*
X117565270Y-91664930D01*
X117653915Y-91818469D01*
X117772546Y-91950222D01*
X117915976Y-92054429D01*
X118077939Y-92126540D01*
X118251352Y-92163400D01*
X118251355Y-92163400D01*
X118428648Y-92163400D01*
X118558706Y-92135755D01*
X118602061Y-92126540D01*
X118764023Y-92054429D01*
X118884879Y-91966621D01*
X118950684Y-91943143D01*
X119018737Y-91958968D01*
X119045444Y-91979260D01*
X119610103Y-92543919D01*
X119643588Y-92605242D01*
X119638604Y-92674934D01*
X119596732Y-92730867D01*
X119531268Y-92755284D01*
X119522422Y-92755600D01*
X119224088Y-92755600D01*
X119157049Y-92735915D01*
X119131938Y-92714572D01*
X119109253Y-92689377D01*
X118965823Y-92585170D01*
X118803860Y-92513059D01*
X118630448Y-92476200D01*
X118630445Y-92476200D01*
X118453155Y-92476200D01*
X118453152Y-92476200D01*
X118279739Y-92513059D01*
X118117776Y-92585170D01*
X117974346Y-92689377D01*
X117855715Y-92821130D01*
X117767070Y-92974669D01*
X117712287Y-93143277D01*
X117712286Y-93143281D01*
X117693754Y-93319600D01*
X117712286Y-93495919D01*
X117712287Y-93495922D01*
X117767070Y-93664530D01*
X117855715Y-93818069D01*
X117974346Y-93949822D01*
X118117776Y-94054029D01*
X118279739Y-94126140D01*
X118453152Y-94163000D01*
X118453155Y-94163000D01*
X118630448Y-94163000D01*
X118760506Y-94135355D01*
X118803861Y-94126140D01*
X118965823Y-94054029D01*
X119005438Y-94025247D01*
X119109253Y-93949822D01*
X119131938Y-93924628D01*
X119191424Y-93887979D01*
X119224088Y-93883600D01*
X123832068Y-93883600D01*
X123899107Y-93903285D01*
X123944862Y-93956089D01*
X123954806Y-94025247D01*
X123925781Y-94088803D01*
X123882504Y-94120879D01*
X123725976Y-94190570D01*
X123582546Y-94294777D01*
X123463915Y-94426530D01*
X123375270Y-94580069D01*
X123341846Y-94682940D01*
X123320486Y-94748681D01*
X123301954Y-94925000D01*
X123320486Y-95101319D01*
X123320487Y-95101322D01*
X123375270Y-95269930D01*
X123463915Y-95423469D01*
X123582546Y-95555222D01*
X123725976Y-95659429D01*
X123887939Y-95731540D01*
X124061352Y-95768400D01*
X124061355Y-95768400D01*
X124238648Y-95768400D01*
X124368707Y-95740755D01*
X124412061Y-95731540D01*
X124574023Y-95659429D01*
X124717454Y-95555221D01*
X124836084Y-95423469D01*
X124924729Y-95269931D01*
X124979514Y-95101319D01*
X124998046Y-94925000D01*
X124979514Y-94748681D01*
X124924729Y-94580069D01*
X124861344Y-94470282D01*
X124836084Y-94426530D01*
X124717453Y-94294777D01*
X124574023Y-94190570D01*
X124417496Y-94120879D01*
X124364259Y-94075629D01*
X124343938Y-94008780D01*
X124362983Y-93941556D01*
X124415350Y-93895301D01*
X124467932Y-93883600D01*
X125070984Y-93883600D01*
X125138023Y-93903285D01*
X125158664Y-93919918D01*
X125204062Y-93965315D01*
X125237548Y-94026638D01*
X125239703Y-94040035D01*
X125241036Y-94052717D01*
X125241036Y-94052718D01*
X125259568Y-94229037D01*
X125259569Y-94229040D01*
X125314352Y-94397648D01*
X125402997Y-94551187D01*
X125521628Y-94682940D01*
X125665058Y-94787147D01*
X125827021Y-94859258D01*
X126000434Y-94896118D01*
X126000437Y-94896118D01*
X126177730Y-94896118D01*
X126307788Y-94868472D01*
X126351143Y-94859258D01*
X126513105Y-94787147D01*
X126656536Y-94682939D01*
X126748195Y-94581140D01*
X126807681Y-94544492D01*
X126877538Y-94545822D01*
X126928026Y-94576432D01*
X129502951Y-97151357D01*
X129536436Y-97212680D01*
X129531452Y-97282372D01*
X129527652Y-97291443D01*
X129446097Y-97466336D01*
X129384936Y-97694592D01*
X129364340Y-97930000D01*
X129384936Y-98165407D01*
X129404529Y-98238527D01*
X129446097Y-98393663D01*
X129545965Y-98607830D01*
X129681505Y-98801401D01*
X129848599Y-98968495D01*
X130034596Y-99098732D01*
X130078219Y-99153307D01*
X130085412Y-99222806D01*
X130053890Y-99285160D01*
X130034595Y-99301880D01*
X129848919Y-99431892D01*
X129681890Y-99598921D01*
X129546400Y-99792421D01*
X129446569Y-100006507D01*
X129389364Y-100219999D01*
X129389364Y-100220000D01*
X130286314Y-100220000D01*
X130260507Y-100260156D01*
X130220000Y-100398111D01*
X130220000Y-100541889D01*
X130260507Y-100679844D01*
X130286314Y-100720000D01*
X129389364Y-100720000D01*
X129446569Y-100933492D01*
X129546399Y-101147576D01*
X129681893Y-101341081D01*
X129848918Y-101508106D01*
X130042423Y-101643600D01*
X130256509Y-101743430D01*
X130470000Y-101800634D01*
X130470000Y-100905501D01*
X130577685Y-100954680D01*
X130684237Y-100970000D01*
X130755763Y-100970000D01*
X130862315Y-100954680D01*
X130970000Y-100905501D01*
X130970000Y-101800633D01*
X131183490Y-101743430D01*
X131397576Y-101643600D01*
X131591081Y-101508106D01*
X131758109Y-101341078D01*
X131888119Y-101155405D01*
X131942696Y-101111780D01*
X132012194Y-101104586D01*
X132074549Y-101136109D01*
X132091265Y-101155400D01*
X132221505Y-101341401D01*
X132388599Y-101508495D01*
X132582170Y-101644035D01*
X132796337Y-101743903D01*
X133024592Y-101805063D01*
X133260000Y-101825659D01*
X133495408Y-101805063D01*
X133723663Y-101743903D01*
X133937830Y-101644035D01*
X134131401Y-101508495D01*
X134298495Y-101341401D01*
X134434035Y-101147830D01*
X134533903Y-100933663D01*
X134595063Y-100705408D01*
X134615659Y-100470000D01*
X134595063Y-100234592D01*
X134533903Y-100006337D01*
X134434035Y-99792171D01*
X134298495Y-99598599D01*
X134131401Y-99431505D01*
X133945839Y-99301573D01*
X133902216Y-99246998D01*
X133895022Y-99177500D01*
X133926545Y-99115145D01*
X133945837Y-99098428D01*
X134131401Y-98968495D01*
X134298495Y-98801401D01*
X134434035Y-98607830D01*
X134533903Y-98393663D01*
X134595063Y-98165408D01*
X134615659Y-97930000D01*
X134595063Y-97694592D01*
X134533903Y-97466337D01*
X134434035Y-97252171D01*
X134325729Y-97097494D01*
X134303403Y-97031289D01*
X134320413Y-96963522D01*
X134339620Y-96938694D01*
X134843627Y-96434687D01*
X134904948Y-96401204D01*
X134974639Y-96406188D01*
X135030573Y-96448059D01*
X135054990Y-96513524D01*
X135055306Y-96522317D01*
X135059298Y-105812893D01*
X135059103Y-105819899D01*
X135043512Y-106097521D01*
X135041955Y-106111339D01*
X134995958Y-106382056D01*
X134992864Y-106395613D01*
X134916843Y-106659486D01*
X134912250Y-106672610D01*
X134807168Y-106926303D01*
X134801135Y-106938832D01*
X134668305Y-107179169D01*
X134660907Y-107190943D01*
X134502004Y-107414896D01*
X134493334Y-107425768D01*
X134310355Y-107630522D01*
X134300522Y-107640355D01*
X134095768Y-107823334D01*
X134084896Y-107832004D01*
X133860943Y-107990907D01*
X133849169Y-107998305D01*
X133608832Y-108131135D01*
X133596303Y-108137168D01*
X133342610Y-108242250D01*
X133329486Y-108246843D01*
X133065613Y-108322864D01*
X133052056Y-108325958D01*
X132781339Y-108371955D01*
X132767521Y-108373512D01*
X132489872Y-108389105D01*
X132482919Y-108389300D01*
X120525738Y-108389300D01*
X120458699Y-108369615D01*
X120412944Y-108316811D01*
X120403000Y-108247653D01*
X120418350Y-108203301D01*
X120434730Y-108174929D01*
X120450594Y-108126104D01*
X120489514Y-108006319D01*
X120508046Y-107830000D01*
X120489514Y-107653681D01*
X120434729Y-107485069D01*
X120383169Y-107395764D01*
X120346084Y-107331530D01*
X120255850Y-107231315D01*
X120225620Y-107168323D01*
X120224000Y-107148343D01*
X120224000Y-105333799D01*
X130398351Y-105333799D01*
X130418117Y-105584949D01*
X130476926Y-105829910D01*
X130486113Y-105852088D01*
X130573334Y-106062659D01*
X130704964Y-106277459D01*
X130868576Y-106469024D01*
X131060141Y-106632636D01*
X131274941Y-106764266D01*
X131507689Y-106860673D01*
X131752652Y-106919483D01*
X131940918Y-106934300D01*
X131943363Y-106934300D01*
X132064237Y-106934300D01*
X132066682Y-106934300D01*
X132254948Y-106919483D01*
X132499911Y-106860673D01*
X132732659Y-106764266D01*
X132947459Y-106632636D01*
X133139024Y-106469024D01*
X133302636Y-106277459D01*
X133434266Y-106062659D01*
X133530673Y-105829911D01*
X133589483Y-105584948D01*
X133609249Y-105333800D01*
X133589483Y-105082652D01*
X133530673Y-104837689D01*
X133434266Y-104604941D01*
X133302636Y-104390141D01*
X133139024Y-104198576D01*
X132947459Y-104034964D01*
X132732659Y-103903334D01*
X132616284Y-103855130D01*
X132499910Y-103806926D01*
X132254949Y-103748117D01*
X132069116Y-103733491D01*
X132069101Y-103733490D01*
X132066682Y-103733300D01*
X131940918Y-103733300D01*
X131938499Y-103733490D01*
X131938483Y-103733491D01*
X131752650Y-103748117D01*
X131507689Y-103806926D01*
X131274939Y-103903335D01*
X131060142Y-104034963D01*
X130868576Y-104198576D01*
X130704963Y-104390142D01*
X130573335Y-104604939D01*
X130476926Y-104837689D01*
X130418117Y-105082650D01*
X130398351Y-105333799D01*
X120224000Y-105333799D01*
X120224000Y-102155101D01*
X120225061Y-102138915D01*
X120225257Y-102137424D01*
X120228868Y-102110000D01*
X120224876Y-102079683D01*
X120228585Y-102039327D01*
X120228151Y-102039282D01*
X120229513Y-102026321D01*
X120229514Y-102026319D01*
X120248046Y-101850000D01*
X120229514Y-101673681D01*
X120174729Y-101505069D01*
X120174729Y-101505068D01*
X120086084Y-101351530D01*
X119967453Y-101219777D01*
X119824023Y-101115570D01*
X119662060Y-101043459D01*
X119488648Y-101006600D01*
X119488645Y-101006600D01*
X119311355Y-101006600D01*
X119311352Y-101006600D01*
X119137939Y-101043459D01*
X118975976Y-101115570D01*
X118832546Y-101219777D01*
X118713915Y-101351530D01*
X118625270Y-101505069D01*
X118570487Y-101673677D01*
X118570486Y-101673681D01*
X118551954Y-101850000D01*
X118570486Y-102026319D01*
X118570487Y-102026322D01*
X118625270Y-102194930D01*
X118713915Y-102348469D01*
X118832546Y-102480222D01*
X118975974Y-102584427D01*
X118975977Y-102584429D01*
X119022436Y-102605114D01*
X119075672Y-102650363D01*
X119095994Y-102717212D01*
X119096000Y-102718393D01*
X119096000Y-107148343D01*
X119076315Y-107215382D01*
X119064150Y-107231315D01*
X118973915Y-107331530D01*
X118885270Y-107485069D01*
X118833736Y-107643677D01*
X118830486Y-107653681D01*
X118811954Y-107830000D01*
X118830486Y-108006319D01*
X118830487Y-108006322D01*
X118885269Y-108174929D01*
X118901650Y-108203301D01*
X118918122Y-108271201D01*
X118895269Y-108337228D01*
X118840347Y-108380418D01*
X118794262Y-108389300D01*
X118469964Y-108389300D01*
X118402925Y-108369615D01*
X118357170Y-108316811D01*
X118347226Y-108247653D01*
X118362577Y-108203300D01*
X118370169Y-108190148D01*
X118384729Y-108164931D01*
X118439514Y-107996319D01*
X118458046Y-107820000D01*
X118439514Y-107643681D01*
X118384729Y-107475069D01*
X118349988Y-107414896D01*
X118296084Y-107321530D01*
X118177453Y-107189777D01*
X118034023Y-107085570D01*
X117872060Y-107013459D01*
X117698648Y-106976600D01*
X117698645Y-106976600D01*
X117521355Y-106976600D01*
X117521352Y-106976600D01*
X117347939Y-107013459D01*
X117185976Y-107085570D01*
X117042546Y-107189777D01*
X116923915Y-107321530D01*
X116835270Y-107475069D01*
X116780487Y-107643677D01*
X116780486Y-107643681D01*
X116761954Y-107820000D01*
X116780486Y-107996319D01*
X116780487Y-107996322D01*
X116835270Y-108164930D01*
X116857423Y-108203300D01*
X116873896Y-108271200D01*
X116851044Y-108337227D01*
X116796122Y-108380418D01*
X116750036Y-108389300D01*
X108563081Y-108389300D01*
X108556128Y-108389105D01*
X108272791Y-108373193D01*
X108258973Y-108371636D01*
X107982637Y-108324684D01*
X107969081Y-108321590D01*
X107699738Y-108243994D01*
X107686612Y-108239401D01*
X107427653Y-108132137D01*
X107415125Y-108126104D01*
X107169796Y-107990515D01*
X107158031Y-107983122D01*
X106929420Y-107820914D01*
X106918563Y-107812256D01*
X106741117Y-107653681D01*
X106709554Y-107625474D01*
X106699723Y-107615643D01*
X106583035Y-107485069D01*
X106512938Y-107406630D01*
X106504287Y-107395781D01*
X106342074Y-107167164D01*
X106334684Y-107155403D01*
X106256234Y-107013459D01*
X106199091Y-106910067D01*
X106193065Y-106897553D01*
X106085797Y-106638586D01*
X106081205Y-106625461D01*
X106003607Y-106356112D01*
X106000515Y-106342562D01*
X105992960Y-106298095D01*
X105953562Y-106066218D01*
X105952006Y-106052407D01*
X105948612Y-105991974D01*
X105936095Y-105769071D01*
X105935900Y-105762119D01*
X105935900Y-105333800D01*
X107385951Y-105333800D01*
X107405717Y-105584949D01*
X107464526Y-105829910D01*
X107473713Y-105852088D01*
X107560934Y-106062659D01*
X107692564Y-106277459D01*
X107856176Y-106469024D01*
X108047741Y-106632636D01*
X108262541Y-106764266D01*
X108495289Y-106860673D01*
X108740252Y-106919483D01*
X108928518Y-106934300D01*
X108930963Y-106934300D01*
X109051837Y-106934300D01*
X109054282Y-106934300D01*
X109242548Y-106919483D01*
X109487511Y-106860673D01*
X109720259Y-106764266D01*
X109935059Y-106632636D01*
X110126624Y-106469024D01*
X110290236Y-106277459D01*
X110421866Y-106062659D01*
X110518273Y-105829911D01*
X110577083Y-105584948D01*
X110596849Y-105333800D01*
X110577083Y-105082652D01*
X110518273Y-104837689D01*
X110421866Y-104604941D01*
X110290236Y-104390141D01*
X110126624Y-104198576D01*
X109935059Y-104034964D01*
X109720259Y-103903334D01*
X109603884Y-103855130D01*
X109487510Y-103806926D01*
X109242549Y-103748117D01*
X109056716Y-103733491D01*
X109056701Y-103733490D01*
X109054282Y-103733300D01*
X108928518Y-103733300D01*
X108926099Y-103733490D01*
X108926083Y-103733491D01*
X108740250Y-103748117D01*
X108495289Y-103806926D01*
X108262539Y-103903335D01*
X108047742Y-104034963D01*
X107856176Y-104198576D01*
X107692563Y-104390142D01*
X107560935Y-104604939D01*
X107464526Y-104837689D01*
X107405717Y-105082650D01*
X107385951Y-105333800D01*
X105935900Y-105333800D01*
X105935900Y-100010000D01*
X127161954Y-100010000D01*
X127180486Y-100186319D01*
X127180487Y-100186322D01*
X127235270Y-100354930D01*
X127323915Y-100508469D01*
X127442546Y-100640222D01*
X127585976Y-100744429D01*
X127747939Y-100816540D01*
X127921352Y-100853400D01*
X127921355Y-100853400D01*
X128098648Y-100853400D01*
X128228707Y-100825755D01*
X128272061Y-100816540D01*
X128434023Y-100744429D01*
X128577454Y-100640221D01*
X128696084Y-100508469D01*
X128784729Y-100354931D01*
X128839514Y-100186319D01*
X128858046Y-100010000D01*
X128839514Y-99833681D01*
X128784729Y-99665069D01*
X128746352Y-99598598D01*
X128696084Y-99511530D01*
X128577453Y-99379777D01*
X128434023Y-99275570D01*
X128272060Y-99203459D01*
X128098648Y-99166600D01*
X128098645Y-99166600D01*
X127921355Y-99166600D01*
X127921352Y-99166600D01*
X127747939Y-99203459D01*
X127585976Y-99275570D01*
X127442546Y-99379777D01*
X127323915Y-99511530D01*
X127235270Y-99665069D01*
X127193973Y-99792171D01*
X127180486Y-99833681D01*
X127161954Y-100010000D01*
X105935900Y-100010000D01*
X105935900Y-98475800D01*
X107826954Y-98475800D01*
X107845486Y-98652119D01*
X107845487Y-98652122D01*
X107900270Y-98820730D01*
X107988915Y-98974269D01*
X108107546Y-99106022D01*
X108250976Y-99210229D01*
X108412939Y-99282340D01*
X108586352Y-99319200D01*
X108586355Y-99319200D01*
X108763648Y-99319200D01*
X108893707Y-99291555D01*
X108937061Y-99282340D01*
X109099023Y-99210229D01*
X109113102Y-99200000D01*
X109242453Y-99106022D01*
X109361084Y-98974269D01*
X109422005Y-98868750D01*
X109449729Y-98820731D01*
X109504514Y-98652119D01*
X109523046Y-98475800D01*
X109504514Y-98299481D01*
X109484709Y-98238528D01*
X121404118Y-98238528D01*
X121422650Y-98414847D01*
X121422651Y-98414850D01*
X121477434Y-98583458D01*
X121566079Y-98736997D01*
X121684710Y-98868750D01*
X121828140Y-98972957D01*
X121990103Y-99045068D01*
X122163516Y-99081928D01*
X122163519Y-99081928D01*
X122340812Y-99081928D01*
X122470871Y-99054283D01*
X122514225Y-99045068D01*
X122676187Y-98972957D01*
X122819618Y-98868749D01*
X122938248Y-98736997D01*
X123026893Y-98583459D01*
X123081678Y-98414847D01*
X123100210Y-98238528D01*
X123081678Y-98062209D01*
X123026893Y-97893597D01*
X122999169Y-97845577D01*
X122938248Y-97740058D01*
X122819617Y-97608305D01*
X122676187Y-97504098D01*
X122514224Y-97431987D01*
X122340812Y-97395128D01*
X122340809Y-97395128D01*
X122163519Y-97395128D01*
X122163516Y-97395128D01*
X121990103Y-97431987D01*
X121828140Y-97504098D01*
X121684710Y-97608305D01*
X121566079Y-97740058D01*
X121477434Y-97893597D01*
X121450228Y-97977331D01*
X121422650Y-98062209D01*
X121404118Y-98238528D01*
X109484709Y-98238528D01*
X109449729Y-98130869D01*
X109410086Y-98062205D01*
X109361084Y-97977330D01*
X109242453Y-97845577D01*
X109099023Y-97741370D01*
X108937060Y-97669259D01*
X108763648Y-97632400D01*
X108763645Y-97632400D01*
X108586355Y-97632400D01*
X108586352Y-97632400D01*
X108412939Y-97669259D01*
X108250976Y-97741370D01*
X108107546Y-97845577D01*
X107988915Y-97977330D01*
X107900270Y-98130869D01*
X107845487Y-98299477D01*
X107845486Y-98299481D01*
X107826954Y-98475800D01*
X105935900Y-98475800D01*
X105935900Y-95000000D01*
X118851954Y-95000000D01*
X118870486Y-95176319D01*
X118870487Y-95176322D01*
X118925270Y-95344930D01*
X119013915Y-95498469D01*
X119132546Y-95630222D01*
X119275976Y-95734429D01*
X119437939Y-95806540D01*
X119611352Y-95843400D01*
X119611355Y-95843400D01*
X119788648Y-95843400D01*
X119918706Y-95815755D01*
X119962061Y-95806540D01*
X120124023Y-95734429D01*
X120127999Y-95731540D01*
X120267453Y-95630222D01*
X120386084Y-95498469D01*
X120429385Y-95423469D01*
X120474729Y-95344931D01*
X120529514Y-95176319D01*
X120548046Y-95000000D01*
X120529514Y-94823681D01*
X120474729Y-94655069D01*
X120414753Y-94551187D01*
X120386084Y-94501530D01*
X120267453Y-94369777D01*
X120124023Y-94265570D01*
X119962060Y-94193459D01*
X119788648Y-94156600D01*
X119788645Y-94156600D01*
X119611355Y-94156600D01*
X119611352Y-94156600D01*
X119437939Y-94193459D01*
X119275976Y-94265570D01*
X119132546Y-94369777D01*
X119013915Y-94501530D01*
X118925270Y-94655069D01*
X118870487Y-94823677D01*
X118870486Y-94823681D01*
X118851954Y-95000000D01*
X105935900Y-95000000D01*
X105935900Y-90457879D01*
X105955585Y-90390840D01*
X106008389Y-90345085D01*
X106077547Y-90335141D01*
X106141103Y-90364166D01*
X106147581Y-90370198D01*
X106539981Y-90762598D01*
X106573466Y-90823921D01*
X106575621Y-90837317D01*
X106576954Y-90849999D01*
X106576954Y-90850000D01*
X106595486Y-91026319D01*
X106595487Y-91026322D01*
X106650270Y-91194930D01*
X106738915Y-91348469D01*
X106857546Y-91480222D01*
X107000976Y-91584429D01*
X107162939Y-91656540D01*
X107336352Y-91693400D01*
X107336355Y-91693400D01*
X107513648Y-91693400D01*
X107647588Y-91664930D01*
X107687061Y-91656540D01*
X107849023Y-91584429D01*
X107992454Y-91480221D01*
X108111084Y-91348469D01*
X108199729Y-91194931D01*
X108254514Y-91026319D01*
X108273046Y-90850000D01*
X108254514Y-90673681D01*
X108199729Y-90505069D01*
X108184504Y-90478698D01*
X108111084Y-90351530D01*
X107992453Y-90219777D01*
X107849023Y-90115570D01*
X107687060Y-90043459D01*
X107513648Y-90006600D01*
X107513645Y-90006600D01*
X107430579Y-90006600D01*
X107363540Y-89986915D01*
X107342898Y-89970281D01*
X106656919Y-89284302D01*
X106623434Y-89222979D01*
X106620600Y-89196621D01*
X106620600Y-71828378D01*
X106640285Y-71761339D01*
X106656919Y-71740697D01*
X109783419Y-68614197D01*
X109844742Y-68580712D01*
X109914434Y-68585696D01*
G37*
G04 #@! TD.AperFunction*
G04 #@! TA.AperFunction,Conductor*
G36*
X121261360Y-83483685D02*
G01*
X121282002Y-83500319D01*
X121966439Y-84184756D01*
X121999924Y-84246079D01*
X121994940Y-84315771D01*
X121953068Y-84371704D01*
X121951643Y-84372755D01*
X121936746Y-84383577D01*
X121818115Y-84515330D01*
X121754978Y-84624688D01*
X121704411Y-84672904D01*
X121635804Y-84686127D01*
X121570939Y-84660159D01*
X121540204Y-84624688D01*
X121462980Y-84490932D01*
X121344349Y-84359179D01*
X121200919Y-84254972D01*
X121038956Y-84182861D01*
X120865544Y-84146002D01*
X120865541Y-84146002D01*
X120688251Y-84146002D01*
X120688248Y-84146002D01*
X120514835Y-84182861D01*
X120421178Y-84224559D01*
X120351928Y-84233843D01*
X120320309Y-84224559D01*
X120226651Y-84182860D01*
X120053241Y-84146002D01*
X120053238Y-84146002D01*
X119875948Y-84146002D01*
X119875945Y-84146002D01*
X119702532Y-84182861D01*
X119605284Y-84226158D01*
X119536034Y-84235442D01*
X119504415Y-84226158D01*
X119414354Y-84186060D01*
X119240945Y-84149202D01*
X119240942Y-84149202D01*
X119063652Y-84149202D01*
X119063649Y-84149202D01*
X118890239Y-84186060D01*
X118717125Y-84263136D01*
X118647875Y-84272420D01*
X118616255Y-84263136D01*
X118572058Y-84243458D01*
X118398648Y-84206600D01*
X118398645Y-84206600D01*
X118221355Y-84206600D01*
X118221352Y-84206600D01*
X118047939Y-84243459D01*
X117885976Y-84315570D01*
X117742546Y-84419777D01*
X117719862Y-84444972D01*
X117660376Y-84481621D01*
X117627712Y-84486000D01*
X116695101Y-84486000D01*
X116678915Y-84484939D01*
X116650000Y-84481132D01*
X116531386Y-84496749D01*
X116502764Y-84500517D01*
X116471643Y-84513408D01*
X116365567Y-84557345D01*
X116279754Y-84623192D01*
X116247749Y-84647749D01*
X116229994Y-84670888D01*
X116219301Y-84683080D01*
X115912700Y-84989682D01*
X115851379Y-85023166D01*
X115825021Y-85026000D01*
X115741952Y-85026000D01*
X115568539Y-85062859D01*
X115406576Y-85134970D01*
X115263146Y-85239177D01*
X115144515Y-85370930D01*
X115055870Y-85524469D01*
X115005264Y-85680221D01*
X115001086Y-85693081D01*
X114982554Y-85869400D01*
X115001086Y-86045719D01*
X115001087Y-86045722D01*
X115055870Y-86214330D01*
X115144515Y-86367869D01*
X115263146Y-86499622D01*
X115406576Y-86603829D01*
X115568539Y-86675940D01*
X115741952Y-86712800D01*
X115741955Y-86712800D01*
X115919248Y-86712800D01*
X116049306Y-86685155D01*
X116092661Y-86675940D01*
X116254623Y-86603829D01*
X116377129Y-86514824D01*
X116398053Y-86499622D01*
X116516684Y-86367869D01*
X116516683Y-86367869D01*
X116605329Y-86214331D01*
X116660114Y-86045719D01*
X116678646Y-85869400D01*
X116678645Y-85869395D01*
X116679978Y-85856717D01*
X116706562Y-85792102D01*
X116715599Y-85782017D01*
X116847299Y-85650317D01*
X116908622Y-85616834D01*
X116934979Y-85614000D01*
X117627712Y-85614000D01*
X117694751Y-85633685D01*
X117719862Y-85655028D01*
X117742546Y-85680222D01*
X117885976Y-85784429D01*
X118047939Y-85856540D01*
X118221352Y-85893400D01*
X118221355Y-85893400D01*
X118398645Y-85893400D01*
X118438516Y-85884925D01*
X118508182Y-85890240D01*
X118563916Y-85932377D01*
X118588022Y-85997957D01*
X118588297Y-86006215D01*
X118588296Y-87410393D01*
X118568611Y-87477433D01*
X118515807Y-87523187D01*
X118446649Y-87533131D01*
X118383093Y-87504106D01*
X118372146Y-87493365D01*
X118258871Y-87367559D01*
X118115441Y-87263352D01*
X117953478Y-87191241D01*
X117780066Y-87154382D01*
X117780063Y-87154382D01*
X117602773Y-87154382D01*
X117602770Y-87154382D01*
X117429357Y-87191241D01*
X117267394Y-87263352D01*
X117123964Y-87367559D01*
X117005333Y-87499312D01*
X116916688Y-87652850D01*
X116904125Y-87691518D01*
X116864688Y-87749193D01*
X116800329Y-87776392D01*
X116786194Y-87777200D01*
X115118378Y-87777200D01*
X115051339Y-87757515D01*
X115030697Y-87740881D01*
X112080919Y-84791102D01*
X112047434Y-84729779D01*
X112044600Y-84703421D01*
X112044600Y-84562178D01*
X112064285Y-84495139D01*
X112080914Y-84474502D01*
X112219999Y-84335417D01*
X112281321Y-84301934D01*
X112307679Y-84299100D01*
X112390748Y-84299100D01*
X112520807Y-84271454D01*
X112564161Y-84262240D01*
X112726123Y-84190129D01*
X112863154Y-84090571D01*
X112869553Y-84085922D01*
X112988184Y-83954169D01*
X113004375Y-83926125D01*
X113076829Y-83800631D01*
X113105622Y-83712016D01*
X113110669Y-83696482D01*
X113150106Y-83638806D01*
X113214464Y-83611607D01*
X113283311Y-83623521D01*
X113334787Y-83670765D01*
X113352600Y-83734799D01*
X113352600Y-84175846D01*
X113351539Y-84192031D01*
X113347732Y-84220941D01*
X113361634Y-84326531D01*
X113367117Y-84368176D01*
X113423947Y-84505375D01*
X113486696Y-84587153D01*
X113514350Y-84623192D01*
X113537494Y-84640951D01*
X113549680Y-84651639D01*
X113798358Y-84900316D01*
X113809053Y-84912510D01*
X113826808Y-84935650D01*
X113943732Y-85025368D01*
X113944625Y-85026053D01*
X114081824Y-85082883D01*
X114200149Y-85098461D01*
X114229057Y-85102267D01*
X114229057Y-85102266D01*
X114229058Y-85102267D01*
X114257968Y-85098460D01*
X114274152Y-85097400D01*
X114625848Y-85097400D01*
X114642031Y-85098460D01*
X114670942Y-85102267D01*
X114818176Y-85082883D01*
X114955375Y-85026053D01*
X115043610Y-84958349D01*
X115043610Y-84958348D01*
X115053003Y-84951140D01*
X115073192Y-84935650D01*
X115090945Y-84912512D01*
X115101632Y-84900325D01*
X116501639Y-83500318D01*
X116562962Y-83466834D01*
X116589320Y-83464000D01*
X121194321Y-83464000D01*
X121261360Y-83483685D01*
G37*
G04 #@! TD.AperFunction*
G04 #@! TA.AperFunction,Conductor*
G36*
X121710155Y-85343042D02*
G01*
X121740891Y-85378513D01*
X121818115Y-85512268D01*
X121936746Y-85644022D01*
X122080176Y-85748229D01*
X122242139Y-85820340D01*
X122415552Y-85857200D01*
X122415555Y-85857200D01*
X122592848Y-85857200D01*
X122732533Y-85827509D01*
X122766261Y-85820340D01*
X122928223Y-85748229D01*
X123062987Y-85650318D01*
X123071653Y-85644022D01*
X123071654Y-85644021D01*
X123151967Y-85554823D01*
X123211453Y-85518175D01*
X123281310Y-85519505D01*
X123331798Y-85550115D01*
X129640375Y-91858692D01*
X129673860Y-91920015D01*
X129668876Y-91989707D01*
X129654269Y-92017496D01*
X129545965Y-92172170D01*
X129446097Y-92386336D01*
X129384936Y-92614592D01*
X129364340Y-92850000D01*
X129384936Y-93085408D01*
X129407813Y-93170787D01*
X129406150Y-93240637D01*
X129366987Y-93298499D01*
X129302758Y-93326003D01*
X129233856Y-93314416D01*
X129195888Y-93285852D01*
X129106321Y-93186377D01*
X128962891Y-93082170D01*
X128800928Y-93010059D01*
X128627516Y-92973200D01*
X128627513Y-92973200D01*
X128450223Y-92973200D01*
X128450220Y-92973200D01*
X128276807Y-93010059D01*
X128114844Y-93082170D01*
X127999053Y-93166297D01*
X127933247Y-93189777D01*
X127865193Y-93173951D01*
X127838487Y-93153660D01*
X126105906Y-91421079D01*
X126095210Y-91408883D01*
X126077459Y-91385749D01*
X125959643Y-91295347D01*
X125822444Y-91238517D01*
X125822443Y-91238516D01*
X125712178Y-91224000D01*
X125675210Y-91219133D01*
X125646299Y-91222939D01*
X125630116Y-91224000D01*
X120673378Y-91224000D01*
X120606339Y-91204315D01*
X120585697Y-91187681D01*
X120260616Y-90862599D01*
X120227131Y-90801276D01*
X120224297Y-90774918D01*
X120224297Y-89570000D01*
X121900554Y-89570000D01*
X121919086Y-89746319D01*
X121919087Y-89746322D01*
X121973870Y-89914930D01*
X122062515Y-90068469D01*
X122181146Y-90200222D01*
X122324576Y-90304429D01*
X122486539Y-90376540D01*
X122659952Y-90413400D01*
X122659955Y-90413400D01*
X122837248Y-90413400D01*
X122967307Y-90385755D01*
X123010661Y-90376540D01*
X123172623Y-90304429D01*
X123289135Y-90219779D01*
X123316053Y-90200222D01*
X123434684Y-90068469D01*
X123449123Y-90043459D01*
X123523329Y-89914931D01*
X123578114Y-89746319D01*
X123596646Y-89570000D01*
X123578114Y-89393681D01*
X123523329Y-89225069D01*
X123450357Y-89098677D01*
X123434684Y-89071530D01*
X123316053Y-88939777D01*
X123172623Y-88835570D01*
X123010660Y-88763459D01*
X122837248Y-88726600D01*
X122837245Y-88726600D01*
X122659955Y-88726600D01*
X122659952Y-88726600D01*
X122486539Y-88763459D01*
X122324576Y-88835570D01*
X122181146Y-88939777D01*
X122062515Y-89071530D01*
X121973870Y-89225069D01*
X121919087Y-89393677D01*
X121919086Y-89393681D01*
X121900554Y-89570000D01*
X120224297Y-89570000D01*
X120224297Y-88295004D01*
X120243982Y-88227965D01*
X120296786Y-88182210D01*
X120351808Y-88174298D01*
X120351809Y-88171751D01*
X120542135Y-88171751D01*
X120682681Y-88141877D01*
X120715548Y-88134891D01*
X120877510Y-88062780D01*
X121020941Y-87958572D01*
X121087700Y-87884427D01*
X121147186Y-87847780D01*
X121179850Y-87843400D01*
X121288648Y-87843400D01*
X121418706Y-87815755D01*
X121462061Y-87806540D01*
X121624023Y-87734429D01*
X121683085Y-87691518D01*
X121767453Y-87630222D01*
X121886084Y-87498469D01*
X121920302Y-87439202D01*
X121974729Y-87344931D01*
X122029514Y-87176319D01*
X122048046Y-87000000D01*
X122029514Y-86823681D01*
X121974729Y-86655069D01*
X121930504Y-86578469D01*
X121886084Y-86501530D01*
X121767453Y-86369777D01*
X121624023Y-86265570D01*
X121462060Y-86193459D01*
X121288648Y-86156600D01*
X121288645Y-86156600D01*
X121111355Y-86156600D01*
X121111352Y-86156600D01*
X120937939Y-86193459D01*
X120775976Y-86265570D01*
X120632547Y-86369777D01*
X120594114Y-86412462D01*
X120569722Y-86439553D01*
X120565787Y-86443923D01*
X120506301Y-86480571D01*
X120473637Y-86484951D01*
X120378325Y-86484951D01*
X120311286Y-86465266D01*
X120265531Y-86412462D01*
X120255587Y-86343304D01*
X120284612Y-86279748D01*
X120290644Y-86273270D01*
X120694793Y-85869121D01*
X120756116Y-85835636D01*
X120782474Y-85832802D01*
X120865544Y-85832802D01*
X120995602Y-85805156D01*
X121038957Y-85795942D01*
X121200919Y-85723831D01*
X121260942Y-85680222D01*
X121344349Y-85619624D01*
X121349413Y-85614000D01*
X121462980Y-85487871D01*
X121526118Y-85378511D01*
X121576683Y-85330298D01*
X121645290Y-85317074D01*
X121710155Y-85343042D01*
G37*
G04 #@! TD.AperFunction*
G04 #@! TA.AperFunction,Conductor*
G36*
X127563645Y-85572658D02*
G01*
X127596613Y-85596253D01*
X127748590Y-85748229D01*
X128007581Y-86007220D01*
X128041066Y-86068543D01*
X128043221Y-86081939D01*
X128044554Y-86094622D01*
X128044554Y-86094623D01*
X128063086Y-86270942D01*
X128063087Y-86270945D01*
X128117870Y-86439553D01*
X128206515Y-86593092D01*
X128325146Y-86724845D01*
X128468576Y-86829052D01*
X128630538Y-86901163D01*
X128763280Y-86929378D01*
X128824762Y-86962570D01*
X128858538Y-87023733D01*
X128861499Y-87050668D01*
X128861500Y-88826011D01*
X128841815Y-88893050D01*
X128789012Y-88938805D01*
X128719853Y-88948749D01*
X128656297Y-88919724D01*
X128649819Y-88913692D01*
X126047308Y-86311182D01*
X126013823Y-86249859D01*
X126010989Y-86223501D01*
X126010989Y-86167463D01*
X126030674Y-86100424D01*
X126083478Y-86054669D01*
X126152636Y-86044725D01*
X126185425Y-86054184D01*
X126347939Y-86126541D01*
X126521352Y-86163400D01*
X126521355Y-86163400D01*
X126698648Y-86163400D01*
X126828707Y-86135755D01*
X126872061Y-86126540D01*
X127034023Y-86054429D01*
X127099001Y-86007220D01*
X127177453Y-85950222D01*
X127250226Y-85869400D01*
X127296084Y-85818469D01*
X127384729Y-85664931D01*
X127391003Y-85645618D01*
X127430440Y-85587944D01*
X127494798Y-85560744D01*
X127563645Y-85572658D01*
G37*
G04 #@! TD.AperFunction*
G04 #@! TA.AperFunction,Conductor*
G36*
X120651923Y-61151613D02*
G01*
X120678630Y-61171905D01*
X123555680Y-64048955D01*
X123589165Y-64110278D01*
X123591999Y-64136636D01*
X123592000Y-65907600D01*
X123572315Y-65974639D01*
X123519512Y-66020394D01*
X123468000Y-66031600D01*
X123310852Y-66031600D01*
X123137439Y-66068459D01*
X122975476Y-66140570D01*
X122832046Y-66244777D01*
X122786852Y-66294972D01*
X122727366Y-66331621D01*
X122694702Y-66336000D01*
X118507288Y-66336000D01*
X118440249Y-66316315D01*
X118415138Y-66294972D01*
X118392453Y-66269777D01*
X118249023Y-66165570D01*
X118087060Y-66093459D01*
X117913648Y-66056600D01*
X117913645Y-66056600D01*
X117736355Y-66056600D01*
X117736352Y-66056600D01*
X117562939Y-66093459D01*
X117400976Y-66165570D01*
X117257546Y-66269777D01*
X117138915Y-66401530D01*
X117050270Y-66555069D01*
X116997202Y-66718400D01*
X116995486Y-66723681D01*
X116976954Y-66900000D01*
X116995486Y-67076319D01*
X116995487Y-67076322D01*
X117050270Y-67244930D01*
X117138915Y-67398469D01*
X117257546Y-67530222D01*
X117400976Y-67634429D01*
X117562939Y-67706540D01*
X117736352Y-67743400D01*
X117736355Y-67743400D01*
X117913648Y-67743400D01*
X118046934Y-67715069D01*
X118087061Y-67706540D01*
X118249023Y-67634429D01*
X118380719Y-67538747D01*
X118392453Y-67530222D01*
X118415138Y-67505028D01*
X118474624Y-67468379D01*
X118507288Y-67464000D01*
X122739722Y-67464000D01*
X122806761Y-67483685D01*
X122831872Y-67505028D01*
X122832047Y-67505222D01*
X122975476Y-67609429D01*
X123137439Y-67681540D01*
X123310852Y-67718400D01*
X123468000Y-67718400D01*
X123535039Y-67738085D01*
X123580794Y-67790889D01*
X123592000Y-67842400D01*
X123592000Y-68076562D01*
X123590939Y-68092747D01*
X123587132Y-68121657D01*
X123603964Y-68249506D01*
X123606517Y-68268892D01*
X123621106Y-68304113D01*
X123641308Y-68352884D01*
X123648777Y-68422353D01*
X123617502Y-68484833D01*
X123557413Y-68520485D01*
X123500970Y-68521628D01*
X123488148Y-68518903D01*
X123488145Y-68518903D01*
X123310855Y-68518903D01*
X123310852Y-68518903D01*
X123137439Y-68555762D01*
X122975476Y-68627873D01*
X122832046Y-68732080D01*
X122713415Y-68863833D01*
X122624770Y-69017372D01*
X122572389Y-69178588D01*
X122569986Y-69185984D01*
X122551454Y-69362303D01*
X122569986Y-69538622D01*
X122569987Y-69538625D01*
X122624770Y-69707233D01*
X122713415Y-69860772D01*
X122832046Y-69992525D01*
X122975476Y-70096732D01*
X123137439Y-70168843D01*
X123310852Y-70205703D01*
X123310855Y-70205703D01*
X123488148Y-70205703D01*
X123618206Y-70178057D01*
X123661561Y-70168843D01*
X123823523Y-70096732D01*
X123913461Y-70031389D01*
X123966953Y-69992525D01*
X123969228Y-69989999D01*
X124085584Y-69860772D01*
X124174229Y-69707234D01*
X124229014Y-69538622D01*
X124247546Y-69362303D01*
X124242866Y-69317783D01*
X124255435Y-69249057D01*
X124303166Y-69198033D01*
X124370906Y-69180914D01*
X124437148Y-69203136D01*
X124453868Y-69217143D01*
X126991044Y-71754319D01*
X127024529Y-71815642D01*
X127019545Y-71885334D01*
X126977673Y-71941267D01*
X126912209Y-71965684D01*
X126903363Y-71966000D01*
X119169820Y-71966000D01*
X119102781Y-71946315D01*
X119082139Y-71929681D01*
X117983488Y-70831030D01*
X116877138Y-69724679D01*
X116866442Y-69712483D01*
X116862414Y-69707234D01*
X116848692Y-69689350D01*
X116730875Y-69598947D01*
X116593676Y-69542117D01*
X116483410Y-69527600D01*
X116446442Y-69522733D01*
X116417531Y-69526539D01*
X116401348Y-69527600D01*
X116049652Y-69527600D01*
X116033468Y-69526539D01*
X116004558Y-69522733D01*
X116004557Y-69522733D01*
X115986073Y-69525166D01*
X115967590Y-69527600D01*
X115912456Y-69534858D01*
X115857323Y-69542117D01*
X115720124Y-69598947D01*
X115602307Y-69689349D01*
X115584549Y-69712492D01*
X115573856Y-69724684D01*
X115325181Y-69973358D01*
X115312989Y-69984051D01*
X115289849Y-70001807D01*
X115254698Y-70047616D01*
X115254688Y-70047631D01*
X115199447Y-70119624D01*
X115142617Y-70256824D01*
X115123232Y-70404057D01*
X115127039Y-70432966D01*
X115128100Y-70449152D01*
X115128100Y-72817072D01*
X115127039Y-72833257D01*
X115123232Y-72862167D01*
X115135110Y-72952384D01*
X115142617Y-73009402D01*
X115199447Y-73146601D01*
X115232395Y-73189540D01*
X115232395Y-73189541D01*
X115299788Y-73277370D01*
X115296789Y-73279670D01*
X115321503Y-73313510D01*
X115325665Y-73383256D01*
X115303195Y-73430954D01*
X115296788Y-73439304D01*
X115296786Y-73439307D01*
X115241545Y-73511300D01*
X115184715Y-73648500D01*
X115170784Y-73754312D01*
X115142517Y-73818208D01*
X115084192Y-73856679D01*
X115014328Y-73857510D01*
X114955695Y-73821098D01*
X114837453Y-73689777D01*
X114694023Y-73585570D01*
X114532060Y-73513459D01*
X114358648Y-73476600D01*
X114358645Y-73476600D01*
X114181355Y-73476600D01*
X114181352Y-73476600D01*
X114007939Y-73513459D01*
X113845976Y-73585570D01*
X113702546Y-73689777D01*
X113583915Y-73821530D01*
X113495270Y-73975069D01*
X113440487Y-74143677D01*
X113440486Y-74143681D01*
X113421954Y-74320000D01*
X113439477Y-74486723D01*
X113439745Y-74489265D01*
X113427176Y-74557995D01*
X113379444Y-74609019D01*
X113311703Y-74626137D01*
X113245462Y-74603915D01*
X113228743Y-74589908D01*
X111591219Y-72952384D01*
X111557734Y-72891061D01*
X111554900Y-72864703D01*
X111554900Y-72811040D01*
X111574585Y-72744001D01*
X111627389Y-72698246D01*
X111696547Y-72688302D01*
X111749738Y-72709266D01*
X111786584Y-72734912D01*
X111964137Y-72811106D01*
X112153395Y-72850000D01*
X112600000Y-72850000D01*
X112600000Y-72150000D01*
X113100000Y-72150000D01*
X113100000Y-72850000D01*
X113495033Y-72850000D01*
X113501298Y-72849682D01*
X113642222Y-72835351D01*
X113826569Y-72777511D01*
X113995503Y-72683746D01*
X114142104Y-72557894D01*
X114260368Y-72405109D01*
X114345458Y-72231641D01*
X114366597Y-72150000D01*
X113474624Y-72150000D01*
X113547545Y-72135495D01*
X113630240Y-72080240D01*
X113685495Y-71997545D01*
X113704898Y-71900000D01*
X113685495Y-71802455D01*
X113630240Y-71719760D01*
X113547545Y-71664505D01*
X113474624Y-71650000D01*
X114370471Y-71650000D01*
X114370471Y-71649999D01*
X114307314Y-71479469D01*
X114205109Y-71315498D01*
X114071996Y-71175464D01*
X113913414Y-71065087D01*
X113735862Y-70988893D01*
X113546605Y-70950000D01*
X113232692Y-70950000D01*
X113165653Y-70930315D01*
X113119898Y-70877511D01*
X113109954Y-70808353D01*
X113114760Y-70787685D01*
X113125557Y-70754452D01*
X113128297Y-70746867D01*
X113129352Y-70744221D01*
X113150101Y-70692147D01*
X113152954Y-70674736D01*
X113157392Y-70656472D01*
X113157935Y-70654801D01*
X113161908Y-70642576D01*
X113168111Y-70583551D01*
X113169057Y-70576512D01*
X113179150Y-70514955D01*
X113178381Y-70500778D01*
X113178878Y-70481113D01*
X113180047Y-70470000D01*
X113173483Y-70407555D01*
X113172991Y-70401363D01*
X113169429Y-70335661D01*
X113166553Y-70325304D01*
X113162714Y-70305101D01*
X113161908Y-70297424D01*
X113141459Y-70234489D01*
X113139911Y-70229349D01*
X113133346Y-70205703D01*
X113121393Y-70162649D01*
X113117979Y-70156210D01*
X113109605Y-70136447D01*
X113108286Y-70132389D01*
X113108285Y-70132389D01*
X113073467Y-70072084D01*
X113071318Y-70068200D01*
X113037288Y-70004011D01*
X113037286Y-70004009D01*
X113037286Y-70004008D01*
X113034804Y-70001087D01*
X113021928Y-69982814D01*
X113021522Y-69982111D01*
X112972649Y-69927832D01*
X112970299Y-69925144D01*
X112921045Y-69867157D01*
X112920746Y-69866930D01*
X112903639Y-69851187D01*
X112901307Y-69848597D01*
X112871078Y-69785605D01*
X112870137Y-69752672D01*
X112873046Y-69725000D01*
X112873045Y-69724994D01*
X112874378Y-69712316D01*
X112900963Y-69647701D01*
X112910009Y-69637606D01*
X112927707Y-69619908D01*
X112939897Y-69609219D01*
X112953284Y-69598947D01*
X112963033Y-69591467D01*
X112987938Y-69559010D01*
X113053437Y-69473650D01*
X113110266Y-69336450D01*
X113129651Y-69189217D01*
X113125841Y-69160283D01*
X113124783Y-69144129D01*
X113124783Y-66262999D01*
X113144468Y-66195961D01*
X113197272Y-66150206D01*
X113248783Y-66139000D01*
X114879906Y-66139000D01*
X114896089Y-66140060D01*
X114925000Y-66143867D01*
X115072234Y-66124483D01*
X115209433Y-66067653D01*
X115297668Y-65999949D01*
X115297668Y-65999948D01*
X115307061Y-65992740D01*
X115327250Y-65977250D01*
X115345003Y-65954112D01*
X115355690Y-65941925D01*
X119942897Y-61354719D01*
X120004220Y-61321234D01*
X120030578Y-61318400D01*
X120113648Y-61318400D01*
X120243706Y-61290754D01*
X120287061Y-61281540D01*
X120352051Y-61252604D01*
X120449020Y-61209431D01*
X120459833Y-61201575D01*
X120518065Y-61159267D01*
X120583869Y-61135788D01*
X120651923Y-61151613D01*
G37*
G04 #@! TD.AperFunction*
G04 #@! TA.AperFunction,Conductor*
G36*
X127189039Y-73113685D02*
G01*
X127234794Y-73166489D01*
X127246000Y-73218000D01*
X127245999Y-73834362D01*
X127226314Y-73901402D01*
X127209680Y-73922043D01*
X126519000Y-74612723D01*
X126457677Y-74646208D01*
X126387985Y-74641224D01*
X126332052Y-74599352D01*
X126307635Y-74533888D01*
X126313387Y-74486729D01*
X126339514Y-74406319D01*
X126358046Y-74230000D01*
X126339514Y-74053681D01*
X126284729Y-73885069D01*
X126268338Y-73856679D01*
X126196084Y-73731530D01*
X126077453Y-73599777D01*
X125934023Y-73495570D01*
X125772060Y-73423459D01*
X125598648Y-73386600D01*
X125598645Y-73386600D01*
X125515579Y-73386600D01*
X125448540Y-73366915D01*
X125427898Y-73350281D01*
X125383298Y-73305681D01*
X125349813Y-73244358D01*
X125354797Y-73174666D01*
X125396669Y-73118733D01*
X125462133Y-73094316D01*
X125470979Y-73094000D01*
X127122000Y-73094000D01*
X127189039Y-73113685D01*
G37*
G04 #@! TD.AperFunction*
G04 #@! TA.AperFunction,Conductor*
G36*
X129499314Y-55399324D02*
G01*
X129555247Y-55441196D01*
X129557550Y-55444375D01*
X129681505Y-55621401D01*
X129848599Y-55788495D01*
X130034160Y-55918426D01*
X130077783Y-55973002D01*
X130084976Y-56042501D01*
X130053454Y-56104855D01*
X130034158Y-56121575D01*
X129851463Y-56249500D01*
X129848595Y-56251508D01*
X129681505Y-56418598D01*
X129545965Y-56612170D01*
X129446097Y-56826336D01*
X129384936Y-57054592D01*
X129364340Y-57290000D01*
X129384936Y-57525407D01*
X129417935Y-57648561D01*
X129446097Y-57753663D01*
X129545965Y-57967830D01*
X129681505Y-58161401D01*
X129848599Y-58328495D01*
X130034160Y-58458426D01*
X130077783Y-58513002D01*
X130084976Y-58582501D01*
X130053454Y-58644855D01*
X130034158Y-58661575D01*
X129898148Y-58756811D01*
X129848595Y-58791508D01*
X129681505Y-58958598D01*
X129545965Y-59152170D01*
X129446097Y-59366336D01*
X129384936Y-59594592D01*
X129364340Y-59829999D01*
X129384936Y-60065407D01*
X129414655Y-60176319D01*
X129446097Y-60293663D01*
X129545965Y-60507830D01*
X129681505Y-60701401D01*
X129848599Y-60868495D01*
X130034596Y-60998732D01*
X130078219Y-61053307D01*
X130085412Y-61122806D01*
X130053890Y-61185160D01*
X130034595Y-61201880D01*
X129848919Y-61331892D01*
X129681890Y-61498921D01*
X129546400Y-61692421D01*
X129446569Y-61906507D01*
X129389364Y-62119999D01*
X129389364Y-62120000D01*
X130286314Y-62120000D01*
X130260507Y-62160156D01*
X130220000Y-62298111D01*
X130220000Y-62441889D01*
X130260507Y-62579844D01*
X130286314Y-62620000D01*
X129389364Y-62620000D01*
X129446569Y-62833492D01*
X129546399Y-63047576D01*
X129681893Y-63241081D01*
X129848918Y-63408106D01*
X130034595Y-63538119D01*
X130078219Y-63592696D01*
X130085412Y-63662195D01*
X130053890Y-63724549D01*
X130034595Y-63741269D01*
X129848595Y-63871508D01*
X129681505Y-64038598D01*
X129545965Y-64232170D01*
X129446862Y-64444696D01*
X129400689Y-64497135D01*
X129333496Y-64516287D01*
X129266615Y-64496071D01*
X129246799Y-64479972D01*
X125821908Y-61055081D01*
X125788423Y-60993758D01*
X125793407Y-60924066D01*
X125835279Y-60868133D01*
X125900743Y-60843716D01*
X125909589Y-60843400D01*
X126013648Y-60843400D01*
X126143707Y-60815754D01*
X126187061Y-60806540D01*
X126349023Y-60734429D01*
X126394481Y-60701402D01*
X126492453Y-60630222D01*
X126611084Y-60498469D01*
X126626241Y-60472216D01*
X126699729Y-60344931D01*
X126754514Y-60176319D01*
X126773046Y-60000000D01*
X126754514Y-59823681D01*
X126699729Y-59655069D01*
X126653225Y-59574521D01*
X126611086Y-59501533D01*
X126596513Y-59485349D01*
X126520847Y-59401313D01*
X126490619Y-59338324D01*
X126488999Y-59318354D01*
X126488999Y-58358486D01*
X126508684Y-58291448D01*
X126525313Y-58270811D01*
X129368301Y-55427823D01*
X129429622Y-55394340D01*
X129499314Y-55399324D01*
G37*
G04 #@! TD.AperFunction*
M02*
