G04 #@! TF.GenerationSoftware,KiCad,Pcbnew,7.0.2-0*
G04 #@! TF.CreationDate,2024-01-15T23:03:40+01:00*
G04 #@! TF.ProjectId,network_player,6e657477-6f72-46b5-9f70-6c617965722e,rev?*
G04 #@! TF.SameCoordinates,Original*
G04 #@! TF.FileFunction,Soldermask,Bot*
G04 #@! TF.FilePolarity,Negative*
%FSLAX46Y46*%
G04 Gerber Fmt 4.6, Leading zero omitted, Abs format (unit mm)*
G04 Created by KiCad (PCBNEW 7.0.2-0) date 2024-01-15 23:03:40*
%MOMM*%
%LPD*%
G01*
G04 APERTURE LIST*
G04 APERTURE END LIST*
G36*
X109046080Y-103988584D02*
G01*
X109102869Y-103988584D01*
X109165460Y-103999028D01*
X109225825Y-104004310D01*
X109273230Y-104017012D01*
X109322759Y-104025277D01*
X109389196Y-104048084D01*
X109453127Y-104065215D01*
X109492290Y-104083477D01*
X109533621Y-104097666D01*
X109601530Y-104134416D01*
X109666400Y-104164666D01*
X109696937Y-104186048D01*
X109729682Y-104203769D01*
X109796336Y-104255648D01*
X109859163Y-104299640D01*
X109881306Y-104321783D01*
X109905613Y-104340702D01*
X109968058Y-104408535D01*
X110025560Y-104466037D01*
X110040072Y-104486763D01*
X110056603Y-104504720D01*
X110111755Y-104589137D01*
X110160534Y-104658800D01*
X110168675Y-104676259D01*
X110178536Y-104691352D01*
X110223286Y-104793371D01*
X110259985Y-104872073D01*
X110263403Y-104884830D01*
X110268087Y-104895508D01*
X110299452Y-105019367D01*
X110320890Y-105099375D01*
X110321511Y-105106478D01*
X110322816Y-105111630D01*
X110338109Y-105296188D01*
X110341400Y-105333800D01*
X110338109Y-105371414D01*
X110322816Y-105555969D01*
X110321511Y-105561119D01*
X110320890Y-105568225D01*
X110299447Y-105648250D01*
X110268087Y-105772091D01*
X110263403Y-105782767D01*
X110259985Y-105795527D01*
X110223278Y-105874243D01*
X110178536Y-105976247D01*
X110168677Y-105991337D01*
X110160534Y-106008800D01*
X110111745Y-106078476D01*
X110056603Y-106162879D01*
X110040075Y-106180832D01*
X110025560Y-106201563D01*
X109968046Y-106259076D01*
X109905613Y-106326897D01*
X109881310Y-106345812D01*
X109859163Y-106367960D01*
X109796323Y-106411960D01*
X109729682Y-106463830D01*
X109696943Y-106481547D01*
X109666400Y-106502934D01*
X109601516Y-106533189D01*
X109533621Y-106569933D01*
X109492298Y-106584119D01*
X109453127Y-106602385D01*
X109389182Y-106619518D01*
X109322759Y-106642322D01*
X109273238Y-106650585D01*
X109225825Y-106663290D01*
X109165457Y-106668571D01*
X109102869Y-106679016D01*
X109046080Y-106679016D01*
X108991400Y-106683800D01*
X108936720Y-106679016D01*
X108879931Y-106679016D01*
X108817342Y-106668571D01*
X108756975Y-106663290D01*
X108709563Y-106650586D01*
X108660040Y-106642322D01*
X108593612Y-106619517D01*
X108529673Y-106602385D01*
X108490504Y-106584120D01*
X108449178Y-106569933D01*
X108381275Y-106533186D01*
X108316400Y-106502934D01*
X108285859Y-106481549D01*
X108253117Y-106463830D01*
X108186466Y-106411953D01*
X108123637Y-106367960D01*
X108101492Y-106345815D01*
X108077186Y-106326897D01*
X108014740Y-106259063D01*
X107957240Y-106201563D01*
X107942727Y-106180836D01*
X107926196Y-106162879D01*
X107871039Y-106078455D01*
X107822266Y-106008800D01*
X107814125Y-105991342D01*
X107804263Y-105976247D01*
X107759504Y-105874207D01*
X107722815Y-105795527D01*
X107719397Y-105782773D01*
X107714712Y-105772091D01*
X107683334Y-105648182D01*
X107661910Y-105568225D01*
X107661288Y-105561125D01*
X107659983Y-105555969D01*
X107644672Y-105371198D01*
X107641400Y-105333800D01*
X107644671Y-105296404D01*
X107659983Y-105111630D01*
X107661289Y-105106472D01*
X107661910Y-105099375D01*
X107683329Y-105019435D01*
X107714712Y-104895508D01*
X107719398Y-104884824D01*
X107722815Y-104872073D01*
X107759497Y-104793408D01*
X107804263Y-104691352D01*
X107814127Y-104676253D01*
X107822266Y-104658800D01*
X107871029Y-104589158D01*
X107926196Y-104504720D01*
X107942730Y-104486759D01*
X107957240Y-104466037D01*
X108014729Y-104408547D01*
X108077186Y-104340702D01*
X108101497Y-104321779D01*
X108123637Y-104299640D01*
X108186453Y-104255655D01*
X108253117Y-104203769D01*
X108285866Y-104186046D01*
X108316400Y-104164666D01*
X108381262Y-104134420D01*
X108449178Y-104097666D01*
X108490512Y-104083475D01*
X108529673Y-104065215D01*
X108593599Y-104048086D01*
X108660040Y-104025277D01*
X108709570Y-104017011D01*
X108756975Y-104004310D01*
X108817338Y-103999028D01*
X108879931Y-103988584D01*
X108936720Y-103988584D01*
X108991400Y-103983800D01*
X109046080Y-103988584D01*
G37*
G36*
X132058480Y-103988584D02*
G01*
X132115269Y-103988584D01*
X132177860Y-103999028D01*
X132238225Y-104004310D01*
X132285630Y-104017012D01*
X132335159Y-104025277D01*
X132401596Y-104048084D01*
X132465527Y-104065215D01*
X132504690Y-104083477D01*
X132546021Y-104097666D01*
X132613930Y-104134416D01*
X132678800Y-104164666D01*
X132709337Y-104186048D01*
X132742082Y-104203769D01*
X132808736Y-104255648D01*
X132871563Y-104299640D01*
X132893706Y-104321783D01*
X132918013Y-104340702D01*
X132980458Y-104408535D01*
X133037960Y-104466037D01*
X133052472Y-104486763D01*
X133069003Y-104504720D01*
X133124155Y-104589137D01*
X133172934Y-104658800D01*
X133181075Y-104676259D01*
X133190936Y-104691352D01*
X133235686Y-104793371D01*
X133272385Y-104872073D01*
X133275803Y-104884830D01*
X133280487Y-104895508D01*
X133311852Y-105019367D01*
X133333290Y-105099375D01*
X133333911Y-105106478D01*
X133335216Y-105111630D01*
X133350509Y-105296188D01*
X133353800Y-105333800D01*
X133350509Y-105371414D01*
X133335216Y-105555969D01*
X133333911Y-105561119D01*
X133333290Y-105568225D01*
X133311847Y-105648250D01*
X133280487Y-105772091D01*
X133275803Y-105782767D01*
X133272385Y-105795527D01*
X133235678Y-105874243D01*
X133190936Y-105976247D01*
X133181077Y-105991337D01*
X133172934Y-106008800D01*
X133124145Y-106078476D01*
X133069003Y-106162879D01*
X133052475Y-106180832D01*
X133037960Y-106201563D01*
X132980446Y-106259076D01*
X132918013Y-106326897D01*
X132893710Y-106345812D01*
X132871563Y-106367960D01*
X132808723Y-106411960D01*
X132742082Y-106463830D01*
X132709343Y-106481547D01*
X132678800Y-106502934D01*
X132613916Y-106533189D01*
X132546021Y-106569933D01*
X132504698Y-106584119D01*
X132465527Y-106602385D01*
X132401582Y-106619518D01*
X132335159Y-106642322D01*
X132285638Y-106650585D01*
X132238225Y-106663290D01*
X132177857Y-106668571D01*
X132115269Y-106679016D01*
X132058480Y-106679016D01*
X132003800Y-106683800D01*
X131949120Y-106679016D01*
X131892331Y-106679016D01*
X131829742Y-106668571D01*
X131769375Y-106663290D01*
X131721963Y-106650586D01*
X131672440Y-106642322D01*
X131606012Y-106619517D01*
X131542073Y-106602385D01*
X131502904Y-106584120D01*
X131461578Y-106569933D01*
X131393675Y-106533186D01*
X131328800Y-106502934D01*
X131298259Y-106481549D01*
X131265517Y-106463830D01*
X131198866Y-106411953D01*
X131136037Y-106367960D01*
X131113892Y-106345815D01*
X131089586Y-106326897D01*
X131027140Y-106259063D01*
X130969640Y-106201563D01*
X130955127Y-106180836D01*
X130938596Y-106162879D01*
X130883439Y-106078455D01*
X130834666Y-106008800D01*
X130826525Y-105991342D01*
X130816663Y-105976247D01*
X130771904Y-105874207D01*
X130735215Y-105795527D01*
X130731797Y-105782773D01*
X130727112Y-105772091D01*
X130695734Y-105648182D01*
X130674310Y-105568225D01*
X130673688Y-105561125D01*
X130672383Y-105555969D01*
X130657072Y-105371198D01*
X130653800Y-105333800D01*
X130657071Y-105296404D01*
X130672383Y-105111630D01*
X130673689Y-105106472D01*
X130674310Y-105099375D01*
X130695729Y-105019435D01*
X130727112Y-104895508D01*
X130731798Y-104884824D01*
X130735215Y-104872073D01*
X130771897Y-104793408D01*
X130816663Y-104691352D01*
X130826527Y-104676253D01*
X130834666Y-104658800D01*
X130883429Y-104589158D01*
X130938596Y-104504720D01*
X130955130Y-104486759D01*
X130969640Y-104466037D01*
X131027129Y-104408547D01*
X131089586Y-104340702D01*
X131113897Y-104321779D01*
X131136037Y-104299640D01*
X131198853Y-104255655D01*
X131265517Y-104203769D01*
X131298266Y-104186046D01*
X131328800Y-104164666D01*
X131393662Y-104134420D01*
X131461578Y-104097666D01*
X131502912Y-104083475D01*
X131542073Y-104065215D01*
X131605999Y-104048086D01*
X131672440Y-104025277D01*
X131721970Y-104017011D01*
X131769375Y-104004310D01*
X131829738Y-103999028D01*
X131892331Y-103988584D01*
X131949120Y-103988584D01*
X132003800Y-103983800D01*
X132058480Y-103988584D01*
G37*
G36*
X130982664Y-99661602D02*
G01*
X131145000Y-99733878D01*
X131288761Y-99838327D01*
X131407664Y-99970383D01*
X131496514Y-100124274D01*
X131551425Y-100293275D01*
X131570000Y-100470000D01*
X131551425Y-100646725D01*
X131496514Y-100815726D01*
X131407664Y-100969617D01*
X131288761Y-101101673D01*
X131145000Y-101206122D01*
X130982664Y-101278398D01*
X130808849Y-101315344D01*
X130631151Y-101315344D01*
X130457336Y-101278398D01*
X130295000Y-101206122D01*
X130151239Y-101101673D01*
X130032336Y-100969617D01*
X129943486Y-100815726D01*
X129888575Y-100646725D01*
X129870000Y-100470000D01*
X129888575Y-100293275D01*
X129943486Y-100124274D01*
X130032336Y-99970383D01*
X130151239Y-99838327D01*
X130295000Y-99733878D01*
X130457336Y-99661602D01*
X130631151Y-99624656D01*
X130808849Y-99624656D01*
X130982664Y-99661602D01*
G37*
G36*
X133522664Y-99661602D02*
G01*
X133685000Y-99733878D01*
X133828761Y-99838327D01*
X133947664Y-99970383D01*
X134036514Y-100124274D01*
X134091425Y-100293275D01*
X134110000Y-100470000D01*
X134091425Y-100646725D01*
X134036514Y-100815726D01*
X133947664Y-100969617D01*
X133828761Y-101101673D01*
X133685000Y-101206122D01*
X133522664Y-101278398D01*
X133348849Y-101315344D01*
X133171151Y-101315344D01*
X132997336Y-101278398D01*
X132835000Y-101206122D01*
X132691239Y-101101673D01*
X132572336Y-100969617D01*
X132483486Y-100815726D01*
X132428575Y-100646725D01*
X132410000Y-100470000D01*
X132428575Y-100293275D01*
X132483486Y-100124274D01*
X132572336Y-99970383D01*
X132691239Y-99838327D01*
X132835000Y-99733878D01*
X132997336Y-99661602D01*
X133171151Y-99624656D01*
X133348849Y-99624656D01*
X133522664Y-99661602D01*
G37*
G36*
X130982664Y-97121602D02*
G01*
X131145000Y-97193878D01*
X131288761Y-97298327D01*
X131407664Y-97430383D01*
X131496514Y-97584274D01*
X131551425Y-97753275D01*
X131570000Y-97930000D01*
X131551425Y-98106725D01*
X131496514Y-98275726D01*
X131407664Y-98429617D01*
X131288761Y-98561673D01*
X131145000Y-98666122D01*
X130982664Y-98738398D01*
X130808849Y-98775344D01*
X130631151Y-98775344D01*
X130457336Y-98738398D01*
X130295000Y-98666122D01*
X130151239Y-98561673D01*
X130032336Y-98429617D01*
X129943486Y-98275726D01*
X129888575Y-98106725D01*
X129870000Y-97930000D01*
X129888575Y-97753275D01*
X129943486Y-97584274D01*
X130032336Y-97430383D01*
X130151239Y-97298327D01*
X130295000Y-97193878D01*
X130457336Y-97121602D01*
X130631151Y-97084656D01*
X130808849Y-97084656D01*
X130982664Y-97121602D01*
G37*
G36*
X133522664Y-97121602D02*
G01*
X133685000Y-97193878D01*
X133828761Y-97298327D01*
X133947664Y-97430383D01*
X134036514Y-97584274D01*
X134091425Y-97753275D01*
X134110000Y-97930000D01*
X134091425Y-98106725D01*
X134036514Y-98275726D01*
X133947664Y-98429617D01*
X133828761Y-98561673D01*
X133685000Y-98666122D01*
X133522664Y-98738398D01*
X133348849Y-98775344D01*
X133171151Y-98775344D01*
X132997336Y-98738398D01*
X132835000Y-98666122D01*
X132691239Y-98561673D01*
X132572336Y-98429617D01*
X132483486Y-98275726D01*
X132428575Y-98106725D01*
X132410000Y-97930000D01*
X132428575Y-97753275D01*
X132483486Y-97584274D01*
X132572336Y-97430383D01*
X132691239Y-97298327D01*
X132835000Y-97193878D01*
X132997336Y-97121602D01*
X133171151Y-97084656D01*
X133348849Y-97084656D01*
X133522664Y-97121602D01*
G37*
G36*
X130982664Y-94581602D02*
G01*
X131145000Y-94653878D01*
X131288761Y-94758327D01*
X131407664Y-94890383D01*
X131496514Y-95044274D01*
X131551425Y-95213275D01*
X131570000Y-95390000D01*
X131551425Y-95566725D01*
X131496514Y-95735726D01*
X131407664Y-95889617D01*
X131288761Y-96021673D01*
X131145000Y-96126122D01*
X130982664Y-96198398D01*
X130808849Y-96235344D01*
X130631151Y-96235344D01*
X130457336Y-96198398D01*
X130295000Y-96126122D01*
X130151239Y-96021673D01*
X130032336Y-95889617D01*
X129943486Y-95735726D01*
X129888575Y-95566725D01*
X129870000Y-95390000D01*
X129888575Y-95213275D01*
X129943486Y-95044274D01*
X130032336Y-94890383D01*
X130151239Y-94758327D01*
X130295000Y-94653878D01*
X130457336Y-94581602D01*
X130631151Y-94544656D01*
X130808849Y-94544656D01*
X130982664Y-94581602D01*
G37*
G36*
X133522664Y-94581602D02*
G01*
X133685000Y-94653878D01*
X133828761Y-94758327D01*
X133947664Y-94890383D01*
X134036514Y-95044274D01*
X134091425Y-95213275D01*
X134110000Y-95390000D01*
X134091425Y-95566725D01*
X134036514Y-95735726D01*
X133947664Y-95889617D01*
X133828761Y-96021673D01*
X133685000Y-96126122D01*
X133522664Y-96198398D01*
X133348849Y-96235344D01*
X133171151Y-96235344D01*
X132997336Y-96198398D01*
X132835000Y-96126122D01*
X132691239Y-96021673D01*
X132572336Y-95889617D01*
X132483486Y-95735726D01*
X132428575Y-95566725D01*
X132410000Y-95390000D01*
X132428575Y-95213275D01*
X132483486Y-95044274D01*
X132572336Y-94890383D01*
X132691239Y-94758327D01*
X132835000Y-94653878D01*
X132997336Y-94581602D01*
X133171151Y-94544656D01*
X133348849Y-94544656D01*
X133522664Y-94581602D01*
G37*
G36*
X130982664Y-92041602D02*
G01*
X131145000Y-92113878D01*
X131288761Y-92218327D01*
X131407664Y-92350383D01*
X131496514Y-92504274D01*
X131551425Y-92673275D01*
X131570000Y-92850000D01*
X131551425Y-93026725D01*
X131496514Y-93195726D01*
X131407664Y-93349617D01*
X131288761Y-93481673D01*
X131145000Y-93586122D01*
X130982664Y-93658398D01*
X130808849Y-93695344D01*
X130631151Y-93695344D01*
X130457336Y-93658398D01*
X130295000Y-93586122D01*
X130151239Y-93481673D01*
X130032336Y-93349617D01*
X129943486Y-93195726D01*
X129888575Y-93026725D01*
X129870000Y-92850000D01*
X129888575Y-92673275D01*
X129943486Y-92504274D01*
X130032336Y-92350383D01*
X130151239Y-92218327D01*
X130295000Y-92113878D01*
X130457336Y-92041602D01*
X130631151Y-92004656D01*
X130808849Y-92004656D01*
X130982664Y-92041602D01*
G37*
G36*
X133522664Y-92041602D02*
G01*
X133685000Y-92113878D01*
X133828761Y-92218327D01*
X133947664Y-92350383D01*
X134036514Y-92504274D01*
X134091425Y-92673275D01*
X134110000Y-92850000D01*
X134091425Y-93026725D01*
X134036514Y-93195726D01*
X133947664Y-93349617D01*
X133828761Y-93481673D01*
X133685000Y-93586122D01*
X133522664Y-93658398D01*
X133348849Y-93695344D01*
X133171151Y-93695344D01*
X132997336Y-93658398D01*
X132835000Y-93586122D01*
X132691239Y-93481673D01*
X132572336Y-93349617D01*
X132483486Y-93195726D01*
X132428575Y-93026725D01*
X132410000Y-92850000D01*
X132428575Y-92673275D01*
X132483486Y-92504274D01*
X132572336Y-92350383D01*
X132691239Y-92218327D01*
X132835000Y-92113878D01*
X132997336Y-92041602D01*
X133171151Y-92004656D01*
X133348849Y-92004656D01*
X133522664Y-92041602D01*
G37*
G36*
X130982664Y-89501602D02*
G01*
X131145000Y-89573878D01*
X131288761Y-89678327D01*
X131407664Y-89810383D01*
X131496514Y-89964274D01*
X131551425Y-90133275D01*
X131570000Y-90310000D01*
X131551425Y-90486725D01*
X131496514Y-90655726D01*
X131407664Y-90809617D01*
X131288761Y-90941673D01*
X131145000Y-91046122D01*
X130982664Y-91118398D01*
X130808849Y-91155344D01*
X130631151Y-91155344D01*
X130457336Y-91118398D01*
X130295000Y-91046122D01*
X130151239Y-90941673D01*
X130032336Y-90809617D01*
X129943486Y-90655726D01*
X129888575Y-90486725D01*
X129870000Y-90310000D01*
X129888575Y-90133275D01*
X129943486Y-89964274D01*
X130032336Y-89810383D01*
X130151239Y-89678327D01*
X130295000Y-89573878D01*
X130457336Y-89501602D01*
X130631151Y-89464656D01*
X130808849Y-89464656D01*
X130982664Y-89501602D01*
G37*
G36*
X133522664Y-89501602D02*
G01*
X133685000Y-89573878D01*
X133828761Y-89678327D01*
X133947664Y-89810383D01*
X134036514Y-89964274D01*
X134091425Y-90133275D01*
X134110000Y-90310000D01*
X134091425Y-90486725D01*
X134036514Y-90655726D01*
X133947664Y-90809617D01*
X133828761Y-90941673D01*
X133685000Y-91046122D01*
X133522664Y-91118398D01*
X133348849Y-91155344D01*
X133171151Y-91155344D01*
X132997336Y-91118398D01*
X132835000Y-91046122D01*
X132691239Y-90941673D01*
X132572336Y-90809617D01*
X132483486Y-90655726D01*
X132428575Y-90486725D01*
X132410000Y-90310000D01*
X132428575Y-90133275D01*
X132483486Y-89964274D01*
X132572336Y-89810383D01*
X132691239Y-89678327D01*
X132835000Y-89573878D01*
X132997336Y-89501602D01*
X133171151Y-89464656D01*
X133348849Y-89464656D01*
X133522664Y-89501602D01*
G37*
G36*
X130982664Y-86961602D02*
G01*
X131145000Y-87033878D01*
X131288761Y-87138327D01*
X131407664Y-87270383D01*
X131496514Y-87424274D01*
X131551425Y-87593275D01*
X131570000Y-87770000D01*
X131551425Y-87946725D01*
X131496514Y-88115726D01*
X131407664Y-88269617D01*
X131288761Y-88401673D01*
X131145000Y-88506122D01*
X130982664Y-88578398D01*
X130808849Y-88615344D01*
X130631151Y-88615344D01*
X130457336Y-88578398D01*
X130295000Y-88506122D01*
X130151239Y-88401673D01*
X130032336Y-88269617D01*
X129943486Y-88115726D01*
X129888575Y-87946725D01*
X129870000Y-87770000D01*
X129888575Y-87593275D01*
X129943486Y-87424274D01*
X130032336Y-87270383D01*
X130151239Y-87138327D01*
X130295000Y-87033878D01*
X130457336Y-86961602D01*
X130631151Y-86924656D01*
X130808849Y-86924656D01*
X130982664Y-86961602D01*
G37*
G36*
X133522664Y-86961602D02*
G01*
X133685000Y-87033878D01*
X133828761Y-87138327D01*
X133947664Y-87270383D01*
X134036514Y-87424274D01*
X134091425Y-87593275D01*
X134110000Y-87770000D01*
X134091425Y-87946725D01*
X134036514Y-88115726D01*
X133947664Y-88269617D01*
X133828761Y-88401673D01*
X133685000Y-88506122D01*
X133522664Y-88578398D01*
X133348849Y-88615344D01*
X133171151Y-88615344D01*
X132997336Y-88578398D01*
X132835000Y-88506122D01*
X132691239Y-88401673D01*
X132572336Y-88269617D01*
X132483486Y-88115726D01*
X132428575Y-87946725D01*
X132410000Y-87770000D01*
X132428575Y-87593275D01*
X132483486Y-87424274D01*
X132572336Y-87270383D01*
X132691239Y-87138327D01*
X132835000Y-87033878D01*
X132997336Y-86961602D01*
X133171151Y-86924656D01*
X133348849Y-86924656D01*
X133522664Y-86961602D01*
G37*
G36*
X130982664Y-84421602D02*
G01*
X131145000Y-84493878D01*
X131288761Y-84598327D01*
X131407664Y-84730383D01*
X131496514Y-84884274D01*
X131551425Y-85053275D01*
X131570000Y-85230000D01*
X131551425Y-85406725D01*
X131496514Y-85575726D01*
X131407664Y-85729617D01*
X131288761Y-85861673D01*
X131145000Y-85966122D01*
X130982664Y-86038398D01*
X130808849Y-86075344D01*
X130631151Y-86075344D01*
X130457336Y-86038398D01*
X130295000Y-85966122D01*
X130151239Y-85861673D01*
X130032336Y-85729617D01*
X129943486Y-85575726D01*
X129888575Y-85406725D01*
X129870000Y-85230000D01*
X129888575Y-85053275D01*
X129943486Y-84884274D01*
X130032336Y-84730383D01*
X130151239Y-84598327D01*
X130295000Y-84493878D01*
X130457336Y-84421602D01*
X130631151Y-84384656D01*
X130808849Y-84384656D01*
X130982664Y-84421602D01*
G37*
G36*
X133522664Y-84421602D02*
G01*
X133685000Y-84493878D01*
X133828761Y-84598327D01*
X133947664Y-84730383D01*
X134036514Y-84884274D01*
X134091425Y-85053275D01*
X134110000Y-85230000D01*
X134091425Y-85406725D01*
X134036514Y-85575726D01*
X133947664Y-85729617D01*
X133828761Y-85861673D01*
X133685000Y-85966122D01*
X133522664Y-86038398D01*
X133348849Y-86075344D01*
X133171151Y-86075344D01*
X132997336Y-86038398D01*
X132835000Y-85966122D01*
X132691239Y-85861673D01*
X132572336Y-85729617D01*
X132483486Y-85575726D01*
X132428575Y-85406725D01*
X132410000Y-85230000D01*
X132428575Y-85053275D01*
X132483486Y-84884274D01*
X132572336Y-84730383D01*
X132691239Y-84598327D01*
X132835000Y-84493878D01*
X132997336Y-84421602D01*
X133171151Y-84384656D01*
X133348849Y-84384656D01*
X133522664Y-84421602D01*
G37*
G36*
X130982664Y-81881602D02*
G01*
X131145000Y-81953878D01*
X131288761Y-82058327D01*
X131407664Y-82190383D01*
X131496514Y-82344274D01*
X131551425Y-82513275D01*
X131570000Y-82690000D01*
X131551425Y-82866725D01*
X131496514Y-83035726D01*
X131407664Y-83189617D01*
X131288761Y-83321673D01*
X131145000Y-83426122D01*
X130982664Y-83498398D01*
X130808849Y-83535344D01*
X130631151Y-83535344D01*
X130457336Y-83498398D01*
X130295000Y-83426122D01*
X130151239Y-83321673D01*
X130032336Y-83189617D01*
X129943486Y-83035726D01*
X129888575Y-82866725D01*
X129870000Y-82690000D01*
X129888575Y-82513275D01*
X129943486Y-82344274D01*
X130032336Y-82190383D01*
X130151239Y-82058327D01*
X130295000Y-81953878D01*
X130457336Y-81881602D01*
X130631151Y-81844656D01*
X130808849Y-81844656D01*
X130982664Y-81881602D01*
G37*
G36*
X133522664Y-81881602D02*
G01*
X133685000Y-81953878D01*
X133828761Y-82058327D01*
X133947664Y-82190383D01*
X134036514Y-82344274D01*
X134091425Y-82513275D01*
X134110000Y-82690000D01*
X134091425Y-82866725D01*
X134036514Y-83035726D01*
X133947664Y-83189617D01*
X133828761Y-83321673D01*
X133685000Y-83426122D01*
X133522664Y-83498398D01*
X133348849Y-83535344D01*
X133171151Y-83535344D01*
X132997336Y-83498398D01*
X132835000Y-83426122D01*
X132691239Y-83321673D01*
X132572336Y-83189617D01*
X132483486Y-83035726D01*
X132428575Y-82866725D01*
X132410000Y-82690000D01*
X132428575Y-82513275D01*
X132483486Y-82344274D01*
X132572336Y-82190383D01*
X132691239Y-82058327D01*
X132835000Y-81953878D01*
X132997336Y-81881602D01*
X133171151Y-81844656D01*
X133348849Y-81844656D01*
X133522664Y-81881602D01*
G37*
G36*
X130982664Y-79341602D02*
G01*
X131145000Y-79413878D01*
X131288761Y-79518327D01*
X131407664Y-79650383D01*
X131496514Y-79804274D01*
X131551425Y-79973275D01*
X131570000Y-80150000D01*
X131551425Y-80326725D01*
X131496514Y-80495726D01*
X131407664Y-80649617D01*
X131288761Y-80781673D01*
X131145000Y-80886122D01*
X130982664Y-80958398D01*
X130808849Y-80995344D01*
X130631151Y-80995344D01*
X130457336Y-80958398D01*
X130295000Y-80886122D01*
X130151239Y-80781673D01*
X130032336Y-80649617D01*
X129943486Y-80495726D01*
X129888575Y-80326725D01*
X129870000Y-80150000D01*
X129888575Y-79973275D01*
X129943486Y-79804274D01*
X130032336Y-79650383D01*
X130151239Y-79518327D01*
X130295000Y-79413878D01*
X130457336Y-79341602D01*
X130631151Y-79304656D01*
X130808849Y-79304656D01*
X130982664Y-79341602D01*
G37*
G36*
X133522664Y-79341602D02*
G01*
X133685000Y-79413878D01*
X133828761Y-79518327D01*
X133947664Y-79650383D01*
X134036514Y-79804274D01*
X134091425Y-79973275D01*
X134110000Y-80150000D01*
X134091425Y-80326725D01*
X134036514Y-80495726D01*
X133947664Y-80649617D01*
X133828761Y-80781673D01*
X133685000Y-80886122D01*
X133522664Y-80958398D01*
X133348849Y-80995344D01*
X133171151Y-80995344D01*
X132997336Y-80958398D01*
X132835000Y-80886122D01*
X132691239Y-80781673D01*
X132572336Y-80649617D01*
X132483486Y-80495726D01*
X132428575Y-80326725D01*
X132410000Y-80150000D01*
X132428575Y-79973275D01*
X132483486Y-79804274D01*
X132572336Y-79650383D01*
X132691239Y-79518327D01*
X132835000Y-79413878D01*
X132997336Y-79341602D01*
X133171151Y-79304656D01*
X133348849Y-79304656D01*
X133522664Y-79341602D01*
G37*
G36*
X130982664Y-76801602D02*
G01*
X131145000Y-76873878D01*
X131288761Y-76978327D01*
X131407664Y-77110383D01*
X131496514Y-77264274D01*
X131551425Y-77433275D01*
X131570000Y-77610000D01*
X131551425Y-77786725D01*
X131496514Y-77955726D01*
X131407664Y-78109617D01*
X131288761Y-78241673D01*
X131145000Y-78346122D01*
X130982664Y-78418398D01*
X130808849Y-78455344D01*
X130631151Y-78455344D01*
X130457336Y-78418398D01*
X130295000Y-78346122D01*
X130151239Y-78241673D01*
X130032336Y-78109617D01*
X129943486Y-77955726D01*
X129888575Y-77786725D01*
X129870000Y-77610000D01*
X129888575Y-77433275D01*
X129943486Y-77264274D01*
X130032336Y-77110383D01*
X130151239Y-76978327D01*
X130295000Y-76873878D01*
X130457336Y-76801602D01*
X130631151Y-76764656D01*
X130808849Y-76764656D01*
X130982664Y-76801602D01*
G37*
G36*
X133522664Y-76801602D02*
G01*
X133685000Y-76873878D01*
X133828761Y-76978327D01*
X133947664Y-77110383D01*
X134036514Y-77264274D01*
X134091425Y-77433275D01*
X134110000Y-77610000D01*
X134091425Y-77786725D01*
X134036514Y-77955726D01*
X133947664Y-78109617D01*
X133828761Y-78241673D01*
X133685000Y-78346122D01*
X133522664Y-78418398D01*
X133348849Y-78455344D01*
X133171151Y-78455344D01*
X132997336Y-78418398D01*
X132835000Y-78346122D01*
X132691239Y-78241673D01*
X132572336Y-78109617D01*
X132483486Y-77955726D01*
X132428575Y-77786725D01*
X132410000Y-77610000D01*
X132428575Y-77433275D01*
X132483486Y-77264274D01*
X132572336Y-77110383D01*
X132691239Y-76978327D01*
X132835000Y-76873878D01*
X132997336Y-76801602D01*
X133171151Y-76764656D01*
X133348849Y-76764656D01*
X133522664Y-76801602D01*
G37*
G36*
X130982664Y-74261602D02*
G01*
X131145000Y-74333878D01*
X131288761Y-74438327D01*
X131407664Y-74570383D01*
X131496514Y-74724274D01*
X131551425Y-74893275D01*
X131570000Y-75070000D01*
X131551425Y-75246725D01*
X131496514Y-75415726D01*
X131407664Y-75569617D01*
X131288761Y-75701673D01*
X131145000Y-75806122D01*
X130982664Y-75878398D01*
X130808849Y-75915344D01*
X130631151Y-75915344D01*
X130457336Y-75878398D01*
X130295000Y-75806122D01*
X130151239Y-75701673D01*
X130032336Y-75569617D01*
X129943486Y-75415726D01*
X129888575Y-75246725D01*
X129870000Y-75070000D01*
X129888575Y-74893275D01*
X129943486Y-74724274D01*
X130032336Y-74570383D01*
X130151239Y-74438327D01*
X130295000Y-74333878D01*
X130457336Y-74261602D01*
X130631151Y-74224656D01*
X130808849Y-74224656D01*
X130982664Y-74261602D01*
G37*
G36*
X133522664Y-74261602D02*
G01*
X133685000Y-74333878D01*
X133828761Y-74438327D01*
X133947664Y-74570383D01*
X134036514Y-74724274D01*
X134091425Y-74893275D01*
X134110000Y-75070000D01*
X134091425Y-75246725D01*
X134036514Y-75415726D01*
X133947664Y-75569617D01*
X133828761Y-75701673D01*
X133685000Y-75806122D01*
X133522664Y-75878398D01*
X133348849Y-75915344D01*
X133171151Y-75915344D01*
X132997336Y-75878398D01*
X132835000Y-75806122D01*
X132691239Y-75701673D01*
X132572336Y-75569617D01*
X132483486Y-75415726D01*
X132428575Y-75246725D01*
X132410000Y-75070000D01*
X132428575Y-74893275D01*
X132483486Y-74724274D01*
X132572336Y-74570383D01*
X132691239Y-74438327D01*
X132835000Y-74333878D01*
X132997336Y-74261602D01*
X133171151Y-74224656D01*
X133348849Y-74224656D01*
X133522664Y-74261602D01*
G37*
G36*
X108971580Y-71400227D02*
G01*
X109036327Y-71404655D01*
X109072113Y-71414682D01*
X109110866Y-71420254D01*
X109140817Y-71433932D01*
X109169008Y-71441831D01*
X109201863Y-71461810D01*
X109240320Y-71479373D01*
X109262857Y-71498901D01*
X109285242Y-71512514D01*
X109313562Y-71542837D01*
X109347875Y-71572570D01*
X109362316Y-71595041D01*
X109378093Y-71611934D01*
X109398568Y-71651450D01*
X109424816Y-71692292D01*
X109431465Y-71714939D01*
X109440680Y-71732722D01*
X109450348Y-71779246D01*
X109464911Y-71828843D01*
X109464910Y-71849325D01*
X109468357Y-71865908D01*
X109464911Y-71916290D01*
X109464911Y-71971157D01*
X109460018Y-71987818D01*
X109459074Y-72001631D01*
X109441177Y-72051984D01*
X109424816Y-72107708D01*
X109417113Y-72119692D01*
X109413517Y-72129813D01*
X109381050Y-72175808D01*
X109347875Y-72227430D01*
X109339473Y-72234709D01*
X109335069Y-72240950D01*
X109289307Y-72278178D01*
X109240320Y-72320627D01*
X109233050Y-72323947D01*
X109229542Y-72326801D01*
X109173431Y-72351173D01*
X109110866Y-72379746D01*
X109106062Y-72380436D01*
X109104770Y-72380998D01*
X109045461Y-72389149D01*
X108970000Y-72400000D01*
X108966524Y-72400000D01*
X108371742Y-72400000D01*
X108370000Y-72400000D01*
X108368419Y-72399772D01*
X108303672Y-72395344D01*
X108267891Y-72385318D01*
X108229134Y-72379746D01*
X108199178Y-72366065D01*
X108170991Y-72358168D01*
X108138139Y-72338190D01*
X108099680Y-72320627D01*
X108077141Y-72301097D01*
X108054757Y-72287485D01*
X108026437Y-72257162D01*
X107992125Y-72227430D01*
X107977683Y-72204958D01*
X107961906Y-72188065D01*
X107941428Y-72148545D01*
X107915184Y-72107708D01*
X107908534Y-72085062D01*
X107899319Y-72067277D01*
X107889649Y-72020744D01*
X107875089Y-71971157D01*
X107875089Y-71950678D01*
X107871642Y-71934091D01*
X107875089Y-71883693D01*
X107875089Y-71828843D01*
X107879979Y-71812186D01*
X107880925Y-71798368D01*
X107898828Y-71747993D01*
X107915184Y-71692292D01*
X107922883Y-71680311D01*
X107926482Y-71670186D01*
X107958967Y-71624164D01*
X107992125Y-71572570D01*
X108000521Y-71565294D01*
X108004930Y-71559049D01*
X108050726Y-71521791D01*
X108099680Y-71479373D01*
X108106944Y-71476055D01*
X108110457Y-71473198D01*
X108166633Y-71448796D01*
X108229134Y-71420254D01*
X108233932Y-71419564D01*
X108235229Y-71419001D01*
X108294640Y-71410835D01*
X108370000Y-71400000D01*
X108970000Y-71400000D01*
X108971580Y-71400227D01*
G37*
G36*
X113517069Y-71455026D02*
G01*
X113548275Y-71464651D01*
X113576633Y-71468729D01*
X113608139Y-71483117D01*
X113645248Y-71494564D01*
X113669683Y-71511223D01*
X113693006Y-71521875D01*
X113721430Y-71546504D01*
X113756078Y-71570127D01*
X113772594Y-71590837D01*
X113789691Y-71605652D01*
X113811620Y-71639775D01*
X113839711Y-71675000D01*
X113848266Y-71696798D01*
X113858859Y-71713281D01*
X113871109Y-71755000D01*
X113888718Y-71799866D01*
X113890237Y-71820143D01*
X113894903Y-71836032D01*
X113894903Y-71882400D01*
X113898742Y-71933629D01*
X113894903Y-71950448D01*
X113894903Y-71963967D01*
X113881046Y-72011157D01*
X113868893Y-72064403D01*
X113861808Y-72076674D01*
X113858859Y-72086718D01*
X113830815Y-72130354D01*
X113801824Y-72180570D01*
X113793701Y-72188106D01*
X113789691Y-72194347D01*
X113748642Y-72229915D01*
X113703494Y-72271807D01*
X113696295Y-72275273D01*
X113693006Y-72278124D01*
X113642144Y-72301351D01*
X113582640Y-72330008D01*
X113577798Y-72330737D01*
X113576633Y-72331270D01*
X113525265Y-72338655D01*
X113450000Y-72350000D01*
X113446366Y-72350000D01*
X112253634Y-72350000D01*
X112250000Y-72350000D01*
X112182931Y-72344974D01*
X112151720Y-72335346D01*
X112123366Y-72331270D01*
X112091864Y-72316883D01*
X112054752Y-72305436D01*
X112030314Y-72288774D01*
X112006993Y-72278124D01*
X111978570Y-72253496D01*
X111943922Y-72229873D01*
X111927405Y-72209161D01*
X111910308Y-72194347D01*
X111888377Y-72160222D01*
X111860289Y-72125000D01*
X111851734Y-72103203D01*
X111841140Y-72086718D01*
X111828889Y-72044996D01*
X111811282Y-72000134D01*
X111809762Y-71979855D01*
X111805097Y-71963967D01*
X111805097Y-71917599D01*
X111801258Y-71866371D01*
X111805097Y-71849551D01*
X111805097Y-71836032D01*
X111818956Y-71788832D01*
X111831107Y-71735597D01*
X111838189Y-71723330D01*
X111841140Y-71713281D01*
X111869198Y-71669620D01*
X111898176Y-71619430D01*
X111906294Y-71611896D01*
X111910308Y-71605652D01*
X111951388Y-71570056D01*
X111996506Y-71528193D01*
X112003699Y-71524728D01*
X112006993Y-71521875D01*
X112057914Y-71498619D01*
X112117360Y-71469992D01*
X112122196Y-71469262D01*
X112123366Y-71468729D01*
X112174834Y-71461329D01*
X112250000Y-71450000D01*
X113450000Y-71450000D01*
X113517069Y-71455026D01*
G37*
G36*
X130982664Y-71721602D02*
G01*
X131145000Y-71793878D01*
X131288761Y-71898327D01*
X131407664Y-72030383D01*
X131496514Y-72184274D01*
X131551425Y-72353275D01*
X131570000Y-72530000D01*
X131551425Y-72706725D01*
X131496514Y-72875726D01*
X131407664Y-73029617D01*
X131288761Y-73161673D01*
X131145000Y-73266122D01*
X130982664Y-73338398D01*
X130808849Y-73375344D01*
X130631151Y-73375344D01*
X130457336Y-73338398D01*
X130295000Y-73266122D01*
X130151239Y-73161673D01*
X130032336Y-73029617D01*
X129943486Y-72875726D01*
X129888575Y-72706725D01*
X129870000Y-72530000D01*
X129888575Y-72353275D01*
X129943486Y-72184274D01*
X130032336Y-72030383D01*
X130151239Y-71898327D01*
X130295000Y-71793878D01*
X130457336Y-71721602D01*
X130631151Y-71684656D01*
X130808849Y-71684656D01*
X130982664Y-71721602D01*
G37*
G36*
X133522664Y-71721602D02*
G01*
X133685000Y-71793878D01*
X133828761Y-71898327D01*
X133947664Y-72030383D01*
X134036514Y-72184274D01*
X134091425Y-72353275D01*
X134110000Y-72530000D01*
X134091425Y-72706725D01*
X134036514Y-72875726D01*
X133947664Y-73029617D01*
X133828761Y-73161673D01*
X133685000Y-73266122D01*
X133522664Y-73338398D01*
X133348849Y-73375344D01*
X133171151Y-73375344D01*
X132997336Y-73338398D01*
X132835000Y-73266122D01*
X132691239Y-73161673D01*
X132572336Y-73029617D01*
X132483486Y-72875726D01*
X132428575Y-72706725D01*
X132410000Y-72530000D01*
X132428575Y-72353275D01*
X132483486Y-72184274D01*
X132572336Y-72030383D01*
X132691239Y-71898327D01*
X132835000Y-71793878D01*
X132997336Y-71721602D01*
X133171151Y-71684656D01*
X133348849Y-71684656D01*
X133522664Y-71721602D01*
G37*
G36*
X130982664Y-69181602D02*
G01*
X131145000Y-69253878D01*
X131288761Y-69358327D01*
X131407664Y-69490383D01*
X131496514Y-69644274D01*
X131551425Y-69813275D01*
X131570000Y-69990000D01*
X131551425Y-70166725D01*
X131496514Y-70335726D01*
X131407664Y-70489617D01*
X131288761Y-70621673D01*
X131145000Y-70726122D01*
X130982664Y-70798398D01*
X130808849Y-70835344D01*
X130631151Y-70835344D01*
X130457336Y-70798398D01*
X130295000Y-70726122D01*
X130151239Y-70621673D01*
X130032336Y-70489617D01*
X129943486Y-70335726D01*
X129888575Y-70166725D01*
X129870000Y-69990000D01*
X129888575Y-69813275D01*
X129943486Y-69644274D01*
X130032336Y-69490383D01*
X130151239Y-69358327D01*
X130295000Y-69253878D01*
X130457336Y-69181602D01*
X130631151Y-69144656D01*
X130808849Y-69144656D01*
X130982664Y-69181602D01*
G37*
G36*
X133522664Y-69181602D02*
G01*
X133685000Y-69253878D01*
X133828761Y-69358327D01*
X133947664Y-69490383D01*
X134036514Y-69644274D01*
X134091425Y-69813275D01*
X134110000Y-69990000D01*
X134091425Y-70166725D01*
X134036514Y-70335726D01*
X133947664Y-70489617D01*
X133828761Y-70621673D01*
X133685000Y-70726122D01*
X133522664Y-70798398D01*
X133348849Y-70835344D01*
X133171151Y-70835344D01*
X132997336Y-70798398D01*
X132835000Y-70726122D01*
X132691239Y-70621673D01*
X132572336Y-70489617D01*
X132483486Y-70335726D01*
X132428575Y-70166725D01*
X132410000Y-69990000D01*
X132428575Y-69813275D01*
X132483486Y-69644274D01*
X132572336Y-69490383D01*
X132691239Y-69358327D01*
X132835000Y-69253878D01*
X132997336Y-69181602D01*
X133171151Y-69144656D01*
X133348849Y-69144656D01*
X133522664Y-69181602D01*
G37*
G36*
X112377174Y-70149937D02*
G01*
X112406436Y-70149937D01*
X112428978Y-70158141D01*
X112450237Y-70161509D01*
X112480265Y-70176809D01*
X112512500Y-70188542D01*
X112526735Y-70200487D01*
X112540658Y-70207581D01*
X112569175Y-70236098D01*
X112598964Y-70261094D01*
X112605511Y-70272434D01*
X112612418Y-70279341D01*
X112634345Y-70322375D01*
X112655400Y-70358843D01*
X112656708Y-70366266D01*
X112658490Y-70369762D01*
X112668770Y-70434668D01*
X112675000Y-70470000D01*
X112668769Y-70505335D01*
X112658490Y-70570237D01*
X112656709Y-70573731D01*
X112655400Y-70581157D01*
X112634340Y-70617631D01*
X112612418Y-70660658D01*
X112605512Y-70667563D01*
X112598964Y-70678906D01*
X112569168Y-70703907D01*
X112540658Y-70732418D01*
X112526738Y-70739510D01*
X112512500Y-70751458D01*
X112480258Y-70763193D01*
X112450237Y-70778490D01*
X112428983Y-70781856D01*
X112406436Y-70790063D01*
X112377168Y-70790063D01*
X112350000Y-70794366D01*
X112322832Y-70790063D01*
X112293564Y-70790063D01*
X112271017Y-70781856D01*
X112249762Y-70778490D01*
X112219737Y-70763191D01*
X112187500Y-70751458D01*
X112173262Y-70739511D01*
X112159341Y-70732418D01*
X112130824Y-70703901D01*
X112101036Y-70678906D01*
X112094488Y-70667565D01*
X112087581Y-70660658D01*
X112065650Y-70617617D01*
X112044600Y-70581157D01*
X112043291Y-70573734D01*
X112041509Y-70570237D01*
X112031220Y-70505279D01*
X112025000Y-70470000D01*
X112031220Y-70434723D01*
X112041509Y-70369762D01*
X112043291Y-70366263D01*
X112044600Y-70358843D01*
X112065646Y-70322390D01*
X112087581Y-70279341D01*
X112094489Y-70272432D01*
X112101036Y-70261094D01*
X112130818Y-70236103D01*
X112159341Y-70207581D01*
X112173265Y-70200485D01*
X112187500Y-70188542D01*
X112219731Y-70176810D01*
X112249762Y-70161509D01*
X112271022Y-70158141D01*
X112293564Y-70149937D01*
X112322825Y-70149937D01*
X112350000Y-70145633D01*
X112377174Y-70149937D01*
G37*
G36*
X130982664Y-66641602D02*
G01*
X131145000Y-66713878D01*
X131288761Y-66818327D01*
X131407664Y-66950383D01*
X131496514Y-67104274D01*
X131551425Y-67273275D01*
X131570000Y-67450000D01*
X131551425Y-67626725D01*
X131496514Y-67795726D01*
X131407664Y-67949617D01*
X131288761Y-68081673D01*
X131145000Y-68186122D01*
X130982664Y-68258398D01*
X130808849Y-68295344D01*
X130631151Y-68295344D01*
X130457336Y-68258398D01*
X130295000Y-68186122D01*
X130151239Y-68081673D01*
X130032336Y-67949617D01*
X129943486Y-67795726D01*
X129888575Y-67626725D01*
X129870000Y-67450000D01*
X129888575Y-67273275D01*
X129943486Y-67104274D01*
X130032336Y-66950383D01*
X130151239Y-66818327D01*
X130295000Y-66713878D01*
X130457336Y-66641602D01*
X130631151Y-66604656D01*
X130808849Y-66604656D01*
X130982664Y-66641602D01*
G37*
G36*
X133522664Y-66641602D02*
G01*
X133685000Y-66713878D01*
X133828761Y-66818327D01*
X133947664Y-66950383D01*
X134036514Y-67104274D01*
X134091425Y-67273275D01*
X134110000Y-67450000D01*
X134091425Y-67626725D01*
X134036514Y-67795726D01*
X133947664Y-67949617D01*
X133828761Y-68081673D01*
X133685000Y-68186122D01*
X133522664Y-68258398D01*
X133348849Y-68295344D01*
X133171151Y-68295344D01*
X132997336Y-68258398D01*
X132835000Y-68186122D01*
X132691239Y-68081673D01*
X132572336Y-67949617D01*
X132483486Y-67795726D01*
X132428575Y-67626725D01*
X132410000Y-67450000D01*
X132428575Y-67273275D01*
X132483486Y-67104274D01*
X132572336Y-66950383D01*
X132691239Y-66818327D01*
X132835000Y-66713878D01*
X132997336Y-66641602D01*
X133171151Y-66604656D01*
X133348849Y-66604656D01*
X133522664Y-66641602D01*
G37*
G36*
X130982664Y-64101602D02*
G01*
X131145000Y-64173878D01*
X131288761Y-64278327D01*
X131407664Y-64410383D01*
X131496514Y-64564274D01*
X131551425Y-64733275D01*
X131570000Y-64910000D01*
X131551425Y-65086725D01*
X131496514Y-65255726D01*
X131407664Y-65409617D01*
X131288761Y-65541673D01*
X131145000Y-65646122D01*
X130982664Y-65718398D01*
X130808849Y-65755344D01*
X130631151Y-65755344D01*
X130457336Y-65718398D01*
X130295000Y-65646122D01*
X130151239Y-65541673D01*
X130032336Y-65409617D01*
X129943486Y-65255726D01*
X129888575Y-65086725D01*
X129870000Y-64910000D01*
X129888575Y-64733275D01*
X129943486Y-64564274D01*
X130032336Y-64410383D01*
X130151239Y-64278327D01*
X130295000Y-64173878D01*
X130457336Y-64101602D01*
X130631151Y-64064656D01*
X130808849Y-64064656D01*
X130982664Y-64101602D01*
G37*
G36*
X133522664Y-64101602D02*
G01*
X133685000Y-64173878D01*
X133828761Y-64278327D01*
X133947664Y-64410383D01*
X134036514Y-64564274D01*
X134091425Y-64733275D01*
X134110000Y-64910000D01*
X134091425Y-65086725D01*
X134036514Y-65255726D01*
X133947664Y-65409617D01*
X133828761Y-65541673D01*
X133685000Y-65646122D01*
X133522664Y-65718398D01*
X133348849Y-65755344D01*
X133171151Y-65755344D01*
X132997336Y-65718398D01*
X132835000Y-65646122D01*
X132691239Y-65541673D01*
X132572336Y-65409617D01*
X132483486Y-65255726D01*
X132428575Y-65086725D01*
X132410000Y-64910000D01*
X132428575Y-64733275D01*
X132483486Y-64564274D01*
X132572336Y-64410383D01*
X132691239Y-64278327D01*
X132835000Y-64173878D01*
X132997336Y-64101602D01*
X133171151Y-64064656D01*
X133348849Y-64064656D01*
X133522664Y-64101602D01*
G37*
G36*
X112377174Y-64369937D02*
G01*
X112406436Y-64369937D01*
X112428978Y-64378141D01*
X112450237Y-64381509D01*
X112480265Y-64396809D01*
X112512500Y-64408542D01*
X112526735Y-64420487D01*
X112540658Y-64427581D01*
X112569175Y-64456098D01*
X112598964Y-64481094D01*
X112605511Y-64492434D01*
X112612418Y-64499341D01*
X112634345Y-64542375D01*
X112655400Y-64578843D01*
X112656708Y-64586266D01*
X112658490Y-64589762D01*
X112668770Y-64654668D01*
X112675000Y-64690000D01*
X112668769Y-64725335D01*
X112658490Y-64790237D01*
X112656709Y-64793731D01*
X112655400Y-64801157D01*
X112634340Y-64837631D01*
X112612418Y-64880658D01*
X112605512Y-64887563D01*
X112598964Y-64898906D01*
X112569168Y-64923907D01*
X112540658Y-64952418D01*
X112526738Y-64959510D01*
X112512500Y-64971458D01*
X112480258Y-64983193D01*
X112450237Y-64998490D01*
X112428983Y-65001856D01*
X112406436Y-65010063D01*
X112377168Y-65010063D01*
X112350000Y-65014366D01*
X112322832Y-65010063D01*
X112293564Y-65010063D01*
X112271017Y-65001856D01*
X112249762Y-64998490D01*
X112219737Y-64983191D01*
X112187500Y-64971458D01*
X112173262Y-64959511D01*
X112159341Y-64952418D01*
X112130824Y-64923901D01*
X112101036Y-64898906D01*
X112094488Y-64887565D01*
X112087581Y-64880658D01*
X112065650Y-64837617D01*
X112044600Y-64801157D01*
X112043291Y-64793734D01*
X112041509Y-64790237D01*
X112031220Y-64725279D01*
X112025000Y-64690000D01*
X112031220Y-64654723D01*
X112041509Y-64589762D01*
X112043291Y-64586263D01*
X112044600Y-64578843D01*
X112065646Y-64542390D01*
X112087581Y-64499341D01*
X112094489Y-64492432D01*
X112101036Y-64481094D01*
X112130818Y-64456103D01*
X112159341Y-64427581D01*
X112173265Y-64420485D01*
X112187500Y-64408542D01*
X112219731Y-64396810D01*
X112249762Y-64381509D01*
X112271022Y-64378141D01*
X112293564Y-64369937D01*
X112322825Y-64369937D01*
X112350000Y-64365633D01*
X112377174Y-64369937D01*
G37*
G36*
X108971580Y-62760227D02*
G01*
X109036327Y-62764655D01*
X109072113Y-62774682D01*
X109110866Y-62780254D01*
X109140817Y-62793932D01*
X109169008Y-62801831D01*
X109201863Y-62821810D01*
X109240320Y-62839373D01*
X109262857Y-62858901D01*
X109285242Y-62872514D01*
X109313562Y-62902837D01*
X109347875Y-62932570D01*
X109362316Y-62955041D01*
X109378093Y-62971934D01*
X109398568Y-63011450D01*
X109424816Y-63052292D01*
X109431465Y-63074939D01*
X109440680Y-63092722D01*
X109450348Y-63139246D01*
X109464911Y-63188843D01*
X109464910Y-63209325D01*
X109468357Y-63225908D01*
X109464911Y-63276290D01*
X109464911Y-63331157D01*
X109460018Y-63347818D01*
X109459074Y-63361631D01*
X109441177Y-63411984D01*
X109424816Y-63467708D01*
X109417113Y-63479692D01*
X109413517Y-63489813D01*
X109381050Y-63535808D01*
X109347875Y-63587430D01*
X109339473Y-63594709D01*
X109335069Y-63600950D01*
X109289307Y-63638178D01*
X109240320Y-63680627D01*
X109233050Y-63683947D01*
X109229542Y-63686801D01*
X109173431Y-63711173D01*
X109110866Y-63739746D01*
X109106062Y-63740436D01*
X109104770Y-63740998D01*
X109045461Y-63749149D01*
X108970000Y-63760000D01*
X108966524Y-63760000D01*
X108371742Y-63760000D01*
X108370000Y-63760000D01*
X108368419Y-63759772D01*
X108303672Y-63755344D01*
X108267891Y-63745318D01*
X108229134Y-63739746D01*
X108199178Y-63726065D01*
X108170991Y-63718168D01*
X108138139Y-63698190D01*
X108099680Y-63680627D01*
X108077141Y-63661097D01*
X108054757Y-63647485D01*
X108026437Y-63617162D01*
X107992125Y-63587430D01*
X107977683Y-63564958D01*
X107961906Y-63548065D01*
X107941428Y-63508545D01*
X107915184Y-63467708D01*
X107908534Y-63445062D01*
X107899319Y-63427277D01*
X107889649Y-63380744D01*
X107875089Y-63331157D01*
X107875089Y-63310678D01*
X107871642Y-63294091D01*
X107875089Y-63243693D01*
X107875089Y-63188843D01*
X107879979Y-63172186D01*
X107880925Y-63158368D01*
X107898828Y-63107993D01*
X107915184Y-63052292D01*
X107922883Y-63040311D01*
X107926482Y-63030186D01*
X107958967Y-62984164D01*
X107992125Y-62932570D01*
X108000521Y-62925294D01*
X108004930Y-62919049D01*
X108050726Y-62881791D01*
X108099680Y-62839373D01*
X108106944Y-62836055D01*
X108110457Y-62833198D01*
X108166633Y-62808796D01*
X108229134Y-62780254D01*
X108233932Y-62779564D01*
X108235229Y-62779001D01*
X108294640Y-62770835D01*
X108370000Y-62760000D01*
X108970000Y-62760000D01*
X108971580Y-62760227D01*
G37*
G36*
X113517069Y-62815026D02*
G01*
X113548275Y-62824651D01*
X113576633Y-62828729D01*
X113608139Y-62843117D01*
X113645248Y-62854564D01*
X113669683Y-62871223D01*
X113693006Y-62881875D01*
X113721430Y-62906504D01*
X113756078Y-62930127D01*
X113772594Y-62950837D01*
X113789691Y-62965652D01*
X113811620Y-62999775D01*
X113839711Y-63035000D01*
X113848266Y-63056798D01*
X113858859Y-63073281D01*
X113871109Y-63115000D01*
X113888718Y-63159866D01*
X113890237Y-63180143D01*
X113894903Y-63196032D01*
X113894903Y-63242400D01*
X113898742Y-63293629D01*
X113894903Y-63310448D01*
X113894903Y-63323967D01*
X113881046Y-63371157D01*
X113868893Y-63424403D01*
X113861808Y-63436674D01*
X113858859Y-63446718D01*
X113830815Y-63490354D01*
X113801824Y-63540570D01*
X113793701Y-63548106D01*
X113789691Y-63554347D01*
X113748642Y-63589915D01*
X113703494Y-63631807D01*
X113696295Y-63635273D01*
X113693006Y-63638124D01*
X113642144Y-63661351D01*
X113582640Y-63690008D01*
X113577798Y-63690737D01*
X113576633Y-63691270D01*
X113525265Y-63698655D01*
X113450000Y-63710000D01*
X113446366Y-63710000D01*
X112253634Y-63710000D01*
X112250000Y-63710000D01*
X112182931Y-63704974D01*
X112151720Y-63695346D01*
X112123366Y-63691270D01*
X112091864Y-63676883D01*
X112054752Y-63665436D01*
X112030314Y-63648774D01*
X112006993Y-63638124D01*
X111978570Y-63613496D01*
X111943922Y-63589873D01*
X111927405Y-63569161D01*
X111910308Y-63554347D01*
X111888377Y-63520222D01*
X111860289Y-63485000D01*
X111851734Y-63463203D01*
X111841140Y-63446718D01*
X111828889Y-63404996D01*
X111811282Y-63360134D01*
X111809762Y-63339855D01*
X111805097Y-63323967D01*
X111805097Y-63277599D01*
X111801258Y-63226371D01*
X111805097Y-63209551D01*
X111805097Y-63196032D01*
X111818956Y-63148832D01*
X111831107Y-63095597D01*
X111838189Y-63083330D01*
X111841140Y-63073281D01*
X111869198Y-63029620D01*
X111898176Y-62979430D01*
X111906294Y-62971896D01*
X111910308Y-62965652D01*
X111951388Y-62930056D01*
X111996506Y-62888193D01*
X112003699Y-62884728D01*
X112006993Y-62881875D01*
X112057914Y-62858619D01*
X112117360Y-62829992D01*
X112122196Y-62829262D01*
X112123366Y-62828729D01*
X112174834Y-62821329D01*
X112250000Y-62810000D01*
X113450000Y-62810000D01*
X113517069Y-62815026D01*
G37*
G36*
X130982664Y-61561602D02*
G01*
X131145000Y-61633878D01*
X131288761Y-61738327D01*
X131407664Y-61870383D01*
X131496514Y-62024274D01*
X131551425Y-62193275D01*
X131570000Y-62370000D01*
X131551425Y-62546725D01*
X131496514Y-62715726D01*
X131407664Y-62869617D01*
X131288761Y-63001673D01*
X131145000Y-63106122D01*
X130982664Y-63178398D01*
X130808849Y-63215344D01*
X130631151Y-63215344D01*
X130457336Y-63178398D01*
X130295000Y-63106122D01*
X130151239Y-63001673D01*
X130032336Y-62869617D01*
X129943486Y-62715726D01*
X129888575Y-62546725D01*
X129870000Y-62370000D01*
X129888575Y-62193275D01*
X129943486Y-62024274D01*
X130032336Y-61870383D01*
X130151239Y-61738327D01*
X130295000Y-61633878D01*
X130457336Y-61561602D01*
X130631151Y-61524656D01*
X130808849Y-61524656D01*
X130982664Y-61561602D01*
G37*
G36*
X133522664Y-61561602D02*
G01*
X133685000Y-61633878D01*
X133828761Y-61738327D01*
X133947664Y-61870383D01*
X134036514Y-62024274D01*
X134091425Y-62193275D01*
X134110000Y-62370000D01*
X134091425Y-62546725D01*
X134036514Y-62715726D01*
X133947664Y-62869617D01*
X133828761Y-63001673D01*
X133685000Y-63106122D01*
X133522664Y-63178398D01*
X133348849Y-63215344D01*
X133171151Y-63215344D01*
X132997336Y-63178398D01*
X132835000Y-63106122D01*
X132691239Y-63001673D01*
X132572336Y-62869617D01*
X132483486Y-62715726D01*
X132428575Y-62546725D01*
X132410000Y-62370000D01*
X132428575Y-62193275D01*
X132483486Y-62024274D01*
X132572336Y-61870383D01*
X132691239Y-61738327D01*
X132835000Y-61633878D01*
X132997336Y-61561602D01*
X133171151Y-61524656D01*
X133348849Y-61524656D01*
X133522664Y-61561602D01*
G37*
G36*
X130982664Y-59021602D02*
G01*
X131145000Y-59093878D01*
X131288761Y-59198327D01*
X131407664Y-59330383D01*
X131496514Y-59484274D01*
X131551425Y-59653275D01*
X131570000Y-59830000D01*
X131551425Y-60006725D01*
X131496514Y-60175726D01*
X131407664Y-60329617D01*
X131288761Y-60461673D01*
X131145000Y-60566122D01*
X130982664Y-60638398D01*
X130808849Y-60675344D01*
X130631151Y-60675344D01*
X130457336Y-60638398D01*
X130295000Y-60566122D01*
X130151239Y-60461673D01*
X130032336Y-60329617D01*
X129943486Y-60175726D01*
X129888575Y-60006725D01*
X129870000Y-59830000D01*
X129888575Y-59653275D01*
X129943486Y-59484274D01*
X130032336Y-59330383D01*
X130151239Y-59198327D01*
X130295000Y-59093878D01*
X130457336Y-59021602D01*
X130631151Y-58984656D01*
X130808849Y-58984656D01*
X130982664Y-59021602D01*
G37*
G36*
X133522664Y-59021602D02*
G01*
X133685000Y-59093878D01*
X133828761Y-59198327D01*
X133947664Y-59330383D01*
X134036514Y-59484274D01*
X134091425Y-59653275D01*
X134110000Y-59830000D01*
X134091425Y-60006725D01*
X134036514Y-60175726D01*
X133947664Y-60329617D01*
X133828761Y-60461673D01*
X133685000Y-60566122D01*
X133522664Y-60638398D01*
X133348849Y-60675344D01*
X133171151Y-60675344D01*
X132997336Y-60638398D01*
X132835000Y-60566122D01*
X132691239Y-60461673D01*
X132572336Y-60329617D01*
X132483486Y-60175726D01*
X132428575Y-60006725D01*
X132410000Y-59830000D01*
X132428575Y-59653275D01*
X132483486Y-59484274D01*
X132572336Y-59330383D01*
X132691239Y-59198327D01*
X132835000Y-59093878D01*
X132997336Y-59021602D01*
X133171151Y-58984656D01*
X133348849Y-58984656D01*
X133522664Y-59021602D01*
G37*
G36*
X130982664Y-56481602D02*
G01*
X131145000Y-56553878D01*
X131288761Y-56658327D01*
X131407664Y-56790383D01*
X131496514Y-56944274D01*
X131551425Y-57113275D01*
X131570000Y-57290000D01*
X131551425Y-57466725D01*
X131496514Y-57635726D01*
X131407664Y-57789617D01*
X131288761Y-57921673D01*
X131145000Y-58026122D01*
X130982664Y-58098398D01*
X130808849Y-58135344D01*
X130631151Y-58135344D01*
X130457336Y-58098398D01*
X130295000Y-58026122D01*
X130151239Y-57921673D01*
X130032336Y-57789617D01*
X129943486Y-57635726D01*
X129888575Y-57466725D01*
X129870000Y-57290000D01*
X129888575Y-57113275D01*
X129943486Y-56944274D01*
X130032336Y-56790383D01*
X130151239Y-56658327D01*
X130295000Y-56553878D01*
X130457336Y-56481602D01*
X130631151Y-56444656D01*
X130808849Y-56444656D01*
X130982664Y-56481602D01*
G37*
G36*
X133522664Y-56481602D02*
G01*
X133685000Y-56553878D01*
X133828761Y-56658327D01*
X133947664Y-56790383D01*
X134036514Y-56944274D01*
X134091425Y-57113275D01*
X134110000Y-57290000D01*
X134091425Y-57466725D01*
X134036514Y-57635726D01*
X133947664Y-57789617D01*
X133828761Y-57921673D01*
X133685000Y-58026122D01*
X133522664Y-58098398D01*
X133348849Y-58135344D01*
X133171151Y-58135344D01*
X132997336Y-58098398D01*
X132835000Y-58026122D01*
X132691239Y-57921673D01*
X132572336Y-57789617D01*
X132483486Y-57635726D01*
X132428575Y-57466725D01*
X132410000Y-57290000D01*
X132428575Y-57113275D01*
X132483486Y-56944274D01*
X132572336Y-56790383D01*
X132691239Y-56658327D01*
X132835000Y-56553878D01*
X132997336Y-56481602D01*
X133171151Y-56444656D01*
X133348849Y-56444656D01*
X133522664Y-56481602D01*
G37*
G36*
X130982664Y-53941602D02*
G01*
X131145000Y-54013878D01*
X131288761Y-54118327D01*
X131407664Y-54250383D01*
X131496514Y-54404274D01*
X131551425Y-54573275D01*
X131570000Y-54750000D01*
X131551425Y-54926725D01*
X131496514Y-55095726D01*
X131407664Y-55249617D01*
X131288761Y-55381673D01*
X131145000Y-55486122D01*
X130982664Y-55558398D01*
X130808849Y-55595344D01*
X130631151Y-55595344D01*
X130457336Y-55558398D01*
X130295000Y-55486122D01*
X130151239Y-55381673D01*
X130032336Y-55249617D01*
X129943486Y-55095726D01*
X129888575Y-54926725D01*
X129870000Y-54750000D01*
X129888575Y-54573275D01*
X129943486Y-54404274D01*
X130032336Y-54250383D01*
X130151239Y-54118327D01*
X130295000Y-54013878D01*
X130457336Y-53941602D01*
X130631151Y-53904656D01*
X130808849Y-53904656D01*
X130982664Y-53941602D01*
G37*
G36*
X133522664Y-53941602D02*
G01*
X133685000Y-54013878D01*
X133828761Y-54118327D01*
X133947664Y-54250383D01*
X134036514Y-54404274D01*
X134091425Y-54573275D01*
X134110000Y-54750000D01*
X134091425Y-54926725D01*
X134036514Y-55095726D01*
X133947664Y-55249617D01*
X133828761Y-55381673D01*
X133685000Y-55486122D01*
X133522664Y-55558398D01*
X133348849Y-55595344D01*
X133171151Y-55595344D01*
X132997336Y-55558398D01*
X132835000Y-55486122D01*
X132691239Y-55381673D01*
X132572336Y-55249617D01*
X132483486Y-55095726D01*
X132428575Y-54926725D01*
X132410000Y-54750000D01*
X132428575Y-54573275D01*
X132483486Y-54404274D01*
X132572336Y-54250383D01*
X132691239Y-54118327D01*
X132835000Y-54013878D01*
X132997336Y-53941602D01*
X133171151Y-53904656D01*
X133348849Y-53904656D01*
X133522664Y-53941602D01*
G37*
G36*
X131570000Y-53060000D02*
G01*
X129870000Y-53060000D01*
X129870000Y-51360000D01*
X131570000Y-51360000D01*
X131570000Y-53060000D01*
G37*
G36*
X133522664Y-51401602D02*
G01*
X133685000Y-51473878D01*
X133828761Y-51578327D01*
X133947664Y-51710383D01*
X134036514Y-51864274D01*
X134091425Y-52033275D01*
X134110000Y-52210000D01*
X134091425Y-52386725D01*
X134036514Y-52555726D01*
X133947664Y-52709617D01*
X133828761Y-52841673D01*
X133685000Y-52946122D01*
X133522664Y-53018398D01*
X133348849Y-53055344D01*
X133171151Y-53055344D01*
X132997336Y-53018398D01*
X132835000Y-52946122D01*
X132691239Y-52841673D01*
X132572336Y-52709617D01*
X132483486Y-52555726D01*
X132428575Y-52386725D01*
X132410000Y-52210000D01*
X132428575Y-52033275D01*
X132483486Y-51864274D01*
X132572336Y-51710383D01*
X132691239Y-51578327D01*
X132835000Y-51473878D01*
X132997336Y-51401602D01*
X133171151Y-51364656D01*
X133348849Y-51364656D01*
X133522664Y-51401602D01*
G37*
G36*
X109046080Y-46000384D02*
G01*
X109102869Y-46000384D01*
X109165460Y-46010828D01*
X109225825Y-46016110D01*
X109273230Y-46028812D01*
X109322759Y-46037077D01*
X109389196Y-46059884D01*
X109453127Y-46077015D01*
X109492290Y-46095277D01*
X109533621Y-46109466D01*
X109601530Y-46146216D01*
X109666400Y-46176466D01*
X109696937Y-46197848D01*
X109729682Y-46215569D01*
X109796336Y-46267448D01*
X109859163Y-46311440D01*
X109881306Y-46333583D01*
X109905613Y-46352502D01*
X109968058Y-46420335D01*
X110025560Y-46477837D01*
X110040072Y-46498563D01*
X110056603Y-46516520D01*
X110111755Y-46600937D01*
X110160534Y-46670600D01*
X110168675Y-46688059D01*
X110178536Y-46703152D01*
X110223286Y-46805171D01*
X110259985Y-46883873D01*
X110263403Y-46896630D01*
X110268087Y-46907308D01*
X110299452Y-47031167D01*
X110320890Y-47111175D01*
X110321511Y-47118278D01*
X110322816Y-47123430D01*
X110338109Y-47307988D01*
X110341400Y-47345600D01*
X110338109Y-47383214D01*
X110322816Y-47567769D01*
X110321511Y-47572919D01*
X110320890Y-47580025D01*
X110299447Y-47660050D01*
X110268087Y-47783891D01*
X110263403Y-47794567D01*
X110259985Y-47807327D01*
X110223278Y-47886043D01*
X110178536Y-47988047D01*
X110168677Y-48003137D01*
X110160534Y-48020600D01*
X110111745Y-48090276D01*
X110056603Y-48174679D01*
X110040075Y-48192632D01*
X110025560Y-48213363D01*
X109968046Y-48270876D01*
X109905613Y-48338697D01*
X109881310Y-48357612D01*
X109859163Y-48379760D01*
X109796323Y-48423760D01*
X109729682Y-48475630D01*
X109696943Y-48493347D01*
X109666400Y-48514734D01*
X109601516Y-48544989D01*
X109533621Y-48581733D01*
X109492298Y-48595919D01*
X109453127Y-48614185D01*
X109389182Y-48631318D01*
X109322759Y-48654122D01*
X109273238Y-48662385D01*
X109225825Y-48675090D01*
X109165457Y-48680371D01*
X109102869Y-48690816D01*
X109046080Y-48690816D01*
X108991400Y-48695600D01*
X108936720Y-48690816D01*
X108879931Y-48690816D01*
X108817342Y-48680371D01*
X108756975Y-48675090D01*
X108709563Y-48662386D01*
X108660040Y-48654122D01*
X108593612Y-48631317D01*
X108529673Y-48614185D01*
X108490504Y-48595920D01*
X108449178Y-48581733D01*
X108381275Y-48544986D01*
X108316400Y-48514734D01*
X108285859Y-48493349D01*
X108253117Y-48475630D01*
X108186466Y-48423753D01*
X108123637Y-48379760D01*
X108101492Y-48357615D01*
X108077186Y-48338697D01*
X108014740Y-48270863D01*
X107957240Y-48213363D01*
X107942727Y-48192636D01*
X107926196Y-48174679D01*
X107871039Y-48090255D01*
X107822266Y-48020600D01*
X107814125Y-48003142D01*
X107804263Y-47988047D01*
X107759504Y-47886007D01*
X107722815Y-47807327D01*
X107719397Y-47794573D01*
X107714712Y-47783891D01*
X107683334Y-47659982D01*
X107661910Y-47580025D01*
X107661288Y-47572925D01*
X107659983Y-47567769D01*
X107644673Y-47383013D01*
X107641400Y-47345600D01*
X107644670Y-47308219D01*
X107659983Y-47123430D01*
X107661289Y-47118272D01*
X107661910Y-47111175D01*
X107683329Y-47031235D01*
X107714712Y-46907308D01*
X107719398Y-46896624D01*
X107722815Y-46883873D01*
X107759497Y-46805208D01*
X107804263Y-46703152D01*
X107814127Y-46688053D01*
X107822266Y-46670600D01*
X107871029Y-46600958D01*
X107926196Y-46516520D01*
X107942730Y-46498559D01*
X107957240Y-46477837D01*
X108014729Y-46420347D01*
X108077186Y-46352502D01*
X108101497Y-46333579D01*
X108123637Y-46311440D01*
X108186453Y-46267455D01*
X108253117Y-46215569D01*
X108285866Y-46197846D01*
X108316400Y-46176466D01*
X108381262Y-46146220D01*
X108449178Y-46109466D01*
X108490512Y-46095275D01*
X108529673Y-46077015D01*
X108593599Y-46059886D01*
X108660040Y-46037077D01*
X108709570Y-46028811D01*
X108756975Y-46016110D01*
X108817338Y-46010828D01*
X108879931Y-46000384D01*
X108936720Y-46000384D01*
X108991400Y-45995600D01*
X109046080Y-46000384D01*
G37*
G36*
X132033080Y-45974984D02*
G01*
X132089869Y-45974984D01*
X132152460Y-45985428D01*
X132212825Y-45990710D01*
X132260230Y-46003412D01*
X132309759Y-46011677D01*
X132376196Y-46034484D01*
X132440127Y-46051615D01*
X132479290Y-46069877D01*
X132520621Y-46084066D01*
X132588530Y-46120816D01*
X132653400Y-46151066D01*
X132683937Y-46172448D01*
X132716682Y-46190169D01*
X132783336Y-46242048D01*
X132846163Y-46286040D01*
X132868306Y-46308183D01*
X132892613Y-46327102D01*
X132955058Y-46394935D01*
X133012560Y-46452437D01*
X133027072Y-46473163D01*
X133043603Y-46491120D01*
X133098755Y-46575537D01*
X133147534Y-46645200D01*
X133155675Y-46662659D01*
X133165536Y-46677752D01*
X133210286Y-46779771D01*
X133246985Y-46858473D01*
X133250403Y-46871230D01*
X133255087Y-46881908D01*
X133286452Y-47005767D01*
X133307890Y-47085775D01*
X133308511Y-47092878D01*
X133309816Y-47098030D01*
X133325109Y-47282588D01*
X133328400Y-47320200D01*
X133325109Y-47357814D01*
X133309816Y-47542369D01*
X133308511Y-47547519D01*
X133307890Y-47554625D01*
X133286447Y-47634650D01*
X133255087Y-47758491D01*
X133250403Y-47769167D01*
X133246985Y-47781927D01*
X133210278Y-47860643D01*
X133165536Y-47962647D01*
X133155677Y-47977737D01*
X133147534Y-47995200D01*
X133098745Y-48064876D01*
X133043603Y-48149279D01*
X133027075Y-48167232D01*
X133012560Y-48187963D01*
X132955046Y-48245476D01*
X132892613Y-48313297D01*
X132868310Y-48332212D01*
X132846163Y-48354360D01*
X132783323Y-48398360D01*
X132716682Y-48450230D01*
X132683943Y-48467947D01*
X132653400Y-48489334D01*
X132588516Y-48519589D01*
X132520621Y-48556333D01*
X132479298Y-48570519D01*
X132440127Y-48588785D01*
X132376182Y-48605918D01*
X132309759Y-48628722D01*
X132260238Y-48636985D01*
X132212825Y-48649690D01*
X132152457Y-48654971D01*
X132089869Y-48665416D01*
X132033080Y-48665416D01*
X131978400Y-48670200D01*
X131923720Y-48665416D01*
X131866931Y-48665416D01*
X131804342Y-48654971D01*
X131743975Y-48649690D01*
X131696563Y-48636986D01*
X131647040Y-48628722D01*
X131580612Y-48605917D01*
X131516673Y-48588785D01*
X131477504Y-48570520D01*
X131436178Y-48556333D01*
X131368275Y-48519586D01*
X131303400Y-48489334D01*
X131272859Y-48467949D01*
X131240117Y-48450230D01*
X131173466Y-48398353D01*
X131110637Y-48354360D01*
X131088492Y-48332215D01*
X131064186Y-48313297D01*
X131001740Y-48245463D01*
X130944240Y-48187963D01*
X130929727Y-48167236D01*
X130913196Y-48149279D01*
X130858039Y-48064855D01*
X130809266Y-47995200D01*
X130801125Y-47977742D01*
X130791263Y-47962647D01*
X130746504Y-47860607D01*
X130709815Y-47781927D01*
X130706397Y-47769173D01*
X130701712Y-47758491D01*
X130670334Y-47634582D01*
X130648910Y-47554625D01*
X130648288Y-47547525D01*
X130646983Y-47542369D01*
X130631672Y-47357598D01*
X130628400Y-47320200D01*
X130631671Y-47282804D01*
X130646983Y-47098030D01*
X130648289Y-47092872D01*
X130648910Y-47085775D01*
X130670329Y-47005835D01*
X130701712Y-46881908D01*
X130706398Y-46871224D01*
X130709815Y-46858473D01*
X130746497Y-46779808D01*
X130791263Y-46677752D01*
X130801127Y-46662653D01*
X130809266Y-46645200D01*
X130858029Y-46575558D01*
X130913196Y-46491120D01*
X130929730Y-46473159D01*
X130944240Y-46452437D01*
X131001729Y-46394947D01*
X131064186Y-46327102D01*
X131088497Y-46308179D01*
X131110637Y-46286040D01*
X131173453Y-46242055D01*
X131240117Y-46190169D01*
X131272866Y-46172446D01*
X131303400Y-46151066D01*
X131368262Y-46120820D01*
X131436178Y-46084066D01*
X131477512Y-46069875D01*
X131516673Y-46051615D01*
X131580599Y-46034486D01*
X131647040Y-46011677D01*
X131696570Y-46003411D01*
X131743975Y-45990710D01*
X131804338Y-45985428D01*
X131866931Y-45974984D01*
X131923720Y-45974984D01*
X131978400Y-45970200D01*
X132033080Y-45974984D01*
G37*
M02*
