G04 #@! TF.GenerationSoftware,KiCad,Pcbnew,7.0.2-0*
G04 #@! TF.CreationDate,2024-06-02T16:01:14+02:00*
G04 #@! TF.ProjectId,network_player,6e657477-6f72-46b5-9f70-6c617965722e,rev?*
G04 #@! TF.SameCoordinates,Original*
G04 #@! TF.FileFunction,Legend,Bot*
G04 #@! TF.FilePolarity,Positive*
%FSLAX46Y46*%
G04 Gerber Fmt 4.6, Leading zero omitted, Abs format (unit mm)*
G04 Created by KiCad (PCBNEW 7.0.2-0) date 2024-06-02 16:01:14*
%MOMM*%
%LPD*%
G01*
G04 APERTURE LIST*
%ADD10C,0.152400*%
%ADD11C,0.304800*%
%ADD12C,2.700000*%
%ADD13R,1.700000X1.700000*%
%ADD14O,1.700000X1.700000*%
%ADD15O,1.600000X1.000000*%
%ADD16O,2.100000X0.900000*%
%ADD17C,0.650000*%
G04 APERTURE END LIST*
D10*
X126799428Y-105013792D02*
X127186476Y-105013792D01*
X127186476Y-105013792D02*
X127186476Y-104200992D01*
X126180152Y-105013792D02*
X126180152Y-104588040D01*
X126180152Y-104588040D02*
X126218857Y-104510630D01*
X126218857Y-104510630D02*
X126296266Y-104471926D01*
X126296266Y-104471926D02*
X126451085Y-104471926D01*
X126451085Y-104471926D02*
X126528495Y-104510630D01*
X126180152Y-104975088D02*
X126257561Y-105013792D01*
X126257561Y-105013792D02*
X126451085Y-105013792D01*
X126451085Y-105013792D02*
X126528495Y-104975088D01*
X126528495Y-104975088D02*
X126567199Y-104897678D01*
X126567199Y-104897678D02*
X126567199Y-104820268D01*
X126567199Y-104820268D02*
X126528495Y-104742859D01*
X126528495Y-104742859D02*
X126451085Y-104704154D01*
X126451085Y-104704154D02*
X126257561Y-104704154D01*
X126257561Y-104704154D02*
X126180152Y-104665449D01*
X125173829Y-105013792D02*
X125173829Y-104200992D01*
X125173829Y-104200992D02*
X124902895Y-104781564D01*
X124902895Y-104781564D02*
X124631962Y-104200992D01*
X124631962Y-104200992D02*
X124631962Y-105013792D01*
X123896572Y-105013792D02*
X123896572Y-104588040D01*
X123896572Y-104588040D02*
X123935277Y-104510630D01*
X123935277Y-104510630D02*
X124012686Y-104471926D01*
X124012686Y-104471926D02*
X124167505Y-104471926D01*
X124167505Y-104471926D02*
X124244915Y-104510630D01*
X123896572Y-104975088D02*
X123973981Y-105013792D01*
X123973981Y-105013792D02*
X124167505Y-105013792D01*
X124167505Y-105013792D02*
X124244915Y-104975088D01*
X124244915Y-104975088D02*
X124283619Y-104897678D01*
X124283619Y-104897678D02*
X124283619Y-104820268D01*
X124283619Y-104820268D02*
X124244915Y-104742859D01*
X124244915Y-104742859D02*
X124167505Y-104704154D01*
X124167505Y-104704154D02*
X123973981Y-104704154D01*
X123973981Y-104704154D02*
X123896572Y-104665449D01*
X123509525Y-104471926D02*
X123509525Y-105013792D01*
X123509525Y-104549335D02*
X123470820Y-104510630D01*
X123470820Y-104510630D02*
X123393410Y-104471926D01*
X123393410Y-104471926D02*
X123277296Y-104471926D01*
X123277296Y-104471926D02*
X123199887Y-104510630D01*
X123199887Y-104510630D02*
X123161182Y-104588040D01*
X123161182Y-104588040D02*
X123161182Y-105013792D01*
X122425792Y-104471926D02*
X122425792Y-105013792D01*
X122774135Y-104471926D02*
X122774135Y-104897678D01*
X122774135Y-104897678D02*
X122735430Y-104975088D01*
X122735430Y-104975088D02*
X122658020Y-105013792D01*
X122658020Y-105013792D02*
X122541906Y-105013792D01*
X122541906Y-105013792D02*
X122464497Y-104975088D01*
X122464497Y-104975088D02*
X122425792Y-104936383D01*
X122154859Y-104471926D02*
X121845221Y-104471926D01*
X122038745Y-105013792D02*
X122038745Y-104317107D01*
X122038745Y-104317107D02*
X122000040Y-104239697D01*
X122000040Y-104239697D02*
X121922630Y-104200992D01*
X121922630Y-104200992D02*
X121845221Y-104200992D01*
X121225945Y-105013792D02*
X121225945Y-104588040D01*
X121225945Y-104588040D02*
X121264650Y-104510630D01*
X121264650Y-104510630D02*
X121342059Y-104471926D01*
X121342059Y-104471926D02*
X121496878Y-104471926D01*
X121496878Y-104471926D02*
X121574288Y-104510630D01*
X121225945Y-104975088D02*
X121303354Y-105013792D01*
X121303354Y-105013792D02*
X121496878Y-105013792D01*
X121496878Y-105013792D02*
X121574288Y-104975088D01*
X121574288Y-104975088D02*
X121612992Y-104897678D01*
X121612992Y-104897678D02*
X121612992Y-104820268D01*
X121612992Y-104820268D02*
X121574288Y-104742859D01*
X121574288Y-104742859D02*
X121496878Y-104704154D01*
X121496878Y-104704154D02*
X121303354Y-104704154D01*
X121303354Y-104704154D02*
X121225945Y-104665449D01*
X120490555Y-104975088D02*
X120567964Y-105013792D01*
X120567964Y-105013792D02*
X120722783Y-105013792D01*
X120722783Y-105013792D02*
X120800193Y-104975088D01*
X120800193Y-104975088D02*
X120838898Y-104936383D01*
X120838898Y-104936383D02*
X120877602Y-104858973D01*
X120877602Y-104858973D02*
X120877602Y-104626745D01*
X120877602Y-104626745D02*
X120838898Y-104549335D01*
X120838898Y-104549335D02*
X120800193Y-104510630D01*
X120800193Y-104510630D02*
X120722783Y-104471926D01*
X120722783Y-104471926D02*
X120567964Y-104471926D01*
X120567964Y-104471926D02*
X120490555Y-104510630D01*
X120258326Y-104471926D02*
X119948688Y-104471926D01*
X120142212Y-104200992D02*
X120142212Y-104897678D01*
X120142212Y-104897678D02*
X120103507Y-104975088D01*
X120103507Y-104975088D02*
X120026097Y-105013792D01*
X120026097Y-105013792D02*
X119948688Y-105013792D01*
X119329412Y-104471926D02*
X119329412Y-105013792D01*
X119677755Y-104471926D02*
X119677755Y-104897678D01*
X119677755Y-104897678D02*
X119639050Y-104975088D01*
X119639050Y-104975088D02*
X119561640Y-105013792D01*
X119561640Y-105013792D02*
X119445526Y-105013792D01*
X119445526Y-105013792D02*
X119368117Y-104975088D01*
X119368117Y-104975088D02*
X119329412Y-104936383D01*
X118942365Y-105013792D02*
X118942365Y-104471926D01*
X118942365Y-104626745D02*
X118903660Y-104549335D01*
X118903660Y-104549335D02*
X118864955Y-104510630D01*
X118864955Y-104510630D02*
X118787546Y-104471926D01*
X118787546Y-104471926D02*
X118710136Y-104471926D01*
X118129565Y-104975088D02*
X118206974Y-105013792D01*
X118206974Y-105013792D02*
X118361793Y-105013792D01*
X118361793Y-105013792D02*
X118439203Y-104975088D01*
X118439203Y-104975088D02*
X118477907Y-104897678D01*
X118477907Y-104897678D02*
X118477907Y-104588040D01*
X118477907Y-104588040D02*
X118439203Y-104510630D01*
X118439203Y-104510630D02*
X118361793Y-104471926D01*
X118361793Y-104471926D02*
X118206974Y-104471926D01*
X118206974Y-104471926D02*
X118129565Y-104510630D01*
X118129565Y-104510630D02*
X118090860Y-104588040D01*
X118090860Y-104588040D02*
X118090860Y-104665449D01*
X118090860Y-104665449D02*
X118477907Y-104742859D01*
X117123241Y-105013792D02*
X117123241Y-104200992D01*
X117123241Y-104200992D02*
X116929717Y-104200992D01*
X116929717Y-104200992D02*
X116813603Y-104239697D01*
X116813603Y-104239697D02*
X116736193Y-104317107D01*
X116736193Y-104317107D02*
X116697488Y-104394516D01*
X116697488Y-104394516D02*
X116658784Y-104549335D01*
X116658784Y-104549335D02*
X116658784Y-104665449D01*
X116658784Y-104665449D02*
X116697488Y-104820268D01*
X116697488Y-104820268D02*
X116736193Y-104897678D01*
X116736193Y-104897678D02*
X116813603Y-104975088D01*
X116813603Y-104975088D02*
X116929717Y-105013792D01*
X116929717Y-105013792D02*
X117123241Y-105013792D01*
X115962098Y-104471926D02*
X115962098Y-105013792D01*
X116310441Y-104471926D02*
X116310441Y-104897678D01*
X116310441Y-104897678D02*
X116271736Y-104975088D01*
X116271736Y-104975088D02*
X116194326Y-105013792D01*
X116194326Y-105013792D02*
X116078212Y-105013792D01*
X116078212Y-105013792D02*
X116000803Y-104975088D01*
X116000803Y-104975088D02*
X115962098Y-104936383D01*
X114994479Y-104975088D02*
X114878365Y-105013792D01*
X114878365Y-105013792D02*
X114684841Y-105013792D01*
X114684841Y-105013792D02*
X114607432Y-104975088D01*
X114607432Y-104975088D02*
X114568727Y-104936383D01*
X114568727Y-104936383D02*
X114530022Y-104858973D01*
X114530022Y-104858973D02*
X114530022Y-104781564D01*
X114530022Y-104781564D02*
X114568727Y-104704154D01*
X114568727Y-104704154D02*
X114607432Y-104665449D01*
X114607432Y-104665449D02*
X114684841Y-104626745D01*
X114684841Y-104626745D02*
X114839660Y-104588040D01*
X114839660Y-104588040D02*
X114917070Y-104549335D01*
X114917070Y-104549335D02*
X114955775Y-104510630D01*
X114955775Y-104510630D02*
X114994479Y-104433221D01*
X114994479Y-104433221D02*
X114994479Y-104355811D01*
X114994479Y-104355811D02*
X114955775Y-104278402D01*
X114955775Y-104278402D02*
X114917070Y-104239697D01*
X114917070Y-104239697D02*
X114839660Y-104200992D01*
X114839660Y-104200992D02*
X114646137Y-104200992D01*
X114646137Y-104200992D02*
X114530022Y-104239697D01*
X114065565Y-105013792D02*
X114142975Y-104975088D01*
X114142975Y-104975088D02*
X114181680Y-104936383D01*
X114181680Y-104936383D02*
X114220384Y-104858973D01*
X114220384Y-104858973D02*
X114220384Y-104626745D01*
X114220384Y-104626745D02*
X114181680Y-104549335D01*
X114181680Y-104549335D02*
X114142975Y-104510630D01*
X114142975Y-104510630D02*
X114065565Y-104471926D01*
X114065565Y-104471926D02*
X113949451Y-104471926D01*
X113949451Y-104471926D02*
X113872042Y-104510630D01*
X113872042Y-104510630D02*
X113833337Y-104549335D01*
X113833337Y-104549335D02*
X113794632Y-104626745D01*
X113794632Y-104626745D02*
X113794632Y-104858973D01*
X113794632Y-104858973D02*
X113833337Y-104936383D01*
X113833337Y-104936383D02*
X113872042Y-104975088D01*
X113872042Y-104975088D02*
X113949451Y-105013792D01*
X113949451Y-105013792D02*
X114065565Y-105013792D01*
X113446290Y-104471926D02*
X113446290Y-105013792D01*
X113446290Y-104549335D02*
X113407585Y-104510630D01*
X113407585Y-104510630D02*
X113330175Y-104471926D01*
X113330175Y-104471926D02*
X113214061Y-104471926D01*
X113214061Y-104471926D02*
X113136652Y-104510630D01*
X113136652Y-104510630D02*
X113097947Y-104588040D01*
X113097947Y-104588040D02*
X113097947Y-105013792D01*
X127186476Y-106330528D02*
X127186476Y-105517728D01*
X127186476Y-105517728D02*
X126722019Y-106330528D01*
X126722019Y-106330528D02*
X126722019Y-105517728D01*
X126025333Y-106291824D02*
X126102742Y-106330528D01*
X126102742Y-106330528D02*
X126257561Y-106330528D01*
X126257561Y-106330528D02*
X126334971Y-106291824D01*
X126334971Y-106291824D02*
X126373675Y-106214414D01*
X126373675Y-106214414D02*
X126373675Y-105904776D01*
X126373675Y-105904776D02*
X126334971Y-105827366D01*
X126334971Y-105827366D02*
X126257561Y-105788662D01*
X126257561Y-105788662D02*
X126102742Y-105788662D01*
X126102742Y-105788662D02*
X126025333Y-105827366D01*
X126025333Y-105827366D02*
X125986628Y-105904776D01*
X125986628Y-105904776D02*
X125986628Y-105982185D01*
X125986628Y-105982185D02*
X126373675Y-106059595D01*
X125754399Y-105788662D02*
X125444761Y-105788662D01*
X125638285Y-105517728D02*
X125638285Y-106214414D01*
X125638285Y-106214414D02*
X125599580Y-106291824D01*
X125599580Y-106291824D02*
X125522170Y-106330528D01*
X125522170Y-106330528D02*
X125444761Y-106330528D01*
X125251237Y-105788662D02*
X125096418Y-106330528D01*
X125096418Y-106330528D02*
X124941599Y-105943481D01*
X124941599Y-105943481D02*
X124786780Y-106330528D01*
X124786780Y-106330528D02*
X124631961Y-105788662D01*
X124206208Y-106330528D02*
X124283618Y-106291824D01*
X124283618Y-106291824D02*
X124322323Y-106253119D01*
X124322323Y-106253119D02*
X124361027Y-106175709D01*
X124361027Y-106175709D02*
X124361027Y-105943481D01*
X124361027Y-105943481D02*
X124322323Y-105866071D01*
X124322323Y-105866071D02*
X124283618Y-105827366D01*
X124283618Y-105827366D02*
X124206208Y-105788662D01*
X124206208Y-105788662D02*
X124090094Y-105788662D01*
X124090094Y-105788662D02*
X124012685Y-105827366D01*
X124012685Y-105827366D02*
X123973980Y-105866071D01*
X123973980Y-105866071D02*
X123935275Y-105943481D01*
X123935275Y-105943481D02*
X123935275Y-106175709D01*
X123935275Y-106175709D02*
X123973980Y-106253119D01*
X123973980Y-106253119D02*
X124012685Y-106291824D01*
X124012685Y-106291824D02*
X124090094Y-106330528D01*
X124090094Y-106330528D02*
X124206208Y-106330528D01*
X123586933Y-106330528D02*
X123586933Y-105788662D01*
X123586933Y-105943481D02*
X123548228Y-105866071D01*
X123548228Y-105866071D02*
X123509523Y-105827366D01*
X123509523Y-105827366D02*
X123432114Y-105788662D01*
X123432114Y-105788662D02*
X123354704Y-105788662D01*
X123083771Y-106330528D02*
X123083771Y-105517728D01*
X123006361Y-106020890D02*
X122774133Y-106330528D01*
X122774133Y-105788662D02*
X123083771Y-106098300D01*
X121806514Y-106330528D02*
X121806514Y-105517728D01*
X121806514Y-105517728D02*
X121496876Y-105517728D01*
X121496876Y-105517728D02*
X121419466Y-105556433D01*
X121419466Y-105556433D02*
X121380761Y-105595138D01*
X121380761Y-105595138D02*
X121342057Y-105672547D01*
X121342057Y-105672547D02*
X121342057Y-105788662D01*
X121342057Y-105788662D02*
X121380761Y-105866071D01*
X121380761Y-105866071D02*
X121419466Y-105904776D01*
X121419466Y-105904776D02*
X121496876Y-105943481D01*
X121496876Y-105943481D02*
X121806514Y-105943481D01*
X120877599Y-106330528D02*
X120955009Y-106291824D01*
X120955009Y-106291824D02*
X120993714Y-106214414D01*
X120993714Y-106214414D02*
X120993714Y-105517728D01*
X120219619Y-106330528D02*
X120219619Y-105904776D01*
X120219619Y-105904776D02*
X120258324Y-105827366D01*
X120258324Y-105827366D02*
X120335733Y-105788662D01*
X120335733Y-105788662D02*
X120490552Y-105788662D01*
X120490552Y-105788662D02*
X120567962Y-105827366D01*
X120219619Y-106291824D02*
X120297028Y-106330528D01*
X120297028Y-106330528D02*
X120490552Y-106330528D01*
X120490552Y-106330528D02*
X120567962Y-106291824D01*
X120567962Y-106291824D02*
X120606666Y-106214414D01*
X120606666Y-106214414D02*
X120606666Y-106137004D01*
X120606666Y-106137004D02*
X120567962Y-106059595D01*
X120567962Y-106059595D02*
X120490552Y-106020890D01*
X120490552Y-106020890D02*
X120297028Y-106020890D01*
X120297028Y-106020890D02*
X120219619Y-105982185D01*
X119909981Y-105788662D02*
X119716457Y-106330528D01*
X119522934Y-105788662D02*
X119716457Y-106330528D01*
X119716457Y-106330528D02*
X119793867Y-106524052D01*
X119793867Y-106524052D02*
X119832572Y-106562757D01*
X119832572Y-106562757D02*
X119909981Y-106601462D01*
X118903658Y-106291824D02*
X118981067Y-106330528D01*
X118981067Y-106330528D02*
X119135886Y-106330528D01*
X119135886Y-106330528D02*
X119213296Y-106291824D01*
X119213296Y-106291824D02*
X119252000Y-106214414D01*
X119252000Y-106214414D02*
X119252000Y-105904776D01*
X119252000Y-105904776D02*
X119213296Y-105827366D01*
X119213296Y-105827366D02*
X119135886Y-105788662D01*
X119135886Y-105788662D02*
X118981067Y-105788662D01*
X118981067Y-105788662D02*
X118903658Y-105827366D01*
X118903658Y-105827366D02*
X118864953Y-105904776D01*
X118864953Y-105904776D02*
X118864953Y-105982185D01*
X118864953Y-105982185D02*
X119252000Y-106059595D01*
X118516610Y-106330528D02*
X118516610Y-105788662D01*
X118516610Y-105943481D02*
X118477905Y-105866071D01*
X118477905Y-105866071D02*
X118439200Y-105827366D01*
X118439200Y-105827366D02*
X118361791Y-105788662D01*
X118361791Y-105788662D02*
X118284381Y-105788662D01*
X117471581Y-105788662D02*
X117278057Y-106330528D01*
X117278057Y-106330528D02*
X117084534Y-105788662D01*
X116349143Y-106330528D02*
X116813600Y-106330528D01*
X116581372Y-106330528D02*
X116581372Y-105517728D01*
X116581372Y-105517728D02*
X116658781Y-105633843D01*
X116658781Y-105633843D02*
X116736191Y-105711252D01*
X116736191Y-105711252D02*
X116813600Y-105749957D01*
X116000801Y-106253119D02*
X115962096Y-106291824D01*
X115962096Y-106291824D02*
X116000801Y-106330528D01*
X116000801Y-106330528D02*
X116039505Y-106291824D01*
X116039505Y-106291824D02*
X116000801Y-106253119D01*
X116000801Y-106253119D02*
X116000801Y-106330528D01*
X115188000Y-106330528D02*
X115652457Y-106330528D01*
X115420229Y-106330528D02*
X115420229Y-105517728D01*
X115420229Y-105517728D02*
X115497638Y-105633843D01*
X115497638Y-105633843D02*
X115575048Y-105711252D01*
X115575048Y-105711252D02*
X115652457Y-105749957D01*
D11*
X125979714Y-44229182D02*
X125254000Y-44229182D01*
X126124857Y-44664611D02*
X125616857Y-43140611D01*
X125616857Y-43140611D02*
X125108857Y-44664611D01*
X123947714Y-43648611D02*
X123947714Y-44882325D01*
X123947714Y-44882325D02*
X124020285Y-45027468D01*
X124020285Y-45027468D02*
X124092856Y-45100040D01*
X124092856Y-45100040D02*
X124237999Y-45172611D01*
X124237999Y-45172611D02*
X124455714Y-45172611D01*
X124455714Y-45172611D02*
X124600856Y-45100040D01*
X123947714Y-44592040D02*
X124092856Y-44664611D01*
X124092856Y-44664611D02*
X124383142Y-44664611D01*
X124383142Y-44664611D02*
X124528285Y-44592040D01*
X124528285Y-44592040D02*
X124600856Y-44519468D01*
X124600856Y-44519468D02*
X124673428Y-44374325D01*
X124673428Y-44374325D02*
X124673428Y-43938897D01*
X124673428Y-43938897D02*
X124600856Y-43793754D01*
X124600856Y-43793754D02*
X124528285Y-43721182D01*
X124528285Y-43721182D02*
X124383142Y-43648611D01*
X124383142Y-43648611D02*
X124092856Y-43648611D01*
X124092856Y-43648611D02*
X123947714Y-43721182D01*
X122568857Y-43648611D02*
X122568857Y-44664611D01*
X123221999Y-43648611D02*
X123221999Y-44446897D01*
X123221999Y-44446897D02*
X123149428Y-44592040D01*
X123149428Y-44592040D02*
X123004285Y-44664611D01*
X123004285Y-44664611D02*
X122786571Y-44664611D01*
X122786571Y-44664611D02*
X122641428Y-44592040D01*
X122641428Y-44592040D02*
X122568857Y-44519468D01*
X121843142Y-44664611D02*
X121843142Y-43648611D01*
X121843142Y-43140611D02*
X121915714Y-43213182D01*
X121915714Y-43213182D02*
X121843142Y-43285754D01*
X121843142Y-43285754D02*
X121770571Y-43213182D01*
X121770571Y-43213182D02*
X121843142Y-43140611D01*
X121843142Y-43140611D02*
X121843142Y-43285754D01*
X121117428Y-44664611D02*
X121117428Y-43648611D01*
X121117428Y-43938897D02*
X121044857Y-43793754D01*
X121044857Y-43793754D02*
X120972286Y-43721182D01*
X120972286Y-43721182D02*
X120827143Y-43648611D01*
X120827143Y-43648611D02*
X120682000Y-43648611D01*
X120173999Y-44664611D02*
X120173999Y-43648611D01*
X120173999Y-43938897D02*
X120101428Y-43793754D01*
X120101428Y-43793754D02*
X120028857Y-43721182D01*
X120028857Y-43721182D02*
X119883714Y-43648611D01*
X119883714Y-43648611D02*
X119738571Y-43648611D01*
X118649999Y-44592040D02*
X118795142Y-44664611D01*
X118795142Y-44664611D02*
X119085428Y-44664611D01*
X119085428Y-44664611D02*
X119230570Y-44592040D01*
X119230570Y-44592040D02*
X119303142Y-44446897D01*
X119303142Y-44446897D02*
X119303142Y-43866325D01*
X119303142Y-43866325D02*
X119230570Y-43721182D01*
X119230570Y-43721182D02*
X119085428Y-43648611D01*
X119085428Y-43648611D02*
X118795142Y-43648611D01*
X118795142Y-43648611D02*
X118649999Y-43721182D01*
X118649999Y-43721182D02*
X118577428Y-43866325D01*
X118577428Y-43866325D02*
X118577428Y-44011468D01*
X118577428Y-44011468D02*
X119303142Y-44156611D01*
X116763141Y-44664611D02*
X116763141Y-43140611D01*
X116763141Y-43140611D02*
X115892284Y-44664611D01*
X115892284Y-44664611D02*
X115892284Y-43140611D01*
X115166570Y-44519468D02*
X115093999Y-44592040D01*
X115093999Y-44592040D02*
X115166570Y-44664611D01*
X115166570Y-44664611D02*
X115239142Y-44592040D01*
X115239142Y-44592040D02*
X115166570Y-44519468D01*
X115166570Y-44519468D02*
X115166570Y-44664611D01*
X125471714Y-47714062D02*
X125544285Y-47641491D01*
X125544285Y-47641491D02*
X125689428Y-47423777D01*
X125689428Y-47423777D02*
X125762000Y-47278634D01*
X125762000Y-47278634D02*
X125834571Y-47060920D01*
X125834571Y-47060920D02*
X125907142Y-46698062D01*
X125907142Y-46698062D02*
X125907142Y-46407777D01*
X125907142Y-46407777D02*
X125834571Y-46044920D01*
X125834571Y-46044920D02*
X125762000Y-45827205D01*
X125762000Y-45827205D02*
X125689428Y-45682062D01*
X125689428Y-45682062D02*
X125544285Y-45464348D01*
X125544285Y-45464348D02*
X125471714Y-45391777D01*
X124238000Y-47060920D02*
X124383142Y-47133491D01*
X124383142Y-47133491D02*
X124673428Y-47133491D01*
X124673428Y-47133491D02*
X124818571Y-47060920D01*
X124818571Y-47060920D02*
X124891142Y-46988348D01*
X124891142Y-46988348D02*
X124963714Y-46843205D01*
X124963714Y-46843205D02*
X124963714Y-46407777D01*
X124963714Y-46407777D02*
X124891142Y-46262634D01*
X124891142Y-46262634D02*
X124818571Y-46190062D01*
X124818571Y-46190062D02*
X124673428Y-46117491D01*
X124673428Y-46117491D02*
X124383142Y-46117491D01*
X124383142Y-46117491D02*
X124238000Y-46190062D01*
X123729999Y-47714062D02*
X123657428Y-47641491D01*
X123657428Y-47641491D02*
X123512285Y-47423777D01*
X123512285Y-47423777D02*
X123439714Y-47278634D01*
X123439714Y-47278634D02*
X123367142Y-47060920D01*
X123367142Y-47060920D02*
X123294571Y-46698062D01*
X123294571Y-46698062D02*
X123294571Y-46407777D01*
X123294571Y-46407777D02*
X123367142Y-46044920D01*
X123367142Y-46044920D02*
X123439714Y-45827205D01*
X123439714Y-45827205D02*
X123512285Y-45682062D01*
X123512285Y-45682062D02*
X123657428Y-45464348D01*
X123657428Y-45464348D02*
X123729999Y-45391777D01*
X121480285Y-45754634D02*
X121407713Y-45682062D01*
X121407713Y-45682062D02*
X121262571Y-45609491D01*
X121262571Y-45609491D02*
X120899713Y-45609491D01*
X120899713Y-45609491D02*
X120754571Y-45682062D01*
X120754571Y-45682062D02*
X120681999Y-45754634D01*
X120681999Y-45754634D02*
X120609428Y-45899777D01*
X120609428Y-45899777D02*
X120609428Y-46044920D01*
X120609428Y-46044920D02*
X120681999Y-46262634D01*
X120681999Y-46262634D02*
X121552856Y-47133491D01*
X121552856Y-47133491D02*
X120609428Y-47133491D01*
X119665999Y-45609491D02*
X119520856Y-45609491D01*
X119520856Y-45609491D02*
X119375713Y-45682062D01*
X119375713Y-45682062D02*
X119303142Y-45754634D01*
X119303142Y-45754634D02*
X119230570Y-45899777D01*
X119230570Y-45899777D02*
X119157999Y-46190062D01*
X119157999Y-46190062D02*
X119157999Y-46552920D01*
X119157999Y-46552920D02*
X119230570Y-46843205D01*
X119230570Y-46843205D02*
X119303142Y-46988348D01*
X119303142Y-46988348D02*
X119375713Y-47060920D01*
X119375713Y-47060920D02*
X119520856Y-47133491D01*
X119520856Y-47133491D02*
X119665999Y-47133491D01*
X119665999Y-47133491D02*
X119811142Y-47060920D01*
X119811142Y-47060920D02*
X119883713Y-46988348D01*
X119883713Y-46988348D02*
X119956284Y-46843205D01*
X119956284Y-46843205D02*
X120028856Y-46552920D01*
X120028856Y-46552920D02*
X120028856Y-46190062D01*
X120028856Y-46190062D02*
X119956284Y-45899777D01*
X119956284Y-45899777D02*
X119883713Y-45754634D01*
X119883713Y-45754634D02*
X119811142Y-45682062D01*
X119811142Y-45682062D02*
X119665999Y-45609491D01*
X118577427Y-45754634D02*
X118504855Y-45682062D01*
X118504855Y-45682062D02*
X118359713Y-45609491D01*
X118359713Y-45609491D02*
X117996855Y-45609491D01*
X117996855Y-45609491D02*
X117851713Y-45682062D01*
X117851713Y-45682062D02*
X117779141Y-45754634D01*
X117779141Y-45754634D02*
X117706570Y-45899777D01*
X117706570Y-45899777D02*
X117706570Y-46044920D01*
X117706570Y-46044920D02*
X117779141Y-46262634D01*
X117779141Y-46262634D02*
X118649998Y-47133491D01*
X118649998Y-47133491D02*
X117706570Y-47133491D01*
X116400284Y-46117491D02*
X116400284Y-47133491D01*
X116763141Y-45536920D02*
X117125998Y-46625491D01*
X117125998Y-46625491D02*
X116182569Y-46625491D01*
%LPC*%
D12*
X132003800Y-105333800D03*
X108991400Y-105333800D03*
X131978400Y-47320200D03*
D13*
X130720000Y-52210000D03*
D14*
X133260000Y-52210000D03*
X130720000Y-54750000D03*
X133260000Y-54750000D03*
X130720000Y-57290000D03*
X133260000Y-57290000D03*
X130720000Y-59830000D03*
X133260000Y-59830000D03*
X130720000Y-62370000D03*
X133260000Y-62370000D03*
X130720000Y-64910000D03*
X133260000Y-64910000D03*
X130720000Y-67450000D03*
X133260000Y-67450000D03*
X130720000Y-69990000D03*
X133260000Y-69990000D03*
X130720000Y-72530000D03*
X133260000Y-72530000D03*
X130720000Y-75070000D03*
X133260000Y-75070000D03*
X130720000Y-77610000D03*
X133260000Y-77610000D03*
X130720000Y-80150000D03*
X133260000Y-80150000D03*
X130720000Y-82690000D03*
X133260000Y-82690000D03*
X130720000Y-85230000D03*
X133260000Y-85230000D03*
X130720000Y-87770000D03*
X133260000Y-87770000D03*
X130720000Y-90310000D03*
X133260000Y-90310000D03*
X130720000Y-92850000D03*
X133260000Y-92850000D03*
X130720000Y-95390000D03*
X133260000Y-95390000D03*
X130720000Y-97930000D03*
X133260000Y-97930000D03*
X130720000Y-100470000D03*
X133260000Y-100470000D03*
D12*
X108991400Y-47345600D03*
D15*
X108670000Y-71900000D03*
D16*
X112850000Y-71900000D03*
D15*
X108670000Y-63260000D03*
D16*
X112850000Y-63260000D03*
D17*
X112350000Y-70470000D03*
X112350000Y-64690000D03*
%LPD*%
M02*
