G04 #@! TF.GenerationSoftware,KiCad,Pcbnew,7.0.2-0*
G04 #@! TF.CreationDate,2024-01-15T23:03:40+01:00*
G04 #@! TF.ProjectId,network_player,6e657477-6f72-46b5-9f70-6c617965722e,rev?*
G04 #@! TF.SameCoordinates,Original*
G04 #@! TF.FileFunction,Legend,Bot*
G04 #@! TF.FilePolarity,Positive*
%FSLAX46Y46*%
G04 Gerber Fmt 4.6, Leading zero omitted, Abs format (unit mm)*
G04 Created by KiCad (PCBNEW 7.0.2-0) date 2024-01-15 23:03:40*
%MOMM*%
%LPD*%
G01*
G04 APERTURE LIST*
%ADD10C,0.304800*%
%ADD11C,0.250000*%
%ADD12C,2.700000*%
%ADD13R,1.700000X1.700000*%
%ADD14O,1.700000X1.700000*%
%ADD15C,0.650000*%
%ADD16O,2.100000X0.900000*%
%ADD17O,1.600000X1.000000*%
G04 APERTURE END LIST*
D10*
X125979714Y-44229182D02*
X125254000Y-44229182D01*
X126124857Y-44664611D02*
X125616857Y-43140611D01*
X125616857Y-43140611D02*
X125108857Y-44664611D01*
X123947714Y-43648611D02*
X123947714Y-44882325D01*
X123947714Y-44882325D02*
X124020285Y-45027468D01*
X124020285Y-45027468D02*
X124092856Y-45100040D01*
X124092856Y-45100040D02*
X124237999Y-45172611D01*
X124237999Y-45172611D02*
X124455714Y-45172611D01*
X124455714Y-45172611D02*
X124600856Y-45100040D01*
X123947714Y-44592040D02*
X124092856Y-44664611D01*
X124092856Y-44664611D02*
X124383142Y-44664611D01*
X124383142Y-44664611D02*
X124528285Y-44592040D01*
X124528285Y-44592040D02*
X124600856Y-44519468D01*
X124600856Y-44519468D02*
X124673428Y-44374325D01*
X124673428Y-44374325D02*
X124673428Y-43938897D01*
X124673428Y-43938897D02*
X124600856Y-43793754D01*
X124600856Y-43793754D02*
X124528285Y-43721182D01*
X124528285Y-43721182D02*
X124383142Y-43648611D01*
X124383142Y-43648611D02*
X124092856Y-43648611D01*
X124092856Y-43648611D02*
X123947714Y-43721182D01*
X122568857Y-43648611D02*
X122568857Y-44664611D01*
X123221999Y-43648611D02*
X123221999Y-44446897D01*
X123221999Y-44446897D02*
X123149428Y-44592040D01*
X123149428Y-44592040D02*
X123004285Y-44664611D01*
X123004285Y-44664611D02*
X122786571Y-44664611D01*
X122786571Y-44664611D02*
X122641428Y-44592040D01*
X122641428Y-44592040D02*
X122568857Y-44519468D01*
X121843142Y-44664611D02*
X121843142Y-43648611D01*
X121843142Y-43140611D02*
X121915714Y-43213182D01*
X121915714Y-43213182D02*
X121843142Y-43285754D01*
X121843142Y-43285754D02*
X121770571Y-43213182D01*
X121770571Y-43213182D02*
X121843142Y-43140611D01*
X121843142Y-43140611D02*
X121843142Y-43285754D01*
X121117428Y-44664611D02*
X121117428Y-43648611D01*
X121117428Y-43938897D02*
X121044857Y-43793754D01*
X121044857Y-43793754D02*
X120972286Y-43721182D01*
X120972286Y-43721182D02*
X120827143Y-43648611D01*
X120827143Y-43648611D02*
X120682000Y-43648611D01*
X120173999Y-44664611D02*
X120173999Y-43648611D01*
X120173999Y-43938897D02*
X120101428Y-43793754D01*
X120101428Y-43793754D02*
X120028857Y-43721182D01*
X120028857Y-43721182D02*
X119883714Y-43648611D01*
X119883714Y-43648611D02*
X119738571Y-43648611D01*
X118649999Y-44592040D02*
X118795142Y-44664611D01*
X118795142Y-44664611D02*
X119085428Y-44664611D01*
X119085428Y-44664611D02*
X119230570Y-44592040D01*
X119230570Y-44592040D02*
X119303142Y-44446897D01*
X119303142Y-44446897D02*
X119303142Y-43866325D01*
X119303142Y-43866325D02*
X119230570Y-43721182D01*
X119230570Y-43721182D02*
X119085428Y-43648611D01*
X119085428Y-43648611D02*
X118795142Y-43648611D01*
X118795142Y-43648611D02*
X118649999Y-43721182D01*
X118649999Y-43721182D02*
X118577428Y-43866325D01*
X118577428Y-43866325D02*
X118577428Y-44011468D01*
X118577428Y-44011468D02*
X119303142Y-44156611D01*
X116763141Y-44664611D02*
X116763141Y-43140611D01*
X116763141Y-43140611D02*
X115892284Y-44664611D01*
X115892284Y-44664611D02*
X115892284Y-43140611D01*
X115166570Y-44519468D02*
X115093999Y-44592040D01*
X115093999Y-44592040D02*
X115166570Y-44664611D01*
X115166570Y-44664611D02*
X115239142Y-44592040D01*
X115239142Y-44592040D02*
X115166570Y-44519468D01*
X115166570Y-44519468D02*
X115166570Y-44664611D01*
X125471714Y-47714062D02*
X125544285Y-47641491D01*
X125544285Y-47641491D02*
X125689428Y-47423777D01*
X125689428Y-47423777D02*
X125762000Y-47278634D01*
X125762000Y-47278634D02*
X125834571Y-47060920D01*
X125834571Y-47060920D02*
X125907142Y-46698062D01*
X125907142Y-46698062D02*
X125907142Y-46407777D01*
X125907142Y-46407777D02*
X125834571Y-46044920D01*
X125834571Y-46044920D02*
X125762000Y-45827205D01*
X125762000Y-45827205D02*
X125689428Y-45682062D01*
X125689428Y-45682062D02*
X125544285Y-45464348D01*
X125544285Y-45464348D02*
X125471714Y-45391777D01*
X124238000Y-47060920D02*
X124383142Y-47133491D01*
X124383142Y-47133491D02*
X124673428Y-47133491D01*
X124673428Y-47133491D02*
X124818571Y-47060920D01*
X124818571Y-47060920D02*
X124891142Y-46988348D01*
X124891142Y-46988348D02*
X124963714Y-46843205D01*
X124963714Y-46843205D02*
X124963714Y-46407777D01*
X124963714Y-46407777D02*
X124891142Y-46262634D01*
X124891142Y-46262634D02*
X124818571Y-46190062D01*
X124818571Y-46190062D02*
X124673428Y-46117491D01*
X124673428Y-46117491D02*
X124383142Y-46117491D01*
X124383142Y-46117491D02*
X124238000Y-46190062D01*
X123729999Y-47714062D02*
X123657428Y-47641491D01*
X123657428Y-47641491D02*
X123512285Y-47423777D01*
X123512285Y-47423777D02*
X123439714Y-47278634D01*
X123439714Y-47278634D02*
X123367142Y-47060920D01*
X123367142Y-47060920D02*
X123294571Y-46698062D01*
X123294571Y-46698062D02*
X123294571Y-46407777D01*
X123294571Y-46407777D02*
X123367142Y-46044920D01*
X123367142Y-46044920D02*
X123439714Y-45827205D01*
X123439714Y-45827205D02*
X123512285Y-45682062D01*
X123512285Y-45682062D02*
X123657428Y-45464348D01*
X123657428Y-45464348D02*
X123729999Y-45391777D01*
X121480285Y-45754634D02*
X121407713Y-45682062D01*
X121407713Y-45682062D02*
X121262571Y-45609491D01*
X121262571Y-45609491D02*
X120899713Y-45609491D01*
X120899713Y-45609491D02*
X120754571Y-45682062D01*
X120754571Y-45682062D02*
X120681999Y-45754634D01*
X120681999Y-45754634D02*
X120609428Y-45899777D01*
X120609428Y-45899777D02*
X120609428Y-46044920D01*
X120609428Y-46044920D02*
X120681999Y-46262634D01*
X120681999Y-46262634D02*
X121552856Y-47133491D01*
X121552856Y-47133491D02*
X120609428Y-47133491D01*
X119665999Y-45609491D02*
X119520856Y-45609491D01*
X119520856Y-45609491D02*
X119375713Y-45682062D01*
X119375713Y-45682062D02*
X119303142Y-45754634D01*
X119303142Y-45754634D02*
X119230570Y-45899777D01*
X119230570Y-45899777D02*
X119157999Y-46190062D01*
X119157999Y-46190062D02*
X119157999Y-46552920D01*
X119157999Y-46552920D02*
X119230570Y-46843205D01*
X119230570Y-46843205D02*
X119303142Y-46988348D01*
X119303142Y-46988348D02*
X119375713Y-47060920D01*
X119375713Y-47060920D02*
X119520856Y-47133491D01*
X119520856Y-47133491D02*
X119665999Y-47133491D01*
X119665999Y-47133491D02*
X119811142Y-47060920D01*
X119811142Y-47060920D02*
X119883713Y-46988348D01*
X119883713Y-46988348D02*
X119956284Y-46843205D01*
X119956284Y-46843205D02*
X120028856Y-46552920D01*
X120028856Y-46552920D02*
X120028856Y-46190062D01*
X120028856Y-46190062D02*
X119956284Y-45899777D01*
X119956284Y-45899777D02*
X119883713Y-45754634D01*
X119883713Y-45754634D02*
X119811142Y-45682062D01*
X119811142Y-45682062D02*
X119665999Y-45609491D01*
X118577427Y-45754634D02*
X118504855Y-45682062D01*
X118504855Y-45682062D02*
X118359713Y-45609491D01*
X118359713Y-45609491D02*
X117996855Y-45609491D01*
X117996855Y-45609491D02*
X117851713Y-45682062D01*
X117851713Y-45682062D02*
X117779141Y-45754634D01*
X117779141Y-45754634D02*
X117706570Y-45899777D01*
X117706570Y-45899777D02*
X117706570Y-46044920D01*
X117706570Y-46044920D02*
X117779141Y-46262634D01*
X117779141Y-46262634D02*
X118649998Y-47133491D01*
X118649998Y-47133491D02*
X117706570Y-47133491D01*
X116400284Y-46117491D02*
X116400284Y-47133491D01*
X116763141Y-45536920D02*
X117125998Y-46625491D01*
X117125998Y-46625491D02*
X116182569Y-46625491D01*
D11*
X128415714Y-104117619D02*
X128891904Y-104117619D01*
X128891904Y-104117619D02*
X128891904Y-103117619D01*
X127653809Y-104117619D02*
X127653809Y-103593809D01*
X127653809Y-103593809D02*
X127701428Y-103498571D01*
X127701428Y-103498571D02*
X127796666Y-103450952D01*
X127796666Y-103450952D02*
X127987142Y-103450952D01*
X127987142Y-103450952D02*
X128082380Y-103498571D01*
X127653809Y-104070000D02*
X127749047Y-104117619D01*
X127749047Y-104117619D02*
X127987142Y-104117619D01*
X127987142Y-104117619D02*
X128082380Y-104070000D01*
X128082380Y-104070000D02*
X128129999Y-103974761D01*
X128129999Y-103974761D02*
X128129999Y-103879523D01*
X128129999Y-103879523D02*
X128082380Y-103784285D01*
X128082380Y-103784285D02*
X127987142Y-103736666D01*
X127987142Y-103736666D02*
X127749047Y-103736666D01*
X127749047Y-103736666D02*
X127653809Y-103689047D01*
X126415713Y-104117619D02*
X126415713Y-103117619D01*
X126415713Y-103117619D02*
X126082380Y-103831904D01*
X126082380Y-103831904D02*
X125749047Y-103117619D01*
X125749047Y-103117619D02*
X125749047Y-104117619D01*
X124844285Y-104117619D02*
X124844285Y-103593809D01*
X124844285Y-103593809D02*
X124891904Y-103498571D01*
X124891904Y-103498571D02*
X124987142Y-103450952D01*
X124987142Y-103450952D02*
X125177618Y-103450952D01*
X125177618Y-103450952D02*
X125272856Y-103498571D01*
X124844285Y-104070000D02*
X124939523Y-104117619D01*
X124939523Y-104117619D02*
X125177618Y-104117619D01*
X125177618Y-104117619D02*
X125272856Y-104070000D01*
X125272856Y-104070000D02*
X125320475Y-103974761D01*
X125320475Y-103974761D02*
X125320475Y-103879523D01*
X125320475Y-103879523D02*
X125272856Y-103784285D01*
X125272856Y-103784285D02*
X125177618Y-103736666D01*
X125177618Y-103736666D02*
X124939523Y-103736666D01*
X124939523Y-103736666D02*
X124844285Y-103689047D01*
X124368094Y-103450952D02*
X124368094Y-104117619D01*
X124368094Y-103546190D02*
X124320475Y-103498571D01*
X124320475Y-103498571D02*
X124225237Y-103450952D01*
X124225237Y-103450952D02*
X124082380Y-103450952D01*
X124082380Y-103450952D02*
X123987142Y-103498571D01*
X123987142Y-103498571D02*
X123939523Y-103593809D01*
X123939523Y-103593809D02*
X123939523Y-104117619D01*
X123034761Y-103450952D02*
X123034761Y-104117619D01*
X123463332Y-103450952D02*
X123463332Y-103974761D01*
X123463332Y-103974761D02*
X123415713Y-104070000D01*
X123415713Y-104070000D02*
X123320475Y-104117619D01*
X123320475Y-104117619D02*
X123177618Y-104117619D01*
X123177618Y-104117619D02*
X123082380Y-104070000D01*
X123082380Y-104070000D02*
X123034761Y-104022380D01*
X122701427Y-103450952D02*
X122320475Y-103450952D01*
X122558570Y-104117619D02*
X122558570Y-103260476D01*
X122558570Y-103260476D02*
X122510951Y-103165238D01*
X122510951Y-103165238D02*
X122415713Y-103117619D01*
X122415713Y-103117619D02*
X122320475Y-103117619D01*
X121558570Y-104117619D02*
X121558570Y-103593809D01*
X121558570Y-103593809D02*
X121606189Y-103498571D01*
X121606189Y-103498571D02*
X121701427Y-103450952D01*
X121701427Y-103450952D02*
X121891903Y-103450952D01*
X121891903Y-103450952D02*
X121987141Y-103498571D01*
X121558570Y-104070000D02*
X121653808Y-104117619D01*
X121653808Y-104117619D02*
X121891903Y-104117619D01*
X121891903Y-104117619D02*
X121987141Y-104070000D01*
X121987141Y-104070000D02*
X122034760Y-103974761D01*
X122034760Y-103974761D02*
X122034760Y-103879523D01*
X122034760Y-103879523D02*
X121987141Y-103784285D01*
X121987141Y-103784285D02*
X121891903Y-103736666D01*
X121891903Y-103736666D02*
X121653808Y-103736666D01*
X121653808Y-103736666D02*
X121558570Y-103689047D01*
X120653808Y-104070000D02*
X120749046Y-104117619D01*
X120749046Y-104117619D02*
X120939522Y-104117619D01*
X120939522Y-104117619D02*
X121034760Y-104070000D01*
X121034760Y-104070000D02*
X121082379Y-104022380D01*
X121082379Y-104022380D02*
X121129998Y-103927142D01*
X121129998Y-103927142D02*
X121129998Y-103641428D01*
X121129998Y-103641428D02*
X121082379Y-103546190D01*
X121082379Y-103546190D02*
X121034760Y-103498571D01*
X121034760Y-103498571D02*
X120939522Y-103450952D01*
X120939522Y-103450952D02*
X120749046Y-103450952D01*
X120749046Y-103450952D02*
X120653808Y-103498571D01*
X120368093Y-103450952D02*
X119987141Y-103450952D01*
X120225236Y-103117619D02*
X120225236Y-103974761D01*
X120225236Y-103974761D02*
X120177617Y-104070000D01*
X120177617Y-104070000D02*
X120082379Y-104117619D01*
X120082379Y-104117619D02*
X119987141Y-104117619D01*
X119225236Y-103450952D02*
X119225236Y-104117619D01*
X119653807Y-103450952D02*
X119653807Y-103974761D01*
X119653807Y-103974761D02*
X119606188Y-104070000D01*
X119606188Y-104070000D02*
X119510950Y-104117619D01*
X119510950Y-104117619D02*
X119368093Y-104117619D01*
X119368093Y-104117619D02*
X119272855Y-104070000D01*
X119272855Y-104070000D02*
X119225236Y-104022380D01*
X118749045Y-104117619D02*
X118749045Y-103450952D01*
X118749045Y-103641428D02*
X118701426Y-103546190D01*
X118701426Y-103546190D02*
X118653807Y-103498571D01*
X118653807Y-103498571D02*
X118558569Y-103450952D01*
X118558569Y-103450952D02*
X118463331Y-103450952D01*
X117749045Y-104070000D02*
X117844283Y-104117619D01*
X117844283Y-104117619D02*
X118034759Y-104117619D01*
X118034759Y-104117619D02*
X118129997Y-104070000D01*
X118129997Y-104070000D02*
X118177616Y-103974761D01*
X118177616Y-103974761D02*
X118177616Y-103593809D01*
X118177616Y-103593809D02*
X118129997Y-103498571D01*
X118129997Y-103498571D02*
X118034759Y-103450952D01*
X118034759Y-103450952D02*
X117844283Y-103450952D01*
X117844283Y-103450952D02*
X117749045Y-103498571D01*
X117749045Y-103498571D02*
X117701426Y-103593809D01*
X117701426Y-103593809D02*
X117701426Y-103689047D01*
X117701426Y-103689047D02*
X118177616Y-103784285D01*
X116082378Y-104117619D02*
X116082378Y-103117619D01*
X116082378Y-104070000D02*
X116177616Y-104117619D01*
X116177616Y-104117619D02*
X116368092Y-104117619D01*
X116368092Y-104117619D02*
X116463330Y-104070000D01*
X116463330Y-104070000D02*
X116510949Y-104022380D01*
X116510949Y-104022380D02*
X116558568Y-103927142D01*
X116558568Y-103927142D02*
X116558568Y-103641428D01*
X116558568Y-103641428D02*
X116510949Y-103546190D01*
X116510949Y-103546190D02*
X116463330Y-103498571D01*
X116463330Y-103498571D02*
X116368092Y-103450952D01*
X116368092Y-103450952D02*
X116177616Y-103450952D01*
X116177616Y-103450952D02*
X116082378Y-103498571D01*
X115177616Y-103450952D02*
X115177616Y-104117619D01*
X115606187Y-103450952D02*
X115606187Y-103974761D01*
X115606187Y-103974761D02*
X115558568Y-104070000D01*
X115558568Y-104070000D02*
X115463330Y-104117619D01*
X115463330Y-104117619D02*
X115320473Y-104117619D01*
X115320473Y-104117619D02*
X115225235Y-104070000D01*
X115225235Y-104070000D02*
X115177616Y-104022380D01*
X113987139Y-104070000D02*
X113844282Y-104117619D01*
X113844282Y-104117619D02*
X113606187Y-104117619D01*
X113606187Y-104117619D02*
X113510949Y-104070000D01*
X113510949Y-104070000D02*
X113463330Y-104022380D01*
X113463330Y-104022380D02*
X113415711Y-103927142D01*
X113415711Y-103927142D02*
X113415711Y-103831904D01*
X113415711Y-103831904D02*
X113463330Y-103736666D01*
X113463330Y-103736666D02*
X113510949Y-103689047D01*
X113510949Y-103689047D02*
X113606187Y-103641428D01*
X113606187Y-103641428D02*
X113796663Y-103593809D01*
X113796663Y-103593809D02*
X113891901Y-103546190D01*
X113891901Y-103546190D02*
X113939520Y-103498571D01*
X113939520Y-103498571D02*
X113987139Y-103403333D01*
X113987139Y-103403333D02*
X113987139Y-103308095D01*
X113987139Y-103308095D02*
X113939520Y-103212857D01*
X113939520Y-103212857D02*
X113891901Y-103165238D01*
X113891901Y-103165238D02*
X113796663Y-103117619D01*
X113796663Y-103117619D02*
X113558568Y-103117619D01*
X113558568Y-103117619D02*
X113415711Y-103165238D01*
X112844282Y-104117619D02*
X112939520Y-104070000D01*
X112939520Y-104070000D02*
X112987139Y-104022380D01*
X112987139Y-104022380D02*
X113034758Y-103927142D01*
X113034758Y-103927142D02*
X113034758Y-103641428D01*
X113034758Y-103641428D02*
X112987139Y-103546190D01*
X112987139Y-103546190D02*
X112939520Y-103498571D01*
X112939520Y-103498571D02*
X112844282Y-103450952D01*
X112844282Y-103450952D02*
X112701425Y-103450952D01*
X112701425Y-103450952D02*
X112606187Y-103498571D01*
X112606187Y-103498571D02*
X112558568Y-103546190D01*
X112558568Y-103546190D02*
X112510949Y-103641428D01*
X112510949Y-103641428D02*
X112510949Y-103927142D01*
X112510949Y-103927142D02*
X112558568Y-104022380D01*
X112558568Y-104022380D02*
X112606187Y-104070000D01*
X112606187Y-104070000D02*
X112701425Y-104117619D01*
X112701425Y-104117619D02*
X112844282Y-104117619D01*
X112082377Y-103450952D02*
X112082377Y-104117619D01*
X112082377Y-103546190D02*
X112034758Y-103498571D01*
X112034758Y-103498571D02*
X111939520Y-103450952D01*
X111939520Y-103450952D02*
X111796663Y-103450952D01*
X111796663Y-103450952D02*
X111701425Y-103498571D01*
X111701425Y-103498571D02*
X111653806Y-103593809D01*
X111653806Y-103593809D02*
X111653806Y-104117619D01*
X128891904Y-105737619D02*
X128891904Y-104737619D01*
X128891904Y-104737619D02*
X128320476Y-105737619D01*
X128320476Y-105737619D02*
X128320476Y-104737619D01*
X127463333Y-105690000D02*
X127558571Y-105737619D01*
X127558571Y-105737619D02*
X127749047Y-105737619D01*
X127749047Y-105737619D02*
X127844285Y-105690000D01*
X127844285Y-105690000D02*
X127891904Y-105594761D01*
X127891904Y-105594761D02*
X127891904Y-105213809D01*
X127891904Y-105213809D02*
X127844285Y-105118571D01*
X127844285Y-105118571D02*
X127749047Y-105070952D01*
X127749047Y-105070952D02*
X127558571Y-105070952D01*
X127558571Y-105070952D02*
X127463333Y-105118571D01*
X127463333Y-105118571D02*
X127415714Y-105213809D01*
X127415714Y-105213809D02*
X127415714Y-105309047D01*
X127415714Y-105309047D02*
X127891904Y-105404285D01*
X127129999Y-105070952D02*
X126749047Y-105070952D01*
X126987142Y-104737619D02*
X126987142Y-105594761D01*
X126987142Y-105594761D02*
X126939523Y-105690000D01*
X126939523Y-105690000D02*
X126844285Y-105737619D01*
X126844285Y-105737619D02*
X126749047Y-105737619D01*
X126510951Y-105070952D02*
X126320475Y-105737619D01*
X126320475Y-105737619D02*
X126129999Y-105261428D01*
X126129999Y-105261428D02*
X125939523Y-105737619D01*
X125939523Y-105737619D02*
X125749047Y-105070952D01*
X125225237Y-105737619D02*
X125320475Y-105690000D01*
X125320475Y-105690000D02*
X125368094Y-105642380D01*
X125368094Y-105642380D02*
X125415713Y-105547142D01*
X125415713Y-105547142D02*
X125415713Y-105261428D01*
X125415713Y-105261428D02*
X125368094Y-105166190D01*
X125368094Y-105166190D02*
X125320475Y-105118571D01*
X125320475Y-105118571D02*
X125225237Y-105070952D01*
X125225237Y-105070952D02*
X125082380Y-105070952D01*
X125082380Y-105070952D02*
X124987142Y-105118571D01*
X124987142Y-105118571D02*
X124939523Y-105166190D01*
X124939523Y-105166190D02*
X124891904Y-105261428D01*
X124891904Y-105261428D02*
X124891904Y-105547142D01*
X124891904Y-105547142D02*
X124939523Y-105642380D01*
X124939523Y-105642380D02*
X124987142Y-105690000D01*
X124987142Y-105690000D02*
X125082380Y-105737619D01*
X125082380Y-105737619D02*
X125225237Y-105737619D01*
X124463332Y-105737619D02*
X124463332Y-105070952D01*
X124463332Y-105261428D02*
X124415713Y-105166190D01*
X124415713Y-105166190D02*
X124368094Y-105118571D01*
X124368094Y-105118571D02*
X124272856Y-105070952D01*
X124272856Y-105070952D02*
X124177618Y-105070952D01*
X123844284Y-105737619D02*
X123844284Y-104737619D01*
X123749046Y-105356666D02*
X123463332Y-105737619D01*
X123463332Y-105070952D02*
X123844284Y-105451904D01*
X122272855Y-105070952D02*
X122272855Y-106070952D01*
X122272855Y-105118571D02*
X122177617Y-105070952D01*
X122177617Y-105070952D02*
X121987141Y-105070952D01*
X121987141Y-105070952D02*
X121891903Y-105118571D01*
X121891903Y-105118571D02*
X121844284Y-105166190D01*
X121844284Y-105166190D02*
X121796665Y-105261428D01*
X121796665Y-105261428D02*
X121796665Y-105547142D01*
X121796665Y-105547142D02*
X121844284Y-105642380D01*
X121844284Y-105642380D02*
X121891903Y-105690000D01*
X121891903Y-105690000D02*
X121987141Y-105737619D01*
X121987141Y-105737619D02*
X122177617Y-105737619D01*
X122177617Y-105737619D02*
X122272855Y-105690000D01*
X121225236Y-105737619D02*
X121320474Y-105690000D01*
X121320474Y-105690000D02*
X121368093Y-105594761D01*
X121368093Y-105594761D02*
X121368093Y-104737619D01*
X120415712Y-105737619D02*
X120415712Y-105213809D01*
X120415712Y-105213809D02*
X120463331Y-105118571D01*
X120463331Y-105118571D02*
X120558569Y-105070952D01*
X120558569Y-105070952D02*
X120749045Y-105070952D01*
X120749045Y-105070952D02*
X120844283Y-105118571D01*
X120415712Y-105690000D02*
X120510950Y-105737619D01*
X120510950Y-105737619D02*
X120749045Y-105737619D01*
X120749045Y-105737619D02*
X120844283Y-105690000D01*
X120844283Y-105690000D02*
X120891902Y-105594761D01*
X120891902Y-105594761D02*
X120891902Y-105499523D01*
X120891902Y-105499523D02*
X120844283Y-105404285D01*
X120844283Y-105404285D02*
X120749045Y-105356666D01*
X120749045Y-105356666D02*
X120510950Y-105356666D01*
X120510950Y-105356666D02*
X120415712Y-105309047D01*
X120034759Y-105070952D02*
X119796664Y-105737619D01*
X119558569Y-105070952D02*
X119796664Y-105737619D01*
X119796664Y-105737619D02*
X119891902Y-105975714D01*
X119891902Y-105975714D02*
X119939521Y-106023333D01*
X119939521Y-106023333D02*
X120034759Y-106070952D01*
X118796664Y-105690000D02*
X118891902Y-105737619D01*
X118891902Y-105737619D02*
X119082378Y-105737619D01*
X119082378Y-105737619D02*
X119177616Y-105690000D01*
X119177616Y-105690000D02*
X119225235Y-105594761D01*
X119225235Y-105594761D02*
X119225235Y-105213809D01*
X119225235Y-105213809D02*
X119177616Y-105118571D01*
X119177616Y-105118571D02*
X119082378Y-105070952D01*
X119082378Y-105070952D02*
X118891902Y-105070952D01*
X118891902Y-105070952D02*
X118796664Y-105118571D01*
X118796664Y-105118571D02*
X118749045Y-105213809D01*
X118749045Y-105213809D02*
X118749045Y-105309047D01*
X118749045Y-105309047D02*
X119225235Y-105404285D01*
X118320473Y-105737619D02*
X118320473Y-105070952D01*
X118320473Y-105261428D02*
X118272854Y-105166190D01*
X118272854Y-105166190D02*
X118225235Y-105118571D01*
X118225235Y-105118571D02*
X118129997Y-105070952D01*
X118129997Y-105070952D02*
X118034759Y-105070952D01*
X117034758Y-105070952D02*
X116796663Y-105737619D01*
X116796663Y-105737619D02*
X116558568Y-105070952D01*
X115653806Y-105737619D02*
X116225234Y-105737619D01*
X115939520Y-105737619D02*
X115939520Y-104737619D01*
X115939520Y-104737619D02*
X116034758Y-104880476D01*
X116034758Y-104880476D02*
X116129996Y-104975714D01*
X116129996Y-104975714D02*
X116225234Y-105023333D01*
X115225234Y-105642380D02*
X115177615Y-105690000D01*
X115177615Y-105690000D02*
X115225234Y-105737619D01*
X115225234Y-105737619D02*
X115272853Y-105690000D01*
X115272853Y-105690000D02*
X115225234Y-105642380D01*
X115225234Y-105642380D02*
X115225234Y-105737619D01*
X114558568Y-104737619D02*
X114463330Y-104737619D01*
X114463330Y-104737619D02*
X114368092Y-104785238D01*
X114368092Y-104785238D02*
X114320473Y-104832857D01*
X114320473Y-104832857D02*
X114272854Y-104928095D01*
X114272854Y-104928095D02*
X114225235Y-105118571D01*
X114225235Y-105118571D02*
X114225235Y-105356666D01*
X114225235Y-105356666D02*
X114272854Y-105547142D01*
X114272854Y-105547142D02*
X114320473Y-105642380D01*
X114320473Y-105642380D02*
X114368092Y-105690000D01*
X114368092Y-105690000D02*
X114463330Y-105737619D01*
X114463330Y-105737619D02*
X114558568Y-105737619D01*
X114558568Y-105737619D02*
X114653806Y-105690000D01*
X114653806Y-105690000D02*
X114701425Y-105642380D01*
X114701425Y-105642380D02*
X114749044Y-105547142D01*
X114749044Y-105547142D02*
X114796663Y-105356666D01*
X114796663Y-105356666D02*
X114796663Y-105118571D01*
X114796663Y-105118571D02*
X114749044Y-104928095D01*
X114749044Y-104928095D02*
X114701425Y-104832857D01*
X114701425Y-104832857D02*
X114653806Y-104785238D01*
X114653806Y-104785238D02*
X114558568Y-104737619D01*
%LPC*%
D12*
X132003800Y-105333800D03*
X108991400Y-105333800D03*
X131978400Y-47320200D03*
D13*
X130720000Y-52210000D03*
D14*
X133260000Y-52210000D03*
X130720000Y-54750000D03*
X133260000Y-54750000D03*
X130720000Y-57290000D03*
X133260000Y-57290000D03*
X130720000Y-59830000D03*
X133260000Y-59830000D03*
X130720000Y-62370000D03*
X133260000Y-62370000D03*
X130720000Y-64910000D03*
X133260000Y-64910000D03*
X130720000Y-67450000D03*
X133260000Y-67450000D03*
X130720000Y-69990000D03*
X133260000Y-69990000D03*
X130720000Y-72530000D03*
X133260000Y-72530000D03*
X130720000Y-75070000D03*
X133260000Y-75070000D03*
X130720000Y-77610000D03*
X133260000Y-77610000D03*
X130720000Y-80150000D03*
X133260000Y-80150000D03*
X130720000Y-82690000D03*
X133260000Y-82690000D03*
X130720000Y-85230000D03*
X133260000Y-85230000D03*
X130720000Y-87770000D03*
X133260000Y-87770000D03*
X130720000Y-90310000D03*
X133260000Y-90310000D03*
X130720000Y-92850000D03*
X133260000Y-92850000D03*
X130720000Y-95390000D03*
X133260000Y-95390000D03*
X130720000Y-97930000D03*
X133260000Y-97930000D03*
X130720000Y-100470000D03*
X133260000Y-100470000D03*
D12*
X108991400Y-47345600D03*
D15*
X112350000Y-64690000D03*
X112350000Y-70470000D03*
D16*
X112850000Y-63260000D03*
D17*
X108670000Y-63260000D03*
D16*
X112850000Y-71900000D03*
D17*
X108670000Y-71900000D03*
%LPD*%
M02*
