M48
; DRILL file {KiCad 7.0.2-0} date 2024 June 02, Sunday 16:01:23
; FORMAT={-:-/ absolute / metric / decimal}
; #@! TF.CreationDate,2024-06-02T16:01:23+02:00
; #@! TF.GenerationSoftware,Kicad,Pcbnew,7.0.2-0
; #@! TF.FileFunction,Plated,1,4,PTH
FMAT,2
METRIC
; #@! TA.AperFunction,Plated,PTH,ViaDrill
T1C0.330
; #@! TA.AperFunction,Plated,PTH,ComponentDrill
T2C0.500
; #@! TA.AperFunction,Plated,PTH,ComponentDrill
T3C0.600
; #@! TA.AperFunction,Plated,PTH,ComponentDrill
T4C0.650
; #@! TA.AperFunction,Plated,PTH,ComponentDrill
T5C1.000
%
G90
G05
T1
X106.59Y-75.8
X107.425Y-90.85
X107.88Y-77.22
X108.675Y-98.476
X109.068Y-76.911
X109.34Y-86.08
X109.487Y-78.085
X110.66Y-85.419
X110.884Y-75.609
X111.88Y-50.47
X112.025Y-65.575
X112.025Y-69.725
X112.027Y-67.211
X112.027Y-68.151
X112.149Y-79.991
X112.302Y-83.456
X112.425Y-55.625
X113.625Y-78.325
X113.64Y-79.375
X113.816Y-76.945
X114.27Y-74.32
X114.45Y-84.0
X114.481Y-76.28
X114.75Y-61.9
X114.85Y-89.275
X115.734Y-76.241
X115.831Y-85.869
X115.925Y-51.275
X115.93Y-53.67
X116.08Y-87.14
X116.18Y-73.35
X116.225Y-70.625
X116.34Y-52.87
X116.548Y-77.055
X116.637Y-79.7
X116.688Y-82.093
X116.83Y-90.81
X117.61Y-107.82
X117.64Y-59.74
X117.691Y-87.998
X117.825Y-66.9
X118.05Y-61.45
X118.31Y-85.05
X118.34Y-91.32
X118.39Y-89.55
X118.45Y-71.1
X118.45Y-76.957
X118.542Y-93.32
X118.631Y-74.186
X119.152Y-84.993
X119.26Y-57.51
X119.4Y-101.85
X119.6Y-76.957
X119.657Y-59.751
X119.66Y-107.83
X119.7Y-95.0
X119.871Y-74.617
X119.965Y-84.989
X120.025Y-60.475
X120.453Y-87.328
X120.689Y-74.569
X120.775Y-90.775
X120.777Y-84.989
X120.85Y-57.525
X121.11Y-75.265
X121.15Y-76.957
X121.2Y-87.0
X121.405Y-74.186
X122.252Y-98.239
X122.504Y-85.014
X122.749Y-89.57
X122.963Y-57.337
X123.399Y-66.875
X123.399Y-68.55
X123.399Y-69.362
X123.4Y-74.72
X124.15Y-94.925
X124.159Y-91.255
X124.212Y-74.731
X124.425Y-84.825
X124.511Y-80.848
X124.532Y-77.054
X124.742Y-62.492
X124.84Y-59.61
X124.95Y-65.875
X125.5Y-75.08
X125.51Y-74.23
X125.925Y-60.0
X125.947Y-67.539
X126.075Y-65.925
X126.089Y-94.053
X126.61Y-85.32
X126.77Y-77.18
X126.875Y-74.3
X127.429Y-79.705
X127.63Y-87.07
X127.68Y-77.18
X127.81Y-72.53
X127.827Y-78.554
X128.01Y-100.01
X128.325Y-82.95
X128.539Y-93.817
X128.85Y-53.69
X128.893Y-86.095
X129.163Y-78.0
X129.512Y-79.572
X131.9Y-89.39
X131.94Y-92.08
X133.768Y-81.38
X133.858Y-86.51
T4
X112.35Y-64.69
X112.35Y-70.47
T5
X130.72Y-52.21
X130.72Y-54.75
X130.72Y-57.29
X130.72Y-59.83
X130.72Y-62.37
X130.72Y-64.91
X130.72Y-67.45
X130.72Y-69.99
X130.72Y-72.53
X130.72Y-75.07
X130.72Y-77.61
X130.72Y-80.15
X130.72Y-82.69
X130.72Y-85.23
X130.72Y-87.77
X130.72Y-90.31
X130.72Y-92.85
X130.72Y-95.39
X130.72Y-97.93
X130.72Y-100.47
X133.26Y-52.21
X133.26Y-54.75
X133.26Y-57.29
X133.26Y-59.83
X133.26Y-62.37
X133.26Y-64.91
X133.26Y-67.45
X133.26Y-69.99
X133.26Y-72.53
X133.26Y-75.07
X133.26Y-77.61
X133.26Y-80.15
X133.26Y-82.69
X133.26Y-85.23
X133.26Y-87.77
X133.26Y-90.31
X133.26Y-92.85
X133.26Y-95.39
X133.26Y-97.93
X133.26Y-100.47
T2
X113.45Y-63.26G85X112.25Y-63.26
G05
X113.45Y-71.9G85X112.25Y-71.9
G05
T3
X108.97Y-63.26G85X108.37Y-63.26
G05
X108.97Y-71.9G85X108.37Y-71.9
G05
T0
M30
