G04 #@! TF.GenerationSoftware,KiCad,Pcbnew,7.0.2-0*
G04 #@! TF.CreationDate,2024-01-15T08:52:18+01:00*
G04 #@! TF.ProjectId,network_player,6e657477-6f72-46b5-9f70-6c617965722e,rev?*
G04 #@! TF.SameCoordinates,Original*
G04 #@! TF.FileFunction,Copper,L3,Inr*
G04 #@! TF.FilePolarity,Positive*
%FSLAX46Y46*%
G04 Gerber Fmt 4.6, Leading zero omitted, Abs format (unit mm)*
G04 Created by KiCad (PCBNEW 7.0.2-0) date 2024-01-15 08:52:18*
%MOMM*%
%LPD*%
G01*
G04 APERTURE LIST*
G04 #@! TA.AperFunction,ComponentPad*
%ADD10R,1.700000X1.700000*%
G04 #@! TD*
G04 #@! TA.AperFunction,ComponentPad*
%ADD11O,1.700000X1.700000*%
G04 #@! TD*
G04 #@! TA.AperFunction,ComponentPad*
%ADD12C,0.650000*%
G04 #@! TD*
G04 #@! TA.AperFunction,ComponentPad*
%ADD13O,2.100000X0.900000*%
G04 #@! TD*
G04 #@! TA.AperFunction,ComponentPad*
%ADD14O,1.600000X1.000000*%
G04 #@! TD*
G04 #@! TA.AperFunction,ViaPad*
%ADD15C,0.685800*%
G04 #@! TD*
G04 #@! TA.AperFunction,Conductor*
%ADD16C,0.127000*%
G04 #@! TD*
G04 APERTURE END LIST*
D10*
X130720000Y-52210000D03*
D11*
X133260000Y-52210000D03*
X130720000Y-54750000D03*
X133260000Y-54750000D03*
X130720000Y-57290000D03*
X133260000Y-57290000D03*
X130720000Y-59830000D03*
X133260000Y-59830000D03*
X130720000Y-62370000D03*
X133260000Y-62370000D03*
X130720000Y-64910000D03*
X133260000Y-64910000D03*
X130720000Y-67450000D03*
X133260000Y-67450000D03*
X130720000Y-69990000D03*
X133260000Y-69990000D03*
X130720000Y-72530000D03*
X133260000Y-72530000D03*
X130720000Y-75070000D03*
X133260000Y-75070000D03*
X130720000Y-77610000D03*
X133260000Y-77610000D03*
X130720000Y-80150000D03*
X133260000Y-80150000D03*
X130720000Y-82690000D03*
X133260000Y-82690000D03*
X130720000Y-85230000D03*
X133260000Y-85230000D03*
X130720000Y-87770000D03*
X133260000Y-87770000D03*
X130720000Y-90310000D03*
X133260000Y-90310000D03*
X130720000Y-92850000D03*
X133260000Y-92850000D03*
X130720000Y-95390000D03*
X133260000Y-95390000D03*
X130720000Y-97930000D03*
X133260000Y-97930000D03*
X130720000Y-100470000D03*
X133260000Y-100470000D03*
D12*
X112350000Y-64690000D03*
X112350000Y-70470000D03*
D13*
X112850000Y-63260000D03*
D14*
X108670000Y-63260000D03*
D13*
X112850000Y-71900000D03*
D14*
X108670000Y-71900000D03*
D15*
X112025000Y-65575000D03*
X112025000Y-69725000D03*
X125925000Y-60000000D03*
X124950000Y-65875000D03*
X120025000Y-60475000D03*
X124741932Y-62491932D03*
X107425000Y-90850000D03*
X126875000Y-74300000D03*
X116080000Y-87140000D03*
X118450000Y-71100000D03*
X113639600Y-79375000D03*
X107880000Y-77220000D03*
X124158535Y-91255100D03*
X118390000Y-89550000D03*
X114450000Y-84000000D03*
X116636800Y-79700000D03*
X123399500Y-68550000D03*
X106590000Y-75800000D03*
X117640000Y-59740000D03*
X120775000Y-90775000D03*
X127630000Y-87070000D03*
X118050000Y-61449900D03*
X115925000Y-51275000D03*
X112425000Y-55625000D03*
X117691418Y-87997782D03*
X124531885Y-77053917D03*
X112302100Y-83455700D03*
X127810000Y-72530000D03*
X109067600Y-76911200D03*
X114850000Y-89275000D03*
X122748600Y-89570000D03*
X124150000Y-94925000D03*
X115734198Y-76240802D03*
X116179932Y-73350000D03*
X124510800Y-80848200D03*
X116225500Y-70625000D03*
X116687600Y-82092800D03*
X114750000Y-61900000D03*
X110884082Y-75609082D03*
X108675000Y-98475800D03*
X113625000Y-78325000D03*
X124212226Y-74731126D03*
X123400000Y-74720000D03*
X125946600Y-67538747D03*
X126075000Y-65925000D03*
X117825000Y-66900000D03*
X123399500Y-66875000D03*
X123399500Y-69362303D03*
X128325000Y-82950000D03*
X114270000Y-74320000D03*
X116547852Y-77055162D03*
X128010000Y-100010000D03*
X118631365Y-74185626D03*
X118450000Y-76956600D03*
X126660000Y-82940000D03*
X116730000Y-52870000D03*
X115930000Y-53670000D03*
X126610000Y-85320000D03*
X124675220Y-83920960D03*
X119250000Y-57450000D03*
X124425000Y-84825000D03*
X120850000Y-57525000D03*
X122440000Y-59930000D03*
X124630000Y-82500000D03*
X123251732Y-59899560D03*
X126620000Y-84010000D03*
X119450000Y-92550000D03*
X107189500Y-53206865D03*
X127429400Y-79705200D03*
X125510000Y-74230000D03*
X125500000Y-75080000D03*
X107660000Y-50307100D03*
X118340001Y-84989402D03*
X124841000Y-59969400D03*
X119325000Y-101775000D03*
X119475000Y-107825000D03*
X112050000Y-51900000D03*
X119152297Y-84992602D03*
X128850000Y-53690000D03*
X119964593Y-84989402D03*
X121200000Y-87000000D03*
X119700000Y-95000000D03*
X114480793Y-76280364D03*
X112027383Y-68150665D03*
X113816253Y-76944904D03*
X112027383Y-67210865D03*
X110290000Y-51950000D03*
X108850000Y-50840000D03*
X107852213Y-56307787D03*
X108336865Y-52059500D03*
X110630000Y-54690000D03*
X111400000Y-57670000D03*
X118541800Y-93319600D03*
X126089082Y-94052718D03*
X128538868Y-93816600D03*
X122504200Y-85013800D03*
X120688941Y-74568906D03*
X120453487Y-87328351D03*
X116637300Y-81050000D03*
X128036780Y-76794657D03*
X127401412Y-78080844D03*
X128892600Y-86094623D03*
X119600000Y-76956600D03*
X119870774Y-74617191D03*
X121110176Y-75265107D03*
X121150000Y-76956600D03*
X121405401Y-74186126D03*
X120776896Y-84989402D03*
D16*
X133260000Y-87770000D02*
X134300500Y-88810500D01*
X129640000Y-97538510D02*
X129640000Y-99390000D01*
X130289010Y-96889500D02*
X129640000Y-97538510D01*
X131760500Y-61329500D02*
X131760500Y-58789500D01*
X132219500Y-95820990D02*
X131150990Y-96889500D01*
X127630000Y-87070000D02*
X125800000Y-88900000D01*
X116311800Y-79375000D02*
X116636800Y-79700000D01*
X131760500Y-63410500D02*
X130720000Y-62370000D01*
X131760500Y-58789500D02*
X133260000Y-57290000D01*
X133260000Y-67450000D02*
X131760500Y-65950500D01*
X134300500Y-91809500D02*
X133260000Y-92850000D01*
X133260000Y-75070000D02*
X134300500Y-74029500D01*
X130720000Y-82690000D02*
X131760500Y-83730500D01*
X130720000Y-62370000D02*
X131760500Y-61329500D01*
X131760500Y-83730500D02*
X131760500Y-86270500D01*
X131760500Y-86270500D02*
X133260000Y-87770000D01*
X131760500Y-65950500D02*
X131760500Y-63410500D01*
X133260000Y-92850000D02*
X132219500Y-93890500D01*
X113639600Y-79375000D02*
X116311800Y-79375000D01*
X129640000Y-99390000D02*
X130720000Y-100470000D01*
X131150990Y-96889500D02*
X130289010Y-96889500D01*
X134300500Y-68490500D02*
X133260000Y-67450000D01*
X132219500Y-93890500D02*
X132219500Y-95820990D01*
X134300500Y-74029500D02*
X134300500Y-68490500D01*
X134300500Y-88810500D02*
X134300500Y-91809500D01*
X113670236Y-77497822D02*
X116105192Y-77497822D01*
X116105192Y-77497822D02*
X116547852Y-77055162D01*
X114499342Y-74320000D02*
X115100000Y-74920658D01*
X114270000Y-74320000D02*
X114499342Y-74320000D01*
X113055400Y-78112658D02*
X113670236Y-77497822D01*
X113055400Y-85055400D02*
X113055400Y-78112658D01*
X128010000Y-100010000D02*
X113055400Y-85055400D01*
X115725820Y-77055162D02*
X116547852Y-77055162D01*
X115100000Y-74920658D02*
X115100000Y-76429342D01*
X115100000Y-76429342D02*
X115725820Y-77055162D01*
X119450000Y-92550000D02*
X107318813Y-80418813D01*
X107318813Y-80418813D02*
X107318813Y-57595529D01*
X108385613Y-54402978D02*
X107189500Y-53206865D01*
X107318813Y-57595529D02*
X108385613Y-56528729D01*
X108385613Y-56528729D02*
X108385613Y-54402978D01*
X125500000Y-78556776D02*
X125500000Y-75080000D01*
X130720000Y-95390000D02*
X129679500Y-94349500D01*
X129679500Y-94349500D02*
X129679500Y-82736276D01*
X129679500Y-82736276D02*
X125500000Y-78556776D01*
X134554500Y-95566990D02*
X133690990Y-96430500D01*
X115647032Y-56552690D02*
X109394342Y-50300000D01*
X118340000Y-78092968D02*
X115647032Y-75400000D01*
X133690990Y-96430500D02*
X132829010Y-96430500D01*
X134554500Y-78904500D02*
X134554500Y-95566990D01*
X107690000Y-50300000D02*
X107660000Y-50330000D01*
X133260000Y-77610000D02*
X134554500Y-78904500D01*
X131760500Y-97499010D02*
X131760500Y-100900990D01*
X131150990Y-101510500D02*
X130289010Y-101510500D01*
X115647032Y-75400000D02*
X115647032Y-56552690D01*
X131760500Y-100900990D02*
X131150990Y-101510500D01*
X124691935Y-92816935D02*
X116103900Y-84228900D01*
X109394342Y-50300000D02*
X107690000Y-50300000D01*
X107660000Y-50330000D02*
X107660000Y-50307100D01*
X118340000Y-84989402D02*
X118340000Y-78092968D01*
X116916600Y-80516600D02*
X118340001Y-81940001D01*
X130289010Y-101510500D02*
X124691935Y-95913425D01*
X116416358Y-80516600D02*
X116916600Y-80516600D01*
X116103900Y-84228900D02*
X116103900Y-80829058D01*
X116103900Y-80829058D02*
X116416358Y-80516600D01*
X132829010Y-96430500D02*
X131760500Y-97499010D01*
X124691935Y-95913425D02*
X124691935Y-92816935D01*
X118340001Y-81940001D02*
X118340001Y-84989402D01*
X119325000Y-101775000D02*
X119325000Y-107675000D01*
X107439058Y-49773700D02*
X109923700Y-49773700D01*
X106056600Y-51156158D02*
X107439058Y-49773700D01*
X119325000Y-101775000D02*
X106056600Y-88506600D01*
X119325000Y-107675000D02*
X119475000Y-107825000D01*
X109923700Y-49773700D02*
X112050000Y-51900000D01*
X106056600Y-88506600D02*
X106056600Y-51156158D01*
X132219500Y-71489500D02*
X132219500Y-67019010D01*
X133260000Y-72530000D02*
X132219500Y-71489500D01*
X128850000Y-64511490D02*
X128850000Y-53690000D01*
X131150990Y-65950500D02*
X130289010Y-65950500D01*
X130289010Y-65950500D02*
X128850000Y-64511490D01*
X132219500Y-67019010D02*
X131150990Y-65950500D01*
X110290000Y-51950000D02*
X109866600Y-51526600D01*
X106969058Y-51526600D02*
X106656600Y-51839058D01*
X108163400Y-51526600D02*
X108850000Y-50840000D01*
X107680000Y-51526600D02*
X106969058Y-51526600D01*
X106656600Y-55112174D02*
X107852213Y-56307787D01*
X107680000Y-51526600D02*
X108163400Y-51526600D01*
X109866600Y-51526600D02*
X107680000Y-51526600D01*
X106656600Y-51839058D02*
X106656600Y-55112174D01*
X133690990Y-76110500D02*
X134554500Y-75246990D01*
X118122259Y-85526002D02*
X120994638Y-85526002D01*
X117806601Y-82219301D02*
X117806601Y-85210344D01*
X128548510Y-68150000D02*
X130369150Y-66329360D01*
X131170640Y-66329360D02*
X131965500Y-67124220D01*
X132829010Y-76110500D02*
X133690990Y-76110500D01*
X120616600Y-81028600D02*
X120616600Y-76983400D01*
X125583623Y-68150000D02*
X128548510Y-68150000D01*
X120616600Y-76983400D02*
X119337374Y-75704174D01*
X121310296Y-81722296D02*
X120616600Y-81028600D01*
X131965500Y-75246990D02*
X132829010Y-76110500D01*
X119337374Y-75704174D02*
X119337374Y-74396249D01*
X131965500Y-67124220D02*
X131965500Y-75246990D01*
X116637300Y-81050000D02*
X117806601Y-82219301D01*
X117806601Y-85210344D02*
X118122259Y-85526002D01*
X120994638Y-85526002D02*
X121310296Y-85210344D01*
X119337374Y-74396249D02*
X125583623Y-68150000D01*
X134554500Y-75246990D02*
X134554500Y-66204500D01*
X134554500Y-66204500D02*
X133260000Y-64910000D01*
X130369150Y-66329360D02*
X131170640Y-66329360D01*
X121310296Y-85210344D02*
X121310296Y-81722296D01*
X130232237Y-81400000D02*
X128629794Y-79797557D01*
X131760500Y-82259010D02*
X130901490Y-81400000D01*
X131760500Y-83060500D02*
X131760500Y-82259010D01*
X120835239Y-73652726D02*
X119870774Y-74617191D01*
X130901490Y-81400000D02*
X130232237Y-81400000D01*
X128629794Y-79797557D02*
X128629794Y-74950927D01*
X133260000Y-84560000D02*
X131760500Y-83060500D01*
X128629794Y-74950927D02*
X127331593Y-73652726D01*
X127331593Y-73652726D02*
X120835239Y-73652726D01*
X131760500Y-93890500D02*
X131760500Y-95820990D01*
X130720000Y-92850000D02*
X131760500Y-93890500D01*
X122511858Y-90119200D02*
X121712300Y-89319642D01*
X121750000Y-74530725D02*
X121405401Y-74186126D01*
X123977710Y-90119200D02*
X122511858Y-90119200D01*
X121712300Y-89319642D02*
X121712300Y-88794790D01*
X121750000Y-88757090D02*
X121750000Y-74530725D01*
X121712300Y-88794790D02*
X121750000Y-88757090D01*
X131150990Y-96430500D02*
X130289010Y-96430500D01*
X130289010Y-96430500D02*
X123977710Y-90119200D01*
X131760500Y-95820990D02*
X131150990Y-96430500D01*
G04 #@! TA.AperFunction,Conductor*
G36*
X109425827Y-52110285D02*
G01*
X109471582Y-52163089D01*
X109476719Y-52176282D01*
X109515270Y-52294931D01*
X109603915Y-52448469D01*
X109722546Y-52580222D01*
X109865976Y-52684429D01*
X110027939Y-52756540D01*
X110201352Y-52793400D01*
X110201355Y-52793400D01*
X110378648Y-52793400D01*
X110508707Y-52765754D01*
X110552061Y-52756540D01*
X110645237Y-52715055D01*
X110714020Y-52684431D01*
X110728841Y-52673663D01*
X110783065Y-52634267D01*
X110848869Y-52610788D01*
X110916923Y-52626613D01*
X110943630Y-52646905D01*
X112985689Y-54688964D01*
X113019174Y-54750287D01*
X113014190Y-54819979D01*
X112972318Y-54875912D01*
X112906854Y-54900329D01*
X112847572Y-54889924D01*
X112687060Y-54818459D01*
X112513648Y-54781600D01*
X112513645Y-54781600D01*
X112336355Y-54781600D01*
X112336352Y-54781600D01*
X112162939Y-54818459D01*
X112000976Y-54890570D01*
X111857546Y-54994777D01*
X111738915Y-55126530D01*
X111650270Y-55280069D01*
X111599658Y-55435840D01*
X111595486Y-55448681D01*
X111576954Y-55625000D01*
X111595486Y-55801319D01*
X111595487Y-55801322D01*
X111650270Y-55969930D01*
X111738915Y-56123469D01*
X111857546Y-56255222D01*
X112000976Y-56359429D01*
X112162939Y-56431540D01*
X112336352Y-56468400D01*
X112336355Y-56468400D01*
X112513648Y-56468400D01*
X112658790Y-56437549D01*
X112687061Y-56431540D01*
X112849023Y-56359429D01*
X112955999Y-56281707D01*
X112992453Y-56255222D01*
X112995451Y-56251893D01*
X113111084Y-56123469D01*
X113199729Y-55969931D01*
X113254514Y-55801319D01*
X113273046Y-55625000D01*
X113254514Y-55448681D01*
X113199729Y-55280069D01*
X113155585Y-55203609D01*
X113139112Y-55135709D01*
X113161964Y-55069682D01*
X113216886Y-55026491D01*
X113286439Y-55019850D01*
X113348542Y-55051866D01*
X113350653Y-55053928D01*
X115046712Y-56749987D01*
X115080197Y-56811310D01*
X115083031Y-56837668D01*
X115083031Y-60955418D01*
X115063346Y-61022457D01*
X115010542Y-61068212D01*
X114941384Y-61078156D01*
X114933251Y-61076708D01*
X114838648Y-61056600D01*
X114838645Y-61056600D01*
X114661355Y-61056600D01*
X114661352Y-61056600D01*
X114487939Y-61093459D01*
X114325976Y-61165570D01*
X114182546Y-61269777D01*
X114063915Y-61401530D01*
X113975270Y-61555069D01*
X113930724Y-61692170D01*
X113920486Y-61723681D01*
X113901954Y-61900000D01*
X113920486Y-62076319D01*
X113920487Y-62076322D01*
X113968791Y-62224990D01*
X113970786Y-62294831D01*
X113934705Y-62354663D01*
X113872004Y-62385491D01*
X113802590Y-62377526D01*
X113801960Y-62377258D01*
X113735863Y-62348893D01*
X113546605Y-62310000D01*
X113100000Y-62310000D01*
X113100000Y-63010000D01*
X112599999Y-63010000D01*
X112600000Y-62310000D01*
X112204967Y-62310000D01*
X112198701Y-62310317D01*
X112057777Y-62324648D01*
X111873430Y-62382488D01*
X111704496Y-62476253D01*
X111557895Y-62602105D01*
X111439631Y-62754890D01*
X111354541Y-62928358D01*
X111333403Y-63010000D01*
X112225376Y-63010000D01*
X112152455Y-63024505D01*
X112069760Y-63079760D01*
X112014505Y-63162455D01*
X111995102Y-63260000D01*
X112014505Y-63357545D01*
X112069760Y-63440240D01*
X112152455Y-63495495D01*
X112225376Y-63510000D01*
X111329529Y-63510000D01*
X111392685Y-63680530D01*
X111494890Y-63844501D01*
X111628004Y-63984536D01*
X111664101Y-64009661D01*
X111707879Y-64064115D01*
X111715267Y-64133593D01*
X111685418Y-64194401D01*
X111678479Y-64202107D01*
X111652247Y-64247542D01*
X111647495Y-64255126D01*
X111616359Y-64301049D01*
X111608553Y-64320639D01*
X111600752Y-64336732D01*
X111591714Y-64352387D01*
X111574442Y-64405546D01*
X111571706Y-64413120D01*
X111550481Y-64466394D01*
X111549899Y-64467854D01*
X111547044Y-64485267D01*
X111542610Y-64503517D01*
X111538091Y-64517424D01*
X111531890Y-64576414D01*
X111530937Y-64583507D01*
X111520849Y-64645047D01*
X111521617Y-64659219D01*
X111521121Y-64678880D01*
X111519952Y-64690001D01*
X111526511Y-64752410D01*
X111527008Y-64758655D01*
X111530432Y-64821796D01*
X111514406Y-64889803D01*
X111479502Y-64928826D01*
X111457550Y-64944776D01*
X111457546Y-64944779D01*
X111395866Y-65013281D01*
X111338913Y-65076533D01*
X111250270Y-65230069D01*
X111195487Y-65398677D01*
X111195486Y-65398681D01*
X111176954Y-65575000D01*
X111195486Y-65751319D01*
X111195487Y-65751322D01*
X111250270Y-65919930D01*
X111338915Y-66073469D01*
X111457546Y-66205222D01*
X111579023Y-66293480D01*
X111621689Y-66348810D01*
X111627668Y-66418423D01*
X111595062Y-66480218D01*
X111579024Y-66494116D01*
X111459927Y-66580644D01*
X111341298Y-66712395D01*
X111252653Y-66865934D01*
X111202917Y-67019010D01*
X111197869Y-67034546D01*
X111179337Y-67210865D01*
X111197869Y-67387184D01*
X111197870Y-67387187D01*
X111252652Y-67555794D01*
X111289009Y-67618766D01*
X111305481Y-67686666D01*
X111289009Y-67742764D01*
X111252652Y-67805735D01*
X111210757Y-67934680D01*
X111197869Y-67974346D01*
X111179337Y-68150665D01*
X111197869Y-68326984D01*
X111197870Y-68326987D01*
X111252653Y-68495595D01*
X111341298Y-68649134D01*
X111459926Y-68780884D01*
X111459929Y-68780886D01*
X111536680Y-68836648D01*
X111579345Y-68891977D01*
X111585324Y-68961590D01*
X111552719Y-69023386D01*
X111536680Y-69037284D01*
X111457545Y-69094779D01*
X111338915Y-69226530D01*
X111250270Y-69380069D01*
X111202746Y-69526336D01*
X111195486Y-69548681D01*
X111176954Y-69725000D01*
X111195486Y-69901319D01*
X111195487Y-69901322D01*
X111250270Y-70069930D01*
X111338915Y-70223469D01*
X111457545Y-70355220D01*
X111468813Y-70363407D01*
X111511480Y-70418737D01*
X111516645Y-70457247D01*
X111518591Y-70457043D01*
X111526511Y-70532410D01*
X111527008Y-70538653D01*
X111530570Y-70604338D01*
X111533446Y-70614695D01*
X111537284Y-70634895D01*
X111538092Y-70642576D01*
X111538092Y-70642578D01*
X111538093Y-70642580D01*
X111558540Y-70705511D01*
X111560083Y-70710634D01*
X111567770Y-70738321D01*
X111578606Y-70777350D01*
X111578607Y-70777351D01*
X111582021Y-70783790D01*
X111590395Y-70803551D01*
X111591715Y-70807614D01*
X111626527Y-70867910D01*
X111628695Y-70871827D01*
X111662712Y-70935990D01*
X111665195Y-70938913D01*
X111678070Y-70957183D01*
X111678477Y-70957889D01*
X111685289Y-70965454D01*
X111715519Y-71028446D01*
X111706894Y-71097781D01*
X111673909Y-71142512D01*
X111557895Y-71242105D01*
X111439631Y-71394890D01*
X111354541Y-71568358D01*
X111333403Y-71650000D01*
X112225376Y-71650000D01*
X112152455Y-71664505D01*
X112069760Y-71719760D01*
X112014505Y-71802455D01*
X111995102Y-71900000D01*
X112014505Y-71997545D01*
X112069760Y-72080240D01*
X112152455Y-72135495D01*
X112225376Y-72150000D01*
X111329529Y-72150000D01*
X111392685Y-72320530D01*
X111494890Y-72484501D01*
X111628003Y-72624535D01*
X111786585Y-72734912D01*
X111964137Y-72811106D01*
X112153395Y-72850000D01*
X112599999Y-72850000D01*
X112600000Y-72150000D01*
X113100000Y-72150000D01*
X113100000Y-72850000D01*
X113495033Y-72850000D01*
X113501298Y-72849682D01*
X113642222Y-72835351D01*
X113826569Y-72777511D01*
X113995503Y-72683746D01*
X114142104Y-72557894D01*
X114260368Y-72405109D01*
X114345458Y-72231641D01*
X114366597Y-72150000D01*
X113474624Y-72150000D01*
X113547545Y-72135495D01*
X113630240Y-72080240D01*
X113685495Y-71997545D01*
X113704898Y-71900000D01*
X113685495Y-71802455D01*
X113630240Y-71719760D01*
X113547545Y-71664505D01*
X113474624Y-71650000D01*
X114370471Y-71650000D01*
X114370471Y-71649999D01*
X114307314Y-71479469D01*
X114205109Y-71315498D01*
X114071996Y-71175464D01*
X113913414Y-71065087D01*
X113735862Y-70988893D01*
X113546605Y-70950000D01*
X113232692Y-70950000D01*
X113165653Y-70930315D01*
X113119898Y-70877511D01*
X113109954Y-70808353D01*
X113114760Y-70787685D01*
X113125557Y-70754452D01*
X113128297Y-70746867D01*
X113150101Y-70692146D01*
X113152954Y-70674740D01*
X113157392Y-70656472D01*
X113161908Y-70642576D01*
X113168111Y-70583551D01*
X113169057Y-70576512D01*
X113179150Y-70514955D01*
X113178381Y-70500778D01*
X113178878Y-70481113D01*
X113180047Y-70470000D01*
X113173483Y-70407555D01*
X113172991Y-70401363D01*
X113169429Y-70335661D01*
X113166553Y-70325304D01*
X113162714Y-70305101D01*
X113161908Y-70297424D01*
X113141459Y-70234489D01*
X113139911Y-70229349D01*
X113138817Y-70225407D01*
X113121393Y-70162649D01*
X113117979Y-70156210D01*
X113109605Y-70136447D01*
X113108286Y-70132389D01*
X113087300Y-70096042D01*
X113073467Y-70072084D01*
X113071318Y-70068200D01*
X113037288Y-70004011D01*
X113037286Y-70004009D01*
X113037286Y-70004008D01*
X113034804Y-70001087D01*
X113021928Y-69982814D01*
X113021522Y-69982111D01*
X112972649Y-69927832D01*
X112970299Y-69925144D01*
X112921045Y-69867157D01*
X112920746Y-69866930D01*
X112903655Y-69851205D01*
X112901323Y-69848616D01*
X112871082Y-69785630D01*
X112870138Y-69752662D01*
X112873046Y-69725000D01*
X112871179Y-69707234D01*
X112854514Y-69548681D01*
X112799729Y-69380069D01*
X112760528Y-69312170D01*
X112711084Y-69226530D01*
X112592453Y-69094777D01*
X112515703Y-69039016D01*
X112473037Y-68983687D01*
X112467058Y-68914073D01*
X112499663Y-68852278D01*
X112515697Y-68838384D01*
X112594837Y-68780886D01*
X112647784Y-68722083D01*
X112713467Y-68649134D01*
X112756297Y-68574950D01*
X112802112Y-68495596D01*
X112856897Y-68326984D01*
X112875429Y-68150665D01*
X112856897Y-67974346D01*
X112815579Y-67847181D01*
X112802112Y-67805733D01*
X112765757Y-67742766D01*
X112749283Y-67674866D01*
X112765757Y-67618764D01*
X112802112Y-67555796D01*
X112804099Y-67549681D01*
X112856897Y-67387184D01*
X112875429Y-67210865D01*
X112856897Y-67034546D01*
X112802112Y-66865934D01*
X112766538Y-66804318D01*
X112713467Y-66712395D01*
X112594838Y-66580644D01*
X112473358Y-66492384D01*
X112430693Y-66437054D01*
X112424714Y-66367441D01*
X112457320Y-66305646D01*
X112473351Y-66291753D01*
X112592454Y-66205221D01*
X112594629Y-66202806D01*
X112711084Y-66073469D01*
X112713976Y-66068460D01*
X112799729Y-65919931D01*
X112854514Y-65751319D01*
X112873046Y-65575000D01*
X112856640Y-65418912D01*
X112869209Y-65350185D01*
X112897323Y-65317108D01*
X112896686Y-65316534D01*
X112905408Y-65306846D01*
X112905410Y-65306845D01*
X112938234Y-65270389D01*
X112945064Y-65263384D01*
X112982875Y-65227569D01*
X112996649Y-65207252D01*
X113007127Y-65193875D01*
X113021522Y-65177889D01*
X113047755Y-65132449D01*
X113052490Y-65124891D01*
X113083640Y-65078951D01*
X113091442Y-65059366D01*
X113099251Y-65043259D01*
X113108286Y-65027611D01*
X113125557Y-64974452D01*
X113128297Y-64966867D01*
X113137099Y-64944779D01*
X113150101Y-64912147D01*
X113152954Y-64894736D01*
X113157392Y-64876472D01*
X113161908Y-64862576D01*
X113168111Y-64803551D01*
X113169057Y-64796512D01*
X113179150Y-64734955D01*
X113178381Y-64720778D01*
X113178878Y-64701113D01*
X113180047Y-64690000D01*
X113173483Y-64627555D01*
X113172991Y-64621363D01*
X113169429Y-64555661D01*
X113166553Y-64545304D01*
X113162714Y-64525101D01*
X113161908Y-64517424D01*
X113141459Y-64454489D01*
X113139911Y-64449349D01*
X113139074Y-64446336D01*
X113121393Y-64382649D01*
X113121392Y-64382648D01*
X113117785Y-64369654D01*
X113121588Y-64368598D01*
X113112384Y-64323637D01*
X113137602Y-64258477D01*
X113194045Y-64217295D01*
X113235950Y-64210000D01*
X113495033Y-64210000D01*
X113501298Y-64209682D01*
X113642222Y-64195351D01*
X113826569Y-64137511D01*
X113995503Y-64043746D01*
X114142104Y-63917894D01*
X114260368Y-63765109D01*
X114345458Y-63591641D01*
X114366597Y-63510000D01*
X113474624Y-63510000D01*
X113547545Y-63495495D01*
X113630240Y-63440240D01*
X113685495Y-63357545D01*
X113704898Y-63260000D01*
X113685495Y-63162455D01*
X113630240Y-63079760D01*
X113547545Y-63024505D01*
X113474624Y-63010000D01*
X114370471Y-63010000D01*
X114314952Y-62860094D01*
X114310128Y-62790391D01*
X114343754Y-62729145D01*
X114405154Y-62695801D01*
X114474834Y-62700946D01*
X114481669Y-62703749D01*
X114487939Y-62706541D01*
X114661352Y-62743400D01*
X114661355Y-62743400D01*
X114838648Y-62743400D01*
X114933251Y-62723292D01*
X115002918Y-62728608D01*
X115058651Y-62770745D01*
X115082756Y-62836325D01*
X115083031Y-62844582D01*
X115083031Y-73639489D01*
X115063346Y-73706528D01*
X115010542Y-73752283D01*
X114941384Y-73762227D01*
X114877828Y-73733202D01*
X114866881Y-73722461D01*
X114837453Y-73689777D01*
X114694023Y-73585570D01*
X114532060Y-73513459D01*
X114358648Y-73476600D01*
X114358645Y-73476600D01*
X114181355Y-73476600D01*
X114181352Y-73476600D01*
X114007939Y-73513459D01*
X113845976Y-73585570D01*
X113702546Y-73689777D01*
X113583915Y-73821530D01*
X113495270Y-73975069D01*
X113456968Y-74092954D01*
X113440486Y-74143681D01*
X113427929Y-74263150D01*
X113422090Y-74318710D01*
X113421954Y-74320000D01*
X113440486Y-74496319D01*
X113440487Y-74496322D01*
X113495270Y-74664930D01*
X113583915Y-74818469D01*
X113702546Y-74950222D01*
X113845976Y-75054429D01*
X114007939Y-75126540D01*
X114181352Y-75163400D01*
X114181355Y-75163400D01*
X114358645Y-75163400D01*
X114386218Y-75157539D01*
X114455885Y-75162855D01*
X114511619Y-75204991D01*
X114535725Y-75270571D01*
X114536000Y-75278829D01*
X114536000Y-75312964D01*
X114516315Y-75380003D01*
X114463511Y-75425758D01*
X114412000Y-75436964D01*
X114392145Y-75436964D01*
X114218732Y-75473823D01*
X114056769Y-75545934D01*
X113913339Y-75650141D01*
X113794708Y-75781894D01*
X113706063Y-75935432D01*
X113668626Y-76050655D01*
X113629189Y-76108330D01*
X113576478Y-76133626D01*
X113554192Y-76138364D01*
X113392227Y-76210475D01*
X113248799Y-76314681D01*
X113130168Y-76446434D01*
X113041523Y-76599973D01*
X112997691Y-76734877D01*
X112986739Y-76768585D01*
X112970387Y-76924159D01*
X112968207Y-76944904D01*
X112986739Y-77121224D01*
X113027627Y-77247064D01*
X113029622Y-77316906D01*
X112997377Y-77373063D01*
X112688481Y-77681958D01*
X112676289Y-77692651D01*
X112653149Y-77710407D01*
X112617998Y-77756216D01*
X112617988Y-77756231D01*
X112562747Y-77828224D01*
X112505917Y-77965424D01*
X112486532Y-78112657D01*
X112490339Y-78141566D01*
X112491400Y-78157752D01*
X112491400Y-82488300D01*
X112471715Y-82555339D01*
X112418911Y-82601094D01*
X112367400Y-82612300D01*
X112213452Y-82612300D01*
X112040039Y-82649159D01*
X111878076Y-82721270D01*
X111734646Y-82825477D01*
X111616015Y-82957230D01*
X111527370Y-83110769D01*
X111472587Y-83279377D01*
X111472586Y-83279381D01*
X111454054Y-83455700D01*
X111452692Y-83468662D01*
X111448263Y-83468196D01*
X111440179Y-83512292D01*
X111392424Y-83563294D01*
X111324676Y-83580382D01*
X111258444Y-83558130D01*
X111241771Y-83544155D01*
X109705159Y-82007543D01*
X107919132Y-80221515D01*
X107885647Y-80160192D01*
X107882813Y-80133834D01*
X107882813Y-76911200D01*
X108219554Y-76911200D01*
X108238086Y-77087519D01*
X108238087Y-77087522D01*
X108292870Y-77256130D01*
X108381515Y-77409669D01*
X108500146Y-77541422D01*
X108643576Y-77645629D01*
X108805539Y-77717740D01*
X108978952Y-77754600D01*
X108978955Y-77754600D01*
X109156248Y-77754600D01*
X109286307Y-77726955D01*
X109329661Y-77717740D01*
X109491623Y-77645629D01*
X109539545Y-77610812D01*
X109635053Y-77541422D01*
X109753684Y-77409669D01*
X109774818Y-77373063D01*
X109842329Y-77256131D01*
X109897114Y-77087519D01*
X109915646Y-76911200D01*
X109897114Y-76734881D01*
X109842329Y-76566269D01*
X109811430Y-76512750D01*
X109753684Y-76412730D01*
X109635053Y-76280977D01*
X109491623Y-76176770D01*
X109329660Y-76104659D01*
X109156248Y-76067800D01*
X109156245Y-76067800D01*
X108978955Y-76067800D01*
X108978952Y-76067800D01*
X108805539Y-76104659D01*
X108643576Y-76176770D01*
X108500146Y-76280977D01*
X108381515Y-76412730D01*
X108292870Y-76566269D01*
X108238087Y-76734877D01*
X108238086Y-76734881D01*
X108219554Y-76911200D01*
X107882813Y-76911200D01*
X107882813Y-75609082D01*
X110036036Y-75609082D01*
X110054568Y-75785401D01*
X110054569Y-75785404D01*
X110109352Y-75954012D01*
X110197997Y-76107551D01*
X110316628Y-76239304D01*
X110460058Y-76343511D01*
X110622021Y-76415622D01*
X110795434Y-76452482D01*
X110795437Y-76452482D01*
X110972730Y-76452482D01*
X111108166Y-76423694D01*
X111146143Y-76415622D01*
X111308105Y-76343511D01*
X111341170Y-76319488D01*
X111451535Y-76239304D01*
X111452327Y-76238425D01*
X111570166Y-76107551D01*
X111658811Y-75954013D01*
X111713596Y-75785401D01*
X111732128Y-75609082D01*
X111713596Y-75432763D01*
X111658811Y-75264151D01*
X111632437Y-75218469D01*
X111570166Y-75110612D01*
X111451535Y-74978859D01*
X111308105Y-74874652D01*
X111146142Y-74802541D01*
X110972730Y-74765682D01*
X110972727Y-74765682D01*
X110795437Y-74765682D01*
X110795434Y-74765682D01*
X110622021Y-74802541D01*
X110460058Y-74874652D01*
X110316628Y-74978859D01*
X110197997Y-75110612D01*
X110109352Y-75264151D01*
X110056844Y-75425758D01*
X110054568Y-75432763D01*
X110036036Y-75609082D01*
X107882813Y-75609082D01*
X107882813Y-72967268D01*
X107902498Y-72900229D01*
X107955302Y-72854474D01*
X108024460Y-72844530D01*
X108055715Y-72853318D01*
X108069093Y-72859059D01*
X108268311Y-72900000D01*
X108420000Y-72900000D01*
X108420000Y-72200000D01*
X108920000Y-72200000D01*
X108919999Y-72899999D01*
X108920000Y-72900000D01*
X109017570Y-72900000D01*
X109023835Y-72899682D01*
X109172339Y-72884580D01*
X109366389Y-72823696D01*
X109544214Y-72724996D01*
X109698531Y-72592520D01*
X109823021Y-72431692D01*
X109912589Y-72249094D01*
X109938246Y-72150000D01*
X109136111Y-72150000D01*
X109175610Y-72125543D01*
X109243201Y-72036038D01*
X109273895Y-71928160D01*
X109263546Y-71816479D01*
X109213552Y-71716078D01*
X109141069Y-71650000D01*
X109943366Y-71650000D01*
X109943067Y-71648051D01*
X109872435Y-71457336D01*
X109764854Y-71284736D01*
X109624733Y-71137330D01*
X109457805Y-71021144D01*
X109270907Y-70940940D01*
X109071689Y-70900000D01*
X108920000Y-70900000D01*
X108919999Y-71600000D01*
X108420000Y-71600000D01*
X108420000Y-70900000D01*
X108322430Y-70900000D01*
X108316164Y-70900317D01*
X108167663Y-70915419D01*
X108043933Y-70954239D01*
X107974075Y-70955525D01*
X107914612Y-70918840D01*
X107884421Y-70855830D01*
X107882813Y-70835925D01*
X107882813Y-64327268D01*
X107902498Y-64260229D01*
X107955302Y-64214474D01*
X108024460Y-64204530D01*
X108055715Y-64213318D01*
X108069093Y-64219059D01*
X108268311Y-64260000D01*
X108420000Y-64260000D01*
X108420000Y-63560000D01*
X108920000Y-63560000D01*
X108919999Y-64259999D01*
X108920000Y-64260000D01*
X109017570Y-64260000D01*
X109023835Y-64259682D01*
X109172339Y-64244580D01*
X109366389Y-64183696D01*
X109544214Y-64084996D01*
X109698531Y-63952520D01*
X109823021Y-63791692D01*
X109912589Y-63609094D01*
X109938246Y-63510000D01*
X109136111Y-63510000D01*
X109175610Y-63485543D01*
X109243201Y-63396038D01*
X109273895Y-63288160D01*
X109263546Y-63176479D01*
X109213552Y-63076078D01*
X109141069Y-63010000D01*
X109943366Y-63010000D01*
X109943067Y-63008051D01*
X109872435Y-62817336D01*
X109764854Y-62644736D01*
X109624733Y-62497330D01*
X109457805Y-62381144D01*
X109270907Y-62300940D01*
X109071689Y-62260000D01*
X108920000Y-62260000D01*
X108919999Y-62960000D01*
X108420000Y-62960000D01*
X108420000Y-62260000D01*
X108322430Y-62260000D01*
X108316164Y-62260317D01*
X108167663Y-62275419D01*
X108043933Y-62314239D01*
X107974075Y-62315525D01*
X107914612Y-62278840D01*
X107884421Y-62215830D01*
X107882813Y-62195925D01*
X107882813Y-57880507D01*
X107902498Y-57813468D01*
X107919132Y-57792826D01*
X108041958Y-57670000D01*
X110551954Y-57670000D01*
X110570486Y-57846319D01*
X110570487Y-57846322D01*
X110625270Y-58014930D01*
X110713915Y-58168469D01*
X110832546Y-58300222D01*
X110975976Y-58404429D01*
X111137939Y-58476540D01*
X111311352Y-58513400D01*
X111311355Y-58513400D01*
X111488648Y-58513400D01*
X111618706Y-58485754D01*
X111662061Y-58476540D01*
X111824023Y-58404429D01*
X111928538Y-58328495D01*
X111967453Y-58300222D01*
X112006785Y-58256540D01*
X112086084Y-58168469D01*
X112174729Y-58014931D01*
X112229514Y-57846319D01*
X112248046Y-57670000D01*
X112229514Y-57493681D01*
X112174729Y-57325069D01*
X112125096Y-57239102D01*
X112086084Y-57171530D01*
X111967453Y-57039777D01*
X111824023Y-56935570D01*
X111662060Y-56863459D01*
X111488648Y-56826600D01*
X111488645Y-56826600D01*
X111311355Y-56826600D01*
X111311352Y-56826600D01*
X111137939Y-56863459D01*
X110975976Y-56935570D01*
X110832546Y-57039777D01*
X110713915Y-57171530D01*
X110625270Y-57325069D01*
X110578989Y-57467511D01*
X110570486Y-57493681D01*
X110551954Y-57670000D01*
X108041958Y-57670000D01*
X108295958Y-57416000D01*
X108752537Y-56959420D01*
X108764727Y-56948731D01*
X108781878Y-56935571D01*
X108787863Y-56930979D01*
X108813017Y-56898198D01*
X108878266Y-56813162D01*
X108935096Y-56675963D01*
X108954480Y-56528729D01*
X108950673Y-56499816D01*
X108949612Y-56483629D01*
X108949612Y-54690000D01*
X109781954Y-54690000D01*
X109800486Y-54866319D01*
X109800487Y-54866322D01*
X109855270Y-55034930D01*
X109943915Y-55188469D01*
X110062546Y-55320222D01*
X110205976Y-55424429D01*
X110367939Y-55496540D01*
X110541352Y-55533400D01*
X110541355Y-55533400D01*
X110718648Y-55533400D01*
X110848707Y-55505754D01*
X110892061Y-55496540D01*
X111054023Y-55424429D01*
X111098361Y-55392216D01*
X111197453Y-55320222D01*
X111316084Y-55188469D01*
X111370699Y-55093873D01*
X111404729Y-55034931D01*
X111459514Y-54866319D01*
X111478046Y-54690000D01*
X111459514Y-54513681D01*
X111404729Y-54345069D01*
X111378836Y-54300221D01*
X111316084Y-54191530D01*
X111197453Y-54059777D01*
X111054023Y-53955570D01*
X110892060Y-53883459D01*
X110718648Y-53846600D01*
X110718645Y-53846600D01*
X110541355Y-53846600D01*
X110541352Y-53846600D01*
X110367939Y-53883459D01*
X110205976Y-53955570D01*
X110062546Y-54059777D01*
X109943915Y-54191530D01*
X109855270Y-54345069D01*
X109800577Y-54513400D01*
X109800486Y-54513681D01*
X109781954Y-54690000D01*
X108949612Y-54690000D01*
X108949612Y-54448077D01*
X108950673Y-54431889D01*
X108950810Y-54430841D01*
X108954480Y-54402978D01*
X108935096Y-54255744D01*
X108878266Y-54118545D01*
X108835708Y-54063082D01*
X108825873Y-54050265D01*
X108787862Y-54000726D01*
X108764724Y-53982972D01*
X108752530Y-53972278D01*
X108450251Y-53669999D01*
X108074517Y-53294266D01*
X108041033Y-53232944D01*
X108038878Y-53219547D01*
X108037545Y-53206869D01*
X108037546Y-53206865D01*
X108019014Y-53030546D01*
X108019013Y-53030543D01*
X108017893Y-53019886D01*
X108030463Y-52951157D01*
X108078195Y-52900133D01*
X108145935Y-52883015D01*
X108166988Y-52885634D01*
X108248220Y-52902900D01*
X108425513Y-52902900D01*
X108580295Y-52870000D01*
X108598926Y-52866040D01*
X108760888Y-52793929D01*
X108852755Y-52727184D01*
X108904318Y-52689722D01*
X108918779Y-52673662D01*
X109022949Y-52557969D01*
X109111594Y-52404431D01*
X109166379Y-52235819D01*
X109169971Y-52201636D01*
X109196556Y-52137023D01*
X109253853Y-52097039D01*
X109293292Y-52090600D01*
X109358788Y-52090600D01*
X109425827Y-52110285D01*
G37*
G04 #@! TD.AperFunction*
G04 #@! TA.AperFunction,Conductor*
G36*
X117174775Y-77731775D02*
G01*
X117201482Y-77752067D01*
X117739681Y-78290266D01*
X117773166Y-78351589D01*
X117776000Y-78377947D01*
X117776000Y-80279021D01*
X117756315Y-80346060D01*
X117703511Y-80391815D01*
X117634353Y-80401759D01*
X117570797Y-80372734D01*
X117564319Y-80366702D01*
X117347296Y-80149679D01*
X117336600Y-80137483D01*
X117318849Y-80114349D01*
X117201033Y-80023947D01*
X117063834Y-79967117D01*
X117063834Y-79967116D01*
X116953568Y-79952600D01*
X116916600Y-79947733D01*
X116887689Y-79951539D01*
X116871506Y-79952600D01*
X116461452Y-79952600D01*
X116445268Y-79951539D01*
X116416358Y-79947733D01*
X116416357Y-79947733D01*
X116397873Y-79950166D01*
X116379390Y-79952600D01*
X116324256Y-79959858D01*
X116269123Y-79967117D01*
X116131924Y-80023947D01*
X116014107Y-80114349D01*
X115996349Y-80137492D01*
X115985656Y-80149684D01*
X115736981Y-80398358D01*
X115724789Y-80409051D01*
X115701649Y-80426807D01*
X115666498Y-80472616D01*
X115666488Y-80472631D01*
X115611247Y-80544624D01*
X115554417Y-80681824D01*
X115535032Y-80829057D01*
X115538839Y-80857966D01*
X115539900Y-80874152D01*
X115539900Y-84183804D01*
X115538839Y-84199989D01*
X115535032Y-84228899D01*
X115535894Y-84235442D01*
X115539900Y-84265868D01*
X115541678Y-84279370D01*
X115554417Y-84376134D01*
X115611247Y-84513333D01*
X115673894Y-84594978D01*
X115701650Y-84631150D01*
X115724498Y-84648682D01*
X115724783Y-84648900D01*
X115736979Y-84659596D01*
X118057686Y-86980303D01*
X118091171Y-87041626D01*
X118086187Y-87111318D01*
X118044315Y-87167251D01*
X117978851Y-87191668D01*
X117944225Y-87189274D01*
X117780066Y-87154382D01*
X117780063Y-87154382D01*
X117602773Y-87154382D01*
X117602770Y-87154382D01*
X117429357Y-87191241D01*
X117267394Y-87263352D01*
X117123964Y-87367559D01*
X117005333Y-87499312D01*
X116916688Y-87652850D01*
X116864884Y-87812292D01*
X116825447Y-87869967D01*
X116761089Y-87897166D01*
X116692242Y-87885252D01*
X116659272Y-87861655D01*
X113655718Y-84858101D01*
X113622233Y-84796778D01*
X113619399Y-84770420D01*
X113619399Y-82001530D01*
X113619399Y-79288841D01*
X113639084Y-79221806D01*
X113691888Y-79176051D01*
X113717607Y-79167557D01*
X113887061Y-79131540D01*
X114049023Y-79059429D01*
X114054267Y-79055619D01*
X114192453Y-78955222D01*
X114311084Y-78823469D01*
X114337090Y-78778425D01*
X114399729Y-78669931D01*
X114454514Y-78501319D01*
X114473046Y-78325000D01*
X114459779Y-78198780D01*
X114472348Y-78130054D01*
X114520080Y-78079030D01*
X114583100Y-78061822D01*
X116060098Y-78061822D01*
X116076281Y-78062882D01*
X116105192Y-78066689D01*
X116252426Y-78047305D01*
X116389625Y-77990475D01*
X116476015Y-77924186D01*
X116541185Y-77898992D01*
X116551502Y-77898562D01*
X116636500Y-77898562D01*
X116783035Y-77867415D01*
X116809913Y-77861702D01*
X116874903Y-77832766D01*
X116971872Y-77789593D01*
X116971875Y-77789591D01*
X117040917Y-77739429D01*
X117106721Y-77715950D01*
X117174775Y-77731775D01*
G37*
G04 #@! TD.AperFunction*
G04 #@! TA.AperFunction,Conductor*
G36*
X118664847Y-87600337D02*
G01*
X118704258Y-87626875D01*
X124091616Y-93014233D01*
X124125101Y-93075556D01*
X124127935Y-93101914D01*
X124127935Y-93967034D01*
X124108250Y-94034073D01*
X124055446Y-94079828D01*
X124029716Y-94088324D01*
X123887939Y-94118459D01*
X123725976Y-94190570D01*
X123582546Y-94294777D01*
X123463913Y-94426533D01*
X123456950Y-94438593D01*
X123406381Y-94486806D01*
X123337774Y-94500026D01*
X123272910Y-94474055D01*
X123261885Y-94464269D01*
X117825051Y-89027434D01*
X117791566Y-88966111D01*
X117796550Y-88896419D01*
X117838422Y-88840486D01*
X117886952Y-88818463D01*
X117935676Y-88808106D01*
X117953479Y-88804322D01*
X118115441Y-88732211D01*
X118132091Y-88720114D01*
X118258871Y-88628004D01*
X118377502Y-88496251D01*
X118428496Y-88407926D01*
X118466147Y-88342713D01*
X118520932Y-88174101D01*
X118539464Y-87997782D01*
X118520932Y-87821463D01*
X118498645Y-87752873D01*
X118496651Y-87683033D01*
X118532732Y-87623200D01*
X118595433Y-87592372D01*
X118664847Y-87600337D01*
G37*
G04 #@! TD.AperFunction*
G04 #@! TA.AperFunction,Conductor*
G36*
X127137740Y-94076847D02*
G01*
X129812817Y-96751924D01*
X129846302Y-96813247D01*
X129841318Y-96882939D01*
X129812818Y-96927286D01*
X129681503Y-97058601D01*
X129545965Y-97252170D01*
X129446097Y-97466336D01*
X129384936Y-97694592D01*
X129364340Y-97930000D01*
X129384936Y-98165407D01*
X129420860Y-98299477D01*
X129446097Y-98393663D01*
X129545965Y-98607830D01*
X129681505Y-98801401D01*
X129848599Y-98968495D01*
X130034596Y-99098732D01*
X130078219Y-99153307D01*
X130085412Y-99222806D01*
X130053890Y-99285160D01*
X130034595Y-99301880D01*
X129848919Y-99431892D01*
X129681889Y-99598922D01*
X129557914Y-99775976D01*
X129503337Y-99819601D01*
X129433839Y-99826793D01*
X129371484Y-99795271D01*
X129368659Y-99792533D01*
X127875607Y-98299481D01*
X125292254Y-95716127D01*
X125258769Y-95654804D01*
X125255935Y-95628446D01*
X125255935Y-94710888D01*
X125275620Y-94643849D01*
X125328424Y-94598094D01*
X125397582Y-94588150D01*
X125461138Y-94617175D01*
X125472085Y-94627916D01*
X125521628Y-94682940D01*
X125665058Y-94787147D01*
X125827021Y-94859258D01*
X126000434Y-94896118D01*
X126000437Y-94896118D01*
X126177730Y-94896118D01*
X126307788Y-94868472D01*
X126351143Y-94859258D01*
X126513105Y-94787147D01*
X126513104Y-94787147D01*
X126656535Y-94682940D01*
X126775166Y-94551187D01*
X126834602Y-94448240D01*
X126863811Y-94397649D01*
X126918596Y-94229037D01*
X126926738Y-94151564D01*
X126953323Y-94086952D01*
X127010620Y-94046967D01*
X127080439Y-94044307D01*
X127137740Y-94076847D01*
G37*
G04 #@! TD.AperFunction*
G04 #@! TA.AperFunction,Conductor*
G36*
X123759770Y-90702885D02*
G01*
X123780412Y-90719519D01*
X126061431Y-93000538D01*
X126094916Y-93061861D01*
X126089932Y-93131553D01*
X126048060Y-93187486D01*
X125999531Y-93209509D01*
X125827021Y-93246177D01*
X125665058Y-93318288D01*
X125521627Y-93422496D01*
X125472083Y-93477520D01*
X125412596Y-93514168D01*
X125342739Y-93512837D01*
X125284691Y-93473949D01*
X125256882Y-93409852D01*
X125255935Y-93394563D01*
X125255935Y-92862035D01*
X125256996Y-92845850D01*
X125257192Y-92844359D01*
X125260803Y-92816935D01*
X125241418Y-92669702D01*
X125184589Y-92532502D01*
X125116890Y-92444274D01*
X125116882Y-92444265D01*
X125102137Y-92425048D01*
X125094185Y-92414685D01*
X125071049Y-92396932D01*
X125058854Y-92386237D01*
X123567498Y-90894881D01*
X123534013Y-90833558D01*
X123538997Y-90763866D01*
X123580869Y-90707933D01*
X123646333Y-90683516D01*
X123655179Y-90683200D01*
X123692731Y-90683200D01*
X123759770Y-90702885D01*
G37*
G04 #@! TD.AperFunction*
G04 #@! TA.AperFunction,Conductor*
G36*
X114129984Y-42828752D02*
G01*
X114196994Y-42848536D01*
X114242671Y-42901408D01*
X114253800Y-42952752D01*
X114253799Y-48067999D01*
X114253800Y-48068000D01*
X127453799Y-48068000D01*
X127453800Y-48068000D01*
X127453800Y-47320199D01*
X130372951Y-47320199D01*
X130392717Y-47571349D01*
X130451526Y-47816310D01*
X130462048Y-47841711D01*
X130547934Y-48049059D01*
X130679564Y-48263859D01*
X130843176Y-48455424D01*
X131034741Y-48619036D01*
X131249541Y-48750666D01*
X131482289Y-48847073D01*
X131727252Y-48905883D01*
X131915518Y-48920700D01*
X131917963Y-48920700D01*
X132038837Y-48920700D01*
X132041282Y-48920700D01*
X132229548Y-48905883D01*
X132474511Y-48847073D01*
X132707259Y-48750666D01*
X132922059Y-48619036D01*
X133113624Y-48455424D01*
X133277236Y-48263859D01*
X133408866Y-48049059D01*
X133505273Y-47816311D01*
X133564083Y-47571348D01*
X133583849Y-47320200D01*
X133564083Y-47069052D01*
X133505273Y-46824089D01*
X133408866Y-46591341D01*
X133277236Y-46376541D01*
X133113624Y-46184976D01*
X132922059Y-46021364D01*
X132707259Y-45889734D01*
X132555513Y-45826879D01*
X132474510Y-45793326D01*
X132229549Y-45734517D01*
X132043716Y-45719891D01*
X132043701Y-45719890D01*
X132041282Y-45719700D01*
X131915518Y-45719700D01*
X131913099Y-45719890D01*
X131913083Y-45719891D01*
X131727250Y-45734517D01*
X131482289Y-45793326D01*
X131249539Y-45889735D01*
X131034742Y-46021363D01*
X130843176Y-46184976D01*
X130679563Y-46376542D01*
X130547935Y-46591339D01*
X130451526Y-46824089D01*
X130392717Y-47069050D01*
X130372951Y-47320199D01*
X127453800Y-47320199D01*
X127453799Y-42972704D01*
X127473484Y-42905666D01*
X127526288Y-42859911D01*
X127577981Y-42848705D01*
X128433084Y-42849974D01*
X128500094Y-42869758D01*
X128545771Y-42922630D01*
X128556900Y-42973974D01*
X128556900Y-43836160D01*
X128564590Y-43862353D01*
X128568347Y-43879626D01*
X128572235Y-43906655D01*
X128572235Y-43906657D01*
X128583573Y-43931483D01*
X128589754Y-43948057D01*
X128597445Y-43974249D01*
X128597446Y-43974251D01*
X128597447Y-43974253D01*
X128612210Y-43997225D01*
X128620683Y-44012743D01*
X128632022Y-44037572D01*
X128649895Y-44058198D01*
X128660497Y-44072362D01*
X128675255Y-44095327D01*
X128695887Y-44113205D01*
X128708392Y-44125710D01*
X128726272Y-44146343D01*
X128749236Y-44161101D01*
X128763402Y-44171705D01*
X128784025Y-44189576D01*
X128784026Y-44189576D01*
X128784027Y-44189577D01*
X128808855Y-44200915D01*
X128824377Y-44209392D01*
X128847344Y-44224152D01*
X128873535Y-44231842D01*
X128890113Y-44238026D01*
X128910591Y-44247377D01*
X128914943Y-44249365D01*
X128941970Y-44253251D01*
X128959249Y-44257010D01*
X128985439Y-44264700D01*
X129021601Y-44264700D01*
X132547508Y-44264700D01*
X132609649Y-44264700D01*
X132617136Y-44264926D01*
X132897674Y-44281895D01*
X132912536Y-44283700D01*
X132990117Y-44297917D01*
X133185292Y-44333684D01*
X133199825Y-44337266D01*
X133464564Y-44419762D01*
X133478552Y-44425067D01*
X133731421Y-44538875D01*
X133744675Y-44545831D01*
X133758003Y-44553888D01*
X133981988Y-44689291D01*
X133994299Y-44697789D01*
X134212586Y-44868806D01*
X134223794Y-44878736D01*
X134419863Y-45074805D01*
X134429793Y-45086013D01*
X134600806Y-45304294D01*
X134609312Y-45316617D01*
X134752768Y-45553924D01*
X134759726Y-45567182D01*
X134861506Y-45793327D01*
X134873527Y-45820035D01*
X134878837Y-45834037D01*
X134961332Y-46098772D01*
X134964916Y-46113311D01*
X135014899Y-46386063D01*
X135016704Y-46400927D01*
X135033674Y-46681463D01*
X135033900Y-46688950D01*
X135033900Y-46767004D01*
X135033934Y-46767272D01*
X135042022Y-65594990D01*
X135022366Y-65662038D01*
X134969582Y-65707815D01*
X134900428Y-65717788D01*
X134836860Y-65688791D01*
X134830341Y-65682724D01*
X134581858Y-65434241D01*
X134548373Y-65372918D01*
X134549763Y-65314468D01*
X134595063Y-65145408D01*
X134615659Y-64910000D01*
X134608164Y-64824339D01*
X134595063Y-64674592D01*
X134590811Y-64658724D01*
X134533903Y-64446337D01*
X134434035Y-64232171D01*
X134298495Y-64038599D01*
X134131401Y-63871505D01*
X133945839Y-63741573D01*
X133902216Y-63686998D01*
X133895022Y-63617500D01*
X133926545Y-63555145D01*
X133945837Y-63538428D01*
X134131401Y-63408495D01*
X134298495Y-63241401D01*
X134434035Y-63047830D01*
X134533903Y-62833663D01*
X134595063Y-62605408D01*
X134615659Y-62370000D01*
X134595063Y-62134592D01*
X134533903Y-61906337D01*
X134434035Y-61692171D01*
X134298495Y-61498599D01*
X134131401Y-61331505D01*
X133945839Y-61201573D01*
X133902216Y-61146998D01*
X133895022Y-61077500D01*
X133926545Y-61015145D01*
X133945837Y-60998428D01*
X134131401Y-60868495D01*
X134298495Y-60701401D01*
X134434035Y-60507830D01*
X134533903Y-60293663D01*
X134595063Y-60065408D01*
X134615659Y-59830000D01*
X134608981Y-59753677D01*
X134595063Y-59594592D01*
X134584355Y-59554629D01*
X134533903Y-59366337D01*
X134434035Y-59152171D01*
X134298495Y-58958599D01*
X134131401Y-58791505D01*
X133945402Y-58661267D01*
X133901780Y-58606692D01*
X133894587Y-58537193D01*
X133926109Y-58474839D01*
X133945405Y-58458119D01*
X134131078Y-58328109D01*
X134298106Y-58161081D01*
X134433600Y-57967576D01*
X134533430Y-57753492D01*
X134590636Y-57540000D01*
X133693686Y-57540000D01*
X133719493Y-57499844D01*
X133760000Y-57361889D01*
X133760000Y-57218111D01*
X133719493Y-57080156D01*
X133693686Y-57040000D01*
X134590636Y-57040000D01*
X134590635Y-57039999D01*
X134533430Y-56826507D01*
X134433599Y-56612421D01*
X134298109Y-56418921D01*
X134131081Y-56251893D01*
X133945404Y-56121880D01*
X133901780Y-56067303D01*
X133894587Y-55997804D01*
X133926109Y-55935450D01*
X133945399Y-55918734D01*
X134131401Y-55788495D01*
X134298495Y-55621401D01*
X134434035Y-55427830D01*
X134533903Y-55213663D01*
X134595063Y-54985408D01*
X134615659Y-54750000D01*
X134610409Y-54689999D01*
X134595063Y-54514592D01*
X134584867Y-54476540D01*
X134533903Y-54286337D01*
X134434035Y-54072171D01*
X134298495Y-53878599D01*
X134131401Y-53711505D01*
X133945839Y-53581573D01*
X133902216Y-53526998D01*
X133895022Y-53457500D01*
X133926545Y-53395145D01*
X133945837Y-53378428D01*
X134131401Y-53248495D01*
X134298495Y-53081401D01*
X134434035Y-52887830D01*
X134533903Y-52673663D01*
X134595063Y-52445408D01*
X134615659Y-52210000D01*
X134595063Y-51974592D01*
X134533903Y-51746337D01*
X134434035Y-51532171D01*
X134298495Y-51338599D01*
X134131401Y-51171505D01*
X133937830Y-51035965D01*
X133723663Y-50936097D01*
X133662501Y-50919709D01*
X133495407Y-50874936D01*
X133259999Y-50854340D01*
X133024592Y-50874936D01*
X132796336Y-50936097D01*
X132582170Y-51035965D01*
X132388601Y-51171503D01*
X132266673Y-51293431D01*
X132205350Y-51326915D01*
X132135658Y-51321931D01*
X132079725Y-51280059D01*
X132062810Y-51249082D01*
X132055658Y-51229907D01*
X132013796Y-51117669D01*
X131927546Y-51002454D01*
X131812331Y-50916204D01*
X131677483Y-50865909D01*
X131617873Y-50859500D01*
X131614550Y-50859500D01*
X129825439Y-50859500D01*
X129825420Y-50859500D01*
X129822128Y-50859501D01*
X129818848Y-50859853D01*
X129818840Y-50859854D01*
X129762515Y-50865909D01*
X129627669Y-50916204D01*
X129512454Y-51002454D01*
X129426204Y-51117668D01*
X129408338Y-51165571D01*
X129375909Y-51252517D01*
X129369500Y-51312127D01*
X129369500Y-51315448D01*
X129369500Y-51315449D01*
X129369500Y-52807135D01*
X129349815Y-52874174D01*
X129297011Y-52919929D01*
X129227853Y-52929873D01*
X129195065Y-52920415D01*
X129112058Y-52883458D01*
X128938648Y-52846600D01*
X128938645Y-52846600D01*
X128761355Y-52846600D01*
X128761352Y-52846600D01*
X128587939Y-52883459D01*
X128425976Y-52955570D01*
X128282546Y-53059777D01*
X128163915Y-53191530D01*
X128075270Y-53345069D01*
X128020487Y-53513677D01*
X128020486Y-53513681D01*
X128001954Y-53690000D01*
X128020486Y-53866319D01*
X128020487Y-53866322D01*
X128075270Y-54034930D01*
X128163915Y-54188469D01*
X128254150Y-54288684D01*
X128284380Y-54351675D01*
X128286000Y-54371656D01*
X128286000Y-64466394D01*
X128284939Y-64482579D01*
X128281132Y-64511489D01*
X128286000Y-64548457D01*
X128300517Y-64658724D01*
X128357347Y-64795923D01*
X128447749Y-64913739D01*
X128470887Y-64931493D01*
X128483083Y-64942189D01*
X129633212Y-66092318D01*
X129666697Y-66153641D01*
X129661713Y-66223333D01*
X129633212Y-66267680D01*
X128351212Y-67549681D01*
X128289889Y-67583166D01*
X128263531Y-67586000D01*
X126911262Y-67586000D01*
X126844223Y-67566315D01*
X126798468Y-67513511D01*
X126787942Y-67474965D01*
X126776114Y-67362428D01*
X126721329Y-67193816D01*
X126653494Y-67076322D01*
X126632684Y-67040277D01*
X126514053Y-66908524D01*
X126469518Y-66876168D01*
X126426852Y-66820838D01*
X126420873Y-66751225D01*
X126453479Y-66689430D01*
X126491969Y-66662569D01*
X126499023Y-66659429D01*
X126539021Y-66630369D01*
X126642453Y-66555222D01*
X126670801Y-66523739D01*
X126761084Y-66423469D01*
X126849729Y-66269931D01*
X126904514Y-66101319D01*
X126923046Y-65925000D01*
X126904514Y-65748681D01*
X126849729Y-65580069D01*
X126820862Y-65530069D01*
X126761084Y-65426530D01*
X126642453Y-65294777D01*
X126499023Y-65190570D01*
X126337060Y-65118459D01*
X126163648Y-65081600D01*
X126163645Y-65081600D01*
X125986355Y-65081600D01*
X125986352Y-65081600D01*
X125812939Y-65118458D01*
X125650978Y-65190569D01*
X125619792Y-65213227D01*
X125553985Y-65236705D01*
X125485932Y-65220878D01*
X125474024Y-65213225D01*
X125374023Y-65140570D01*
X125212060Y-65068459D01*
X125038648Y-65031600D01*
X125038645Y-65031600D01*
X124861355Y-65031600D01*
X124861352Y-65031600D01*
X124687939Y-65068459D01*
X124525976Y-65140570D01*
X124382546Y-65244777D01*
X124263915Y-65376530D01*
X124175270Y-65530069D01*
X124123699Y-65688791D01*
X124120486Y-65698681D01*
X124101954Y-65875000D01*
X124120486Y-66051319D01*
X124120487Y-66051322D01*
X124132282Y-66087625D01*
X124134277Y-66157466D01*
X124098196Y-66217299D01*
X124035494Y-66248126D01*
X123966080Y-66240161D01*
X123941466Y-66226260D01*
X123823523Y-66140570D01*
X123661560Y-66068459D01*
X123488148Y-66031600D01*
X123488145Y-66031600D01*
X123310855Y-66031600D01*
X123310852Y-66031600D01*
X123137439Y-66068459D01*
X122975476Y-66140570D01*
X122832046Y-66244777D01*
X122713415Y-66376530D01*
X122624770Y-66530069D01*
X122572968Y-66689503D01*
X122569986Y-66698681D01*
X122551454Y-66875000D01*
X122569986Y-67051319D01*
X122569987Y-67051322D01*
X122624770Y-67219930D01*
X122713415Y-67373469D01*
X122832046Y-67505222D01*
X122975476Y-67609429D01*
X123137439Y-67681540D01*
X123310852Y-67718400D01*
X123310855Y-67718400D01*
X123488148Y-67718400D01*
X123618206Y-67690755D01*
X123661561Y-67681540D01*
X123823523Y-67609429D01*
X123823523Y-67609428D01*
X123966953Y-67505222D01*
X124085584Y-67373469D01*
X124174229Y-67219931D01*
X124229014Y-67051319D01*
X124247546Y-66875000D01*
X124229014Y-66698681D01*
X124217216Y-66662373D01*
X124215222Y-66592534D01*
X124251302Y-66532701D01*
X124314003Y-66501873D01*
X124383417Y-66509838D01*
X124408033Y-66523739D01*
X124525976Y-66609429D01*
X124687939Y-66681540D01*
X124861352Y-66718400D01*
X124861355Y-66718400D01*
X125038648Y-66718400D01*
X125212059Y-66681541D01*
X125326992Y-66630369D01*
X125372682Y-66610025D01*
X125441932Y-66600741D01*
X125505208Y-66630369D01*
X125542422Y-66689503D01*
X125541757Y-66759370D01*
X125503426Y-66817786D01*
X125496004Y-66823623D01*
X125379145Y-66908526D01*
X125260515Y-67040277D01*
X125171870Y-67193816D01*
X125117087Y-67362424D01*
X125117086Y-67362428D01*
X125098554Y-67538747D01*
X125117086Y-67715066D01*
X125117087Y-67715069D01*
X125119074Y-67721185D01*
X125121067Y-67791027D01*
X125088823Y-67847181D01*
X124171625Y-68764379D01*
X124110302Y-68797864D01*
X124040610Y-68792880D01*
X123991793Y-68759669D01*
X123983374Y-68750319D01*
X123966954Y-68732082D01*
X123966953Y-68732081D01*
X123966952Y-68732080D01*
X123823523Y-68627873D01*
X123661560Y-68555762D01*
X123488148Y-68518903D01*
X123488145Y-68518903D01*
X123310855Y-68518903D01*
X123310852Y-68518903D01*
X123137439Y-68555762D01*
X122975476Y-68627873D01*
X122832046Y-68732080D01*
X122713415Y-68863833D01*
X122624770Y-69017372D01*
X122569987Y-69185980D01*
X122569986Y-69185984D01*
X122551454Y-69362303D01*
X122569986Y-69538622D01*
X122569987Y-69538625D01*
X122624770Y-69707233D01*
X122713415Y-69860772D01*
X122806105Y-69963715D01*
X122836335Y-70026707D01*
X122827709Y-70096042D01*
X122801636Y-70134368D01*
X119377342Y-73558662D01*
X119316019Y-73592147D01*
X119246327Y-73587163D01*
X119209873Y-73562361D01*
X119209363Y-73563065D01*
X119055388Y-73451196D01*
X118893425Y-73379085D01*
X118720013Y-73342226D01*
X118720010Y-73342226D01*
X118542720Y-73342226D01*
X118542717Y-73342226D01*
X118369304Y-73379085D01*
X118207341Y-73451196D01*
X118063911Y-73555403D01*
X117945280Y-73687156D01*
X117856635Y-73840695D01*
X117811301Y-73980222D01*
X117801851Y-74009307D01*
X117783319Y-74185626D01*
X117801851Y-74361945D01*
X117801852Y-74361948D01*
X117856635Y-74530556D01*
X117945280Y-74684095D01*
X118063911Y-74815848D01*
X118207341Y-74920055D01*
X118369304Y-74992166D01*
X118542717Y-75029026D01*
X118649373Y-75029026D01*
X118716412Y-75048711D01*
X118762167Y-75101515D01*
X118773373Y-75153026D01*
X118773373Y-75659076D01*
X118772313Y-75675257D01*
X118768506Y-75704174D01*
X118778739Y-75781894D01*
X118787891Y-75851408D01*
X118825168Y-75941401D01*
X118840668Y-75978822D01*
X118848137Y-76048291D01*
X118816862Y-76110771D01*
X118756773Y-76146423D01*
X118700327Y-76147565D01*
X118538648Y-76113200D01*
X118538645Y-76113200D01*
X118361355Y-76113200D01*
X118361352Y-76113200D01*
X118187939Y-76150059D01*
X118025976Y-76222170D01*
X117882546Y-76326377D01*
X117763913Y-76458132D01*
X117749132Y-76483735D01*
X117698565Y-76531950D01*
X117629958Y-76545172D01*
X117565093Y-76519204D01*
X117554065Y-76509415D01*
X116247351Y-75202701D01*
X116213866Y-75141378D01*
X116211032Y-75115020D01*
X116211032Y-74306045D01*
X116230717Y-74239006D01*
X116283521Y-74193251D01*
X116309252Y-74184755D01*
X116406026Y-74164184D01*
X116441993Y-74156540D01*
X116603955Y-74084429D01*
X116676799Y-74031505D01*
X116747385Y-73980222D01*
X116866016Y-73848469D01*
X116870504Y-73840695D01*
X116954661Y-73694931D01*
X117009446Y-73526319D01*
X117027978Y-73350000D01*
X117009446Y-73173681D01*
X116954661Y-73005069D01*
X116948075Y-72993662D01*
X116866016Y-72851530D01*
X116747385Y-72719777D01*
X116603955Y-72615570D01*
X116441992Y-72543459D01*
X116309251Y-72515244D01*
X116247769Y-72482052D01*
X116213993Y-72420888D01*
X116211032Y-72393954D01*
X116211032Y-71590730D01*
X116230717Y-71523691D01*
X116283521Y-71477936D01*
X116309252Y-71469439D01*
X116314140Y-71468400D01*
X116314145Y-71468400D01*
X116487561Y-71431540D01*
X116487562Y-71431539D01*
X116487564Y-71431539D01*
X116649523Y-71359429D01*
X116792953Y-71255222D01*
X116806745Y-71239905D01*
X116911584Y-71123469D01*
X117000229Y-70969931D01*
X117055014Y-70801319D01*
X117073546Y-70625000D01*
X117055014Y-70448681D01*
X117000229Y-70280069D01*
X116911584Y-70126530D01*
X116792953Y-69994777D01*
X116649523Y-69890570D01*
X116487560Y-69818459D01*
X116309251Y-69780559D01*
X116247769Y-69747367D01*
X116213993Y-69686204D01*
X116211032Y-69659269D01*
X116211032Y-66900000D01*
X116976954Y-66900000D01*
X116995486Y-67076319D01*
X116995487Y-67076322D01*
X117050270Y-67244930D01*
X117138915Y-67398469D01*
X117257546Y-67530222D01*
X117400976Y-67634429D01*
X117562939Y-67706540D01*
X117736352Y-67743400D01*
X117736355Y-67743400D01*
X117913648Y-67743400D01*
X118046934Y-67715069D01*
X118087061Y-67706540D01*
X118249023Y-67634429D01*
X118357256Y-67555794D01*
X118392453Y-67530222D01*
X118511084Y-67398469D01*
X118531892Y-67362428D01*
X118599729Y-67244931D01*
X118654514Y-67076319D01*
X118673046Y-66900000D01*
X118654514Y-66723681D01*
X118599729Y-66555069D01*
X118570949Y-66505221D01*
X118511084Y-66401530D01*
X118392453Y-66269777D01*
X118249023Y-66165570D01*
X118087060Y-66093459D01*
X117913648Y-66056600D01*
X117913645Y-66056600D01*
X117736355Y-66056600D01*
X117736352Y-66056600D01*
X117562939Y-66093459D01*
X117400976Y-66165570D01*
X117257546Y-66269777D01*
X117138915Y-66401530D01*
X117050270Y-66555069D01*
X116998788Y-66713518D01*
X116995486Y-66723681D01*
X116976954Y-66900000D01*
X116211032Y-66900000D01*
X116211032Y-62491932D01*
X123893886Y-62491932D01*
X123912418Y-62668251D01*
X123912419Y-62668254D01*
X123967202Y-62836862D01*
X124055847Y-62990401D01*
X124174478Y-63122154D01*
X124317908Y-63226361D01*
X124479871Y-63298472D01*
X124653284Y-63335332D01*
X124653287Y-63335332D01*
X124830580Y-63335332D01*
X124960638Y-63307686D01*
X125003993Y-63298472D01*
X125165955Y-63226361D01*
X125223258Y-63184728D01*
X125309385Y-63122154D01*
X125428016Y-62990401D01*
X125497529Y-62870000D01*
X125516661Y-62836863D01*
X125571446Y-62668251D01*
X125589978Y-62491932D01*
X125571446Y-62315613D01*
X125516661Y-62147001D01*
X125475853Y-62076319D01*
X125428016Y-61993462D01*
X125309385Y-61861709D01*
X125165955Y-61757502D01*
X125003992Y-61685391D01*
X124830580Y-61648532D01*
X124830577Y-61648532D01*
X124653287Y-61648532D01*
X124653284Y-61648532D01*
X124479871Y-61685391D01*
X124317908Y-61757502D01*
X124174478Y-61861709D01*
X124055847Y-61993462D01*
X123967202Y-62147001D01*
X123912419Y-62315609D01*
X123912418Y-62315613D01*
X123893886Y-62491932D01*
X116211032Y-62491932D01*
X116211032Y-60475000D01*
X119176954Y-60475000D01*
X119195486Y-60651319D01*
X119195487Y-60651322D01*
X119250270Y-60819930D01*
X119338915Y-60973469D01*
X119457546Y-61105222D01*
X119600976Y-61209429D01*
X119762939Y-61281540D01*
X119936352Y-61318400D01*
X119936355Y-61318400D01*
X120113648Y-61318400D01*
X120243706Y-61290754D01*
X120287061Y-61281540D01*
X120449023Y-61209429D01*
X120482427Y-61185160D01*
X120592453Y-61105222D01*
X120603045Y-61093459D01*
X120711084Y-60973469D01*
X120799729Y-60819931D01*
X120854514Y-60651319D01*
X120873046Y-60475000D01*
X120854514Y-60298681D01*
X120799729Y-60130069D01*
X120762397Y-60065408D01*
X120711084Y-59976530D01*
X120669188Y-59930000D01*
X121591954Y-59930000D01*
X121610486Y-60106319D01*
X121610487Y-60106322D01*
X121665270Y-60274930D01*
X121753915Y-60428469D01*
X121872546Y-60560222D01*
X122015976Y-60664429D01*
X122177939Y-60736540D01*
X122351352Y-60773400D01*
X122351355Y-60773400D01*
X122528648Y-60773400D01*
X122702057Y-60736541D01*
X122702057Y-60736540D01*
X122702061Y-60736540D01*
X122829615Y-60679748D01*
X122898862Y-60670463D01*
X122930485Y-60679749D01*
X122989671Y-60706101D01*
X123163084Y-60742960D01*
X123163087Y-60742960D01*
X123340380Y-60742960D01*
X123483024Y-60712640D01*
X123513793Y-60706100D01*
X123675755Y-60633989D01*
X123722749Y-60599846D01*
X123819185Y-60529782D01*
X123831739Y-60515840D01*
X123931325Y-60405237D01*
X123990813Y-60368588D01*
X124060670Y-60369919D01*
X124118718Y-60408805D01*
X124130863Y-60426209D01*
X124154915Y-60467869D01*
X124273546Y-60599622D01*
X124416976Y-60703829D01*
X124578939Y-60775940D01*
X124752352Y-60812800D01*
X124752355Y-60812800D01*
X124929648Y-60812800D01*
X125059706Y-60785154D01*
X125103061Y-60775940D01*
X125265023Y-60703829D01*
X125289055Y-60686368D01*
X125354859Y-60662888D01*
X125422914Y-60678712D01*
X125434821Y-60686364D01*
X125500977Y-60734429D01*
X125500978Y-60734429D01*
X125500979Y-60734430D01*
X125662939Y-60806540D01*
X125836352Y-60843400D01*
X125836355Y-60843400D01*
X126013648Y-60843400D01*
X126157609Y-60812800D01*
X126187061Y-60806540D01*
X126349023Y-60734429D01*
X126379013Y-60712640D01*
X126492453Y-60630222D01*
X126611084Y-60498469D01*
X126628751Y-60467869D01*
X126699729Y-60344931D01*
X126754514Y-60176319D01*
X126773046Y-60000000D01*
X126754514Y-59823681D01*
X126699729Y-59655069D01*
X126641740Y-59554629D01*
X126611084Y-59501530D01*
X126492453Y-59369777D01*
X126349023Y-59265570D01*
X126187060Y-59193459D01*
X126013648Y-59156600D01*
X126013645Y-59156600D01*
X125836355Y-59156600D01*
X125836352Y-59156600D01*
X125662939Y-59193458D01*
X125500978Y-59265569D01*
X125476941Y-59283033D01*
X125411134Y-59306511D01*
X125343080Y-59290684D01*
X125331172Y-59283031D01*
X125312326Y-59269339D01*
X125265023Y-59234971D01*
X125265022Y-59234970D01*
X125265020Y-59234969D01*
X125103060Y-59162859D01*
X124929648Y-59126000D01*
X124929645Y-59126000D01*
X124752355Y-59126000D01*
X124752352Y-59126000D01*
X124578939Y-59162859D01*
X124416976Y-59234970D01*
X124273546Y-59339178D01*
X124161404Y-59463723D01*
X124101918Y-59500371D01*
X124032061Y-59499040D01*
X123974012Y-59460153D01*
X123961868Y-59442749D01*
X123937817Y-59401092D01*
X123819185Y-59269337D01*
X123675755Y-59165130D01*
X123513792Y-59093019D01*
X123340380Y-59056160D01*
X123340377Y-59056160D01*
X123163087Y-59056160D01*
X123163084Y-59056160D01*
X122989676Y-59093018D01*
X122989671Y-59093019D01*
X122989671Y-59093020D01*
X122915598Y-59126000D01*
X122862118Y-59149811D01*
X122792868Y-59159095D01*
X122761247Y-59149811D01*
X122702058Y-59123458D01*
X122528648Y-59086600D01*
X122528645Y-59086600D01*
X122351355Y-59086600D01*
X122351352Y-59086600D01*
X122177939Y-59123459D01*
X122015976Y-59195570D01*
X121872546Y-59299777D01*
X121753915Y-59431530D01*
X121665270Y-59585069D01*
X121610487Y-59753677D01*
X121610486Y-59753681D01*
X121591954Y-59930000D01*
X120669188Y-59930000D01*
X120592453Y-59844777D01*
X120449023Y-59740570D01*
X120287060Y-59668459D01*
X120113648Y-59631600D01*
X120113645Y-59631600D01*
X119936355Y-59631600D01*
X119936352Y-59631600D01*
X119762939Y-59668459D01*
X119600976Y-59740570D01*
X119457546Y-59844777D01*
X119338915Y-59976530D01*
X119250270Y-60130069D01*
X119197116Y-60293663D01*
X119195486Y-60298681D01*
X119176954Y-60475000D01*
X116211032Y-60475000D01*
X116211032Y-57450000D01*
X118401954Y-57450000D01*
X118420486Y-57626319D01*
X118420487Y-57626322D01*
X118475270Y-57794930D01*
X118563915Y-57948469D01*
X118682546Y-58080222D01*
X118825976Y-58184429D01*
X118987939Y-58256540D01*
X119161352Y-58293400D01*
X119161355Y-58293400D01*
X119338648Y-58293400D01*
X119468707Y-58265754D01*
X119512061Y-58256540D01*
X119674023Y-58184429D01*
X119817454Y-58080221D01*
X119934318Y-57950429D01*
X119993804Y-57913781D01*
X120063661Y-57915111D01*
X120121710Y-57953998D01*
X120133855Y-57971403D01*
X120163914Y-58023467D01*
X120282546Y-58155222D01*
X120425976Y-58259429D01*
X120587939Y-58331540D01*
X120761352Y-58368400D01*
X120761355Y-58368400D01*
X120938648Y-58368400D01*
X121068707Y-58340754D01*
X121112061Y-58331540D01*
X121274023Y-58259429D01*
X121277999Y-58256540D01*
X121417453Y-58155222D01*
X121536084Y-58023469D01*
X121579385Y-57948469D01*
X121624729Y-57869931D01*
X121679514Y-57701319D01*
X121698046Y-57525000D01*
X121679514Y-57348681D01*
X121624729Y-57180069D01*
X121576747Y-57096961D01*
X121536084Y-57026530D01*
X121417453Y-56894777D01*
X121274023Y-56790570D01*
X121112060Y-56718459D01*
X120938648Y-56681600D01*
X120938645Y-56681600D01*
X120761355Y-56681600D01*
X120761352Y-56681600D01*
X120587939Y-56718459D01*
X120425976Y-56790570D01*
X120282549Y-56894776D01*
X120165681Y-57024570D01*
X120106194Y-57061218D01*
X120036337Y-57059887D01*
X119978289Y-57021000D01*
X119966146Y-57003601D01*
X119936084Y-56951531D01*
X119888063Y-56898198D01*
X119817453Y-56819777D01*
X119674023Y-56715570D01*
X119512060Y-56643459D01*
X119338648Y-56606600D01*
X119338645Y-56606600D01*
X119161355Y-56606600D01*
X119161352Y-56606600D01*
X118987939Y-56643459D01*
X118825976Y-56715570D01*
X118682546Y-56819777D01*
X118563915Y-56951530D01*
X118475270Y-57105069D01*
X118431726Y-57239087D01*
X118420486Y-57273681D01*
X118401954Y-57450000D01*
X116211032Y-57450000D01*
X116211032Y-56597784D01*
X116212093Y-56581598D01*
X116215899Y-56552689D01*
X116208938Y-56499816D01*
X116196515Y-56405456D01*
X116139685Y-56268257D01*
X116071981Y-56180022D01*
X116071980Y-56180021D01*
X116049282Y-56150440D01*
X116026146Y-56132687D01*
X116013951Y-56121992D01*
X112607014Y-52715055D01*
X112573529Y-52653732D01*
X112578513Y-52584040D01*
X112610416Y-52541422D01*
X112608733Y-52539907D01*
X112736084Y-52398469D01*
X112751637Y-52371530D01*
X112824729Y-52244931D01*
X112879514Y-52076319D01*
X112898046Y-51900000D01*
X112879514Y-51723681D01*
X112824729Y-51555069D01*
X112764829Y-51451319D01*
X112736084Y-51401530D01*
X112622156Y-51275000D01*
X115076954Y-51275000D01*
X115095486Y-51451319D01*
X115095487Y-51451322D01*
X115150270Y-51619930D01*
X115238915Y-51773469D01*
X115357546Y-51905222D01*
X115500976Y-52009429D01*
X115662939Y-52081540D01*
X115836352Y-52118400D01*
X115993327Y-52118400D01*
X116060366Y-52138085D01*
X116106121Y-52190889D01*
X116116065Y-52260047D01*
X116087040Y-52323603D01*
X116085477Y-52325372D01*
X116043915Y-52371530D01*
X115955270Y-52525069D01*
X115901772Y-52689722D01*
X115900486Y-52693681D01*
X115898240Y-52715055D01*
X115896965Y-52727184D01*
X115870380Y-52791798D01*
X115813082Y-52831782D01*
X115799425Y-52835511D01*
X115667939Y-52863459D01*
X115505976Y-52935570D01*
X115362546Y-53039777D01*
X115243915Y-53171530D01*
X115155270Y-53325069D01*
X115104931Y-53480000D01*
X115100486Y-53493681D01*
X115081954Y-53670000D01*
X115100486Y-53846319D01*
X115100487Y-53846322D01*
X115155270Y-54014930D01*
X115243915Y-54168469D01*
X115362546Y-54300222D01*
X115505976Y-54404429D01*
X115667939Y-54476540D01*
X115841352Y-54513400D01*
X115841355Y-54513400D01*
X116018648Y-54513400D01*
X116148707Y-54485754D01*
X116192061Y-54476540D01*
X116354023Y-54404429D01*
X116356022Y-54402977D01*
X116497453Y-54300222D01*
X116616084Y-54168469D01*
X116704729Y-54014931D01*
X116759514Y-53846319D01*
X116763035Y-53812814D01*
X116789618Y-53748203D01*
X116846915Y-53708218D01*
X116860575Y-53704488D01*
X116940096Y-53687585D01*
X116992061Y-53676540D01*
X117154023Y-53604429D01*
X117208492Y-53564855D01*
X117297453Y-53500222D01*
X117416084Y-53368469D01*
X117441141Y-53325069D01*
X117504729Y-53214931D01*
X117559514Y-53046319D01*
X117578046Y-52870000D01*
X117559514Y-52693681D01*
X117504729Y-52525069D01*
X117504728Y-52525068D01*
X117416084Y-52371530D01*
X117297453Y-52239777D01*
X117154023Y-52135570D01*
X116992060Y-52063459D01*
X116818648Y-52026600D01*
X116818645Y-52026600D01*
X116661673Y-52026600D01*
X116594634Y-52006915D01*
X116548879Y-51954111D01*
X116538935Y-51884953D01*
X116567960Y-51821397D01*
X116569523Y-51819628D01*
X116611084Y-51773469D01*
X116639831Y-51723677D01*
X116699729Y-51619931D01*
X116754514Y-51451319D01*
X116773046Y-51275000D01*
X116754514Y-51098681D01*
X116699729Y-50930069D01*
X116667898Y-50874936D01*
X116611084Y-50776530D01*
X116492453Y-50644777D01*
X116349023Y-50540570D01*
X116187060Y-50468459D01*
X116013648Y-50431600D01*
X116013645Y-50431600D01*
X115836355Y-50431600D01*
X115836352Y-50431600D01*
X115662939Y-50468459D01*
X115500976Y-50540570D01*
X115357546Y-50644777D01*
X115238915Y-50776530D01*
X115150270Y-50930069D01*
X115097182Y-51093460D01*
X115095486Y-51098681D01*
X115076954Y-51275000D01*
X112622156Y-51275000D01*
X112617453Y-51269777D01*
X112474023Y-51165570D01*
X112312060Y-51093459D01*
X112138648Y-51056600D01*
X112138645Y-51056600D01*
X112055578Y-51056600D01*
X111988539Y-51036915D01*
X111967897Y-51020281D01*
X110354396Y-49406779D01*
X110343700Y-49394583D01*
X110325949Y-49371449D01*
X110208133Y-49281047D01*
X110070934Y-49224217D01*
X110070933Y-49224216D01*
X109960668Y-49209700D01*
X109923700Y-49204833D01*
X109894789Y-49208639D01*
X109878606Y-49209700D01*
X107484159Y-49209700D01*
X107467973Y-49208639D01*
X107439058Y-49204832D01*
X107291824Y-49224217D01*
X107154624Y-49281047D01*
X107036807Y-49371449D01*
X107019052Y-49394588D01*
X107008359Y-49406780D01*
X106147581Y-50267559D01*
X106086258Y-50301044D01*
X106016567Y-50296060D01*
X105960633Y-50254188D01*
X105936216Y-50188724D01*
X105935900Y-50179878D01*
X105935900Y-47345599D01*
X107385951Y-47345599D01*
X107405717Y-47596749D01*
X107464526Y-47841710D01*
X107512730Y-47958084D01*
X107560934Y-48074459D01*
X107692564Y-48289259D01*
X107856176Y-48480824D01*
X108047741Y-48644436D01*
X108262541Y-48776066D01*
X108495289Y-48872473D01*
X108740252Y-48931283D01*
X108928518Y-48946100D01*
X108930963Y-48946100D01*
X109051837Y-48946100D01*
X109054282Y-48946100D01*
X109242548Y-48931283D01*
X109487511Y-48872473D01*
X109720259Y-48776066D01*
X109935059Y-48644436D01*
X110126624Y-48480824D01*
X110290236Y-48289259D01*
X110421866Y-48074459D01*
X110518273Y-47841711D01*
X110577083Y-47596748D01*
X110596849Y-47345600D01*
X110577083Y-47094452D01*
X110518273Y-46849489D01*
X110421866Y-46616741D01*
X110290236Y-46401941D01*
X110126624Y-46210376D01*
X109935059Y-46046764D01*
X109720259Y-45915134D01*
X109569870Y-45852841D01*
X109487510Y-45818726D01*
X109242549Y-45759917D01*
X109056716Y-45745291D01*
X109056701Y-45745290D01*
X109054282Y-45745100D01*
X108928518Y-45745100D01*
X108926099Y-45745290D01*
X108926083Y-45745291D01*
X108740250Y-45759917D01*
X108495289Y-45818726D01*
X108262539Y-45915135D01*
X108047742Y-46046763D01*
X107856176Y-46210376D01*
X107692563Y-46401942D01*
X107560935Y-46616739D01*
X107464526Y-46849489D01*
X107405717Y-47094450D01*
X107385951Y-47345599D01*
X105935900Y-47345599D01*
X105935900Y-46866354D01*
X105936544Y-46861297D01*
X105936436Y-46848485D01*
X105936437Y-46848482D01*
X105935913Y-46786339D01*
X105936078Y-46778861D01*
X105951343Y-46487430D01*
X105953041Y-46472478D01*
X105965604Y-46400927D01*
X106002852Y-46188778D01*
X106006347Y-46174152D01*
X106090172Y-45898576D01*
X106095412Y-45884485D01*
X106212007Y-45621107D01*
X106218923Y-45607743D01*
X106264657Y-45531141D01*
X106366580Y-45360426D01*
X106375055Y-45348012D01*
X106551597Y-45120407D01*
X106561510Y-45109115D01*
X106764343Y-44904568D01*
X106775539Y-44894571D01*
X107001652Y-44716121D01*
X107014002Y-44707536D01*
X107260073Y-44557801D01*
X107273371Y-44550778D01*
X107535757Y-44431973D01*
X107549816Y-44426611D01*
X107824668Y-44340475D01*
X107839267Y-44336856D01*
X108122537Y-44284660D01*
X108137471Y-44282837D01*
X108428403Y-44265142D01*
X108435931Y-44264914D01*
X108518482Y-44264914D01*
X108518514Y-44264907D01*
X111940814Y-44264700D01*
X112009761Y-44264700D01*
X112009762Y-44264700D01*
X112035966Y-44257005D01*
X112053254Y-44253244D01*
X112080287Y-44249356D01*
X112105093Y-44238025D01*
X112121679Y-44231837D01*
X112147853Y-44224153D01*
X112170836Y-44209381D01*
X112186353Y-44200907D01*
X112211199Y-44189560D01*
X112231820Y-44171688D01*
X112245966Y-44161098D01*
X112268928Y-44146343D01*
X112286813Y-44125700D01*
X112299322Y-44113191D01*
X112319963Y-44095305D01*
X112334710Y-44072353D01*
X112345313Y-44058188D01*
X112363177Y-44037573D01*
X112374526Y-44012720D01*
X112382993Y-43997214D01*
X112397766Y-43974225D01*
X112405452Y-43948038D01*
X112411632Y-43931470D01*
X112422965Y-43906657D01*
X112426852Y-43879615D01*
X112430608Y-43862344D01*
X112438304Y-43836130D01*
X112438300Y-43763119D01*
X112438300Y-42950422D01*
X112457983Y-42883387D01*
X112510787Y-42837632D01*
X112562481Y-42826426D01*
X114129984Y-42828752D01*
G37*
G04 #@! TD.AperFunction*
G04 #@! TA.AperFunction,Conductor*
G36*
X122573087Y-74236411D02*
G01*
X122618842Y-74289215D01*
X122628786Y-74358373D01*
X122623979Y-74379043D01*
X122574632Y-74530921D01*
X122570486Y-74543681D01*
X122563901Y-74606335D01*
X122561321Y-74630884D01*
X122534736Y-74695498D01*
X122500125Y-74719651D01*
X122519203Y-74728364D01*
X122556977Y-74787142D01*
X122561319Y-74809108D01*
X122570486Y-74896319D01*
X122570487Y-74896322D01*
X122625270Y-75064930D01*
X122713915Y-75218469D01*
X122832546Y-75350222D01*
X122975976Y-75454429D01*
X123137939Y-75526540D01*
X123311352Y-75563400D01*
X123311355Y-75563400D01*
X123488648Y-75563400D01*
X123662057Y-75526541D01*
X123662057Y-75526540D01*
X123662061Y-75526540D01*
X123743182Y-75490421D01*
X123812431Y-75481136D01*
X123844054Y-75490422D01*
X123950166Y-75537667D01*
X124123578Y-75574526D01*
X124123581Y-75574526D01*
X124300874Y-75574526D01*
X124474283Y-75537667D01*
X124474283Y-75537666D01*
X124474287Y-75537666D01*
X124623728Y-75471129D01*
X124692975Y-75461844D01*
X124756252Y-75491472D01*
X124781549Y-75522409D01*
X124813915Y-75578468D01*
X124904150Y-75678684D01*
X124934380Y-75741675D01*
X124936000Y-75761656D01*
X124936000Y-76124444D01*
X124916315Y-76191483D01*
X124863511Y-76237238D01*
X124794353Y-76247182D01*
X124786220Y-76245734D01*
X124620533Y-76210517D01*
X124620530Y-76210517D01*
X124443240Y-76210517D01*
X124443237Y-76210517D01*
X124269824Y-76247376D01*
X124107861Y-76319487D01*
X123964431Y-76423694D01*
X123845800Y-76555447D01*
X123757155Y-76708986D01*
X123702372Y-76877594D01*
X123702371Y-76877598D01*
X123683839Y-77053917D01*
X123702371Y-77230236D01*
X123702372Y-77230239D01*
X123757155Y-77398847D01*
X123845800Y-77552386D01*
X123964431Y-77684139D01*
X124107861Y-77788346D01*
X124269824Y-77860457D01*
X124443237Y-77897317D01*
X124443240Y-77897317D01*
X124620532Y-77897317D01*
X124706629Y-77879016D01*
X124786220Y-77862099D01*
X124855886Y-77867415D01*
X124911620Y-77909552D01*
X124935725Y-77975132D01*
X124936000Y-77983389D01*
X124936000Y-78511680D01*
X124934939Y-78527865D01*
X124931132Y-78556775D01*
X124936000Y-78593743D01*
X124950517Y-78704010D01*
X125007347Y-78841209D01*
X125097749Y-78959025D01*
X125120883Y-78976776D01*
X125133079Y-78987472D01*
X128091827Y-81946220D01*
X128125312Y-82007543D01*
X128120328Y-82077235D01*
X128078456Y-82133168D01*
X128054582Y-82147180D01*
X127900976Y-82215570D01*
X127757546Y-82319777D01*
X127638916Y-82451529D01*
X127602773Y-82514131D01*
X127552205Y-82562346D01*
X127483598Y-82575568D01*
X127418733Y-82549600D01*
X127387999Y-82514129D01*
X127346085Y-82441532D01*
X127227453Y-82309777D01*
X127084023Y-82205570D01*
X126922060Y-82133459D01*
X126748648Y-82096600D01*
X126748645Y-82096600D01*
X126571355Y-82096600D01*
X126571352Y-82096600D01*
X126397939Y-82133459D01*
X126235976Y-82205570D01*
X126092546Y-82309777D01*
X125973915Y-82441530D01*
X125885270Y-82595069D01*
X125839390Y-82736276D01*
X125830486Y-82763681D01*
X125811954Y-82940000D01*
X125830486Y-83116319D01*
X125830487Y-83116322D01*
X125885270Y-83284930D01*
X125939211Y-83378359D01*
X125955684Y-83446259D01*
X125939211Y-83502359D01*
X125845270Y-83665069D01*
X125792606Y-83827155D01*
X125790486Y-83833681D01*
X125771954Y-84010000D01*
X125790486Y-84186319D01*
X125790487Y-84186322D01*
X125845270Y-84354930D01*
X125933913Y-84508466D01*
X125948673Y-84524859D01*
X125995149Y-84576475D01*
X126025378Y-84639465D01*
X126016753Y-84708800D01*
X125995149Y-84742418D01*
X125923913Y-84821533D01*
X125835270Y-84975069D01*
X125785833Y-85127223D01*
X125780486Y-85143681D01*
X125761954Y-85320000D01*
X125780486Y-85496319D01*
X125780487Y-85496322D01*
X125835270Y-85664930D01*
X125923915Y-85818469D01*
X126042546Y-85950222D01*
X126185976Y-86054429D01*
X126347939Y-86126540D01*
X126521352Y-86163400D01*
X126521355Y-86163400D01*
X126698648Y-86163400D01*
X126828707Y-86135755D01*
X126872061Y-86126540D01*
X127034023Y-86054429D01*
X127177454Y-85950221D01*
X127296084Y-85818469D01*
X127384729Y-85664931D01*
X127439514Y-85496319D01*
X127458046Y-85320000D01*
X127439514Y-85143681D01*
X127384729Y-84975069D01*
X127349331Y-84913758D01*
X127296084Y-84821530D01*
X127234851Y-84753524D01*
X127204621Y-84690532D01*
X127213246Y-84621197D01*
X127234849Y-84587583D01*
X127306084Y-84508469D01*
X127394729Y-84354931D01*
X127449514Y-84186319D01*
X127468046Y-84010000D01*
X127449514Y-83833681D01*
X127394729Y-83665069D01*
X127375648Y-83632019D01*
X127340789Y-83571641D01*
X127324316Y-83503741D01*
X127340788Y-83447642D01*
X127382225Y-83375870D01*
X127432792Y-83327654D01*
X127501399Y-83314430D01*
X127566264Y-83340398D01*
X127597000Y-83375869D01*
X127638915Y-83448469D01*
X127757546Y-83580222D01*
X127900976Y-83684429D01*
X128062939Y-83756540D01*
X128236352Y-83793400D01*
X128236355Y-83793400D01*
X128413648Y-83793400D01*
X128543706Y-83765755D01*
X128587061Y-83756540D01*
X128749023Y-83684429D01*
X128821160Y-83632019D01*
X128892452Y-83580223D01*
X128899349Y-83572563D01*
X128958835Y-83535914D01*
X129028692Y-83537243D01*
X129086741Y-83576129D01*
X129114551Y-83640225D01*
X129115500Y-83655534D01*
X129115500Y-85127223D01*
X129095815Y-85194262D01*
X129043011Y-85240017D01*
X128991500Y-85251223D01*
X128803952Y-85251223D01*
X128630539Y-85288082D01*
X128468576Y-85360193D01*
X128325146Y-85464400D01*
X128206515Y-85596153D01*
X128117870Y-85749692D01*
X128066489Y-85907830D01*
X128063086Y-85918304D01*
X128044554Y-86094623D01*
X128063086Y-86270942D01*
X128063087Y-86270945D01*
X128117870Y-86439553D01*
X128206515Y-86593092D01*
X128325146Y-86724845D01*
X128468576Y-86829052D01*
X128630539Y-86901163D01*
X128803952Y-86938023D01*
X128991500Y-86938023D01*
X129058539Y-86957708D01*
X129104294Y-87010512D01*
X129115500Y-87062023D01*
X129115499Y-92959172D01*
X129095814Y-93026211D01*
X129043010Y-93071966D01*
X128973852Y-93081910D01*
X128941064Y-93072452D01*
X128800925Y-93010058D01*
X128627516Y-92973200D01*
X128627513Y-92973200D01*
X128450223Y-92973200D01*
X128450220Y-92973200D01*
X128276807Y-93010059D01*
X128114844Y-93082170D01*
X127982430Y-93178374D01*
X127916623Y-93201854D01*
X127848570Y-93186028D01*
X127821864Y-93165737D01*
X124408406Y-89752279D01*
X124397710Y-89740083D01*
X124379959Y-89716949D01*
X124262143Y-89626547D01*
X124124944Y-89569717D01*
X124124944Y-89569716D01*
X124014678Y-89555200D01*
X123977710Y-89550333D01*
X123948799Y-89554139D01*
X123932616Y-89555200D01*
X123706740Y-89555200D01*
X123639701Y-89535515D01*
X123593946Y-89482711D01*
X123583419Y-89444164D01*
X123578114Y-89393681D01*
X123539552Y-89275000D01*
X123523329Y-89225069D01*
X123434684Y-89071530D01*
X123316053Y-88939777D01*
X123172623Y-88835570D01*
X123010660Y-88763459D01*
X122837248Y-88726600D01*
X122837245Y-88726600D01*
X122659955Y-88726600D01*
X122659952Y-88726600D01*
X122473790Y-88766169D01*
X122473461Y-88764623D01*
X122419178Y-88771898D01*
X122355903Y-88742266D01*
X122318694Y-88683128D01*
X122314000Y-88649335D01*
X122314000Y-85981200D01*
X122333685Y-85914161D01*
X122386489Y-85868406D01*
X122438000Y-85857200D01*
X122592848Y-85857200D01*
X122722906Y-85829555D01*
X122766261Y-85820340D01*
X122928223Y-85748229D01*
X123071654Y-85644021D01*
X123190284Y-85512269D01*
X123278929Y-85358731D01*
X123333714Y-85190119D01*
X123351709Y-85018900D01*
X123378294Y-84954289D01*
X123420205Y-84925040D01*
X123401087Y-84913758D01*
X123508992Y-84913758D01*
X123565584Y-84947154D01*
X123592961Y-84993547D01*
X123650270Y-85169931D01*
X123738915Y-85323469D01*
X123857546Y-85455222D01*
X124000976Y-85559429D01*
X124162939Y-85631540D01*
X124336352Y-85668400D01*
X124336355Y-85668400D01*
X124513648Y-85668400D01*
X124643706Y-85640755D01*
X124687061Y-85631540D01*
X124849023Y-85559429D01*
X124935887Y-85496319D01*
X124992453Y-85455222D01*
X125111084Y-85323469D01*
X125159265Y-85240017D01*
X125199729Y-85169931D01*
X125254514Y-85001319D01*
X125273046Y-84825000D01*
X125254514Y-84648681D01*
X125250217Y-84635458D01*
X125248221Y-84565623D01*
X125275997Y-84514171D01*
X125361304Y-84419429D01*
X125449949Y-84265891D01*
X125504734Y-84097279D01*
X125523266Y-83920960D01*
X125504734Y-83744641D01*
X125449949Y-83576029D01*
X125447416Y-83571641D01*
X125361304Y-83422490D01*
X125242673Y-83290738D01*
X125239377Y-83288343D01*
X125196712Y-83233012D01*
X125190734Y-83163399D01*
X125220112Y-83105056D01*
X125316084Y-82998469D01*
X125404729Y-82844931D01*
X125459514Y-82676319D01*
X125478046Y-82500000D01*
X125459514Y-82323681D01*
X125404729Y-82155069D01*
X125392253Y-82133460D01*
X125316084Y-82001530D01*
X125197453Y-81869777D01*
X125054023Y-81765570D01*
X125020196Y-81750509D01*
X124966959Y-81705259D01*
X124946638Y-81638410D01*
X124965684Y-81571186D01*
X124997746Y-81536912D01*
X125078254Y-81478421D01*
X125196884Y-81346669D01*
X125285529Y-81193131D01*
X125340314Y-81024519D01*
X125358846Y-80848200D01*
X125340314Y-80671881D01*
X125285529Y-80503269D01*
X125267832Y-80472616D01*
X125196884Y-80349730D01*
X125078253Y-80217977D01*
X124934823Y-80113770D01*
X124772860Y-80041659D01*
X124599448Y-80004800D01*
X124599445Y-80004800D01*
X124422155Y-80004800D01*
X124422152Y-80004800D01*
X124248739Y-80041659D01*
X124086776Y-80113770D01*
X123943346Y-80217977D01*
X123824715Y-80349730D01*
X123736070Y-80503269D01*
X123681287Y-80671877D01*
X123681286Y-80671881D01*
X123662754Y-80848200D01*
X123681286Y-81024519D01*
X123681287Y-81024522D01*
X123736070Y-81193130D01*
X123824715Y-81346669D01*
X123943346Y-81478422D01*
X124086774Y-81582628D01*
X124120602Y-81597689D01*
X124173839Y-81642939D01*
X124194161Y-81709788D01*
X124175116Y-81777012D01*
X124143053Y-81811287D01*
X124062544Y-81869779D01*
X123943915Y-82001530D01*
X123855270Y-82155069D01*
X123805003Y-82309779D01*
X123800486Y-82323681D01*
X123781954Y-82500000D01*
X123800486Y-82676319D01*
X123800487Y-82676322D01*
X123855270Y-82844930D01*
X123943915Y-82998469D01*
X124062546Y-83130221D01*
X124065838Y-83132613D01*
X124108506Y-83187941D01*
X124114487Y-83257555D01*
X124085106Y-83315905D01*
X123989135Y-83422490D01*
X123900490Y-83576029D01*
X123845707Y-83744637D01*
X123845706Y-83744641D01*
X123827174Y-83920960D01*
X123845706Y-84097279D01*
X123845707Y-84097282D01*
X123850002Y-84110502D01*
X123851995Y-84180344D01*
X123824221Y-84231788D01*
X123738915Y-84326530D01*
X123650270Y-84480069D01*
X123595486Y-84648677D01*
X123577490Y-84819896D01*
X123550905Y-84884511D01*
X123508992Y-84913758D01*
X123401087Y-84913758D01*
X123363615Y-84891645D01*
X123336238Y-84845251D01*
X123333714Y-84837483D01*
X123333714Y-84837481D01*
X123278929Y-84668869D01*
X123267274Y-84648682D01*
X123190284Y-84515330D01*
X123071653Y-84383577D01*
X122928223Y-84279370D01*
X122766260Y-84207259D01*
X122592848Y-84170400D01*
X122592845Y-84170400D01*
X122438000Y-84170400D01*
X122370961Y-84150715D01*
X122325206Y-84097911D01*
X122314000Y-84046400D01*
X122314000Y-74822077D01*
X122333685Y-74755038D01*
X122375236Y-74719033D01*
X122347446Y-74702633D01*
X122316023Y-74640229D01*
X122314000Y-74617922D01*
X122314000Y-74575826D01*
X122315061Y-74559640D01*
X122316504Y-74548677D01*
X122318868Y-74530725D01*
X122301163Y-74396249D01*
X122299483Y-74383491D01*
X122297352Y-74367306D01*
X122299155Y-74367068D01*
X122293956Y-74318710D01*
X122325231Y-74256231D01*
X122385319Y-74220578D01*
X122415986Y-74216726D01*
X122506048Y-74216726D01*
X122573087Y-74236411D01*
G37*
G04 #@! TD.AperFunction*
G04 #@! TA.AperFunction,Conductor*
G36*
X132074855Y-85896545D02*
G01*
X132091571Y-85915837D01*
X132221505Y-86101401D01*
X132388599Y-86268495D01*
X132574596Y-86398732D01*
X132618219Y-86453307D01*
X132625412Y-86522806D01*
X132593890Y-86585160D01*
X132574595Y-86601880D01*
X132388919Y-86731892D01*
X132221893Y-86898918D01*
X132091880Y-87084596D01*
X132037303Y-87128220D01*
X131967804Y-87135413D01*
X131905450Y-87103891D01*
X131888730Y-87084595D01*
X131817887Y-86983420D01*
X131758495Y-86898599D01*
X131591401Y-86731505D01*
X131405839Y-86601573D01*
X131362216Y-86546998D01*
X131355022Y-86477500D01*
X131386545Y-86415145D01*
X131405837Y-86398428D01*
X131591401Y-86268495D01*
X131758495Y-86101401D01*
X131888426Y-85915839D01*
X131943002Y-85872216D01*
X132012500Y-85865022D01*
X132074855Y-85896545D01*
G37*
G04 #@! TD.AperFunction*
G04 #@! TA.AperFunction,Conductor*
G36*
X131663002Y-83766239D02*
G01*
X131687833Y-83785450D01*
X132164189Y-84261806D01*
X132197674Y-84323129D01*
X132192690Y-84392821D01*
X132178083Y-84420610D01*
X132091574Y-84544159D01*
X132036998Y-84587784D01*
X131967499Y-84594978D01*
X131905144Y-84563455D01*
X131888429Y-84544164D01*
X131758495Y-84358599D01*
X131591401Y-84191505D01*
X131405402Y-84061267D01*
X131361780Y-84006692D01*
X131354587Y-83937193D01*
X131386109Y-83874839D01*
X131405404Y-83858119D01*
X131529028Y-83771556D01*
X131595234Y-83749229D01*
X131663002Y-83766239D01*
G37*
G04 #@! TD.AperFunction*
G04 #@! TA.AperFunction,Conductor*
G36*
X127113653Y-74236411D02*
G01*
X127134295Y-74253045D01*
X128029475Y-75148224D01*
X128062960Y-75209547D01*
X128065794Y-75235905D01*
X128065794Y-75827257D01*
X128046109Y-75894296D01*
X127993305Y-75940051D01*
X127960588Y-75947168D01*
X127960882Y-75948547D01*
X127774719Y-75988116D01*
X127612756Y-76060227D01*
X127469326Y-76164434D01*
X127350695Y-76296187D01*
X127262050Y-76449726D01*
X127213233Y-76599973D01*
X127207266Y-76618338D01*
X127188734Y-76794657D01*
X127207266Y-76970976D01*
X127207267Y-76970979D01*
X127252511Y-77110230D01*
X127254506Y-77180071D01*
X127218425Y-77239904D01*
X127160363Y-77269837D01*
X127139350Y-77274303D01*
X126977388Y-77346414D01*
X126833958Y-77450621D01*
X126715327Y-77582374D01*
X126626682Y-77735913D01*
X126573345Y-77900072D01*
X126571898Y-77904525D01*
X126553366Y-78080844D01*
X126571898Y-78257163D01*
X126571899Y-78257166D01*
X126626682Y-78425774D01*
X126715327Y-78579313D01*
X126833958Y-78711066D01*
X126960317Y-78802871D01*
X127002983Y-78858201D01*
X127008962Y-78927814D01*
X126976356Y-78989609D01*
X126960318Y-79003507D01*
X126920910Y-79032139D01*
X126855104Y-79055619D01*
X126787050Y-79039794D01*
X126760343Y-79019502D01*
X126100319Y-78359478D01*
X126066834Y-78298155D01*
X126064000Y-78271797D01*
X126064000Y-77053917D01*
X126063999Y-75761652D01*
X126083684Y-75694617D01*
X126095844Y-75678689D01*
X126186084Y-75578469D01*
X126274729Y-75424931D01*
X126329514Y-75256319D01*
X126348046Y-75080000D01*
X126329514Y-74903681D01*
X126274729Y-74735069D01*
X126269296Y-74725660D01*
X126252824Y-74657761D01*
X126269297Y-74601659D01*
X126284729Y-74574931D01*
X126339514Y-74406319D01*
X126347770Y-74327762D01*
X126374355Y-74263150D01*
X126431652Y-74223165D01*
X126471091Y-74216726D01*
X127046614Y-74216726D01*
X127113653Y-74236411D01*
G37*
G04 #@! TD.AperFunction*
G04 #@! TA.AperFunction,Conductor*
G36*
X132074856Y-65576545D02*
G01*
X132091571Y-65595837D01*
X132221505Y-65781401D01*
X132388599Y-65948495D01*
X132574596Y-66078732D01*
X132618219Y-66133307D01*
X132625412Y-66202806D01*
X132593890Y-66265160D01*
X132574595Y-66281880D01*
X132486549Y-66343531D01*
X132420343Y-66365858D01*
X132352575Y-66348848D01*
X132327744Y-66329637D01*
X131840721Y-65842615D01*
X131807236Y-65781292D01*
X131812220Y-65711601D01*
X131826826Y-65683813D01*
X131888426Y-65595839D01*
X131943003Y-65552215D01*
X132012501Y-65545023D01*
X132074856Y-65576545D01*
G37*
G04 #@! TD.AperFunction*
G04 #@! TA.AperFunction,Conductor*
G36*
X132074549Y-63036109D02*
G01*
X132091265Y-63055400D01*
X132221505Y-63241401D01*
X132388599Y-63408495D01*
X132574160Y-63538426D01*
X132617783Y-63593002D01*
X132624976Y-63662501D01*
X132593454Y-63724855D01*
X132574159Y-63741575D01*
X132388595Y-63871508D01*
X132221505Y-64038598D01*
X132091575Y-64224159D01*
X132036998Y-64267784D01*
X131967500Y-64274978D01*
X131905145Y-64243455D01*
X131888425Y-64224159D01*
X131800426Y-64098483D01*
X131758495Y-64038599D01*
X131591401Y-63871505D01*
X131405402Y-63741267D01*
X131361780Y-63686692D01*
X131354587Y-63617193D01*
X131386109Y-63554839D01*
X131405405Y-63538119D01*
X131591078Y-63408109D01*
X131758109Y-63241078D01*
X131888119Y-63055405D01*
X131942696Y-63011780D01*
X132012194Y-63004586D01*
X132074549Y-63036109D01*
G37*
G04 #@! TD.AperFunction*
G04 #@! TA.AperFunction,Conductor*
G36*
X132074854Y-60496545D02*
G01*
X132091572Y-60515838D01*
X132221505Y-60701401D01*
X132388599Y-60868495D01*
X132574160Y-60998426D01*
X132617783Y-61053002D01*
X132624976Y-61122501D01*
X132593454Y-61184855D01*
X132574159Y-61201575D01*
X132388595Y-61331508D01*
X132221508Y-61498595D01*
X132221505Y-61498598D01*
X132221505Y-61498599D01*
X132178963Y-61559356D01*
X132091269Y-61684596D01*
X132036692Y-61728220D01*
X131967193Y-61735413D01*
X131904839Y-61703891D01*
X131888119Y-61684595D01*
X131758109Y-61498921D01*
X131591081Y-61331893D01*
X131405404Y-61201880D01*
X131361780Y-61147303D01*
X131354587Y-61077804D01*
X131386109Y-61015450D01*
X131405399Y-60998734D01*
X131591401Y-60868495D01*
X131758495Y-60701401D01*
X131888427Y-60515838D01*
X131943001Y-60472216D01*
X132012499Y-60465022D01*
X132074854Y-60496545D01*
G37*
G04 #@! TD.AperFunction*
G04 #@! TA.AperFunction,Conductor*
G36*
X132075160Y-57956109D02*
G01*
X132091880Y-57975404D01*
X132221893Y-58161081D01*
X132388918Y-58328106D01*
X132574595Y-58458119D01*
X132618219Y-58512696D01*
X132625412Y-58582195D01*
X132593890Y-58644549D01*
X132574595Y-58661269D01*
X132388595Y-58791508D01*
X132221505Y-58958598D01*
X132091575Y-59144159D01*
X132036998Y-59187784D01*
X131967500Y-59194978D01*
X131905145Y-59163455D01*
X131888425Y-59144159D01*
X131758494Y-58958598D01*
X131591401Y-58791505D01*
X131591401Y-58791504D01*
X131405839Y-58661573D01*
X131362216Y-58606998D01*
X131355022Y-58537500D01*
X131386545Y-58475145D01*
X131405837Y-58458428D01*
X131591401Y-58328495D01*
X131758495Y-58161401D01*
X131888732Y-57975403D01*
X131943307Y-57931780D01*
X132012805Y-57924586D01*
X132075160Y-57956109D01*
G37*
G04 #@! TD.AperFunction*
M02*
